<svg xmlns="http://www.w3.org/2000/svg" xmlns:xlink="http://www.w3.org/1999/xlink" width="71" height="104"><defs><path id="a" d="M65.495 48.676c-3.505-6.865-7.538-14.02-11.99-21.271-2.613-4.258-5.402-8.262-8.37-12.526l-.285-.411a515.14 515.14 0 01-3.542-5.132L34.96 0l-8.42 12.358c-1.195 1.748-2.326 3.395-3.43 5.084C15.581 28.927 8.95 39.41 4.031 51.417 2.106 56.12.121 61.71.007 67.499c-.386 19.323 14.825 35.683 33.91 36.47.483.02.96.031 1.44.031.117 0 .233 0 .353-.003 18.386-.172 33.506-14.5 35.168-33.329.758-8.585-2.139-15.645-5.383-21.992"/><path id="c" d="M34.788.789l-8.33 12.225c-1.181 1.729-2.301 3.358-3.392 5.03-7.448 11.36-14.01 21.731-18.874 33.609C2.287 56.306.322 61.837.21 67.563c-.383 19.116 14.664 35.302 33.544 36.078a34 34 0 001.427.03l.347-.001c18.19-.172 33.15-14.345 34.79-32.973.752-8.491-2.115-15.476-5.323-21.756-3.47-6.79-7.458-13.869-11.861-21.042-2.586-4.212-5.345-8.174-8.282-12.388l-.282-.41a553.864 553.864 0 01-3.504-5.076"/><path id="e" d="M34.788.789l-8.33 12.225c-1.181 1.729-2.301 3.358-3.392 5.03-7.448 11.36-14.01 21.731-18.874 33.609C2.287 56.306.322 61.837.21 67.563c-.383 19.116 14.664 35.302 33.544 36.078a34 34 0 001.427.03l.347-.001c18.19-.172 33.15-14.345 34.79-32.973.752-8.491-2.115-15.476-5.323-21.756-3.47-6.79-7.458-13.869-11.861-21.042-2.586-4.212-5.345-8.174-8.282-12.388l-.282-.41a553.864 553.864 0 01-3.504-5.076"/><path id="g" d="M34.788.789l-8.33 12.225c-1.181 1.729-2.301 3.358-3.392 5.03-7.448 11.36-14.01 21.731-18.874 33.609C2.287 56.306.322 61.837.21 67.563c-.383 19.116 14.664 35.302 33.544 36.078a34 34 0 001.427.03l.347-.001c18.19-.172 33.15-14.345 34.79-32.973.752-8.491-2.115-15.476-5.323-21.756-3.47-6.79-7.458-13.869-11.861-21.042-2.586-4.212-5.345-8.174-8.282-12.388l-.282-.41a553.864 553.864 0 01-3.504-5.076L34.788.789z"/><path id="i" d="M0 316.71h172.872V.789H0z"/></defs><g fill="none" fill-rule="evenodd"><path fill="#FFF" d="M65.495 48.676c-3.505-6.865-7.538-14.02-11.99-21.271-2.613-4.258-5.402-8.262-8.37-12.526l-.285-.411a515.14 515.14 0 01-3.542-5.132L34.96 0l-8.42 12.358c-1.195 1.748-2.326 3.395-3.43 5.084C15.581 28.927 8.95 39.41 4.031 51.417 2.106 56.12.121 61.71.007 67.499c-.386 19.323 14.825 35.683 33.91 36.47.483.02.96.031 1.44.031.117 0 .233 0 .353-.003 18.386-.172 33.506-14.5 35.168-33.329.758-8.585-2.139-15.645-5.383-21.992"/><mask id="b" fill="#fff"><use xlink:href="#a"/></mask><use fill="#FFF" xlink:href="#a"/><g mask="url(#b)"><g transform="translate(.43 .281)"><mask id="d" fill="#fff"><use xlink:href="#c"/></mask><path fill="#2D4249" d="M36.234 47.999c-3.197 0-6.93.385-9.27 1.016-5.695 1.547-8.11 4.09-7.827 8.245.474 6.929 2.182 12.091 5.076 15.343 1.724 1.936 8.508 2.234 10.954 2.256.052-.002 5.093-.076 8.697-1.115 5.247-1.524 5.851-10.369 6.334-17.477.267-3.913.46-6.738-10.696-8.098-.946-.116-2.07-.17-3.268-.17m-1.276 27.792c-1.455 0-9.257-.118-11.44-2.569-3.033-3.41-4.822-8.758-5.31-15.898-.313-4.62 2.39-7.545 8.514-9.205 3.31-.898 9.338-1.302 12.894-.876 11.22 1.369 11.834 4.345 11.511 9.088-.503 7.398-1.132 16.603-7.005 18.305-3.726 1.078-8.731 1.15-8.942 1.153a5.335 5.335 0 01-.222.002" mask="url(#d)"/><mask id="f" fill="#fff"><use xlink:href="#e"/></mask><path fill="#2D4249" d="M-13.984 57.17c.555 1.56 1.915 2.37 8.143 2.756 2.942.188 6.65-.12 9.003-.733 1.7-.443 1.929-1.774 1.929-3.014.002-4.074-.424-8.526-3.594-10.659-3.33-2.237-9.741-2.3-12.47-.118-1.109.888-3.177 2.542-3.177 9.947.021.422.104 1.612.166 1.821m9.926 3.74c-.634 0-1.253-.018-1.84-.055-6.086-.377-8.181-1.165-8.964-3.374-.14-.393-.217-2.116-.217-2.132 0-6.902 1.693-9.208 3.525-10.673 3.047-2.437 9.893-2.403 13.571.072 3.534 2.375 4.005 7.113 4.003 11.43 0 .798 0 3.232-2.624 3.915-1.965.514-4.83.818-7.454.818" mask="url(#f)"/><g><mask id="h" fill="#fff"><use xlink:href="#g"/></mask><path fill="#2D4249" d="M-18.063 85.799c-.845 3.169-1.483 5.914-1.899 8.189-.898 4.814-.654 6.899-.432 7.712.294.884.37.928.915 1.079.194-.398.52-1.248.7-2.401.67-3.61.78-9.454.716-14.58zm-1.182 17.97h-.034a1.864 1.864 0 01-.347-.065c-.903-.25-1.236-.447-1.66-1.734-.305-1.112-.477-3.404.407-8.152.553-3.012 1.485-6.835 2.768-11.36a.454.454 0 01.507-.336c.228.03.4.22.406.45.153 5.733.163 13.504-.66 17.963-.239 1.515-.742 2.701-1.023 3.057a.47.47 0 01-.364.176zm-25.5-9.721c-.084.412-.164.828-.24 1.25-1.224 6.65-1.44 12.97-1.479 14.75.242 1.22.524 1.79.735 2.054.373-.68.693-1.691.898-2.863.599-3.218.628-8.203.085-15.191zm-.856 19.184a.484.484 0 01-.14-.02c-.483-.153-1.174-.64-1.644-3.087.029-1.894.248-8.276 1.482-14.997.271-1.476.58-2.898.917-4.225.056-.221.278-.345.487-.35.227.02.407.197.428.42l.056.649c.747 8.319.78 14.136.103 17.783-.275 1.552-.753 2.88-1.314 3.639a.46.46 0 01-.375.188zm-25.103 9.084c-.989 3.113-1.73 5.992-2.206 8.598-1.532 8.328-.737 9.587-.456 9.773.388-.207.7-2.49.888-3.852.09-.64.179-1.29.282-1.897.69-3.748 1.145-8.545 1.466-12.304.01-.105.018-.213.026-.318zm-2.666 19.292c-.153 0-.312-.041-.465-.12-.843-.555-1.553-2.252.008-10.743.64-3.486 1.74-7.459 3.275-11.801a.463.463 0 01.902.157 41.998 41.998 0 01-.153 3.614c-.32 3.78-.783 8.603-1.476 12.387-.101.59-.188 1.227-.275 1.86-.352 2.545-.607 4.128-1.406 4.545a.89.89 0 01-.41.101zm84.76-52.837c-.78 9.901-1.874 17.728-2.24 19.731-.234 1.307 0 1.78.076 1.897.073.111.18.227.603.312.352.06.615.116.95-.559.226-.704.273-.979.404-1.712l.09-.507v-.002c1.085-5.829.706-13.382.117-19.16zm2.115 222.94c-.029 0-.056 0-.085-.007a.469.469 0 01-.374-.544c1.798-9.785 3.109-19.193 3.893-27.966 2.089-23.335 3.844-37.767 6.055-49.813v-.004c1.385-7.532 2.962-14.177 4.964-20.915 1.209-4.072 2.494-8.048 3.856-12.259 3.706-11.463 7.535-23.314 10.398-38.903.644-3.52 1.221-7.148 1.72-10.789 1.362-10.027 2.263-18.03 2.985-24.461.795-7.086 1.424-12.683 2.267-17.287.517-2.821 1.088-5.14 1.796-7.299.64-1.964 1.408-3.933 2.221-6.015 1.69-4.332 3.437-8.812 4.405-14.107.965-5.268.992-10.495.09-15.972-.23-1.385-.419-2.668-.59-3.869-.698-4.78-1.203-8.234-3.348-11.511-3.674-5.616-10.401-8.075-21.134-7.81-11.265.3-18.297 5.953-20.901 16.796v.006c-.06.244-2.65 11.379.002 24.805l.002.014v.002c.002.006.002.01.002.017.795 5.725 1.91 16.485.462 24.28l-.091.504c-.129.735-.19 1.07-.46 1.9-.675 1.37-1.584 1.203-1.973 1.124-.604-.12-.973-.341-1.219-.716-.242-.362-.478-1.105-.215-2.575.42-2.306 1.809-12.366 2.565-24.426-2.642-13.457-.098-24.65.014-25.136.994-5.57-1.122-10.3-2.022-12.32l-.058-.127C6.714 41.798 3.088 39.14-2.356 38.2c-3.244-.56-7.837-.304-10.806 1.532-3.088 1.908-5.562 5.773-6.3 9.847-.038.209-.284 1.906-.195 2.863a.467.467 0 01-.182.416.455.455 0 01-.454.06l-.998-.414c-1.827-.77-4.891-2.06-6.766-2.403l-.123-.023c-4.344-.808-10.283-.654-13.916 4.57a20.788 20.788 0 00-3.385 8.164c-.026.143-.63 3.46-.17 7.016a.462.462 0 01-.268.486.46.46 0 01-.545-.12l-.38-.45c-1.032-1.23-2.443-2.916-5.704-3.965l-1.353-.242c-1.263-.234-3.323-.274-4.966.39-7.307 3.093-12.058 11.226-12.097 20.721-.007 1.331.08 4.35.138 6.347.06 2.07.058 2.074.042 2.16a.465.465 0 01-.677.322c-.37-.199-.793-.453-1.257-.733-3.33-2.01-8.362-5.049-12.54 1.36-4.152 6.349-7.21 12.172-8.638 19.967-.47 2.565-.764 5.295-.894 8.34-.46 10.55-.915 16.142-1.617 19.953a30.688 30.688 0 01-.482 2.19c-.267 1.019-1.215 4.745-2.18 9.998-1.77 9.671-3.488 23.772-1.623 36.041v.002c2.89 18.928 3.952 37.542 2.638 46.312-1.381 9.388-1.7 29.181 1.906 43.78a.469.469 0 01-.342.566.471.471 0 01-.563-.342c-3.637-14.724-3.314-34.674-1.923-44.14 1.302-8.69.243-27.186-2.635-46.03l-.002-.005c-1.883-12.397-.157-26.61 1.627-36.351.973-5.287 1.925-9.042 2.194-10.069.172-.65.33-1.364.468-2.122.688-3.713 1.151-9.457 1.602-19.822.133-3.088.429-5.86.91-8.47 1.454-7.947 4.56-13.865 8.774-20.307 4.672-7.16 10.61-3.575 13.8-1.648.179.106.353.211.516.309l-.033-1.236c-.06-2.004-.147-5.03-.139-6.376.04-9.865 5.014-18.336 12.67-21.577 1.835-.737 4.108-.702 5.494-.447l1.41.258c2.99.957 4.538 2.379 5.608 3.588-.182-3.093.292-5.695.314-5.821a21.728 21.728 0 013.536-8.529c4.125-5.928 11.072-5.645 14.852-4.955l.122.023c1.975.36 5.097 1.676 6.96 2.46.114.046.221.094.32.135.02-1.002.187-2.148.228-2.368.797-4.386 3.376-8.4 6.73-10.472 3.393-2.099 8.296-2.204 11.451-1.656 5.775.996 9.628 3.83 11.778 8.663l.058.128c.717 1.598 2.161 4.832 2.348 8.87C15.342 46.13 22.258 41.523 32.6 41.25c11.116-.327 18.067 2.319 21.938 8.23 2.258 3.45 2.773 6.989 3.488 11.886.174 1.195.36 2.474.585 3.853.924 5.585.895 10.915-.089 16.289-.985 5.384-2.749 9.907-4.454 14.278-.808 2.073-1.571 4.029-2.205 5.968-.693 2.12-1.252 4.399-1.761 7.177-.839 4.573-1.435 9.878-2.26 17.222-.723 6.436-1.622 14.447-2.988 24.482-.5 3.656-1.08 7.301-1.724 10.833-2.875 15.649-6.717 27.53-10.43 39.021-1.36 4.206-2.644 8.175-3.849 12.24-1.993 6.703-3.562 13.316-4.941 20.814v.004c-2.205 12.016-3.958 26.424-6.047 49.73-.782 8.8-2.096 18.238-3.9 28.052a.468.468 0 01-.459.381z" mask="url(#h)"/></g></g><g transform="translate(-102 -4.719)"><path fill="#F7BDA3" d="M126.895 76.046c2.109 2.484 10.703 2.298 10.703 2.298s4.848-.104 8.374-1.2c5.286-1.644 5.934-13.14 6.475-20.504.314-4.283.215-7.165-10.46-8.431-3.47-.412-9.106.093-12.066.958-5.728 1.673-8.063 4.473-7.82 8.723.42 7.382 2.156 15.047 4.794 18.156"/><mask id="j" fill="#fff"><use xlink:href="#i"/></mask><path fill="#FEFEFE" d="M122.641 78.505h30.916v-.828h-30.916zm0 2.418h30.916v-.828h-30.916z" mask="url(#j)"/><path fill="#2D4249" d="M122.641 78.505h2.07v-.828h-2.07v.828zm3.52 0h2.07v-.828h-2.07v.828zm3.518 0h2.07v-.828h-2.07v.828zm3.52 0h2.07v-.828h-2.07v.828zm3.518 0h2.07v-.828h-2.07v.828zm3.52 0h2.07v-.828h-2.07v.828zm3.518 0h2.07v-.828h-2.07v.828zm3.52 0h2.07v-.828h-2.07v.828zm3.518 0h2.07v-.828h-2.07v.828zm-28.152 2.418h2.07v-.828h-2.07v.828zm3.52 0h2.07v-.828h-2.07v.828zm3.518 0h2.07v-.828h-2.07v.828zm3.52 0h2.07v-.828h-2.07v.828zm3.518 0h2.07v-.828h-2.07v.828zm3.52 0h2.07v-.828h-2.07v.828zm3.518 0h2.07v-.828h-2.07v.828zm3.52 0h2.07v-.828h-2.07v.828zm3.518 0h2.07v-.828h-2.07v.828z" mask="url(#j)"/></g></g></g></svg>