<svg xmlns="http://www.w3.org/2000/svg" xmlns:xlink="http://www.w3.org/1999/xlink" width="47" height="74" viewBox="0 0 47 74">
    <defs>
        <path id="prefix__a" d="M0.542 0.186L25.473 0.186 25.473 49.855 0.542 49.855z"/>
    </defs>
    <g fill="none" fill-rule="evenodd">
        <path stroke="#2C4349" stroke-linejoin="round" stroke-width="1.08" d="M8.314 16.244C6.016 16.06 1.335 23.394.8 41.533.264 59.673.264 59.673.8 73M36.723 16.244c2.298-.184 6.752 7.483 7.515 25.289C45 59.339 45 64.315 44.238 73" transform="translate(1)"/>
        <path stroke="#2C444A" stroke-linejoin="round" stroke-width="1.08" d="M22.776 53.37c9.562 0 14.03-8.4 14.377-13.71.32-4.841-.326-15.734-.274-17.68.369-13.28-6.51-18.836-14.585-18.907C14.222 3.002 9.028 9.94 8.792 18.271c-.188 6.743-.475 18.35-.477 21.377-.002 4.729 2.024 13.723 14.461 13.723z" transform="translate(1)"/>
        <g transform="translate(1) translate(9.8 .774)">
            <mask id="prefix__b" fill="#fff">
                <use xlink:href="#prefix__a"/>
            </mask>
            <path fill="#F9B79C" d="M13.008 49.855c8.24 0 12.091-7.392 12.39-12.306.271-4.477-.284-16.455-.236-18.254.315-12.288-3.363-19.11-12.57-19.11C2.934.186 1.159 8.153.958 15.864.793 22.1.544 34.737.542 37.54c0 4.371 1.75 12.314 12.466 12.314" mask="url(#prefix__b)"/>
        </g>
        <path stroke="#6E7F84" stroke-dasharray="2.16 2.16" stroke-linejoin="round" stroke-width="1.08" d="M6.308 50.629L38.73 50.629M6.308 53.162L38.73 53.162" transform="translate(1)"/>
    </g>
</svg>
