<svg xmlns="http://www.w3.org/2000/svg" xmlns:xlink="http://www.w3.org/1999/xlink" width="71" height="104" viewBox="0 0 71 104">
    <defs>
        <path id="prefix__a" d="M65.495 48.676c-3.505-6.865-7.538-14.02-11.99-21.271-2.613-4.258-5.402-8.262-8.37-12.526l-.285-.411c-1.161-1.667-2.346-3.37-3.542-5.132L34.96 0l-8.42 12.358c-1.195 1.748-2.326 3.395-3.43 5.084C15.581 28.927 8.95 39.41 4.031 51.417 2.106 56.12.121 61.71.007 67.499c-.386 19.323 14.825 35.683 33.91 36.47.483.02.96.031 1.44.031.117 0 .233 0 .353-.003 18.386-.172 33.506-14.5 35.168-33.329.758-8.585-2.139-15.645-5.383-21.992"/>
        <path id="prefix__c" d="M0.893 0.407L36.806 0.407 36.806 48.68 0.893 48.68z"/>
    </defs>
    <g fill="none" fill-rule="evenodd">
        <path fill="#FFF" d="M65.495 48.676c-3.505-6.865-7.538-14.02-11.99-21.271-2.613-4.258-5.402-8.262-8.37-12.526l-.285-.411c-1.161-1.667-2.346-3.37-3.542-5.132L34.96 0l-8.42 12.358c-1.195 1.748-2.326 3.395-3.43 5.084C15.581 28.927 8.95 39.41 4.031 51.417 2.106 56.12.121 61.71.007 67.499c-.386 19.323 14.825 35.683 33.91 36.47.483.02.96.031 1.44.031.117 0 .233 0 .353-.003 18.386-.172 33.506-14.5 35.168-33.329.758-8.585-2.139-15.645-5.383-21.992"/>
        <mask id="prefix__b" fill="#fff">
            <use xlink:href="#prefix__a"/>
        </mask>
        <use fill="#FFF" xlink:href="#prefix__a"/>
        <g mask="url(#prefix__b)">
            <g>
                <path fill="#2D4249" d="M119.287 50.119c-2.734 0-5.929.328-7.931.873-4.84 1.314-6.89 3.465-6.647 6.975.4 5.928 1.861 10.345 4.334 13.124 1.456 1.636 7.252 1.901 9.335 1.906.043-.003 4.365-.066 7.445-.957 4.444-1.289 4.955-8.849 5.369-14.928.234-3.427.39-5.69-9.101-6.847-.808-.1-1.773-.146-2.804-.146m-1.165 23.89c-1.555 0-7.954-.13-9.835-2.245-2.628-2.95-4.17-7.57-4.59-13.725-.277-4.032 2.074-6.582 7.393-8.024 2.862-.776 8.058-1.123 11.124-.756 9.738 1.188 10.27 3.787 9.988 7.925-.434 6.387-.972 14.343-6.097 15.828-3.213.93-7.531.993-7.713.995-.061.002-.151.002-.27.002M76.232 57.868c.463 1.29 1.62 1.962 6.903 2.293 2.513.157 5.683-.101 7.706-.63 1.388-.36 1.58-1.409 1.58-2.486.002-3.474-.358-7.268-3.042-9.072-2.831-1.908-8.278-1.962-10.593-.106-.941.751-2.694 2.149-2.694 8.462.018.349.088 1.343.14 1.54m8.426 3.347c-.544 0-1.078-.016-1.584-.045-5.283-.33-7.105-1.024-7.798-2.972v-.002c-.126-.363-.194-1.854-.194-1.868 0-5.976 1.476-7.978 3.071-9.254 2.649-2.117 8.598-2.095 11.793.058 3.075 2.068 3.49 6.172 3.487 9.912 0 .706 0 2.857-2.338 3.467-1.7.443-4.176.704-6.437.704" transform="translate(-86 4)"/>
                <path fill="#2D4249" d="M72.527 83.29c-.623 2.392-1.102 4.494-1.429 6.271-.77 4.124-.564 5.895-.375 6.584.216.654.258.722.627.83.165-.362.414-1.05.556-1.955.54-2.914.657-7.529.621-11.73zm-.918 14.765h-.045c-.07-.005-.135-.016-.198-.027-.043-.009-.13-.036-.17-.056-.746-.198-1.063-.385-1.44-1.535-.381-1.377-.26-3.811.346-7.06.481-2.608 1.28-5.895 2.378-9.774.072-.239.281-.39.553-.365.248.034.435.241.441.49.13 4.933.14 11.622-.569 15.463-.207 1.31-.648 2.353-.895 2.67-.097.124-.246.194-.4.194zm-21.967-7.668c-.018.099-.038.2-.054.302-1.046 5.694-1.235 11.13-1.269 12.663.156.762.342 1.266.513 1.552.28-.57.522-1.375.68-2.268.49-2.641.535-6.664.13-12.249zm-.688 15.804c-.052 0-.104-.007-.155-.025-.44-.141-1.07-.58-1.48-2.731.024-1.654.213-7.16 1.27-12.931.248-1.325.504-2.516.792-3.638.061-.241.284-.392.53-.38.244.02.442.213.463.456l.05.556c.643 7.157.672 12.166.087 15.318-.243 1.368-.65 2.495-1.15 3.17-.097.133-.247.205-.407.205zm-21.764 8.662c-.707 2.32-1.245 4.478-1.605 6.449-1.188 6.462-.738 7.9-.508 8.217.295-.416.529-2.12.673-3.161.074-.552.15-1.114.24-1.634.55-2.986.927-6.757 1.2-9.87zm-2.102 15.728c-.148 0-.304-.038-.45-.115-.805-.533-1.393-2.031-.052-9.349.552-2.996 1.499-6.414 2.82-10.158.08-.234.315-.367.562-.331.245.043.423.254.42.5-.001 1.145-.044 2.164-.132 3.12-.277 3.251-.673 7.405-1.267 10.654-.087.504-.164 1.053-.238 1.593-.313 2.29-.529 3.607-1.262 3.987-.126.065-.261.099-.4.099zm72.86-44.33c-.66 7.938-1.528 14.14-1.827 15.786-.2 1.112.002 1.488.045 1.55.051.082.128.163.456.228.277.054.446.079.702-.425.183-.585.223-.82.336-1.445l.076-.434c.86-4.615.648-10.485.212-15.26zm1.81 190.542c-.03 0-.062 0-.091-.007-.277-.05-.46-.315-.408-.592 1.548-8.424 2.673-16.51 3.346-24.03 1.796-20.065 3.305-32.474 5.207-42.826h.002c1.186-6.469 2.54-12.189 4.266-17.991 1.04-3.504 2.144-6.924 3.316-10.544 3.184-9.848 6.476-20.03 8.933-33.421.553-3.02 1.048-6.138 1.478-9.268 1.17-8.618 1.944-15.496 2.565-21.026.686-6.091 1.226-10.901 1.95-14.864.446-2.425.94-4.423 1.547-6.288.55-1.693 1.212-3.387 1.912-5.18 1.45-3.717 2.95-7.562 3.78-12.103.826-4.513.853-8.993.077-13.693-.196-1.193-.358-2.297-.509-3.332-.596-4.091-1.028-7.05-2.86-9.846-3.138-4.795-8.896-6.924-18.076-6.665-9.626.259-15.635 5.09-17.865 14.355v.007c-.056.225-2.268 9.772.004 21.276 0 .007.003.013.003.013l.004.023c.682 4.925 1.643 14.184.394 20.904l-.079.428c-.11.637-.164.927-.396 1.647-.619 1.258-1.456 1.107-1.818 1.042-.376-.077-.823-.216-1.118-.662-.218-.328-.432-.994-.198-2.293.362-1.986 1.55-10.638 2.2-20.967-2.263-11.554-.094-21.17.014-21.636.848-4.745-.954-8.791-1.726-10.517l-.052-.117c-1.719-3.858-4.81-6.122-9.452-6.923-2.763-.475-6.685-.261-9.216 1.3-2.63 1.625-4.736 4.921-5.364 8.393-.036.189-.245 1.622-.169 2.432.018.176-.058.349-.198.453-.14.108-.326.132-.492.067-.216-.085-.511-.212-.86-.358-1.568-.659-4.194-1.768-5.794-2.059-3.804-.697-8.867-.578-11.963 3.864-1.453 2.097-2.428 4.446-2.891 6.981-.054.302-.527 3.045-.144 5.994.03.223-.09.437-.295.527-.198.094-.44.043-.59-.128l-.323-.385c-.878-1.049-2.08-2.486-4.86-3.38l-1.146-.204c-1.068-.198-2.817-.232-4.212.33-6.239 2.64-10.298 9.594-10.332 17.715-.002 1.13.07 3.699.12 5.4.051 1.838.051 1.84.033 1.926-.027.16-.132.292-.279.364-.14.07-.31.066-.456-.011-.322-.173-.687-.392-1.087-.635C22.764 88.58 18.49 86 14.956 91.422c-3.564 5.445-6.187 10.44-7.409 17.123-.405 2.195-.655 4.535-.77 7.154-.386 8.935-.79 13.908-1.388 17.164-.128.704-.27 1.332-.416 1.892-.232.877-1.046 4.09-1.87 8.584-1.52 8.3-2.999 20.405-1.4 30.946v.002c2.492 16.281 3.403 32.29 2.269 39.837-1.184 8.064-1.456 25.06 1.64 37.59.065.273-.099.547-.371.614-.27.061-.545-.1-.614-.37-3.128-12.664-2.851-29.833-1.656-37.98 1.12-7.46.209-23.347-2.268-39.536v-.002c-1.623-10.683-.13-22.91 1.401-31.286.83-4.525 1.656-7.772 1.888-8.656.144-.54.277-1.143.4-1.818.59-3.208.988-8.138 1.375-17.023.115-2.666.372-5.051.783-7.295 1.254-6.849 3.929-11.947 7.558-17.493 4.068-6.235 9.23-3.126 12.004-1.452.097.056.189.113.281.169l-.03-.916c-.046-1.71-.118-4.29-.114-5.436.034-8.523 4.334-15.844 10.955-18.648 1.607-.645 3.582-.61 4.784-.389l1.21.22c2.426.779 3.758 1.9 4.68 2.896-.11-2.443.239-4.462.286-4.725.493-2.68 1.521-5.159 3.058-7.375 3.58-5.144 9.596-4.898 12.872-4.307 1.814.336 4.502 1.47 6.109 2.147.045.016.09.036.133.054.033-.916.19-1.886.193-1.897.69-3.798 2.923-7.276 5.832-9.074 2.945-1.82 7.184-1.915 9.918-1.438 5.002.864 8.339 3.319 10.204 7.508l.054.117c.59 1.321 1.753 3.931 1.993 7.203 2.98-7.261 9.01-11.188 17.638-11.42 9.527-.24 15.597 2.005 18.95 7.122 1.955 2.983 2.398 6.035 3.012 10.255.153 1.029.31 2.127.507 3.313.794 4.817.77 9.409-.077 14.04-.85 4.637-2.367 8.527-3.834 12.289-.695 1.78-1.352 3.46-1.894 5.126-.597 1.82-1.076 3.775-1.512 6.155-.718 3.927-1.231 8.487-1.94 14.796-.623 5.533-1.4 12.418-2.572 21.05-.427 3.142-.927 6.277-1.48 9.312-2.473 13.457-5.776 23.672-8.969 33.55-1.167 3.615-2.272 7.031-3.307 10.523-1.715 5.767-3.065 11.448-4.244 17.883v.002c-1.896 10.317-3.402 22.698-5.197 42.734-.673 7.552-1.802 15.67-3.355 24.123-.045.245-.259.414-.497.414z" transform="translate(-86 4)"/>
                <path fill="#F7BDA3" d="M131.071 50.057c-.263-3.7-.695-6.136-9.95-5.893-3.017.088-7.746 1.235-10.163 2.32-4.66 2.144-6.29 4.806-5.562 8.41.444 2.158 1.04 4.343 1.735 6.336-.26-.92-.484-1.923-.722-3.05-.731-3.603.407-5.486 5.092-7.635 2.414-1.111 7.148-2.232 10.138-2.315 3.265-.088 5.688-.29 7.013.202 2.039.759 2.42 1.625 2.42 1.625" transform="translate(-86 4)"/>
                <path fill="#F7BDA3" d="M130.718 56.414c-.299 3.946-.524 7.942-1.748 10.741-.25.574-.524 1.076-.875 1.523-.673.9-1.523 1.55-2.646 1.9-.252.074-.527.148-.801.224-2.048.5-4.221.65-5.319.673-.45.027-.702.027-.702.027s-7.394.149-9.216-1.973c-.15-.176-.275-.349-.425-.55-1.573-2.049-2.448-4.497-2.898-8.419 0-.024-.025-.074 0-.123-.124-.95-.2-1.976-.275-3.126-.2-3.67 1.2-5.368 6.147-6.817 2.547-.75 7.394-1.175 10.366-.824 9.191 1.098 8.667 3.047 8.392 6.744" transform="translate(-86 4)"/>
                <path fill="#2D4249" d="M139.225 51.314c-.022 0-.045 0-.067-.005-.228-.031-.405-.209-.437-.436-.002-.025-.33-2.473-1.699-4.138-.18-.216-.148-.533.07-.713.212-.178.529-.149.711.072.801.97 1.283 2.14 1.562 3.062l14.03-33.638c.109-.256.408-.38.664-.272.257.108.38.403.273.664l-14.639 35.093c-.079.19-.265.31-.468.31" transform="translate(-86 4)"/>
                <g transform="translate(-86 4) translate(117.9 .043)">
                    <mask id="prefix__d" fill="#fff">
                        <use xlink:href="#prefix__c"/>
                    </mask>
                    <path fill="#2D4249" d="M18.673 48.68h-.007c-.196-.002-.371-.119-.454-.294-.014-.034-1.57-3.315-7-6.278-5.411-2.95-9.648-1.92-9.689-1.91-.182.054-.391-.016-.517-.169-.124-.153-.149-.364-.063-.542l5.931-12.22L26.429.616c.166-.23.483-.275.708-.11.225.166.275.483.11.706L7.739 27.79l-5.46 11.268c1.648-.18 5.181-.148 9.415 2.165 4.107 2.236 6.105 4.637 6.94 5.886l17.212-35.139c.121-.254.427-.36.677-.234.252.124.356.428.232.678L19.127 48.397c-.085.173-.26.283-.454.283" mask="url(#prefix__d)"/>
                </g>
                <path fill="#2D4249" d="M143.38 34.828c-.27 0-.495-.214-.506-.486L141.778 7.08c-.011-.28.207-.516.486-.525.28 0 .513.207.524.484l1.098 27.264c.01.279-.207.512-.486.524h-.02zM134.584 34.21c-.463 0-.922-.117-1.343-.346l-1.456-.797c-1.356-.742-1.858-2.452-1.118-3.811l2.315-4.248c.138-.243.441-.333.687-.203.245.135.335.443.202.686l-2.317 4.248c-.473.869-.151 1.965.72 2.442l1.453.794c.428.236.918.288 1.386.142.468-.142.848-.46 1.073-.894l2.26-4.362c.128-.25.434-.342.683-.219.248.13.345.435.216.684l-2.259 4.363c-.35.677-.947 1.175-1.676 1.395-.272.083-.549.126-.826.126" transform="translate(-86 4)"/>
                <path fill="#2D4249" d="M135.551 29.693c0 .571-.465 1.037-1.037 1.037-.574 0-1.04-.466-1.04-1.037 0-.574.466-1.04 1.04-1.04.571 0 1.037.466 1.037 1.04M139.113 43.54c-.196 0-.382-.115-.466-.306-.016-.036-1.586-3.584-6.547-6.183-5.009-2.628-9.677-2.192-9.722-2.192-.311.047-.53-.178-.556-.454-.027-.28.175-.527.454-.554.21-.02 5.022-.463 10.294 2.304 5.301 2.779 6.941 6.523 7.009 6.683.11.256-.012.553-.266.661-.065.027-.135.04-.2.04M113.39 34.237L111.047 25.205 112.028 24.951 114.371 33.982zM109.999 35.696L102.806 27.796 103.553 27.116 110.746 35.014zM108.488 38.335L101.897 37.169 102.073 36.172 108.663 37.338z" transform="translate(-86 4)"/>
            </g>
        </g>
    </g>
</svg>
