<svg xmlns="http://www.w3.org/2000/svg" width="40" height="29" viewBox="0 0 40 29">
    <g fill="#2C4349" fill-rule="evenodd">
        <path d="M17.882 34.08l.049 2.289c2.057-1.184 3.937-2.754 5.518-4.711 3.68-4.555 5.003-10.246 4.132-15.604.238 4.689-1.181 9.48-4.364 13.419-1.534 1.9-3.35 3.437-5.335 4.608M5.984 10.315l-.737-2.167c-1.604 1.75-2.923 3.814-3.84 6.156-2.133 5.453-1.678 11.278.769 16.124-1.641-4.399-1.734-9.395.112-14.11.89-2.274 2.156-4.288 3.696-6.003M21.27 19.099c.038.596.311.91 0 2.491.014.002.117 2.175-3.636 6.128-1.122 1.18-2.972 1.835-3.15 2.462-.155.538-.299 3.072-1.318 3.236-.846.116-2.53-1.625-2.405-3.722.568.379.698 1.59 2.206 2.175.388-.657.436-1.695.171-2.663 4.25-1.823 7.191-7.198 7.415-9.047.21-1.526-.046-2.1 0-3.093.217.707.717 1.686.716 2.033M26.424 12.398c-.01.734.02.99-.458 1.718l-.143-1.718c-.01-.055-.512-2.023-2.148-2.863-.28.352-.363.34-.372.716.009.59 1.918 2.034 1.918 4.552 0 .465-.178.881-.172.888-.156.261-.413.173-.772.171-.011.002-3.71-1.609-3.723-4.409v-.6c.419 1.79 2.09 3.065 3.665 4.007L23.675 13c-.38-1.285-1.557-2.72-1.546-3.208-.011-.55.467-.919.458-2.405.009-1.152-.623-2.476-1.06-3.093-.601.294-.332.86-.286 1.346-.034-.032-.553-.157-.687-1.575-.074-.007-1.218.3-1.947 1.031-.88.866-1.361 2.208-1.374 2.663-.185.004-.937.087-1.92.602-4.28 2.205-.74 3.415-5.01 6.07h-.486c1.207-1.43 1.612-3.676 1.803-4.896.269-1.725.012-3.516 0-3.579-.15-.622-.477-2.292-.487-2.29 1.609 1.322 1.668 4.501 1.919 5.095 2.1-2.097 2.779-1.833 3.092-2.09.259-.197.593-3.216 4.782-3.207 1.515-.009 2.624 2.867 2.635 3.81-.011 1.706 2.853 2.291 2.863 5.124" transform="rotate(-90 14.5 14)"/>
        <path d="M21.986 7.874c.049.4.059.338-.143.859l-.516.029c.107-.551.028-1.297.086-2.091.323.424.528.542.573 1.203M16.345 2.577c-.012 1.206-.997 2.697-1.117 2.863-.058-.807.085-.905-.057-2.72-.001-.011-.091-1.532-.344-2.72 1.163.83 1.545.665 1.518 2.577M8.041 25.684l-.945 1.976C5.977 30 8.934 32.21 9.473 33.043c-1.887.372-5.697 2.237-6.414 4.925-.44-.385-.389-.83-.401-1.346.012-1.297 2.108-3.758 3.751-3.75-.009-.008 1.215-.068 1.489-.058-1.426-.737-2.362-2.258-2.348-3.55-.014-.987.075-1.202.458-2.062.086-.188 2.951-4.872 4.953-5.126-.105.217-2.532 2.586-2.92 3.608" transform="rotate(-90 14.5 14)"/>
        <path d="M1.455 33.988l-.115-.773c.303-1.887 3.054-2.23 3.81-1.689-.002-.004.565.324.83.601-1.369.051-2.413.2-2.72.315-.767.333-.439-.234-1.805 1.546M5.963 8.418L7.194 7.32l-.58-1.536c.49.251.922.615 1.415.877.433-.339.851-.685 1.278-1.044-.11.522-.256 1.118-.399 1.65l1.381.874c-.522.064-1.086.095-1.624.141l-.44 1.626-.637-1.578-1.625.088zM13.19 37.528l.822-1.431-1.036-1.274c.546.083 1.07.293 1.62.385.304-.457.593-.918.884-1.393.059.53.11 1.143.142 1.69l1.586.396c-.476.226-1.001.432-1.497.646l.095 1.682-1.102-1.297-1.514.596zM1.021 30.89v.145c0 .151.047.198.143.198.096 0 .144-.058.144-.165v-.178h-.287zm-.572-.194h1.017v.405c0 .232-.134.325-.302.326-.125.002-.226-.061-.262-.186l-.453.224v-.215l.414-.192v-.168H.449v-.194z" transform="rotate(-90 14.5 14)"/>
        <path d="M1.912 31.04c0-.527-.428-.956-.956-.956S0 30.513 0 31.04c0 .528.428.956.956.956s.956-.428.956-.956m-.172 0c0 .433-.352.784-.784.784-.432 0-.784-.351-.784-.784 0-.432.352-.784.784-.784.432 0 .784.352.784.784" transform="rotate(-90 14.5 14)"/>
    </g>
</svg>
