<svg id="Capa_1" data-name="Capa 1" xmlns="http://www.w3.org/2000/svg" viewBox="0 0 100.8 95.76"><defs><style>.cls-1{fill:#2d4249;}.cls-2{fill:#f9b79c;}</style></defs><path class="cls-1" d="M103,50.59A47.87,47.87,0,0,1,8.46,61.23a1.07,1.07,0,0,1,.83-1.31,1.09,1.09,0,0,1,1.3.83A45.46,45.46,0,0,0,26.91,86.62c.39-24.4,2-47.1,9.64-51.4a20,20,0,0,0-.78,3.56l0,0C30.56,45.64,29.39,67.26,29,88.18a45.68,45.68,0,0,0,52.48-.34C81.35,66.87,80.31,45,75,38.52v0a23.65,23.65,0,0,0-.78-3.43c7.46,3.73,9.2,23.74,9.5,51.18A45.68,45.68,0,0,0,55.13,4.88a43.92,43.92,0,0,0-8.55.82,1.11,1.11,0,0,1-1.26-.86,1.16,1.16,0,0,1,.87-1.31,51.62,51.62,0,0,1,8.94-.82A48,48,0,0,1,103,50.59Z" transform="translate(-2.21 -2.71)"/><g id="_02" data-name="02"><path class="cls-1" d="M12,55.46a5.2,5.2,0,0,0,.63-2.52c-.07-2-1.33-2.52-2.27-2.47-1.58.07-2.21,1.51-2.16,3l0,.85-1.14,0,0-.85c0-1.1-.66-2.49-2-2.44-.9,0-1.68.62-1.62,2a3.94,3.94,0,0,0,.82,2.22l-1.1.44a5.35,5.35,0,0,1-1-2.91c-.08-2.22,1.21-3.28,2.58-3.32a2.8,2.8,0,0,1,2.72,2h0a2.94,2.94,0,0,1,2.81-2.61c1.8-.07,3.42,1.29,3.52,4a5.72,5.72,0,0,1-.67,3Z" transform="translate(-2.21 -2.71)"/><path class="cls-1" d="M2.34,43.8a22.05,22.05,0,0,1,.43-3.19,6.75,6.75,0,0,1,2.42-4.33,5.36,5.36,0,0,1,4.45-.73,6.2,6.2,0,0,1,4.09,2.59,7.24,7.24,0,0,1,.57,5.41,26.21,26.21,0,0,1-.71,2.65Zm10.43.68a9.13,9.13,0,0,0,.4-1.47c.68-3.16-.72-5.25-3.81-5.9-2.69-.6-4.73.56-5.4,3.69a8.12,8.12,0,0,0-.22,1.75Z" transform="translate(-2.21 -2.71)"/><path class="cls-1" d="M16.94,30.53a4.05,4.05,0,0,0,1.56-1.42c.57-1,.36-1.69-.24-2.05s-1.19-.2-2.13.55c-1.24,1-2.31,1.21-3.18.7a2.6,2.6,0,0,1-.63-3.76A4.22,4.22,0,0,1,13.82,23l.77.9a3.18,3.18,0,0,0-1.31,1.23,1.24,1.24,0,0,0,.27,1.8c.6.35,1.12.08,2-.65,1.23-1,2.24-1.24,3.31-.6,1.27.76,1.57,2.28.55,4a4.66,4.66,0,0,1-1.7,1.74Z" transform="translate(-2.21 -2.71)"/><path class="cls-1" d="M26,20.39a5.67,5.67,0,0,1-1.23,2.13,4,4,0,0,1-6,.29,4.26,4.26,0,0,1-.35-6.33,5.12,5.12,0,0,1,1.72-1.3l.67,1a3.61,3.61,0,0,0-1.48,1.06,2.91,2.91,0,0,0,.41,4.33,2.89,2.89,0,0,0,4.28-.1A4.22,4.22,0,0,0,25,19.83Z" transform="translate(-2.21 -2.71)"/><path class="cls-1" d="M31.52,16.41l-.73-.77-.05,0a3.11,3.11,0,0,1-1.29,2.54,2.4,2.4,0,0,1-3.5-.37c-1.23-1.62-.45-3.6,2.14-5.54l-.1-.14a1.73,1.73,0,0,0-2.69-.4,4.22,4.22,0,0,0-1.37,1.82L23.05,13a5.23,5.23,0,0,1,1.75-2.26c2.05-1.55,3.6-.53,4.62.81l1.88,2.51a11.55,11.55,0,0,0,1.33,1.52Zm-2.76-3.28c-1.34,1-2.68,2.35-1.7,3.65a1.36,1.36,0,0,0,2,.29,2.08,2.08,0,0,0,.78-2.34,2,2,0,0,0-.23-.44Z" transform="translate(-2.21 -2.71)"/><path class="cls-1" d="M32.3,8.63c-.36-.8-.66-1.44-1-2.05L32.54,6l.65,1.23h0a3.08,3.08,0,0,1,1.89-2.59c1.06-.48,3-.59,4.18,2l2.07,4.57L40,11.9,38,7.48c-.56-1.24-1.49-2.06-2.8-1.46a2.17,2.17,0,0,0-1.23,2.27,2.2,2.2,0,0,0,.21.68l2.08,4.62-1.4.63Z" transform="translate(-2.21 -2.71)"/></g><path class="cls-2" d="M36.92,68.06a.87.87,0,0,1-.61-.26.88.88,0,0,1-.26-.61,1,1,0,0,1,.26-.65.93.93,0,0,1,1.21,0,.89.89,0,0,1-.6,1.52Z" transform="translate(-2.21 -2.71)"/><path class="cls-2" d="M53.82,73.76a.89.89,0,0,1-.89-.87.85.85,0,0,1,.85-.87h0a.87.87,0,1,1,0,1.74Zm3,0a.89.89,0,0,1-.89-.87.85.85,0,0,1,.84-.87h0a.87.87,0,0,1,0,1.74Zm-6.09-.18a.76.76,0,0,1-.21,0,.78.78,0,0,1-.78-.86,1,1,0,0,1,1.2-.82.87.87,0,0,1-.21,1.71Zm9.08,0a.89.89,0,1,1,.25,0A1.07,1.07,0,0,1,59.86,73.53Zm-12.09-.39a1.19,1.19,0,0,1-.32,0A.87.87,0,0,1,46.9,72a.9.9,0,0,1,1.74.28A.87.87,0,0,1,47.77,73.14Zm15.1,0a.88.88,0,0,1-.82-.6.85.85,0,0,1,.55-1.09.92.92,0,0,1,1.19.81.88.88,0,0,1-.73.86Zm3-.73a.9.9,0,0,1-.86-.62.86.86,0,0,1,.54-1.06l.11,0a.87.87,0,0,1,.42,1.69A.76.76,0,0,1,65.87,72.36Zm-23.93-1a.84.84,0,0,1-.48-.14A.79.79,0,0,1,41,70.2a.93.93,0,0,1,1.19-.5,1,1,0,0,1,.24.11A.87.87,0,0,1,42.66,71,.85.85,0,0,1,41.94,71.4Zm26.76-.05A.88.88,0,1,1,69.46,70a.87.87,0,0,1-.24,1.2.82.82,0,0,1-.25.12A.86.86,0,0,1,68.7,71.35ZM71.29,70a.83.83,0,0,1-.69-.42.93.93,0,0,1,.32-1.24,1.15,1.15,0,0,1,.25-.12.86.86,0,0,1,.55,1.64A.73.73,0,0,1,71.29,70Zm-32,0a.86.86,0,0,1-.41-.1.92.92,0,0,1-.3-1.24.81.81,0,0,1,1.14-.28l-.49.72.49-.71a.83.83,0,0,1,.36,1.14A.88.88,0,0,1,39.28,70Z" transform="translate(-2.21 -2.71)"/><path class="cls-2" d="M73.9,68.06a.76.76,0,0,1-.61-.26.87.87,0,0,1-.25-.61.88.88,0,0,1,.25-.65,1,1,0,0,1,1.22,0,1.09,1.09,0,0,1,.26.65,1.11,1.11,0,0,1-.26.61A.87.87,0,0,1,73.9,68.06Z" transform="translate(-2.21 -2.71)"/><path class="cls-2" d="M37.13,63.15a.86.86,0,0,1-.6-.26.69.69,0,0,1-.27-.56.88.88,0,0,1,.27-.66.93.93,0,0,1,1.21,0,.87.87,0,0,1,.26.66.68.68,0,0,1-.26.56A.73.73,0,0,1,37.13,63.15Z" transform="translate(-2.21 -2.71)"/><path class="cls-2" d="M55.35,67.1a.89.89,0,0,1-.89-.87.85.85,0,0,1,.85-.87h0a.87.87,0,1,1,0,1.74ZM52.2,67a.89.89,0,0,1-.89-.87.85.85,0,0,1,.85-.87h0a.87.87,0,1,1,0,1.74Zm6.26,0a.88.88,0,1,1,.25,0Zm-9.4-.22a.75.75,0,0,1-.21,0,.79.79,0,0,1-.78-.86,1,1,0,0,1,1.2-.83.87.87,0,0,1-.21,1.71Zm12.54,0A.87.87,0,0,1,61.53,65a.9.9,0,0,1,.95.65.86.86,0,0,1-.63,1A1.07,1.07,0,0,1,61.6,66.77ZM46,66.37a1.13,1.13,0,0,1-.32-.05.89.89,0,1,1,.32.05Zm18.76,0a.87.87,0,0,1-.28-1.69.92.92,0,0,1,1.19.81.87.87,0,0,1-.72.86Zm3.12-.7A.88.88,0,0,1,67,65,.84.84,0,0,1,67.52,64l.1,0a.87.87,0,0,1,1.06.63.88.88,0,0,1-.63,1.06A.86.86,0,0,1,67.83,65.63Zm-27.94-.95a.92.92,0,0,1-.39-.09A.83.83,0,0,1,39,63.51.88.88,0,0,1,40.12,63l.16.06a.86.86,0,0,1,.38,1.17A.85.85,0,0,1,39.89,64.68Zm31-.08A.92.92,0,0,1,70,64,.8.8,0,0,1,70.5,63l.28.82L70.51,63a.84.84,0,0,1,1.13.4.9.9,0,0,1-.43,1.18A.79.79,0,0,1,70.91,64.6Z" transform="translate(-2.21 -2.71)"/><path class="cls-2" d="M73.68,63.15a.88.88,0,0,1-.64-.26.83.83,0,0,1-.27-.56.88.88,0,0,1,.27-.66,1,1,0,0,1,1.25,0,1.12,1.12,0,0,1,.26.66.89.89,0,0,1-.87.82Z" transform="translate(-2.21 -2.71)"/><path class="cls-2" d="M37.35,58.29a.89.89,0,0,1-.87-.87A.89.89,0,0,1,38,56.81a1.08,1.08,0,0,1,.22.61A1.06,1.06,0,0,1,38,58,.89.89,0,0,1,37.35,58.29Z" transform="translate(-2.21 -2.71)"/><path class="cls-2" d="M55.39,60.42a.89.89,0,0,1-.89-.87.85.85,0,0,1,.84-.87h0a.87.87,0,0,1,0,1.74Zm-3,0a.89.89,0,0,1-.89-.87.85.85,0,0,1,.85-.87h0a.87.87,0,1,1,0,1.74Zm6.08,0a.89.89,0,0,1-.89-.87.85.85,0,0,1,.85-.87h0a.87.87,0,0,1,0,1.74Zm-9.12-.11-.21,0a.8.8,0,0,1-.78-.86,1,1,0,0,1,1.2-.83.87.87,0,0,1-.21,1.71Zm12.11,0a.87.87,0,0,1-.07-1.74,1,1,0,0,1,1,.65.88.88,0,0,1-.64,1.06Zm-15.14-.2-.21,0a.8.8,0,0,1-.79-.86,1,1,0,0,1,1.21-.83.87.87,0,0,1-.21,1.72Zm18.17,0a.87.87,0,0,1-.07-1.74.92.92,0,0,1,1,.65A.88.88,0,0,1,64.71,60Zm-21.19-.33a.75.75,0,0,1-.21,0,.79.79,0,0,1-.78-.86,1,1,0,0,1,1.2-.83.87.87,0,0,1-.21,1.71Zm24.21,0a.87.87,0,0,1-.87-.87.89.89,0,1,1,1.12.84A1.07,1.07,0,0,1,67.47,59.66Zm-27.2-.5a1.67,1.67,0,0,1-.31,0,.87.87,0,0,1-.55-1.1.88.88,0,0,1,1-.58.87.87,0,0,1-.15,1.73Zm30.19,0a.87.87,0,0,1-.28-1.69.92.92,0,0,1,1.19.82.85.85,0,0,1-.73.85A.55.55,0,0,1,70.46,59.13Z" transform="translate(-2.21 -2.71)"/><path class="cls-2" d="M73.47,58.29a.89.89,0,0,1-.65-.26.87.87,0,0,1-.22-.61,1.08,1.08,0,0,1,.22-.61.89.89,0,0,1,1.25,0,1,1,0,0,1,.22.61.82.82,0,0,1-.22.61A.86.86,0,0,1,73.47,58.29Z" transform="translate(-2.21 -2.71)"/><path class="cls-2" d="M37.61,53.43a.89.89,0,0,1-.65-.26,1.06,1.06,0,0,1-.22-.61A.87.87,0,0,1,37,52a.91.91,0,0,1,1.26,0,.86.86,0,0,1,.21.61,1,1,0,0,1-.21.61A.88.88,0,0,1,37.61,53.43Z" transform="translate(-2.21 -2.71)"/><path class="cls-2" d="M55.4,53.74a.89.89,0,0,1-.89-.87.85.85,0,0,1,.85-.87h0a.87.87,0,0,1,0,1.74Zm-3,0a.89.89,0,0,1-.89-.87.85.85,0,0,1,.85-.87h0a.87.87,0,0,1,0,1.74Zm5.94,0a.89.89,0,0,1-.89-.87.85.85,0,0,1,.85-.86h0a.87.87,0,1,1,0,1.73Zm-8.91,0a.89.89,0,0,1-.89-.87.85.85,0,0,1,.85-.87h0a.87.87,0,1,1,0,1.74Zm11.88,0a.89.89,0,0,1-.89-.87A.85.85,0,0,1,61.3,52h0a.87.87,0,1,1,0,1.74Zm-14.86,0a.89.89,0,0,1-.89-.87.85.85,0,0,1,.85-.87h0a.87.87,0,0,1,0,1.74Zm17.83,0a.89.89,0,0,1-.89-.87.86.86,0,0,1,.84-.87h0a.87.87,0,0,1,0,1.74Zm3,0a.89.89,0,0,1-.89-.87.85.85,0,0,1,.85-.87h0a.87.87,0,0,1,0,1.74Zm-23.76,0a.89.89,0,0,1-.89-.87.85.85,0,0,1,.84-.87h.05a.87.87,0,1,1,0,1.74Zm-3-.07a.89.89,0,0,1-.89-.87.85.85,0,0,1,.85-.87h0a.87.87,0,0,1,0,1.74Zm29.7,0a.89.89,0,0,1-.89-.87.85.85,0,0,1,.84-.87h0a.87.87,0,0,1,0,1.74Z" transform="translate(-2.21 -2.71)"/><path class="cls-2" d="M73.25,53.43a.89.89,0,0,1-.65-.26.85.85,0,0,1,0-1.22.91.91,0,0,1,1.26,0,.87.87,0,0,1-.61,1.48Z" transform="translate(-2.21 -2.71)"/><path class="cls-2" d="M37.83,48.57a.86.86,0,0,1-.65-.27,1,1,0,0,1-.22-.6,1.11,1.11,0,0,1,.22-.66,1,1,0,0,1,1.25,0,1,1,0,0,1,.22.66,1,1,0,0,1-.22.6A.83.83,0,0,1,37.83,48.57Z" transform="translate(-2.21 -2.71)"/><path class="cls-2" d="M40.74,47.93a.81.81,0,0,1-.76-.67.93.93,0,0,1,.71-1.06.91.91,0,0,1,1.13.83.87.87,0,0,1-.87.87A.76.76,0,0,1,40.74,47.93Zm29.08,0-.26,0a.88.88,0,0,1-.63-1.06A.87.87,0,0,1,70,46.2l-.21.84L70,46.2a.8.8,0,0,1,.79.86A.94.94,0,0,1,69.82,47.92Zm-3.19-.38h-.11a.86.86,0,0,1-.8-.86.93.93,0,0,1,1.19-.82.87.87,0,0,1-.28,1.69Zm-22.54,0A.87.87,0,0,1,44,45.78a.84.84,0,0,1,.93.59.85.85,0,0,1-.54,1.09A1.2,1.2,0,0,1,44.09,47.51Zm0-.89v0Zm19.33.67h-.11a.86.86,0,0,1-.8-.86.92.92,0,0,1,1.19-.82.87.87,0,0,1-.28,1.69Zm-16.12,0a.87.87,0,0,1-.87-.87.86.86,0,0,1,.81-.86.83.83,0,0,1,.93.58.87.87,0,0,1-.54,1.1A1.2,1.2,0,0,1,47.3,47.27Zm0-.89v0Zm12.91.76a.89.89,0,0,1-.89-.87.85.85,0,0,1,.84-.87h.05a.87.87,0,1,1,0,1.74Zm-9.65,0a.89.89,0,0,1-.89-.87.84.84,0,0,1,.84-.86h.05a.87.87,0,1,1,0,1.73ZM57,47.07a.89.89,0,0,1-.89-.87.85.85,0,0,1,.85-.87h0a.87.87,0,1,1,0,1.74Zm-3.21,0a.89.89,0,0,1-.89-.87.85.85,0,0,1,.84-.87h.05a.87.87,0,1,1,0,1.74Z" transform="translate(-2.21 -2.71)"/><path class="cls-2" d="M73,48.57a.85.85,0,0,1-.61-.27,1.08,1.08,0,0,1-.26-.6,1.26,1.26,0,0,1,.26-.66,1,1,0,0,1,1.26,0,1.26,1.26,0,0,1,.26.66,1.08,1.08,0,0,1-.26.6A.86.86,0,0,1,73,48.57Z" transform="translate(-2.21 -2.71)"/><path class="cls-2" d="M38,43.66a.88.88,0,0,1-.64-.26.85.85,0,0,1-.27-.61,1,1,0,0,1,.27-.6,1,1,0,0,1,1.25,0,.82.82,0,0,1,.26.6.72.72,0,0,1-.26.61A.87.87,0,0,1,38,43.66Z" transform="translate(-2.21 -2.71)"/><path class="cls-2" d="M70,42.42a.84.84,0,0,1-.27,0,.89.89,0,0,1-.57-1.11.84.84,0,0,1,1.08-.55h0A.87.87,0,0,1,70,42.42Zm-29.35,0a.87.87,0,0,1-.84-.59.84.84,0,0,1,.53-1.09h0A.87.87,0,0,1,41,42.35,1,1,0,0,1,40.69,42.39Zm26.49-.79a1.2,1.2,0,0,1-.32-.06.86.86,0,0,1-.54-1.1.89.89,0,1,1,.86,1.16Zm-23.68,0a.87.87,0,0,1-.28-1.69.92.92,0,0,1,1.19.81.87.87,0,0,1-.72.86ZM64.26,41A1.12,1.12,0,0,1,64,41a.87.87,0,0,1-.55-1.1.89.89,0,0,1,1.73.28A.87.87,0,0,1,64.26,41ZM46.43,41a.87.87,0,0,1-.28-1.69.92.92,0,0,1,1.19.81.87.87,0,0,1-.73.86Zm14.88-.33-.22,0a.79.79,0,0,1-.78-.86,1,1,0,0,1,1.21-.83A.88.88,0,0,1,62.15,40,.87.87,0,0,1,61.31,40.66Zm-11.93,0a.87.87,0,0,1-.87-.87.89.89,0,0,1,1.75-.22.88.88,0,0,1-.63,1.06A1.07,1.07,0,0,1,49.38,40.63Zm9-.18a.89.89,0,0,1-.89-.87.85.85,0,0,1,.85-.87h0a.87.87,0,0,1,0,1.74Zm-6,0a.89.89,0,0,1-.89-.87.85.85,0,0,1,.85-.87h0a.87.87,0,1,1,0,1.74Zm3-.06a.89.89,0,0,1-.89-.87.85.85,0,0,1,.84-.87h0a.87.87,0,0,1,0,1.74Z" transform="translate(-2.21 -2.71)"/><path class="cls-2" d="M72.77,43.66a.82.82,0,0,1-.82-.87,1,1,0,0,1,.22-.6,1,1,0,0,1,1.26,0,1.07,1.07,0,0,1,.25.6.88.88,0,0,1-.25.61A.91.91,0,0,1,72.77,43.66Z" transform="translate(-2.21 -2.71)"/><path class="cls-2" d="M38.26,38.8a.88.88,0,0,1-.61-.26.79.79,0,0,1-.25-.61.87.87,0,0,1,.25-.61.86.86,0,0,1,1.22,0,.88.88,0,0,1,.26.61.8.8,0,0,1-.26.61A.87.87,0,0,1,38.26,38.8Z" transform="translate(-2.21 -2.71)"/><path class="cls-2" d="M40.5,37a.87.87,0,0,1-.7-.42.94.94,0,0,1,.33-1.24,1.12,1.12,0,0,1,.24-.13.87.87,0,0,1,.55,1.65A.78.78,0,0,1,40.5,37Zm29.62,0a.81.81,0,0,1-.31-.05,1.15,1.15,0,0,1-.25-.12.86.86,0,0,1-.24-1.2.87.87,0,0,1,1.21-.24L70,36.1l.49-.72a.78.78,0,0,1,.46,1A.89.89,0,0,1,70.12,37Zm-2.8-1.29a.87.87,0,0,1-.48-.15.78.78,0,0,1-.46-1.06.92.92,0,0,1,1.18-.5.77.77,0,0,1,.24.12.87.87,0,0,1-.48,1.59Zm-24-.06a.86.86,0,0,1-.82-.59A.87.87,0,0,1,43,34a.87.87,0,0,1,.86,1.51,1.12,1.12,0,0,1-.25.11A.86.86,0,0,1,43.35,35.64Zm2.9-.93a.88.88,0,0,1-.82-.6A.85.85,0,0,1,46,33a.9.9,0,0,1,1.18.81.87.87,0,0,1-.72.86Zm15.19-.55a1.13,1.13,0,0,1-.32,0,.87.87,0,0,1-.55-1.1.9.9,0,0,1,1.74.28A.87.87,0,0,1,61.44,34.16Zm3,.63a1.19,1.19,0,0,1-.32,0,.87.87,0,0,1-.55-1.1.9.9,0,0,1,1.74.28A.87.87,0,0,1,64.45,34.79Zm-15.21-.68a.87.87,0,0,1-.07-1.73.88.88,0,0,1,1,.65.87.87,0,0,1-.64,1A1.07,1.07,0,0,1,49.24,34.11Zm9.17-.3-.22,0a.79.79,0,0,1-.78-.86,1,1,0,0,1,1.21-.83.88.88,0,0,1,.63,1.06A.86.86,0,0,1,58.41,33.81Zm-6.14,0a.87.87,0,0,1-.07-1.73.85.85,0,0,1,1,.65.88.88,0,0,1-.63,1A1.22,1.22,0,0,1,52.27,33.79Zm3.09-.09a.89.89,0,0,1-.89-.87.85.85,0,0,1,.85-.87h0a.87.87,0,0,1,0,1.74Z" transform="translate(-2.21 -2.71)"/><path class="cls-2" d="M72.6,38.8a.89.89,0,0,1-.91-.87,1.11,1.11,0,0,1,.26-.61.84.84,0,0,1,1.21,0,.76.76,0,0,1,0,1.22A.76.76,0,0,1,72.6,38.8Z" transform="translate(-2.21 -2.71)"/><path class="cls-2" d="M38.48,33.94a.74.74,0,0,1-.61-.26.9.9,0,0,1-.26-.61.74.74,0,0,1,.26-.61.84.84,0,0,1,1.22,0,.74.74,0,0,1,.26.61.9.9,0,0,1-.26.61A.88.88,0,0,1,38.48,33.94Z" transform="translate(-2.21 -2.71)"/><path class="cls-2" d="M40.55,31.65a.86.86,0,0,1-.72-.38A.89.89,0,0,1,40,30.12.85.85,0,0,1,41.07,30a.87.87,0,0,1,.24,1.21,1.33,1.33,0,0,1-.27.26A.88.88,0,0,1,40.55,31.65Zm29.56,0a.82.82,0,0,1-.59-.24.86.86,0,0,1-.16-1.14.85.85,0,0,1,1.2-.24,1,1,0,0,1,.27.27.86.86,0,0,1-.24,1.2A.83.83,0,0,1,70.11,31.64ZM43,29.92a.87.87,0,0,1-.7-.42.94.94,0,0,1,.33-1.24.77.77,0,0,1,.24-.12.86.86,0,1,1,.55,1.64A.78.78,0,0,1,43,29.92Zm24.49,0a1.06,1.06,0,0,1-.31-.05,1.15,1.15,0,0,1-.25-.12.87.87,0,1,1,1-1.44l-.49.72.49-.72a.78.78,0,0,1,.46,1A.89.89,0,0,1,67.52,29.89Zm-2.9-1.3a.81.81,0,0,1-.39-.1.83.83,0,0,1-.51-1.08.89.89,0,0,1,1.13-.53l.16.06a.87.87,0,0,1,.39,1.17A.89.89,0,0,1,64.62,28.59Zm-18.5-.12a.91.91,0,0,1-.87-.57.79.79,0,0,1,.47-1.06l.28.82-.27-.82a.81.81,0,0,1,1.12.4.89.89,0,0,1-.42,1.18A1.06,1.06,0,0,1,46.12,28.47Zm15.47-.77a1.2,1.2,0,0,1-.32-.06.87.87,0,1,1,.32.06ZM49,27.65A.87.87,0,0,1,48.75,26a.92.92,0,0,1,1.19.81.88.88,0,0,1-.73.86Zm9.46-.46a.76.76,0,0,1-.21,0,.79.79,0,0,1-.78-.86,1,1,0,0,1,1.2-.83.88.88,0,0,1,.64,1.06A.89.89,0,0,1,58.48,27.19Zm-6.34,0a.89.89,0,1,1,.25,0ZM55.33,27a.89.89,0,0,1-.89-.87.85.85,0,0,1,.85-.87h0a.87.87,0,0,1,0,1.74Z" transform="translate(-2.21 -2.71)"/><path class="cls-2" d="M72.38,33.94a.89.89,0,0,1-.65-.26,1.14,1.14,0,0,1-.26-.61.89.89,0,0,1,.26-.61.84.84,0,0,1,1.22,0,.74.74,0,0,1,.26.61.9.9,0,0,1-.26.61A.72.72,0,0,1,72.38,33.94Z" transform="translate(-2.21 -2.71)"/><path class="cls-2" d="M44.79,72.46a1.13,1.13,0,0,1-.32,0,.89.89,0,1,1,.32,0Z" transform="translate(-2.21 -2.71)"/><path class="cls-2" d="M42.85,65.69a1.13,1.13,0,0,1-.31-.06A.85.85,0,0,1,42,64.54.88.88,0,0,1,43,64a.87.87,0,0,1-.15,1.73Z" transform="translate(-2.21 -2.71)"/><path class="cls-2" d="M75.1,39.22a3.45,3.45,0,0,0-.13-.7v0a23.65,23.65,0,0,0-.78-3.43C72,27.63,66.33,21,58.3,20.51H52.48c-8.07.47-13.72,7.25-15.93,14.71a20,20,0,0,0-.78,3.56l0,0c0,.13,0,.26,0,.39-1,7.81-.82,21.14-.69,24.18C35.16,67.48,39,79,53.91,79h3C71.8,79,75.66,67.48,75.84,63.4,76,60.36,76.1,47.07,75.1,39.22ZM73.67,63.31c-.18,3.52-3.56,13.54-16.76,13.54h-3c-13.19,0-16.62-10-16.75-13.54-.13-3-.31-16.15.69-23.83s6.51-16.33,14.72-16.8h5.64c8.25.52,13.76,9,14.76,16.8S73.8,60.31,73.67,63.31Z" transform="translate(-2.21 -2.71)"/></svg>