<svg xmlns="http://www.w3.org/2000/svg" xmlns:xlink="http://www.w3.org/1999/xlink" width="46" height="47"><defs><path id="a" d="M0 .13h5.242v3.122H0z"/><path id="c" d="M0 .545h28.403V37.6H0z"/></defs><g fill="none" fill-rule="evenodd"><path fill="#254047" d="M23.777 43.007c-10.115 0-18.738-6.88-20.973-16.731a.492.492 0 01.369-.585.496.496 0 01.583.368c2.131 9.405 10.364 15.973 20.02 15.973 11.32 0 20.528-9.21 20.528-20.528 0-11.32-9.208-20.53-20.527-20.53-1.29 0-2.58.121-3.84.36a.49.49 0 01-.57-.39.492.492 0 01.39-.57 21.814 21.814 0 014.02-.375c11.856 0 21.502 9.649 21.502 21.505s-9.646 21.503-21.502 21.503"/><g transform="translate(0 20.607)"><mask id="b" fill="#fff"><use xlink:href="#a"/></mask><path fill="#254047" d="M4.406 3.085c.12-.203.297-.66.283-1.135C4.658 1.072 4.09.819 3.669.84c-.71.031-.992.679-.969 1.342l.016.38-.517.02-.014-.383c-.013-.497-.294-1.12-.895-1.1-.404.014-.753.283-.731.913.014.406.207.79.37 1l-.491.197c-.207-.257-.42-.764-.437-1.308C-.034.903.545.431 1.161.411c.52-.02.973.277 1.221.895h.016C2.5.678 2.952.156 3.659.13c.81-.027 1.539.582 1.582 1.792.017.572-.144 1.075-.299 1.33l-.536-.167z" mask="url(#b)"/></g><path fill="#254047" d="M4.745 18.76c.064-.163.123-.404.18-.664.302-1.416-.326-2.355-1.713-2.65-1.209-.269-2.127.254-2.427 1.656a4.139 4.139 0 00-.098.791l4.058.866zm-4.684-.307c.022-.417.08-.909.191-1.435.207-.952.57-1.582 1.088-1.942.515-.369 1.167-.507 1.995-.332.839.18 1.47.587 1.841 1.166.376.583.468 1.432.254 2.43-.102.472-.21.866-.32 1.191L.06 18.453zM6.62 12.49a1.83 1.83 0 00.697-.637c.256-.43.162-.759-.107-.919-.283-.167-.534-.093-.956.246-.557.46-1.04.544-1.429.312-.52-.312-.7-.99-.285-1.687.197-.327.46-.56.677-.678l.343.403c-.16.08-.405.248-.587.552-.206.347-.12.663.123.81.265.16.501.034.915-.291.552-.435 1.004-.556 1.488-.267.567.339.703 1.021.245 1.792-.21.357-.493.633-.762.78l-.363-.416zm4.074-4.553c-.049.197-.216.577-.552.954-.754.854-1.823.895-2.687.132-.87-.77-.973-1.922-.154-2.843.267-.306.581-.507.772-.583l.299.468c-.18.06-.416.195-.665.474-.574.65-.404 1.423.185 1.944.653.577 1.427.515 1.923-.045a1.95 1.95 0 00.419-.754l.46.253zm1.234-3.264c-.606.44-1.203 1.057-.764 1.64.267.353.632.343.91.133a.941.941 0 00.35-1.053.758.758 0 00-.104-.195l-.392-.525zm1.238 1.476l-.327-.347-.022.014c.01.363-.152.819-.58 1.14-.61.46-1.245.268-1.572-.167-.552-.727-.203-1.615.963-2.484l-.047-.065c-.185-.247-.593-.643-1.207-.177a1.85 1.85 0 00-.616.813l-.396-.265c.127-.351.408-.728.788-1.014.92-.696 1.614-.236 2.07.366l.849 1.127c.199.26.402.507.597.681l-.5.378zm.35-3.496c-.16-.359-.296-.644-.448-.923l.556-.25.292.557.016-.008c.023-.404.275-.905.844-1.162.478-.217 1.346-.268 1.878.916l.934 2.053-.628.285-.895-1.985c-.253-.556-.67-.922-1.26-.657-.413.187-.6.622-.55 1.022.008.09.041.202.092.308l.932 2.073-.624.282-1.139-2.511z"/><path fill="#FEFEFE" d="M24.22 12.048c-1.862 0-4.039.22-5.407.595-3.565.97-5.208 2.773-5.018 5.521.277 4.055 1.303 7.108 3.047 9.07 1.29 1.445 5.33 1.56 6.568 1.56.085 0 .155 0 .212-.002.119 0 2.955-.045 5.072-.66 3.531-1.02 3.887-6.287 4.176-10.519.189-2.782-.176-4.668-6.74-5.468a16.566 16.566 0 00-1.91-.097"/><path fill="#F7BDA3" d="M17.778 26.192a.368.368 0 01-.26-.117c-.057-.059-.116-.143-.116-.232 0-.115.059-.202.116-.259.116-.144.376-.144.52 0 .058.057.088.144.088.26 0 .088-.03.172-.088.231a.428.428 0 01-.26.117"/><path fill="#F7BDA3" d="M30.129 25.695l-.168-.325-.061-.359a.359.359 0 01.458.229.358.358 0 01-.23.455zm-12.365.145l.055-.36-.055.36zm10.7.183a.363.363 0 01-.057-.721c.019-.003.094-.009.112-.009.2 0 .362.161.362.362.001.222-.19.374-.417.368zm-1.524.153a.364.364 0 01-.057-.722c.019-.001.094-.007.112-.007.2 0 .362.16.362.362.001.22-.188.37-.417.367zm-9.12.034c-.016 0-.033 0-.05-.003l-.006-.367.108-.351a.36.36 0 01.306.41.36.36 0 01-.357.311zm7.59.067a.362.362 0 010-.724v.363l.015-.363h.015c.187 0 .356.142.373.33a.35.35 0 01-.295.389 1.28 1.28 0 01-.108.005zm-6.063.045c-.212.012-.415-.146-.415-.364 0-.2.16-.362.36-.362.016 0 .09.003.106.006a.363.363 0 01-.051.72zm4.534.031a.362.362 0 110-.723v.362l.014-.362h.016c.186 0 .356.142.373.328a.35.35 0 01-.295.39.987.987 0 01-.108.005zm-3.003.018c-.204-.003-.416-.147-.416-.365 0-.2.16-.361.359-.361.017 0 .09.002.107.005a.36.36 0 01.306.41.36.36 0 01-.356.311zm1.53.02c-.2 0-.39-.162-.39-.362 0-.201.134-.362.333-.362h.022c.199 0 .38.16.38.362 0 .2-.146.361-.345.361z"/><path fill="#F7BDA3" d="M29.984 25.728c-.116 0-.204-.028-.262-.087-.058-.088-.114-.173-.114-.26a.36.36 0 01.114-.26.368.368 0 01.522 0c.057.056.088.144.088.26 0 .087-.03.172-.088.26a.452.452 0 01-.26.087m-14.122-1.661a.363.363 0 01-.262-.117.366.366 0 01-.114-.26c0-.087.058-.172.114-.23.146-.145.378-.174.522 0 .057.058.116.143.116.23a.363.363 0 01-.116.26c-.087.06-.174.117-.26.117m3.168-2.925a.362.362 0 01-.262-.116.37.37 0 01-.114-.26c0-.087.058-.173.114-.232.146-.144.378-.173.522 0 .057.06.116.145.116.232a.367.367 0 01-.116.26c-.087.06-.174.116-.26.116m11.348 2.278a.364.364 0 01-.358-.31.36.36 0 01.301-.411c.019-.004.094-.01.112-.01.2 0 .362.162.362.362 0 .221-.197.385-.417.368m-1.271.012c-.213-.006-.417-.148-.417-.364 0-.201.162-.364.362-.364.018 0 .092.004.11.007a.36.36 0 01.302.413.36.36 0 01-.357.308m-1.381.022a.36.36 0 110-.723v.361l.014-.361c.19-.037.373.105.406.302a.37.37 0 01-.31.415l-.11.006m-2.6.04c-.2 0-.388-.16-.388-.362 0-.2.134-.361.334-.361h.055a.361.361 0 010 .723m1.328.003c-.2 0-.39-.161-.39-.362 0-.201.134-.363.334-.363h.026c.2 0 .378.162.378.363a.35.35 0 01-.348.362m-2.71.062a.361.361 0 010-.723v.361l.015-.361c.19-.024.37.135.388.328a.35.35 0 01-.296.39c-.016.002-.09.005-.107.005m-1.325.065a.362.362 0 010-.724v.362l.015-.362c.217.008.372.138.389.328a.35.35 0 01-.296.39c-.016.003-.09.006-.108.006m-1.327.045a.361.361 0 01-.361-.362c0-.201.162-.362.361-.362v.362l.015-.362c.184-.045.372.105.405.303a.372.372 0 01-.31.416 1.329 1.329 0 01-.11.005m-1.325.054a.362.362 0 110-.723v.361l.012-.36c.18-.04.375.104.407.302a.37.37 0 01-.31.415 1.351 1.351 0 01-.11.006m-1.325.099a.363.363 0 01-.055-.721c.018-.003.092-.009.11-.009.2 0 .362.161.362.362.001.22-.19.384-.417.368m-1.32.124a.362.362 0 01-.055-.721c.018-.002.092-.009.11-.009.2 0 .362.162.362.363 0 .22-.193.376-.417.367m-.522 2.116a.357.357 0 01-.26-.116.427.427 0 01-.116-.26c0-.088.059-.172.116-.26.144-.144.376-.116.52 0a.466.466 0 01.088.26c0 .088-.03.204-.088.26-.086.06-.173.116-.26.116m14.98-2.639a.356.356 0 01-.26-.117.422.422 0 01-.116-.26c0-.087.058-.173.116-.26.144-.144.376-.115.52 0a.474.474 0 01.088.26c0 .088-.03.204-.088.26-.087.06-.174.117-.26.117m-.549 1.956a.357.357 0 01-.26-.116.422.422 0 01-.116-.26c0-.087.058-.173.116-.26.144-.144.376-.115.52 0a.466.466 0 01.088.26c0 .088-.03.204-.088.26-.086.06-.174.116-.26.116m-14.594-8.755a.36.36 0 01-.262-.113c-.057-.059-.086-.146-.086-.263a.34.34 0 01.086-.232.371.371 0 01.522 0c.058.06.116.148.116.232a.372.372 0 01-.116.263c-.058.085-.174.113-.26.113"/><path fill="#F7BDA3" d="M25.59 20.723c-.2 0-.389-.162-.389-.363 0-.2.135-.361.334-.361h.055a.363.363 0 010 .724zm-1.363.019a.361.361 0 110-.724v.362l.014-.362a.363.363 0 01.406.303.37.37 0 01-.31.416 2.023 2.023 0 01-.11.005zm2.668.051c-.22 0-.418-.15-.418-.365 0-.2.164-.361.363-.361.018 0 .092.003.11.005a.363.363 0 01-.055.721zm-3.97.022a.361.361 0 010-.723v.362l.015-.362a.36.36 0 01.405.303.37.37 0 01-.31.415l-.11.005zm5.275.024c-.217.004-.417-.15-.417-.366 0-.2.162-.362.362-.362.018 0 .092.003.11.006a.362.362 0 01.302.413.362.362 0 01-.357.309zm-6.58.05a.361.361 0 11.001-.723v.361l.014-.361a.36.36 0 01.406.302.37.37 0 01-.31.415l-.11.006zm7.883.028c-.018 0-.092-.009-.11-.009a.362.362 0 01-.303-.412.37.37 0 01.413-.305l-.055.359.07-.356c.199 0 .354.16.354.361 0 .201-.17.362-.369.362zm-9.186.068a.363.363 0 01-.055-.721c.019-.002.092-.009.11-.009.2 0 .362.162.362.363.002.22-.19.376-.417.367zm10.478.102c-.018 0-.037 0-.055-.003-.199-.031-.361-.22-.331-.418.03-.198.17-.34.386-.308l.055.009a.361.361 0 01-.055.72zm-11.66.04l-.114-.348-.005-.365a.371.371 0 01.417.297.362.362 0 01-.299.416zm-1.396.256a.36.36 0 01-.358-.308.363.363 0 01.303-.412l.055.359-.042-.359c.192-.074.385.04.448.232a.366.366 0 01-.238.458c-.02.008-.093.022-.113.028-.018.002-.037.002-.055.002zm-1.214.34c-.156 0-.312-.09-.361-.24-.063-.19.014-.384.204-.447l.051-.017a.36.36 0 01.458.23.358.358 0 01-.23.454.371.371 0 01-.122.02zm15.23-.407c-.086 0-.202-.028-.26-.116-.058-.056-.116-.144-.116-.232 0-.116.058-.201.116-.26.144-.144.348-.144.521 0 .058.03.087.144.087.26 0 .088-.03.176-.087.232a.349.349 0 01-.261.116m-12.29-2.958a.35.35 0 01-.347-.348c0-.116.03-.203.087-.26.145-.144.405-.144.521 0a.363.363 0 01.116.26c0 .088-.058.172-.116.231a.348.348 0 01-.261.117"/><path fill="#F7BDA3" d="M24.776 17.974c-.2 0-.39-.16-.39-.361 0-.201.135-.362.334-.362h.056a.36.36 0 110 .723zM23.403 18a.362.362 0 010-.724v.361l.014-.361c.181-.04.375.105.406.302a.368.368 0 01-.31.415c-.018 0-.092.007-.11.007zm2.69 0c-.212-.003-.418-.147-.417-.365 0-.2.163-.362.362-.362.018 0 .092.003.11.006a.362.362 0 01-.055.721zm-4.006.076a.361.361 0 110-.723v.361l.014-.361c.181-.043.375.104.406.302a.37.37 0 01-.31.415 1.351 1.351 0 01-.11.006zm5.321.014c-.019 0-.092-.005-.11-.008a.363.363 0 01-.303-.413c.03-.201.225-.322.413-.306l-.056.36.07-.357c.2 0 .354.161.354.362 0 .2-.168.362-.368.362zm-6.632.102a.362.362 0 01-.056-.721c.019-.003.092-.009.11-.009.2 0 .362.162.362.363 0 .22-.196.376-.416.367zm7.942.042c-.018 0-.037 0-.055-.003-.198-.03-.36-.22-.33-.418.03-.195.177-.314.385-.308l.055.008a.363.363 0 01-.055.722zm-9.133.116l-.113-.348-.006-.365c.194-.033.385.1.418.297a.36.36 0 01-.299.416zm10.427.11a.314.314 0 01-.115-.02.356.356 0 01-.3-.41.37.37 0 01.416-.302c.02.005.094.02.113.029a.36.36 0 01.23.455.365.365 0 01-.344.248zm-11.822.178a.362.362 0 01-.348-.253.357.357 0 01.236-.45c.015-.006.085-.023.1-.026a.367.367 0 01.418.297.361.361 0 01-.299.416.396.396 0 01-.107.016zm13.07.232a.307.307 0 01-.11-.019.705.705 0 01-.098-.042c-.18-.088-.252-.306-.162-.484s.312-.26.485-.162l-.162.323.177-.317c.175.08.27.286.2.467a.355.355 0 01-.33.234zm-14.33.179a.362.362 0 01-.114-.704l.114.342-.102-.348a.361.361 0 11.314.65.838.838 0 01-.098.04.322.322 0 01-.114.02zm-1.145.574a.351.351 0 01-.302-.154c-.107-.16-.09-.361.065-.477.01-.005.063-.042.072-.048a.363.363 0 01.373.621.418.418 0 01-.208.058zm16.289-.218a.485.485 0 01-.262-.084c-.086-.09-.086-.176-.086-.261 0-.116.029-.204.086-.263.146-.144.348-.144.522 0 .058.059.086.175.086.263a.47.47 0 01-.086.26.472.472 0 01-.26.085m-14.211-3.381a.348.348 0 01-.26-.117.325.325 0 01-.086-.23c0-.117.029-.202.086-.26.087-.089.348-.174.522 0a.367.367 0 01.116.26c0 .087-.059.174-.116.23-.059.09-.174.117-.262.117"/><path fill="#F7BDA3" d="M24.052 15.195c-.2 0-.39-.161-.39-.361 0-.201.134-.363.334-.363h.056a.362.362 0 010 .724zm1.552.025c-.205 0-.414-.146-.415-.365 0-.2.16-.361.359-.361.017 0 .09.003.107.005a.362.362 0 01-.051.721zm-3.156.043a.362.362 0 110-.724v.362l.013-.362c.192.006.372.139.39.328a.35.35 0 01-.296.39c-.017.003-.09.006-.107.006zm4.7.093c-.019 0-.094-.009-.112-.009a.362.362 0 11.11-.717l-.055.359.068-.356c.2 0 .357.16.357.361a.367.367 0 01-.368.362zm-6.244.049a.364.364 0 01-.056-.722 1.38 1.38 0 01.111-.008c.2 0 .362.161.362.362.001.22-.192.368-.417.368zm7.777.189a.37.37 0 01-.098-.015.366.366 0 01-.31-.412.37.37 0 01.407-.305.807.807 0 01.1.022.36.36 0 01.25.446.363.363 0 01-.349.264zm-9.312.045a.363.363 0 01-.056-.721l.056.36-.041-.36a.36.36 0 01.446.24.364.364 0 01-.244.453.921.921 0 01-.161.028zm10.818.322a.395.395 0 01-.106-.016c-.19-.058-.327-.269-.267-.462.06-.19.235-.305.423-.245l.056.016a.36.36 0 01-.106.707zm-12.149.034l-.168-.325-.06-.359a.353.353 0 01.458.23.358.358 0 01-.23.454zm-1.372.563l-.224-.292-.124-.342a.36.36 0 01.492.145.36.36 0 01-.144.489zm14.923.059a.325.325 0 01-.165-.04.854.854 0 01-.1-.06.361.361 0 01-.08-.505.365.365 0 01.507-.082l-.214.294.224-.286c.179.09.244.304.155.484a.364.364 0 01-.327.195zm-16.392.882a.34.34 0 01-.254-.101c-.134-.145-.151-.348-.013-.487.006-.002.05-.048.056-.053a.364.364 0 01.51.03c.134.15.121.38-.029.512a.41.41 0 01-.27.1zm17.195.026a.436.436 0 01-.26-.117.365.365 0 01-.116-.26c0-.087.058-.174.116-.231.144-.144.376-.175.52 0a.326.326 0 01.088.231c0 .117-.03.201-.088.26-.086.058-.174.117-.26.117"/><g transform="translate(9 8.256)"><mask id="d" fill="#fff"><use xlink:href="#c"/></mask><path fill="#2D4249" d="M2.185 30.088c.072 1.47-.225-3.47-.57-5.588-1.412-7.24-.14-13.034.01-13.67l.005-.027.005-.025c.106-.598.236-1.038 1.191-3.282 1.957-3.837 5.446-5.848 10.37-5.98.296-.007.587-.011.874-.011 5.455 0 8.896 1.376 10.83 4.33 1.184 1.808 1.449 3.62 1.85 6.375.097.667.203 1.381.328 2.152.502 3.039.487 5.936-.048 8.856-.537 2.925-1.544 5.512-2.432 7.795l-.338.8c-.407 1.038 1.218-.415 1.218-.415.837-1.778 1.94-4.976 2.496-8.007.555-3.03.572-6.036.052-9.185a116.52 116.52 0 01-.325-2.134c-.405-2.771-.695-4.776-2-6.763C23.579 2.064 19.872.545 14.07.545c-.295 0-.594.003-.898.01C7.876.699 4.06 2.94 1.956 7.09.97 9.407.813 9.912.69 10.61c-.11.47-1.484 6.548-.017 14.073.278 1.711.428 3.362.51 4.7.013.2 1 .675 1.002.705z" mask="url(#d)"/></g><path fill="#F7BDA3" d="M22.373 25.667h-.021c-.2 0-.334.16-.334.362 0 .2.19.361.39.361.199 0 .345-.16.345-.361 0-.201-.18-.362-.38-.362m-2.975-.065a1.255 1.255 0 00-.107-.006.36.36 0 00-.36.362c0 .218.204.376.417.364a.361.361 0 00.05-.72m1.53.048a1.918 1.918 0 00-.107-.006.36.36 0 00-.36.362c.001.218.213.362.417.365.177 0 .332-.13.356-.31a.361.361 0 00-.306-.411m7.591-.356c-.018 0-.094.005-.112.008a.359.359 0 00-.3.412c.026.179.18.31.357.31.227.005.418-.147.417-.369 0-.2-.163-.361-.362-.361m-4.609.336h-.015l-.014.362v-.362a.361.361 0 100 .724c.017 0 .09-.003.108-.006a.35.35 0 00.295-.39.375.375 0 00-.374-.328m1.53-.076h-.016l-.013.361v-.361a.361.361 0 100 .723c.016 0 .09-.002.107-.006a.35.35 0 00.296-.39.375.375 0 00-.374-.327m4.46-.544l.003.018a.36.36 0 00-.295.352c0 .088.056.173.114.26.058.06.146.088.262.088a.454.454 0 00.26-.088c.003-.004.001-.008.004-.012a.356.356 0 00.11-.388.359.359 0 00-.458-.23m-2.905.437a1.44 1.44 0 00-.112.008.36.36 0 00-.3.413c.027.178.18.308.357.308.229.003.418-.147.417-.368 0-.2-.163-.361-.362-.361m-9.08.057l-.006-.002c-.013-.003-.024-.012-.037-.013l-.002.005c-.13-.034-.273-.007-.352.09a.363.363 0 00-.115.26c0 .088.057.173.115.232.057.054.14.111.252.113v.018c.017.003.034.003.051.003.178 0 .332-.13.358-.311a.36.36 0 00-.264-.395m1.115-4.362c.033 0 .066-.014.1-.027l.004.011a.36.36 0 00.298-.415.37.37 0 00-.417-.297v.005a.39.39 0 00-.247.115c-.057.06-.114.145-.114.232 0 .116.057.203.114.26.058.06.146.116.262.116m3.405 1.758l-.015.36v-.36a.36.36 0 100 .722c.018 0 .091-.002.108-.005a.35.35 0 00.295-.39c-.016-.19-.17-.319-.388-.328m1.418.653a.35.35 0 00.295-.39c-.017-.193-.198-.35-.389-.327l-.014.361v-.361a.361.361 0 000 .723.99.99 0 00.108-.006m-2.746-.608l-.014.362v-.362a.361.361 0 100 .724c.018 0 .093-.003.11-.006a.37.37 0 00.31-.415c-.032-.198-.222-.348-.406-.303m-3.567.633c0-.2-.163-.361-.362-.361-.019 0-.092.005-.11.008a.363.363 0 00.055.722c.224.008.416-.148.416-.369m2.243-.579l-.015.362v-.362a.362.362 0 000 .724c.019 0 .092-.004.11-.006a.37.37 0 00.31-.415c-.031-.198-.225-.343-.405-.303m-1.284.093c-.018 0-.092.006-.11.01a.361.361 0 00.055.72c.226.017.418-.146.417-.368 0-.2-.163-.362-.362-.362m9.242-.361l-.014.361v-.361a.362.362 0 100 .723l.11-.006a.369.369 0 00.31-.415c-.033-.198-.215-.34-.406-.302m1.422-.02a1.351 1.351 0 00-.11-.006c-.2 0-.362.161-.362.362 0 .218.204.36.417.364a.358.358 0 00.357-.307.36.36 0 00-.302-.413m-2.359.424c0-.201-.178-.362-.378-.362H26.4c-.2 0-.334.16-.334.362 0 .2.19.362.39.362s.348-.162.348-.362m3.629-.444c-.018 0-.093.005-.112.009a.358.358 0 00-.3.412c.027.178.18.308.357.308a.378.378 0 00.417-.368c0-.2-.163-.361-.362-.361m-4.945.441a.36.36 0 00-.361-.361h-.056c-.2 0-.333.16-.333.361 0 .201.189.362.389.362a.361.361 0 00.361-.362m-9.051-6.507a.35.35 0 00.218-.081l.01.015a.36.36 0 00.145-.489.36.36 0 00-.491-.145l.001.007a.39.39 0 00-.145.085.342.342 0 00-.086.232c0 .117.029.204.086.263a.361.361 0 00.262.113m.439 4.624a.36.36 0 00-.457-.23l-.051.018c-.19.063-.268.257-.204.447.05.15.205.24.36.24a.379.379 0 00.124-.02.357.357 0 00.228-.455m4.759-1.082l-.015.361v-.361a.361.361 0 000 .723c.019 0 .092-.006.11-.006a.369.369 0 00.31-.415.358.358 0 00-.405-.302m5.26.627a.359.359 0 00.357-.308.362.362 0 00-.302-.413 2.026 2.026 0 00-.11-.006c-.2 0-.362.161-.362.362 0 .215.198.365.417.365m1.305.045a.363.363 0 00.055-.721 1.37 1.37 0 00-.11-.005.36.36 0 00-.362.361c0 .216.2.37.417.365m2.65-.472l-.055-.008c-.216-.032-.355.11-.386.308-.03.197.133.387.33.418.019.002.037.002.056.002.177 0 .33-.126.357-.307a.361.361 0 00-.302-.413m-13.111 1.018c.018 0 .037 0 .055-.003.02-.006.094-.02.113-.029.19-.061.3-.268.238-.457-.063-.193-.256-.306-.448-.231l.042.358-.055-.358a.361.361 0 00.055.72m2.995-.766c0-.2-.162-.362-.361-.362-.019 0-.092.006-.11.008a.363.363 0 00.054.721c.226.009.419-.147.417-.367m9.138-.063c0-.2-.155-.361-.355-.361l-.07.356.056-.36a.371.371 0 00-.413.306.362.362 0 00.303.412c.018 0 .092.009.11.009.2 0 .369-.16.369-.362m-6.932-.464l-.015.363v-.363a.362.362 0 000 .724l.11-.005a.37.37 0 00.31-.415.363.363 0 00-.406-.304m1.302-.073l-.014.362v-.362a.362.362 0 100 .724 1.4 1.4 0 00.111-.006.369.369 0 00.309-.415.363.363 0 00-.406-.303m1.349-.02h-.055c-.2 0-.334.161-.334.362 0 .2.19.362.39.362a.361.361 0 000-.724m-6.472-1.988c0 .087.028.172.086.231a.351.351 0 00.26.117.336.336 0 00.115-.023l.005.015a.362.362 0 00-.118-.713v.007a.38.38 0 00-.262.106c-.058.056-.086.143-.086.26m4.284-.01l.11-.006a.37.37 0 00.31-.416c-.031-.197-.225-.341-.406-.302l-.014.362v-.362a.363.363 0 000 .724m5.37-.487l-.055-.009c-.208-.005-.356.114-.385.31-.03.197.132.386.33.417a.36.36 0 00.413-.305.363.363 0 00-.303-.413m-6.686.563c.018 0 .092-.003.11-.006a.37.37 0 00.31-.415c-.031-.198-.225-.345-.406-.302l-.014.361v-.361a.362.362 0 100 .723m2.689-.102a.361.361 0 100-.723h-.056c-.199 0-.335.16-.335.362 0 .2.191.361.39.361m.901-.339c0 .217.205.362.417.365a.364.364 0 00.055-.721 1.327 1.327 0 00-.11-.006.362.362 0 00-.362.362m1.677.088l.055-.36c-.188-.016-.383.105-.413.306a.363.363 0 00.302.413c.019.002.092.008.11.008.2 0 .37-.161.37-.362 0-.2-.156-.361-.355-.361l-.07.356zm-10.423.964l-.114-.343a.362.362 0 10.229.685.55.55 0 00.097-.04.36.36 0 10-.313-.65l.101.348zm14.66-.051a.374.374 0 00-.2-.467l-.177.317.161-.323c-.172-.098-.394-.016-.484.162a.359.359 0 00.162.484.748.748 0 00.097.042c.038.014.075.02.11.02a.359.359 0 00.332-.235m-15.474.432a.363.363 0 00-.497-.124l-.072.048c-.155.116-.173.317-.065.478a.352.352 0 00.302.152c.072 0 .144-.02.208-.056a.365.365 0 00.124-.498m1.961-1.134a.358.358 0 00-.236.45.362.362 0 00.455.238.362.362 0 00.299-.416.366.366 0 00-.418-.296 1.314 1.314 0 00-.1.024m2.697.258c.22.009.417-.148.417-.368 0-.2-.162-.361-.362-.361-.018 0-.092.005-.11.008a.362.362 0 00-.302.412c.026.179.18.31.357.31m9.122.247a.364.364 0 00.459-.228.36.36 0 00-.23-.455c-.02-.01-.093-.024-.113-.03a.371.371 0 00-.416.303.356.356 0 00.3.41m-12.034-2.416a.377.377 0 00.167-.045l.008.016a.359.359 0 00.23-.455.355.355 0 00-.458-.23l.002.013a.399.399 0 00-.209.093c-.057.06-.086.144-.086.26 0 .088.029.175.086.231.087.09.174.117.26.117m10.72-.444a.362.362 0 00.197-.696.807.807 0 00-.1-.022.371.371 0 00-.407.304.368.368 0 00.31.414m-1.547-.232c.019 0 .094.008.112.008.2 0 .367-.16.367-.361a.357.357 0 00-.356-.363l-.068.356.056-.358a.363.363 0 00-.111.718m3.045.596a.36.36 0 10.212-.689l-.055-.018c-.19-.059-.365.057-.424.247-.06.192.076.404.267.46m1.343.633c.052.028.109.04.166.04a.36.36 0 00.172-.679l-.225.286.213-.294a.363.363 0 00-.426.588l.1.06m-12.055-.939a.836.836 0 00.161-.028.365.365 0 00.244-.453.358.358 0 00-.446-.24l.04.36-.055-.36a.363.363 0 00.056.721m1.535-.235c.225 0 .418-.147.417-.367a.362.362 0 00-.362-.362c-.018 0-.093.006-.111.009a.363.363 0 00.056.72m4.7-.184a.36.36 0 00.358-.311.363.363 0 00-.307-.41 1.906 1.906 0 00-.108-.005.36.36 0 00-.359.361c.002.218.211.365.416.365m-10.107 1.668a.363.363 0 00-.51-.03c-.006.005-.051.05-.057.053-.138.139-.121.342.013.487.067.07.16.101.254.101a.406.406 0 00.27-.099.362.362 0 00.03-.512m6.951-1.625c.016 0 .09-.003.107-.006a.35.35 0 00.295-.39c-.017-.19-.198-.322-.388-.328l-.014.362v-.362a.361.361 0 100 .724m1.604-.068a.362.362 0 000-.724h-.056c-.2 0-.334.162-.334.363 0 .2.19.361.39.361"/><path fill="#F7BDA3" d="M28.471 27.365c-2.044.592-4.822.626-4.85.626h-.018l-.021.002-.115.001h-.057c-2.222 0-5.119-.338-5.97-1.292-.637-.716-1.167-1.601-1.597-2.64.007 0 .012.005.019.005.086 0 .173-.057.26-.117a.363.363 0 00.116-.26c0-.087-.059-.172-.116-.232-.141-.168-.365-.143-.51-.008a14.408 14.408 0 01-.364-1.172c.084-.003.169-.056.253-.114.058-.057.087-.173.087-.26a.47.47 0 00-.087-.26.415.415 0 00-.42-.064c-.094-.43-.178-.878-.249-1.345.046-.009.092-.013.134-.036a.366.366 0 00.124-.497.364.364 0 00-.363-.172c-.056-.458-.1-.93-.134-1.42-.102-1.47.247-3.558 4.431-4.695 1.241-.34 3.33-.567 5.197-.567.685 0 1.312.031 1.812.091 5.706.696 6.153 2.088 6.073 4.011-.047.056-.09.126-.09.198 0 .082.032.144.07.198l-.015.222c-.025.371-.052.752-.08 1.136a.346.346 0 00-.178.093c-.058.059-.086.147-.086.263 0 .085 0 .172.086.26.042.027.084.027.126.04a43.59 43.59 0 01-.12 1.254.343.343 0 00-.324.094.369.369 0 00-.116.26c0 .087.058.176.116.232.053.082.155.108.238.112-.382 2.86-1.177 5.45-3.262 6.053m-2.341-15.22a16.535 16.535 0 00-1.909-.097c-1.863 0-4.04.22-5.408.595-3.565.97-5.208 2.773-5.018 5.521.276 4.054 1.303 7.108 3.048 9.07 1.288 1.445 5.328 1.56 6.567 1.56.085 0 .156 0 .212-.003.119 0 2.954-.044 5.072-.658 3.531-1.02 3.888-6.287 4.176-10.52.19-2.782-.175-4.667-6.74-5.467"/></g></svg>