<svg xmlns="http://www.w3.org/2000/svg" xmlns:xlink="http://www.w3.org/1999/xlink" width="46" height="45"><defs><path id="a" d="M0 .141h5.551v1.95H0z"/></defs><g fill="none" fill-rule="evenodd"><path fill="#F7BDA3" d="M16.319 32.511c1.455 1.723 7.383 1.594 7.383 1.594s3.345-.072 5.776-.833c3.647-1.14 4.094-9.11 4.467-14.217.217-2.97.148-4.968-7.215-5.847-2.394-.286-6.282.065-8.324.665-3.95 1.16-5.561 3.102-5.394 6.049.29 5.118 1.488 10.434 3.307 12.59"/><path fill="#FEFEFE" d="M44.332 28.594c-.04.156-.097.312-.136.468-3.96-.7-9.36-1.656-11.895-2.065-4.253-.684-7.022-1.775-8.015-2.36-.819-.487-2.01-1.269-2.322-2.125a1.258 1.258 0 01-.078-.528s-.29-.116-.7-.371a6.138 6.138 0 01-1.97-1.95c-1.033-1.675-.565-3.976.644-5.245.526-.545.819-.8.975-.878.214-.154.214-.018.214-.018l.059-.604.643-7.256.213-.68 2.36-3.22c.216 0 .43 0 .643.02a20.687 20.687 0 0111.234 3.783c.273.175.544.391.819.585 1.44 1.13 2.75 2.418 3.859 3.88.119.158.236.332.353.488A13.689 13.689 0 0139.321 12c-.156.099-.254.156-.254.156l.447.099 3.2.663c.156.273.312.564.446.876a20.972 20.972 0 011.794 5.986c.431 3.044.197 6.045-.622 8.814"/><path fill="#254047" d="M44.332 28.594c-.04.156-.097.312-.136.468-.06.156-.098.312-.156.468-2.71-.468-5.345-.915-7.549-1.287l-.817-.136C27.445 26.724 22.12 25.24 21.205 22.2c-.039-.078-.06-.176-.078-.254a.485.485 0 01.059-.333.506.506 0 01.312-.252c.273-.039.526.117.585.369.078.351.234.683.487.975 1.753 2.301 7.703 3.492 13.26 4.448l.82.135c2.32.39 4.991.84 7.682 1.306m-1.619-15.677c.156.274.312.564.447.876-2.884-.643-5.829-1.265-8.656-1.56a41.44 41.44 0 00-3.744-.251h-.04c-3.51-.098-4.952.429-5.537.817-.295.195-.373.35-.39.372a.482.482 0 01-.646.234c-.234-.1-.349-.39-.251-.643.017-.02.017-.059.039-.078.41-.782 1.85-1.816 6.65-1.697.387 0 .797.02 1.247.037.839.041 1.775.12 2.789.234 1.209.139 2.437.332 3.664.566.331.039.684.1 1.035.175.137.02.271.06.427.1.938.175 1.894.37 2.83.563.058.08.095.156.136.256M24.967 1.782c-1.44 1.93-2.593 3.453-2.613 3.492-.27.466-.602 4.113-.758 7.488 0 .136-.02.253-.02.388a.506.506 0 01-.487.468h-.041a.384.384 0 01-.213-.078.538.538 0 01-.234-.349v-.078c.098-2.282.388-7.664.975-8.445.02-.018.934-1.227 2.163-2.886.197-.02.39-.02.585-.02.214 0 .43 0 .643.02"/><path fill="#254047" d="M41.464 10.85c-.565.487-1.187.918-1.716 1.25-.078.056-.156.095-.234.156-.507.29-.856.487-.897.505a.955.955 0 01-.232.039.484.484 0 01-.43-.254c-.116-.253-.038-.546.216-.663.037-.02.078-.039.115-.058.606-.332 1.716-.995 2.593-1.794.12.156.234.331.353.487.078.12.154.215.232.332M36.2 5.565c.274.176.545.39.82.585-2.009 1.812-3.471 2.594-3.978 2.85a8.25 8.25 0 01-1.21 2.025c-.409.527-.74.82-.781.837a.38.38 0 01-.29.119h-.042a.438.438 0 01-.349-.176.471.471 0 01.059-.68s.056-.06.156-.139a8.357 8.357 0 001.58-2.437c.017-.037.036-.078.058-.117.056-.117.134-.215.273-.254.017-.02.193-.097.546-.292.622-.35 1.735-1.053 3.159-2.32"/><path fill="#254047" d="M32.674 9.113a.489.489 0 01-.484-.429c-.425-3.5-2.872-5.082-2.895-5.097a.487.487 0 01.514-.827c.12.072 2.865 1.83 3.349 5.807a.488.488 0 01-.484.546m-9.855 4.501c-.644 0-1.096.065-1.352.191-1.487.736-2.32 1.915-2.472 3.508-.226 2.372 2.162 3.973 3.72 4.425 1.853.542 5.236 1.06 6.27 1.178.392.037 1.69-.022 2.72-.862.794-.646 1.254-1.609 1.37-2.86.225-2.446-2.049-4.616-3.316-4.813-1.41-.22-5.01-.648-5.605-.7-.51-.043-.955-.067-1.335-.067zm6.39 10.287c-.129 0-.24-.006-.334-.018-.819-.092-4.366-.606-6.435-1.207-2.386-.696-4.67-2.792-4.416-5.454.13-1.344.756-3.177 3.01-4.29.759-.378 2.112-.316 3.204-.222.62.054 4.208.48 5.669.707 1.815.281 4.41 2.93 4.14 5.864v.002c-.14 1.525-.722 2.71-1.726 3.528-1.067.867-2.357 1.09-3.112 1.09z"/><path fill="#254047" d="M24.196 43.657c-5.918 0-11.433-2.356-15.53-6.63a.486.486 0 01.016-.69.486.486 0 01.688.015c3.91 4.082 9.177 6.33 14.826 6.33 11.32 0 20.528-9.21 20.528-20.528 0-11.32-9.208-20.53-20.528-20.53-1.49 0-2.968.159-4.4.475a.49.49 0 01-.208-.954A21.451 21.451 0 0124.196.65c11.856 0 21.503 9.648 21.503 21.504 0 11.856-9.647 21.503-21.503 21.503"/><path fill="#254047" d="M7.581 33.652c.084-.053.156-.12.22-.172.336-.36.396-.883.14-1.302-.383-.613-1.107-.66-1.844-.201-.641.4-.98 1.076-.597 1.69.246.4.759.593 1.266.433.088-.025.185-.06.265-.105l.55-.343zm-.5 1.107c-.407.252-.73.474-1.027.675l-.324-.525.533-.366-.01-.016c-.538.008-1.002-.228-1.328-.75-.48-.773-.189-1.763.786-2.368 1.15-.713 2.155-.366 2.625.388.261.423.308.91.109 1.299l.008.012 1.741-1.083.357.58-3.47 2.154zM4.2 28.511c-.413.14-.988.548-.725 1.276.236.65.94.72 1.408.614l-.682-1.89zm1.147 1.726c.868-.328 1.026-1.018.792-1.665-.168-.46-.349-.712-.538-.913l.423-.279c.185.191.443.537.648 1.1.395 1.094-.088 2.009-1.159 2.397-1.074.388-2.145.06-2.52-.975-.42-1.159.49-1.833 1.145-2.073.13-.045.236-.068.305-.088l.904 2.496zm-1.771-5.74c-.436-.001-1.113.197-1.1.97.01.693.654.987 1.13 1.04l-.03-2.01zm.522 2.006c.928-.028 1.302-.629 1.291-1.317-.009-.49-.098-.787-.212-1.038l.491-.126c.113.24.244.651.254 1.25.019 1.164-.736 1.871-1.875 1.89-1.142.016-2.048-.642-2.065-1.743-.02-1.232 1.06-1.574 1.757-1.587.137 0 .246.012.317.016l.042 2.655z"/><g transform="translate(0 21.257)"><mask id="b" fill="#fff"><use xlink:href="#a"/></mask><path fill="#254047" d="M.006 1.487L0 .801 5.544.744l.007.69z" mask="url(#b)"/></g><path fill="#254047" d="M5.36 16.86c-.407.22-1.17.64-1.96 1.05.11.317.342.78.878.911.587.145 1.14-.183 1.287-.791.108-.443 0-.866-.204-1.17zm-3.498.795c.365.092.687-.011 1.014-.163-.171-.587-.364-.987-.797-1.092-.31-.077-.702.013-.802.429-.105.427.191.73.585.826zm4.573-1.386c-.177.107-.355.21-.618.355.306.54.359 1.078.222 1.638-.24.994-1.047 1.408-1.817 1.222-.696-.167-1.073-.702-1.25-1.365l-.022-.005c-.4.185-.809.253-1.176.167-.622-.158-1.148-.754-.941-1.608.154-.636.698-1.028 1.359-.864.538.128.887.544 1.094 1.454l.021.008c.607-.312 1.287-.663 1.73-.899-.298-.323-.755-.602-1.375-.86l.148-.606c.77.331 1.356.708 1.71 1.195.355-.205.708-.4 1.108-.62l-.193.788zm-2.038-4.825l1.87.643c.412.14.792.275 1.156.428l.014-.02c-.27-.28-.542-.608-.807-.936L5.364 9.985l.316-.483 1.898.556c.452.128.842.259 1.209.4l.011-.02a12.157 12.157 0 01-.86-.913l-1.28-1.497.375-.564 2.471 3.097-.343.518-1.82-.514a12.601 12.601 0 01-1.214-.404l-.012.015c.328.328.587.636.85.972l1.157 1.495-.344.519-3.769-1.131.388-.587zm6.366-5.336c-.29-.324-.887-.696-1.457-.172-.51.468-.3 1.143-.02 1.531l1.477-1.359zM9.614 7.834c.642.672 1.338.552 1.84.087.362-.331.522-.598.639-.85l.417.283c-.103.244-.322.612-.762 1.02-.858.788-1.886.698-2.656-.144-.772-.835-.887-1.95-.076-2.693.903-.839 1.882-.26 2.352.251.093.104.156.195.198.252L9.614 7.834zm4.335-3.539c-.647.38-1.3.94-.919 1.566.234.38.6.404.9.22a.948.948 0 00.446-1.02.86.86 0 00-.082-.206l-.345-.56zm1.096 1.588l-.295-.377-.021.016c-.022.36-.228.8-.686 1.082-.654.404-1.268.148-1.555-.318-.48-.776-.05-1.626 1.196-2.387l-.04-.064c-.163-.267-.534-.702-1.193-.298a1.93 1.93 0 00-.686.758l-.373-.3c.16-.34.478-.69.884-.938.983-.608 1.634-.088 2.032.56l.74 1.2c.172.278.356.545.531.738l-.534.328zm.315-3.062a18.222 18.222 0 00-.481-1.07l.553-.232.306.674.03-.015c-.037-.535.22-.987.645-1.166a.813.813 0 01.19-.053l.249.599a.96.96 0 00-.226.068c-.445.185-.62.659-.507 1.168.02.092.047.199.093.306l.776 1.858-.626.26-1.002-2.397z"/></g></svg>