<?xml version="1.0" encoding="utf-8"?>
<!-- Generator: Adobe Illustrator 24.1.0, SVG Export Plug-In . SVG Version: 6.00 Build 0)  -->
<svg version="1.1" id="Capa_1" xmlns="http://www.w3.org/2000/svg" xmlns:xlink="http://www.w3.org/1999/xlink" x="0px" y="0px"
	 viewBox="0 0 103 98.5" style="enable-background:new 0 0 103 98.5;" xml:space="preserve">
<style type="text/css">
	.st0{fill:#F9B79C;}
	.st1{fill:#2D4249;}
</style>
<path class="st0" d="M67.4,61c-0.6,8.3-2.5,14.8-6.5,17.9c-4,3.1-9,4.4-15.1,0.2s-6.8-18.4-7.3-25.3s0.4-11.4,3.1-13.9
	c-0.2,4.7,3,8.5,7.1,10.6c0,0,0,0,0,0C50.2,55.4,56.8,58.5,67.4,61z"/>
<g>
	<path class="st1" d="M55.1,2.7c-3.5,0-6.9,0.4-10.3,1.1c-0.6,0.1-1,0.7-0.8,1.3c0.1,0.6,0.7,1,1.3,0.8c2.9-0.6,5.9-1,9-1
		c-2.6,3.5-5,6.7-5,6.8c-1.3,1.7-1.9,13.7-2.2,18.8v0.1c-4.2,2.5-5.5,6.2-5.7,9c0,0.1,0,0.3,0,0.5v0c-0.2,4.7,3,8.5,7.1,10.6
		c0,0,0,0,0,0c1.5,4.9,8.2,8,18.7,10.5c4,0.9,8.5,1.8,13.5,2.6l1.8,0.3c4.5,0.8,9.8,1.7,15.4,2.6C91.3,84,74.6,96.3,55.1,96.3
		c-12.6,0-24.3-5-33-14.1c-0.4-0.4-1.1-0.4-1.5,0c-0.4,0.4-0.5,1.1,0,1.5c9.1,9.5,21.4,14.8,34.6,14.8C81.5,98.5,103,77,103,50.6
		C103,24.2,81.5,2.7,55.1,2.7z M95.6,29.4c-1.9-0.4-3.9-0.8-5.8-1.2c1.1-0.7,2.4-1.6,3.6-2.6C94.2,26.8,94.9,28.1,95.6,29.4z
		 M92.1,23.8c-1.9,1.7-4.3,3.1-5.6,3.8c-2.7-0.5-5.5-1-8.2-1.2c-2.2-0.3-4.3-0.4-6.2-0.5c0.9-1,1.9-2.6,2.7-4.5
		c1.1-0.6,4.4-2.4,8.8-6.4C86.9,17.5,89.7,20.5,92.1,23.8z M51,13c0-0.1,2.9-3.9,6-8.1c9.3,0.4,17.8,3.5,24.9,8.7
		c-3.1,2.8-5.7,4.4-7.1,5.2c-1.5-7.8-7-11.2-7.2-11.4c-0.5-0.3-1.2-0.2-1.5,0.3c-0.3,0.5-0.2,1.2,0.3,1.5c0.1,0,5.4,3.5,6.4,11
		c0,0,0,0,0,0c-1.2,2.9-2.8,4.7-3.5,5.4c-10.7-0.3-13.9,2-14.8,3.8c0,0,0,0,0,0c-1.8-0.1-3.7-0.2-5.2,0.1C49.7,22.2,50.4,14.1,51,13
		z M43.6,41.2c0-0.4-0.1-0.9,0-1.4c0.3-3.5,2.2-6.2,5.5-7.8c0.6-0.3,1.6-0.4,3-0.4c0.8,0,1.8,0,3,0.2c1.3,0.1,9.3,1.1,12.5,1.5
		c2.8,0.4,7.9,5.3,7.4,10.7c-0.2,2.8-1.3,4.9-3,6.4c-2.3,1.9-5.2,2-6.1,1.9c-1.1-0.1-3.3-0.4-5.8-0.9c-2.8-0.5-6-1.1-8.2-1.8
		C48.7,48.8,44,45.7,43.6,41.2z M82.9,62L81,61.7c-4.8-0.8-9.8-1.7-14.3-2.8c-7-1.7-12.8-3.9-15.2-7c3.4,1,8.5,1.8,11.6,2.3
		c1.1,0.2,2,0.3,2.4,0.3c0.2,0,0.5,0,0.7,0c1.7,0,4.6-0.5,6.9-2.4c2.2-1.8,3.5-4.5,3.8-7.9c0-0.3,0-0.6,0-1c0-6.1-5.4-11.5-9.3-12.1
		c-2.5-0.4-7.6-1-10.6-1.3l0,0c1.3-0.9,4.5-2,12.3-1.8h0.1c2.3,0,5.1,0.2,8.3,0.6c6.1,0.6,12.5,2,18.7,3.4c2.6,5.7,4,12,4,18.7
		c0,4.9-0.8,9.7-2.2,14.1C93.1,63.8,87.6,62.8,82.9,62z"/>
	<path class="st1" d="M23.2,72.6L19.3,75l0,0c0.4-0.9,0.3-2-0.2-2.9c-1-1.7-3.3-2.5-5.8-0.9c-2.2,1.3-2.8,3.6-1.8,5.3
		c0.7,1.2,1.8,1.7,3,1.7l0,0L13.3,79l0.7,1.2c0.7-0.4,1.4-0.9,2.3-1.5l7.7-4.8L23.2,72.6z M17.9,75.8c-0.1,0.1-0.3,0.3-0.5,0.4
		L16.2,77c-0.2,0.1-0.4,0.2-0.6,0.2c-1.1,0.4-2.3-0.1-2.8-1c-0.9-1.4-0.1-2.9,1.3-3.8c1.6-1,3.3-0.9,4.1,0.4
		C18.8,73.9,18.6,75,17.9,75.8z"/>
	<path class="st1" d="M12.8,69.6c2.4-0.9,3.5-2.9,2.6-5.3c-0.5-1.3-1-2-1.4-2.5L13,62.4c0.4,0.4,0.8,1,1.2,2c0.5,1.4,0.2,3-1.8,3.7
		l-2-5.6c-0.2,0-0.4,0.1-0.7,0.2c-1.5,0.5-3.5,2-2.5,4.6C8,69.7,10.4,70.4,12.8,69.6z M8.3,67.1c-0.6-1.6,0.7-2.5,1.6-2.8l1.5,4.2
		C10.4,68.7,8.8,68.6,8.3,67.1z"/>
	<path class="st1" d="M9.9,61c2.5-0.4,4-2.2,3.6-4.7c-0.2-1.3-0.6-2.2-0.9-2.7l-1,0.4c0.3,0.5,0.6,1.2,0.8,2.2
		c0.2,1.5-0.4,2.9-2.5,3.3l-0.9-5.8c-0.2,0-0.4,0-0.7,0.1c-1.5,0.2-3.8,1.3-3.4,4C5.2,60.2,7.4,61.4,9.9,61z M5.9,57.7
		C5.7,56,7.1,55.4,8,55.3l0.7,4.4C7.6,59.7,6.1,59.3,5.9,57.7z"/>
	<polygon class="st1" points="12.9,50 0.5,50 0.5,51.6 12.9,51.5 	"/>
	<path class="st1" d="M4.6,41.7c0.8,0.2,1.7,0.1,2.6-0.3l0.1,0c0.4,1.5,1.2,2.7,2.8,3.1c1.7,0.4,3.5-0.5,4.1-2.7
		c0.3-1.2,0.2-2.4-0.5-3.6c0.6-0.3,1-0.5,1.4-0.8l0.4-1.7c-0.9,0.5-1.7,0.9-2.5,1.4c-0.8-1.1-2.1-1.9-3.8-2.7l-0.3,1.3
		c1.4,0.6,2.4,1.2,3,1.9c-1,0.5-2.5,1.3-3.9,2l0,0c-0.4-2-1.2-3-2.4-3.3c-1.5-0.4-2.7,0.5-3,1.9C2,40,3.2,41.3,4.6,41.7z M12.5,38.6
		c0.5,0.7,0.7,1.6,0.4,2.6c-0.3,1.4-1.6,2.1-2.9,1.8c-1.2-0.3-1.7-1.3-1.9-2C9.9,40,11.6,39.1,12.5,38.6z M3.5,38.5
		c0.2-0.9,1.1-1.1,1.8-0.9c1,0.2,1.4,1.1,1.7,2.4c-0.7,0.3-1.4,0.6-2.3,0.3C3.9,40.1,3.2,39.4,3.5,38.5z"/>
	<path class="st1" d="M18.8,29.2l-2.6-3.3c-0.6-0.7-1.2-1.4-1.9-2.2l0,0c0.9,0.4,1.8,0.6,2.7,0.9l4,1.2l0.8-1.2l-5.5-6.9l-0.8,1.3
		l2.8,3.3c0.7,0.8,1.3,1.5,1.9,2.1l0,0c-0.8-0.3-1.7-0.6-2.7-0.9l-4.2-1.3l-0.7,1.1l2.8,3.5c0.6,0.7,1.2,1.5,1.8,2.1l0,0.1
		c-0.8-0.4-1.6-0.7-2.6-1l-4.2-1.5l-0.9,1.3l8.4,2.6L18.8,29.2z"/>
	<path class="st1" d="M26.9,19.7c1-0.9,1.5-1.7,1.7-2.3l-0.9-0.6c-0.3,0.6-0.6,1.2-1.4,1.9c-1.1,1-2.7,1.3-4.1-0.2l4.4-4
		c-0.1-0.1-0.2-0.3-0.4-0.6c-1-1.1-3.2-2.4-5.2-0.6c-1.8,1.7-1.6,4.1,0.1,6C22.7,21.3,24.9,21.5,26.9,19.7z M21.4,14.3
		c1.3-1.2,2.6-0.3,3.2,0.4l-3.3,3C20.8,16.8,20.3,15.3,21.4,14.3z"/>
	<path class="st1" d="M28.6,8.9C30.1,8,30.9,9,31.3,9.6l0.1,0.2c-2.8,1.7-3.8,3.6-2.7,5.3c0.6,1,2,1.6,3.5,0.7
		c1-0.6,1.5-1.6,1.6-2.4l0,0l0.7,0.8l1.2-0.7c-0.4-0.4-0.8-1-1.2-1.7l-1.6-2.7c-0.9-1.4-2.3-2.6-4.5-1.3c-0.9,0.5-1.6,1.3-2,2.1
		l0.8,0.7C27.4,10,28,9.3,28.6,8.9z M32.7,11.9c0.1,0.1,0.1,0.3,0.2,0.5c0.2,0.7-0.1,1.7-1,2.3c-0.7,0.4-1.5,0.3-2-0.5
		c-0.8-1.4,0.6-2.6,2.1-3.5L32.7,11.9z"/>
	<path class="st1" d="M37.3,12.7l1.4-0.6L37,8c-0.1-0.2-0.2-0.5-0.2-0.7c-0.3-1.1,0.1-2.2,1.1-2.6c0.2-0.1,0.3-0.1,0.5-0.2l-0.6-1.3
		c-0.1,0-0.3,0.1-0.4,0.1C36.5,3.8,35.9,4.8,36,6l-0.1,0l-0.7-1.5L34,5c0.3,0.7,0.7,1.5,1.1,2.4L37.3,12.7z"/>
</g>
</svg>
