<svg xmlns="http://www.w3.org/2000/svg" xmlns:xlink="http://www.w3.org/1999/xlink" width="70" height="76" viewBox="0 0 70 76">
    <defs>
        <path id="prefix__a" d="M15.568 4.96c-.428 1.61-5.846 22.078-5.846 22.078l4.626 1.416s.416.508-.88 1.816c-1.91 1.93-5.026 2.86-5.026 2.86s.61.658.838 5.046c.228 4.388-2.56 7.384-2.56 7.384S2.392 58.222 1.64 61.102C.892 63.984-.05 67.066.528 68.77c2.164 6.368 8.128 5.186 9.194 5.07 2.224-.248 6.19-2.764 6.464-4.004.276-1.24 16.524-56.15 17.51-59.582.096-.33.144-.662.154-.99v-.236c-.084-2.998-3.322-5.78-4.444-6.616C27.87 1.27 25.522.648 23.184.648c-3.424 0-6.826 1.334-7.616 4.312"/>
        <path id="prefix__c" d="M15.568 4.96c-.428 1.61-5.846 22.078-5.846 22.078l4.626 1.416s.416.508-.88 1.816c-1.91 1.93-5.026 2.86-5.026 2.86s.61.658.838 5.046c.228 4.388-2.56 7.384-2.56 7.384S2.392 58.222 1.64 61.102C.892 63.984-.05 67.066.528 68.77c2.164 6.368 8.128 5.186 9.194 5.07 2.224-.248 6.19-2.764 6.464-4.004.276-1.24 16.524-56.15 17.51-59.582.096-.33.144-.662.154-.99v-.236c-.084-2.998-3.322-5.78-4.444-6.616C27.87 1.27 25.522.648 23.184.648c-3.424 0-6.826 1.334-7.616 4.312z"/>
        <path id="prefix__e" d="M15.568 4.96c-.428 1.61-5.846 22.078-5.846 22.078l4.626 1.416s.416.508-.88 1.816c-1.91 1.93-5.026 2.86-5.026 2.86s.61.658.838 5.046c.228 4.388-2.56 7.384-2.56 7.384S2.392 58.222 1.64 61.102C.892 63.984-.05 67.066.528 68.77c2.164 6.368 8.128 5.186 9.194 5.07 2.224-.248 6.19-2.764 6.464-4.004.276-1.24 16.524-56.15 17.51-59.582.096-.33.144-.662.154-.99v-.236c-.084-2.998-3.322-5.78-4.444-6.616C27.87 1.27 25.522.648 23.184.648c-3.424 0-6.826 1.334-7.616 4.312z"/>
    </defs>
    <g fill="none" fill-rule="evenodd">
        <g transform="translate(1) translate(35 .352)">
            <mask id="prefix__b" fill="#fff">
                <use xlink:href="#prefix__a"/>
            </mask>
            <path fill="#FEFEFE" d="M27.345 11.441c.03-.344.024-.688-.006-1.026.03.338.036.682.006 1.026m-.2 1.102c.102-.36.166-.722.198-1.084v.002c-.032.36-.096.722-.198 1.082M11.123 68.77c-.032.046-.076.08-.108.128.066-.1.13-.2.192-.304-.024.042-.034.092-.058.132-.01.014-.018.028-.026.044m-2.234 1.936c-.068.028-.14.05-.208.078.138-.054.278-.112.412-.178-.028.014-.048.038-.076.048-.042.02-.084.034-.128.052M22.64 5.303c.016.002.032.004.048.004.008.002.016.006.024.006-.118-.014-.234-.002-.35-.008.094.006.186-.012.278-.002m2.854 1.308c-.236-.216-.49-.414-.764-.586.274.172.528.37.764.586m1.832 3.696c-.008-.09-.034-.176-.048-.264.014.088.04.174.048.264m2.458-.01c-.002-.064-.012-.128-.018-.19l-.01-.11c-.008-.064-.012-.126-.02-.188-.028-.208-.068-.41-.116-.612-.006-.03-.024-.054-.03-.084-.102-.386-.232-.762-.406-1.118-.02-.038-.048-.072-.066-.11-.16-.312-.348-.606-.562-.882-.024-.03-.038-.068-.064-.1-.126-.16-.264-.31-.408-.454l-.09-.08c-.024-.024-.048-.046-.072-.066-.064-.06-.124-.12-.192-.174-.104-.088-.212-.17-.324-.248-.08-.058-.164-.112-.248-.162-.01-.006-.018-.014-.026-.02-.012-.006-.024-.016-.036-.022-.1-.06-.202-.116-.304-.17-.102-.052-.204-.1-.308-.144-.096-.042-.19-.08-.29-.116l-.02-.006c-.106-.038-.21-.07-.316-.1-.108-.03-.216-.056-.322-.078-.114-.022-.226-.042-.336-.056-.028-.004-.056-.006-.082-.008l-.052-.006c-.074-.008-.148-.014-.22-.018-.13-.008-.258-.01-.386-.006-.15.004-.296.014-.44.032l-2.428.31c-.002.002-.004.002-.008.002.03-.004.058.002.086-.002-1.926.21-3.626 1.614-4.228 3.756L2.067 63.825c-.814 2.906.698 6.046 3.374 7.004.968.346 1.956.352 2.862.09-.224.068-.454.124-.688.152h-.002.002-.002l2.428-.308c.442-.056.868-.19 1.276-.366.044-.018.086-.032.128-.052.382-.18.736-.42 1.064-.698.052-.044.104-.084.154-.13.048-.042.1-.078.144-.122.138-.136.266-.28.39-.432.096-.12.188-.244.274-.374.026-.04.052-.086.08-.128.006-.016.016-.03.026-.046.036-.056.07-.11.104-.168.06-.106.118-.218.172-.332.05-.104.1-.214.144-.326.044-.108.084-.218.122-.33.028-.088.056-.176.082-.266l15.372-54.76c.008-.022.014-.046.02-.07.032-.112.056-.226.08-.34.026-.116.046-.234.06-.348.016-.108.028-.216.038-.324l.002-.018.002-.024c.012-.128.018-.26.02-.388.002-.142-.002-.284-.01-.424" mask="url(#prefix__b)"/>
            <g>
                <mask id="prefix__d" fill="#fff">
                    <use xlink:href="#prefix__c"/>
                </mask>
                <path stroke="#254047" stroke-linejoin="round" stroke-width=".8" d="M29.794 10.72c.002-.14-.002-.283-.01-.423-.002-.064-.012-.126-.018-.19l-.01-.108c-.006-.066-.01-.128-.018-.19-.03-.208-.068-.41-.118-.612-.006-.028-.024-.054-.03-.084-.1-.386-.232-.762-.406-1.116-.018-.04-.046-.072-.066-.112-.16-.31-.348-.606-.56-.88-.026-.032-.04-.07-.064-.1-.128-.16-.264-.31-.408-.456-.03-.026-.062-.052-.09-.08-.024-.024-.05-.044-.074-.066-.064-.058-.124-.12-.19-.174-.106-.088-.214-.17-.324-.248-.08-.056-.164-.112-.248-.162l-.028-.02c-.012-.006-.024-.016-.036-.02-.098-.062-.2-.118-.304-.17-.102-.054-.204-.1-.306-.146-.096-.04-.192-.08-.292-.114l-.02-.006c-.104-.04-.21-.07-.316-.102-.106-.03-.214-.054-.322-.078-.114-.022-.224-.042-.336-.054-.028-.004-.054-.006-.082-.008l-.05-.006c-.074-.008-.15-.016-.222-.02-.13-.008-.258-.01-.386-.006-.148.004-.294.016-.44.034l-2.428.308c-.002.002-.004.002-.006.002.344-.046.698-.048 1.056-.01.016.002.03.004.046.004.36.04.722.122 1.078.25.332.12.646.272.938.452.01.004.018.012.028.016.272.172.526.37.764.586l.072.068c.204.194.388.41.562.634.21.276.398.57.56.88.02.04.048.072.066.112.172.354.306.73.406 1.116.076.29.134.586.166.886.004.036.008.072.01.11.03.338.036.68.006 1.024l-.002.02c-.03.362-.094.722-.196 1.082L11.772 67.3c-.146.522-.36.996-.622 1.424l-.028.044c-.252.402-.554.75-.886 1.058l-.152.128c-.332.28-.684.52-1.068.7-.04.02-.084.032-.126.05-.406.178-.832.31-1.276.368h-.002.002-.002l2.428-.31c.444-.056.87-.188 1.278-.366.042-.018.086-.032.126-.052.384-.178.736-.418 1.064-.698.054-.044.104-.084.156-.13.046-.042.098-.078.144-.122.136-.134.266-.28.388-.432.096-.118.188-.244.274-.372.028-.042.052-.086.08-.13.008-.016.018-.03.028-.044.034-.058.07-.112.102-.168.062-.108.118-.22.172-.332.052-.106.1-.216.146-.326.042-.11.084-.22.12-.33.03-.088.056-.176.082-.266l15.374-54.76c.008-.024.012-.048.018-.07.032-.114.058-.228.08-.34.026-.118.046-.234.062-.35.016-.108.026-.214.036-.322l.002-.02.002-.024c.012-.128.018-.26.02-.388z" mask="url(#prefix__d)"/>
            </g>
            <g>
                <mask id="prefix__f" fill="#fff">
                    <use xlink:href="#prefix__e"/>
                </mask>
                <path stroke="#254047" stroke-linejoin="round" stroke-width=".8" d="M23.767 5.557c2.678.958 4.196 4.082 3.378 6.986L11.773 67.3c-.816 2.906-3.654 4.486-6.332 3.53-2.676-.96-4.188-4.1-3.374-7.004L17.443 9.069c.814-2.904 3.648-4.47 6.324-3.512z" mask="url(#prefix__f)"/>
            </g>
        </g>
        <g>
            <path fill="#2C444A" d="M48.823 5.266c-.14.2-.298.376-.458.556-1.352 1.374-3.084 2.568-4.934 3.006-6.428.338-12.876.438-19.284.06-3.224-.18-6.408-.558-9.572-1.236-1.552-.318-3.124-.694-4.596-1.272-.698-.298-1.452-.676-1.772-1.194-.278-.458.3-1.016.914-1.412h.042c1.772-.758 3.8-1.134 5.75-1.434 1.99-.298 4-.456 6.01-.556 4.02-.18 8.06-.042 12.06.338 4.02.356 8.02.954 11.96 1.79.974.2 1.97.418 2.944.676.238.06.478.14.696.2.14.04.34.14.44.198-.042.062-.1.2-.2.28m.836-.636c-.34-.4-.598-.4-.856-.498-.24-.1-.498-.158-.736-.22-.996-.26-1.99-.498-2.986-.696-3.96-.836-7.978-1.432-12.02-1.812-4.038-.376-8.118-.498-12.178-.318-2.028.08-4.06.26-6.07.538-1.948.318-3.9.656-5.79 1.434-.934-.598-1.89-.658-2.806-.798-1.016-.1-2.01-.138-3.006-.138-.954 0-1.93 0-2.884.06-.058.178-.1.376-.138.556.994-.018 2.01-.04 3.004 0 .996.02 1.97.08 2.944.18.756.098 1.592.238 2.21.556-.2.14-.398.32-.576.538-.3.338-.48 1.016-.2 1.512.576.856 1.392 1.154 2.148 1.514 1.534.614 3.126.974 4.718 1.312 3.182.676 6.428 1.074 9.67 1.254 2.844.158 5.69.238 8.558.238 3.522 0 7.062-.118 10.586-.298.1 0 .18-.02.28-.02h.038c.12-.04.258-.058.378-.1 1.95-.576 3.562-1.75 4.934-3.122.18-.18.36-.4.518-.598.06-.12.16-.22.238-.358.06-.1.2-.44.022-.716" transform="translate(1) translate(0 24.352)"/>
            <path stroke="#2C444A" stroke-width=".5" d="M48.823 5.266c-.14.2-.298.376-.458.556-1.352 1.374-3.084 2.568-4.934 3.006-6.428.338-12.876.438-19.284.06-3.224-.18-6.408-.558-9.572-1.236-1.552-.318-3.124-.694-4.596-1.272-.698-.298-1.452-.676-1.772-1.194-.278-.458.3-1.016.914-1.412h.042c1.772-.758 3.8-1.134 5.75-1.434 1.99-.298 4-.456 6.01-.556 4.02-.18 8.06-.042 12.06.338 4.02.356 8.02.954 11.96 1.79.974.2 1.97.418 2.944.676.238.06.478.14.696.2.14.04.34.14.44.198-.042.062-.1.2-.2.28zm.836-.636c-.34-.4-.598-.4-.856-.498-.24-.1-.498-.158-.736-.22-.996-.26-1.99-.498-2.986-.696-3.96-.836-7.978-1.432-12.02-1.812-4.038-.376-8.118-.498-12.178-.318-2.028.08-4.06.26-6.07.538-1.948.318-3.9.656-5.79 1.434-.934-.598-1.89-.658-2.806-.798-1.016-.1-2.01-.138-3.006-.138-.954 0-1.93 0-2.884.06-.058.178-.1.376-.138.556.994-.018 2.01-.04 3.004 0 .996.02 1.97.08 2.944.18.756.098 1.592.238 2.21.556-.2.14-.398.32-.576.538-.3.338-.48 1.016-.2 1.512.576.856 1.392 1.154 2.148 1.514 1.534.614 3.126.974 4.718 1.312 3.182.676 6.428 1.074 9.67 1.254 2.844.158 5.69.238 8.558.238 3.522 0 7.062-.118 10.586-.298.1 0 .18-.02.28-.02h.038c.12-.04.258-.058.378-.1 1.95-.576 3.562-1.75 4.934-3.122.18-.18.36-.4.518-.598.06-.12.16-.22.238-.358.06-.1.2-.44.022-.716z" transform="translate(1) translate(0 24.352)"/>
            <path fill="#2C444A" d="M44.087 18.121c-1.016 2.964-3.344 5.212-5.872 6.866-2.546 1.65-5.372 2.824-8.198 3.8-2.846.994-5.75 1.772-8.696 2.428-4 .874-8.038 1.492-12.1 1.968l-.418-.418c4.16-.496 8.32-1.154 12.4-2.068 2.926-.656 5.81-1.434 8.616-2.428 2.806-.996 5.57-2.17 8.06-3.8 2.446-1.612 4.656-3.782 5.572-6.566.934-2.688.616-5.654-.2-8.36-.02-.078-.06-.178-.08-.258l.678-.218c.038.118.078.238.1.356.834 2.788 1.152 5.872.138 8.698" transform="translate(1) translate(0 24.352)"/>
            <path stroke="#2C444A" stroke-width=".5" d="M44.087 18.121c-1.016 2.964-3.344 5.212-5.872 6.866-2.546 1.65-5.372 2.824-8.198 3.8-2.846.994-5.75 1.772-8.696 2.428-4 .874-8.038 1.492-12.1 1.968l-.418-.418c4.16-.496 8.32-1.154 12.4-2.068 2.926-.656 5.81-1.434 8.616-2.428 2.806-.996 5.57-2.17 8.06-3.8 2.446-1.612 4.656-3.782 5.572-6.566.934-2.688.616-5.654-.2-8.36-.02-.078-.06-.178-.08-.258l.678-.218c.038.118.078.238.1.356.834 2.788 1.152 5.872.138 8.698z" transform="translate(1) translate(0 24.352)"/>
            <path fill="#F9B79C" d="M51.726 10.178L49.908 4.74s-1.07 5.284-2.648 5.754c0 0 1.258 3.53 1.028 5.12 0 0 1.28-1.026 1.662-1.412 1.322-1.334 1.776-2.36 1.776-4.024" transform="translate(1) translate(0 24.352)"/>
            <path fill="#F9B79C" d="M22.91.865C33.5.593 41.122 2.275 44.096 2.843c1.834.352 3.824.864 4.524 1.036 1.37.338 1.474 1.064 1.226 1.448-1.014 1.584-2.668 2.634-2.668 2.634-.144.026-4.468-.012-4.608.016 0 0-14.962.55-24.234-.87-9.272-1.422-8.496-2.916-6.53-4.228 0 0 2.038-1.782 11.102-2.014" transform="translate(1) translate(0 24.352)"/>
        </g>
    </g>
</svg>
