<svg width="47" height="44" viewBox="0 0 47 44" fill="none" xmlns="http://www.w3.org/2000/svg">
<path fill-rule="evenodd" clip-rule="evenodd" d="M0.974813 24.5747C1.02465 24.9219 1.15547 25.1846 1.36853 25.3565C1.58211 25.5325 1.83471 25.6502 2.12304 25.7128C2.41263 25.7757 2.71394 25.7987 3.02823 25.7821C3.34379 25.7656 3.62707 25.739 3.87782 25.7034C4.1296 25.6692 4.40766 25.6152 4.71404 25.5443C5.02169 25.4736 5.30581 25.368 5.5664 25.2275C5.82802 25.0885 6.0366 24.9036 6.19371 24.6784C6.35132 24.4507 6.40433 24.1643 6.35576 23.8174C6.3072 23.4705 6.17461 23.21 5.9618 23.0368C5.74822 22.8608 5.49714 22.7421 5.20729 22.6805C4.91769 22.6176 4.61639 22.5946 4.30083 22.611C3.98629 22.629 3.70326 22.6544 3.45251 22.69C3.20024 22.7266 2.92267 22.7781 2.61502 22.8488C2.30839 22.921 2.02451 23.0254 1.76417 23.1646C1.50358 23.3051 1.29397 23.4884 1.13637 23.7162C0.979007 23.9427 0.926249 24.2277 0.974813 24.5747ZM0.382397 24.6599C0.318022 24.2044 0.372291 23.8234 0.542135 23.5123C0.711978 23.2013 0.946066 22.9462 1.24895 22.744C1.54753 22.5437 1.88873 22.3886 2.26672 22.2814C2.64369 22.1728 3.00966 22.0937 3.36057 22.0446C3.71553 21.9949 4.08965 21.9688 4.47989 21.9682C4.87419 21.9671 5.24292 22.023 5.58808 22.1323C5.933 22.2428 6.22984 22.4245 6.47909 22.6746C6.72683 22.9258 6.88479 23.2795 6.94814 23.7335C7.01149 24.1874 6.958 24.5712 6.78968 24.8813C6.61856 25.1921 6.38296 25.4482 6.08286 25.6495C5.78301 25.8496 5.44435 26.0053 5.06509 26.1121C4.68685 26.2205 4.32113 26.2984 3.9687 26.3485C3.61628 26.3987 3.24368 26.4238 2.84938 26.4249C2.45508 26.426 2.08737 26.3717 1.74373 26.2613C1.39754 26.1505 1.10045 25.9701 0.851446 25.7187C0.603956 25.4662 0.448536 25.113 0.382397 24.6599Z" fill="#2C444A"/>
<path fill-rule="evenodd" clip-rule="evenodd" d="M8.03951 27.3302L8.12898 27.9763L2.58454 28.7414L3.74687 29.7424L3.31766 30.2117L1.76695 28.7805L1.68884 28.206L8.03951 27.3302Z" fill="#2C444A"/>
<path fill-rule="evenodd" clip-rule="evenodd" d="M4.78633 13.7918C5.00323 13.8793 5.22171 13.9272 5.44031 13.9345C5.65912 13.9431 5.86613 13.9103 6.05644 13.8382C6.24931 13.7657 6.42313 13.6557 6.57641 13.5069C6.73225 13.3577 6.85565 13.1692 6.95025 12.9393C7.04054 12.7154 7.08489 12.4908 7.08182 12.2646C7.07876 12.0385 7.03473 11.8266 6.95272 11.6313C6.86902 11.4336 6.74833 11.2588 6.58986 11.1018C6.43287 10.9458 6.24347 10.8252 6.02382 10.7368C5.80673 10.648 5.58737 10.6029 5.36487 10.604C5.14257 10.6065 4.93314 10.6488 4.73786 10.7309C4.5415 10.8144 4.36163 10.9359 4.2025 11.0974C4.04297 11.2563 3.91742 11.4479 3.82712 11.6718C3.73381 11.9015 3.69181 12.1243 3.69837 12.3395C3.70601 12.5531 3.75352 12.7539 3.84179 12.9391C3.93005 13.1243 4.05336 13.2908 4.21425 13.4383C4.37749 13.584 4.56796 13.7032 4.78633 13.7918ZM8.20386 11.0033L7.97967 11.5564L7.32349 11.2922L7.31717 11.3102C7.41578 11.4531 7.4858 11.6058 7.53236 11.7674C7.57763 11.9293 7.60313 12.0904 7.61121 12.2489C7.61822 12.409 7.60504 12.5657 7.57572 12.7197C7.5464 12.8737 7.50464 13.0153 7.45297 13.144C7.32754 13.4521 7.16167 13.7116 6.95555 13.9238C6.74815 14.1361 6.51564 14.2975 6.25674 14.4079C5.99763 14.5171 5.7196 14.5729 5.42648 14.5748C5.13208 14.5769 4.83691 14.5162 4.5401 14.3955C4.24477 14.2759 3.99085 14.1118 3.7815 13.9065C3.57088 13.7014 3.41216 13.4684 3.30281 13.2079C3.19258 12.9503 3.13655 12.6709 3.13809 12.3745C3.13708 12.0786 3.19908 11.7752 3.32471 11.4684C3.37617 11.3384 3.44485 11.2096 3.53142 11.0779C3.61671 10.9465 3.71808 10.8256 3.83574 10.7166C3.95063 10.6067 4.07946 10.5103 4.22585 10.4255C4.37223 10.3407 4.52906 10.2805 4.69928 10.247L4.70579 10.2302L1.63313 8.98355L1.85839 8.429L8.20386 11.0033Z" fill="#2C444A"/>
<path fill-rule="evenodd" clip-rule="evenodd" d="M8.56376 7.6141C8.48613 7.74432 8.39716 7.91041 8.29448 8.11404C8.19288 8.31619 8.11401 8.52129 8.05681 8.73082C8.00048 8.9376 7.98631 9.13769 8.01458 9.3245C8.04326 9.51388 8.14819 9.66366 8.33153 9.77088C8.45135 9.84099 8.56592 9.87787 8.68248 9.87775C8.79669 9.87931 8.90665 9.85403 9.01021 9.80486C9.11336 9.75315 9.20857 9.68434 9.29159 9.5965C9.3761 9.50974 9.446 9.4135 9.5081 9.30933C9.61872 9.12278 9.68422 8.94076 9.70371 8.76603C9.72192 8.5915 9.70496 8.42648 9.65242 8.2684C9.60304 8.11375 9.5187 7.96988 9.40274 7.8415C9.28551 7.71333 9.14731 7.60158 8.98429 7.50686L8.72075 7.34815L8.56376 7.6141ZM8.29898 7.10051L8.20499 7.04464C7.57626 6.67256 7.07879 6.79854 6.71003 7.42299C6.45794 7.84945 6.38087 8.30583 6.47991 8.79066L5.92781 8.88599C5.77763 8.33458 5.906 7.71415 6.31099 7.02893C6.41408 6.85275 6.54147 6.69761 6.69059 6.56393C6.83971 6.43024 7.00169 6.33644 7.1787 6.27958C7.35826 6.2223 7.54705 6.20681 7.75106 6.22952C7.95487 6.25095 8.16887 6.32842 8.39284 6.46065L10.0229 7.42356C10.1632 7.50745 10.3134 7.58717 10.474 7.66655C10.6355 7.74317 10.7696 7.80447 10.8784 7.84619L10.584 8.34486C10.4852 8.30811 10.3824 8.26281 10.2718 8.20958C10.165 8.15574 10.0604 8.09894 9.96239 8.04241L9.95439 8.05809C10.1086 8.35337 10.1778 8.63328 10.1628 8.90293C10.1488 9.16983 10.0548 9.45332 9.88034 9.74956C9.78396 9.91027 9.67049 10.054 9.53549 10.1776C9.40345 10.3034 9.257 10.396 9.09547 10.4596C8.9367 10.524 8.76802 10.5508 8.59516 10.5428C8.41974 10.5352 8.24557 10.4776 8.06923 10.3732C7.77179 10.1989 7.58464 9.98485 7.50777 9.73105C7.42835 9.47765 7.41625 9.21097 7.46892 8.9314C7.52393 8.65015 7.61743 8.37198 7.75195 8.09648C7.88688 7.82354 8.01799 7.57609 8.14696 7.3565L8.29898 7.10051Z" fill="#2C444A"/>
<path fill-rule="evenodd" clip-rule="evenodd" d="M12.1477 6.64674L10.6259 3.23224L11.1445 2.72687L13.3613 8.03202C13.4976 8.35503 13.5643 8.65236 13.5593 8.92699C13.5532 9.20311 13.4186 9.46946 13.1542 9.72753C13.0895 9.79019 13.022 9.85199 12.9505 9.91311C12.8802 9.97403 12.8009 10.0272 12.7167 10.0667L12.3561 9.60896C12.4936 9.56752 12.6246 9.48517 12.7507 9.363C12.9004 9.21613 12.9727 9.05268 12.9652 8.87305C12.959 8.69322 12.9039 8.48576 12.8022 8.24899L12.452 7.45151L8.20859 5.59498L8.74609 5.06828L12.1477 6.64674Z" fill="#2C444A"/>
<path fill-rule="evenodd" clip-rule="evenodd" d="M14.6553 2.42416C14.4818 2.32978 14.3057 2.28432 14.121 2.28474C13.9402 2.28456 13.7589 2.34735 13.5803 2.46867C13.4954 2.52798 13.4157 2.59563 13.3419 2.67546C13.2681 2.75529 13.2121 2.84015 13.1701 2.93066C13.1294 3.02097 13.1085 3.11207 13.1115 3.20592C13.1135 3.30126 13.1466 3.39429 13.2128 3.48992C13.3251 3.65295 13.4638 3.73449 13.6295 3.73051C13.7952 3.72653 14.0109 3.67402 14.2776 3.57149L14.8607 3.3494C15.1416 3.23678 15.4213 3.20818 15.6973 3.26403C15.9736 3.32115 16.1968 3.47316 16.3673 3.72261C16.4981 3.91153 16.5714 4.10169 16.5858 4.29201C16.6028 4.48193 16.5777 4.66279 16.511 4.83714C16.4417 5.01189 16.3394 5.17616 16.2023 5.32761C16.0664 5.47884 15.9124 5.61462 15.7445 5.729C15.4739 5.91468 15.189 6.03451 14.8875 6.09144C14.5846 6.14729 14.2678 6.10707 13.9332 5.9714L14.1604 5.38772C14.3686 5.47791 14.5797 5.52046 14.7969 5.51094C15.0142 5.50141 15.2273 5.42441 15.4367 5.28249C15.537 5.21288 15.628 5.13425 15.7119 5.04366C15.7971 4.95286 15.8617 4.85615 15.9061 4.75609C15.9518 4.65582 15.9722 4.55301 15.9684 4.44617C15.9645 4.33934 15.9284 4.23501 15.8603 4.13574C15.7411 3.96202 15.5892 3.87994 15.4064 3.89187C15.2249 3.9036 15.0276 3.94796 14.8127 4.03048L14.2571 4.24428C14.1856 4.27264 14.0882 4.30249 13.9624 4.33552C13.836 4.37258 13.6995 4.38765 13.5562 4.38415C13.4105 4.38234 13.2648 4.34776 13.1184 4.28318C12.9719 4.21859 12.8437 4.10394 12.7311 3.93836C12.6072 3.76013 12.5353 3.57892 12.5166 3.39452C12.4966 3.21032 12.5186 3.03519 12.5823 2.86656C12.6473 2.69773 12.7415 2.53998 12.8673 2.39164C12.9934 2.24458 13.1376 2.11298 13.3021 2.00176C13.5465 1.83331 13.806 1.72669 14.0785 1.67697C14.3524 1.62834 14.6266 1.68055 14.8992 1.82998L14.6553 2.42416Z" fill="#2C444A"/>
<path fill-rule="evenodd" clip-rule="evenodd" d="M31.5445 21.5147H26.2839C26.1442 21.1485 25.857 20.8612 25.4908 20.7214V12.9658C25.4908 12.6979 25.2735 12.4805 25.0057 12.4805C24.7379 12.4805 24.5205 12.6979 24.5205 12.9658V20.7214C24.003 20.9194 23.6304 21.4125 23.6304 22C23.6304 22.7584 24.2475 23.3756 25.0057 23.3756C25.593 23.3756 26.086 23.0029 26.2839 22.4853H31.5445C31.8123 22.4853 32.0296 22.2679 32.0296 22C32.0296 21.7321 31.8123 21.5147 31.5445 21.5147Z" fill="#F7BFA0"/>
<path fill-rule="evenodd" clip-rule="evenodd" d="M15.4551 27.5657C15.3205 27.3341 15.0242 27.2577 14.7926 27.3872L13.0654 28.3849C12.1158 26.6172 11.5608 24.6113 11.4857 22.485H13.4794C13.7473 22.485 13.9646 22.2676 13.9646 21.9997C13.9646 21.7319 13.7473 21.5145 13.4794 21.5145H11.4857C11.5608 19.3895 12.1158 17.3836 13.0654 15.6146L14.7926 16.6123C14.869 16.6563 14.9518 16.677 15.0346 16.677C15.2028 16.677 15.3658 16.5903 15.4551 16.4337C15.5896 16.2021 15.5094 15.9057 15.2778 15.7712L13.5635 14.7825C14.6633 13.0445 16.1434 11.5782 17.89 10.4925L18.8655 12.1826C18.956 12.3379 19.1191 12.4246 19.286 12.4246C19.3688 12.4246 19.4516 12.4039 19.5279 12.3599C19.7608 12.2253 19.8397 11.9289 19.7064 11.6973L18.7296 10.0046C20.4711 9.08834 22.4376 8.54998 24.5206 8.47622V10.3837C24.5206 10.6516 24.738 10.869 25.0058 10.869C25.2736 10.869 25.491 10.6516 25.491 10.3837V8.47622C27.6283 8.55257 29.6427 9.11163 31.4178 10.0693L30.4785 11.6973C30.344 11.9289 30.4242 12.2253 30.6571 12.3599C30.7321 12.4039 30.8162 12.4246 30.899 12.4246C31.0659 12.4246 31.2289 12.3379 31.3195 12.1826L32.2497 10.5701C33.9666 11.6623 35.4169 13.1286 36.4933 14.8549L34.9084 15.7712C34.6756 15.9057 34.5954 16.2021 34.7299 16.4337C34.8205 16.5903 34.9835 16.677 35.1504 16.677C35.2332 16.677 35.3173 16.6563 35.3936 16.6123L36.985 15.6922C37.91 17.4432 38.4521 19.4193 38.5272 21.5145H36.7055C36.4377 21.5145 36.2203 21.7319 36.2203 21.9997C36.2203 22.2676 36.4377 22.485 36.7055 22.485H38.5272C38.4521 24.5802 37.91 26.5576 36.985 28.306L35.3936 27.3872C35.1659 27.2577 34.8658 27.3315 34.7299 27.5657C34.5954 27.7987 34.6756 28.095 34.9084 28.2296L36.4933 29.1459C35.4169 30.8722 33.9666 32.3385 32.2497 33.4294L31.3195 31.8169C31.1849 31.5853 30.8912 31.5089 30.6571 31.6383C30.4242 31.7729 30.344 32.0693 30.4785 32.3022L31.4165 33.9302C29.6427 34.8892 27.6283 35.4482 25.491 35.5246V33.617C25.491 33.3492 25.2736 33.1317 25.0058 33.1317C24.738 33.1317 24.5206 33.3492 24.5206 33.617V35.5246C22.4376 35.4508 20.4711 34.9125 18.7296 33.9962L19.7064 32.3022C19.8397 32.0693 19.7608 31.7729 19.5279 31.6383C19.295 31.5076 19 31.5853 18.8655 31.8169L17.8913 33.5083C16.1434 32.4226 14.6633 30.9563 13.5635 29.2183L15.2778 28.2296C15.5094 28.095 15.5896 27.7987 15.4551 27.5657ZM25.0057 36.5197C33.0104 36.5197 39.522 30.0064 39.522 21.9997C39.522 13.9943 33.0104 7.47974 25.0057 7.47974C17.0024 7.47974 10.4907 13.9943 10.4907 21.9997C10.4907 30.0064 17.0024 36.5197 25.0057 36.5197Z" fill="#254047"/>
<path fill-rule="evenodd" clip-rule="evenodd" d="M24.7869 0C23.0946 0 21.4049 0.188941 19.767 0.566824C19.4966 0.626353 19.3271 0.895529 19.3905 1.16341C19.4526 1.43259 19.714 1.606 19.9934 1.53612C21.5576 1.17894 23.171 0.997765 24.7869 0.997765C36.4814 0.997765 45.9934 10.4202 45.9934 22.0013C45.9934 33.5798 36.4814 43.0022 24.7869 43.0022C18.8264 43.0022 13.4585 40.5758 9.60171 36.6546L12.4726 36.4864C12.7223 36.4721 12.9138 36.2586 12.8996 36.0075C12.884 35.7591 12.6693 35.5805 12.4196 35.5818L8.30145 35.8238C8.17466 35.8302 8.05693 35.8911 7.97671 35.9894C7.8965 36.0878 7.86157 36.2146 7.87968 36.3401L8.45153 40.3428C8.48388 40.568 8.67795 40.7311 8.89918 40.7311C8.92118 40.7311 8.94188 40.7298 8.96387 40.7272C9.21099 40.6909 9.38435 40.4619 9.34813 40.2134L8.94964 37.4246C12.985 41.4907 18.5793 44 24.7869 44C37.0339 44 46.9999 34.1311 46.9999 22.0013C46.9999 9.87153 37.0339 0 24.7869 0Z" fill="#254047"/>
</svg>
