<svg xmlns="http://www.w3.org/2000/svg" xmlns:xlink="http://www.w3.org/1999/xlink" width="71" height="104"><defs><path id="a" d="M65.495 48.676c-3.505-6.865-7.538-14.02-11.99-21.271-2.613-4.258-5.402-8.262-8.37-12.526l-.285-.411a515.14 515.14 0 01-3.542-5.132L34.96 0l-8.42 12.358c-1.195 1.748-2.326 3.395-3.43 5.084C15.581 28.927 8.95 39.41 4.031 51.417 2.106 56.12.121 61.71.007 67.499c-.386 19.323 14.825 35.683 33.91 36.47.483.02.96.031 1.44.031.117 0 .233 0 .353-.003 18.386-.172 33.506-14.5 35.168-33.329.758-8.585-2.139-15.645-5.383-21.992"/><path id="c" d="M0-.005h72.143V122.11H0z"/><path id="e" d="M.191.555h45.771v15.833H.191z"/></defs><g fill="none" fill-rule="evenodd"><path fill="#FFF" d="M65.495 48.676c-3.505-6.865-7.538-14.02-11.99-21.271-2.613-4.258-5.402-8.262-8.37-12.526l-.285-.411a515.14 515.14 0 01-3.542-5.132L34.96 0l-8.42 12.358c-1.195 1.748-2.326 3.395-3.43 5.084C15.581 28.927 8.95 39.41 4.031 51.417 2.106 56.12.121 61.71.007 67.499c-.386 19.323 14.825 35.683 33.91 36.47.483.02.96.031 1.44.031.117 0 .233 0 .353-.003 18.386-.172 33.506-14.5 35.168-33.329.758-8.585-2.139-15.645-5.383-21.992"/><mask id="b" fill="#fff"><use xlink:href="#a"/></mask><use fill="#FFF" xlink:href="#a"/><g mask="url(#b)"><path fill="#2D4249" d="M24.554 53.371c.576.643 3.08.91 4.608.894.023-.002 2.211-.037 3.762-.484 2.113-.613 2.368-4.403 2.576-7.45.115-1.674.184-2.685-4.456-3.25-1.459-.181-4.05-.004-5.426.365-2.99.815-3.31 2.138-3.228 3.324.203 2.995.93 5.212 2.164 6.601m4.453 1.93c-.986 0-4.202-.091-5.228-1.24-1.387-1.563-2.205-3.994-2.426-7.22-.15-2.186 1.157-3.621 3.995-4.393 1.498-.41 4.217-.59 5.823-.396 5.225.636 5.515 2.138 5.363 4.352-.228 3.368-.511 7.56-3.322 8.37-1.687.489-3.942.526-4.037.526-.046.002-.101.002-.168.002M7.728 46.666c.168.456.544.82 3.318.993 1.272.078 2.868-.05 3.887-.316.456-.12.62-.389.62-1.03 0-1.718-.171-3.591-1.452-4.453-1.355-.912-4.05-.947-5.147-.067-.45.36-1.288 1.03-1.286 4.154.003.01.023.542.06.72m4.101 2.052c-.304 0-.59-.01-.845-.025-2.848-.175-3.839-.572-4.24-1.698-.085-.24-.113-1.044-.113-1.049-.002-3.182.804-4.267 1.675-4.965 1.466-1.173 4.618-1.163 6.376.019 1.681 1.13 1.907 3.32 1.905 5.313 0 1.108-.468 1.792-1.394 2.032-1.011.267-2.297.373-3.364.373m-15.187 3.433c.178.154.933.705 2.749.705h.06c.855-.007 2.041-.139 2.944-.7.198-.503.802-2.362-.322-4.125a2.464 2.464 0 00-.475-.537l.214-.502-.322.406a2.624 2.624 0 00-.535-.325l-.15-.065a.483.483 0 01-.055-.023.552.552 0 01-.103-.025c-1.445-.489-2.8-.056-3.383.624-.285.332-1.313 2.118-.742 4.147.01.035.016.072.019.106.03.102.062.208.101.314zm2.749 1.74c-2.629 0-3.514-1.021-3.606-1.137a.473.473 0 01-.078-.143 8.579 8.579 0 01-.196-.603.551.551 0 01-.019-.115c-.57-2.226.408-4.311.984-4.984.765-.892 2.436-1.56 4.341-.984a.581.581 0 01.14.03c.019.003.13.049.148.056.152.06.226.09.295.126.276.127.518.277.735.45.011.006.11.092.12.1.297.264.516.512.69.787 1.602 2.506.388 5.137.335 5.248a.553.553 0 01-.173.207c-1.133.781-2.61.954-3.65.961h-.066z"/><g transform="translate(-32 37.525)"><mask id="d" fill="#fff"><use xlink:href="#c"/></mask><path fill="#2D4249" d="M37.3 24.524c-.078.369-.147.717-.207 1.04-.387 2.068-.281 2.94-.21 3.241.044-.147.086-.322.116-.518.182-.98.27-2.337.301-3.763zm-.2 5.622c-.016 0-.032 0-.046-.002-.007 0-.143-.019-.152-.019l-.035-.011c-.514-.143-.746-.304-.965-.977-.21-.76-.148-2.053.173-3.76.242-1.33.654-3.03 1.225-5.05a.52.52 0 01.565-.374c.253.03.445.244.451.5.072 2.553.076 6.014-.294 8.009-.106.684-.341 1.272-.517 1.488a.51.51 0 01-.405.196zm-11.428-1.638a45.677 45.677 0 00-.297 4.112l.007.026c.037-.134.067-.284.097-.445.165-.903.232-2.124.193-3.693zm-.228 5.824a.506.506 0 01-.152-.023c-.465-.143-.756-.638-.942-1.601.007-.912.106-3.762.654-6.75.115-.627.249-1.268.41-1.888.062-.246.295-.389.541-.389.252.02.452.219.475.468l.028.297c.332 3.693.345 6.294.044 7.94-.132.737-.36 1.357-.639 1.737a.517.517 0 01-.419.21zm-12.28 12.55a.79.79 0 01-.35-.087c-.606-.401-.837-1.399-.16-5.085.286-1.553.777-3.325 1.461-5.265a.51.51 0 01.576-.34.52.52 0 01.429.51c0 .556-.021 1.102-.065 1.627-.145 1.673-.35 3.811-.656 5.507-.046.256-.086.537-.122.815-.173 1.258-.298 1.986-.788 2.24a.744.744 0 01-.325.078zm37.424-19.655c-.26 2.41-.512 4.16-.62 4.758-.085.46-.014.612-.014.612.02.005.115.014.136.021.085-.35.108-.472.159-.77l.041-.225v-.002c.224-1.2.32-2.692.298-4.394zm.997 94.883c-.03 0-.06 0-.094-.004a.52.52 0 01-.415-.606c.793-4.323 1.369-8.477 1.719-12.343.924-10.336 1.7-16.725 2.68-22.056v-.002a87.1 87.1 0 012.202-9.283 229.444 229.444 0 011.707-5.428c1.636-5.06 3.325-10.288 4.587-17.165.286-1.562.544-3.164.76-4.756.604-4.433 1-7.972 1.321-10.815.353-3.138.631-5.617 1.005-7.665.23-1.249.483-2.286.804-3.267.285-.873.629-1.758.986-2.677.744-1.901 1.511-3.871 1.933-6.182.421-2.295.435-4.571.041-6.956-.101-.617-.184-1.186-.262-1.719-.302-2.07-.521-3.57-1.433-4.962-1.56-2.385-4.463-3.461-9.078-3.316-4.823.131-7.832 2.55-8.949 7.19v.006c-.032.14-1.15 4.99.005 10.833l.002.016v.002c.002.007.002.012.002.019.355 2.546.853 7.34.203 10.835l-.041.222c-.063.352-.09.497-.212.88-.284.59-.66.804-1.222.71-.232-.047-.541-.139-.748-.454-.203-.3-.251-.76-.14-1.369.183-1.01.787-5.419 1.126-10.723-1.168-5.99-.074-10.826.014-11.2.417-2.366-.487-4.391-.874-5.257-.884-1.986-2.368-3.072-4.697-3.472-1.374-.238-3.318-.136-4.562.635-1.293.802-2.33 2.429-2.64 4.145-.03.157-.12.825-.086 1.18a.517.517 0 01-.71.532l-.444-.186c-.745-.314-2.132-.899-2.926-1.042-1.89-.348-4.385-.295-5.896 1.88a8.827 8.827 0 00-1.447 3.493c-.012.058-.27 1.484-.074 3a.517.517 0 01-.903.408l-.173-.205c-.458-.542-1.025-1.217-2.378-1.652l-.562-.097c-.555-.106-1.394-.1-2.023.154-3.108 1.314-5.135 4.802-5.154 8.878-.002.583.037 1.898.06 2.79.028.954.028.954.014 1.025a.519.519 0 01-.754.359c-.168-.09-.359-.205-.57-.334-1.81-1.09-3.565-1.87-5.123.507-1.815 2.777-3.152 5.323-3.771 8.716a26.422 26.422 0 00-.392 3.645c-.2 4.61-.41 7.18-.719 8.868-.069.369-.143.7-.219.993a63.009 63.009 0 00-.958 4.399C1.328 57.492.572 63.695 1.39 69.072v.005c1.284 8.398 1.751 16.667 1.166 20.572-.606 4.127-.746 12.824.839 19.24a.525.525 0 01-.38.63.53.53 0 01-.627-.38C.676 102.217.955 93.416 1.53 89.497c.571-3.815.103-11.958-1.166-20.268v-.005c-.841-5.518-.071-11.84.719-16.174.433-2.348.857-4.02.977-4.477.071-.271.143-.576.202-.917.302-1.638.505-4.165.705-8.723.058-1.387.194-2.624.404-3.79.656-3.562 2.043-6.211 3.928-9.094 2.104-3.211 4.797-1.852 6.262-.983-.023-.901-.062-2.217-.057-2.802.018-4.493 2.292-8.35 5.794-9.831.88-.355 1.922-.339 2.606-.219l.627.115c.965.309 1.617.724 2.09 1.127.009-.996.142-1.747.16-1.862a9.937 9.937 0 011.62-3.896c1.422-2.048 3.86-2.878 6.88-2.322.864.161 2.085.656 2.929 1.009.032-.35.083-.638.083-.643.366-2.025 1.56-3.88 3.117-4.843 1.576-.975 3.83-1.028 5.28-.776 2.666.46 4.447 1.776 5.443 4.013.27.601.732 1.634.96 2.938 1.675-3.304 4.712-5.087 8.926-5.2 5.03-.13 8.198 1.069 9.972 3.783 1.039 1.58 1.27 3.175 1.592 5.38.076.527.159 1.092.258 1.7.415 2.507.4 4.898-.04 7.31-.444 2.413-1.264 4.516-1.988 6.371-.352.903-.688 1.77-.97 2.624a24.29 24.29 0 00-.767 3.13c-.368 2.013-.631 4.356-.995 7.596-.32 2.85-.719 6.393-1.323 10.838a105.88 105.88 0 01-.765 4.803c-1.276 6.945-2.976 12.207-4.624 17.299a249.65 249.65 0 00-1.7 5.405c-.88 2.968-1.571 5.884-2.175 9.175-.975 5.296-1.746 11.662-2.67 21.964-.348 3.896-.931 8.08-1.728 12.437a.521.521 0 01-.512.421z" mask="url(#d)"/></g><path fill="#2D4249" d="M5.8 58.51a.523.523 0 01-.512-.613c.752-4.071.152-6.6-.426-9.048-.325-1.377-.633-2.677-.666-4.156a.516.516 0 01.505-.53h.011a.52.52 0 01.519.507c.032 1.368.33 2.617.64 3.94.574 2.433 1.226 5.19.44 9.476a.521.521 0 01-.511.424"/><path fill="#FEFEFE" d="M51.056 69.391l-.592.154-20.268 5.482s.17-2.68-1.049-7.064c-1.085-3.908 8.613 2.08 8.164.092-.058-.251 9.598.728 9.492.493-.97-2.166 4.55-6.596 5.474-6.622.975-.025-12.146-18.063-8.709-19.42 3.435-1.36 4.546-2.622 4.546-2.622s1.716 7.423 3.368 14.174c0 0-8.865-3.062-11.52-2.115-2.656.95-1.951 1.057-1.951 1.057s-3.659-1.396-4.942 1.28c-1.286 2.676-1.095 4.082.428 5.22 1.523 1.136 1.245 1.447 1.245 1.447s-.66 1.451 2.444 3.173c3.104 1.723 13.87 5.271 13.87 5.271"/><path fill="#F7BDA3" d="M50.595 70.021l-19.897 4.364s-2.933-16.26-4.413-19.225c-1.479-2.967-2.13-6.979-2.13-6.979l13.584-3.797 8.287-2.822 2.187-1.392 3.103 13.831s-5.829-1.944-8.527-1.88c-2.7.065-4.603.72-4.603.72s-2.3-.632-3.691.264c-1.392.899-2.784 3.2-2.187 4.705.595 1.507 2.585 3.465 2.585 3.465s-.654 1.79 2.982 3.41c3.635 1.62 12.837 4.601 12.837 4.601l-.117.735z"/><g transform="translate(37.12 28.31)"><mask id="f" fill="#fff"><use xlink:href="#e"/></mask><path fill="#32454B" d="M.886 16.388l-.695-.696c.447-.444 4.44-4.44 7.068-7.19l.777-.814c2.608-2.75 5.854-6.175 7.845-6.827C17.496.331 21.537.6 25.104.838c1.228.081 2.37.16 3.274.19 1.216.048 2.91-.008 4.866-.067 3.573-.113 8.018-.25 12.718.069l-.065.981c-4.654-.31-9.073-.177-12.623-.067-1.975.063-3.684.109-4.93.07-.913-.035-2.065-.111-3.307-.194-3.304-.219-7.417-.493-8.847-.025-1.758.576-5.044 4.04-7.442 6.573l-.777.816c-2.636 2.757-6.638 6.76-7.085 7.204" mask="url(#f)"/></g><path fill="#32454B" d="M46.72 75.846a3.016 3.016 0 01-1.703-.504c-1.21-.809-1.747-2.412-1.837-3.541l.982-.076c.071.905.484 2.184 1.403 2.799.571.382 1.281.44 2.106.175 2.272-.735 3.49-2.451 3.624-5.099l.984.051c-.154 3.053-1.643 5.122-4.306 5.984a3.937 3.937 0 01-1.254.211m4.918-21.321l-.32-.93c.993-.344 3.697-1.519 4.306-2.85a.498.498 0 01.587-.265c.037.009 3.73 1.064 7.723-1.086l.47.864c-3.635 1.959-6.974 1.5-8.087 1.26-1.168 1.784-4.527 2.957-4.68 3.007m21.575-5.962c-1.59-2.544-5.147-3.698-5.861-3.91-.431.106-1.572.24-4.489.131-2.988-.117-5.177-1.147-6.114-1.675-.404.66-1.385 1.763-3.708 3.54-1.739 1.331-2.56 1.55-2.647 1.573l-.228-.958.113.479-.12-.477c.007-.002.726-.205 2.286-1.399 3.327-2.546 3.585-3.497 3.594-3.536.005-.182.106-.316.267-.399.162-.085.353-.04.5.062.026.016 2.44 1.661 6.097 1.807 3.502.136 4.23-.106 4.26-.116a.385.385 0 01.308-.02c.19.048 4.602 1.22 6.576 4.375l-.834.523z"/><path fill="#32454B" d="M57.013 42.463l-.977-.131c.496-3.749-.96-5.912-.974-5.933l.806-.564c.072.1 1.694 2.476 1.145 6.628m10.637 2.066l-.606-.777c3.541-2.762 3.82-5.527 3.822-5.555l.982.079c-.012.129-.288 3.202-4.198 6.253M30.198 75.52a.495.495 0 01-.491-.523c.002-.025.147-2.666-1.03-6.903-1.05-3.783-3.064-12.64-3.656-15.264a3.656 3.656 0 00-.215-.638c-1.03-2.295-1.592-3.629-1.152-4.329a.866.866 0 01.735-.394c.963-.044 15.582-4.069 19.001-5.421 3.249-1.286 4.348-2.48 4.36-2.489a.48.48 0 01.49-.15.488.488 0 01.355.365c.019.076 1.737 7.497 3.369 14.167l-.957.233a1331.642 1331.642 0 01-3.184-13.382c-.684.523-1.954 1.332-4.073 2.17-3.323 1.314-17.711 5.33-19.269 5.486-.041.526.745 2.272 1.224 3.341.122.272.214.548.274.827.592 2.618 2.601 11.453 3.645 15.213.887 3.19 1.053 5.484 1.074 6.555l20.238-5.47.246.955-.587.152-20.268 5.48a.384.384 0 01-.13.02"/><path fill="#32454B" d="M81.696 84.927c-1.212-.843-2.438-1.7-3.631-2.534-4.1-2.864-7.97-5.573-9.33-6.29-2.619-1.387-14.208-5.087-21.132-7.299l-.8-.256c-7.784-2.488-12.657-4.66-12.885-7.794l.981-.072c.198 2.724 5.984 4.94 12.204 6.926l.8.258c7.405 2.364 18.598 5.94 21.294 7.369 1.412.746 5.128 3.345 9.43 6.354 1.193.832 2.419 1.689 3.63 2.53l-.561.808zM70.308 59.993c-.094 0-.19 0-.288-.002-4.098-.047-8.656-1.76-13.485-3.579-2.866-1.076-5.831-2.19-8.693-2.926-8.121-2.09-9.4-.237-9.412-.216l-.834-.523c.369-.59 2.214-2.343 10.49-.214 2.915.748 5.903 1.873 8.795 2.96 4.744 1.783 9.225 3.47 13.15 3.514 6.086.037 7.805-2.09 7.82-2.11l.796.582c-.079.106-1.906 2.514-8.339 2.514"/><path fill="#32454B" d="M36.13 53.106c-.097 0-.182.009-.254.023-1.525.331-2.553 1.218-3.055 2.638-.749 2.11 1.065 4.12 2.385 4.889 1.686.988 4.77 2.255 5.493 2.527.361.136 1.543.364 2.677-.161.868-.41 1.511-1.182 1.903-2.3.765-2.186-.813-4.683-1.924-5.153a159.049 159.049 0 00-4.993-1.936c-1.023-.35-1.77-.527-2.232-.527m5.688 11.23c-.633 0-1.166-.12-1.465-.231-.862-.323-3.92-1.59-5.643-2.6-2.045-1.19-3.67-3.658-2.817-6.068.428-1.212 1.433-2.76 3.776-3.27.793-.177 2.023.199 3.009.535.56.192 3.758 1.41 5.06 1.961 1.612.682 3.4 3.73 2.47 6.384-.482 1.376-1.295 2.339-2.415 2.864a4.639 4.639 0 01-1.975.424"/></g></g></svg>