<svg xmlns="http://www.w3.org/2000/svg" xmlns:xlink="http://www.w3.org/1999/xlink" width="88" height="83" viewBox="0 0 88 83">
    <defs>
        <path id="prefix__a" d="M0.76 0.803L36.7 0.803 36.7 13.236 0.76 13.236z"/>
    </defs>
    <g fill="none" fill-rule="evenodd">
        <path fill="#FEFEFE" d="M61.956 32.621c-.285.074-.465.123-.465.123l-15.915 4.303s.135-2.104-.823-5.547c-.851-3.067-2.513-10.402-2.864-11.965-.047-.198-.11-.39-.194-.576-.763-1.697-1.395-3.146-.672-3.164.767-.018 12.354-3.219 15.052-4.284 2.698-1.066 3.571-2.058 3.571-2.058s1.348 5.829 2.644 11.13c0 0-6.96-2.405-9.045-1.66-2.086.744-1.531.83-1.531.83s-2.871-1.098-3.883 1.003c-1.008 2.1-.859 3.205.338 4.1 1.197.893.978 1.134.978 1.134s-.519 1.141 1.919 2.493c2.437 1.352 10.89 4.138 10.89 4.138"/>
        <path fill="#F9B79C" d="M61.592 33.117l-15.624 3.425s-2.302-12.765-3.463-15.095c-1.161-2.329-1.674-5.479-1.674-5.479l10.666-2.982 6.507-2.214 1.718-1.093 2.437 10.86s-4.58-1.527-6.696-1.478c-2.12.052-3.615.565-3.615.565s-1.805-.497-2.898.209c-1.094.705-2.187 2.512-1.719 3.693.468 1.183 2.03 2.722 2.03 2.722s-.512 1.406 2.343 2.676c2.854 1.271 10.081 3.613 10.081 3.613l-.093.578z"/>
        <path fill="#2C444A" d="M61.907 80.033c-.488-5.81-1.046-7.994-1.494-9.75-.45-1.766-.778-3.04-.778-6.968 0-5.931-.825-10.793-1.553-15.084-.22-1.305-.432-2.555-.61-3.762-.872-5.951-1.529-6.416-1.709-6.416v-.774c1.048 0 1.717 1.92 2.473 7.08.177 1.2.39 2.444.609 3.744.732 4.318 1.564 9.216 1.564 15.212 0 3.828.317 5.065.752 6.778.457 1.782 1.023 4 1.514 9.877l-.768.063zM50.134 50.243c-.032 1.545-.09 2.923-.14 4.137-.054 1.294-.1 2.412-.1 3.36 0 2.265.125 5.93.237 9.162.056 1.65.111 3.22.146 4.51.036 1.356.15 2.055.246 2.41.024-.089.047-.198.069-.326.133-.857.088-4.64.04-8.298-.022-1.869-.046-3.742-.046-5.254 0-2.042-.216-5.917-.452-9.7m.386 24.64l-.04-.002c-.437-.027-.896-.46-.977-3.45-.035-1.288-.087-2.856-.144-4.503-.112-3.238-.238-6.91-.238-9.189 0-.965.047-2.091.1-3.393.138-3.272.327-7.752-.098-13.505-.164-2.178-.238-3.16-.362-4.73l.77-.06.128 1.635c.117-.616.297-1.057.54-1.302.182-.185.36-.225.479-.225v.772c.047 0 .077-.014.086-.018-.005.004-.529.443-.486 3.125.013.713.157 2.907.339 5.688.311 4.777.743 11.315.743 14.217 0 1.51.022 3.378.045 5.245.047 3.859.094 7.506-.05 8.427-.13.82-.427 1.267-.835 1.267M39.443 50.881l-.016.074c-.14.659-.263 1.228-.315 2.605l-.099 2.558c-.174 4.287-.387 9.624-.225 11.059.061.542.184.651.186.653.018-.05.216-.347.216-.61 0-.171.018-.659.048-1.386.096-2.425.297-7.466.236-12.245-.014-1.01-.025-1.9-.03-2.708m-.535 17.705c-.348 0-.767-.241-.89-1.321-.169-1.494.047-6.865.222-11.178l.1-2.556c.055-1.445.183-2.043.33-2.738.297-1.386.666-3.112.64-13.223-.03-10.944-.23-14.963-.337-17.121-.04-.817-.067-1.368-.067-1.923 0-2.057-.475-3.798-1.127-4.136l.358-.686c1.136.59 1.541 2.878 1.541 4.822 0 .544.027 1.082.067 1.883.034.697.079 1.582.122 2.828.204-1.289.56-2.153 1.068-2.576.369-.31.716-.306.887-.273l-.131.76c-.027-.003-.121-.012-.261.105-.287.24-.956 1.181-.983 4.77-.016 1.885.027 3.638.072 5.332.07 2.696.142 5.486-.033 8.824-.29 5.531-.322 7.286-.243 13.4.063 4.8-.138 9.856-.235 12.284-.027.713-.047 1.188-.047 1.357 0 .59-.45 1.332-1.008 1.364l-.045.002M27.321 51.008c-.072.587-.142 1.125-.205 1.622-.17 1.346-.308 2.41-.369 3.337-.21 3.116-.482 8.546-.405 10.307.03.633.137.84.173.894-.013-.041.065-.117.11-.203.135-.261.358-1.687.42-4.043l.073-2.693c.074-2.608.144-5.092.203-9.221m-.862 16.925c-.047 0-.093-.007-.142-.016-.608-.135-.718-.983-.747-1.61-.08-1.788.196-7.258.405-10.39.063-.953.202-2.025.374-3.384.373-2.92.936-7.33 1.24-14.553.294-6.902.272-9.643.258-11.457-.009-.969-.014-1.67.029-2.605.153-3.407-.384-4.106-.621-4.248l.396-.662c.81.482 1.127 2.053.995 4.944-.041.916-.034 1.606-.027 2.567.013 1.424.027 3.418-.106 7.535l.162-1.257.131-1.031c.278-2.198.582-6.595.828-10.127.08-1.13.153-2.192.22-3.101.243-3.265.961-4.97 1.555-5.476.225-.194.432-.22.56-.21l-.061.768c.034.006.048-.003.048-.003-.196.079-1.053 1.222-1.33 4.977-.066.909-.14 1.97-.22 3.1-.248 3.542-.554 7.95-.833 10.167l-.131 1.034c-.436 3.373-1.25 9.642-1.321 15.919-.063 5.515-.144 8.391-.233 11.439l-.073 2.69c-.044 1.657-.202 3.799-.506 4.378-.162.312-.486.612-.85.612M12.986 73.462l-.756-.17c.922-4.121 1.815-10.902 2.19-14.457.127-1.206.248-2.237.363-3.241.254-2.184.491-4.243.768-7.7.19-2.398.785-5.867 1.415-9.543.7-4.084 1.422-8.307 1.613-11.237.351-5.359 1.838-7.853 2.73-7.853v.77c.038 0 .056-.007.058-.007-.26.113-1.668 1.805-2.016 7.142-.192 2.968-.921 7.213-1.623 11.315-.629 3.658-1.219 7.112-1.406 9.472-.28 3.474-.519 5.54-.77 7.727-.118 1.004-.236 2.034-.364 3.236-.376 3.57-1.275 10.392-2.202 14.546M4.428 82.796c-.263-1.944-.225-2.705-.139-4.372.06-1.177.144-2.792.166-5.616.021-2.99.16-4.127.244-4.808.101-.82.107-.87-.363-3.146-.814-3.93-.81-5.559-.807-6.867v-.227c0-1.301-.302-2.432-.306-2.443l.746-.203c.014.049.334 1.237.334 2.646v.229c-.003 1.339-.007 2.856.789 6.708.477 2.311.493 2.44.374 3.397-.08.664-.218 1.773-.24 4.72-.02 2.84-.105 4.467-.165 5.651-.086 1.665-.122 2.355.133 4.229l-.766.102z"/>
        <path fill="#2C444A" d="M14.882 61.064l-.77-.063c.175-2.158-.379-3.517-1.021-5.094-.278-.678-.566-1.382-.82-2.203-.802-2.594-4.365-6.197-6.778-7.452-2.18-1.132-3.426-.27-3.476-.232l-.46-.623c.068-.048 1.66-1.195 4.292.171 2.598 1.348 6.291 5.098 7.16 7.906.245.79.526 1.478.796 2.142.654 1.596 1.267 3.105 1.077 5.448"/>
        <path fill="#2C444A" d="M.819 45.142c-.029.094-.065.306-.03.734.16 1.936 1.045 4.533 1.893 6.815.69 1.861 1.242 2.28 1.379 2.28.018 0 .124-.064.24-.372.343-.936-.012-2.592-1.057-4.92l-.002-.006c-.007-.018-.697-1.638-1.483-3.237-.395-.808-.765-1.19-.94-1.294zm3.242 10.602c-.711 0-1.419-.938-2.103-2.783-.865-2.334-1.77-4.993-1.938-7.02-.029-.344-.115-1.39.565-1.578.826-.234 1.64 1.267 1.868 1.731.778 1.586 1.464 3.194 1.498 3.273 1.145 2.554 1.494 4.352 1.073 5.5-.268.726-.672.877-.961.877H4.06zM24.442 16.68c-1.55 0-2.457 1.706-2.666 2.786-.275 1.417-.41 3.832-.424 4.388-.008.288.113 1.17.745 1.822.464.479 1.11.724 1.924.729h.01c1.491 0 2.895-1.573 2.956-2.529.067-.995.144-3.494.144-3.906 0-.947-.079-1.56-.234-1.825-.565-.963-1.384-1.456-2.437-1.465h-.018zm-.408 10.499h-.017c-1.03-.007-1.86-.331-2.475-.965-.788-.812-.973-1.911-.963-2.376.015-.574.153-3.054.438-4.52.327-1.699 1.609-3.412 3.425-3.412h.027c.922.009 2.209.336 3.094 1.848.303.511.342 1.453.342 2.216 0 .427-.077 2.925-.145 3.956-.083 1.284-1.72 3.253-3.726 3.253zM43.83 28.453c-1.722-.06-2.649-1.36-2.674-2.615-.01-.538.01-1.72.022-2.682.01-.671.02-1.237.014-1.388-.01-.356.047-.745.16-1.125l.74.227c-.092.299-.135.601-.126.875.004.155-.005.734-.016 1.422-.015.952-.033 2.124-.022 2.657.018.862.629 1.812 1.93 1.855l-.029.774zM53.464 43.041h-.038c-1.638-.016-2.92-1.263-2.972-2.366-.027-.585-.108-1.772-.16-2.537l-.045-.667c-.034-.596.072-1.206.299-1.718l.705.313c-.176.404-.259.884-.232 1.36l.043.66c.052.77.133 1.964.16 2.553.035.727 1.028 1.618 2.207 1.63.56-.023 1.05-.165 1.393-.505.54-.537.652-1.374.65-1.651-.005-.576-.041-1.638-.115-2.71-.08-1.142-.765-1.895-1.93-2.121l.146-.756c1.52.293 2.45 1.323 2.554 2.822.074 1.09.114 2.173.117 2.758.006.493-.176 1.506-.874 2.206-.488.483-1.129.73-1.908.73M34.857 10.845c-1.614 0-2.394 1.462-2.433 2.828-.038 1.419-.1 3.86-.1 4.495 0 .356.062 1.033.469 1.593.439.605 1.177.912 2.194.912 1.872 0 2.592-1.702 2.644-2.529.043-.657 0-1.864-.034-2.75-.015-.457-.027-.819-.024-.963.035-1.251-.26-2.24-.85-2.851-.458-.474-1.094-.73-1.84-.735h-.026zm.13 10.602c-1.28 0-2.227-.415-2.82-1.233-.535-.738-.615-1.598-.615-2.046 0-.64.06-3.09.101-4.515.058-2.08 1.404-3.582 3.206-3.582h.03c.96.01 1.786.346 2.391.972.738.765 1.105 1.944 1.066 3.411-.002.137.009.48.025.915.032.898.077 2.131.032 2.828-.088 1.348-1.208 3.25-3.416 3.25z"/>
        <g transform="translate(50.4 -.003)">
            <mask id="prefix__b" fill="#fff">
                <use xlink:href="#prefix__a"/>
            </mask>
            <path fill="#2C444A" d="M1.308 13.236l-.548-.547c.351-.35 3.487-3.483 5.55-5.645l.608-.641c2.05-2.158 4.6-4.846 6.163-5.359 1.268-.415 4.44-.207 7.24-.018.967.065 1.863.125 2.57.15.956.034 2.286-.007 3.824-.052 2.804-.09 6.294-.197 9.986.052l-.05.77c-3.656-.243-7.125-.14-9.913-.052-1.552.05-2.894.086-3.872.054-.716-.025-1.622-.086-2.595-.151-2.594-.173-5.823-.385-6.948-.02-1.381.454-3.959 3.172-5.843 5.159l-.61.64c-2.07 2.17-5.211 5.31-5.562 5.66" mask="url(#prefix__b)"/>
        </g>
        <path fill="#2C444A" d="M58.549 37.69c-.49 0-.941-.132-1.336-.397-.952-.634-1.371-1.892-1.443-2.78l.77-.06c.058.714.38 1.717 1.102 2.197.45.301 1.006.348 1.652.139 1.784-.576 2.742-1.924 2.848-4.003l.772.04c-.122 2.395-1.29 4.02-3.38 4.7-.342.11-.67.165-.985.165M62.41 20.95l-.251-.731c.778-.27 2.903-1.192 3.38-2.236.081-.176.28-.261.463-.21.029.007 2.927.835 6.064-.852l.366.679c-2.853 1.535-5.474 1.175-6.347.988-.918 1.402-3.557 2.32-3.676 2.361M79.35 16.267c-1.248-1.995-4.042-2.904-4.603-3.071-.339.084-1.232.19-3.525.106-2.345-.094-4.062-.9-4.8-1.316-.317.515-1.088 1.384-2.911 2.777-1.366 1.046-2.01 1.22-2.079 1.237l-.178-.752.088.376-.095-.375c.007-.001.57-.162 1.794-1.098 2.614-2 2.817-2.746 2.824-2.779.004-.14.083-.246.21-.311.125-.067.276-.03.393.05.018.013 1.916 1.303 4.787 1.417 2.748.106 3.32-.083 3.344-.092.085-.04.155-.04.243-.016.146.04 3.613.96 5.162 3.436l-.655.41z"/>
        <path fill="#2C444A" d="M66.632 11.478l-.77-.102c.392-2.943-.751-4.644-.764-4.66l.633-.443c.056.079 1.33 1.944.9 5.205M74.983 13.099l-.475-.609c2.779-2.169 2.998-4.341 3-4.363l.77.063c-.007.101-.226 2.515-3.295 4.909M80.604 24.458c-.66-2.313 2.315-5.004 2.443-5.12l.515.579c-.027.023-2.745 2.48-2.216 4.33l-.742.21zM45.576 37.434c-.088 0-.174-.03-.244-.088-.096-.077-.15-.198-.14-.322 0-.02.114-2.094-.809-5.418-.826-2.974-2.408-9.927-2.873-11.986-.038-.173-.095-.34-.167-.503-.81-1.803-1.251-2.85-.904-3.398.12-.194.326-.304.576-.31.758-.036 12.235-3.196 14.919-4.258 2.552-1.007 3.414-1.946 3.423-1.955.096-.106.243-.155.384-.115.14.037.25.145.28.284.015.06 1.363 5.888 2.645 11.126l-.751.182c-1.037-4.236-2.117-8.858-2.5-10.507-.537.41-1.534 1.046-3.197 1.705-2.61 1.03-13.907 4.183-15.13 4.307-.033.41.582 1.786.96 2.623.096.214.168.432.216.65.465 2.053 2.042 8.992 2.862 11.946.695 2.502.825 4.304.843 5.146l15.89-4.296.193.748-.461.123-15.914 4.302c-.032.009-.066.014-.1.014"/>
        <path fill="#2C444A" d="M86.011 44.82c-.95-.66-1.913-1.333-2.85-1.989-3.22-2.248-6.26-4.375-7.325-4.94-2.057-1.088-11.158-3.993-16.594-5.73l-.628-.203c-6.111-1.952-9.936-3.66-10.118-6.119l.772-.057c.157 2.14 4.696 3.88 9.581 5.44l.629.203c5.814 1.856 14.603 4.662 16.72 5.783 1.109.589 4.026 2.628 7.405 4.99.938.653 1.899 1.326 2.85 1.987l-.442.635zM77.071 25.242c-.074 0-.15 0-.227-.002-3.218-.036-6.796-1.382-10.587-2.81-2.252-.844-4.581-1.72-6.828-2.298-6.377-1.64-7.38-.184-7.389-.17l-.657-.41c.292-.463 1.74-1.84 8.24-.17 2.287.59 4.636 1.471 6.906 2.326 3.724 1.4 7.243 2.726 10.326 2.76 4.776.029 6.126-1.642 6.138-1.658l.625.459c-.06.081-1.494 1.973-6.547 1.973"/>
        <path fill="#2C444A" d="M50.233 19.835c-.076 0-.14.005-.198.018-1.197.26-2.005.957-2.4 2.072-.588 1.657.836 3.234 1.874 3.839 1.323.776 3.746 1.77 4.311 1.984.283.104 1.213.286 2.103-.128.684-.322 1.186-.927 1.494-1.807.6-1.714-.638-3.676-1.512-4.043-.985-.416-3.5-1.375-3.917-1.521-.805-.276-1.392-.414-1.755-.414m4.467 8.814c-.496 0-.914-.09-1.15-.178-.675-.254-3.078-1.249-4.431-2.04-1.608-.937-2.882-2.876-2.213-4.766.339-.952 1.125-2.167 2.967-2.566.623-.14 1.59.154 2.361.419.438.151 2.95 1.107 3.973 1.539 1.265.536 2.67 2.93 1.939 5.013-.378 1.08-1.017 1.836-1.894 2.25-.533.248-1.078.33-1.552.33"/>
    </g>
</svg>
