<svg id="Capa_1" data-name="Capa 1" xmlns="http://www.w3.org/2000/svg" viewBox="0 0 100.37 95.74"><defs><style>.cls-1{fill:#2d4249;}.cls-2{fill:#2c444a;}</style></defs><g id="_02" data-name="02"><path class="cls-1" d="M4,45.72v0l.85,2.06L3.69,48l-1-2.59.14-1.29L14,45.27l-.16,1.47Z" transform="translate(-2.64 -2.73)"/><path class="cls-1" d="M11.53,32c3.64,1.22,5.2,3.24,4.42,5.61-.7,2.09-3.14,2.86-6.69,1.72S4.2,35.94,4.92,33.76,8.11,30.89,11.53,32ZM9.76,37.9c2.78.93,4.65.59,5.09-.72.49-1.49-1-2.77-3.74-3.68s-4.59-.78-5.09.72C5.59,35.48,6.83,36.92,9.76,37.9Z" transform="translate(-2.64 -2.73)"/><path class="cls-1" d="M20.21,28.17l-6-4.06-.66,1-1-.65.66-1-.33-.22A4,4,0,0,1,11,20.79a2.88,2.88,0,0,1,.5-2.14,3.59,3.59,0,0,1,.93-.94l.86.83a2.19,2.19,0,0,0-.7.7c-.73,1.08,0,2,1.09,2.72l.38.25,1.14-1.69,1,.66-1.14,1.68,6,4.07Z" transform="translate(-2.64 -2.73)"/><path class="cls-1" d="M19.11,20c-.73-.67-1.37-1.22-2-1.71l.9-1,1.25,1.07,0,0a2.53,2.53,0,0,1,.2-3,1.44,1.44,0,0,1,.34-.28l1.06,1a1.76,1.76,0,0,0-.39.35,2.14,2.14,0,0,0,.07,2.83,4.51,4.51,0,0,0,.48.53l3.3,3-1,1.12Z" transform="translate(-2.64 -2.73)"/><path class="cls-1" d="M25.61,16a2.69,2.69,0,0,0,4.06.55,5.59,5.59,0,0,0,1.58-1.76l.87.71a6.8,6.8,0,0,1-1.89,2.11,3.9,3.9,0,0,1-5.86-.83c-1.54-2-1.58-4.5.36-6,2.17-1.68,4.22-.21,5.16,1a4.35,4.35,0,0,1,.4.6Zm2.88-3.6a2.17,2.17,0,0,0-3.19-.67A2.53,2.53,0,0,0,25,15.15Z" transform="translate(-2.64 -2.73)"/><path class="cls-1" d="M33.7,10.49a2.7,2.7,0,0,0,3.86,1.4,5.28,5.28,0,0,0,1.91-1.4l.71.89a6.84,6.84,0,0,1-2.3,1.67A3.92,3.92,0,0,1,32.32,11c-1.09-2.29-.6-4.74,1.62-5.79,2.48-1.18,4.18.69,4.84,2.09A6.1,6.1,0,0,1,39,8Zm3.59-2.91a2.18,2.18,0,0,0-3-1.33,2.51,2.51,0,0,0-1,3.24Z" transform="translate(-2.64 -2.73)"/></g><path class="cls-1" d="M55.14,98.47A47.65,47.65,0,0,1,7.48,55.17,1.09,1.09,0,0,1,9.65,55,45.7,45.7,0,1,0,55.14,4.9,46.39,46.39,0,0,0,44.82,6.07a1.06,1.06,0,0,1-1.31-.81A1.09,1.09,0,0,1,44.32,4,47.87,47.87,0,1,1,55.14,98.47Z" transform="translate(-2.64 -2.73)"/><path class="cls-2" d="M27.61,41.52,40.33,22.38a.48.48,0,0,1,.87.3l0,52.66H38.42l0-44.24v-.69L30,43.08Z" transform="translate(-2.64 -2.73)"/><path class="cls-2" d="M76.79,57.47c.12-6.61-2.36-12.72-4.8-17.83a162.8,162.8,0,0,0-9.31-16.56,1.25,1.25,0,0,0-1.12-.56,1.69,1.69,0,0,0-1.11.61,123.86,123.86,0,0,0-9,14.59C48.56,43.5,47.06,49,47,53.92a25.6,25.6,0,0,0,.8,6.86A19.58,19.58,0,0,0,54.28,71.4,16.63,16.63,0,0,0,65.44,75c2.36,3.6,5.72,7,10,8a1,1,0,0,0,.35,0,1.19,1.19,0,0,0,.16-2.35c-2.94-.65-5.61-3-7.74-5.86A21.84,21.84,0,0,0,76.79,57.47ZM67,72.37A48,48,0,0,1,63.41,65a1.07,1.07,0,0,0-.06-.44c3.29-3.66,6.83-7.37,10.54-11a24.42,24.42,0,0,1,.28,4,19.55,19.55,0,0,1-6.88,14.79l-.23,0ZM58.91,40.65a60.4,60.4,0,0,1-1.37-8.56c1.33-2.12,2.71-4.18,3.92-6,.95,1.52,1.84,3,2.71,4.49A42,42,0,0,0,58.91,40.65ZM61.3,58.26a47.34,47.34,0,0,1-1.14-13.32,46.27,46.27,0,0,1,5.41-11.88c1.51,2.69,2.83,5.21,4,7.69q.66,1.36,1.29,2.82C67.85,48.42,64.63,53.35,61.3,58.26Zm.86,3.21c3.35-4.86,6.67-9.9,9.87-15a37.46,37.46,0,0,1,1.29,4.12c-3.77,3.7-7.46,7.53-11,11.4Zm-2.35,1.35A64.39,64.39,0,0,1,49.92,58a24.35,24.35,0,0,1-.31-4.14A30.27,30.27,0,0,1,51,45.77a27.31,27.31,0,0,0,6.86,9l.16.11A50.35,50.35,0,0,0,59.81,62.82Zm1.11,3.12c.56,1.44,1.22,2.85,1.92,4.24.32.74.7,1.52,1.13,2.33a14.16,14.16,0,0,1-7.93-3,16.75,16.75,0,0,1-5.33-8.11A66.7,66.7,0,0,0,60.92,65.94ZM52.24,42.15c.46-1.15,1-2.31,1.56-3.46.43-.88.93-1.8,1.52-2.85a49.12,49.12,0,0,0,2.2,9.46,48.89,48.89,0,0,0,0,5.55,24.75,24.75,0,0,1-5.1-8.32A1.11,1.11,0,0,0,52.24,42.15Z" transform="translate(-2.64 -2.73)"/></svg>