<?xml version="1.0" encoding="UTF-8"?>
<svg width="98px" height="98px" viewBox="0 0 98 98" version="1.1" xmlns="http://www.w3.org/2000/svg" xmlns:xlink="http://www.w3.org/1999/xlink">
    <!-- Generator: Sketch 59.1 (86144) - https://sketch.com -->
    <title>100%HPG Copy</title>
    <desc>Created with Sketch.</desc>
    <g id="Page-1" stroke="none" stroke-width="1" fill="none" fill-rule="evenodd">
        <g id="GALLERY-Copy-3" transform="translate(-201.000000, -242.000000)" fill="#F7BFA0" fill-rule="nonzero">
            <g id="100%HPG-Copy" transform="translate(250.000000, 291.000000) rotate(-18.000000) translate(-250.000000, -291.000000) translate(201.000000, 242.000000)">
                <path d="M42.13,36.55 C41.48,35.25 40.73,33.89 39.9,32.51 C39.41,31.7 38.89,30.94 38.34,30.13 L38.29,30.05 C38.07,29.73 37.85,29.41 37.63,29.07 L36.45,27.3 L34.88,29.65 C34.66,29.98 34.45,30.29 34.24,30.62 C32.84,32.8 31.6,34.79 30.69,37.07 C30.33,37.96 29.96,39.03 29.94,40.13 C29.87,43.8 32.7,46.91 36.25,47.06 C36.34,47.06 36.43,47.07 36.52,47.07 C36.54,47.07 36.56,47.07 36.59,47.07 C40.01,47.04 42.83,44.31 43.14,40.74 C43.27,39.1 42.73,37.75 42.13,36.55 Z M42.01,40.63 C41.94,41.5 41.68,42.32 41.26,43.07 C36.46,40.85 33.25,36.34 32.84,35.14 C33.56,33.79 34.39,32.47 35.19,31.23 C35.39,30.92 35.59,30.62 35.84,30.25 L36.44,29.34 L36.68,29.7 C36.92,30.07 37.16,30.42 37.42,30.79 C37.95,31.57 38.45,32.3 38.93,33.09 C39.74,34.44 40.48,35.77 41.12,37.06 C41.65,38.11 42.12,39.28 42.01,40.63 Z M40.6,44.01 C39.5,45.3 37.94,45.99 36.3,45.93 C33.36,45.81 31.01,43.21 31.07,40.15 C31.09,39.23 31.42,38.29 31.74,37.49 C31.88,37.15 32.03,36.8 32.22,36.39 C33.32,38.3 36.24,41.93 40.6,44.01 Z" id="Shape"></path>
                <path d="M66.16,36.55 C65.51,35.25 64.76,33.89 63.93,32.51 C63.44,31.7 62.92,30.94 62.37,30.13 L62.32,30.05 C62.1,29.73 61.88,29.41 61.66,29.07 L60.48,27.3 L58.91,29.65 C58.69,29.98 58.48,30.29 58.27,30.62 C56.87,32.8 55.63,34.79 54.72,37.07 C54.36,37.96 53.99,39.03 53.97,40.13 C53.9,43.8 56.73,46.91 60.28,47.06 C60.37,47.06 60.46,47.07 60.55,47.07 C60.57,47.07 60.59,47.07 60.62,47.07 C64.04,47.04 66.86,44.31 67.17,40.74 C67.31,39.1 66.77,37.75 66.16,36.55 Z M66.04,40.63 C65.97,41.5 65.71,42.32 65.29,43.07 C60.49,40.85 57.28,36.34 56.87,35.14 C57.59,33.79 58.42,32.47 59.22,31.23 C59.42,30.92 59.62,30.62 59.87,30.25 L60.47,29.34 L60.71,29.7 C60.95,30.07 61.19,30.42 61.45,30.79 C61.98,31.57 62.48,32.3 62.96,33.09 C63.77,34.44 64.51,35.77 65.15,37.06 C65.68,38.11 66.16,39.28 66.04,40.63 Z M64.64,44.01 C63.54,45.3 61.98,45.99 60.34,45.93 C57.4,45.81 55.05,43.21 55.11,40.15 C55.13,39.23 55.46,38.29 55.78,37.49 C55.92,37.15 56.07,36.8 56.26,36.39 C57.36,38.3 60.27,41.93 64.64,44.01 Z" id="Shape"></path>
                <g id="Group">
                    <polygon id="Path" points="10.65 49.1 10.68 50.11 2.03 50.34 3.65 52.08 2.91 52.73 0.77 50.27 0.75 49.37"></polygon>
                    <path d="M1.67,38.79 C1.82,38.1 2.1,37.57 2.51,37.21 C2.92,36.85 3.4,36.61 3.94,36.47 C4.48,36.33 5.06,36.3 5.66,36.34 C6.27,36.38 6.84,36.47 7.38,36.58 C7.92,36.69 8.47,36.86 9.04,37.07 C9.61,37.28 10.12,37.56 10.56,37.9 C11,38.24 11.34,38.66 11.56,39.16 C11.79,39.66 11.82,40.25 11.68,40.95 C11.53,41.64 11.25,42.17 10.84,42.53 C10.43,42.89 9.95,43.13 9.41,43.27 C8.87,43.41 8.29,43.44 7.68,43.4 C7.07,43.36 6.5,43.27 5.96,43.16 C5.42,43.04 4.87,42.88 4.3,42.67 C3.73,42.46 3.22,42.18 2.78,41.84 C2.34,41.5 2,41.08 1.78,40.58 C1.56,40.08 1.52,39.49 1.67,38.79 Z M2.57,38.99 C2.45,39.52 2.51,39.97 2.72,40.33 C2.93,40.69 3.24,41 3.62,41.25 C4.01,41.5 4.43,41.69 4.9,41.83 C5.37,41.97 5.79,42.09 6.17,42.17 C6.55,42.25 6.99,42.33 7.47,42.39 C7.95,42.45 8.42,42.45 8.88,42.39 C9.34,42.33 9.73,42.17 10.08,41.93 C10.43,41.69 10.66,41.3 10.77,40.77 C10.88,40.24 10.83,39.79 10.62,39.43 C10.41,39.07 10.1,38.76 9.72,38.51 C9.33,38.26 8.91,38.07 8.44,37.93 C7.97,37.79 7.55,37.67 7.17,37.59 C6.79,37.51 6.35,37.44 5.87,37.37 C5.39,37.3 4.92,37.31 4.47,37.37 C4.02,37.43 3.62,37.59 3.27,37.83 C2.92,38.07 2.69,38.46 2.57,38.99 Z" id="Shape"></path>
                    <path d="M5.48,27.82 C5.79,27.18 6.19,26.74 6.68,26.49 C7.17,26.24 7.69,26.12 8.25,26.12 C8.81,26.12 9.38,26.22 9.96,26.41 C10.54,26.6 11.07,26.81 11.57,27.06 C12.06,27.3 12.56,27.59 13.07,27.93 C13.57,28.27 14,28.66 14.35,29.1 C14.7,29.54 14.92,30.03 15.02,30.57 C15.12,31.11 15.02,31.69 14.7,32.33 C14.39,32.97 13.99,33.41 13.5,33.66 C13.01,33.91 12.49,34.03 11.93,34.03 C11.37,34.03 10.8,33.93 10.22,33.74 C9.64,33.55 9.11,33.34 8.61,33.09 C8.12,32.85 7.62,32.56 7.11,32.22 C6.61,31.88 6.18,31.49 5.84,31.05 C5.5,30.61 5.27,30.12 5.17,29.58 C5.06,29.04 5.16,28.46 5.48,27.82 Z M6.31,28.23 C6.07,28.72 6.02,29.16 6.14,29.57 C6.26,29.98 6.48,30.35 6.8,30.68 C7.12,31.01 7.48,31.3 7.9,31.55 C8.32,31.8 8.7,32.01 9.05,32.19 C9.4,32.36 9.8,32.54 10.26,32.71 C10.71,32.89 11.17,33 11.62,33.04 C12.08,33.09 12.5,33.03 12.9,32.88 C13.3,32.73 13.61,32.41 13.85,31.92 C14.09,31.43 14.15,30.99 14.02,30.58 C13.89,30.17 13.68,29.8 13.36,29.47 C13.04,29.14 12.68,28.85 12.26,28.6 C11.84,28.35 11.46,28.14 11.11,27.96 C10.76,27.79 10.36,27.61 9.9,27.44 C9.45,27.26 8.99,27.15 8.54,27.11 C8.08,27.06 7.66,27.12 7.26,27.27 C6.86,27.42 6.54,27.74 6.31,28.23 Z" id="Shape"></path>
                    <path d="M14.88,18.27 C15.13,18.5 15.33,18.77 15.46,19.06 C15.59,19.36 15.67,19.66 15.68,19.97 C15.69,20.28 15.64,20.59 15.53,20.9 C15.42,21.21 15.25,21.48 15.02,21.74 C14.79,21.99 14.52,22.19 14.23,22.32 C13.94,22.45 13.63,22.53 13.32,22.55 C13.01,22.57 12.7,22.52 12.39,22.41 C12.09,22.3 11.81,22.13 11.55,21.89 C11.3,21.66 11.1,21.39 10.97,21.1 C10.84,20.81 10.76,20.5 10.75,20.19 C10.74,19.88 10.79,19.57 10.9,19.26 C11.01,18.95 11.18,18.68 11.41,18.42 C11.64,18.17 11.91,17.97 12.2,17.84 C12.49,17.71 12.8,17.63 13.11,17.61 C13.42,17.59 13.73,17.64 14.04,17.75 C14.34,17.86 14.62,18.03 14.88,18.27 Z M14.31,18.89 C14.14,18.73 13.95,18.62 13.75,18.55 C13.54,18.48 13.34,18.45 13.14,18.46 C12.94,18.47 12.74,18.52 12.55,18.61 C12.36,18.7 12.19,18.83 12.04,18.99 C11.89,19.15 11.78,19.34 11.7,19.53 C11.63,19.73 11.59,19.93 11.6,20.13 C11.61,20.33 11.65,20.54 11.74,20.73 C11.82,20.93 11.95,21.11 12.12,21.26 C12.29,21.42 12.48,21.53 12.68,21.6 C12.88,21.67 13.09,21.7 13.29,21.69 C13.49,21.68 13.69,21.63 13.88,21.54 C14.07,21.45 14.24,21.32 14.39,21.16 C14.54,20.99 14.65,20.81 14.73,20.62 C14.81,20.43 14.84,20.22 14.83,20.02 C14.82,19.82 14.78,19.61 14.69,19.42 C14.61,19.22 14.48,19.04 14.31,18.89 Z M19.17,25.51 L18.4,25.79 L15.02,14.1 L15.78,13.83 L19.17,25.51 Z M22.65,17.72 C22.9,17.95 23.1,18.22 23.23,18.51 C23.36,18.8 23.44,19.11 23.45,19.42 C23.46,19.73 23.41,20.04 23.3,20.35 C23.19,20.66 23.02,20.93 22.79,21.19 C22.56,21.44 22.29,21.64 22,21.77 C21.71,21.9 21.4,21.98 21.09,22 C20.78,22.02 20.47,21.97 20.16,21.86 C19.85,21.75 19.58,21.58 19.32,21.35 C19.07,21.12 18.87,20.85 18.74,20.56 C18.61,20.27 18.53,19.96 18.52,19.65 C18.51,19.34 18.56,19.03 18.67,18.72 C18.78,18.41 18.95,18.14 19.18,17.88 C19.41,17.63 19.68,17.43 19.97,17.3 C20.26,17.17 20.57,17.09 20.88,17.07 C21.19,17.05 21.5,17.1 21.81,17.21 C22.12,17.31 22.4,17.48 22.65,17.72 Z M22.08,18.33 C21.91,18.17 21.72,18.06 21.52,17.99 C21.32,17.92 21.11,17.89 20.91,17.9 C20.71,17.91 20.51,17.96 20.32,18.05 C20.13,18.14 19.96,18.27 19.81,18.43 C19.66,18.6 19.55,18.78 19.47,18.97 C19.4,19.17 19.36,19.37 19.37,19.57 C19.38,19.77 19.42,19.98 19.51,20.17 C19.59,20.37 19.72,20.55 19.89,20.7 C20.06,20.86 20.25,20.97 20.45,21.04 C20.66,21.11 20.86,21.14 21.06,21.13 C21.27,21.12 21.46,21.07 21.65,20.98 C21.84,20.89 22.01,20.76 22.16,20.6 C22.31,20.44 22.42,20.25 22.5,20.06 C22.57,19.86 22.61,19.66 22.6,19.46 C22.59,19.26 22.55,19.05 22.46,18.86 C22.38,18.67 22.26,18.49 22.08,18.33 Z" id="Shape"></path>
                    <polygon id="Path" points="28.21 5.39 29.15 5.03 30.69 9.04 35.74 7.11 34.2 3.1 35.14 2.74 38.68 12 37.74 12.36 36.06 7.98 31.01 9.91 32.69 14.29 31.75 14.65"></polygon>
                    <path d="M42.45,11.17 L41.28,11.26 L44.86,1.06 L45.84,0.99 L50.86,10.56 L49.69,10.65 L48.41,8.13 L43.36,8.5 L42.45,11.17 Z M43.66,7.55 L47.95,7.24 L45.44,2.2 L43.66,7.55 Z" id="Shape"></path>
                    <path d="M55.48,1.27 L58.31,1.82 C59.3,2.01 60.04,2.38 60.53,2.92 C61.02,3.46 61.18,4.17 61.01,5.04 C60.84,5.91 60.43,6.51 59.77,6.83 C59.11,7.15 58.29,7.22 57.3,7.03 L55.46,6.67 L54.58,11.19 L53.59,11 L55.48,1.27 Z M55.63,5.76 L57.22,6.07 C57.66,6.16 58.04,6.18 58.37,6.15 C58.69,6.12 58.96,6.04 59.18,5.93 C59.4,5.82 59.56,5.66 59.68,5.47 C59.8,5.28 59.89,5.07 59.93,4.83 C59.97,4.6 59.97,4.37 59.93,4.15 C59.89,3.93 59.79,3.72 59.64,3.53 C59.49,3.34 59.26,3.17 58.97,3.02 C58.68,2.87 58.31,2.76 57.88,2.67 L56.29,2.36 L55.63,5.76 Z" id="Shape"></path>
                    <path d="M66.95,4.32 L69.56,5.55 C70.47,5.98 71.1,6.52 71.44,7.16 C71.78,7.81 71.76,8.53 71.39,9.33 C71.02,10.13 70.47,10.61 69.75,10.76 C69.03,10.91 68.22,10.77 67.31,10.34 L65.61,9.54 L63.65,13.71 L62.74,13.28 L66.95,4.32 Z M65.99,8.71 L67.46,9.4 C67.87,9.59 68.23,9.71 68.55,9.76 C68.87,9.81 69.15,9.8 69.39,9.74 C69.62,9.68 69.82,9.57 69.99,9.42 C70.16,9.27 70.29,9.08 70.39,8.86 C70.49,8.65 70.55,8.43 70.56,8.2 C70.57,7.97 70.53,7.75 70.43,7.53 C70.33,7.31 70.16,7.09 69.91,6.88 C69.66,6.67 69.34,6.46 68.93,6.27 L67.46,5.58 L65.99,8.71 Z" id="Shape"></path>
                    <polygon id="Path" points="71.91 18.51 71.1 17.91 76.97 9.92 77.78 10.52"></polygon>
                    <polygon id="Path" points="81.05 25.49 81.07 25.51 87.44 20.04 88.1 20.8 80.58 27.26 79.76 26.3 82.35 16.29 82.33 16.27 75.89 21.8 75.23 21.03 82.75 14.57 83.57 15.53"></polygon>
                    <polygon id="Path" points="83.85 31.31 86.03 36.15 85.19 36.53 82.59 30.77 91.63 26.69 94.16 32.29 93.32 32.67 91.21 27.99 88.13 29.38 90.1 33.76 89.26 34.14 87.28 29.76"></polygon>
                    <path d="M95.05,42.99 C95.61,42.45 95.81,41.76 95.67,40.93 C95.62,40.67 95.55,40.43 95.43,40.19 C95.32,39.95 95.17,39.75 94.99,39.58 C94.81,39.41 94.6,39.28 94.36,39.2 C94.11,39.12 93.84,39.11 93.53,39.16 C93.09,39.24 92.77,39.42 92.57,39.71 C92.37,40 92.23,40.34 92.13,40.74 C92.04,41.14 91.97,41.56 91.92,42.02 C91.87,42.48 91.78,42.91 91.64,43.31 C91.5,43.71 91.28,44.07 90.98,44.38 C90.68,44.69 90.24,44.89 89.65,45 C89.21,45.08 88.79,45.05 88.41,44.93 C88.02,44.8 87.68,44.61 87.39,44.34 C87.1,44.07 86.85,43.76 86.66,43.4 C86.46,43.04 86.33,42.67 86.26,42.28 C86.15,41.68 86.17,41.09 86.3,40.52 C86.43,39.94 86.72,39.42 87.17,38.95 L87.98,39.74 C87.66,40.01 87.42,40.36 87.27,40.77 C87.12,41.18 87.09,41.65 87.18,42.16 C87.22,42.41 87.31,42.65 87.43,42.88 C87.55,43.11 87.71,43.32 87.89,43.49 C88.08,43.66 88.29,43.79 88.53,43.88 C88.77,43.97 89.04,43.99 89.32,43.94 C89.66,43.88 89.93,43.76 90.13,43.58 C90.33,43.4 90.48,43.18 90.59,42.91 C90.7,42.64 90.78,42.36 90.83,42.04 C90.88,41.72 90.92,41.4 90.97,41.06 C91.02,40.72 91.08,40.4 91.15,40.08 C91.23,39.76 91.34,39.46 91.5,39.19 C91.66,38.92 91.87,38.69 92.14,38.49 C92.41,38.29 92.77,38.16 93.23,38.08 C93.7,38 94.12,38.01 94.5,38.13 C94.88,38.25 95.21,38.44 95.5,38.69 C95.78,38.95 96.01,39.26 96.19,39.61 C96.37,39.97 96.49,40.34 96.56,40.74 C96.66,41.29 96.66,41.81 96.56,42.29 C96.47,42.77 96.23,43.24 95.86,43.71 L95.05,42.99 Z" id="Path"></path>
                    <path d="M95.16,54.19 C95.83,53.79 96.19,53.18 96.25,52.34 C96.27,52.08 96.25,51.82 96.19,51.56 C96.13,51.3 96.04,51.07 95.91,50.86 C95.78,50.65 95.6,50.48 95.38,50.34 C95.16,50.2 94.9,50.13 94.59,50.11 C94.14,50.08 93.79,50.18 93.52,50.42 C93.26,50.66 93.03,50.95 92.85,51.32 C92.67,51.69 92.5,52.08 92.35,52.51 C92.2,52.94 92,53.34 91.77,53.7 C91.54,54.06 91.24,54.35 90.88,54.58 C90.52,54.81 90.04,54.9 89.45,54.87 C89,54.84 88.61,54.72 88.26,54.51 C87.91,54.3 87.63,54.03 87.41,53.7 C87.19,53.37 87.02,53.01 86.92,52.62 C86.82,52.23 86.77,51.83 86.8,51.44 C86.84,50.83 86.99,50.27 87.25,49.74 C87.51,49.21 87.92,48.77 88.46,48.42 L89.06,49.38 C88.68,49.57 88.37,49.85 88.13,50.22 C87.89,50.59 87.75,51.03 87.71,51.55 C87.69,51.8 87.72,52.05 87.78,52.31 C87.84,52.57 87.95,52.8 88.09,53.01 C88.23,53.22 88.41,53.4 88.62,53.54 C88.83,53.68 89.09,53.77 89.38,53.78 C89.72,53.8 90.02,53.75 90.25,53.62 C90.48,53.49 90.69,53.31 90.86,53.08 C91.03,52.85 91.17,52.59 91.3,52.29 C91.43,51.99 91.54,51.69 91.67,51.37 C91.79,51.06 91.93,50.75 92.08,50.46 C92.23,50.17 92.41,49.91 92.63,49.68 C92.84,49.46 93.11,49.28 93.42,49.16 C93.73,49.04 94.12,48.99 94.57,49.02 C95.05,49.05 95.45,49.17 95.8,49.37 C96.14,49.57 96.42,49.84 96.63,50.15 C96.84,50.47 96.99,50.82 97.08,51.21 C97.17,51.6 97.2,51.99 97.17,52.39 C97.13,52.95 97.01,53.45 96.81,53.9 C96.6,54.34 96.26,54.75 95.79,55.11 L95.16,54.19 Z" id="Path"></path>
                </g>
                <g id="Group" transform="translate(6.000000, 64.000000)">
                    <path d="M9.49,8.02 C9.63,7.55 9.67,7.06 9.61,6.56 C9.55,6.05 9.37,5.53 9.06,5 C8.74,4.45 8.36,4.02 7.9,3.7 C7.45,3.38 6.96,3.17 6.45,3.06 C5.94,2.95 5.41,2.95 4.87,3.05 C4.33,3.15 3.81,3.34 3.32,3.62 C2.83,3.91 2.4,4.26 2.05,4.68 C1.7,5.1 1.44,5.56 1.27,6.06 C1.11,6.56 1.05,7.09 1.1,7.64 C1.15,8.19 1.33,8.74 1.65,9.29 C1.91,9.73 2.21,10.13 2.55,10.47 C2.9,10.81 3.25,11.09 3.63,11.31 L6.5,9.65 L5.32,7.6 L6.12,7.14 L7.81,10.06 L3.6,12.49 C3.04,12.17 2.51,11.76 2.03,11.27 C1.55,10.78 1.15,10.27 0.85,9.75 C0.48,9.11 0.25,8.45 0.16,7.78 C0.07,7.1 0.11,6.45 0.28,5.82 C0.45,5.19 0.74,4.6 1.16,4.06 C1.58,3.52 2.12,3.05 2.77,2.68 C3.42,2.3 4.09,2.07 4.77,1.97 C5.45,1.88 6.11,1.92 6.74,2.09 C7.37,2.26 7.96,2.55 8.5,2.96 C9.04,3.37 9.5,3.9 9.87,4.54 C10.27,5.23 10.51,5.87 10.61,6.48 C10.71,7.09 10.67,7.7 10.51,8.31 L9.49,8.02 Z" id="Path"></path>
                    <path d="M14.71,20.05 C14.43,20.35 14.09,20.63 13.7,20.9 C13.31,21.17 12.88,21.35 12.42,21.45 C11.95,21.55 11.46,21.53 10.94,21.39 C10.42,21.25 9.9,20.93 9.36,20.42 C8.82,19.91 8.47,19.4 8.3,18.89 C8.13,18.38 8.09,17.89 8.17,17.42 C8.25,16.95 8.4,16.51 8.65,16.11 C8.9,15.71 9.16,15.36 9.44,15.06 L13.72,10.55 L14.45,11.24 L10.25,15.67 C9.92,16.02 9.67,16.34 9.51,16.66 C9.34,16.97 9.24,17.26 9.19,17.54 C9.14,17.82 9.14,18.07 9.19,18.3 C9.24,18.53 9.3,18.74 9.39,18.92 C9.48,19.11 9.58,19.27 9.69,19.41 C9.8,19.55 9.91,19.66 10,19.75 C10.09,19.83 10.21,19.93 10.35,20.04 C10.5,20.15 10.67,20.24 10.86,20.32 C11.05,20.4 11.26,20.45 11.49,20.49 C11.72,20.52 11.97,20.51 12.25,20.44 C12.52,20.38 12.81,20.25 13.11,20.07 C13.41,19.89 13.73,19.62 14.05,19.28 L18.25,14.85 L18.98,15.54 L14.71,20.05 Z" id="Path"></path>
                    <path d="M17.08,26.26 L16.04,25.71 L24.48,18.96 L25.35,19.42 L24.54,30.2 L23.5,29.65 L23.75,26.84 L19.27,24.47 L17.08,26.26 Z M20.03,23.83 L23.83,25.84 L24.37,20.23 L20.03,23.83 Z" id="Shape"></path>
                    <path d="M30.29,31.91 L29.31,31.69 L31.52,22.03 L34.49,22.71 C35.47,22.93 36.2,23.33 36.67,23.88 C37.14,24.43 37.28,25.15 37.08,26.01 C36.93,26.68 36.58,27.2 36.06,27.56 C35.53,27.92 34.86,28.05 34.04,27.94 L35.78,33.16 L34.58,32.89 L32.96,27.79 L31.32,27.42 L30.29,31.91 Z M31.52,26.52 L33.27,26.92 C33.71,27.02 34.09,27.06 34.41,27.04 C34.74,27.02 35.01,26.95 35.22,26.85 C35.44,26.74 35.61,26.59 35.74,26.41 C35.87,26.23 35.96,26.01 36.01,25.78 C36.06,25.55 36.07,25.33 36.04,25.1 C36,24.88 35.91,24.67 35.77,24.47 C35.62,24.27 35.41,24.1 35.12,23.94 C34.83,23.78 34.47,23.66 34.04,23.56 L32.29,23.16 L31.52,26.52 Z" id="Shape"></path>
                    <path d="M40.83,33.62 L39.65,33.66 L43.65,23.62 L44.63,23.59 L49.25,33.36 L48.07,33.4 L46.9,30.83 L41.83,30.99 L40.83,33.62 Z M42.19,30.05 L46.49,29.91 L44.18,24.77 L42.19,30.05 Z" id="Shape"></path>
                    <polygon id="Path" points="60.66 28.65 60.69 28.64 58.03 20.67 58.99 20.35 62.12 29.75 60.92 30.15 52.63 23.97 52.6 23.98 55.28 32.03 54.32 32.35 51.19 22.95 52.39 22.55"></polygon>
                    <polygon id="Path" points="70.39 24.99 69.55 25.55 64.52 18.1 61.77 19.96 61.25 19.19 67.59 14.92 68.11 15.69 65.36 17.55"></polygon>
                    <polygon id="Path" points="76.87 18.38 80.44 14.46 81.12 15.08 76.87 19.75 69.54 13.08 73.68 8.54 74.36 9.16 70.9 12.96 73.4 15.23 76.63 11.68 77.31 12.3 74.08 15.85"></polygon>
                    <polygon id="Path" points="83.9 9.23 86.43 4.56 87.24 5 84.23 10.55 75.51 5.83 78.43 0.42 79.24 0.86 76.79 5.38 79.76 6.99 82.05 2.77 82.86 3.21 80.57 7.43"></polygon>
                </g>
                <path d="M48.89,72.93 C36.85,72.93 27.06,63.14 27.06,51.1 L28.06,51.1 C28.06,62.59 37.4,71.93 48.89,71.93 C60.38,71.93 69.72,62.59 69.72,51.1 L70.72,51.1 C70.72,63.13 60.92,72.93 48.89,72.93 Z" id="Path"></path>
            </g>
        </g>
    </g>
</svg>