<svg xmlns="http://www.w3.org/2000/svg" xmlns:xlink="http://www.w3.org/1999/xlink" width="24" height="39" viewBox="0 0 24 39">
    <defs>
        <path id="8jsia2k40a" d="M.824 21.297c0 9.15 1.508 17.202 11.292 17.202 9.784 0 11.059-10.47 11.059-17.202C23.175 14.563 19.436.501 12 .501 4.564.501.824 12.147.824 21.297z"/>
    </defs>
    <g fill="none" fill-rule="evenodd">
        <path fill="#F3EBE6" d="M12 .501C4.564.501.824 12.147.824 21.297c0 9.149 1.508 17.202 11.292 17.202 9.784 0 11.06-10.47 11.06-17.202C23.176 14.564 19.436.501 12 .501"/>
        <mask id="ktyabx8rxb" fill="#fff">
            <use xlink:href="#8jsia2k40a"/>
        </mask>
        <path fill="#F3EBE6" d="M-5.435 44.088L29.211 44.088 29.211 -5.088 -5.435 -5.088z" mask="url(#ktyabx8rxb)"/>
        <path fill="#F3EBE6" d="M0.153 38.499L23.623 38.499 23.623 0.501 0.153 0.501z" mask="url(#ktyabx8rxb)"/>
        <path fill="#F3EBE6" d="M-4.765 44.088L28.764 44.088 28.764 -5.088 -4.765 -5.088z" mask="url(#ktyabx8rxb)"/>
        <path fill="#2C4349" d="M8.63 20.402c.146-.026.293-.037.44-.03.634.027 1.267.416 1.48 1.013.263.74-.137 1.527-.336 2.286-.356 1.354.064 2.357.585 3.562.609 1.41.073 1.072-1.104 1.656-1.051.524-.794.283-1.405 1.342-.578 1.005-3.705-1.376-4.982-.937-1.928.663-2.983 3.212-5.02 3.282-.298.011-.606-.042-.852-.21-.577-.395-.597-1.225-.55-1.922.093-1.389.262-2.903 1.248-3.886.62-.616 1.476-.927 2.172-1.456 1.207-.92 1.96-2.509 3.418-2.928 1.025-.293 2.01-.183 3.014-.59.706-.288 1.039-1.03 1.892-1.182M17.249 23.767c-.411.329-.77.768-1.087 1.185-.303.398-.61.805-.771 1.279-.124.365-.157.754-.187 1.139-.092 1.14-.428 2.526-.212 3.656.164.859.907 1.522 1.003 2.462.112 1.096-.47 2.46-.54 3.586-.194 3.174.958 5.235 4.682 3.679 1.485-.62 2.674-1.781 3.745-2.983 1.492-1.675 2.898-3.664 2.883-5.907-.01-1.457-.628-2.878-.502-4.328.172-1.978 1.707-3.824 1.225-5.75-.271-1.082-1.223-1.962-2.325-2.146-3.004-.502-3.276 3.528-5.643 3.676-.298.018-.592-.07-.89-.078-.52-.014-.976.205-1.381.53M17.522 11.845c-.204-.2-.43-.375-.676-.52-.34-.201-.812-.33-1.099-.058-.137.13-.195.32-.234.504-.326 1.514.501 2.879.072 4.403-.275.977-1.288 1.713-1.399 2.673-.05.44.171.937.591 1.077.52.173 1.04-.234 1.437-.611.461-.437.948-.918 1.056-1.544.053-.306.014-.637.163-.91.206-.374.68-.487 1.086-.624.406-.138.855-.441.814-.868-.027-.27-.244-.474-.398-.698-.302-.438-.374-.988-.554-1.488-.18-.503-.478-.962-.859-1.336M11.328 7.847c.217.449.49.89.534 1.402.106 1.237-.394 2.31-1.006 3.369-1.03 1.784-2.886 1.478-4.107 2.677-.816.802-1.252 1.878-2.438 1.996-1.264.125-2.706-.907-2.738-2.228-.02-.855.452-1.68.347-2.53-.083-.666-.51-1.234-.779-1.852-.637-1.471-.292-3.313.835-4.454 1.09-1.103 2.765-1.536 3.715-2.763C6.531 2.38 6.705.792 7.816-.01c.898-.65 2.201-.544 3.117.078 1.405.952 2.585 3.215 1.474 4.723-.322.439-.812.74-1.091 1.208-.434.73-.254 1.296.012 1.848M9.872 33.037c-.562.542-1.13 1.27-.91 2.076.06.22.18.45.396.52.092.03.19.026.287.022.638-.026.993-.019 1.384-.569.314-.44.466-.992.576-1.515.039-.186.079-.383.026-.566-.196-.68-1.25-.46-1.76.032" mask="url(#ktyabx8rxb)"/>
    </g>
</svg>
