<svg xmlns="http://www.w3.org/2000/svg" width="289.075" height="472.348" viewBox="0 0 289.075 472.348">
  <g id="Group_11641" data-name="Group 11641" transform="translate(-47 -1719.752)">
    <g id="hand-icon" transform="translate(-31.656 1658.252)">
      <g id="Group_11588" data-name="Group 11588" transform="translate(278.494 71.674)">
        <g id="Group_11587" data-name="Group 11587" transform="translate(0 0)">
          <path id="Path_232" data-name="Path 232" d="M328.637,113.689a.083.083,0,0,0-.085-.085c0-.085-.085-.085-.085-.17v.254c-1.441-.085-6.868-.763-10.259-4.578-2.374-2.713-3.391-6.359-2.883-11.022,0-.085,1.441-8.648,12.888-23.486v-.085a5.4,5.4,0,0,0,.17-.594c-.085-.085-.085-.17-.17-.17-.085-.085-.085-.17-.17-.254C315.919,88.931,314.562,97.579,314.477,98c-.509,4.833.509,8.733,3.052,11.616,3.815,4.239,9.581,4.748,10.938,4.833A5.4,5.4,0,0,1,328.637,113.689Z" transform="translate(-314.35 -73.5)" fill="#f7bfa0"/>
        </g>
      </g>
      <g id="Group_11590" data-name="Group 11590" transform="translate(278.578 122.97)">
        <g id="Group_11589" data-name="Group 11589" transform="translate(0 0)">
          <path id="Path_233" data-name="Path 233" d="M328.482,174.783c-1.441-.085-6.868-.678-10.259-4.578-2.374-2.713-3.391-6.359-2.883-11.022,0-.085,1.441-8.648,12.972-23.571l.339-.424c.085-.254-.085.085.17-.085a2.5,2.5,0,0,1-.17-1.1l-.254.339c-12.294,15.6-13.735,24.419-13.82,24.843-.509,4.833.509,8.733,3.052,11.616,3.815,4.239,9.666,4.748,10.938,4.833a2,2,0,0,1,.17-.678,1.855,1.855,0,0,0-.254-.424Z" transform="translate(-314.45 -134)" fill="#f7bfa0"/>
        </g>
      </g>
      <g id="Group_11592" data-name="Group 11592" transform="translate(278.663 174.436)">
        <g id="Group_11591" data-name="Group 11591">
          <path id="Path_234" data-name="Path 234" d="M328.243,235.991c-1.781-.17-6.783-.933-9.92-4.494-2.374-2.713-3.391-6.359-2.883-11.022,0-.085,1.357-8.648,12.972-23.571l.17-.254c.17-.254.254-.17.594-.339V194.7l-.678.848c-12.294,15.6-13.736,24.419-13.82,24.843-.509,4.833.509,8.733,3.052,11.616,3.476,3.9,8.648,4.663,10.514,4.748Q328.243,236.373,328.243,235.991Z" transform="translate(-314.55 -194.7)" fill="#f7bfa0"/>
        </g>
      </g>
      <g id="Group_11593" data-name="Group 11593" transform="translate(101.416 61.5)">
        <path id="Path_235" data-name="Path 235" d="M282.62,226.241H120.253A14.764,14.764,0,0,1,105.5,211.488V76.253A14.764,14.764,0,0,1,120.253,61.5H282.7a14.764,14.764,0,0,1,14.753,14.753v135.32A14.819,14.819,0,0,1,282.62,226.241ZM120.253,62.263a13.913,13.913,0,0,0-13.905,13.905V211.4a13.913,13.913,0,0,0,13.905,13.905H282.7a14.041,14.041,0,0,0,13.99-13.905V76.253a13.913,13.913,0,0,0-13.905-13.905H120.253Z" transform="translate(-105.5 -61.5)" fill="#f7bfa0"/>
      </g>
      <g id="Group_11599" data-name="Group 11599" transform="translate(116.029 172.905)">
        <g id="Group_11594" data-name="Group 11594" transform="translate(126.297 8.393)">
          <path id="Path_236" data-name="Path 236" d="M281.789,237.222h-.424c-5.342-.254-9.327-4.918-9.411-8.987,0-2.374-.085-7.207-.17-10.344,0-1.441-.085-2.544-.085-3.052-.085-3.137.848-7.376,3.391-9.92a7.4,7.4,0,0,1,5.511-2.12c5.766.17,10,5.257,10.174,12.294.085,4.494.085,8.987,0,11.446-.085,1.865-.848,6.189-3.561,8.648A7.786,7.786,0,0,1,281.789,237.222Zm-1.357-33.66a6.6,6.6,0,0,0-4.663,1.865c-2.374,2.374-3.222,6.359-3.137,9.327,0,.424,0,1.526.085,2.968.085,3.222.17,7.97.17,10.429,0,3.646,3.731,7.97,8.563,8.14h0a7.029,7.029,0,0,0,5.342-1.865c2.544-2.374,3.222-6.274,3.307-8.055.085-2.459.085-6.868,0-11.361-.17-5.426-3.137-11.277-9.327-11.446Z" transform="translate(-271.694 -202.792)" fill="#2c4349"/>
        </g>
        <g id="Group_11595" data-name="Group 11595" transform="translate(93.4 2.628)">
          <path id="Path_237" data-name="Path 237" d="M245.363,236.1h-.594c-6.529-.254-11.446-5.766-11.531-10.514,0-2.8-.17-8.394-.254-12.125-.085-1.7-.085-2.968-.085-3.476-.085-3.561.933-8.394,3.985-11.361A9.068,9.068,0,0,1,243.837,196c7.122.254,12.209,6.1,12.464,14.329.17,5.257.17,10.514.085,13.312-.085,2.12-1.017,6.953-4.155,9.92A9.836,9.836,0,0,1,245.363,236.1Zm-.594-.848a9.344,9.344,0,0,0,6.868-2.374c2.968-2.713,3.815-7.292,3.9-9.327.085-2.8.085-8.055-.085-13.312-.17-6.359-3.9-13.227-11.616-13.481a8.5,8.5,0,0,0-6.359,2.374c-2.8,2.8-3.815,7.376-3.731,10.768,0,.509.085,1.781.085,3.476.085,3.731.254,9.327.254,12.125.085,4.324,4.748,9.5,10.683,9.75Z" transform="translate(-232.894 -195.993)" fill="#2c4349"/>
        </g>
        <g id="Group_11596" data-name="Group 11596" transform="translate(62.962)">
          <path id="Path_238" data-name="Path 238" d="M209.293,235.547h-.509c-6.529-.254-11.446-6.1-11.446-11.107,0-2.968-.17-8.987-.254-12.888,0-1.781-.085-3.137-.085-3.731-.085-3.9,1.017-9.157,4.239-12.294a9.131,9.131,0,0,1,6.783-2.628c7.122.254,12.209,6.444,12.464,15.177.17,5.6.085,11.192,0,14.159-.085,2.374-1.1,7.631-4.409,10.683A9.615,9.615,0,0,1,209.293,235.547Zm-1.7-41.715a7.93,7.93,0,0,0-5.85,2.374c-2.968,2.968-3.985,7.97-3.985,11.7,0,.509,0,1.95.085,3.731.085,3.985.254,9.92.254,12.888,0,4.494,4.663,10,10.683,10.259h0a9.032,9.032,0,0,0,6.613-2.289c3.137-2.883,4.07-7.885,4.155-10.09.085-2.968.085-8.563,0-14.159-.17-6.7-3.9-14.075-11.616-14.329A.641.641,0,0,0,207.6,193.832Z" transform="translate(-196.995 -192.894)" fill="#2c4349"/>
        </g>
        <g id="Group_11597" data-name="Group 11597" transform="translate(33.54 5.172)">
          <path id="Path_239" data-name="Path 239" d="M173.83,236.475h-.509c-6.1-.254-10.683-5.426-10.683-9.835,0-2.628-.17-7.885-.254-11.361-.085-1.611-.085-2.8-.085-3.222-.085-3.307.848-7.885,3.731-10.6A8.5,8.5,0,0,1,172.558,199c6.613.17,11.361,5.681,11.616,13.4.17,4.918.17,9.835.085,12.464-.085,2.035-.933,6.529-3.9,9.242A9.966,9.966,0,0,1,173.83,236.475Zm-1.7-36.713a7.882,7.882,0,0,0-5.6,2.2c-2.628,2.628-3.561,6.868-3.476,10,0,.509,0,1.7.085,3.222.085,3.476.254,8.733.254,11.361,0,3.985,4.409,8.733,9.92,8.987h0a8.341,8.341,0,0,0,6.274-2.12c2.713-2.544,3.561-6.783,3.646-8.648.085-2.628.085-7.461-.085-12.379-.17-5.935-3.646-12.379-10.768-12.548A.311.311,0,0,0,172.134,199.762Z" transform="translate(-162.294 -198.993)" fill="#2c4349"/>
        </g>
        <g id="Group_11598" data-name="Group 11598" transform="translate(0 1.442)">
          <path id="Path_240" data-name="Path 240" d="M136.526,235.806h-.085c-4.578,0-13.057-.085-13.651-11.446-.17-2.883.085-8.224.339-12.04.085-1.865.17-3.307.17-3.815,0-4.409,1.357-8.224,3.815-10.683a12.378,12.378,0,0,1,9.157-3.222c8.394.254,12.633,5.087,12.718,14.244,0,2.035.085,3.985.085,5.766.085,3.476.085,6.444,0,8.224v.509C149.074,226.394,148.989,235.806,136.526,235.806Zm-.085-.848h.085c11.616,0,11.7-8.479,11.785-11.7v-.509c.085-1.7,0-4.748,0-8.14,0-1.781-.085-3.731-.085-5.766-.085-8.733-3.985-13.142-11.955-13.4-3.561-.085-6.444.848-8.563,2.968-2.374,2.289-3.646,5.85-3.561,10,0,.594-.085,2.035-.17,3.9-.17,3.646-.424,9.157-.339,12.04.509,10.6,8.14,10.6,12.8,10.6Z" transform="translate(-122.735 -194.595)" fill="#2c4349"/>
        </g>
      </g>
      <g id="Group_11600" data-name="Group 11600" transform="translate(242.327 82.266)">
        <path id="Path_241" data-name="Path 241" d="M281.789,120.422h-.424c-5.342-.254-9.327-4.918-9.411-8.987,0-2.374-.085-7.207-.17-10.344,0-1.441-.085-2.544-.085-3.052-.085-3.137.848-7.376,3.391-9.92A7.4,7.4,0,0,1,280.6,86c5.766.17,10,5.257,10.174,12.294.085,4.494.085,8.987,0,11.446-.085,1.865-.848,6.189-3.561,8.648A7.423,7.423,0,0,1,281.789,120.422Zm-1.357-33.576a6.6,6.6,0,0,0-4.663,1.865c-2.374,2.374-3.222,6.359-3.137,9.327,0,.424,0,1.526.085,2.968.085,3.222.17,7.97.17,10.429,0,3.646,3.731,7.97,8.563,8.14h0a7.029,7.029,0,0,0,5.342-1.865c2.544-2.374,3.222-6.274,3.307-8.055.085-2.459.085-6.868,0-11.361-.17-5.426-3.137-11.277-9.327-11.446Z" transform="translate(-271.694 -85.992)" fill="#2c4349"/>
      </g>
      <g id="Group_11601" data-name="Group 11601" transform="translate(209.43 76.586)">
        <path id="Path_242" data-name="Path 242" d="M245.363,119.4h-.594c-6.529-.254-11.446-5.766-11.531-10.514,0-2.8-.17-8.394-.254-12.125-.085-1.7-.085-2.968-.085-3.476-.085-3.561.933-8.394,3.985-11.361a9.068,9.068,0,0,1,6.953-2.628c7.122.254,12.209,6.1,12.464,14.329.17,5.257.17,10.514.085,13.312-.085,2.12-1.017,6.953-4.155,9.92A9.836,9.836,0,0,1,245.363,119.4Zm-.594-.848a9.344,9.344,0,0,0,6.868-2.374c2.968-2.713,3.815-7.292,3.9-9.327.085-2.8.085-8.055-.085-13.312-.17-6.359-3.9-13.227-11.616-13.481a8.5,8.5,0,0,0-6.359,2.374c-2.8,2.8-3.815,7.376-3.731,10.768,0,.509.085,1.781.085,3.476.085,3.731.254,9.327.254,12.125.085,4.324,4.748,9.5,10.683,9.75Z" transform="translate(-232.894 -79.293)" fill="#2c4349"/>
      </g>
      <g id="Group_11602" data-name="Group 11602" transform="translate(178.992 73.958)">
        <path id="Path_243" data-name="Path 243" d="M209.293,118.847h-.509c-6.529-.254-11.446-6.1-11.446-11.107,0-2.968-.17-8.987-.254-12.888,0-1.781-.085-3.137-.085-3.731-.085-3.9,1.017-9.157,4.239-12.294a9.131,9.131,0,0,1,6.783-2.628c7.122.254,12.209,6.444,12.464,15.177.17,5.6.085,11.192,0,14.159-.085,2.374-1.1,7.631-4.409,10.683A9.615,9.615,0,0,1,209.293,118.847Zm-1.7-41.715a7.93,7.93,0,0,0-5.85,2.374c-2.968,2.968-3.985,7.97-3.985,11.7,0,.509,0,1.95.085,3.731.085,3.985.254,9.92.254,12.888,0,4.494,4.663,10,10.683,10.259h0a9.032,9.032,0,0,0,6.613-2.289c3.137-2.883,4.07-7.885,4.155-10.09.085-2.968.085-8.563,0-14.159-.17-6.7-3.9-14.075-11.616-14.329A.641.641,0,0,0,207.6,77.132Z" transform="translate(-196.995 -76.194)" fill="#2c4349"/>
      </g>
      <g id="Group_11603" data-name="Group 11603" transform="translate(149.57 79.13)">
        <path id="Path_244" data-name="Path 244" d="M173.83,119.775h-.509c-6.1-.254-10.683-5.426-10.683-9.835,0-2.628-.17-7.885-.254-11.361-.085-1.611-.085-2.8-.085-3.222-.085-3.307.848-7.885,3.731-10.6a8.5,8.5,0,0,1,6.529-2.459c6.613.17,11.361,5.681,11.616,13.4.17,4.918.17,9.835.085,12.464-.085,2.035-.933,6.529-3.9,9.242A9.966,9.966,0,0,1,173.83,119.775Zm-1.7-36.713a7.882,7.882,0,0,0-5.6,2.2c-2.628,2.628-3.561,6.868-3.476,10,0,.509,0,1.7.085,3.222.085,3.476.254,8.733.254,11.361,0,3.985,4.409,8.733,9.92,8.987h0a8.341,8.341,0,0,0,6.274-2.12c2.713-2.544,3.561-6.783,3.646-8.648.085-2.628.085-7.461-.085-12.379-.17-5.935-3.646-12.379-10.768-12.548A.311.311,0,0,0,172.134,83.062Z" transform="translate(-162.294 -82.293)" fill="#2c4349"/>
      </g>
      <g id="Group_11604" data-name="Group 11604" transform="translate(116.029 75.401)">
        <path id="Path_245" data-name="Path 245" d="M136.526,119.106h-.085c-4.578,0-13.057-.085-13.651-11.446-.17-2.883.085-8.224.339-12.04.085-1.865.17-3.307.17-3.815,0-4.409,1.357-8.224,3.815-10.683a12.378,12.378,0,0,1,9.157-3.222c8.394.254,12.633,5.087,12.718,14.244,0,2.035.085,3.985.085,5.766.085,3.476.085,6.444,0,8.224v.509C149.074,109.694,148.989,119.106,136.526,119.106Zm-.085-.848h.085c11.616,0,11.7-8.479,11.785-11.7v-.509c.085-1.7,0-4.748,0-8.14,0-1.781-.085-3.731-.085-5.766-.085-8.733-3.985-13.142-11.955-13.4-3.561-.085-6.444.848-8.563,2.968-2.374,2.289-3.646,5.85-3.561,10,0,.594-.085,2.035-.17,3.9-.17,3.646-.424,9.157-.339,12.04.509,10.6,8.14,10.6,12.8,10.6Z" transform="translate(-122.735 -77.895)" fill="#2c4349"/>
      </g>
      <g id="Group_11610" data-name="Group 11610" transform="translate(119.751 123.219)">
        <g id="Group_11605" data-name="Group 11605" transform="translate(0 8.139)">
          <path id="Path_246" data-name="Path 246" d="M136.261,178.407a7.611,7.611,0,0,1-5.511-2.12c-2.713-2.544-3.561-6.783-3.561-8.648-.085-2.459-.085-6.953,0-11.446.17-7.037,4.324-12.125,10.174-12.294a7.47,7.47,0,0,1,5.6,2.12c2.628,2.544,3.476,6.783,3.391,9.92,0,.424,0,1.526-.085,2.968-.085,3.222-.17,7.97-.17,10.344,0,4.07-4.07,8.818-9.411,8.987h0A.467.467,0,0,1,136.261,178.407Zm1.357-33.66h-.254c-6.189.17-9.242,6.1-9.327,11.446-.085,4.494-.085,8.987,0,11.361.085,1.781.848,5.766,3.307,8.055a7.029,7.029,0,0,0,5.342,1.865h0c4.833-.17,8.563-4.578,8.563-8.14,0-2.374.085-7.207.17-10.429,0-1.441.085-2.544.085-2.968.085-2.968-.763-6.953-3.137-9.327A6.59,6.59,0,0,0,137.617,144.747Z" transform="translate(-127.125 -143.892)" fill="#2c4349"/>
        </g>
        <g id="Group_11606" data-name="Group 11606" transform="translate(28.666 2.459)">
          <path id="Path_247" data-name="Path 247" d="M172.012,177.3a9.692,9.692,0,0,1-6.868-2.544c-3.137-2.968-4.07-7.8-4.155-9.92-.085-2.883-.085-8.055.085-13.312.254-8.224,5.342-14.075,12.464-14.329a8.951,8.951,0,0,1,6.953,2.628c3.052,2.968,4.07,7.8,3.985,11.361,0,.509-.085,1.781-.085,3.476-.085,3.731-.254,9.327-.254,12.125-.085,4.748-5,10.174-11.531,10.514h-.593Zm1.865-39.256h-.339c-7.716.254-11.446,7.207-11.616,13.481-.17,5.257-.17,10.429-.085,13.312.085,2.035.933,6.529,3.9,9.327a9.1,9.1,0,0,0,6.868,2.374h0c5.935-.254,10.683-5.426,10.683-9.666,0-2.8.17-8.394.254-12.125.085-1.7.085-2.968.085-3.476.085-3.391-.848-7.97-3.731-10.768A7.933,7.933,0,0,0,173.878,138.047Z" transform="translate(-160.934 -137.193)" fill="#2c4349"/>
        </g>
        <g id="Group_11607" data-name="Group 11607" transform="translate(59.181 0)">
          <path id="Path_248" data-name="Path 248" d="M208.1,176.862a9.422,9.422,0,0,1-6.7-2.544c-3.307-3.137-4.324-8.394-4.409-10.683-.085-3.052-.085-8.563,0-14.159.254-8.733,5.342-14.923,12.464-15.177a8.816,8.816,0,0,1,6.783,2.628c3.222,3.137,4.239,8.394,4.239,12.294,0,.509,0,1.95-.085,3.731-.085,3.985-.254,9.92-.254,12.888,0,5-4.918,10.853-11.446,11.107h0A.785.785,0,0,0,208.1,176.862Zm1.611-41.8h-.339c-7.716.254-11.446,7.631-11.616,14.329-.17,5.6-.085,11.107,0,14.159.085,2.2,1.017,7.207,4.155,10.09a9.032,9.032,0,0,0,6.613,2.289h0c5.935-.254,10.683-5.681,10.683-10.259,0-2.968.17-8.987.254-12.888,0-1.781.085-3.137.085-3.731.085-3.731-.933-8.733-3.985-11.7A8.574,8.574,0,0,0,209.707,135.062Z" transform="translate(-196.925 -134.293)" fill="#2c4349"/>
        </g>
        <g id="Group_11608" data-name="Group 11608" transform="translate(90.052 5.002)">
          <path id="Path_249" data-name="Path 249" d="M243.734,177.675a9.584,9.584,0,0,1-6.444-2.374c-2.968-2.713-3.815-7.292-3.9-9.242-.085-2.628-.085-7.546.085-12.464.254-7.716,5-13.227,11.616-13.4a8.745,8.745,0,0,1,6.529,2.459c2.8,2.8,3.815,7.292,3.731,10.6,0,.509,0,1.7-.085,3.307-.085,3.476-.254,8.733-.254,11.361,0,4.409-4.663,9.581-10.683,9.835h0A1.443,1.443,0,0,0,243.734,177.675Zm1.781-36.713h-.339c-7.207.254-10.6,6.7-10.768,12.548-.17,4.918-.17,9.75-.085,12.379.085,1.865.848,6.1,3.646,8.648a8.131,8.131,0,0,0,6.274,2.12h0c5.511-.254,9.835-5,9.92-8.987,0-2.628.17-7.885.254-11.361.085-1.611.085-2.8.085-3.222.085-3.137-.848-7.376-3.476-10A7.829,7.829,0,0,0,245.515,140.962Z" transform="translate(-233.334 -140.193)" fill="#2c4349"/>
        </g>
        <g id="Group_11609" data-name="Group 11609" transform="translate(119.154 1.262)">
          <path id="Path_250" data-name="Path 250" d="M280.327,177c-12.464,0-12.548-9.411-12.633-12.464v-.509c-.085-1.781,0-4.748.085-8.224,0-1.781.085-3.731.085-5.766.085-9.157,4.409-13.99,12.718-14.244a12.046,12.046,0,0,1,9.157,3.222c2.544,2.459,3.9,6.274,3.815,10.683,0,.509.085,1.95.17,3.815.17,3.9.424,9.242.339,12.125-.509,11.361-9.072,11.446-13.651,11.446h0Zm.763-40.274h-.509c-7.97.254-11.87,4.663-11.955,13.4,0,2.035-.085,3.985-.085,5.766-.085,3.476-.085,6.444-.085,8.14v.509c0,3.222.085,11.7,11.785,11.7h.085c4.578,0,12.294-.085,12.8-10.6.17-2.8-.17-8.309-.339-12.04-.085-1.865-.17-3.307-.17-3.815,0-4.155-1.272-7.716-3.561-10C287.11,137.662,284.4,136.73,281.09,136.73Z" transform="translate(-267.659 -135.781)" fill="#2c4349"/>
        </g>
      </g>
      <g id="Group_11611" data-name="Group 11611" transform="translate(78.656 327.392)">
        <path id="Path_251" data-name="Path 251" d="M92.174,581.556h-.848c0-1.187.085-2.8.085-4.833.339-10.174.933-29.082-3.731-46.294C82.594,511.776,77,487.527,79.117,465.4a131.432,131.432,0,0,1,3.391-20.179,53.7,53.7,0,0,0,2.035-15.177c0-13.736,2.713-29.93,4.324-39.68l.17-1.017c1.441-8.733,3.646-13.735,4.748-14.244l.424.763c-.339.254-2.628,3.646-4.324,13.651l-.17,1.017c-1.611,9.666-4.324,25.86-4.324,39.511a55.23,55.23,0,0,1-2.035,15.431,120.2,120.2,0,0,0-3.391,20.01c-2.12,21.96,3.476,46.124,8.563,64.692,4.748,17.3,4.07,36.289,3.815,46.548C92.174,578.758,92.174,580.369,92.174,581.556Z" transform="translate(-78.656 -375.1)" fill="#f7bfa0"/>
      </g>
      <g id="Group_11612" data-name="Group 11612" transform="translate(103.163 299.921)">
        <path id="Path_252" data-name="Path 252" d="M109.12,445.97c-.594,0-1.1-.763-1.357-2.035-.339-1.7-.17-8.309-.085-15.346.085-3.307.085-6.783.085-9.581,0-5.342.933-19.925,1.526-30.608.339-5.935.678-10.6.678-11.87.085-4.748-.933-5.935-1.187-5.935v-.848a1,1,0,0,1,.763.424c.509.509,1.357,2.035,1.272,6.444a14.6,14.6,0,0,1-.085,1.7v-.339c.424-5.426.848-9.75,1.187-13.227.509-5.85.848-9.411,1.017-12.718.254-5.426,1.187-8.224,3.052-9.327l.424.763c-1.611.933-2.374,3.646-2.628,8.648-.17,3.307-.509,6.868-1.017,12.718-.339,3.476-.678,7.716-1.187,13.227-.933,10.768-.509,22.469-.17,30.184.085,2.8.17,5.172.17,6.783,0,4.155-.254,10.853-.509,16.7-.085,2.968-.254,5.85-.339,8.224-.085,5.935-1.187,6.02-1.611,6.02Zm1.187-61.131c-.085,1.187-.17,2.374-.254,3.646-.678,10.683-1.526,25.182-1.526,30.523,0,2.8-.085,6.189-.085,9.581-.085,6.7-.17,13.566.085,15.177.17.933.424,1.357.594,1.357,0,0,.678-.509.848-5.172.085-2.374.17-5.172.339-8.224.254-5.935.509-12.548.509-16.7,0-1.611-.085-3.985-.17-6.783C110.307,402.136,110.053,393.487,110.307,384.839Z" transform="translate(-107.561 -342.7)" fill="#f7bfa0"/>
      </g>
      <g id="Group_11613" data-name="Group 11613" transform="translate(122.783 286.016)">
        <path id="Path_253" data-name="Path 253" d="M136.72,432.029h0a2.27,2.27,0,0,1-1.781-2.2c0-.339,0-1.187-.085-2.459-.17-4.409-.594-13.651-.509-22.384.17-12.464,0-21.621-.509-30.608-.339-6.1-.254-11.107-.085-16.025.085-3.052.17-6.274.17-9.75-.085-6.189-1.272-8.14-2.035-8.818a1.178,1.178,0,0,0-1.017-.339l-.17-.848a1.842,1.842,0,0,1,1.7.594c1.526,1.272,2.289,4.494,2.374,9.411,0,3.476-.085,6.7-.17,9.75-.17,4.918-.254,9.92.085,15.94v-4.663c.085-20.01.509-27.3.678-31.286.085-1.441.17-2.459.17-3.476,0-3.307.763-7.546,3.052-8.563l.339.763c-1.526.678-2.544,3.9-2.544,7.8,0,1.017-.085,2.035-.17,3.476-.254,3.9-.678,11.277-.678,31.2-.085,18.992.763,24.843,1.357,29.167a57.351,57.351,0,0,1,.594,6.1c.085,1.357.17,2.968.17,4.663.339,7.885.848,17.636.424,20.349C137.992,431.69,137.229,432.029,136.72,432.029Zm-1.441-40.443c0,4.07,0,8.479-.085,13.4-.17,8.733.254,17.89.509,22.3.085,1.357.085,2.2.085,2.544,0,.594.594,1.357.933,1.357.254,0,.509-.339.678-1.441.339-2.628-.085-12.379-.509-20.179-.085-1.7-.17-3.222-.17-4.663a57.879,57.879,0,0,0-.594-6.02A67.363,67.363,0,0,1,135.278,391.586Z" transform="translate(-130.7 -326.3)" fill="#f7bfa0"/>
      </g>
      <g id="Group_11614" data-name="Group 11614" transform="translate(143.386 284.573)">
        <path id="Path_254" data-name="Path 254" d="M166.277,430.583a1.919,1.919,0,0,1-1.441-.933c-.509-.848-.933-3.985-1.017-7.885-.254-8.394-.509-19.416-.594-31.88-.17-11.446-1.865-22.892-2.713-29.082l-.254-1.865c-.594-3.985-1.187-11.7-1.7-18.4-.17-2.12-.339-4.07-.424-5.766-.594-7.122-2.544-9.327-3.052-9.327h0L155,324.6c1.526-.085,3.391,3.391,3.985,10.09.17,1.7.339,3.646.424,5.766.509,6.444,1.187,14.414,1.7,18.4l.254,1.865c.424,2.713.933,6.529,1.441,10.938,0-.509-.085-.933-.085-1.441-.594-12.633-.594-17.636-.509-20.942,0-1.781,0-3.052-.085-4.663-.254-5.087.339-7.97,1.865-8.733l.424.763c-.848.424-1.781,2.2-1.441,7.97.085,1.7.085,2.968.085,4.748,0,3.307-.085,8.309.509,20.858.678,13.736,1.865,24.843,2.713,32.219.339,2.883.594,5.087.678,6.7.424,5.681,1.017,15.686.848,18.907-.085,1.611-.509,2.459-1.187,2.628A.641.641,0,0,0,166.277,430.583Zm-2.2-41.291v.594c.17,12.548.424,23.571.594,31.88.085,4.07.594,6.868.933,7.461.17.254.509.594.763.509.085,0,.509-.17.594-1.865.17-3.222-.424-13.142-.848-18.823-.085-1.526-.339-3.815-.678-6.613C165,398.873,164.581,394.464,164.072,389.292Z" transform="translate(-155 -324.598)" fill="#f7bfa0"/>
      </g>
      <g id="Group_11615" data-name="Group 11615" transform="translate(165.346 296.36)">
        <path id="Path_255" data-name="Path 255" d="M206.76,490.862c-.509-5.6-3.137-25.775-5-33.067-1.865-7.461-6.868-34.423-7.631-41.206-.509-4.494-1.017-10.174-1.526-16.194-.254-3.307-.509-6.613-.848-9.92-.424-4.324-1.611-10.6-2.968-17.3-1.441-7.461-2.968-15.177-3.391-20.6-.763-10.429-3.985-13.227-4.494-13.227V338.5c1.441,0,4.578,4.239,5.257,14.075a193.187,193.187,0,0,0,3.391,20.518c1.272,6.7,2.544,12.972,2.968,17.381.339,3.307.594,6.613.848,9.92.509,6.02.933,11.7,1.526,16.194.848,6.783,5.766,33.745,7.631,41.122s4.578,27.556,5.087,33.236Z" transform="translate(-180.9 -338.5)" fill="#f7bfa0"/>
      </g>
      <g id="Group_11616" data-name="Group 11616" transform="translate(170.934 392.084)">
        <path id="Path_256" data-name="Path 256" d="M188.771,593.164h-.848v-3.052c.085-4.578.17-11.446-.254-15.686-.594-5.681.085-7.122,5.511-15.431,1.187-1.78,2.289-3.391,3.307-5A101.918,101.918,0,0,0,208.7,531.269c3.391-8.394,5.6-10.938,7.461-12.972a16.579,16.579,0,0,0,3.731-6.189c1.7-4.663,1.357-6.529.848-10a63.117,63.117,0,0,1-.848-10.429c0-4.155-.17-7.292-.339-9.75-.254-5.172-.424-7.97.763-13.057,1.7-7.037,1.7-9.92,1.611-12.294v-.424a18.944,18.944,0,0,1,.678-4.748l.848.254a16.6,16.6,0,0,0-.678,4.494v.424c0,2.374,0,5.342-1.7,12.464-1.187,4.918-1.017,7.716-.763,12.8.17,2.544.254,5.6.339,9.75a71.325,71.325,0,0,0,.848,10.259c.509,3.476.848,5.511-.933,10.429a16.2,16.2,0,0,1-3.9,6.444c-1.781,1.95-3.985,4.494-7.292,12.718a100.067,100.067,0,0,1-12.294,22.892c-1.1,1.611-2.2,3.222-3.307,5-5.257,8.14-5.85,9.5-5.342,14.922.424,4.324.339,11.277.254,15.77C188.771,591.383,188.771,592.485,188.771,593.164Z" transform="translate(-187.491 -451.4)" fill="#f7bfa0"/>
      </g>
      <g id="Group_11617" data-name="Group 11617" transform="translate(183.407 373.699)">
        <path id="Path_257" data-name="Path 257" d="M202.285,458.869c-.424-4.239.848-6.953,2.2-9.835a33.64,33.64,0,0,0,1.7-3.9c1.781-5.087,9.411-11.785,14.753-14.244,5.257-2.374,8.309-.424,8.479-.339l-.424.678c-.085-.085-2.883-1.781-7.631.424-5.087,2.289-12.548,8.987-14.244,13.736a29.633,29.633,0,0,1-1.7,3.985c-1.357,2.883-2.544,5.426-2.12,9.411Z" transform="translate(-202.202 -429.717)" fill="#f7bfa0"/>
      </g>
      <g id="Group_11618" data-name="Group 11618" transform="translate(203.659 372.709)">
        <path id="Path_258" data-name="Path 258" d="M228.048,448.687h0c-.509,0-1.187-.254-1.611-1.357-.848-2.035-.17-5.257,2.2-9.835.085-.17,1.526-3.052,3.137-5.935.933-1.611,2.374-3.307,3.476-2.968.678.254,1.017,1.1.848,2.544-.339,3.646-2.2,8.479-3.985,12.718C231.27,445.634,229.744,448.687,228.048,448.687Zm6.783-19.331c-.424,0-1.441.848-2.459,2.628-1.611,2.883-3.052,5.85-3.052,5.935h0c-2.2,4.324-2.968,7.376-2.2,9.157.17.424.424.848.848.848h0c.678,0,1.865-1.1,3.222-4.324,1.781-4.155,3.646-8.9,3.985-12.464.17-1.357-.085-1.7-.339-1.781Z" transform="translate(-226.088 -428.548)" fill="#2c4349"/>
      </g>
      <g id="Group_11619" data-name="Group 11619" transform="translate(111.421 293.892)">
        <path id="Path_259" data-name="Path 259" d="M123.744,354.336h-.424c-3.476-.17-6.02-2.883-6.02-5.087v-7.122a7.1,7.1,0,0,1,2.035-5.087,5.174,5.174,0,0,1,3.985-1.441,6.541,6.541,0,0,1,6.444,6.868c0,2.374,0,4.748-.085,6.02a7.024,7.024,0,0,1-1.187,3.391A5.574,5.574,0,0,1,123.744,354.336Zm-.424-.848a4.88,4.88,0,0,0,4.409-1.95,7.165,7.165,0,0,0,1.1-2.968c.085-1.272.17-3.646.085-6.02a5.775,5.775,0,0,0-5.681-6.02,4.3,4.3,0,0,0-3.391,1.187,6.077,6.077,0,0,0-1.7,4.409v7.122c-.085,1.781,2.2,4.07,5.172,4.239Z" transform="translate(-117.3 -335.589)" fill="#2c4349"/>
      </g>
      <g id="Group_11620" data-name="Group 11620" transform="translate(130.159 278.978)">
        <path id="Path_260" data-name="Path 260" d="M146.607,339.282h-.339c-3.731-.17-6.529-3.052-6.613-5.6,0-1.441-.085-4.324-.17-6.274a10.36,10.36,0,0,0-.085-1.865,8.45,8.45,0,0,1,2.12-5.935A5.689,5.689,0,0,1,145.674,318c4.07.085,6.953,3.222,7.122,7.631.085,2.713.085,5.426,0,6.953a8.009,8.009,0,0,1-2.289,5.172A4.985,4.985,0,0,1,146.607,339.282Zm-.933-20.434a4.537,4.537,0,0,0-3.391,1.357,7.276,7.276,0,0,0-1.865,5.342,17.59,17.59,0,0,0,.085,1.781c.085,1.95.085,4.833.17,6.274,0,2.12,2.544,4.663,5.766,4.833h0a5,5,0,0,0,3.815-1.272,6.763,6.763,0,0,0,1.95-4.578c.085-1.441.085-4.155,0-6.868-.085-3.222-2.12-6.7-6.274-6.783A.656.656,0,0,0,145.674,318.848Z" transform="translate(-139.4 -318)" fill="#2c4349"/>
      </g>
      <g id="Group_11621" data-name="Group 11621" transform="translate(93.594 321.02)">
        <path id="Path_261" data-name="Path 261" d="M101.723,384.216h-.678c-2.968-.339-5-2.8-4.748-4.833.085-1.1.254-3.391.339-4.833a11.069,11.069,0,0,0,.085-1.441,6.644,6.644,0,0,1,2.12-4.494,4.764,4.764,0,0,1,3.391-1.017c3.222.339,5.257,2.968,5.087,6.444-.17,2.12-.339,4.239-.509,5.342C106.64,380.74,105.368,384.216,101.723,384.216Zm-.594-.848c4.155.424,4.833-4.07,4.833-4.155.17-1.1.339-3.222.509-5.342.17-2.459-1.1-5.172-4.324-5.511a3.591,3.591,0,0,0-2.8.848,6.458,6.458,0,0,0-1.865,3.9c0,.17-.085.763-.085,1.441-.085,1.526-.254,3.731-.339,4.918-.085,1.526,1.611,3.561,4.07,3.9Z" transform="translate(-96.275 -367.585)" fill="#2c4349"/>
      </g>
      <g id="Group_11623" data-name="Group 11623" transform="translate(284.726 93.126)">
        <g id="Group_11622" data-name="Group 11622" transform="translate(0 0)">
          <path id="Path_262" data-name="Path 262" d="M321.7,98.8h1.611a3.478,3.478,0,0,1,.933.085,1.432,1.432,0,0,1,.848.254,1.14,1.14,0,0,1,.594.509,1.523,1.523,0,0,1,.254.933,1.465,1.465,0,0,1-.424,1.1,1.718,1.718,0,0,1-1.187.509l1.781,2.968h-.933l-1.7-2.883h-1.017v2.883H321.7Zm.763,2.8h1.357c.254,0,.424-.085.594-.085a1.774,1.774,0,0,0,.509-.339,1.123,1.123,0,0,0,0-1.187.662.662,0,0,0-.339-.339c-.17-.085-.339-.085-.509-.17h-1.7v2.12Z" transform="translate(-321.7 -98.8)" fill="#f7bfa0"/>
        </g>
      </g>
      <g id="Group_11625" data-name="Group 11625" transform="translate(284.726 146.033)">
        <g id="Group_11624" data-name="Group 11624">
          <path id="Path_263" data-name="Path 263" d="M321.7,161.2h.763v5.681h2.968v.678h-3.646V161.2Z" transform="translate(-321.7 -161.2)" fill="#f7bfa0"/>
        </g>
      </g>
      <g id="Group_11627" data-name="Group 11627" transform="translate(284.556 199.109)">
        <g id="Group_11626" data-name="Group 11626">
          <path id="Path_264" data-name="Path 264" d="M321.5,225.835h2.035V223.8h.594v2.035h2.035v.594h-2.035v2.035h-.594v-2.035H321.5Z" transform="translate(-321.5 -223.8)" fill="#f7bfa0"/>
        </g>
      </g>
      <g id="Group_11628" data-name="Group 11628" transform="translate(131.516 115.085)">
        <path id="Path_265" data-name="Path 265" d="M170.845,184.22v-.848a32.282,32.282,0,0,0,5-.424l.17.848A35.455,35.455,0,0,1,170.845,184.22Zm-5.172-.424a25.685,25.685,0,0,1-5-1.357l.254-.763a25.439,25.439,0,0,0,4.833,1.272Zm15.346-1.357-.254-.763a28.146,28.146,0,0,0,4.578-2.12l.424.763C184.157,181.083,182.63,181.846,181.019,182.44Zm-25.1-2.2a25.262,25.262,0,0,1-4.239-2.968l.509-.678a27.944,27.944,0,0,0,4.155,2.883Zm34-2.968-.509-.678a35.3,35.3,0,0,0,3.561-3.561l.678.509A38.735,38.735,0,0,1,189.922,177.268Zm-41.885-3.646a29.264,29.264,0,0,1-2.968-4.239l.763-.424a33.17,33.17,0,0,0,2.883,4.155Zm48.5-4.324-.763-.424a28.146,28.146,0,0,0,2.12-4.578l.763.254A18.453,18.453,0,0,1,196.535,169.3Zm-53.67-4.579a33.5,33.5,0,0,1-1.357-5l.848-.17a31.163,31.163,0,0,0,1.272,4.833Zm57.231-5.087-.848-.17a32.282,32.282,0,0,0,.424-5v-.17h.848v.17A26.619,26.619,0,0,1,200.1,159.632Zm-58.842-5.172H141a33.388,33.388,0,0,1,.424-5.087l.848.17a32.092,32.092,0,0,0-.424,4.918Zm57.994-5.172a31.409,31.409,0,0,0-1.357-4.833l.763-.254a33.5,33.5,0,0,1,1.357,5Zm-55.7-4.663-.763-.254a34.337,34.337,0,0,1,2.2-4.748l.763.424A28.488,28.488,0,0,0,143.544,144.625Zm52.229-4.748a45.455,45.455,0,0,0-2.883-4.155l.678-.509a29.263,29.263,0,0,1,2.968,4.239Zm-47.226-3.985-.678-.509a29.614,29.614,0,0,1,3.646-3.646l.509.678A33.63,33.63,0,0,0,148.546,135.892Zm40.783-3.646a27.944,27.944,0,0,0-4.155-2.883l.424-.763a25.262,25.262,0,0,1,4.239,2.968Zm-33.067-2.8-.424-.763a33.365,33.365,0,0,1,4.663-2.2l.254.763A31.476,31.476,0,0,0,156.262,129.448Zm24.334-2.2a25.439,25.439,0,0,0-4.833-1.272l.17-.848a25.686,25.686,0,0,1,5,1.357Zm-14.922-1.272-.17-.848a26.086,26.086,0,0,1,5.172-.424v.848A32.283,32.283,0,0,0,165.673,125.972Z" transform="translate(-141 -124.7)" fill="#f7bfa0"/>
      </g>
      <g id="Group_11632" data-name="Group 11632" transform="translate(156.697 174.436)">
        <g id="Group_11629" data-name="Group 11629" transform="translate(3.052)">
          <path id="Path_266" data-name="Path 266" d="M175.148,301.531H174.3v-5.087h.848Zm0-10.174H174.3V286.27h.848Zm0-10.174H174.3V276.1h.848Zm0-10.174H174.3v-5.087h.848Zm0-10.174H174.3v-5.087h.848Zm0-10.174H174.3v-5.087h.848Zm0-10.174H174.3V235.4h.848Zm0-10.174H174.3v-5.087h.848Zm0-10.174H174.3v-5.087h.848Zm0-10.174H174.3v-5.087h.848Zm0-10.174H174.3V194.7h.848Z" transform="translate(-174.3 -194.7)" fill="#f7bfa0"/>
        </g>
        <g id="Group_11631" data-name="Group 11631" transform="translate(0 106.238)">
          <g id="Group_11630" data-name="Group 11630">
            <path id="Path_267" data-name="Path 267" d="M170.7,320.594l.594-.594,2.883,3.052,2.8-3.052.678.594-3.476,3.731Z" transform="translate(-170.7 -320)" fill="#f7bfa0"/>
          </g>
        </g>
      </g>
      <g id="Group_11633" data-name="Group 11633" transform="translate(160.937 290.594)">
        <path id="Path_268" data-name="Path 268" d="M231.659,332.548h-5.087V331.7h5.087Zm-10.174,0H216.4V331.7h5.087Zm-10.174,0h-5.087V331.7h5.087Zm-10.174,0h-5.087V331.7h5.087Zm-10.174,0h-5.087V331.7h5.087Zm-10.174,0H175.7V331.7h5.087Z" transform="translate(-175.7 -331.7)" fill="#f7bfa0"/>
      </g>
      <g id="Group_11634" data-name="Group 11634" transform="translate(160.937 309.332)">
        <path id="Path_269" data-name="Path 269" d="M231.659,354.648h-5.087V353.8h5.087Zm-10.174,0H216.4V353.8h5.087Zm-10.174,0h-5.087V353.8h5.087Zm-10.174,0h-5.087V353.8h5.087Zm-10.174,0h-5.087V353.8h5.087Zm-10.174,0H175.7V353.8h5.087Z" transform="translate(-175.7 -353.8)" fill="#f7bfa0"/>
      </g>
      <g id="Group_11635" data-name="Group 11635" transform="translate(152.034 290.17)">
        <path id="Path_270" data-name="Path 270" d="M172.916,351.21c-3.815,0-7.207-3.391-7.376-5.681-.17-1.865-.339-6.444-.339-7.207,0-1.357.085-3.052.678-3.9a7.162,7.162,0,0,1,6.1-3.222h.085c3.561,0,6.1,2.968,6.783,6.02a67.147,67.147,0,0,1,.933,8.224,5.921,5.921,0,0,1-1.611,3.9,8.067,8.067,0,0,1-5.257,1.865Zm-.848-19.162h0a6.053,6.053,0,0,0-5.426,2.8c-.509.763-.509,2.8-.509,3.476,0,.763.17,5.342.339,7.122.17,1.865,3.222,4.833,6.529,4.833h0a5.878,5.878,0,0,0,4.494-1.7,5.373,5.373,0,0,0,1.441-3.307,63.371,63.371,0,0,0-.848-8.055C177.409,334.761,175.12,332.048,172.068,332.048Z" transform="translate(-165.2 -331.2)" fill="#2c4349"/>
      </g>
      <g id="Group_11636" data-name="Group 11636" transform="translate(224.188 288.814)">
        <path id="Path_271" data-name="Path 271" d="M254.539,330.393h-1.781v4.833h-.678v-4.833H250.3V329.8h4.239v.594Z" transform="translate(-250.3 -329.63)" fill="#2c4349"/>
        <path id="Path_272" data-name="Path 272" d="M260.5,335.366a2.347,2.347,0,0,1-1.1-.254,2.548,2.548,0,0,1-1.526-1.526,2.5,2.5,0,0,1-.17-1.1,4.3,4.3,0,0,1,.17-1.1,3.5,3.5,0,0,1,.594-.933,2.526,2.526,0,0,1,.933-.594,2.516,2.516,0,0,1,2.2,0,2.548,2.548,0,0,1,1.526,1.526,2.5,2.5,0,0,1,.17,1.1,4.3,4.3,0,0,1-.17,1.1,3.5,3.5,0,0,1-.594.933,2.526,2.526,0,0,1-.933.594A2.611,2.611,0,0,1,260.5,335.366Zm0-.594a2.509,2.509,0,0,0,.848-.17,1.318,1.318,0,0,0,.678-.509,1.846,1.846,0,0,0,.424-.678,2.2,2.2,0,0,0,0-1.7,1.846,1.846,0,0,0-.424-.678,4.7,4.7,0,0,0-.678-.509,1.394,1.394,0,0,0-.848-.17,2.509,2.509,0,0,0-.848.17,1.319,1.319,0,0,0-.678.509,1.846,1.846,0,0,0-.424.678,2.2,2.2,0,0,0,0,1.7,1.846,1.846,0,0,0,.424.678,4.705,4.705,0,0,0,.678.509A2.128,2.128,0,0,0,260.5,334.772Z" transform="translate(-251.426 -329.6)" fill="#2c4349"/>
        <path id="Path_273" data-name="Path 273" d="M267.285,329.8H268.9a1.653,1.653,0,0,1,.678.085,4.137,4.137,0,0,1,.594.254,1.022,1.022,0,0,1,.424.424,1.6,1.6,0,0,1,.17.678,2.476,2.476,0,0,1-.17.763,1.022,1.022,0,0,1-.424.424,4.13,4.13,0,0,1-.594.254,1.443,1.443,0,0,1-.594.085h-1.1v2.459H267.2V329.8Zm.678,2.374h1.1a1.036,1.036,0,0,0,.763-.254.881.881,0,0,0,.339-.678.688.688,0,0,0-.339-.678,1.036,1.036,0,0,0-.763-.254h-1.1Z" transform="translate(-252.871 -329.63)" fill="#2c4349"/>
        <path id="Path_274" data-name="Path 274" d="M274.809,331.9a.643.643,0,0,1,.339.17.441.441,0,0,1,.17.339.643.643,0,0,1-.17.339.481.481,0,1,1-.678-.678A.338.338,0,0,1,274.809,331.9Zm0,2.8a.643.643,0,0,1,.339.17.441.441,0,0,1,.17.339.643.643,0,0,1-.17.339.481.481,0,1,1-.678-.678A.338.338,0,0,1,274.809,334.7Z" transform="translate(-253.951 -329.95)" fill="#2c4349"/>
        <path id="Path_275" data-name="Path 275" d="M286.539,330.393h-1.781v4.833h-.678v-4.833H282.3V329.8h4.239Z" transform="translate(-255.168 -329.63)" fill="#2c4349"/>
        <path id="Path_276" data-name="Path 276" d="M290,329.8h.678v5.426H290Z" transform="translate(-256.34 -329.63)" fill="#2c4349"/>
        <path id="Path_277" data-name="Path 277" d="M294.185,329.8H295.8a1.653,1.653,0,0,1,.678.085,4.137,4.137,0,0,1,.594.254,1.021,1.021,0,0,1,.424.424,1.6,1.6,0,0,1,.17.678,2.475,2.475,0,0,1-.17.763,1.021,1.021,0,0,1-.424.424,4.13,4.13,0,0,1-.594.254,1.443,1.443,0,0,1-.594.085h-1.1v2.459H294.1V329.8Zm.594,2.374h1.1a1.036,1.036,0,0,0,.763-.254.881.881,0,0,0,.339-.678.688.688,0,0,0-.339-.678,1.036,1.036,0,0,0-.763-.254h-1.1Z" transform="translate(-256.963 -329.63)" fill="#2c4349"/>
        <path id="Path_278" data-name="Path 278" d="M308.1,335.366a2.347,2.347,0,0,1-1.1-.254,2.548,2.548,0,0,1-1.526-1.526,2.5,2.5,0,0,1-.17-1.1,4.3,4.3,0,0,1,.17-1.1,3.5,3.5,0,0,1,.594-.933,2.526,2.526,0,0,1,.933-.594,2.516,2.516,0,0,1,2.2,0,2.548,2.548,0,0,1,1.526,1.526,2.5,2.5,0,0,1,.17,1.1,4.3,4.3,0,0,1-.17,1.1,3.5,3.5,0,0,1-.594.933,2.526,2.526,0,0,1-.933.594A2.611,2.611,0,0,1,308.1,335.366Zm0-.594a2.509,2.509,0,0,0,.848-.17,1.318,1.318,0,0,0,.678-.509,1.846,1.846,0,0,0,.424-.678,2.2,2.2,0,0,0,0-1.7,1.846,1.846,0,0,0-.424-.678,4.7,4.7,0,0,0-.678-.509,1.394,1.394,0,0,0-.848-.17,2.509,2.509,0,0,0-.848.17,1.319,1.319,0,0,0-.678.509,1.846,1.846,0,0,0-.424.678,2.2,2.2,0,0,0,0,1.7,1.846,1.846,0,0,0,.424.678,4.705,4.705,0,0,0,.678.509A2.128,2.128,0,0,0,308.1,334.772Z" transform="translate(-258.667 -329.6)" fill="#2c4349"/>
        <path id="Path_279" data-name="Path 279" d="M314.9,329.8h3.391v.594h-2.713v1.781h2.544v.594h-2.544v2.459H314.9Z" transform="translate(-260.128 -329.63)" fill="#2c4349"/>
        <path id="Path_280" data-name="Path 280" d="M329.539,330.393h-1.781v4.833h-.678v-4.833H325.3V329.8h4.239Z" transform="translate(-261.71 -329.63)" fill="#2c4349"/>
        <path id="Path_281" data-name="Path 281" d="M333,329.8h.678v2.289h2.883V329.8h.678v5.426h-.678v-2.544h-2.883v2.544H333Z" transform="translate(-262.881 -329.63)" fill="#2c4349"/>
        <path id="Path_282" data-name="Path 282" d="M341.285,329.8h3.391v.594h-2.8v1.7h2.544v.594h-2.544v1.95h2.883v.594H341.2V329.8Z" transform="translate(-264.129 -329.63)" fill="#2c4349"/>
        <path id="Path_283" data-name="Path 283" d="M352.7,329.8h.848l3.137,4.494h0V329.8h.678v5.426h-.848l-3.137-4.494h0v4.494H352.7Z" transform="translate(-265.878 -329.63)" fill="#2c4349"/>
        <path id="Path_284" data-name="Path 284" d="M363.159,329.8h.594l2.289,5.426h-.763l-.509-1.357h-2.713l-.594,1.357H360.7Zm.254.848h0l-1.1,2.628h2.2Z" transform="translate(-267.095 -329.63)" fill="#2c4349"/>
        <path id="Path_285" data-name="Path 285" d="M369.6,329.8h.678v5.426H369.6Z" transform="translate(-268.449 -329.63)" fill="#2c4349"/>
        <path id="Path_286" data-name="Path 286" d="M373.8,329.8h.678v4.833h2.459v.594H373.8Z" transform="translate(-269.088 -329.63)" fill="#2c4349"/>
      </g>
      <g id="Group_11637" data-name="Group 11637" transform="translate(307.872 93.889)">
        <path id="Path_287" data-name="Path 287" d="M349.085,99.9h1.357a2.347,2.347,0,0,1,.763.085,1.6,1.6,0,0,1,.678.17,2.249,2.249,0,0,1,.509.424c.17.17.17.424.17.763a1.158,1.158,0,0,1-.339.933,1.4,1.4,0,0,1-1.017.424l1.526,2.459h-.763l-1.441-2.459h-.848v2.459H349V99.9Zm.593,2.374h1.187c.17,0,.339-.085.509-.085.17-.085.254-.17.424-.254a.717.717,0,0,0,.17-.509.635.635,0,0,0-.085-.424,1.171,1.171,0,0,0-.339-.254.635.635,0,0,0-.424-.085h-1.441v1.611Z" transform="translate(-349 -99.73)" fill="#2c4349"/>
        <path id="Path_288" data-name="Path 288" d="M356.4,99.9h.678v5.426H356.4Z" transform="translate(-350.126 -99.73)" fill="#2c4349"/>
        <path id="Path_289" data-name="Path 289" d="M365,104.957a5.185,5.185,0,0,1-1.017.424,4.128,4.128,0,0,1-1.017.085,5,5,0,0,1-1.187-.17,2.2,2.2,0,0,1-.933-.594,2.526,2.526,0,0,1-.594-.933,2.9,2.9,0,0,1,0-2.374,2.548,2.548,0,0,1,1.526-1.526,2.5,2.5,0,0,1,1.1-.17,4.256,4.256,0,0,1,1.017.17,1.759,1.759,0,0,1,.848.509l-.509.509a1.846,1.846,0,0,0-.678-.424,2.476,2.476,0,0,0-.763-.17,2.508,2.508,0,0,0-.848.17,1.779,1.779,0,0,0-1.1,1.1,3.047,3.047,0,0,0-.17.933,3.605,3.605,0,0,0,.17.933,1.846,1.846,0,0,0,.424.678,4.705,4.705,0,0,0,.678.509,3.048,3.048,0,0,0,.933.17,1.867,1.867,0,0,0,.678-.085c.254-.085.424-.17.678-.254v-1.7h-1.272v-.594h1.865v2.8Z" transform="translate(-350.673 -99.7)" fill="#2c4349"/>
        <path id="Path_290" data-name="Path 290" d="M369.3,99.9h.678v2.289h2.883V99.9h.678v5.426h-.678v-2.544h-2.883v2.544H369.3Z" transform="translate(-352.088 -99.73)" fill="#2c4349"/>
        <path id="Path_291" data-name="Path 291" d="M381.139,100.493h-1.781v4.833h-.678v-4.833H376.9V99.9h4.239Z" transform="translate(-353.244 -99.73)" fill="#2c4349"/>
        <path id="Path_292" data-name="Path 292" d="M388.885,99.9h.678v2.289h2.883V99.9h.678v5.426h-.763v-2.544h-2.883v2.544H388.8V99.9Z" transform="translate(-355.055 -99.73)" fill="#2c4349"/>
        <path id="Path_293" data-name="Path 293" d="M398.759,99.9h.594l2.289,5.426h-.763l-.509-1.357h-2.713l-.594,1.357H396.3Zm.339.848h0l-1.1,2.628h2.2Z" transform="translate(-356.196 -99.73)" fill="#2c4349"/>
        <path id="Path_294" data-name="Path 294" d="M405.3,99.9h.848l3.137,4.494h0V99.9h.678v5.426h-.848l-3.137-4.494h0v4.494H405.3Z" transform="translate(-357.565 -99.73)" fill="#2c4349"/>
        <path id="Path_295" data-name="Path 295" d="M414,99.9h2.035a1.655,1.655,0,0,1,.594.085,1.572,1.572,0,0,1,.594.17,2.125,2.125,0,0,1,.594.339l.509.509a1.7,1.7,0,0,1,.339.678,4.281,4.281,0,0,1,0,1.7,1.7,1.7,0,0,1-.339.678,2.877,2.877,0,0,1-.509.509,2.125,2.125,0,0,1-.594.339,1.572,1.572,0,0,1-.594.17c-.17,0-.424.085-.594.085H414Zm.594,4.833h1.187a2.614,2.614,0,0,0,.848-.085,1.7,1.7,0,0,0,.678-.339,1.846,1.846,0,0,0,.424-.678,2.649,2.649,0,0,0,0-1.865,1.846,1.846,0,0,0-.424-.678,1.7,1.7,0,0,0-.678-.339,2.884,2.884,0,0,0-.848-.085h-1.187Z" transform="translate(-358.889 -99.73)" fill="#2c4349"/>
      </g>
      <g id="Group_11638" data-name="Group 11638" transform="translate(307.957 141.539)">
        <path id="Path_296" data-name="Path 296" d="M349.1,155.9h.678v4.833h2.459v.594H349.1V155.9Z" transform="translate(-349.1 -155.9)" fill="#2c4349"/>
        <path id="Path_297" data-name="Path 297" d="M355.4,155.9h3.391v.594h-2.713v1.7h2.544v.594h-2.544v1.95h2.883v.594H355.4V155.9Z" transform="translate(-350.058 -155.9)" fill="#2c4349"/>
        <path id="Path_298" data-name="Path 298" d="M362.5,155.9h3.391v.594h-2.713v1.781h2.544v.594h-2.544v2.459H362.5Z" transform="translate(-351.139 -155.9)" fill="#2c4349"/>
        <path id="Path_299" data-name="Path 299" d="M372.839,156.494h-1.781v4.833h-.678v-4.833H368.6V155.9h4.239Z" transform="translate(-352.066 -155.9)" fill="#2c4349"/>
        <path id="Path_300" data-name="Path 300" d="M380.6,155.9h.678v2.289h2.883V155.9h.678v5.426h-.678v-2.544h-2.883v2.544H380.6Z" transform="translate(-353.892 -155.9)" fill="#2c4349"/>
        <path id="Path_301" data-name="Path 301" d="M390.459,155.9h.594l2.289,5.426h-.763l-.509-1.357h-2.713l-.594,1.357H388Zm.339.848h0l-1.1,2.628h2.2Z" transform="translate(-355.018 -155.9)" fill="#2c4349"/>
        <path id="Path_302" data-name="Path 302" d="M397,155.9h.848l3.137,4.494h0V155.9h.678v5.426h-.848l-3.137-4.494h0v4.494H397Z" transform="translate(-356.387 -155.9)" fill="#2c4349"/>
        <path id="Path_303" data-name="Path 303" d="M405.7,155.9h2.035a1.655,1.655,0,0,1,.594.085,1.572,1.572,0,0,1,.594.17,2.125,2.125,0,0,1,.594.339l.509.509a1.7,1.7,0,0,1,.339.678,4.282,4.282,0,0,1,0,1.7,1.7,1.7,0,0,1-.339.678,2.879,2.879,0,0,1-.509.509,2.125,2.125,0,0,1-.594.339,1.572,1.572,0,0,1-.594.17c-.17,0-.424.085-.594.085H405.7Zm.593,4.833h1.187a2.614,2.614,0,0,0,.848-.085,1.7,1.7,0,0,0,.678-.339,1.846,1.846,0,0,0,.424-.678,2.649,2.649,0,0,0,0-1.865,1.846,1.846,0,0,0-.424-.678,1.7,1.7,0,0,0-.678-.339,2.884,2.884,0,0,0-.848-.085h-1.187Z" transform="translate(-357.711 -155.9)" fill="#2c4349"/>
      </g>
      <g id="Group_11639" data-name="Group 11639" transform="translate(307.957 195.718)">
        <path id="Path_304" data-name="Path 304" d="M349.1,220.2h1.611a1.866,1.866,0,0,1,.678.085c.254.085.424.085.594.254a1.022,1.022,0,0,1,.424.424,1.226,1.226,0,0,1,.17.594,1.037,1.037,0,0,1-.254.763,1.846,1.846,0,0,1-.678.424h0a1.205,1.205,0,0,1,.509.17c.17.085.254.17.424.254a1.852,1.852,0,0,1,.254.424,1.075,1.075,0,0,1,.085.509,2.025,2.025,0,0,1-.17.763.868.868,0,0,1-.509.424,5.839,5.839,0,0,1-.678.254,2.347,2.347,0,0,1-.763.085h-1.611V220.2Zm.593,2.289h1.272c.17,0,.254-.085.424-.085l.254-.254a1.1,1.1,0,0,0,0-.848l-.254-.254a.51.51,0,0,0-.339-.085h-1.357Zm0,2.544h1.1a1.076,1.076,0,0,0,.509-.085c.17,0,.254-.085.424-.17.085-.085.254-.17.339-.254a.635.635,0,0,0,.085-.424,1.075,1.075,0,0,0-.085-.509c-.085-.085-.17-.254-.254-.339a.648.648,0,0,0-.424-.17c-.17,0-.339-.085-.509-.085h-1.1v2.035Z" transform="translate(-349.1 -219.861)" fill="#2c4349"/>
        <path id="Path_305" data-name="Path 305" d="M358.159,220.2h.594l2.289,5.426h-.763l-.509-1.357h-2.713l-.594,1.357H355.7Zm.254.848h0l-1.1,2.628h2.2Z" transform="translate(-350.104 -219.861)" fill="#2c4349"/>
        <path id="Path_306" data-name="Path 306" d="M368.37,221.241a1.14,1.14,0,0,0-.594-.509,2.476,2.476,0,0,0-.763-.17,2.509,2.509,0,0,0-.848.17,1.319,1.319,0,0,0-.678.509,1.846,1.846,0,0,0-.424.678,3.012,3.012,0,0,0-.17.848,2.508,2.508,0,0,0,.17.848,1.846,1.846,0,0,0,.424.678,4.7,4.7,0,0,0,.678.509,2.2,2.2,0,0,0,1.7,0,1.508,1.508,0,0,0,.678-.594l.509.424a1.6,1.6,0,0,1-.848.678,2.708,2.708,0,0,1-1.187.254,2.347,2.347,0,0,1-1.1-.254,3.044,3.044,0,0,1-.848-.594,2.7,2.7,0,0,1-.763-2.035,4.3,4.3,0,0,1,.17-1.1,3.5,3.5,0,0,1,.594-.933,3.045,3.045,0,0,1,.848-.594,2.347,2.347,0,0,1,1.1-.254,4.257,4.257,0,0,1,1.017.17,2.153,2.153,0,0,1,.848.678Z" transform="translate(-351.412 -219.8)" fill="#2c4349"/>
        <path id="Path_307" data-name="Path 307" d="M372.8,220.2h.678v2.374h.085l2.459-2.374h.933l-2.628,2.459,2.8,2.968h-.933l-2.544-2.713h-.085v2.713h-.678V220.2Z" transform="translate(-352.705 -219.861)" fill="#2c4349"/>
        <path id="Path_308" data-name="Path 308" d="M379.9,224.1h1.865v.509H379.9Z" transform="translate(-353.786 -220.454)" fill="#2c4349"/>
        <path id="Path_309" data-name="Path 309" d="M389.1,223.607a2.885,2.885,0,0,1-.085.848,1.7,1.7,0,0,1-.339.678,3.685,3.685,0,0,1-.594.509,2.649,2.649,0,0,1-1.865,0,.9.9,0,0,1-.594-.509,1.7,1.7,0,0,1-.339-.678,2.614,2.614,0,0,1-.085-.848V220.3h.678v3.222a1.257,1.257,0,0,0,.085.594c.085.17.085.424.254.509s.254.254.424.339a1.441,1.441,0,0,0,1.357,0,1.849,1.849,0,0,0,.424-.339,2.822,2.822,0,0,0,.254-.509,1.443,1.443,0,0,0,.085-.594V220.3h.678v3.307Z" transform="translate(-354.592 -219.876)" fill="#2c4349"/>
        <path id="Path_310" data-name="Path 310" d="M393.2,220.2h1.611a1.652,1.652,0,0,1,.678.085,4.131,4.131,0,0,1,.594.254,1.022,1.022,0,0,1,.424.424,1.6,1.6,0,0,1,.17.678,2.475,2.475,0,0,1-.17.763,1.022,1.022,0,0,1-.424.424,4.136,4.136,0,0,1-.594.254,1.443,1.443,0,0,1-.594.085h-1.017v2.459H393.2Zm.678,2.374h1.1a1.036,1.036,0,0,0,.763-.254.881.881,0,0,0,.339-.678.688.688,0,0,0-.339-.678,1.036,1.036,0,0,0-.763-.254h-1.1Z" transform="translate(-355.809 -219.861)" fill="#2c4349"/>
      </g>
      <g id="Group_11640" data-name="Group 11640" transform="translate(224.781 306.28)">
        <path id="Path_311" data-name="Path 311" d="M251,350.6h1.611a1.867,1.867,0,0,1,.678.085c.254.085.424.085.594.254a1.022,1.022,0,0,1,.424.424,1.225,1.225,0,0,1,.17.594,1.036,1.036,0,0,1-.254.763,1.846,1.846,0,0,1-.678.424h0a1.2,1.2,0,0,1,.509.17c.17.085.254.17.424.254a1.854,1.854,0,0,1,.254.424,1.075,1.075,0,0,1,.085.509,2.025,2.025,0,0,1-.17.763.868.868,0,0,1-.509.424,5.836,5.836,0,0,1-.678.254,2.347,2.347,0,0,1-.763.085H251Zm.678,2.289h1.272c.17,0,.254-.085.424-.085l.254-.254a1.1,1.1,0,0,0,0-.848l-.254-.254a.51.51,0,0,0-.339-.085h-1.357Zm0,2.544h1.1a1.076,1.076,0,0,0,.509-.085c.17-.085.254-.085.424-.17.085-.085.254-.17.339-.254a.635.635,0,0,0,.085-.424,1.075,1.075,0,0,0-.085-.509,1.17,1.17,0,0,0-.254-.339.648.648,0,0,0-.424-.17c-.17,0-.339-.085-.509-.085h-1.1v2.035Z" transform="translate(-251 -350.261)" fill="#2c4349"/>
        <path id="Path_312" data-name="Path 312" d="M261,356.065a2.347,2.347,0,0,1-1.1-.254,2.548,2.548,0,0,1-1.526-1.526,2.5,2.5,0,0,1-.17-1.1,4.3,4.3,0,0,1,.17-1.1,2.2,2.2,0,0,1,.594-.933,2.526,2.526,0,0,1,.933-.594,2.927,2.927,0,0,1,1.1-.254,2.611,2.611,0,0,1,1.1.254,2.548,2.548,0,0,1,1.526,1.526,2.5,2.5,0,0,1,.17,1.1,4.3,4.3,0,0,1-.17,1.1,2.2,2.2,0,0,1-.594.933,2.525,2.525,0,0,1-.933.594A2.347,2.347,0,0,1,261,356.065Zm0-.594a2.509,2.509,0,0,0,.848-.17,1.319,1.319,0,0,0,.678-.509,1.846,1.846,0,0,0,.424-.678,3.013,3.013,0,0,0,.17-.848,2.509,2.509,0,0,0-.17-.848,1.846,1.846,0,0,0-.424-.678,4.7,4.7,0,0,0-.678-.509,2.2,2.2,0,0,0-1.7,0,1.319,1.319,0,0,0-.678.509,1.846,1.846,0,0,0-.424.678,3.012,3.012,0,0,0-.17.848,2.508,2.508,0,0,0,.17.848,1.846,1.846,0,0,0,.424.678,4.705,4.705,0,0,0,.678.509A1.394,1.394,0,0,0,261,355.472Z" transform="translate(-252.095 -350.215)" fill="#2c4349"/>
        <path id="Path_313" data-name="Path 313" d="M271.339,351.194h-1.781v4.833h-.678v-4.833H267.1V350.6h4.239Z" transform="translate(-253.449 -350.261)" fill="#2c4349"/>
        <path id="Path_314" data-name="Path 314" d="M278.339,351.194h-1.781v4.833h-.678v-4.833H274.1V350.6h4.239Z" transform="translate(-254.514 -350.261)" fill="#2c4349"/>
        <path id="Path_315" data-name="Path 315" d="M284.2,356.065a2.347,2.347,0,0,1-1.1-.254,2.548,2.548,0,0,1-1.526-1.526,2.5,2.5,0,0,1-.17-1.1,4.3,4.3,0,0,1,.17-1.1,2.2,2.2,0,0,1,.594-.933,2.526,2.526,0,0,1,.933-.594,2.927,2.927,0,0,1,1.1-.254,2.611,2.611,0,0,1,1.1.254,2.548,2.548,0,0,1,1.526,1.526,2.5,2.5,0,0,1,.17,1.1,4.3,4.3,0,0,1-.17,1.1,2.2,2.2,0,0,1-.594.933,2.525,2.525,0,0,1-.933.594A2.347,2.347,0,0,1,284.2,356.065Zm0-.594a2.509,2.509,0,0,0,.848-.17,1.319,1.319,0,0,0,.678-.509,1.846,1.846,0,0,0,.424-.678,3.013,3.013,0,0,0,.17-.848,2.509,2.509,0,0,0-.17-.848,1.846,1.846,0,0,0-.424-.678,4.7,4.7,0,0,0-.678-.509,2.2,2.2,0,0,0-1.7,0,1.319,1.319,0,0,0-.678.509,1.846,1.846,0,0,0-.424.678,3.012,3.012,0,0,0-.17.848,2.508,2.508,0,0,0,.17.848,1.846,1.846,0,0,0,.424.678,4.705,4.705,0,0,0,.678.509A1.394,1.394,0,0,0,284.2,355.472Z" transform="translate(-255.625 -350.215)" fill="#2c4349"/>
        <path id="Path_316" data-name="Path 316" d="M291,350.6h.933l1.865,4.239h0l1.865-4.239h.933v5.426h-.678v-4.494h0l-1.95,4.494h-.424l-1.95-4.494h0v4.494H291Z" transform="translate(-257.085 -350.261)" fill="#2c4349"/>
        <path id="Path_317" data-name="Path 317" d="M301.409,352.6a.643.643,0,0,1,.339.17.481.481,0,1,1-.848.339.643.643,0,0,1,.17-.339A.44.44,0,0,1,301.409,352.6Zm0,2.8a.643.643,0,0,1,.339.17.481.481,0,1,1-.848.339.643.643,0,0,1,.17-.339A.44.44,0,0,1,301.409,355.4Z" transform="translate(-258.591 -350.565)" fill="#2c4349"/>
        <path id="Path_318" data-name="Path 318" d="M313.37,351.641a1.14,1.14,0,0,0-.594-.509,2.476,2.476,0,0,0-.763-.17,2.509,2.509,0,0,0-.848.17,1.318,1.318,0,0,0-.678.509,1.846,1.846,0,0,0-.424.678,3.013,3.013,0,0,0-.17.848,2.509,2.509,0,0,0,.17.848,1.846,1.846,0,0,0,.424.678,4.7,4.7,0,0,0,.678.509,2.2,2.2,0,0,0,1.7,0,2.286,2.286,0,0,0,.678-.594l.509.424a1.6,1.6,0,0,1-.848.678,2.708,2.708,0,0,1-1.187.254,2.347,2.347,0,0,1-1.1-.254,3.044,3.044,0,0,1-.848-.594,2.7,2.7,0,0,1-.763-2.035,4.3,4.3,0,0,1,.17-1.1,3.5,3.5,0,0,1,.594-.933,3.047,3.047,0,0,1,.848-.594,2.347,2.347,0,0,1,1.1-.254,4.257,4.257,0,0,1,1.017.17,2.154,2.154,0,0,1,.848.678Z" transform="translate(-259.869 -350.2)" fill="#2c4349"/>
        <path id="Path_319" data-name="Path 319" d="M321.8,353.907a2.885,2.885,0,0,1-.085.848,1.7,1.7,0,0,1-.339.678,3.688,3.688,0,0,1-.594.509,2.649,2.649,0,0,1-1.865,0,.9.9,0,0,1-.594-.509,1.7,1.7,0,0,1-.339-.678,2.614,2.614,0,0,1-.085-.848V350.6h.678v3.222a1.257,1.257,0,0,0,.085.594c.085.17.085.424.254.509a.846.846,0,0,0,.424.339,1.441,1.441,0,0,0,1.357,0,1.849,1.849,0,0,0,.424-.339l.254-.509a1.443,1.443,0,0,0,.085-.594V350.6h.678v3.307Z" transform="translate(-261.178 -350.261)" fill="#2c4349"/>
        <path id="Path_320" data-name="Path 320" d="M329.439,351.194h-1.781v4.833h-.678v-4.833H325.2V350.6h4.239Z" transform="translate(-262.288 -350.261)" fill="#2c4349"/>
        <path id="Path_321" data-name="Path 321" d="M332.9,350.6h.678v5.426H332.9Z" transform="translate(-263.46 -350.261)" fill="#2c4349"/>
        <path id="Path_322" data-name="Path 322" d="M340.77,351.641a1.14,1.14,0,0,0-.594-.509,2.476,2.476,0,0,0-.763-.17,2.509,2.509,0,0,0-.848.17,1.318,1.318,0,0,0-.678.509,1.846,1.846,0,0,0-.424.678,3.013,3.013,0,0,0-.17.848,2.509,2.509,0,0,0,.17.848,1.846,1.846,0,0,0,.424.678,4.7,4.7,0,0,0,.678.509,2.2,2.2,0,0,0,1.7,0,2.286,2.286,0,0,0,.678-.594l.509.424a1.6,1.6,0,0,1-.848.678,2.708,2.708,0,0,1-1.187.254,2.347,2.347,0,0,1-1.1-.254,3.044,3.044,0,0,1-.848-.594,2.7,2.7,0,0,1-.763-2.035,4.3,4.3,0,0,1,.17-1.1,3.5,3.5,0,0,1,.594-.933,3.047,3.047,0,0,1,.848-.594,2.347,2.347,0,0,1,1.1-.254,4.257,4.257,0,0,1,1.017.17,2.154,2.154,0,0,1,.848.678Z" transform="translate(-264.038 -350.2)" fill="#2c4349"/>
        <path id="Path_323" data-name="Path 323" d="M345.1,350.6h.678v4.833h2.459v.594H345.1V350.6Z" transform="translate(-265.316 -350.261)" fill="#2c4349"/>
        <path id="Path_324" data-name="Path 324" d="M351.4,350.6h3.391v.594h-2.713v1.7h2.544v.594h-2.544v1.95h2.883v.594H351.4V350.6Z" transform="translate(-266.274 -350.261)" fill="#2c4349"/>
      </g>
    </g>
  </g>
</svg>
