<svg xmlns="http://www.w3.org/2000/svg" width="199.5" height="312.321" viewBox="0 0 199.5 312.321">
  <path id="Path" d="M184.032,146.178c-9.849-20.616-21.183-42.1-33.69-63.88C143,69.512,135.162,57.487,126.821,44.684l-.8-1.237c-3.264-5.006-6.593-10.12-9.953-15.41L98.232,0,74.575,37.113c-3.36,5.248-6.537,10.2-9.642,15.268C43.782,86.87,25.146,118.35,11.33,154.41,5.919,168.533.339,185.322.02,202.7c-1.085,58.03,41.655,107.16,95.282,109.525,1.357.059,2.7.092,4.047.092.327,0,.654,0,.99-.008,51.664-.518,94.149-43.548,98.818-100.09,2.131-25.781-6.01-46.982-15.125-66.044" fill="#fdd3b9"/>
</svg>
