<svg xmlns="http://www.w3.org/2000/svg" width="503" height="63" viewBox="0 0 503 63">
    <path fill="#2C4349" d="M65.533 17.115c.644 0 1.08-.391 1.08-1.012 0-.184-.068-.437-.16-.667l-5.59-13.8c-.23-.575-.597-.851-1.15-.851-.551 0-.92.276-1.15.851l-5.588 13.8c-.092.23-.161.483-.161.667 0 .621.437 1.012 1.08 1.012.392 0 .783-.161.99-.713l1.426-3.634h6.808l1.426 3.634c.207.552.598.713.989.713zm-3.151-6.256h-5.336l2.668-6.785 2.668 6.785zm16.092 6.256c.644 0 1.104-.437 1.104-1.127V2.924h4.945c.69 0 1.127-.391 1.127-1.012 0-.598-.437-1.012-1.127-1.012H72.448c-.667 0-1.127.414-1.127 1.012 0 .621.437 1.012 1.127 1.012h4.945v13.064c0 .69.437 1.127 1.081 1.127zm31.755 0c.644 0 1.081-.46 1.081-1.173V1.935c0-.713-.437-1.173-1.08-1.173-.668 0-1.105.46-1.105 1.173V7.8h-7.038V1.935c0-.713-.437-1.173-1.08-1.173-.668 0-1.105.46-1.105 1.173v14.007c0 .713.437 1.173 1.104 1.173.644 0 1.081-.46 1.081-1.173V9.778h7.038v6.164c0 .713.437 1.173 1.104 1.173zm14.16.23c4.026 0 6.694-3.289 6.694-8.395 0-4.991-2.783-8.395-6.693-8.395-3.933 0-6.693 3.404-6.693 8.395 0 5.106 2.622 8.395 6.693 8.395zm0-2.024c-2.782 0-4.507-2.484-4.507-6.371 0-3.818 1.794-6.371 4.508-6.371 2.668 0 4.508 2.576 4.508 6.371 0 3.91-1.748 6.371-4.508 6.371zm23.683 1.794c.644 0 1.058-.414 1.058-1.104V1.958c0-.713-.414-1.173-1.104-1.173-.529 0-.897.253-1.127.805l-3.726 9.062-3.726-9.062c-.23-.552-.598-.805-1.127-.805-.69 0-1.104.46-1.104 1.173v14.053c0 .69.414 1.104 1.058 1.104.621 0 1.035-.437 1.035-1.104V6.144l2.76 6.486c.253.575.598.851 1.104.851.506 0 .851-.276 1.104-.851l2.76-6.486v9.867c0 .667.414 1.104 1.035 1.104zM167.246 17c.667 0 1.127-.391 1.127-1.035 0-.598-.46-1.012-1.127-1.012h-8.602V9.824h7.705c.667 0 1.058-.368 1.058-.989s-.39-.943-1.058-.943h-7.705V2.947h8.602c.667 0 1.104-.391 1.104-1.012S167.913.9 167.246.9h-9.545c-.828 0-1.242.414-1.242 1.242v13.616c0 .828.414 1.242 1.242 1.242h9.545zm26.903.115c.644 0 1.058-.414 1.058-1.104V1.958c0-.713-.414-1.173-1.104-1.173-.53 0-.897.253-1.127.805l-3.726 9.062-3.726-9.062c-.23-.552-.598-.805-1.127-.805-.69 0-1.104.46-1.104 1.173v14.053c0 .69.414 1.104 1.058 1.104.62 0 1.035-.437 1.035-1.104V6.144l2.76 6.486c.253.575.598.851 1.104.851.506 0 .85-.276 1.104-.851l2.76-6.486v9.867c0 .667.414 1.104 1.035 1.104zm19.703 0c.644 0 1.081-.391 1.081-1.012 0-.184-.069-.437-.161-.667l-5.589-13.8c-.23-.575-.598-.851-1.15-.851-.552 0-.92.276-1.15.851l-5.589 13.8c-.092.23-.161.483-.161.667 0 .621.437 1.012 1.081 1.012.391 0 .782-.161.989-.713l1.426-3.634h6.808l1.426 3.634c.207.552.598.713.989.713zm-3.151-6.256h-5.336l2.668-6.785 2.668 6.785zm20.922 6.256c.69 0 1.127-.46 1.127-1.219V1.912c0-.69-.46-1.127-1.104-1.127-.644 0-1.08.437-1.08 1.127V12.86l-7.384-11.362c-.322-.506-.69-.713-1.173-.713-.69 0-1.127.46-1.127 1.219v13.984c0 .69.437 1.127 1.081 1.127.644 0 1.104-.437 1.104-1.127V5.04l7.406 11.362c.345.552.713.713 1.15.713zm18.3-.115c.714 0 1.128-.391 1.128-1.012 0-.598-.437-1.012-1.127-1.012h-3.243V2.924h3.15c.714 0 1.128-.391 1.128-1.012 0-.598-.414-1.012-1.127-1.012h-8.487c-.69 0-1.127.414-1.127 1.012 0 .621.414 1.012 1.127 1.012h3.174v12.052h-3.266c-.667 0-1.127.414-1.127 1.012 0 .621.437 1.012 1.127 1.012h8.67zm27.294 0c.713 0 1.127-.391 1.127-1.012 0-.598-.437-1.012-1.127-1.012h-3.243V2.924h3.151c.713 0 1.127-.391 1.127-1.012 0-.598-.414-1.012-1.127-1.012h-8.487c-.69 0-1.127.414-1.127 1.012 0 .621.414 1.012 1.127 1.012h3.174v12.052h-3.266c-.667 0-1.127.414-1.127 1.012 0 .621.437 1.012 1.127 1.012h8.671zm19.266.115c.69 0 1.127-.46 1.127-1.219V1.912c0-.69-.46-1.127-1.104-1.127-.644 0-1.08.437-1.08 1.127V12.86l-7.384-11.362c-.322-.506-.69-.713-1.173-.713-.69 0-1.127.46-1.127 1.219v13.984c0 .69.437 1.127 1.081 1.127.644 0 1.104-.437 1.104-1.127V5.04l7.406 11.362c.345.552.713.713 1.15.713zm27.386 0c.644 0 1.058-.414 1.058-1.104V1.958c0-.713-.414-1.173-1.104-1.173-.53 0-.897.253-1.127.805l-3.726 9.062-3.726-9.062c-.23-.552-.598-.805-1.127-.805-.69 0-1.104.46-1.104 1.173v14.053c0 .69.414 1.104 1.058 1.104.62 0 1.035-.437 1.035-1.104V6.144l2.76 6.486c.253.575.598.851 1.104.851.506 0 .85-.276 1.104-.851l2.76-6.486v9.867c0 .667.414 1.104 1.035 1.104zM342.077 17c.713 0 1.127-.391 1.127-1.012 0-.598-.437-1.012-1.127-1.012h-3.243V2.924h3.151c.713 0 1.127-.391 1.127-1.012 0-.598-.414-1.012-1.127-1.012h-8.487c-.69 0-1.127.414-1.127 1.012 0 .621.414 1.012 1.127 1.012h3.174v12.052h-3.266c-.667 0-1.127.414-1.127 1.012 0 .621.437 1.012 1.127 1.012h8.671zm19.266.115c.69 0 1.127-.46 1.127-1.219V1.912c0-.69-.46-1.127-1.104-1.127-.644 0-1.08.437-1.08 1.127V12.86l-7.384-11.362c-.322-.506-.69-.713-1.173-.713-.69 0-1.127.46-1.127 1.219v13.984c0 .69.437 1.127 1.081 1.127.644 0 1.104-.437 1.104-1.127V5.04l7.406 11.362c.345.552.713.713 1.15.713zm13.977.115c3.749 0 5.865-2.185 5.865-6.072V1.889c0-.69-.437-1.127-1.081-1.127-.621 0-1.035.437-1.035 1.127v9.062c0 2.898-1.196 4.278-3.75 4.278-2.53 0-3.748-1.38-3.748-4.301V1.889c0-.667-.414-1.127-1.058-1.127-.644 0-1.058.46-1.058 1.127v9.269c0 3.864 2.116 6.072 5.865 6.072zm18.76-.115c.644 0 1.104-.437 1.104-1.127V2.924h4.945c.69 0 1.127-.391 1.127-1.012 0-.598-.437-1.012-1.127-1.012h-12.075c-.667 0-1.127.414-1.127 1.012 0 .621.437 1.012 1.127 1.012h4.945v13.064c0 .69.437 1.127 1.081 1.127zM418.176 17c.667 0 1.127-.391 1.127-1.035 0-.598-.46-1.012-1.127-1.012h-8.602V9.824h7.705c.667 0 1.058-.368 1.058-.989s-.39-.943-1.058-.943h-7.705V2.947h8.602c.667 0 1.104-.391 1.104-1.012S418.843.9 418.176.9h-9.545c-.828 0-1.242.414-1.242 1.242v13.616c0 .828.414 1.242 1.242 1.242h9.545zm14.23.345c3.473 0 5.842-1.84 5.842-4.646 0-3.841-3.243-4.393-6.095-4.899-2.277-.414-4.301-.828-4.301-2.737 0-1.541 1.288-2.668 3.427-2.668 1.886 0 3.427 1.012 4.393 2.622.276.437.552.621.943.621.62 0 1.058-.368 1.058-.966 0-.23-.092-.529-.276-.874-1.173-2.024-3.473-3.266-6.164-3.266-3.22 0-5.405 2.07-5.405 4.531 0 3.588 3.105 4.14 5.934 4.646 2.254.414 4.508.828 4.508 2.944 0 1.725-1.472 2.829-3.864 2.829-2.668 0-4.393-1.403-5.198-3.703-.138-.391-.552-.713-1.035-.713-.644 0-1.058.414-1.058 1.035 0 .253.069.529.207.851 1.058 2.484 3.588 4.393 7.084 4.393zM10.874 62v-1.898H7.392V45.29H5.124l-4.2 2v2.178l4.222-2.033v12.668H1.62V62h9.254zm17.68 0v-1.898h-3.481V45.29h-2.269l-4.2 2v2.178l4.223-2.033v12.668H19.3V62h9.254zm26.187.115c.69 0 1.127-.46 1.127-1.219V46.912c0-.69-.46-1.127-1.104-1.127-.644 0-1.081.437-1.081 1.127V57.86L46.3 46.498c-.322-.506-.69-.713-1.173-.713-.69 0-1.127.46-1.127 1.219v13.984c0 .69.437 1.127 1.08 1.127.645 0 1.105-.437 1.105-1.127V50.04l7.406 11.362c.345.552.713.713 1.15.713zm19.795 0c.644 0 1.08-.391 1.08-1.012 0-.184-.068-.437-.16-.667l-5.59-13.8c-.23-.575-.597-.851-1.15-.851-.551 0-.92.276-1.15.851l-5.588 13.8c-.092.23-.161.483-.161.667 0 .621.437 1.012 1.08 1.012.392 0 .783-.161.99-.713l1.426-3.634h6.808l1.426 3.634c.207.552.598.713.989.713zm-3.151-6.256h-5.336l2.668-6.785 2.668 6.785zM91.825 62c.712 0 1.126-.391 1.126-1.012 0-.598-.437-1.012-1.127-1.012h-3.243V47.924h3.151c.713 0 1.127-.391 1.127-1.012 0-.598-.414-1.012-1.127-1.012h-8.487c-.69 0-1.127.414-1.127 1.012 0 .621.414 1.012 1.127 1.012h3.174v12.052h-3.266c-.667 0-1.127.414-1.127 1.012 0 .621.437 1.012 1.127 1.012h8.671zm19.749 0c.69 0 1.127-.391 1.127-1.012 0-.598-.437-1.012-1.127-1.012h-7.682V46.958c0-.736-.414-1.173-1.081-1.173-.69 0-1.104.437-1.104 1.173v13.984c0 .621.437 1.058 1.058 1.058h8.809zm26.72.115c.643 0 1.08-.391 1.08-1.012 0-.184-.069-.437-.16-.667l-5.59-13.8c-.23-.575-.598-.851-1.15-.851-.552 0-.92.276-1.15.851l-5.589 13.8c-.092.23-.16.483-.16.667 0 .621.436 1.012 1.08 1.012.391 0 .782-.161.99-.713l1.425-3.634h6.808l1.426 3.634c.207.552.598.713.99.713zm-3.152-6.256h-5.336l2.668-6.785 2.668 6.785zm21.29 6.256c.644 0 1.012-.46 1.012-.989 0-.276-.138-.575-.414-.92l-3.542-4.669c2.392-.368 3.91-2.162 3.91-4.807 0-2.921-1.909-4.83-4.807-4.83h-5.842c-.782 0-1.219.437-1.219 1.196v13.892c0 .69.437 1.127 1.081 1.127.644 0 1.104-.437 1.104-1.127v-5.382h3.22l4.6 6.072c.23.299.552.437.897.437zm-4.025-8.487h-4.692v-5.75h4.692c1.748 0 2.806 1.081 2.806 2.852 0 1.794-1.058 2.898-2.806 2.898zm17.61 8.487c.645 0 1.105-.437 1.105-1.127V47.924h4.945c.69 0 1.127-.391 1.127-1.012 0-.598-.437-1.012-1.127-1.012h-12.075c-.667 0-1.127.414-1.127 1.012 0 .621.437 1.012 1.127 1.012h4.945v13.064c0 .69.437 1.127 1.08 1.127zM193.149 62c.713 0 1.127-.391 1.127-1.012 0-.598-.437-1.012-1.127-1.012h-3.243V47.924h3.151c.713 0 1.127-.391 1.127-1.012 0-.598-.414-1.012-1.127-1.012h-8.487c-.69 0-1.127.414-1.127 1.012 0 .621.414 1.012 1.127 1.012h3.174v12.052h-3.266c-.667 0-1.127.414-1.127 1.012 0 .621.437 1.012 1.127 1.012h8.671zm15.195.345c3.473 0 5.842-1.84 5.842-4.646 0-3.841-3.243-4.393-6.095-4.899-2.277-.414-4.3-.828-4.3-2.737 0-1.541 1.287-2.668 3.426-2.668 1.886 0 3.427 1.012 4.393 2.622.276.437.552.621.943.621.621 0 1.058-.368 1.058-.966 0-.23-.092-.529-.276-.874-1.173-2.024-3.473-3.266-6.164-3.266-3.22 0-5.405 2.07-5.405 4.531 0 3.588 3.105 4.14 5.934 4.646 2.254.414 4.508.828 4.508 2.944 0 1.725-1.472 2.829-3.864 2.829-2.668 0-4.393-1.403-5.198-3.703-.138-.391-.552-.713-1.035-.713-.644 0-1.058.414-1.058 1.035 0 .253.07.529.207.851 1.058 2.484 3.588 4.393 7.084 4.393zm18.025-.23c.644 0 1.104-.437 1.104-1.127V47.924h4.945c.69 0 1.127-.391 1.127-1.012 0-.598-.437-1.012-1.127-1.012h-12.075c-.667 0-1.127.414-1.127 1.012 0 .621.437 1.012 1.127 1.012h4.945v13.064c0 .69.437 1.127 1.08 1.127zm19.542.23c3.473 0 5.842-1.84 5.842-4.646 0-3.841-3.243-4.393-6.095-4.899-2.277-.414-4.3-.828-4.3-2.737 0-1.541 1.287-2.668 3.426-2.668 1.886 0 3.427 1.012 4.393 2.622.276.437.552.621.943.621.621 0 1.058-.368 1.058-.966 0-.23-.092-.529-.276-.874-1.173-2.024-3.473-3.266-6.164-3.266-3.22 0-5.405 2.07-5.405 4.531 0 3.588 3.105 4.14 5.934 4.646 2.254.414 4.508.828 4.508 2.944 0 1.725-1.472 2.829-3.864 2.829-2.668 0-4.393-1.403-5.198-3.703-.138-.391-.552-.713-1.035-.713-.644 0-1.058.414-1.058 1.035 0 .253.07.529.207.851 1.058 2.484 3.588 4.393 7.084 4.393zm26.557-.115c3.75 0 5.865-2.185 5.865-6.072v-9.269c0-.69-.437-1.127-1.08-1.127-.622 0-1.036.437-1.036 1.127v9.062c0 2.898-1.196 4.278-3.749 4.278-2.53 0-3.749-1.38-3.749-4.301v-9.039c0-.667-.414-1.127-1.058-1.127-.644 0-1.058.46-1.058 1.127v9.269c0 3.864 2.116 6.072 5.865 6.072zm23.59-.115c.69 0 1.128-.46 1.128-1.219V46.912c0-.69-.46-1.127-1.104-1.127-.644 0-1.081.437-1.081 1.127V57.86l-7.383-11.362c-.322-.506-.69-.713-1.173-.713-.69 0-1.127.46-1.127 1.219v13.984c0 .69.437 1.127 1.08 1.127.645 0 1.105-.437 1.105-1.127V50.04l7.406 11.362c.345.552.713.713 1.15.713zM314.359 62c.713 0 1.127-.391 1.127-1.012 0-.598-.437-1.012-1.127-1.012h-3.243V47.924h3.151c.713 0 1.127-.391 1.127-1.012 0-.598-.414-1.012-1.127-1.012h-8.487c-.69 0-1.127.414-1.127 1.012 0 .621.414 1.012 1.127 1.012h3.174v12.052h-3.266c-.667 0-1.127.414-1.127 1.012 0 .621.437 1.012 1.127 1.012h8.671zm14.436.115c.644 0 1.104-.437 1.104-1.127V47.924h4.945c.69 0 1.127-.391 1.127-1.012 0-.598-.437-1.012-1.127-1.012h-12.075c-.667 0-1.127.414-1.127 1.012 0 .621.437 1.012 1.127 1.012h4.945v13.064c0 .69.437 1.127 1.081 1.127zM352.891 62c.667 0 1.127-.391 1.127-1.035 0-.598-.46-1.012-1.127-1.012h-8.602v-5.129h7.705c.667 0 1.058-.368 1.058-.989s-.391-.943-1.058-.943h-7.705v-4.945h8.602c.667 0 1.104-.391 1.104-1.012s-.437-1.035-1.104-1.035h-9.545c-.828 0-1.242.414-1.242 1.242v13.616c0 .828.414 1.242 1.242 1.242h9.545zm13.493 0c3.75 0 6.348-3.266 6.348-8.05 0-4.807-2.622-8.05-6.417-8.05h-4.577c-.85 0-1.265.46-1.265 1.311v13.478c0 .874.414 1.311 1.265 1.311h4.646zm-.092-2.024h-3.634V47.924h3.565c2.691 0 4.324 2.3 4.324 6.026 0 3.68-1.61 6.026-4.255 6.026zM395.586 62c2.553 0 4.324-1.84 4.324-4.577 0-1.863-.92-3.404-2.507-4.002 1.104-.667 1.725-1.886 1.725-3.289 0-2.484-1.725-4.232-4.209-4.232h-5.773c-.874 0-1.265.391-1.265 1.288v13.524c0 .874.414 1.288 1.265 1.288h6.44zm-.874-9.269h-4.646v-4.807h4.646c1.403 0 2.254.897 2.254 2.369 0 1.518-.874 2.438-2.254 2.438zm.46 7.245h-5.106v-5.29h5.106c1.61 0 2.553.989 2.553 2.645 0 1.679-.943 2.645-2.553 2.645zm17.266 2.139c.667 0 1.104-.437 1.104-1.15v-5.681l5.428-7.82c.16-.253.23-.483.23-.736 0-.506-.483-.943-1.035-.943-.391 0-.644.138-.874.46l-4.876 6.992-4.807-6.992c-.23-.322-.483-.46-.874-.46-.552 0-1.035.437-1.035.943 0 .253.046.46.23.736l5.428 7.843v5.658c0 .713.437 1.15 1.08 1.15zm27.96.23c2.737 0 5.037-1.725 5.865-4.14.092-.299.161-.575.161-.805 0-.598-.46-1.035-1.104-1.035-.483 0-.85.299-1.058.897-.667 1.909-2.116 3.059-3.979 3.059-2.852 0-4.784-2.599-4.784-6.371 0-3.818 1.932-6.371 4.784-6.371 1.84 0 3.29 1.173 3.98 3.059.23.621.597.897 1.08.897.644 0 1.081-.437 1.081-1.081 0-.299-.046-.529-.16-.828-.92-2.415-3.175-4.071-5.866-4.071-4.163 0-7.084 3.427-7.084 8.395s2.921 8.395 7.084 8.395zm23.958-.23c.644 0 1.081-.391 1.081-1.012 0-.184-.069-.437-.16-.667l-5.59-13.8c-.23-.575-.598-.851-1.15-.851-.552 0-.92.276-1.15.851l-5.589 13.8c-.092.23-.16.483-.16.667 0 .621.436 1.012 1.08 1.012.391 0 .782-.161.99-.713l1.425-3.634h6.808l1.426 3.634c.207.552.598.713.99.713zm-3.15-6.256h-5.337l2.668-6.785 2.668 6.785zm21.29 6.256c.644 0 1.012-.46 1.012-.989 0-.276-.138-.575-.414-.92l-3.542-4.669c2.392-.368 3.91-2.162 3.91-4.807 0-2.921-1.91-4.83-4.807-4.83h-5.842c-.782 0-1.22.437-1.22 1.196v13.892c0 .69.438 1.127 1.082 1.127.644 0 1.104-.437 1.104-1.127v-5.382h3.22l4.6 6.072c.23.299.552.437.897.437zm-4.025-8.487h-4.692v-5.75h4.692c1.748 0 2.806 1.081 2.806 2.852 0 1.794-1.058 2.898-2.806 2.898zM501.394 62c.667 0 1.127-.391 1.127-1.035 0-.598-.46-1.012-1.127-1.012h-8.602v-5.129h7.705c.667 0 1.058-.368 1.058-.989s-.39-.943-1.058-.943h-7.705v-4.945h8.602c.667 0 1.104-.391 1.104-1.012s-.437-1.035-1.104-1.035h-9.545c-.828 0-1.242.414-1.242 1.242v13.616c0 .828.414 1.242 1.242 1.242h9.545z"/>
</svg>
