<svg xmlns="http://www.w3.org/2000/svg" width="15" height="15" viewBox="0 0 15 15">
    <g fill="#2C4349" fill-rule="nonzero">
        <path d="M13.454 12.815H.64a.64.64 0 1 0 0 1.282h12.812a.64.64 0 1 0 0-1.282zM1.442 11.15a.64.64 0 1 0 0 1.281h11.21a.64.64 0 0 0 0-1.281h-.16V5.382h.16a.32.32 0 1 0 0-.64H1.442a.32.32 0 1 0 0 .64h.16v5.766h-.16zm9.769-5.767v5.766H9.289V5.384h1.922zm-3.203 0v5.766H6.086V5.384h1.922zm-5.125 0h1.921v5.766H2.883V5.384zM.64 4.167h12.82a.64.64 0 0 0 .207-1.247L7.31.06a.642.642 0 0 0-.525 0L.378 2.942a.64.64 0 0 0 .263 1.225z"/>
    </g>
</svg>
