<?xml version="1.0" encoding="utf-8"?>
<!-- Generator: Adobe Illustrator 23.0.3, SVG Export Plug-In . SVG Version: 6.00 Build 0)  -->
<svg version="1.1" id="Capa_1" xmlns="http://www.w3.org/2000/svg" xmlns:xlink="http://www.w3.org/1999/xlink" x="0px" y="0px"
	 viewBox="0 0 26 37" style="enable-background:new 0 0 26 37;" xml:space="preserve">
<style type="text/css">
	.st0{fill:#F7BFA0;}
</style>
<title>BAG</title>
<desc>Created with Sketch.</desc>
<g id="Page-1">
	<g id="DETAIL-PRODUCT-Copy-2" transform="translate(-1076.000000, -32.000000)">
		<g id="cart_sidebar" transform="translate(1011.000000, 0.000000)">
			<g id="Group-3" transform="translate(66.000000, 32.000000)">
				<g>
					<g id="BAG" transform="translate(0.000000, 0.535070)">
						<g id="Rectangle-3">
							<path class="st0" d="M18.9,9V5.7c0-3.4-2.8-6.2-6.2-6.2c-3.4,0-6.2,2.8-6.2,6.2V9H0v26h24.5V9H18.9z M12.7,0.5
								c2.9,0,5.2,2.3,5.2,5.2v5.5c-2.2,0.2-4.1-0.2-5.8-1.2c-0.5-0.3-1-0.6-1.4-1C9.5,8,8.5,6.6,7.6,4.9C7.9,2.4,10.1,0.5,12.7,0.5
								z M23.5,34H1V10h5.5v1.7h1V6.8C8,7.6,8.6,8.4,9.3,9c0.3,0.4,0.7,0.7,1.1,1c1.9,1.5,4.1,2.2,6.6,2.2c0.5,0,1,0,1.4-0.1l0.5,0
								V10h4.6V34z"/>
						</g>
					</g>
				</g>
			</g>
		</g>
	</g>
</g>
</svg>
