<svg xmlns="http://www.w3.org/2000/svg" width="42" height="20" viewBox="0 0 42 20">
    <g fill="none" fill-rule="evenodd">
        <g stroke="#F5BFA0" stroke-width="1.5">
            <g>
                <g>
                    <g>
                        <path d="M22.941 6.209c-.423 1.55-.806 3.22-1.137 4.963-.195 1.023-.328 2.032-.468 3.106l-.014.103c-.055.42-.112.849-.175 1.288L20.815 18l3.033-.724c.43-.101.835-.197 1.243-.302 2.773-.715 5.267-1.4 7.71-2.562.957-.454 2.048-1.038 2.878-1.914 2.772-2.926 2.724-7.583-.108-10.383-.071-.071-.143-.14-.217-.207l-.055-.05c-2.859-2.553-7.201-2.466-10.1.204-1.322 1.217-1.867 2.713-2.258 4.147M18.262 6.209c.424 1.55.806 3.22 1.138 4.963.195 1.023.327 2.032.468 3.106l.014.103c.055.42.111.849.174 1.288L20.388 18l-3.033-.724c-.43-.101-.835-.197-1.242-.302-2.773-.715-5.267-1.4-7.71-2.562-.958-.454-2.048-1.038-2.879-1.914-2.772-2.926-2.723-7.583.108-10.383.072-.071.144-.14.218-.207l.055-.05c2.858-2.553 7.2-2.466 10.1.204 1.322 1.217 1.866 2.713 2.257 4.147M40.99 14.4L20.388 18M0 14.4L20.602 18" transform="translate(-167 -430) translate(-62 431) translate(50) translate(179.5)"/>
                    </g>
                </g>
            </g>
        </g>
    </g>
</svg>
