<svg xmlns="http://www.w3.org/2000/svg" width="14.808" height="21.493" viewBox="0 0 14.808 21.493">
  <g id="Component_9_9" data-name="Component 9 – 9" transform="translate(0.5 0.884)">
    <path id="Path_96" data-name="Path 96" d="M12.742,9.411c-.68-1.33-1.47-2.71-2.334-4.112-.5-.827-1.049-1.6-1.625-2.423L8.723,2.8Q8.38,2.311,8.036,1.8L6.8,0,5.163,2.387c-.236.338-.451.654-.665.985A38.594,38.594,0,0,0,.783,9.943,8.691,8.691,0,0,0,0,13.049,6.945,6.945,0,0,0,6.6,20.1c.1.007.185.007.281.007h.066a6.971,6.971,0,0,0,6.84-6.442A7.491,7.491,0,0,0,12.742,9.411Z" transform="translate(0.002)" fill="none" stroke="#f7bfa0" stroke-width="1"/>
  </g>
</svg>
