<?xml version="1.0" encoding="utf-8"?>
<!-- Generator: Adobe Illustrator 24.1.0, SVG Export Plug-In . SVG Version: 6.00 Build 0)  -->
<svg version="1.0" id="Capa_1" xmlns="http://www.w3.org/2000/svg" xmlns:xlink="http://www.w3.org/1999/xlink" x="0px" y="0px"
	 viewBox="0 0 518 34.4" style="enable-background:new 0 0 518 34.4;" xml:space="preserve">
<path style="fill:#36444A;" d="M12.9,24c-1.3,1.6-3.2,2.4-5.2,2.3c-3.6-0.1-6.4-3.3-6.3-7c0-1.1,0.4-2.2,0.8-3.2
	c0.2-0.4,0.4-0.8,0.6-1.3C4.1,17.1,7.6,21.4,12.9,24 M14.6,19.9c-0.1,1-0.4,2-0.9,2.9C7.9,20.1,4,14.7,3.5,13.2
	c0.9-1.6,1.9-3.2,2.8-4.7c0.2-0.4,0.5-0.7,0.8-1.2l0.7-1.1l0.3,0.4C8.5,7.1,8.8,7.5,9.1,8c0.6,0.9,1.3,1.8,1.8,2.8
	c1,1.6,1.9,3.2,2.6,4.8C14.2,16.8,14.7,18.2,14.6,19.9 M14.8,14.9c-0.8-1.6-1.7-3.2-2.7-4.9c-0.6-1-1.2-1.9-1.9-2.9l-0.1-0.1
	C9.8,6.7,9.6,6.3,9.3,5.9L7.9,3.7L6,6.6C5.7,7,5.5,7.4,5.2,7.7c-1.7,2.6-3.2,5.1-4.3,7.8C0.5,16.6,0,17.9,0,19.3
	c-0.1,4.4,3.3,8.2,7.6,8.4c0.1,0,0.2,0,0.3,0c0,0,0.1,0,0.1,0c4.1,0,7.5-3.3,7.9-7.7C16.1,18,15.5,16.4,14.8,14.9 M32.4,18.6
	L23.9,6.5l0,18.1l1.8,0l0-12.7l6.7,9.7l6.8-9.7l0,12.7l1.8,0l0-18.1L32.4,18.6L32.4,18.6z M90.5,18.8L81.9,6.7l0,18.1l1.8,0l0-12.7
	l6.7,9.7l6.8-9.7l0,12.7l1.8,0l0-18.1L90.5,18.8L90.5,18.8z M55,21L55,21c-0.5,0.7-1,1.3-1.6,1.7c-0.6,0.4-1.4,0.7-2.4,0.7
	c-0.6,0-1.2-0.1-1.8-0.4c-0.5-0.2-1-0.6-1.4-1c-0.4-0.4-0.7-1-0.9-1.6c-0.2-0.6-0.3-1.3-0.3-2c0-0.7,0.1-1.4,0.3-2
	c0.2-0.6,0.5-1.1,0.9-1.6c0.4-0.4,0.9-0.8,1.4-1c0.5-0.2,1.1-0.4,1.8-0.4c1,0,1.8,0.2,2.4,0.7c0.6,0.4,1.2,1,1.6,1.7l0,0L55,21z
	 M53.4,12.2c-0.7-0.4-1.6-0.6-2.7-0.6c-0.9,0-1.7,0.2-2.4,0.5c-0.7,0.3-1.4,0.8-1.9,1.4c-0.5,0.6-0.9,1.3-1.2,2.1
	c-0.3,0.8-0.4,1.7-0.4,2.7c0,1,0.1,1.9,0.4,2.7c0.3,0.8,0.7,1.5,1.2,2.1c0.5,0.6,1.1,1,1.9,1.4c0.7,0.3,1.5,0.5,2.4,0.5
	c0.5,0,1-0.1,1.5-0.2c0.4-0.1,0.9-0.3,1.2-0.4c0.4-0.2,0.7-0.4,0.9-0.6c0.3-0.2,0.5-0.5,0.7-0.7l0.1-0.1l0.1,1.8l1.6,0l0-12.7
	l-1.6,0l-0.1,1.8L55,13.6C54.6,13.1,54.1,12.6,53.4,12.2 M70.6,13.1c-0.4-0.5-0.9-0.8-1.5-1.1c-0.6-0.3-1.3-0.4-2-0.4
	c-0.5,0-1,0.1-1.4,0.2c-0.4,0.1-0.8,0.3-1.2,0.5c-0.4,0.2-0.7,0.4-0.9,0.6c-0.3,0.2-0.5,0.5-0.7,0.7l-0.1,0.1l-0.1-1.8l-1.6,0
	l0,12.7l1.8,0l0-9l0,0c0.5-0.7,1-1.2,1.6-1.6c0.6-0.4,1.3-0.6,2.2-0.6c1,0,1.9,0.4,2.5,1c0.6,0.7,0.9,1.6,0.9,2.7l0,7.5l1.8,0l0-7.6
	c0-0.8-0.1-1.5-0.3-2.2C71.4,14.2,71,13.6,70.6,13.1 M76.8,6.4c-0.4,0-0.7,0.1-0.9,0.4c-0.2,0.2-0.4,0.6-0.4,0.9
	c0,0.4,0.1,0.7,0.4,0.9C76.1,8.9,76.4,9,76.8,9c0.4,0,0.7-0.1,0.9-0.4c0.2-0.2,0.4-0.5,0.4-0.9c0-0.4-0.1-0.7-0.4-0.9
	C77.4,6.5,77.1,6.4,76.8,6.4 M75.8,24.6l1.8,0l0-12.7l-1.8,0L75.8,24.6z M104.6,17.4L104.6,17.4c0.1-1.3,0.5-2.3,1.2-3.1
	c0.8-0.8,1.8-1.2,3-1.2c1.2,0,2.2,0.4,2.9,1.2c0.7,0.8,1.1,1.8,1.1,3l0,0L104.6,17.4z M113.1,13.5c-0.5-0.6-1.1-1-1.8-1.4
	c-0.7-0.3-1.5-0.5-2.5-0.5c-0.9,0-1.7,0.2-2.4,0.5c-0.7,0.3-1.4,0.8-1.9,1.4c-0.5,0.6-0.9,1.3-1.2,2.1c-0.3,0.8-0.4,1.7-0.4,2.7
	c0,0.9,0.1,1.8,0.4,2.6c0.3,0.8,0.7,1.5,1.2,2.1c0.5,0.6,1.2,1,2,1.4c0.8,0.3,1.7,0.5,2.7,0.5c1.1,0,2.1-0.2,3-0.6
	c0.7-0.3,1.3-0.7,1.8-1.3l-1-1.3c-0.3,0.4-0.8,0.8-1.4,1.1c-0.6,0.4-1.5,0.6-2.4,0.6c-1.4,0-2.5-0.4-3.3-1.2
	c-0.8-0.8-1.2-1.9-1.2-3.3l0,0l10,0l0-0.7c0-0.9-0.1-1.8-0.4-2.6C113.9,14.8,113.6,14.1,113.1,13.5 M199.6,16c0-4.3,2.5-7.2,6.1-7.2
	c2.3,0,4.2,1.4,5,3.5c0.1,0.3,0.1,0.5,0.1,0.7c0,0.6-0.4,0.9-0.9,0.9c-0.4,0-0.7-0.2-0.9-0.8c-0.6-1.6-1.8-2.6-3.4-2.6
	c-2.5,0-4.1,2.2-4.1,5.5c0,3.2,1.7,5.5,4.1,5.5c1.6,0,2.8-1,3.4-2.6c0.2-0.5,0.5-0.8,0.9-0.8c0.6,0,0.9,0.4,0.9,0.9
	c0,0.2-0.1,0.4-0.1,0.7c-0.7,2.1-2.7,3.6-5,3.6C202.1,23.2,199.6,20.3,199.6,16z M228.9,22.2c0,0.5-0.4,0.9-0.9,0.9
	c-0.3,0-0.7-0.1-0.9-0.6l-1.2-3.1H220l-1.2,3.1c-0.2,0.5-0.5,0.6-0.8,0.6c-0.6,0-0.9-0.3-0.9-0.9c0-0.2,0.1-0.4,0.1-0.6l4.8-11.9
	c0.2-0.5,0.5-0.7,1-0.7c0.5,0,0.8,0.2,1,0.7l4.8,11.9C228.8,21.8,228.9,22,228.9,22.2z M225.2,17.6l-2.3-5.8l-2.3,5.8H225.2z
	 M246,22.2c0,0.5-0.3,0.9-0.9,0.9c-0.3,0-0.6-0.1-0.8-0.4l-4-5.2h-2.8V22c0,0.6-0.4,1-0.9,1c-0.6,0-0.9-0.4-0.9-1V10.1
	c0-0.7,0.4-1,1-1h5c2.5,0,4.1,1.6,4.1,4.2c0,2.3-1.3,3.8-3.4,4.1l3,4C245.9,21.7,246,21.9,246,22.2z M237.7,15.7h4
	c1.5,0,2.4-0.9,2.4-2.5c0-1.5-0.9-2.4-2.4-2.4h-4V15.7z M253.8,21.9V10.1c0-0.7,0.4-1.1,1.1-1.1h8.2c0.6,0,0.9,0.4,0.9,0.9
	s-0.4,0.9-0.9,0.9h-7.4v4.3h6.6c0.6,0,0.9,0.3,0.9,0.8s-0.3,0.9-0.9,0.9h-6.6v4.4h7.4c0.6,0,1,0.4,1,0.9c0,0.6-0.4,0.9-1,0.9h-8.2
	C254.2,22.9,253.8,22.6,253.8,21.9z M288.6,16c0-4.3,2.5-7.2,6.1-7.2c2.3,0,4.2,1.4,5,3.5c0.1,0.3,0.1,0.5,0.1,0.7
	c0,0.6-0.4,0.9-0.9,0.9c-0.4,0-0.7-0.2-0.9-0.8c-0.6-1.6-1.8-2.6-3.4-2.6c-2.5,0-4.1,2.2-4.1,5.5c0,3.2,1.7,5.5,4.1,5.5
	c1.6,0,2.8-1,3.4-2.6c0.2-0.5,0.5-0.8,0.9-0.8c0.6,0,0.9,0.4,0.9,0.9c0,0.2-0.1,0.4-0.1,0.7c-0.7,2.1-2.7,3.6-5,3.6
	C291.1,23.2,288.6,20.3,288.6,16z M306.2,16c0-4.3,2.4-7.2,5.8-7.2c3.4,0,5.8,2.9,5.8,7.2c0,4.4-2.3,7.2-5.8,7.2
	C308.4,23.2,306.2,20.4,306.2,16z M315.8,16c0-3.3-1.6-5.5-3.9-5.5c-2.3,0-3.9,2.2-3.9,5.5c0,3.3,1.5,5.5,3.9,5.5
	C314.3,21.5,315.8,19.4,315.8,16z M325.8,22V10c0-0.6,0.4-1,0.9-1c0.6,0,0.9,0.4,0.9,1v11.2h6.6c0.6,0,1,0.4,1,0.9
	c0,0.5-0.4,0.9-1,0.9h-7.6C326.1,22.9,325.8,22.5,325.8,22z M343.6,22V10c0-0.6,0.4-1,0.9-1c0.6,0,0.9,0.4,0.9,1v11.2h6.6
	c0.6,0,1,0.4,1,0.9c0,0.5-0.4,0.9-1,0.9h-7.6C343.9,22.9,343.6,22.5,343.6,22z M360.6,21.9l0-11.7c0-0.7,0.4-1.1,1.1-1.1h8.2
	c0.6,0,0.9,0.4,0.9,0.9s-0.4,0.9-0.9,0.9h-7.4v4.3h6.6c0.6,0,0.9,0.3,0.9,0.8s-0.3,0.9-0.9,0.9h-6.6v4.4h7.4c0.6,0,1,0.4,1,0.9
	c0,0.6-0.4,0.9-1,0.9h-8.2C360.9,22.9,360.6,22.6,360.6,21.9z M377.6,16c0-4.3,2.5-7.2,6.1-7.2c2.3,0,4.3,1.4,5,3.5
	c0.1,0.3,0.1,0.5,0.1,0.7c0,0.6-0.4,0.9-0.9,0.9c-0.4,0-0.7-0.2-0.9-0.8c-0.6-1.6-1.8-2.6-3.4-2.6c-2.5,0-4.1,2.2-4.1,5.5
	c0,3.2,1.7,5.5,4.1,5.5c1.6,0,2.8-1,3.4-2.6c0.2-0.5,0.5-0.8,0.9-0.8c0.6,0,0.9,0.4,0.9,0.9c0,0.2-0.1,0.4-0.1,0.7
	c-0.7,2.1-2.7,3.6-5,3.6C380.1,23.2,377.6,20.3,377.6,16z M407,10c0,0.5-0.4,0.9-1,0.9h-4.3V22c0,0.6-0.4,1-0.9,1
	c-0.6,0-0.9-0.4-0.9-1V10.8h-4.3c-0.6,0-1-0.3-1-0.9c0-0.5,0.4-0.9,1-0.9h10.4C406.7,9.1,407,9.4,407,10z M414,22
	c0-0.5,0.4-0.9,1-0.9h2.8V10.8H415c-0.6,0-1-0.3-1-0.9c0-0.5,0.4-0.9,1-0.9h7.3c0.6,0,1,0.4,1,0.9c0,0.5-0.4,0.9-1,0.9h-2.7v10.4
	h2.8c0.6,0,1,0.4,1,0.9c0,0.5-0.4,0.9-1,0.9h-7.5C414.4,22.9,414,22.6,414,22z M430.7,16c0-4.3,2.4-7.2,5.8-7.2
	c3.4,0,5.8,2.9,5.8,7.2c0,4.4-2.3,7.2-5.8,7.2C433,23.2,430.7,20.4,430.7,16z M440.4,16c0-3.3-1.6-5.5-3.9-5.5
	c-2.3,0-3.9,2.2-3.9,5.5c0,3.3,1.5,5.5,3.9,5.5C438.8,21.5,440.4,19.4,440.4,16z M459.4,9.9v12c0,0.7-0.4,1-1,1
	c-0.4,0-0.7-0.1-1-0.6l-6.4-9.8V22c0,0.6-0.4,1-0.9,1c-0.6,0-0.9-0.4-0.9-1l0-12c0-0.7,0.4-1,1-1c0.4,0,0.7,0.2,1,0.6l6.3,9.8V9.9
	c0-0.6,0.4-1,0.9-1C459,9,459.4,9.4,459.4,9.9z M169.3,20.3c5.3-6.4,7-13.1,5.9-16.3c-0.7-2.1-2.2-3.4-4.4-3.8
	c-4.1-0.8-7.9,2-9.3,3.6c-0.3,0.3-1.2,1.4-1.1,1.9c0.1,0.2,0.2,0.3,0.3,0.3c0.3,0.1,0.5-0.2,0.6-0.3c2.8-3.7,7.3-5.6,10.1-4.2
	c1.4,0.7,2.3,1.9,2.6,3.4c0.7,3.2-1.6,10.1-5.7,14.4c-2.4-2.9-6-8.1-7.8-11c-0.3-0.4-0.5-0.8-0.7-1.2c-0.7-1.1-2.5-3.7-5.1-5.5
	c-2.5-1.7-4.9-1.9-7-0.7c-1.5,0.9-4.6,4-1,13.6c1.4,3.8,3.4,7.8,6,11.7c0.9,1.4,5.3,8.2,6.4,8.2c0,0,0.1,0,0.1,0l0.1-0.1l0-0.1
	c0-0.2-0.3-0.7-1.4-2.4c-0.3-0.4-0.6-0.8-0.9-1.3c-2.6-3.8-6.3-10-8.3-14.1c0.9,0.9,2.1,1.8,3.4,2.1c1.1,0.3,2.1,0.1,3-0.5
	c2.8-1.9,3-6.3,0.5-10.7c-0.3-0.5-0.6-0.9-1-1.3c-0.4-0.4-0.6-0.3-0.7-0.3C154,6,154,6.3,154.3,6.8c0,0,0.3,0.6,0.4,0.7
	c2.2,3.8,2.2,7.5,0,9.2c-0.9,0.7-1.9,0.9-2.9,0.7c-1.4-0.3-2.8-1.7-3.8-3.8c-0.9-2-1.7-5.3-1.7-7.4c0.1-2,0.8-3.4,2.2-4.2
	c1.2-0.7,2.4-0.9,3.8-0.5c2.3,0.6,4.7,2.8,6.4,6c1,1.9,4.7,7.4,7.3,10.8c0.6,0.7,3.5,4.1,4.4,4.6c0.3,0.2,0.5,0,0.6-0.1
	c0.2-0.3,0.1-0.5-1.3-2L169.3,20.3z M511.8,20.3c5.3-6.4,7-13.1,5.9-16.3c-0.7-2.1-2.2-3.4-4.4-3.8c-4.1-0.8-7.9,2-9.3,3.6
	c-0.3,0.3-1.2,1.4-1.1,1.9c0.1,0.2,0.2,0.3,0.3,0.3c0.3,0.1,0.5-0.2,0.6-0.3c2.8-3.7,7.3-5.6,10.1-4.2c1.4,0.7,2.3,1.9,2.6,3.4
	c0.7,3.2-1.6,10.1-5.7,14.4c-2.4-2.9-6-8.1-7.8-11c-0.3-0.4-0.5-0.8-0.7-1.2c-0.7-1.1-2.5-3.7-5.1-5.5c-2.5-1.7-4.9-1.9-7-0.7
	c-1.5,0.9-4.6,4-1,13.6c1.4,3.8,3.4,7.8,6,11.7c0.9,1.4,5.3,8.2,6.4,8.2c0,0,0.1,0,0.1,0l0.1-0.1l0-0.1c0-0.2-0.3-0.7-1.4-2.4
	c-0.3-0.4-0.6-0.8-0.9-1.3c-2.6-3.8-6.3-10-8.3-14.1c0.9,0.9,2.1,1.8,3.4,2.1c1.1,0.3,2.1,0.1,3-0.5c2.8-1.9,3-6.3,0.5-10.7
	c-0.3-0.5-0.6-0.9-1-1.3c-0.4-0.4-0.6-0.3-0.7-0.3c-0.2,0.1-0.1,0.5,0.1,0.9c0,0,0.3,0.6,0.4,0.7c2.2,3.8,2.2,7.5,0,9.2
	c-0.9,0.7-1.9,0.9-2.9,0.7c-1.4-0.3-2.8-1.7-3.8-3.8c-0.9-2-1.7-5.3-1.7-7.4c0.1-2,0.8-3.4,2.2-4.2c1.2-0.7,2.4-0.9,3.8-0.5
	c2.3,0.6,4.7,2.8,6.4,6c1,1.9,4.7,7.4,7.3,10.8c0.6,0.7,3.5,4.1,4.4,4.6c0.3,0.2,0.5,0,0.6-0.1c0.2-0.3,0.1-0.5-1.3-2L511.8,20.3z"
	/>
</svg>
