<?xml version="1.0" encoding="UTF-8"?>
<svg width="81px" height="119px" viewBox="0 0 81 119" version="1.1" xmlns="http://www.w3.org/2000/svg" xmlns:xlink="http://www.w3.org/1999/xlink">
    <title>Group 2</title>
    <g id="Page-1" stroke="none" stroke-width="1" fill="none" fill-rule="evenodd">
        <g id="GALLERY_MOBILE" transform="translate(-63.000000, -314.000000)" fill="#2C4349">
            <g id="Group-2" transform="translate(63.000000, 314.000000)">
                <path d="M53.5093852,65.6091277 C61.8150814,55.6074126 64.4243661,45.2661407 62.691733,40.1825238 C61.5792001,36.9183963 59.2909085,34.9139153 55.8925157,34.2287163 C49.5674928,32.9459458 43.6218253,37.3650536 41.3602831,39.8758273 C40.9055429,40.3809029 39.4464834,42.0799044 39.7054664,42.8125684 C39.7893623,43.0462419 39.980256,43.2068925 40.218569,43.244621 C40.6769569,43.3225122 40.9833594,42.8965448 41.1013,42.7407624 C45.5052279,36.9171793 52.42117,34.0607634 56.8506314,36.2465848 C58.9759948,37.2920306 60.3900666,39.135861 60.9420775,41.5748287 C62.0643374,46.5294384 58.4312792,57.255298 52.0600527,63.9880174 C48.2725775,59.528747 42.793809,51.3319168 40.0082213,46.8422202 C39.6130593,46.2081372 39.2288403,45.5886589 38.8555643,44.9935215 C37.8147685,43.3322486 34.9623072,39.1796748 30.9608365,36.4766072 C27.1016241,33.8709037 23.3530571,33.513091 20.1273197,35.4396808 C17.8171421,36.8198153 13.0399382,41.6478517 18.5636942,56.6382538 C20.7595788,62.5993636 23.8989885,68.7126046 27.8931639,74.8002875 C29.2817022,76.9970624 36.0760559,87.6 37.8597561,87.6 C37.9290615,87.6 37.9874239,87.5853954 38.0409227,87.5525351 L38.1527839,87.4649075 L38.1746698,87.3638923 C38.2415434,87.0401571 37.7831555,86.3318341 35.9216388,83.6847509 C35.4839209,83.0616214 35.015806,82.3971122 34.5525546,81.7240837 C30.4367909,75.73985 24.7087665,66.1969627 21.7225581,59.8439629 C23.0551657,61.2812987 24.953159,62.610317 26.9374799,63.0788812 C28.6676813,63.4865928 30.259272,63.221276 31.6709121,62.2890159 C36.0821353,59.3741817 36.3994808,52.4966334 32.4393501,45.5594497 C31.9712352,44.7403752 31.5091997,44.1756641 30.9170647,43.5269766 C30.3419521,42.8989789 30.0027207,43.0401567 29.8847801,43.1290013 C29.5978317,43.3468532 29.6707847,43.8580141 30.082969,44.5298256 C30.082969,44.5298256 30.5997192,45.4000162 30.7200917,45.6069146 C34.0844397,51.4499706 34.0941668,57.3490108 30.7444093,59.9534974 C29.3497916,61.0378887 27.8056203,61.411523 26.2809031,61.045191 C24.0327356,60.5011698 21.9572235,58.3968907 20.4361539,55.1242439 C19.0062756,52.0451079 17.8560504,46.9517546 17.8171421,43.5415812 C17.9581846,40.4904374 19.1011145,38.3021819 21.214319,37.0388842 C23.0272004,35.9544929 24.9932831,35.687959 27.0590682,36.2465848 C30.6374116,37.2129224 34.3677404,40.6778631 37.0353875,45.5107677 C38.6671024,48.4706328 44.2698909,57.0483995 48.3686322,62.3827287 C49.2294773,63.5024145 53.79147,68.6870465 55.2614725,69.4696095 C55.7867339,69.7483139 56.0748981,69.529245 56.20135,69.3734626 C56.5685466,68.9170689 56.336313,68.6651396 54.1100313,66.2590322 L53.5093852,65.6091277 Z" id="Fill-49-Copy-2"></path>
                <path d="M6.145664,6.179712 L6.145664,1.557696 L6.162688,1.557696 L7.686336,6.179712 L8.699264,6.179712 L10.282496,1.557696 L10.29952,1.557696 L10.29952,6.179712 L11.627392,6.179712 L11.627392,0.153216 L9.627072,0.153216 L8.231104,4.08576 L8.21408,4.08576 L6.826624,0.153216 L4.817792,0.153216 L4.817792,6.179712 L6.145664,6.179712 Z M15.781248,6.332928 C16.2522453,6.332928 16.6863573,6.25915733 17.083584,6.111616 C17.4808107,5.96407467 17.824128,5.75269333 18.113536,5.477472 C18.402944,5.20225067 18.628512,4.868864 18.79024,4.477312 C18.951968,4.08576 19.032832,3.64881067 19.032832,3.166464 C19.032832,2.68411733 18.951968,2.247168 18.79024,1.855616 C18.628512,1.464064 18.402944,1.13067733 18.113536,0.855456 C17.824128,0.580234667 17.4808107,0.368853333 17.083584,0.221312 C16.6863573,0.0737706667 16.2522453,1.42108547e-15 15.781248,1.42108547e-15 C15.3102507,1.42108547e-15 14.8761387,0.0737706667 14.478912,0.221312 C14.0816853,0.368853333 13.738368,0.580234667 13.44896,0.855456 C13.159552,1.13067733 12.933984,1.464064 12.772256,1.855616 C12.610528,2.247168 12.529664,2.68411733 12.529664,3.166464 C12.529664,3.64881067 12.610528,4.08576 12.772256,4.477312 C12.933984,4.868864 13.159552,5.20225067 13.44896,5.477472 C13.738368,5.75269333 14.0816853,5.96407467 14.478912,6.111616 C14.8761387,6.25915733 15.3102507,6.332928 15.781248,6.332928 Z M15.781248,5.1072 C15.4975147,5.1072 15.240736,5.05896533 15.010912,4.962496 C14.781088,4.86602667 14.5838933,4.73125333 14.419328,4.558176 C14.2547627,4.38509867 14.1285013,4.18081067 14.040544,3.945312 C13.9525867,3.70981333 13.908608,3.45019733 13.908608,3.166464 C13.908608,2.88840533 13.9525867,2.630208 14.040544,2.391872 C14.1285013,2.153536 14.2547627,1.94782933 14.419328,1.774752 C14.5838933,1.60167467 14.781088,1.46690133 15.010912,1.370432 C15.240736,1.27396267 15.4975147,1.225728 15.781248,1.225728 C16.0649813,1.225728 16.32176,1.27396267 16.551584,1.370432 C16.781408,1.46690133 16.9786027,1.60167467 17.143168,1.774752 C17.3077333,1.94782933 17.4339947,2.153536 17.521952,2.391872 C17.6099093,2.630208 17.653888,2.88840533 17.653888,3.166464 C17.653888,3.45019733 17.6099093,3.70981333 17.521952,3.945312 C17.4339947,4.18081067 17.3077333,4.38509867 17.143168,4.558176 C16.9786027,4.73125333 16.781408,4.86602667 16.551584,4.962496 C16.32176,5.05896533 16.0649813,5.1072 15.781248,5.1072 Z M22.81216,6.179712 L25.297664,0.153216 L23.87616,0.153216 L22.361024,4.102784 L22.344,4.102784 L20.8544,0.153216 L19.339264,0.153216 L21.74816,6.179712 L22.81216,6.179712 Z M30.226112,6.179712 L30.226112,4.953984 L27.306496,4.953984 L27.306496,3.728256 L29.91968,3.728256 L29.91968,2.502528 L27.306496,2.502528 L27.306496,1.378944 L30.072896,1.378944 L30.072896,0.153216 L25.978624,0.153216 L25.978624,6.179712 L30.226112,6.179712 Z M32.617984,6.179712 L32.617984,1.557696 L32.635008,1.557696 L34.158656,6.179712 L35.171584,6.179712 L36.754816,1.557696 L36.77184,1.557696 L36.77184,6.179712 L38.099712,6.179712 L38.099712,0.153216 L36.099392,0.153216 L34.703424,4.08576 L34.6864,4.08576 L33.298944,0.153216 L31.290112,0.153216 L31.290112,6.179712 L32.617984,6.179712 Z M43.624,6.179712 L43.624,4.953984 L40.704384,4.953984 L40.704384,3.728256 L43.317568,3.728256 L43.317568,2.502528 L40.704384,2.502528 L40.704384,1.378944 L43.470784,1.378944 L43.470784,0.153216 L39.376512,0.153216 L39.376512,6.179712 L43.624,6.179712 Z M46.015872,6.179712 L46.015872,1.889664 L46.032896,1.889664 L48.663104,6.179712 L50.399552,6.179712 L50.399552,0.153216 L49.07168,0.153216 L49.07168,4.34112 L49.054656,4.34112 L46.492544,0.153216 L44.688,0.153216 L44.688,6.179712 L46.015872,6.179712 Z M54.119296,6.179712 L54.119296,1.327872 L55.83872,1.327872 L55.83872,0.153216 L51.072,0.153216 L51.072,1.327872 L52.791424,1.327872 L52.791424,6.179712 L54.119296,6.179712 Z M60.409664,6.179712 L60.409664,3.8304 L62.920704,3.8304 L62.920704,2.604672 L60.409664,2.604672 L60.409664,1.378944 L63.124992,1.378944 L63.124992,0.153216 L59.081792,0.153216 L59.081792,6.179712 L60.409664,6.179712 Z M67.006464,6.332928 C67.4774613,6.332928 67.9115733,6.25915733 68.3088,6.111616 C68.7060267,5.96407467 69.049344,5.75269333 69.338752,5.477472 C69.62816,5.20225067 69.853728,4.868864 70.015456,4.477312 C70.177184,4.08576 70.258048,3.64881067 70.258048,3.166464 C70.258048,2.68411733 70.177184,2.247168 70.015456,1.855616 C69.853728,1.464064 69.62816,1.13067733 69.338752,0.855456 C69.049344,0.580234667 68.7060267,0.368853333 68.3088,0.221312 C67.9115733,0.0737706667 67.4774613,1.42108547e-15 67.006464,1.42108547e-15 C66.5354667,1.42108547e-15 66.1013547,0.0737706667 65.704128,0.221312 C65.3069013,0.368853333 64.963584,0.580234667 64.674176,0.855456 C64.384768,1.13067733 64.1592,1.464064 63.997472,1.855616 C63.835744,2.247168 63.75488,2.68411733 63.75488,3.166464 C63.75488,3.64881067 63.835744,4.08576 63.997472,4.477312 C64.1592,4.868864 64.384768,5.20225067 64.674176,5.477472 C64.963584,5.75269333 65.3069013,5.96407467 65.704128,6.111616 C66.1013547,6.25915733 66.5354667,6.332928 67.006464,6.332928 Z M67.006464,5.1072 C66.7227307,5.1072 66.465952,5.05896533 66.236128,4.962496 C66.006304,4.86602667 65.8091093,4.73125333 65.644544,4.558176 C65.4799787,4.38509867 65.3537173,4.18081067 65.26576,3.945312 C65.1778027,3.70981333 65.133824,3.45019733 65.133824,3.166464 C65.133824,2.88840533 65.1778027,2.630208 65.26576,2.391872 C65.3537173,2.153536 65.4799787,1.94782933 65.644544,1.774752 C65.8091093,1.60167467 66.006304,1.46690133 66.236128,1.370432 C66.465952,1.27396267 66.7227307,1.225728 67.006464,1.225728 C67.2901973,1.225728 67.546976,1.27396267 67.7768,1.370432 C68.006624,1.46690133 68.2038187,1.60167467 68.368384,1.774752 C68.5329493,1.94782933 68.6592107,2.153536 68.747168,2.391872 C68.8351253,2.630208 68.879104,2.88840533 68.879104,3.166464 C68.879104,3.45019733 68.8351253,3.70981333 68.747168,3.945312 C68.6592107,4.18081067 68.5329493,4.38509867 68.368384,4.558176 C68.2038187,4.73125333 68.006624,4.86602667 67.7768,4.962496 C67.546976,5.05896533 67.2901973,5.1072 67.006464,5.1072 Z M72.488192,6.179712 L72.488192,3.770816 L73.143616,3.770816 L74.403392,6.179712 L75.995136,6.179712 L74.462976,3.634624 C74.888576,3.55517867 75.212032,3.366496 75.433344,3.068576 C75.654656,2.770656 75.765312,2.408896 75.765312,1.983296 C75.765312,1.63146667 75.7043093,1.33780267 75.582304,1.102304 C75.4602987,0.866805333 75.2957333,0.679541333 75.088608,0.540512 C74.8814827,0.401482667 74.6403093,0.302176 74.365088,0.242592 C74.0898667,0.183008 73.79904,0.153216 73.492608,0.153216 L73.492608,0.153216 L71.16032,0.153216 L71.16032,6.179712 L72.488192,6.179712 Z M73.271296,2.647232 L72.488192,2.647232 L72.488192,1.2768 L73.356416,1.2768 C73.475584,1.2768 73.5975893,1.285312 73.722432,1.302336 C73.8472747,1.31936 73.9579307,1.35198933 74.0544,1.400224 C74.1508693,1.44845867 74.2303147,1.51797333 74.292736,1.608768 C74.3551573,1.69956267 74.386368,1.821568 74.386368,1.974784 C74.386368,2.13934933 74.3509013,2.26702933 74.279968,2.357824 C74.2090347,2.44861867 74.1196587,2.515296 74.01184,2.557856 C73.9040213,2.600416 73.7834347,2.625952 73.65008,2.634464 C73.5167253,2.642976 73.390464,2.647232 73.271296,2.647232 L73.271296,2.647232 Z M2.46848,18.050816 C2.73518933,18.050816 3.00331733,18.0224427 3.272864,17.965696 C3.54241067,17.9089493 3.78500267,17.8153173 4.00064,17.6848 C4.21627733,17.5542827 4.392192,17.382624 4.528384,17.169824 C4.664576,16.957024 4.732672,16.6917333 4.732672,16.373952 C4.732672,16.1810133 4.70146133,15.999424 4.63904,15.829184 C4.57661867,15.658944 4.48724267,15.509984 4.370912,15.382304 C4.25458133,15.254624 4.115552,15.1496427 3.953824,15.06736 C3.792096,14.9850773 3.61192533,14.9297493 3.413312,14.901376 L3.413312,14.901376 L3.413312,14.884352 C3.72541867,14.7878827 3.97652267,14.6275733 4.166624,14.403424 C4.35672533,14.1792747 4.451776,13.89696 4.451776,13.55648 C4.451776,13.2273493 4.38651733,12.9634773 4.256,12.764864 C4.12548267,12.5662507 3.95524267,12.411616 3.74528,12.30096 C3.53531733,12.190304 3.2984,12.1165333 3.034528,12.079648 C2.770656,12.0427627 2.50820267,12.02432 2.247168,12.02432 L2.247168,12.02432 L1.11981535e-12,12.02432 L1.11981535e-12,18.050816 L2.46848,18.050816 Z M2.289728,14.433216 L1.327872,14.433216 L1.327872,13.147904 L2.230144,13.147904 C2.332288,13.147904 2.43726933,13.1578347 2.545088,13.177696 C2.65290667,13.1975573 2.749376,13.2301867 2.834496,13.275584 C2.919616,13.3209813 2.98913067,13.3848213 3.04304,13.467104 C3.09694933,13.5493867 3.123904,13.6529493 3.123904,13.777792 C3.123904,13.89696 3.09978667,13.999104 3.051552,14.084224 C3.00331733,14.169344 2.93947733,14.23744 2.860032,14.288512 C2.78058667,14.339584 2.69121067,14.3764693 2.591904,14.399168 C2.49259733,14.4218667 2.391872,14.433216 2.289728,14.433216 L2.289728,14.433216 Z M2.519552,16.927232 L1.327872,16.927232 L1.327872,15.5568 L2.332288,15.5568 C2.44010667,15.5568 2.55643733,15.565312 2.68128,15.582336 C2.80612267,15.59936 2.92245333,15.6305707 3.030272,15.675968 C3.13809067,15.7213653 3.22746667,15.7880427 3.2984,15.876 C3.36933333,15.9639573 3.4048,16.0788693 3.4048,16.220736 C3.4048,16.3512533 3.37784533,16.4619093 3.323936,16.552704 C3.27002667,16.6434987 3.200512,16.7172693 3.115392,16.774016 C3.030272,16.8307627 2.93522133,16.8704853 2.83024,16.893184 C2.72525867,16.9158827 2.621696,16.927232 2.519552,16.927232 L2.519552,16.927232 Z M9.354688,18.050816 L9.354688,16.825088 L6.89472,16.825088 L6.89472,12.02432 L5.566848,12.02432 L5.566848,18.050816 L9.354688,18.050816 Z M10.929408,18.050816 L11.431616,16.774016 L13.772416,16.774016 L14.291648,18.050816 L15.78976,18.050816 L13.168064,12.02432 L12.070016,12.02432 L9.465344,18.050816 L10.929408,18.050816 Z M13.32128,15.650432 L11.848704,15.650432 L12.580736,13.777792 L13.32128,15.650432 Z M19.32224,18.204032 C19.7364907,18.204032 20.139392,18.118912 20.530944,17.948672 C20.922496,17.778432 21.245952,17.51456 21.501312,17.157056 L21.501312,17.157056 L20.394752,16.331392 C20.25856,16.53568 20.0854827,16.6945707 19.87552,16.808064 C19.6655573,16.9215573 19.424384,16.978304 19.152,16.978304 C18.913664,16.978304 18.6909333,16.9300693 18.483808,16.8336 C18.2766827,16.7371307 18.096512,16.6023573 17.943296,16.42928 C17.79008,16.2562027 17.6694933,16.0519147 17.581536,15.816416 C17.4935787,15.5809173 17.4496,15.3213013 17.4496,15.037568 C17.4496,14.7595093 17.4935787,14.501312 17.581536,14.262976 C17.6694933,14.02464 17.7914987,13.8189333 17.947552,13.645856 C18.1036053,13.4727787 18.288032,13.3380053 18.500832,13.241536 C18.713632,13.1450667 18.9448747,13.096832 19.19456,13.096832 C19.4442453,13.096832 19.6641387,13.139392 19.85424,13.224512 C20.0443413,13.309632 20.2046507,13.4316373 20.335168,13.590528 L20.335168,13.590528 L21.356608,12.756352 C21.2260907,12.5917867 21.0785493,12.4527573 20.913984,12.339264 C20.7494187,12.2257707 20.57776,12.134976 20.399008,12.06688 C20.220256,11.998784 20.0386667,11.9491307 19.85424,11.91792 C19.6698133,11.8867093 19.49248,11.871104 19.32224,11.871104 C18.8512427,11.871104 18.4171307,11.9448747 18.019904,12.092416 C17.6226773,12.2399573 17.27936,12.4513387 16.989952,12.72656 C16.700544,13.0017813 16.474976,13.335168 16.313248,13.72672 C16.15152,14.118272 16.070656,14.5552213 16.070656,15.037568 C16.070656,15.5199147 16.15152,15.956864 16.313248,16.348416 C16.474976,16.739968 16.700544,17.0733547 16.989952,17.348576 C17.27936,17.6237973 17.6226773,17.8351787 18.019904,17.98272 C18.4171307,18.1302613 18.8512427,18.204032 19.32224,18.204032 Z M23.603776,18.050816 L23.603776,15.190784 L26.055232,18.050816 L27.910848,18.050816 L24.999744,14.824768 L27.681024,12.02432 L25.944576,12.02432 L23.603776,14.526848 L23.603776,12.02432 L22.275904,12.02432 L22.275904,18.050816 L23.603776,18.050816 Z M34.72896,18.050816 L34.72896,16.825088 L32.268992,16.825088 L32.268992,12.02432 L30.94112,12.02432 L30.94112,18.050816 L34.72896,18.050816 Z M36.77184,18.050816 L36.77184,12.02432 L35.443968,12.02432 L35.443968,18.050816 L36.77184,18.050816 Z M40.8576,18.050816 L43.343104,12.02432 L41.9216,12.02432 L40.406464,15.973888 L40.38944,15.973888 L38.89984,12.02432 L37.384704,12.02432 L39.7936,18.050816 L40.8576,18.050816 Z M48.271552,18.050816 L48.271552,16.825088 L45.351936,16.825088 L45.351936,15.59936 L47.96512,15.59936 L47.96512,14.373632 L45.351936,14.373632 L45.351936,13.250048 L48.118336,13.250048 L48.118336,12.02432 L44.024064,12.02432 L44.024064,18.050816 L48.271552,18.050816 Z M50.910272,18.204032 C51.2223787,18.204032 51.51888,18.1643093 51.799776,18.084864 C52.080672,18.0054187 52.32752,17.8834133 52.54032,17.718848 C52.75312,17.5542827 52.9219413,17.3471573 53.046784,17.097472 C53.1716267,16.8477867 53.234048,16.5555413 53.234048,16.220736 C53.234048,15.8689067 53.165952,15.5880107 53.02976,15.378048 C52.893568,15.1680853 52.7219093,15.0006827 52.514784,14.87584 C52.3076587,14.7509973 52.084928,14.654528 51.846592,14.586432 C51.608256,14.518336 51.3855253,14.45024 51.1784,14.382144 C50.9712747,14.314048 50.799616,14.2317653 50.663424,14.135296 C50.527232,14.0388267 50.459136,13.8997973 50.459136,13.718208 C50.459136,13.6047147 50.4875093,13.5082453 50.544256,13.4288 C50.6010027,13.3493547 50.6747733,13.2855147 50.765568,13.23728 C50.8563627,13.1890453 50.952832,13.1535787 51.054976,13.13088 C51.15712,13.1081813 51.2564267,13.096832 51.352896,13.096832 C51.5174613,13.096832 51.6919573,13.1294613 51.876384,13.19472 C52.0608107,13.2599787 52.2069333,13.360704 52.314752,13.496896 L52.314752,13.496896 L53.225536,12.500992 C52.970176,12.2740053 52.6836053,12.1122773 52.365824,12.015808 C52.0480427,11.9193387 51.718912,11.871104 51.378432,11.871104 C51.0833493,11.871104 50.7967787,11.9122453 50.51872,11.994528 C50.2406613,12.0768107 49.995232,12.2002347 49.782432,12.3648 C49.569632,12.5293653 49.399392,12.7336533 49.271712,12.977664 C49.144032,13.2216747 49.080192,13.505408 49.080192,13.828864 C49.080192,14.1636693 49.1497067,14.433216 49.288736,14.637504 C49.4277653,14.841792 49.6022613,15.0063573 49.812224,15.1312 C50.0221867,15.2560427 50.2491733,15.3553493 50.493184,15.42912 C50.7371947,15.5028907 50.9641813,15.5766613 51.174144,15.650432 C51.3841067,15.7242027 51.5586027,15.8135787 51.697632,15.91856 C51.8366613,16.0235413 51.906176,16.1668267 51.906176,16.348416 C51.906176,16.4562347 51.8792213,16.5498667 51.825312,16.629312 C51.7714027,16.7087573 51.7004693,16.774016 51.612512,16.825088 C51.5245547,16.87616 51.425248,16.914464 51.314592,16.94 C51.203936,16.965536 51.0946987,16.978304 50.98688,16.978304 C50.765568,16.978304 50.5513493,16.9286507 50.344224,16.829344 C50.1370987,16.7300373 49.96544,16.5895893 49.829248,16.408 L49.829248,16.408 L48.884416,17.446464 C49.173824,17.7131733 49.4859307,17.906112 49.820736,18.02528 C50.1555413,18.144448 50.51872,18.204032 50.910272,18.204032 Z M58.119936,18.050816 L58.119936,15.701504 L60.630976,15.701504 L60.630976,14.475776 L58.119936,14.475776 L58.119936,13.250048 L60.835264,13.250048 L60.835264,12.02432 L56.792064,12.02432 L56.792064,18.050816 L58.119936,18.050816 Z M64.333696,18.204032 C64.7479467,18.204032 65.1139627,18.1416107 65.431744,18.016768 C65.7495253,17.8919253 66.014816,17.718848 66.227616,17.497536 C66.440416,17.276224 66.6007253,17.0151893 66.708544,16.714432 C66.8163627,16.4136747 66.870272,16.084544 66.870272,15.72704 L66.870272,15.72704 L66.870272,12.02432 L65.5424,12.02432 L65.5424,15.675968 C65.5424,15.863232 65.512608,16.0363093 65.453024,16.1952 C65.39344,16.3540907 65.3097387,16.4917013 65.20192,16.608032 C65.0941013,16.7243627 64.9664213,16.8151573 64.81888,16.880416 C64.6713387,16.9456747 64.5096107,16.978304 64.333696,16.978304 C64.1577813,16.978304 63.9946347,16.9456747 63.844256,16.880416 C63.6938773,16.8151573 63.5647787,16.7243627 63.45696,16.608032 C63.3491413,16.4917013 63.26544,16.3540907 63.205856,16.1952 C63.146272,16.0363093 63.11648,15.863232 63.11648,15.675968 L63.11648,15.675968 L63.11648,12.02432 L61.788608,12.02432 L61.788608,15.72704 C61.788608,16.084544 61.8425173,16.4136747 61.950336,16.714432 C62.0581547,17.0151893 62.218464,17.276224 62.431264,17.497536 C62.644064,17.718848 62.9093547,17.8919253 63.227136,18.016768 C63.5449173,18.1416107 63.9137707,18.204032 64.333696,18.204032 Z M69.423872,18.050816 L69.423872,13.760768 L69.440896,13.760768 L72.071104,18.050816 L73.807552,18.050816 L73.807552,12.02432 L72.47968,12.02432 L72.47968,16.212224 L72.462656,16.212224 L69.900544,12.02432 L68.096,12.02432 L68.096,18.050816 L69.423872,18.050816 Z M77.20384,18.050816 C77.6521387,18.050816 78.080576,17.9855573 78.489152,17.85504 C78.897728,17.7245227 79.2580693,17.5330027 79.570176,17.28048 C79.8822827,17.0279573 80.1305493,16.7158507 80.314976,16.34416 C80.4994027,15.9724693 80.591616,15.5426133 80.591616,15.054592 C80.591616,14.5041493 80.4965653,14.0359893 80.306464,13.650112 C80.1163627,13.2642347 79.859584,12.9507093 79.536128,12.709536 C79.212672,12.4683627 78.833888,12.2938667 78.399776,12.186048 C77.965664,12.0782293 77.5074347,12.02432 77.025088,12.02432 L77.025088,12.02432 L75.03328,12.02432 L75.03328,18.050816 L77.20384,18.050816 Z M77.050624,16.825088 L76.361152,16.825088 L76.361152,13.250048 L77.144256,13.250048 C77.4223147,13.250048 77.6876053,13.2855147 77.940128,13.356448 C78.1926507,13.4273813 78.412544,13.5337813 78.599808,13.675648 C78.787072,13.8175147 78.936032,13.9976853 79.046688,14.21616 C79.157344,14.4346347 79.212672,14.6914133 79.212672,14.986496 C79.212672,15.326976 79.157344,15.6149653 79.046688,15.850464 C78.936032,16.0859627 78.7842347,16.276064 78.591296,16.420768 C78.3983573,16.565472 78.169952,16.6690347 77.90608,16.731456 C77.642208,16.7938773 77.357056,16.825088 77.050624,16.825088 L77.050624,16.825088 Z" id="MOVEMENTFORBLACKLIVESFUND" fill-rule="nonzero"></path>
                <path d="M11.727872,106.779712 L11.727872,104.4304 L12.69824,104.4304 C13.0160213,104.4304 13.311104,104.400608 13.583488,104.341024 C13.855872,104.28144 14.0913707,104.180715 14.289984,104.038848 C14.4885973,103.896981 14.6446507,103.70688 14.758144,103.468544 C14.8716373,103.230208 14.928384,102.935125 14.928384,102.583296 C14.928384,102.225792 14.8673813,101.929291 14.745376,101.693792 C14.6233707,101.458293 14.4588053,101.271029 14.25168,101.132 C14.0445547,100.992971 13.8019627,100.895083 13.523904,100.838336 C13.2458453,100.781589 12.9507627,100.753216 12.638656,100.753216 L12.638656,100.753216 L10.4,100.753216 L10.4,106.779712 L11.727872,106.779712 Z M12.61312,103.306816 L11.727872,103.306816 L11.727872,101.8768 L12.408832,101.8768 C12.5336747,101.8768 12.664192,101.883893 12.800384,101.89808 C12.936576,101.912267 13.06,101.944896 13.170656,101.995968 C13.281312,102.04704 13.3721067,102.119392 13.44304,102.213024 C13.5139733,102.306656 13.54944,102.43008 13.54944,102.583296 C13.54944,102.725163 13.5224853,102.842912 13.468576,102.936544 C13.4146667,103.030176 13.3437333,103.103947 13.255776,103.157856 C13.1678187,103.211765 13.068512,103.250069 12.957856,103.272768 C12.8472,103.295467 12.732288,103.306816 12.61312,103.306816 L12.61312,103.306816 Z M18.23104,106.779712 C18.4977493,106.779712 18.7658773,106.751339 19.035424,106.694592 C19.3049707,106.637845 19.5475627,106.544213 19.7632,106.413696 C19.9788373,106.283179 20.154752,106.11152 20.290944,105.89872 C20.427136,105.68592 20.495232,105.420629 20.495232,105.102848 C20.495232,104.909909 20.4640213,104.72832 20.4016,104.55808 C20.3391787,104.38784 20.2498027,104.23888 20.133472,104.1112 C20.0171413,103.98352 19.878112,103.878539 19.716384,103.796256 C19.554656,103.713973 19.3744853,103.658645 19.175872,103.630272 L19.175872,103.630272 L19.175872,103.613248 C19.4879787,103.516779 19.7390827,103.356469 19.929184,103.13232 C20.1192853,102.908171 20.214336,102.625856 20.214336,102.285376 C20.214336,101.956245 20.1490773,101.692373 20.01856,101.49376 C19.8880427,101.295147 19.7178027,101.140512 19.50784,101.029856 C19.2978773,100.9192 19.06096,100.845429 18.797088,100.808544 C18.533216,100.771659 18.2707627,100.753216 18.009728,100.753216 L18.009728,100.753216 L15.76256,100.753216 L15.76256,106.779712 L18.23104,106.779712 Z M18.052288,103.162112 L17.090432,103.162112 L17.090432,101.8768 L17.992704,101.8768 C18.094848,101.8768 18.1998293,101.886731 18.307648,101.906592 C18.4154667,101.926453 18.511936,101.959083 18.597056,102.00448 C18.682176,102.049877 18.7516907,102.113717 18.8056,102.196 C18.8595093,102.278283 18.886464,102.381845 18.886464,102.506688 C18.886464,102.625856 18.8623467,102.728 18.814112,102.81312 C18.7658773,102.89824 18.7020373,102.966336 18.622592,103.017408 C18.5431467,103.06848 18.4537707,103.105365 18.354464,103.128064 C18.2551573,103.150763 18.154432,103.162112 18.052288,103.162112 L18.052288,103.162112 Z M18.282112,105.656128 L17.090432,105.656128 L17.090432,104.285696 L18.094848,104.285696 C18.2026667,104.285696 18.3189973,104.294208 18.44384,104.311232 C18.5686827,104.328256 18.6850133,104.359467 18.792832,104.404864 C18.9006507,104.450261 18.9900267,104.516939 19.06096,104.604896 C19.1318933,104.692853 19.16736,104.807765 19.16736,104.949632 C19.16736,105.080149 19.1404053,105.190805 19.086496,105.2816 C19.0325867,105.372395 18.963072,105.446165 18.877952,105.502912 C18.792832,105.559659 18.6977813,105.599381 18.5928,105.62208 C18.4878187,105.644779 18.384256,105.656128 18.282112,105.656128 L18.282112,105.656128 Z M22.121024,106.779712 L22.623232,105.502912 L24.964032,105.502912 L25.483264,106.779712 L26.981376,106.779712 L24.35968,100.753216 L23.261632,100.753216 L20.65696,106.779712 L22.121024,106.779712 Z M24.512896,104.379328 L23.04032,104.379328 L23.772352,102.506688 L24.512896,104.379328 Z M33.033408,106.932928 C33.4476587,106.932928 33.85056,106.847808 34.242112,106.677568 C34.633664,106.507328 34.95712,106.243456 35.21248,105.885952 L35.21248,105.885952 L34.10592,105.060288 C33.969728,105.264576 33.7966507,105.423467 33.586688,105.53696 C33.3767253,105.650453 33.135552,105.7072 32.863168,105.7072 C32.624832,105.7072 32.4021013,105.658965 32.194976,105.562496 C31.9878507,105.466027 31.80768,105.331253 31.654464,105.158176 C31.501248,104.985099 31.3806613,104.780811 31.292704,104.545312 C31.2047467,104.309813 31.160768,104.050197 31.160768,103.766464 C31.160768,103.488405 31.2047467,103.230208 31.292704,102.991872 C31.3806613,102.753536 31.5026667,102.547829 31.65872,102.374752 C31.8147733,102.201675 31.9992,102.066901 32.212,101.970432 C32.4248,101.873963 32.6560427,101.825728 32.905728,101.825728 C33.1554133,101.825728 33.3753067,101.868288 33.565408,101.953408 C33.7555093,102.038528 33.9158187,102.160533 34.046336,102.319424 L34.046336,102.319424 L35.067776,101.485248 C34.9372587,101.320683 34.7897173,101.181653 34.625152,101.06816 C34.4605867,100.954667 34.288928,100.863872 34.110176,100.795776 C33.931424,100.72768 33.7498347,100.678027 33.565408,100.646816 C33.3809813,100.615605 33.203648,100.6 33.033408,100.6 C32.5624107,100.6 32.1282987,100.673771 31.731072,100.821312 C31.3338453,100.968853 30.990528,101.180235 30.70112,101.455456 C30.411712,101.730677 30.186144,102.064064 30.024416,102.455616 C29.862688,102.847168 29.781824,103.284117 29.781824,103.766464 C29.781824,104.248811 29.862688,104.68576 30.024416,105.077312 C30.186144,105.468864 30.411712,105.802251 30.70112,106.077472 C30.990528,106.352693 31.3338453,106.564075 31.731072,106.711616 C32.1282987,106.859157 32.5624107,106.932928 33.033408,106.932928 Z M38.864128,106.932928 C39.3351253,106.932928 39.7692373,106.859157 40.166464,106.711616 C40.5636907,106.564075 40.907008,106.352693 41.196416,106.077472 C41.485824,105.802251 41.711392,105.468864 41.87312,105.077312 C42.034848,104.68576 42.115712,104.248811 42.115712,103.766464 C42.115712,103.284117 42.034848,102.847168 41.87312,102.455616 C41.711392,102.064064 41.485824,101.730677 41.196416,101.455456 C40.907008,101.180235 40.5636907,100.968853 40.166464,100.821312 C39.7692373,100.673771 39.3351253,100.6 38.864128,100.6 C38.3931307,100.6 37.9590187,100.673771 37.561792,100.821312 C37.1645653,100.968853 36.821248,101.180235 36.53184,101.455456 C36.242432,101.730677 36.016864,102.064064 35.855136,102.455616 C35.693408,102.847168 35.612544,103.284117 35.612544,103.766464 C35.612544,104.248811 35.693408,104.68576 35.855136,105.077312 C36.016864,105.468864 36.242432,105.802251 36.53184,106.077472 C36.821248,106.352693 37.1645653,106.564075 37.561792,106.711616 C37.9590187,106.859157 38.3931307,106.932928 38.864128,106.932928 Z M38.864128,105.7072 C38.5803947,105.7072 38.323616,105.658965 38.093792,105.562496 C37.863968,105.466027 37.6667733,105.331253 37.502208,105.158176 C37.3376427,104.985099 37.2113813,104.780811 37.123424,104.545312 C37.0354667,104.309813 36.991488,104.050197 36.991488,103.766464 C36.991488,103.488405 37.0354667,103.230208 37.123424,102.991872 C37.2113813,102.753536 37.3376427,102.547829 37.502208,102.374752 C37.6667733,102.201675 37.863968,102.066901 38.093792,101.970432 C38.323616,101.873963 38.5803947,101.825728 38.864128,101.825728 C39.1478613,101.825728 39.40464,101.873963 39.634464,101.970432 C39.864288,102.066901 40.0614827,102.201675 40.226048,102.374752 C40.3906133,102.547829 40.5168747,102.753536 40.604832,102.991872 C40.6927893,103.230208 40.736768,103.488405 40.736768,103.766464 C40.736768,104.050197 40.6927893,104.309813 40.604832,104.545312 C40.5168747,104.780811 40.3906133,104.985099 40.226048,105.158176 C40.0614827,105.331253 39.864288,105.466027 39.634464,105.562496 C39.40464,105.658965 39.1478613,105.7072 38.864128,105.7072 Z M45.89504,106.779712 L48.380544,100.753216 L46.95904,100.753216 L45.443904,104.702784 L45.42688,104.702784 L43.93728,100.753216 L42.422144,100.753216 L44.83104,106.779712 L45.89504,106.779712 Z M50.32128,106.779712 L50.32128,100.753216 L48.993408,100.753216 L48.993408,106.779712 L50.32128,106.779712 Z M53.700544,106.779712 C54.1488427,106.779712 54.57728,106.714453 54.985856,106.583936 C55.394432,106.453419 55.7547733,106.261899 56.06688,106.009376 C56.3789867,105.756853 56.6272533,105.444747 56.81168,105.073056 C56.9961067,104.701365 57.08832,104.271509 57.08832,103.783488 C57.08832,103.233045 56.9932693,102.764885 56.803168,102.379008 C56.6130667,101.993131 56.356288,101.679605 56.032832,101.438432 C55.709376,101.197259 55.330592,101.022763 54.89648,100.914944 C54.462368,100.807125 54.0041387,100.753216 53.521792,100.753216 L53.521792,100.753216 L51.529984,100.753216 L51.529984,106.779712 L53.700544,106.779712 Z M53.547328,105.553984 L52.857856,105.553984 L52.857856,101.978944 L53.64096,101.978944 C53.9190187,101.978944 54.1843093,102.014411 54.436832,102.085344 C54.6893547,102.156277 54.909248,102.262677 55.096512,102.404544 C55.283776,102.546411 55.432736,102.726581 55.543392,102.945056 C55.654048,103.163531 55.709376,103.420309 55.709376,103.715392 C55.709376,104.055872 55.654048,104.343861 55.543392,104.57936 C55.432736,104.814859 55.2809387,105.00496 55.088,105.149664 C54.8950613,105.294368 54.666656,105.397931 54.402784,105.460352 C54.138912,105.522773 53.85376,105.553984 53.547328,105.553984 L53.547328,105.553984 Z M59.68448,105.170944 L59.68448,104.149504 L57.590528,104.149504 L57.590528,105.170944 L59.68448,105.170944 Z M63.574464,106.779712 L63.574464,100.753216 L62.382784,100.753216 L60.416512,102.413056 L61.140032,103.247232 L62.348736,102.183232 L62.348736,106.779712 L63.574464,106.779712 Z M67.677248,106.779712 L68.996608,104.719808 C69.0930773,104.566592 69.1852907,104.417632 69.273248,104.272928 C69.3612053,104.128224 69.4378133,103.976427 69.503072,103.817536 C69.5683307,103.658645 69.6208213,103.489824 69.660544,103.311072 C69.7002667,103.13232 69.720128,102.935125 69.720128,102.719488 C69.720128,102.407381 69.6619627,102.125067 69.545632,101.872544 C69.4293013,101.620021 69.2704107,101.402965 69.06896,101.221376 C68.8675093,101.039787 68.6291733,100.899339 68.353952,100.800032 C68.0787307,100.700725 67.7850667,100.651072 67.47296,100.651072 C67.1551787,100.651072 66.860096,100.700725 66.587712,100.800032 C66.315328,100.899339 66.0784107,101.039787 65.87696,101.221376 C65.6755093,101.402965 65.5166187,101.620021 65.400288,101.872544 C65.2839573,102.125067 65.225792,102.407381 65.225792,102.719488 C65.225792,102.991872 65.2711893,103.248651 65.361984,103.489824 C65.4527787,103.730997 65.5804587,103.939541 65.745024,104.115456 C65.9095893,104.291371 66.1082027,104.4304 66.340864,104.532544 C66.5735253,104.634688 66.8317227,104.68576 67.115456,104.68576 C67.1892267,104.68576 67.26016,104.680085 67.328256,104.668736 C67.396352,104.657387 67.464448,104.6432 67.532544,104.626176 L67.532544,104.626176 L66.119552,106.779712 L67.677248,106.779712 Z M67.47296,103.715392 C67.183552,103.715392 66.949472,103.626016 66.77072,103.447264 C66.591968,103.268512 66.502592,103.042944 66.502592,102.77056 C66.502592,102.498176 66.591968,102.272608 66.77072,102.093856 C66.949472,101.915104 67.183552,101.825728 67.47296,101.825728 C67.762368,101.825728 67.996448,101.915104 68.1752,102.093856 C68.353952,102.272608 68.443328,102.498176 68.443328,102.77056 C68.443328,103.042944 68.353952,103.268512 68.1752,103.447264 C67.996448,103.626016 67.762368,103.715392 67.47296,103.715392 Z M13.99632,118.650816 L13.99632,116.24192 L14.651744,116.24192 L15.91152,118.650816 L17.503264,118.650816 L15.971104,116.105728 C16.396704,116.026283 16.72016,115.8376 16.941472,115.53968 C17.162784,115.24176 17.27344,114.88 17.27344,114.4544 C17.27344,114.102571 17.2124373,113.808907 17.090432,113.573408 C16.9684267,113.337909 16.8038613,113.150645 16.596736,113.011616 C16.3896107,112.872587 16.1484373,112.77328 15.873216,112.713696 C15.5979947,112.654112 15.307168,112.62432 15.000736,112.62432 L15.000736,112.62432 L12.668448,112.62432 L12.668448,118.650816 L13.99632,118.650816 Z M14.779424,115.118336 L13.99632,115.118336 L13.99632,113.747904 L14.864544,113.747904 C14.983712,113.747904 15.1057173,113.756416 15.23056,113.77344 C15.3554027,113.790464 15.4660587,113.823093 15.562528,113.871328 C15.6589973,113.919563 15.7384427,113.989077 15.800864,114.079872 C15.8632853,114.170667 15.894496,114.292672 15.894496,114.445888 C15.894496,114.610453 15.8590293,114.738133 15.788096,114.828928 C15.7171627,114.919723 15.6277867,114.9864 15.519968,115.02896 C15.4121493,115.07152 15.2915627,115.097056 15.158208,115.105568 C15.0248533,115.11408 14.898592,115.118336 14.779424,115.118336 L14.779424,115.118336 Z M22.482784,118.650816 L22.482784,117.425088 L19.563168,117.425088 L19.563168,116.19936 L22.176352,116.19936 L22.176352,114.973632 L19.563168,114.973632 L19.563168,113.850048 L22.329568,113.850048 L22.329568,112.62432 L18.235296,112.62432 L18.235296,118.650816 L22.482784,118.650816 Z M27.385696,118.650816 L27.385696,117.425088 L24.925728,117.425088 L24.925728,112.62432 L23.597856,112.62432 L23.597856,118.650816 L27.385696,118.650816 Z M29.428576,118.650816 L29.428576,112.62432 L28.100704,112.62432 L28.100704,118.650816 L29.428576,118.650816 Z M34.93584,118.650816 L34.93584,117.425088 L32.016224,117.425088 L32.016224,116.19936 L34.629408,116.19936 L34.629408,114.973632 L32.016224,114.973632 L32.016224,113.850048 L34.782624,113.850048 L34.782624,112.62432 L30.688352,112.62432 L30.688352,118.650816 L34.93584,118.650816 Z M37.378784,118.650816 L37.378784,116.301504 L39.889824,116.301504 L39.889824,115.075776 L37.378784,115.075776 L37.378784,113.850048 L40.094112,113.850048 L40.094112,112.62432 L36.050912,112.62432 L36.050912,118.650816 L37.378784,118.650816 Z M44.945952,118.650816 L44.945952,116.301504 L47.456992,116.301504 L47.456992,115.075776 L44.945952,115.075776 L44.945952,113.850048 L47.66128,113.850048 L47.66128,112.62432 L43.61808,112.62432 L43.61808,118.650816 L44.945952,118.650816 Z M51.159712,118.804032 C51.5739627,118.804032 51.9399787,118.741611 52.25776,118.616768 C52.5755413,118.491925 52.840832,118.318848 53.053632,118.097536 C53.266432,117.876224 53.4267413,117.615189 53.53456,117.314432 C53.6423787,117.013675 53.696288,116.684544 53.696288,116.32704 L53.696288,116.32704 L53.696288,112.62432 L52.368416,112.62432 L52.368416,116.275968 C52.368416,116.463232 52.338624,116.636309 52.27904,116.7952 C52.219456,116.954091 52.1357547,117.091701 52.027936,117.208032 C51.9201173,117.324363 51.7924373,117.415157 51.644896,117.480416 C51.4973547,117.545675 51.3356267,117.578304 51.159712,117.578304 C50.9837973,117.578304 50.8206507,117.545675 50.670272,117.480416 C50.5198933,117.415157 50.3907947,117.324363 50.282976,117.208032 C50.1751573,117.091701 50.091456,116.954091 50.031872,116.7952 C49.972288,116.636309 49.942496,116.463232 49.942496,116.275968 L49.942496,116.275968 L49.942496,112.62432 L48.614624,112.62432 L48.614624,116.32704 C48.614624,116.684544 48.6685333,117.013675 48.776352,117.314432 C48.8841707,117.615189 49.04448,117.876224 49.25728,118.097536 C49.47008,118.318848 49.7353707,118.491925 50.053152,118.616768 C50.3709333,118.741611 50.7397867,118.804032 51.159712,118.804032 Z M56.249888,118.650816 L56.249888,114.360768 L56.266912,114.360768 L58.89712,118.650816 L60.633568,118.650816 L60.633568,112.62432 L59.305696,112.62432 L59.305696,116.812224 L59.288672,116.812224 L56.72656,112.62432 L54.922016,112.62432 L54.922016,118.650816 L56.249888,118.650816 Z M64.029856,118.650816 C64.4781547,118.650816 64.906592,118.585557 65.315168,118.45504 C65.723744,118.324523 66.0840853,118.133003 66.396192,117.88048 C66.7082987,117.627957 66.9565653,117.315851 67.140992,116.94416 C67.3254187,116.572469 67.417632,116.142613 67.417632,115.654592 C67.417632,115.104149 67.3225813,114.635989 67.13248,114.250112 C66.9423787,113.864235 66.6856,113.550709 66.362144,113.309536 C66.038688,113.068363 65.659904,112.893867 65.225792,112.786048 C64.79168,112.678229 64.3334507,112.62432 63.851104,112.62432 L63.851104,112.62432 L61.859296,112.62432 L61.859296,118.650816 L64.029856,118.650816 Z M63.87664,117.425088 L63.187168,117.425088 L63.187168,113.850048 L63.970272,113.850048 C64.2483307,113.850048 64.5136213,113.885515 64.766144,113.956448 C65.0186667,114.027381 65.23856,114.133781 65.425824,114.275648 C65.613088,114.417515 65.762048,114.597685 65.872704,114.81616 C65.98336,115.034635 66.038688,115.291413 66.038688,115.586496 C66.038688,115.926976 65.98336,116.214965 65.872704,116.450464 C65.762048,116.685963 65.6102507,116.876064 65.417312,117.020768 C65.2243733,117.165472 64.995968,117.269035 64.732096,117.331456 C64.468224,117.393877 64.183072,117.425088 63.87664,117.425088 L63.87664,117.425088 Z" id="PBACOVID-19RELIEFFUND" fill-rule="nonzero"></path>
            </g>
        </g>
    </g>
</svg>