<?xml version="1.0" encoding="UTF-8"?>
<svg width="221px" height="189px" viewBox="0 0 221 189" version="1.1" xmlns="http://www.w3.org/2000/svg" xmlns:xlink="http://www.w3.org/1999/xlink">
    <title>Group 4</title>
    <g id="Page-1" stroke="none" stroke-width="1" fill="none" fill-rule="evenodd">
        <g id="GALLERY_DESK" transform="translate(-136.000000, -367.000000)">
            <g id="Group-4" transform="translate(136.000000, 367.000000)">
                <g id="Group-2">
                    <g id="Group-5" transform="translate(117.040000, 4.060000)" stroke="#F8CDAC" stroke-width="1.7472">
                        <g id="Group-10-Copy-2" transform="translate(0.302400, 0.369600)">
                            <line x1="0.2576" y1="-5.17275112e-14" x2="11.9154282" y2="11.6578282" id="Path-3"></line>
                            <line x1="0.2576" y1="-5.17275112e-14" x2="11.9154282" y2="11.6578282" id="Path-3" transform="translate(6.086514, 5.828914) scale(-1, 1) translate(-6.086514, -5.828914) "></line>
                        </g>
                    </g>
                    <path d="M7.91448,8.25888 L7.91448,2.48136 L7.93576,2.48136 L9.84032,8.25888 L11.10648,8.25888 L13.08552,2.48136 L13.1068,2.48136 L13.1068,8.25888 L14.76664,8.25888 L14.76664,0.72576 L12.26624,0.72576 L10.52128,5.64144 L10.5,5.64144 L8.76568,0.72576 L6.25464,0.72576 L6.25464,8.25888 L7.91448,8.25888 Z M19.95896,8.4504 C20.5477067,8.4504 21.0903467,8.35818667 21.58688,8.17376 C22.0834133,7.98933333 22.51256,7.72510667 22.87432,7.38108 C23.23608,7.03705333 23.51804,6.62032 23.7202,6.13088 C23.92236,5.64144 24.02344,5.09525333 24.02344,4.49232 C24.02344,3.88938667 23.92236,3.3432 23.7202,2.85376 C23.51804,2.36432 23.23608,1.94758667 22.87432,1.60356 C22.51256,1.25953333 22.0834133,0.995306667 21.58688,0.81088 C21.0903467,0.626453333 20.5477067,0.53424 19.95896,0.53424 C19.3702133,0.53424 18.8275733,0.626453333 18.33104,0.81088 C17.8345067,0.995306667 17.40536,1.25953333 17.0436,1.60356 C16.68184,1.94758667 16.39988,2.36432 16.19772,2.85376 C15.99556,3.3432 15.89448,3.88938667 15.89448,4.49232 C15.89448,5.09525333 15.99556,5.64144 16.19772,6.13088 C16.39988,6.62032 16.68184,7.03705333 17.0436,7.38108 C17.40536,7.72510667 17.8345067,7.98933333 18.33104,8.17376 C18.8275733,8.35818667 19.3702133,8.4504 19.95896,8.4504 Z M19.95896,6.91824 C19.6042933,6.91824 19.28332,6.85794667 18.99604,6.73736 C18.70876,6.61677333 18.4622667,6.44830667 18.25656,6.23196 C18.0508533,6.01561333 17.8930267,5.76025333 17.78308,5.46588 C17.6731333,5.17150667 17.61816,4.84698667 17.61816,4.49232 C17.61816,4.14474667 17.6731333,3.822 17.78308,3.52408 C17.8930267,3.22616 18.0508533,2.96902667 18.25656,2.75268 C18.4622667,2.53633333 18.70876,2.36786667 18.99604,2.24728 C19.28332,2.12669333 19.6042933,2.0664 19.95896,2.0664 C20.3136267,2.0664 20.6346,2.12669333 20.92188,2.24728 C21.20916,2.36786667 21.4556533,2.53633333 21.66136,2.75268 C21.8670667,2.96902667 22.0248933,3.22616 22.13484,3.52408 C22.2447867,3.822 22.29976,4.14474667 22.29976,4.49232 C22.29976,4.84698667 22.2447867,5.17150667 22.13484,5.46588 C22.0248933,5.76025333 21.8670667,6.01561333 21.66136,6.23196 C21.4556533,6.44830667 21.20916,6.61677333 20.92188,6.73736 C20.6346,6.85794667 20.3136267,6.91824 19.95896,6.91824 Z M28.7476,8.25888 L31.85448,0.72576 L30.0776,0.72576 L28.18368,5.66272 L28.1624,5.66272 L26.3004,0.72576 L24.40648,0.72576 L27.4176,8.25888 L28.7476,8.25888 Z M38.01504,8.25888 L38.01504,6.72672 L34.36552,6.72672 L34.36552,5.19456 L37.632,5.19456 L37.632,3.6624 L34.36552,3.6624 L34.36552,2.25792 L37.82352,2.25792 L37.82352,0.72576 L32.70568,0.72576 L32.70568,8.25888 L38.01504,8.25888 Z M41.00488,8.25888 L41.00488,2.48136 L41.02616,2.48136 L42.93072,8.25888 L44.19688,8.25888 L46.17592,2.48136 L46.1972,2.48136 L46.1972,8.25888 L47.85704,8.25888 L47.85704,0.72576 L45.35664,0.72576 L43.61168,5.64144 L43.5904,5.64144 L41.85608,0.72576 L39.34504,0.72576 L39.34504,8.25888 L41.00488,8.25888 Z M54.7624,8.25888 L54.7624,6.72672 L51.11288,6.72672 L51.11288,5.19456 L54.37936,5.19456 L54.37936,3.6624 L51.11288,3.6624 L51.11288,2.25792 L54.57088,2.25792 L54.57088,0.72576 L49.45304,0.72576 L49.45304,8.25888 L54.7624,8.25888 Z M57.75224,8.25888 L57.75224,2.89632 L57.77352,2.89632 L61.06128,8.25888 L63.23184,8.25888 L63.23184,0.72576 L61.572,0.72576 L61.572,5.96064 L61.55072,5.96064 L58.34808,0.72576 L56.0924,0.72576 L56.0924,8.25888 L57.75224,8.25888 Z M67.88152,8.25888 L67.88152,2.19408 L70.0308,2.19408 L70.0308,0.72576 L64.0724,0.72576 L64.0724,2.19408 L66.22168,2.19408 L66.22168,8.25888 L67.88152,8.25888 Z M75.74448,8.25888 L75.74448,5.32224 L78.88328,5.32224 L78.88328,3.79008 L75.74448,3.79008 L75.74448,2.25792 L79.13864,2.25792 L79.13864,0.72576 L74.08464,0.72576 L74.08464,8.25888 L75.74448,8.25888 Z M83.99048,8.4504 C84.5792267,8.4504 85.1218667,8.35818667 85.6184,8.17376 C86.1149333,7.98933333 86.54408,7.72510667 86.90584,7.38108 C87.2676,7.03705333 87.54956,6.62032 87.75172,6.13088 C87.95388,5.64144 88.05496,5.09525333 88.05496,4.49232 C88.05496,3.88938667 87.95388,3.3432 87.75172,2.85376 C87.54956,2.36432 87.2676,1.94758667 86.90584,1.60356 C86.54408,1.25953333 86.1149333,0.995306667 85.6184,0.81088 C85.1218667,0.626453333 84.5792267,0.53424 83.99048,0.53424 C83.4017333,0.53424 82.8590933,0.626453333 82.36256,0.81088 C81.8660267,0.995306667 81.43688,1.25953333 81.07512,1.60356 C80.71336,1.94758667 80.4314,2.36432 80.22924,2.85376 C80.02708,3.3432 79.926,3.88938667 79.926,4.49232 C79.926,5.09525333 80.02708,5.64144 80.22924,6.13088 C80.4314,6.62032 80.71336,7.03705333 81.07512,7.38108 C81.43688,7.72510667 81.8660267,7.98933333 82.36256,8.17376 C82.8590933,8.35818667 83.4017333,8.4504 83.99048,8.4504 Z M83.99048,6.91824 C83.6358133,6.91824 83.31484,6.85794667 83.02756,6.73736 C82.74028,6.61677333 82.4937867,6.44830667 82.28808,6.23196 C82.0823733,6.01561333 81.9245467,5.76025333 81.8146,5.46588 C81.7046533,5.17150667 81.64968,4.84698667 81.64968,4.49232 C81.64968,4.14474667 81.7046533,3.822 81.8146,3.52408 C81.9245467,3.22616 82.0823733,2.96902667 82.28808,2.75268 C82.4937867,2.53633333 82.74028,2.36786667 83.02756,2.24728 C83.31484,2.12669333 83.6358133,2.0664 83.99048,2.0664 C84.3451467,2.0664 84.66612,2.12669333 84.9534,2.24728 C85.24068,2.36786667 85.4871733,2.53633333 85.69288,2.75268 C85.8985867,2.96902667 86.0564133,3.22616 86.16636,3.52408 C86.2763067,3.822 86.33128,4.14474667 86.33128,4.49232 C86.33128,4.84698667 86.2763067,5.17150667 86.16636,5.46588 C86.0564133,5.76025333 85.8985867,6.01561333 85.69288,6.23196 C85.4871733,6.44830667 85.24068,6.61677333 84.9534,6.73736 C84.66612,6.85794667 84.3451467,6.91824 83.99048,6.91824 Z M90.84264,8.25888 L90.84264,5.24776 L91.66192,5.24776 L93.23664,8.25888 L95.22632,8.25888 L93.31112,5.07752 C93.84312,4.97821333 94.24744,4.74236 94.52408,4.36996 C94.80072,3.99756 94.93904,3.54536 94.93904,3.01336 C94.93904,2.57357333 94.8627867,2.20649333 94.71028,1.91212 C94.5577733,1.61774667 94.3520667,1.38366667 94.09316,1.20988 C93.8342533,1.03609333 93.5327867,0.91196 93.18876,0.83748 C92.8447333,0.763 92.4812,0.72576 92.09816,0.72576 L92.09816,0.72576 L89.1828,0.72576 L89.1828,8.25888 L90.84264,8.25888 Z M91.82152,3.84328 L90.84264,3.84328 L90.84264,2.13024 L91.92792,2.13024 C92.07688,2.13024 92.2293867,2.14088 92.38544,2.16216 C92.5414933,2.18344 92.6798133,2.22422667 92.8004,2.28452 C92.9209867,2.34481333 93.0202933,2.43170667 93.09832,2.5452 C93.1763467,2.65869333 93.21536,2.8112 93.21536,3.00272 C93.21536,3.20842667 93.1710267,3.36802667 93.08236,3.48152 C92.9936933,3.59501333 92.8819733,3.67836 92.7472,3.73156 C92.6124267,3.78476 92.4616933,3.81668 92.295,3.82732 C92.1283067,3.83796 91.97048,3.84328 91.82152,3.84328 L91.82152,3.84328 Z M3.318,23.09776 C3.65138667,23.09776 3.98654667,23.0622933 4.32348,22.99136 C4.66041333,22.9204267 4.96365333,22.8033867 5.2332,22.64024 C5.50274667,22.4770933 5.72264,22.26252 5.89288,21.99652 C6.06312,21.73052 6.14824,21.3989067 6.14824,21.00168 C6.14824,20.7605067 6.10922667,20.53352 6.0312,20.32072 C5.95317333,20.10792 5.84145333,19.92172 5.69604,19.76212 C5.55062667,19.60252 5.37684,19.4712933 5.17468,19.36844 C4.97252,19.2655867 4.74730667,19.1964267 4.49904,19.16096 L4.49904,19.16096 L4.49904,19.13968 C4.88917333,19.0190933 5.20305333,18.8187067 5.44068,18.53852 C5.67830667,18.2583333 5.79712,17.90544 5.79712,17.47984 C5.79712,17.0684267 5.71554667,16.7385867 5.5524,16.49032 C5.38925333,16.2420533 5.17645333,16.04876 4.914,15.91044 C4.65154667,15.77212 4.3554,15.6799067 4.02556,15.6338 C3.69572,15.5876933 3.36765333,15.56464 3.04136,15.56464 L3.04136,15.56464 L0.2324,15.56464 L0.2324,23.09776 L3.318,23.09776 Z M3.09456,18.57576 L1.89224,18.57576 L1.89224,16.96912 L3.02008,16.96912 C3.14776,16.96912 3.27898667,16.9815333 3.41376,17.00636 C3.54853333,17.0311867 3.66912,17.0719733 3.77552,17.12872 C3.88192,17.1854667 3.96881333,17.2652667 4.0362,17.36812 C4.10358667,17.4709733 4.13728,17.6004267 4.13728,17.75648 C4.13728,17.90544 4.10713333,18.03312 4.04684,18.13952 C3.98654667,18.24592 3.90674667,18.33104 3.80744,18.39488 C3.70813333,18.45872 3.59641333,18.5048267 3.47228,18.5332 C3.34814667,18.5615733 3.22224,18.57576 3.09456,18.57576 L3.09456,18.57576 Z M3.38184,21.69328 L1.89224,21.69328 L1.89224,19.98024 L3.14776,19.98024 C3.28253333,19.98024 3.42794667,19.99088 3.584,20.01216 C3.74005333,20.03344 3.88546667,20.0724533 4.02024,20.1292 C4.15501333,20.1859467 4.26673333,20.2692933 4.3554,20.37924 C4.44406667,20.4891867 4.4884,20.6328267 4.4884,20.81016 C4.4884,20.9733067 4.45470667,21.1116267 4.38732,21.22512 C4.31993333,21.3386133 4.23304,21.4308267 4.12664,21.50176 C4.02024,21.5726933 3.90142667,21.6223467 3.7702,21.65072 C3.63897333,21.6790933 3.50952,21.69328 3.38184,21.69328 L3.38184,21.69328 Z M11.92576,23.09776 L11.92576,21.5656 L8.8508,21.5656 L8.8508,15.56464 L7.19096,15.56464 L7.19096,23.09776 L11.92576,23.09776 Z M13.89416,23.09776 L14.52192,21.50176 L17.44792,21.50176 L18.09696,23.09776 L19.9696,23.09776 L16.69248,15.56464 L15.31992,15.56464 L12.06408,23.09776 L13.89416,23.09776 Z M16.884,20.09728 L15.04328,20.09728 L15.95832,17.75648 L16.884,20.09728 Z M24.3852,23.28928 C24.9030133,23.28928 25.40664,23.18288 25.89608,22.97008 C26.38552,22.75728 26.78984,22.42744 27.10904,21.98056 L27.10904,21.98056 L25.72584,20.94848 C25.5556,21.20384 25.3392533,21.4024533 25.0768,21.54432 C24.8143467,21.6861867 24.51288,21.75712 24.1724,21.75712 C23.87448,21.75712 23.5960667,21.6968267 23.33716,21.57624 C23.0782533,21.4556533 22.85304,21.2871867 22.66152,21.07084 C22.47,20.8544933 22.3192667,20.5991333 22.20932,20.30476 C22.0993733,20.0103867 22.0444,19.6858667 22.0444,19.3312 C22.0444,18.9836267 22.0993733,18.66088 22.20932,18.36296 C22.3192667,18.06504 22.4717733,17.8079067 22.66684,17.59156 C22.8619067,17.3752133 23.09244,17.2067467 23.35844,17.08616 C23.62444,16.9655733 23.9134933,16.90528 24.2256,16.90528 C24.5377067,16.90528 24.8125733,16.95848 25.0502,17.06488 C25.2878267,17.17128 25.4882133,17.3237867 25.65136,17.5224 L25.65136,17.5224 L26.92816,16.47968 C26.7650133,16.2739733 26.5805867,16.1001867 26.37488,15.95832 C26.1691733,15.8164533 25.9546,15.70296 25.73116,15.61784 C25.50772,15.53272 25.2807333,15.4706533 25.0502,15.43164 C24.8196667,15.3926267 24.598,15.37312 24.3852,15.37312 C23.7964533,15.37312 23.2538133,15.4653333 22.75728,15.64976 C22.2607467,15.8341867 21.8316,16.0984133 21.46984,16.44244 C21.10808,16.7864667 20.82612,17.2032 20.62396,17.69264 C20.4218,18.18208 20.32072,18.7282667 20.32072,19.3312 C20.32072,19.9341333 20.4218,20.48032 20.62396,20.96976 C20.82612,21.4592 21.10808,21.8759333 21.46984,22.21996 C21.8316,22.5639867 22.2607467,22.8282133 22.75728,23.01264 C23.2538133,23.1970667 23.7964533,23.28928 24.3852,23.28928 Z M29.73712,23.09776 L29.73712,19.52272 L32.80144,23.09776 L35.12096,23.09776 L31.48208,19.0652 L34.83368,15.56464 L32.66312,15.56464 L29.73712,18.6928 L29.73712,15.56464 L28.07728,15.56464 L28.07728,23.09776 L29.73712,23.09776 Z M43.6436,23.09776 L43.6436,21.5656 L40.56864,21.5656 L40.56864,15.56464 L38.9088,15.56464 L38.9088,23.09776 L43.6436,23.09776 Z M46.1972,23.09776 L46.1972,15.56464 L44.53736,15.56464 L44.53736,23.09776 L46.1972,23.09776 Z M51.3044,23.09776 L54.41128,15.56464 L52.6344,15.56464 L50.74048,20.5016 L50.7192,20.5016 L48.8572,15.56464 L46.96328,15.56464 L49.9744,23.09776 L51.3044,23.09776 Z M60.57184,23.09776 L60.57184,21.5656 L56.92232,21.5656 L56.92232,20.03344 L60.1888,20.03344 L60.1888,18.50128 L56.92232,18.50128 L56.92232,17.0968 L60.38032,17.0968 L60.38032,15.56464 L55.26248,15.56464 L55.26248,23.09776 L60.57184,23.09776 Z M63.87024,23.28928 C64.2603733,23.28928 64.631,23.2396267 64.98212,23.14032 C65.33324,23.0410133 65.6418,22.8885067 65.9078,22.6828 C66.1738,22.4770933 66.3848267,22.2181867 66.54088,21.90608 C66.6969333,21.5939733 66.77496,21.2286667 66.77496,20.81016 C66.77496,20.3703733 66.68984,20.0192533 66.5196,19.7568 C66.34936,19.4943467 66.1347867,19.2850933 65.87588,19.12904 C65.6169733,18.9729867 65.33856,18.8524 65.04064,18.76728 C64.74272,18.68216 64.4643067,18.59704 64.2054,18.51192 C63.9464933,18.4268 63.73192,18.3239467 63.56168,18.20336 C63.39144,18.0827733 63.30632,17.9089867 63.30632,17.682 C63.30632,17.5401333 63.3417867,17.4195467 63.41272,17.32024 C63.4836533,17.2209333 63.5758667,17.1411333 63.68936,17.08084 C63.8028533,17.0205467 63.92344,16.9762133 64.05112,16.94784 C64.1788,16.9194667 64.3029333,16.90528 64.42352,16.90528 C64.6292267,16.90528 64.8473467,16.9460667 65.07788,17.02764 C65.3084133,17.1092133 65.4910667,17.23512 65.62584,17.40536 L65.62584,17.40536 L66.76432,16.16048 C66.44512,15.8767467 66.0869067,15.6745867 65.68968,15.554 C65.2924533,15.4334133 64.88104,15.37312 64.45544,15.37312 C64.0865867,15.37312 63.7283733,15.4245467 63.3808,15.5274 C63.0332267,15.6302533 62.72644,15.7845333 62.46044,15.99024 C62.19444,16.1959467 61.98164,16.4513067 61.82204,16.75632 C61.66244,17.0613333 61.58264,17.416 61.58264,17.82032 C61.58264,18.2388267 61.6695333,18.57576 61.84332,18.83112 C62.0171067,19.08648 62.2352267,19.2921867 62.49768,19.44824 C62.7601333,19.6042933 63.0438667,19.7284267 63.34888,19.82064 C63.6538933,19.9128533 63.9376267,20.0050667 64.20008,20.09728 C64.4625333,20.1894933 64.6806533,20.3012133 64.85444,20.43244 C65.0282267,20.5636667 65.11512,20.7427733 65.11512,20.96976 C65.11512,21.1045333 65.0814267,21.2215733 65.01404,21.32088 C64.9466533,21.4201867 64.8579867,21.50176 64.74804,21.5656 C64.6380933,21.62944 64.51396,21.67732 64.37564,21.70924 C64.23732,21.74116 64.1007733,21.75712 63.966,21.75712 C63.68936,21.75712 63.4215867,21.6950533 63.16268,21.57092 C62.9037733,21.4467867 62.6892,21.2712267 62.51896,21.04424 L62.51896,21.04424 L61.33792,22.34232 C61.69968,22.6757067 62.0898133,22.91688 62.50832,23.06584 C62.9268267,23.2148 63.3808,23.28928 63.87024,23.28928 Z M72.88232,23.09776 L72.88232,20.16112 L76.02112,20.16112 L76.02112,18.62896 L72.88232,18.62896 L72.88232,17.0968 L76.27648,17.0968 L76.27648,15.56464 L71.22248,15.56464 L71.22248,23.09776 L72.88232,23.09776 Z M80.64952,23.28928 C81.1673333,23.28928 81.6248533,23.2112533 82.02208,23.0552 C82.4193067,22.8991467 82.75092,22.6828 83.01692,22.40616 C83.28292,22.12952 83.4833067,21.8032267 83.61808,21.42728 C83.7528533,21.0513333 83.82024,20.63992 83.82024,20.19304 L83.82024,20.19304 L83.82024,15.56464 L82.1604,15.56464 L82.1604,20.1292 C82.1604,20.36328 82.12316,20.5796267 82.04868,20.77824 C81.9742,20.9768533 81.8695733,21.1488667 81.7348,21.29428 C81.6000267,21.4396933 81.4404267,21.5531867 81.256,21.63476 C81.0715733,21.7163333 80.8694133,21.75712 80.64952,21.75712 C80.4296267,21.75712 80.2256933,21.7163333 80.03772,21.63476 C79.8497467,21.5531867 79.6883733,21.4396933 79.5536,21.29428 C79.4188267,21.1488667 79.3142,20.9768533 79.23972,20.77824 C79.16524,20.5796267 79.128,20.36328 79.128,20.1292 L79.128,20.1292 L79.128,15.56464 L77.46816,15.56464 L77.46816,20.19304 C77.46816,20.63992 77.5355467,21.0513333 77.67032,21.42728 C77.8050933,21.8032267 78.00548,22.12952 78.27148,22.40616 C78.53748,22.6828 78.8690933,22.8991467 79.26632,23.0552 C79.6635467,23.2112533 80.1246133,23.28928 80.64952,23.28928 Z M87.01224,23.09776 L87.01224,17.7352 L87.03352,17.7352 L90.32128,23.09776 L92.49184,23.09776 L92.49184,15.56464 L90.832,15.56464 L90.832,20.79952 L90.81072,20.79952 L87.60808,15.56464 L85.3524,15.56464 L85.3524,23.09776 L87.01224,23.09776 Z M96.7372,23.09776 C97.2975733,23.09776 97.83312,23.0161867 98.34384,22.85304 C98.85456,22.6898933 99.3049867,22.4504933 99.69512,22.13484 C100.085253,21.8191867 100.395587,21.4290533 100.62612,20.96444 C100.856653,20.4998267 100.97192,19.9625067 100.97192,19.35248 C100.97192,18.6644267 100.853107,18.0792267 100.61548,17.59688 C100.377853,17.1145333 100.05688,16.7226267 99.65256,16.42116 C99.24824,16.1196933 98.77476,15.9015733 98.23212,15.7668 C97.68948,15.6320267 97.1166933,15.56464 96.51376,15.56464 L96.51376,15.56464 L94.024,15.56464 L94.024,23.09776 L96.7372,23.09776 Z M96.54568,21.5656 L95.68384,21.5656 L95.68384,17.0968 L96.66272,17.0968 C97.0102933,17.0968 97.3419067,17.1411333 97.65756,17.2298 C97.9732133,17.3184667 98.24808,17.4514667 98.48216,17.6288 C98.71624,17.8061333 98.90244,18.0313467 99.04076,18.30444 C99.17908,18.5775333 99.24824,18.8985067 99.24824,19.26736 C99.24824,19.69296 99.17908,20.0529467 99.04076,20.34732 C98.90244,20.6416933 98.7126933,20.87932 98.47152,21.0602 C98.2303467,21.24108 97.94484,21.3705333 97.615,21.44856 C97.28516,21.5265867 96.92872,21.5656 96.54568,21.5656 L96.54568,21.5656 Z" id="MOVEMENTFORBLACKLIVESFUND" fill="#2C4349" fill-rule="nonzero"></path>
                    <path d="M147.95984,8.25888 L147.95984,5.32224 L149.1728,5.32224 C149.570027,5.32224 149.93888,5.285 150.27936,5.21052 C150.61984,5.13604 150.914213,5.01013333 151.16248,4.8328 C151.410747,4.65546667 151.605813,4.41784 151.74768,4.11992 C151.889547,3.822 151.96048,3.45314667 151.96048,3.01336 C151.96048,2.56648 151.884227,2.19585333 151.73172,1.90148 C151.579213,1.60710667 151.373507,1.37302667 151.1146,1.19924 C150.855693,1.02545333 150.552453,0.903093333 150.20488,0.83216 C149.857307,0.761226667 149.488453,0.72576 149.09832,0.72576 L149.09832,0.72576 L146.3,0.72576 L146.3,8.25888 L147.95984,8.25888 Z M149.0664,3.91776 L147.95984,3.91776 L147.95984,2.13024 L148.81104,2.13024 C148.967093,2.13024 149.13024,2.13910667 149.30048,2.15684 C149.47072,2.17457333 149.625,2.21536 149.76332,2.2792 C149.90164,2.34304 150.015133,2.43348 150.1038,2.55052 C150.192467,2.66756 150.2368,2.82184 150.2368,3.01336 C150.2368,3.19069333 150.203107,3.33788 150.13572,3.45492 C150.068333,3.57196 149.979667,3.66417333 149.86972,3.73156 C149.759773,3.79894667 149.63564,3.84682667 149.49732,3.8752 C149.359,3.90357333 149.21536,3.91776 149.0664,3.91776 L149.0664,3.91776 Z M156.0888,8.25888 C156.422187,8.25888 156.757347,8.22341333 157.09428,8.15248 C157.431213,8.08154667 157.734453,7.96450667 158.004,7.80136 C158.273547,7.63821333 158.49344,7.42364 158.66368,7.15764 C158.83392,6.89164 158.91904,6.56002667 158.91904,6.1628 C158.91904,5.92162667 158.880027,5.69464 158.802,5.48184 C158.723973,5.26904 158.612253,5.08284 158.46684,4.92324 C158.321427,4.76364 158.14764,4.63241333 157.94548,4.52956 C157.74332,4.42670667 157.518107,4.35754667 157.26984,4.32208 L157.26984,4.32208 L157.26984,4.3008 C157.659973,4.18021333 157.973853,3.97982667 158.21148,3.69964 C158.449107,3.41945333 158.56792,3.06656 158.56792,2.64096 C158.56792,2.22954667 158.486347,1.89970667 158.3232,1.65144 C158.160053,1.40317333 157.947253,1.20988 157.6848,1.07156 C157.422347,0.93324 157.1262,0.841026667 156.79636,0.79492 C156.46652,0.748813333 156.138453,0.72576 155.81216,0.72576 L155.81216,0.72576 L153.0032,0.72576 L153.0032,8.25888 L156.0888,8.25888 Z M155.86536,3.73688 L154.66304,3.73688 L154.66304,2.13024 L155.79088,2.13024 C155.91856,2.13024 156.049787,2.14265333 156.18456,2.16748 C156.319333,2.19230667 156.43992,2.23309333 156.54632,2.28984 C156.65272,2.34658667 156.739613,2.42638667 156.807,2.52924 C156.874387,2.63209333 156.90808,2.76154667 156.90808,2.9176 C156.90808,3.06656 156.877933,3.19424 156.81764,3.30064 C156.757347,3.40704 156.677547,3.49216 156.57824,3.556 C156.478933,3.61984 156.367213,3.66594667 156.24308,3.69432 C156.118947,3.72269333 155.99304,3.73688 155.86536,3.73688 L155.86536,3.73688 Z M156.15264,6.8544 L154.66304,6.8544 L154.66304,5.14136 L155.91856,5.14136 C156.053333,5.14136 156.198747,5.152 156.3548,5.17328 C156.510853,5.19456 156.656267,5.23357333 156.79104,5.29032 C156.925813,5.34706667 157.037533,5.43041333 157.1262,5.54036 C157.214867,5.65030667 157.2592,5.79394667 157.2592,5.97128 C157.2592,6.13442667 157.225507,6.27274667 157.15812,6.38624 C157.090733,6.49973333 157.00384,6.59194667 156.89744,6.66288 C156.79104,6.73381333 156.672227,6.78346667 156.541,6.81184 C156.409773,6.84021333 156.28032,6.8544 156.15264,6.8544 L156.15264,6.8544 Z M160.95128,8.25888 L161.57904,6.66288 L164.50504,6.66288 L165.15408,8.25888 L167.02672,8.25888 L163.7496,0.72576 L162.37704,0.72576 L159.1212,8.25888 L160.95128,8.25888 Z M163.94112,5.2584 L162.1004,5.2584 L163.01544,2.9176 L163.94112,5.2584 Z M174.59176,8.4504 C175.109573,8.4504 175.6132,8.344 176.10264,8.1312 C176.59208,7.9184 176.9964,7.58856 177.3156,7.14168 L177.3156,7.14168 L175.9324,6.1096 C175.76216,6.36496 175.545813,6.56357333 175.28336,6.70544 C175.020907,6.84730667 174.71944,6.91824 174.37896,6.91824 C174.08104,6.91824 173.802627,6.85794667 173.54372,6.73736 C173.284813,6.61677333 173.0596,6.44830667 172.86808,6.23196 C172.67656,6.01561333 172.525827,5.76025333 172.41588,5.46588 C172.305933,5.17150667 172.25096,4.84698667 172.25096,4.49232 C172.25096,4.14474667 172.305933,3.822 172.41588,3.52408 C172.525827,3.22616 172.678333,2.96902667 172.8734,2.75268 C173.068467,2.53633333 173.299,2.36786667 173.565,2.24728 C173.831,2.12669333 174.120053,2.0664 174.43216,2.0664 C174.744267,2.0664 175.019133,2.1196 175.25676,2.226 C175.494387,2.3324 175.694773,2.48490667 175.85792,2.68352 L175.85792,2.68352 L177.13472,1.6408 C176.971573,1.43509333 176.787147,1.26130667 176.58144,1.11944 C176.375733,0.977573333 176.16116,0.86408 175.93772,0.77896 C175.71428,0.69384 175.487293,0.631773333 175.25676,0.59276 C175.026227,0.553746667 174.80456,0.53424 174.59176,0.53424 C174.003013,0.53424 173.460373,0.626453333 172.96384,0.81088 C172.467307,0.995306667 172.03816,1.25953333 171.6764,1.60356 C171.31464,1.94758667 171.03268,2.36432 170.83052,2.85376 C170.62836,3.3432 170.52728,3.88938667 170.52728,4.49232 C170.52728,5.09525333 170.62836,5.64144 170.83052,6.13088 C171.03268,6.62032 171.31464,7.03705333 171.6764,7.38108 C172.03816,7.72510667 172.467307,7.98933333 172.96384,8.17376 C173.460373,8.35818667 174.003013,8.4504 174.59176,8.4504 Z M181.88016,8.4504 C182.468907,8.4504 183.011547,8.35818667 183.50808,8.17376 C184.004613,7.98933333 184.43376,7.72510667 184.79552,7.38108 C185.15728,7.03705333 185.43924,6.62032 185.6414,6.13088 C185.84356,5.64144 185.94464,5.09525333 185.94464,4.49232 C185.94464,3.88938667 185.84356,3.3432 185.6414,2.85376 C185.43924,2.36432 185.15728,1.94758667 184.79552,1.60356 C184.43376,1.25953333 184.004613,0.995306667 183.50808,0.81088 C183.011547,0.626453333 182.468907,0.53424 181.88016,0.53424 C181.291413,0.53424 180.748773,0.626453333 180.25224,0.81088 C179.755707,0.995306667 179.32656,1.25953333 178.9648,1.60356 C178.60304,1.94758667 178.32108,2.36432 178.11892,2.85376 C177.91676,3.3432 177.81568,3.88938667 177.81568,4.49232 C177.81568,5.09525333 177.91676,5.64144 178.11892,6.13088 C178.32108,6.62032 178.60304,7.03705333 178.9648,7.38108 C179.32656,7.72510667 179.755707,7.98933333 180.25224,8.17376 C180.748773,8.35818667 181.291413,8.4504 181.88016,8.4504 Z M181.88016,6.91824 C181.525493,6.91824 181.20452,6.85794667 180.91724,6.73736 C180.62996,6.61677333 180.383467,6.44830667 180.17776,6.23196 C179.972053,6.01561333 179.814227,5.76025333 179.70428,5.46588 C179.594333,5.17150667 179.53936,4.84698667 179.53936,4.49232 C179.53936,4.14474667 179.594333,3.822 179.70428,3.52408 C179.814227,3.22616 179.972053,2.96902667 180.17776,2.75268 C180.383467,2.53633333 180.62996,2.36786667 180.91724,2.24728 C181.20452,2.12669333 181.525493,2.0664 181.88016,2.0664 C182.234827,2.0664 182.5558,2.12669333 182.84308,2.24728 C183.13036,2.36786667 183.376853,2.53633333 183.58256,2.75268 C183.788267,2.96902667 183.946093,3.22616 184.05604,3.52408 C184.165987,3.822 184.22096,4.14474667 184.22096,4.49232 C184.22096,4.84698667 184.165987,5.17150667 184.05604,5.46588 C183.946093,5.76025333 183.788267,6.01561333 183.58256,6.23196 C183.376853,6.44830667 183.13036,6.61677333 182.84308,6.73736 C182.5558,6.85794667 182.234827,6.91824 181.88016,6.91824 Z M190.6688,8.25888 L193.77568,0.72576 L191.9988,0.72576 L190.10488,5.66272 L190.0836,5.66272 L188.2216,0.72576 L186.32768,0.72576 L189.3388,8.25888 L190.6688,8.25888 Z M196.2016,8.25888 L196.2016,0.72576 L194.54176,0.72576 L194.54176,8.25888 L196.2016,8.25888 Z M200.42568,8.25888 C200.986053,8.25888 201.5216,8.17730667 202.03232,8.01416 C202.54304,7.85101333 202.993467,7.61161333 203.3836,7.29596 C203.773733,6.98030667 204.084067,6.59017333 204.3146,6.12556 C204.545133,5.66094667 204.6604,5.12362667 204.6604,4.5136 C204.6604,3.82554667 204.541587,3.24034667 204.30396,2.758 C204.066333,2.27565333 203.74536,1.88374667 203.34104,1.58228 C202.93672,1.28081333 202.46324,1.06269333 201.9206,0.92792 C201.37796,0.793146667 200.805173,0.72576 200.20224,0.72576 L200.20224,0.72576 L197.71248,0.72576 L197.71248,8.25888 L200.42568,8.25888 Z M200.23416,6.72672 L199.37232,6.72672 L199.37232,2.25792 L200.3512,2.25792 C200.698773,2.25792 201.030387,2.30225333 201.34604,2.39092 C201.661693,2.47958667 201.93656,2.61258667 202.17064,2.78992 C202.40472,2.96725333 202.59092,3.19246667 202.72924,3.46556 C202.86756,3.73865333 202.93672,4.05962667 202.93672,4.42848 C202.93672,4.85408 202.86756,5.21406667 202.72924,5.50844 C202.59092,5.80281333 202.401173,6.04044 202.16,6.22132 C201.918827,6.4022 201.63332,6.53165333 201.30348,6.60968 C200.97364,6.68770667 200.6172,6.72672 200.23416,6.72672 L200.23416,6.72672 Z M207.9056,6.24792 L207.9056,4.97112 L205.28816,4.97112 L205.28816,6.24792 L207.9056,6.24792 Z M212.76808,8.25888 L212.76808,0.72576 L211.27848,0.72576 L208.82064,2.80056 L209.72504,3.84328 L211.23592,2.51328 L211.23592,8.25888 L212.76808,8.25888 Z M217.89656,8.25888 L219.54576,5.684 C219.666347,5.49248 219.781613,5.30628 219.89156,5.1254 C220.001507,4.94452 220.097267,4.75477333 220.17884,4.55616 C220.260413,4.35754667 220.326027,4.14652 220.37568,3.92308 C220.425333,3.69964 220.45016,3.45314667 220.45016,3.1836 C220.45016,2.79346667 220.377453,2.44057333 220.23204,2.12492 C220.086627,1.80926667 219.888013,1.53794667 219.6362,1.31096 C219.384387,1.08397333 219.086467,0.908413333 218.74244,0.78428 C218.398413,0.660146667 218.031333,0.59808 217.6412,0.59808 C217.243973,0.59808 216.87512,0.660146667 216.53464,0.78428 C216.19416,0.908413333 215.898013,1.08397333 215.6462,1.31096 C215.394387,1.53794667 215.195773,1.80926667 215.05036,2.12492 C214.904947,2.44057333 214.83224,2.79346667 214.83224,3.1836 C214.83224,3.52408 214.888987,3.84505333 215.00248,4.14652 C215.115973,4.44798667 215.275573,4.70866667 215.48128,4.92856 C215.686987,5.14845333 215.935253,5.32224 216.22608,5.44992 C216.516907,5.5776 216.839653,5.64144 217.19432,5.64144 C217.286533,5.64144 217.3752,5.63434667 217.46032,5.62016 C217.54544,5.60597333 217.63056,5.58824 217.71568,5.56696 L217.71568,5.56696 L215.94944,8.25888 L217.89656,8.25888 Z M217.6412,4.42848 C217.27944,4.42848 216.98684,4.31676 216.7634,4.09332 C216.53996,3.86988 216.42824,3.58792 216.42824,3.24744 C216.42824,2.90696 216.53996,2.625 216.7634,2.40156 C216.98684,2.17812 217.27944,2.0664 217.6412,2.0664 C218.00296,2.0664 218.29556,2.17812 218.519,2.40156 C218.74244,2.625 218.85416,2.90696 218.85416,3.24744 C218.85416,3.58792 218.74244,3.86988 218.519,4.09332 C218.29556,4.31676 218.00296,4.42848 217.6412,4.42848 Z M150.7954,23.09776 L150.7954,20.08664 L151.61468,20.08664 L153.1894,23.09776 L155.17908,23.09776 L153.26388,19.9164 C153.79588,19.8170933 154.2002,19.58124 154.47684,19.20884 C154.75348,18.83644 154.8918,18.38424 154.8918,17.85224 C154.8918,17.4124533 154.815547,17.0453733 154.66304,16.751 C154.510533,16.4566267 154.304827,16.2225467 154.04592,16.04876 C153.787013,15.8749733 153.485547,15.75084 153.14152,15.67636 C152.797493,15.60188 152.43396,15.56464 152.05092,15.56464 L152.05092,15.56464 L149.13556,15.56464 L149.13556,23.09776 L150.7954,23.09776 Z M151.77428,18.68216 L150.7954,18.68216 L150.7954,16.96912 L151.88068,16.96912 C152.02964,16.96912 152.182147,16.97976 152.3382,17.00104 C152.494253,17.02232 152.632573,17.0631067 152.75316,17.1234 C152.873747,17.1836933 152.973053,17.2705867 153.05108,17.38408 C153.129107,17.4975733 153.16812,17.65008 153.16812,17.8416 C153.16812,18.0473067 153.123787,18.2069067 153.03512,18.3204 C152.946453,18.4338933 152.834733,18.51724 152.69996,18.57044 C152.565187,18.62364 152.414453,18.65556 152.24776,18.6662 C152.081067,18.67684 151.92324,18.68216 151.77428,18.68216 L151.77428,18.68216 Z M161.40348,23.09776 L161.40348,21.5656 L157.75396,21.5656 L157.75396,20.03344 L161.02044,20.03344 L161.02044,18.50128 L157.75396,18.50128 L157.75396,17.0968 L161.21196,17.0968 L161.21196,15.56464 L156.09412,15.56464 L156.09412,23.09776 L161.40348,23.09776 Z M167.53212,23.09776 L167.53212,21.5656 L164.45716,21.5656 L164.45716,15.56464 L162.79732,15.56464 L162.79732,23.09776 L167.53212,23.09776 Z M170.08572,23.09776 L170.08572,15.56464 L168.42588,15.56464 L168.42588,23.09776 L170.08572,23.09776 Z M176.9698,23.09776 L176.9698,21.5656 L173.32028,21.5656 L173.32028,20.03344 L176.58676,20.03344 L176.58676,18.50128 L173.32028,18.50128 L173.32028,17.0968 L176.77828,17.0968 L176.77828,15.56464 L171.66044,15.56464 L171.66044,23.09776 L176.9698,23.09776 Z M180.02348,23.09776 L180.02348,20.16112 L183.16228,20.16112 L183.16228,18.62896 L180.02348,18.62896 L180.02348,17.0968 L183.41764,17.0968 L183.41764,15.56464 L178.36364,15.56464 L178.36364,23.09776 L180.02348,23.09776 Z M189.48244,23.09776 L189.48244,20.16112 L192.62124,20.16112 L192.62124,18.62896 L189.48244,18.62896 L189.48244,17.0968 L192.8766,17.0968 L192.8766,15.56464 L187.8226,15.56464 L187.8226,23.09776 L189.48244,23.09776 Z M197.24964,23.28928 C197.767453,23.28928 198.224973,23.2112533 198.6222,23.0552 C199.019427,22.8991467 199.35104,22.6828 199.61704,22.40616 C199.88304,22.12952 200.083427,21.8032267 200.2182,21.42728 C200.352973,21.0513333 200.42036,20.63992 200.42036,20.19304 L200.42036,20.19304 L200.42036,15.56464 L198.76052,15.56464 L198.76052,20.1292 C198.76052,20.36328 198.72328,20.5796267 198.6488,20.77824 C198.57432,20.9768533 198.469693,21.1488667 198.33492,21.29428 C198.200147,21.4396933 198.040547,21.5531867 197.85612,21.63476 C197.671693,21.7163333 197.469533,21.75712 197.24964,21.75712 C197.029747,21.75712 196.825813,21.7163333 196.63784,21.63476 C196.449867,21.5531867 196.288493,21.4396933 196.15372,21.29428 C196.018947,21.1488667 195.91432,20.9768533 195.83984,20.77824 C195.76536,20.5796267 195.72812,20.36328 195.72812,20.1292 L195.72812,20.1292 L195.72812,15.56464 L194.06828,15.56464 L194.06828,20.19304 C194.06828,20.63992 194.135667,21.0513333 194.27044,21.42728 C194.405213,21.8032267 194.6056,22.12952 194.8716,22.40616 C195.1376,22.6828 195.469213,22.8991467 195.86644,23.0552 C196.263667,23.2112533 196.724733,23.28928 197.24964,23.28928 Z M203.61236,23.09776 L203.61236,17.7352 L203.63364,17.7352 L206.9214,23.09776 L209.09196,23.09776 L209.09196,15.56464 L207.43212,15.56464 L207.43212,20.79952 L207.41084,20.79952 L204.2082,15.56464 L201.95252,15.56464 L201.95252,23.09776 L203.61236,23.09776 Z M213.33732,23.09776 C213.897693,23.09776 214.43324,23.0161867 214.94396,22.85304 C215.45468,22.6898933 215.905107,22.4504933 216.29524,22.13484 C216.685373,21.8191867 216.995707,21.4290533 217.22624,20.96444 C217.456773,20.4998267 217.57204,19.9625067 217.57204,19.35248 C217.57204,18.6644267 217.453227,18.0792267 217.2156,17.59688 C216.977973,17.1145333 216.657,16.7226267 216.25268,16.42116 C215.84836,16.1196933 215.37488,15.9015733 214.83224,15.7668 C214.2896,15.6320267 213.716813,15.56464 213.11388,15.56464 L213.11388,15.56464 L210.62412,15.56464 L210.62412,23.09776 L213.33732,23.09776 Z M213.1458,21.5656 L212.28396,21.5656 L212.28396,17.0968 L213.26284,17.0968 C213.610413,17.0968 213.942027,17.1411333 214.25768,17.2298 C214.573333,17.3184667 214.8482,17.4514667 215.08228,17.6288 C215.31636,17.8061333 215.50256,18.0313467 215.64088,18.30444 C215.7792,18.5775333 215.84836,18.8985067 215.84836,19.26736 C215.84836,19.69296 215.7792,20.0529467 215.64088,20.34732 C215.50256,20.6416933 215.312813,20.87932 215.07164,21.0602 C214.830467,21.24108 214.54496,21.3705333 214.21512,21.44856 C213.88528,21.5265867 213.52884,21.5656 213.1458,21.5656 L213.1458,21.5656 Z" id="PBACOVID-19RELIEFFUND" fill="#2C4349" fill-rule="nonzero"></path>
                </g>
                <path d="M145.568153,134.433097 C166.508362,109.615408 173.086855,83.9551626 168.718564,71.3409639 C165.913661,63.2415431 160.144451,58.2677377 151.57647,56.5675237 C135.629908,53.3845298 120.639771,64.3498531 114.938002,70.5799445 C113.791517,71.8332106 110.112956,76.0490165 110.7659,77.8670073 C110.977418,78.4468316 111.458696,78.8454608 112.059528,78.9390783 C113.215209,79.1323531 113.987707,78.0753817 114.285057,77.6888321 C125.388181,63.2385232 142.82456,56.150775 153.992058,61.5745482 C159.350495,64.168658 162.915634,68.7438342 164.307356,74.7957504 C167.136783,87.0898377 157.977166,113.704378 141.914116,130.410565 C132.365185,119.345585 118.552188,99.0064353 111.529202,87.8659567 C110.532925,86.2925793 109.564237,84.7554409 108.623139,83.2787009 C105.999098,79.1565124 98.8075117,68.8525512 88.7190581,62.1453127 C78.9892641,55.6796677 69.5384278,54.7918117 61.4057424,59.5723424 C55.5813541,62.9969297 43.5371322,74.9769455 57.4635512,112.173279 C62.9997855,126.964839 70.9148227,142.133888 80.9848835,157.239519 C84.4856474,162.690472 101.61548,189 106.112521,189 C106.287252,189 106.434395,188.963761 106.569275,188.882223 L106.851298,188.664789 L106.906477,188.414136 C107.075078,187.610838 105.919396,185.853245 101.226166,179.284923 C100.122597,177.738725 98.9423923,176.089849 97.7744491,174.419835 C87.3978416,159.570896 72.956424,135.891717 65.4276358,120.127744 C68.7873882,123.694267 73.572583,126.992018 78.575426,128.154686 C82.9375863,129.166359 86.9502833,128.508017 90.5092911,126.19476 C101.630807,118.962055 102.430894,101.896497 92.4466666,84.6829629 C91.2664616,82.6505579 90.1015839,81.2493158 88.6087012,79.6396993 C87.1587351,78.0814215 86.3034696,78.431732 86.0061193,78.6521861 C85.282669,79.1927514 85.466597,80.4611171 86.5057905,82.128112 C86.5057905,82.128112 87.8086142,84.2873536 88.1120955,84.8007397 C96.5942441,99.2993673 96.6187679,113.936911 88.1734048,120.399536 C84.6573136,123.090284 80.7641698,124.017398 76.9200736,123.108403 C71.2520241,121.7585 66.019271,116.537061 62.1843712,108.416501 C58.5793813,100.776107 55.6794491,88.1377494 55.5813541,79.6759384 C55.9369483,72.1050032 58.8184878,66.6751902 64.1462704,63.540515 C68.7168825,60.8497678 73.6737434,60.1884057 78.8819728,61.5745482 C87.9036437,63.9723633 97.3084981,72.5700706 104.034134,84.5621661 C108.147991,91.9066074 122.273666,113.190991 132.607357,126.427293 C134.777708,129.205618 146.279342,142.07047 149.985492,144.012277 C151.309774,144.703839 152.03629,144.160253 152.355098,143.773704 C153.28087,142.641234 152.695365,142.016111 147.082494,136.045733 L145.568153,134.433097 Z" id="Fill-49-Copy" fill="#2C4349"></path>
            </g>
        </g>
    </g>
</svg>