<svg xmlns="http://www.w3.org/2000/svg" width="12.343" height="12.343" viewBox="0 0 12.343 12.343">
  <path id="Icon_ionic-ios-checkbox" data-name="Icon ionic-ios-checkbox" d="M15.814,4.5H5.529A1.027,1.027,0,0,0,4.5,5.529V15.814a1.027,1.027,0,0,0,1.029,1.029H15.814a1.027,1.027,0,0,0,1.029-1.029V5.529A1.027,1.027,0,0,0,15.814,4.5ZM14.127,8.823l-4.3,4.317h0a.58.58,0,0,1-.373.177.563.563,0,0,1-.376-.183l-1.8-1.8a.128.128,0,0,1,0-.183l.572-.572a.124.124,0,0,1,.18,0l1.427,1.427,3.921-3.95a.127.127,0,0,1,.09-.039h0a.117.117,0,0,1,.09.039l.562.582A.127.127,0,0,1,14.127,8.823Z" transform="translate(-4.5 -4.5)" fill="#213439"/>
</svg>
