<svg xmlns="http://www.w3.org/2000/svg" width="75.3" height="75.282" viewBox="0 0 75.3 75.282">
  <g id="Group_9" data-name="Group 9" transform="translate(0.206 0.21)">
    <path id="Stroke_1" data-name="Stroke 1" d="M20.7,15.726l-.09-.2L20.56,15.3l-.144-.177-.1-.2-.078-.211-.116-.191-.068-.217-.118-.191-.091-.205-.16-.168-.053-.225-.132-.184-.124-.187-.083-.21-.106-.2-.137-.18-.057-.224-.162-.166-.09-.206-.1-.2-.132-.183-.076-.214-.147-.175-.091-.206-.093-.206-.156-.169-.056-.227-.162-.166L17.647,10l-.115-.194-.148-.173-.114-.194-.088-.211-.1-.206-.12-.192-.147-.168-.113-.189-.1-.194-.149-.166-.11-.191-.087-.205-.111-.189-.115-.187-.144-.168-.095-.2L15.646,6.8l-.1-.2-.119-.184L15.3,6.249l-.143-.168-.134-.174-.09-.2-.163-.155-.081-.21-.113-.189-.152-.164-.15-.167-.039-.168L14.1,4.468l-.153-.162-.1-.2-.153-.164-.09-.207-.136-.177-.143-.172L13.2,3.2l-.133-.181-.132-.183-.1-.2-.1-.2-.145-.174-.113-.2-.155-.169L12.23,1.68,12.1,1.495l-.151-.172-.112-.2L11.692.952,11.6.745,11.477.551,11.32.381,11.2.185,11.075,0,10.96.18l-.113.185L10.7.53l-.11.186-.1.191-.129.174-.125.179-.148.164-.119.182-.095.2-.116.184-.109.19-.116.185-.159.156L9.246,2.7l-.077.21-.131.175-.154.16-.121.183-.08.211-.121.184L8.4,3.975l-.095.2-.16.156-.112.191-.091.2-.109.19-.175.146-.1.194-.133.172-.09.2-.115.189L7.1,6l-.117.188-.141.171-.089.205-.161.159-.074.214L6.4,7.131l-.162.159-.1.2-.119.186-.1.2-.156.163-.058.223-.138.174-.118.186-.142.172-.1.195-.1.2-.116.188L4.9,9.569l-.117.187-.113.189-.11.191-.147.169-.125.182-.092.2-.1.2-.136.175-.057.22-.149.168-.063.216-.117.186-.109.19-.128.18-.115.188-.069.212-.1.2-.111.189-.1.2-.113.189-.065.213-.091.2-.1.2-.1.2-.122.185-.089.2-.068.21-.085.2-.09.2-.115.189-.111.191-.073.208-.065.211-.1.2-.086.2-.1.2-.046.222-.116.195-.087.206-.074.21L.9,17.637l-.1.2-.043.222-.085.207-.073.211-.071.213-.054.218L.4,19.124l-.016.227-.077.212-.027.224L.208,20l-.016.225-.063.217-.007.226L.1,20.893l-.031.222-.055.221.038.227-.019.224L0,22.007l.008.22.052.219-.021.221.038.218v.442l.014.221.062.214.053.214L.189,24.2l.086.207.035.218.035.218.048.216.081.206.089.2.062.211.06.212.079.206.093.2.058.214.095.2.088.2.085.2.111.191.111.19.093.2.071.213.14.174.112.19.121.184.144.168.129.178.128.179.125.181.109.194.171.144.139.17.138.172.129.18.142.17.178.134.165.146.169.141.161.15.151.161.157.156.177.132.193.11.16.153L5,31.586l.168.144.187.116.183.123.2.1.2.088.173.141.205.082.192.108.195.1.218.052.184.131.2.089.219.043.2.086.208.073.219.036.206.078.216.043.212.058L9,33.33l.211.067.217.036.222.009.212.074.222,0,.22.011.219.031.221.007.229-.012.228-.01.111.037.221,0,.221-.008.219-.028.217-.048.224.027.213-.07.222-.007.215-.051.218-.033.224-.008.211-.067.206-.086.223-.021.206-.083.222-.03.2-.089.2-.1.224-.033.2-.091.2-.092.192-.111.215-.061.17-.152.2-.1.2-.1.2-.086.184-.122.2-.093.17-.142.166-.148.189-.114.185-.122.169-.142.185-.122.165-.147.168-.144.151-.162.168-.143.146-.166.172-.14.123-.187.156-.156.157-.156.112-.194.156-.157.163-.153.132-.178.123-.184.131-.178.073-.216.124-.182.153-.165.072-.214.144-.172.105-.194.056-.219.143-.176.044-.223.111-.192.1-.2.052-.216.117-.191.039-.22.108-.2.022-.224L22,25.2l.019-.224.119-.2-.011-.229.086-.207.023-.22.063-.213.021-.22.043-.217.013-.221.029-.219,0-.223.075-.219-.014-.226.019-.224.02-.224-.029-.225v-.225l-.013-.225,0-.226-.033-.223-.028-.223-.06-.218-.025-.223-.037-.221-.067-.215-.017-.226-.06-.216-.1-.206-.055-.217L21.95,18.6l-.1-.2-.064-.215-.05-.22-.058-.218-.081-.21-.107-.2-.082-.209-.079-.21-.108-.2-.082-.209L21,16.325l-.06-.22-.106-.2Z" transform="translate(35.87 19.599)" fill="none" stroke="#f7bfa0" stroke-miterlimit="10" stroke-width="0.72"/>
    <path id="Stroke_2" data-name="Stroke 2" d="M8.177,33.565l.037-.221.011-.22-.01-.22-.017-.22-.034-.22.06-.22-.048-.22.02-.22.021-.22-.049-.22.038-.22.018-.22L8.2,30.7l-.038-.219v-.22l.022-.22-.012-.22.017-.22.038-.22-.044-.22.034-.22-.02-.22-.038-.22.012-.22.055-.22-.048-.22,0-.22.027-.22-.015-.22.04-.22-.015-.22.015-.221L8.164,26.3l.059-.221-.029-.221-.021-.221L8.2,25.42V25.2l-.034-.221.058-.221-.061-.221.021-.221.009-.221-.026-.22.039-.22-.041-.22.022-.221.022-.22-.051-.22.065-.22-.057-.22.043-.22v-.22l-.04-.22v-.22l.032-.221.024-.22,0-.221-.038-.22,0-.221.014-.221-.039-.221.009-.221.037-.221.009-.221,0-.221L8.192,18.8l.03-.221-.03-.221.027-.221,0-.22L8.209,17.7l-.025-.221-.014-.221.04-.22-.047-.221.051-.221.013-.221-.033-.221-.03-.221.061-.221,0-.221-.036-.221.028-.221-.034-.221.041-.221-.013-.221-.023-.219-.006-.219-.01-.22-.009-.22.028-.22.03-.221-.025-.221.014-.221L8.173,12.4l.048-.221,0-.221-.03-.221.016-.22-.024-.22.034-.22.01-.22-.037-.22.011-.22L8.19,10.2l0-.22-.009-.221.027-.221L8.2,9.313l-.019-.221.01-.222.005-.222.032-.221,0-.221L8.19,7.984l-.006-.221L8.17,7.543l-.006-.221L8.21,7.1l.006-.221-.053-.222.012-.222.039-.222V5.992l-.05-.221V5.549l.051-.221-.034-.222.045-.222-.013-.222-.036-.222-.015-.222L8.226,4,8.2,3.777l.018-.221-.033-.222-.005-.223,0-.222,0-.222.027-.222-.035-.223L8.226,2l-.052-.222-.008-.223.052-.223L8.2,1.11l0-.222L8.181.665,8.227.44,8.159.216,8.191,0,8.08.18,7.936.349,7.828.541,7.723.735,7.6.919l-.091.2-.122.184-.119.186-.117.188L7,1.845l-.134.178-.1.2-.107.2-.146.17-.07.218-.16.161L6.2,3.18l-.13.18-.123.184-.142.172-.129.18L5.594,4.1l-.116.188-.128.18-.118.188L5.1,4.836l-.088.207L4.9,5.234l-.122.186-.123.186-.145.171-.115.19-.1.2-.113.191-.119.187-.143.172-.14.174-.106.2-.1.2-.131.181-.122.186-.133.179L3.1,8.043l-.15.168-.126.184-.116.19-.105.2-.144.172-.093.2-.132.179-.124.184L1.991,9.7,1.879,9.9l-.125.185-.085.211-.141.175-.1.2-.145.172-.1.2-.142.174-.1.2-.113.194L.706,11.8l-.152.169-.077.216-.131.183L.2,12.535l-.116.193L0,12.944" transform="translate(19.215 19.603)" fill="none" stroke="#f7bfa0" stroke-miterlimit="10" stroke-width="0.72"/>
    <path id="Stroke_3" data-name="Stroke 3" d="M54.253,70.471l-.2.1-.194.1-.216.06-.189.113-.211.069-.176.143-.2.1-.221.047-.188.118-.214.06-.2.1-.211.067-.2.1-.207.074-.194.107-.211.063-.184.135-.216.052-.2.093-.222.034-.2.081-.19.124-.227.017-.21.066-.2.091-.2.11-.219.038-.21.067-.2.083-.207.077-.218.039-.2.088L47.5,73.1l-.208.072-.205.084-.211.064-.212.059-.213.058-.228-.007-.211.065-.211.065-.213.056-.215.05-.21.072-.22.023-.223.01-.214.053-.213.058-.222.008-.214.053-.219.025-.218.031-.216.041-.213.062-.213.063-.226-.022-.212.07-.221,0-.221,0-.211.086-.223-.009-.217.046-.218.03-.219.019-.222-.005-.216.055-.22.015-.223-.024-.219.029-.22.014-.222-.027-.219.028-.218.053-.222-.046-.219.045L38.17,74.5l-.22.007-.22.027-.221.02-.221-.056-.221.018h-.221l-.221.014-.221-.007-.222.015-.221-.012-.22-.029-.221,0-.22-.023-.223.027-.219-.033-.22-.021-.222,0-.22-.021-.217-.055-.219-.032-.221-.011-.221-.006-.223.01-.213-.085-.225.021-.217-.047-.216-.05L32,74.183l-.214-.069-.215-.051-.222-.011h-.225l-.218-.036-.214-.061-.22-.027-.214-.057-.21-.079H29.82l-.21-.078-.22-.026-.224-.01-.214-.06-.2-.1-.226,0-.215-.05-.208-.08-.218-.041-.2-.095-.217-.042-.209-.073h-.23l-.2-.118-.22-.035-.218-.044-.2-.091-.211-.067-.221-.036-.192-.124-.229-.012-.2-.091-.206-.081-.217-.05-.195-.112-.222-.037-.2-.1-.2-.1L23.67,72l-.182-.142-.226-.03-.188-.124-.2-.084-.219-.049-.2-.088-.19-.118-.192-.111-.2-.087-.217-.057-.2-.1-.193-.108-.216-.061-.195-.105-.182-.131-.193-.107-.195-.1-.209-.076-.181-.13-.209-.078-.181-.129-.192-.109-.2-.1-.2-.087-.2-.1-.171-.145-.215-.071-.164-.157-.182-.125-.206-.087-.2-.091-.154-.17-.188-.116-.2-.09-.169-.145-.2-.093-.16-.158-.19-.113-.195-.106-.185-.122-.187-.119-.184-.122-.163-.152-.16-.155-.192-.112L14.855,67l-.2-.105-.146-.172-.177-.132-.192-.113-.162-.151-.187-.12-.149-.166-.164-.148-.193-.114-.162-.151-.171-.14-.168-.144-.172-.139-.147-.167L12.3,64.9l-.176-.135-.156-.157-.158-.154-.138-.175-.161-.151L11.326,64l-.162-.151L11,63.705l-.16-.152-.122-.189-.15-.162-.191-.123-.144-.168-.123-.187-.151-.161-.187-.128-.149-.163-.109-.2-.172-.142-.111-.2-.155-.158L8.9,61.432l-.154-.159-.092-.211L8.5,60.907l-.125-.183-.164-.151L8.064,60.4l-.135-.175-.137-.173-.113-.191-.162-.155L7.425,59.5l-.173-.146-.137-.174-.088-.209-.144-.168-.126-.182-.141-.171-.087-.208-.18-.144-.1-.2-.119-.186-.095-.2-.13-.179-.132-.178-.115-.188L5.513,56.8,5.4,56.608l-.113-.19-.115-.188L5.1,56.018l-.1-.2-.128-.181-.121-.185-.079-.208-.157-.166-.063-.217-.148-.172-.091-.2-.1-.2-.076-.209-.088-.2-.132-.18-.1-.2-.085-.2-.1-.2-.079-.207L3.338,52.7l-.1-.2-.086-.2-.085-.2-.059-.215-.09-.2-.109-.194-.09-.2-.082-.205-.055-.215-.057-.215-.093-.2-.1-.2-.064-.212L2.2,49.831l-.058-.214-.11-.2L1.994,49.2l-.063-.212-.073-.208-.084-.2-.038-.219-.095-.2-.049-.215-.057-.213-.055-.213-.069-.21-.053-.214-.1-.2-.032-.22-.077-.208-.025-.222-.078-.208-.026-.221L.949,45.6l-.057-.213-.039-.218-.009-.224L.75,44.737l-.031-.219L.709,44.3l-.046-.216L.578,43.87.57,43.647.51,43.434l-.016-.221-.012-.221-.02-.22L.4,42.557l-.049-.216.026-.226L.3,41.9l-.014-.221-.009-.221-.017-.22-.046-.217L.168,40.8l-.014-.221-.008-.221-.022-.22-.031-.219L.1,39.7l-.023-.22-.01-.221v-.222l-.025-.22L.026,38.6l.005-.222.038-.222-.037-.22v-.221l0-.222L0,37.269l0-.221,0-.221.013-.221.039-.22-.036-.222.011-.221.018-.221.035-.22.025-.219-.02-.223,0-.222,0-.221.019-.22.04-.219.038-.219L.2,33.739l-.009-.223.05-.217v-.222l.049-.217.021-.22.035-.218L.365,32.2l.006-.222.072-.213.011-.222L.5,31.326l.047-.216,0-.225.086-.209.047-.216,0-.224.056-.215L.782,29.8.8,29.582l.064-.213L.9,29.151l.056-.214L1,28.721l.075-.21.05-.215.029-.221.1-.2.035-.219.049-.216.073-.209.055-.214.043-.218.05-.216.1-.2.065-.211.067-.211.053-.215.04-.219L2,25.33l.03-.223.1-.2.059-.214.082-.205.11-.195.06-.214.047-.219.115-.192.06-.214.119-.191.065-.212.057-.216.132-.184.079-.207.084-.2.07-.211.125-.186.038-.226.1-.2.1-.2.121-.187.089-.2.125-.185.077-.208.076-.209.118-.188.115-.189.1-.2.125-.184.1-.2.11-.192.093-.2.12-.186.1-.2.134-.177.081-.209.124-.184.13-.18.083-.208.137-.175.148-.167.119-.186.116-.188.128-.18.075-.215.13-.179.162-.156.089-.207.162-.156.13-.178.089-.208L7.3,15.2l.089-.209.152-.162.146-.167.11-.194.168-.148.108-.2.169-.148.1-.2.163-.152.108-.2.192-.127.094-.21.174-.142.129-.181.163-.151.135-.176.156-.157.137-.174.153-.159.133-.178.194-.12.133-.177.162-.151.167-.146L10.875,11l.162-.151.157-.156.167-.144.151-.161.16-.153.141-.172.169-.142.165-.147.149-.165.186-.123.16-.152.139-.177.172-.14.19-.117.146-.17.175-.135.188-.119.185-.123.172-.137.157-.157.177-.132.181-.127.164-.149.183-.124.148-.171.2-.1.173-.137L15.58,7l.167-.146.166-.148L16.1,6.6l.208-.086.17-.143.2-.1.168-.147.192-.11.169-.145.176-.135.191-.111.2-.095.2-.09.178-.131.193-.108.168-.149.189-.114.207-.082.18-.131.221-.057.168-.154.189-.115.227-.045.168-.155.2-.1.2-.1.2-.091.215-.063.2-.1.194-.107.212-.068.193-.108.188-.121.2-.085.213-.065.189-.118.221-.046.192-.111.2-.087.21-.071.188-.123.21-.071L23.9,2.5l.189-.124.212-.062.209-.072.222-.034.2-.109.207-.077.221-.037.191-.125.222-.031.217-.046L26.2,1.7l.2-.1.221-.033.2-.086.223-.025.211-.065.217-.042.211-.067.2-.108.229,0,.2-.1.226-.006.214-.054.2-.106.216-.045.216-.045L29.61.8l.216-.046.217-.04.219-.029.216-.045L30.7.617l.213-.064.216-.045.221-.015.219-.026.211-.084L32,.357h.223L32.436.3l.219-.028.222-.008L33.1.245l.221-.011L33.534.18l.222,0,.221-.006L34.2.169l.219-.032.217-.056.22-.022.224.047L35.3.034l.223.037.219-.062.221,0,.223.043L36.4.045l.221,0L36.845,0l.222.036.222-.007.221-.017.221.032.221-.018.221.023.221-.008L38.615,0l.221,0,.219.054.222-.023L39.5.092,39.72.064l.217.066L40.16.1l.221.011.22.022.216.061.22.02.22.021.224-.018L41.7.25l.215.061.226-.02.216.054L42.573.4,42.8.4l.218.039.222.007.211.081.225,0,.219.032.216.045.211.079.219.034.225,0L44.97.8l.21.076L45.4.9l.212.064.225.007.218.04.2.1.216.047L46.7,1.2l.2.093.221.03.222.029.209.071.214.056.2.095.217.045.214.057.2.1.224.026.208.075.2.11.221.035.2.094.213.06.2.105.218.047.21.069.19.121.212.064.2.1.223.037.19.119.21.069.216.057.195.106.211.071.2.089.2.1.181.135.216.059.186.123.21.073.207.081.193.108.2.087.195.1.2.1.168.154.206.084.213.07.178.135.182.126.188.116.225.051.18.129.183.124.2.091.186.12.168.149.2.1.179.13.176.135.2.093.174.137.2.1.188.116.176.135.183.123.186.12.179.13.157.16.209.088.146.174.216.079.169.142.181.128.158.158.182.126.162.152.18.129.178.131.145.171.2.106.162.15.176.134.159.154.164.148.145.169.208.1.12.2.2.11.154.159.173.139.159.153.169.143.148.165.155.157.166.147.149.163.144.169.166.147.14.172.14.172.177.136.126.185.148.163.152.159.145.166.14.171.189.128.095.21.174.142.136.173.143.168.127.182.142.168.126.182.183.137.094.207.152.161.114.191.142.169L67.2,15l.1.2.111.192.129.179.133.176.175.147.1.2.128.18.143.169.128.18.123.184.087.207.11.192.155.163.119.187.068.218.135.176.113.19.13.179.1.2.106.193.145.172.062.219.124.184.108.193.1.2.136.178.083.206.089.2.08.207.111.191.119.188.124.185.077.208.063.214.1.2.075.208.094.2.083.2.1.2.092.2.118.19.055.216.088.2.118.19.059.214.061.213.085.2.1.2.052.216.109.2.069.21.046.218.089.2.086.2.066.211.071.209.048.217.041.218.055.214.079.207.076.208.047.216.1.2,0,.228.06.212.1.2.029.22.056.213.081.208.007.225.089.207,0,.226.071.211.057.213.02.222.057.214.046.217.033.218.049.216.04.217-.018.227.072.212.022.22.008.222.07.213-.016.225.078.212.007.222.019.22.008.221.078.215-.01.223.045.218.019.22,0,.221,0,.221,0,.222.024.22.055.218L74.5,35.5v.221l.047.219-.024.222-.013.221.069.22-.012.222v.222l-.035.222.016.221.021.221-.024.22v.221l-.005.22-.024.22v.441l.012.221-.058.218,0,.22.008.222-.042.218-.027.219.031.224-.017.22-.065.215.025.224-.043.218-.066.215-.034.218.022.225-.028.219-.073.213-.024.219,0,.223-.036.218-.018.221-.085.209-.006.223-.054.214-.014.222-.084.208-.038.217-.052.214-.037.217-.044.216-.054.214-.041.217-.022.221-.106.2-.024.221-.086.206-.017.223-.064.211-.04.218-.075.208-.1.2L73,47.925l-.056.213-.068.21-.1.2-.031.221-.052.215-.087.2-.062.211-.087.2-.049.216-.094.2-.061.213-.112.193-.093.2-.04.22-.124.188-.043.219-.109.193-.1.2-.053.216-.067.211-.078.206-.138.179" transform="translate(0.154 0.156)" fill="none" stroke="#f7bfa0" stroke-miterlimit="10" stroke-width="0.72"/>
    <path id="Stroke_5" data-name="Stroke 5" d="M13.891.3,13.72.084l-.006.011L13.544,0l-.2.052-.1.172-.028,0L13.11.4,13,.594,12.866.77l-.142.17-.126.183L12.46,1.3l-.178.137-.162.151-.147.167-.171.142-.154.161-.176.134-.181.128-.16.156-.179.132-.2.1-.191.112-.157.171-.206.089-.186.125-.2.092-.2.1-.2.1-.221.05-.2.1-.217.053-.19.127L8.368,3.9l-.227.021-.2.093-.224.03L7.5,4.105l-.22.03L7.064,4.2l-.221.033-.215.067-.223.017L6.192,4.4H5.967l-.224.042-.226-.018-.219.04-.209.092-.23-.011L4.641,4.6l-.208.082-.2.108-.22.043-.207.08-.2.1-.193.1-.207.075-.178.129-.212.071-.177.13-.163.147L2.31,5.8l-.166.141-.161.147-.2.105-.144.166L1.5,6.533,1.366,6.7l-.133.173-.107.192-.14.168-.144.168-.1.2-.086.2-.122.183-.073.207-.091.2-.077.2-.059.211L.2,9.025l-.019.218-.095.2L.1,9.667.045,9.88,0,10.095l.049.22-.038.217.027.217.019.216.018.216,0,.227.073.216.043.22.015.228.076.213.07.214.041.226.1.2.133.187.052.226.142.18.088.21.134.2.165.183.168.179.1.205.163.15L1.8,14.8l.172.138.164.146.184.122.172.135.168.143.188.114.182.123.211.071.187.115.2.1.207.073.2.082.2.107.207.076.215.049.218.036.221.012.206.1.224-.016.216.045.218.04.229-.038.225.043.227.016.226-.032.223-.053.224-.023.227-.006.221-.047.225-.025.23-.011.209-.1.227-.028.211-.086.2-.109.215-.068.23-.035.181-.13.2-.094.207-.074.185-.116.209-.074.179-.126.192-.105L11,15.116l.211-.08.155-.156.156-.153.183-.121.163-.145L12,14.288l.195-.113.1-.2.161-.148.148-.16.119-.188.165-.152.1-.2.144-.169.139-.174.073-.215.168-.159.057-.222.141-.176.1-.2.057-.218.089-.2.114-.193.1-.2.072-.211.035-.223.069-.211.076-.209.02-.223L14.5,9.71l.086-.206.054-.214.047-.216.01-.223.065-.213,0-.223.054-.216.027-.22.006-.222-.007-.223V7.312l.05-.219-.04-.223.055-.221.014-.222-.035-.222-.035-.221.053-.224L14.9,5.538l-.049-.22.012-.224-.053-.217.02-.224-.037-.219-.049-.217L14.706,4l-.041-.218-.041-.218-.009-.223-.008-.225L14.543,2.9l-.028-.222-.079-.21V2.24l-.053-.217-.079-.211-.036-.221-.077-.211-.022-.224L14.121.938,14.026.731l-.05-.219Z" transform="translate(52.982 56.679)" fill="none" stroke="#f7bfa0" stroke-miterlimit="10" stroke-width="0.72"/>
    <path id="Stroke_6" data-name="Stroke 6" d="M13.064,0l-.024.221-.075.212.01.226-.063.214-.054.214L12.8,1.3l-.055.214-.054.214-.067.209-.028.222-.073.208-.061.212-.129.187-.087.2-.042.22-.113.192L12,3.58l-.078.207-.1.2-.105.194-.083.205-.093.2-.138.176-.116.188-.095.2-.122.184-.1.2-.125.182-.13.179-.1.2-.122.185-.155.161-.137.174-.081.216-.155.16-.121.188L9.7,7.341l-.142.17-.139.173-.177.14L9.109,8l-.17.145-.111.2-.148.166-.19.125-.134.179-.179.132-.152.16-.176.135L7.7,9.4l-.171.14-.148.166-.18.13-.131.187-.189.119-.161.152-.2.1-.171.141-.144.176-.213.086L5.8,10.93l-.167.148-.156.163-.2.1-.184.125-.175.138-.179.133-.2.1-.173.142-.213.076-.182.126-.177.136-.188.118-.191.114-.192.113L3,12.715l-.189.118-.189.118-.194.109-.2.1-.187.123-.209.078-.215.066-.2.105-.2.11-.216.064-.2.105L.608,13.9.4,13.981l-.2.094-.2.114" transform="translate(53.501 56.87)" fill="none" stroke="#f7bfa0" stroke-miterlimit="10" stroke-width="0.72"/>
    <path id="Stroke_7" data-name="Stroke 7" d="M.849,2.028l-.2-.095L.489,1.789l-.147-.16-.089-.2L.109,1.262l-.057-.21L.01.842,0,.627V.413L.021.2.075,0" transform="translate(61.45 63.193)" fill="none" stroke="#f7bfa0" stroke-miterlimit="10" stroke-width="0.72"/>
    <path id="Stroke_8" data-name="Stroke 8" d="M0,0,.124.184.249.371l.16.162L.62.621l.2.093.213.068.212.09L1.479.854,1.7.888,1.93.894h.228L2.383.871,2.607.833,2.832.8,3.042.708,3.257.654" transform="translate(58.589 68.348)" fill="none" stroke="#f7bfa0" stroke-miterlimit="10" stroke-width="0.72"/>
  </g>
</svg>
