<svg xmlns="http://www.w3.org/2000/svg" width="75.399" height="75.277" viewBox="0 0 75.399 75.277">
  <g id="Group_19" data-name="Group 19" transform="translate(0.253 -0.207)">
    <g id="Group_18" data-name="Group 18" transform="translate(0 0.154)">
      <path id="Fill_1" data-name="Fill 1" d="M7.394,31.618a.155.155,0,0,1-.036,0l-.2-.048-.2.018L6.5,31.536l-.206.028a.165.165,0,0,1-.033,0l-.225-.017-.454-.067-.227-.07-.21-.021a.156.156,0,0,1-.051-.014l-.206-.1-.409-.131-.644-.232a.144.144,0,0,1-.042-.025l-.161-.137-.185-.094a.126.126,0,0,1-.026-.017l-.159-.127-.183-.094-.2-.134a.15.15,0,0,1-.036-.035l-.134-.179-.138-.147-.156-.109a.146.146,0,0,1-.034-.034l-.13-.179-.14-.127L1.772,29.2l-.311-.325a.138.138,0,0,1-.021-.025l-.1-.164-.16-.111a.185.185,0,0,1-.026-.023L1,28.39a.148.148,0,0,1-.026-.039l-.082-.179-.14-.137a.146.146,0,0,1-.037-.058l-.069-.192L.534,27.62l-.116-.2-.089-.226-.069-.22-.038-.241-.053-.193-.077-.448-.033-.448-.036-.2L0,25.2a.138.138,0,0,1,0-.034l.043-.431.008-.217a.17.17,0,0,1,.006-.037l.063-.215.054-.414a.145.145,0,0,1,.012-.044l.092-.207.038-.169v-.212a.15.15,0,0,1,.018-.071l.1-.184.049-.2.1-.229.124-.4.1-.206.037-.2A.148.148,0,0,1,.854,21.7l.091-.2.142-.209.19-.374.067-.194.094-.215a.153.153,0,0,1,.03-.045l.141-.146.2-.38.153-.2.1-.16.075-.2a.156.156,0,0,1,.042-.061l.147-.129.08-.176.13-.207a.157.157,0,0,1,.032-.036l.163-.133.113-.169.146-.186.323-.337.123-.165.3-.347a.169.169,0,0,1,.037-.031l.176-.107.131-.154a.133.133,0,0,1,.027-.025L4.277,17l.133-.161a.141.141,0,0,1,.025-.024l.177-.137.23-.118.149-.1.134-.162a.154.154,0,0,1,.043-.036l.2-.111.19-.089.141-.145a.153.153,0,0,1,.042-.031l.405-.186.172-.118.217-.112.171-.116a.158.158,0,0,1,.045-.021l.2-.055.177-.1.169-.126a.156.156,0,0,1,.035-.019l.427-.157.206-.059.176-.107.227-.11.172-.123.15-.13.1-.186.082-.19L9,13.779l.066-.2a.155.155,0,0,1,.02-.039l.128-.183.219-.373L9.5,12.8a.135.135,0,0,1,.016-.029l.24-.366.088-.17.049-.205a.155.155,0,0,1,.039-.071l.132-.137.048-.182a.149.149,0,0,1,.031-.06l.145-.173.194-.359.07-.195a.148.148,0,0,1,.022-.04l.125-.164.083-.188a.15.15,0,0,1,.017-.03l.122-.165.08-.188.223-.4.08-.192a.152.152,0,0,1,.028-.044l.135-.148.169-.392.116-.205.253-.375.193-.387a.182.182,0,0,1,.017-.026l.143-.172.189-.366.126-.2.394-.547.162-.165.105-.175.294-.362.088-.173.264-.378a.145.145,0,0,1,.022-.025l.151-.143.117-.17.147-.182.172-.151.111-.17a.155.155,0,0,1,.026-.03l.151-.135.11-.171a.166.166,0,0,1,.022-.027l.159-.156.289-.328.2-.152.128-.128.112-.178a.152.152,0,0,1,.039-.042l.163-.119L16.23,2.9a.167.167,0,0,1,.025-.026l.515-.429.135-.148a.157.157,0,0,1,.044-.033l.17-.085.111-.157a.152.152,0,0,1,.039-.039l.185-.126.154-.135.2-.135.339-.274.78-.487a.157.157,0,0,1,.032-.017l.412-.156.18-.112a.158.158,0,0,1,.033-.015L19.8.455l.171-.1A.151.151,0,0,1,20.01.339l.643-.192a.144.144,0,0,1,.036-.007l.44-.029.2-.065a.147.147,0,0,1,.048-.007l.45,0L22.032,0a.1.1,0,0,1,.032,0l.227.014a.153.153,0,0,1,.047.01l.614.224a.154.154,0,0,1,.061.041l.15.164.158.132a.15.15,0,0,1,.045.064l.078.211.063.222.09.174a.152.152,0,0,1,.015.051l.061.432a.147.147,0,0,1,0,.054l-.043.221-.037.422.011.2a.141.141,0,0,1,0,.045l-.055.215-.083.206-.019.2a.149.149,0,0,1-.012.047l-.089.2-.064.2-.094.217-.061.2-.043.207a.154.154,0,0,1-.013.037l-.2.384-.05.2a.159.159,0,0,1-.017.04l-.212.365-.051.2a.156.156,0,0,1-.028.056l-.138.178a.154.154,0,0,1-.243-.188l.119-.153.048-.188a.157.157,0,0,1,.016-.039l.213-.366.05-.2a.154.154,0,0,1,.015-.038l.2-.371.043-.2.07-.226.095-.219.064-.2.084-.2.019-.2a.145.145,0,0,1,.011-.044l.085-.207.042-.171-.01-.2.039-.459.04-.209-.055-.393-.088-.177-.13-.4-.142-.12L22.813.525,22.248.319,22.061.308,21.85.339,21.4.346l-.2.064a.184.184,0,0,1-.041.007l-.43.027L20.109.63l-.182.1L19.7.812l-.179.111A.128.128,0,0,1,19.5.936l-.407.154-.762.474-.336.273-.2.13-.152.133-.176.121-.117.165a.154.154,0,0,1-.056.049l-.18.09-.133.144-.514.43-.124.165a.164.164,0,0,1-.032.032l-.158.115-.105.168a.164.164,0,0,1-.023.028l-.158.155-.2.147-.423.462-.112.175a.155.155,0,0,1-.027.032l-.152.135-.111.17a.147.147,0,0,1-.028.032l-.17.147L14.4,5.39a.156.156,0,0,1-.021.024l-.151.142-.249.354-.093.18-.3.369-.1.172a.164.164,0,0,1-.023.029L13.3,6.82l-.488.7-.2.385-.148.184-.19.379-.365.572-.167.391a.149.149,0,0,1-.029.046l-.136.149L11.5,9.81l-.225.4L11.2,10.4a.171.171,0,0,1-.018.032l-.123.166-.083.188a.144.144,0,0,1-.018.031l-.122.16-.069.189-.106.215-.12.2-.136.166-.049.188a.15.15,0,0,1-.038.068l-.131.136-.044.183a.16.16,0,0,1-.013.035l-.1.2-.245.375-.079.191-.235.4-.122.176-.065.192a.144.144,0,0,1-.017.034l-.12.188-.078.183-.125.223a.149.149,0,0,1-.034.041l-.182.157-.206.145-.235.116-.18.11a.155.155,0,0,1-.038.016l-.421.133-.185.072-.168.123-.208.121a.154.154,0,0,1-.037.015l-.2.053-.166.111-.215.111-.168.117a.131.131,0,0,1-.028.015l-.378.172-.142.147a.159.159,0,0,1-.045.033l-.367.188-.13.157a.145.145,0,0,1-.032.029L5,16.828l-.222.112-.137.109-.135.164a.149.149,0,0,1-.029.027l-.168.121-.134.158a.153.153,0,0,1-.037.032l-.176.107-.863,1-.119.178a.147.147,0,0,1-.03.033L2.784,19l-.106.167-.083.186a.155.155,0,0,1-.039.052l-.144.126-.067.177a.149.149,0,0,1-.015.029l-.121.185-.148.185-.186.365a.151.151,0,0,1-.028.04l-.14.145-.079.179-.07.2-.21.414-.138.2-.069.159-.037.205a.16.16,0,0,1-.014.041l-.1.2-.048.186-.076.218-.1.215-.044.188a.15.15,0,0,1-.013.034l-.088.167v.191a.15.15,0,0,1,0,.035L.569,23.7l-.091.211-.057.422-.062.216-.023.43-.027.211.019.2.036.206.033.449.071.414.055.2L.56,26.9l.136.385.1.172.118.169a.145.145,0,0,1,.018.036l.064.178.135.132a.159.159,0,0,1,.032.046l.084.183.121.133.171.118a.151.151,0,0,1,.041.043l.112.176.295.31.493.418.134.18.159.115.172.18.129.172.16.11.18.091a.123.123,0,0,1,.026.017l.159.127.187.1a.149.149,0,0,1,.03.02l.156.132.188.075.2.061L5,30.991l.2.1.2.02a.16.16,0,0,1,.032.006l.216.069.619.075.211-.029a.2.2,0,0,1,.042,0l.439.05.2-.02a.156.156,0,0,1,.049,0l.184.044.184-.057a.216.216,0,0,1,.05-.007l.225.007.227.045.2-.027h.22l.194-.058a.173.173,0,0,1,.049-.006l.221.008.207-.011.2-.037.213-.011.182-.079a.162.162,0,0,1,.032-.01L10,31.022l.241-.016.174-.041.188-.087a.159.159,0,0,1,.053-.014l.192-.014.171-.087.435-.143a.153.153,0,0,1,.044-.009l.2-.011.579-.258.4-.146.157-.127a.152.152,0,0,1,.07-.032L13.09,30l.146-.115.206-.124.218-.1.228-.074.16-.081.163-.13.215-.121.521-.384.21-.114.154-.121.2-.106.283-.3.381-.285.449-.43.1-.175a.177.177,0,0,1,.021-.027l.152-.159L17.009,27a.153.153,0,0,1,.031-.033l.16-.128.241-.324.074-.189a.164.164,0,0,1,.031-.049l.14-.149L18,25.581l.057-.2.2-.419.059-.19a.168.168,0,0,1,.018-.037l.113-.171.062-.191.042-.2.027-.209a.161.161,0,0,1,.015-.049l.086-.17,0-.191a.154.154,0,0,1,.008-.045l.071-.209.021-.188.118-.433,0-.2.022-.232-.01-.2.014-.238.038-.24,0-.18-.06-.2a.149.149,0,0,1-.006-.06l.022-.2-.1-.422-.01-.232-.056-.2a.154.154,0,0,1,0-.059l.023-.2-.067-.181a.154.154,0,0,1-.01-.055l0-.228-.013-.213a.154.154,0,0,1,.307-.019l.014.224,0,.211.07.189a.157.157,0,0,1,.009.072l-.024.2.053.189a.141.141,0,0,1,.006.036l.008.226.1.408a.15.15,0,0,1,0,.055l-.021.2.058.192a.154.154,0,0,1,.006.047l0,.226-.039.246-.013.206.01.205-.022.241,0,.209a.155.155,0,0,1-.007.043l-.116.418-.025.2-.07.215,0,.2a.15.15,0,0,1-.017.065l-.089.178-.026.195-.048.228-.073.226a.16.16,0,0,1-.018.037l-.112.171-.061.19-.2.416-.052.19a.172.172,0,0,1-.014.033l-.331.57a.139.139,0,0,1-.023.032l-.133.142-.072.182a.151.151,0,0,1-.021.038l-.26.35a.155.155,0,0,1-.029.031l-.159.127-.112.163-.156.166-.107.179a.153.153,0,0,1-.026.032l-.478.456L16,28.46l-.286.309a.16.16,0,0,1-.039.029l-.2.1-.152.12-.216.119-.513.378-.213.119-.153.125a.157.157,0,0,1-.027.017l-.2.1-.235.076-.185.083-.172.1-.16.128a.156.156,0,0,1-.068.03L13,30.333l-.145.117a.146.146,0,0,1-.042.024l-1.008.417a.154.154,0,0,1-.055.013l-.206.011-.405.131-.171.091a.152.152,0,0,1-.059.017l-.2.014-.177.082a.157.157,0,0,1-.031.011l-.215.048-.245.017-.178.036-.192.084a.158.158,0,0,1-.054.012l-.221.01-.2.037-.24.013-.209-.007-.192.058a.214.214,0,0,1-.046.006l-.221,0-.2.029a.167.167,0,0,1-.053,0l-.227-.047-.172,0-.2.062a.163.163,0,0,1-.045.007" transform="translate(13.341 9.009)" fill="#f7bfa0" stroke="#f7bfa0" stroke-miterlimit="10" stroke-width="0.5"/>
      <path id="Fill_3" data-name="Fill 3" d="M13.558,33.716a.141.141,0,0,1-.038,0l-.183-.046-.188.046a.155.155,0,0,1-.054,0l-.222-.025-.2,0-.242-.029-.207-.006H12l-.676-.081-.211-.006a.16.16,0,0,1-.034,0l-.413-.1-.206,0a.146.146,0,0,1-.033,0l-.2-.046h-.207a.141.141,0,0,1-.036,0l-.425-.095-.209-.027a.187.187,0,0,1-.032-.008l-.4-.146-.2-.01a.137.137,0,0,1-.044-.009l-.411-.137-.2-.026-.237-.078a.138.138,0,0,1-.028-.013l-.18-.1-.193-.062-.2-.028a.151.151,0,0,1-.047-.015l-.177-.091-.2-.037A.162.162,0,0,1,6.76,32.5L6.4,32.281l-.2-.046a.141.141,0,0,1-.038-.014l-.194-.1-.189-.072a.167.167,0,0,1-.041-.024l-.174-.141-.358-.2-.189-.063a.157.157,0,0,1-.038-.019l-.18-.126-.162-.147-.182-.084a.165.165,0,0,1-.04-.026l-.164-.15L4.1,30.939l-.174-.159-.164-.119-.18-.108a.146.146,0,0,1-.032-.025l-.289-.319-.168-.115a.14.14,0,0,1-.034-.031l-.262-.332-.164-.124a.153.153,0,0,1-.042-.049l-.095-.174-.147-.133a.141.141,0,0,1-.023-.026l-.253-.36a.152.152,0,0,1-.018-.033l-.074-.192-.116-.164-.118-.2-.386-.8a.153.153,0,0,1-.013-.036l-.041-.2-.09-.18-.076-.233L1.05,26.4l-.094-.186a.153.153,0,0,1-.016-.069v-.224l-.035-.191L.838,25.54a.15.15,0,0,1-.007-.069l.027-.224,0-.2-.031-.194-.016-.238.019-.461-.024-.2a.159.159,0,0,1,0-.05L.9,23.475l0-.207a.158.158,0,0,1,0-.032l.045-.218.018-.2L1,22.6l-.008-.211a.153.153,0,0,1,.013-.069l.079-.176-.007-.193a.158.158,0,0,1,.009-.057l.07-.194.026-.2a.14.14,0,0,1,.01-.037l.081-.207.083-.412.074-.227.109-.2.026-.2a.156.156,0,0,1,.022-.061l.106-.17.044-.194a.156.156,0,0,1,.017-.043l.112-.194.244-.6.112-.2.131-.177.067-.189.114-.216.874-1.294a.154.154,0,0,1,.252.175l-.382.537-.224.374-.257.366-.1.182-.065.19a.156.156,0,0,1-.022.041l-.134.179-.183.367-.156.409-.109.191-.044.2a.151.151,0,0,1-.019.048l-.1.164-.026.193a.151.151,0,0,1-.018.055l-.112.2-.058.184-.085.417-.082.215-.025.2a.171.171,0,0,1-.008.033l-.066.182.007.2a.152.152,0,0,1-.014.068l-.079.175.007.191a.13.13,0,0,1,0,.033l-.039.219-.019.207-.044.218,0,.207a.136.136,0,0,1,0,.032l-.088.418.022.2-.018.472.015.206.031.206v.245l-.024.205.063.18.043.242,0,.213.087.172a.161.161,0,0,1,.013.036l.088.437.061.191.09.175a.167.167,0,0,1,.013.038l.041.2.478.958.12.167a.146.146,0,0,1,.018.033l.074.192.233.333.153.139a.157.157,0,0,1,.032.041l.091.168.153.116a.146.146,0,0,1,.029.028l.259.327.166.113a.159.159,0,0,1,.03.027l.277.307.174.1.189.137.176.16.164.122.157.144.181.083a.167.167,0,0,1,.039.026L5,31.23l.147.1.192.066.409.229.174.139.184.072.192.1.2.047A.164.164,0,0,1,6.538,32l.362.217.192.036a.157.157,0,0,1,.042.014l.175.09.2.03.233.072a.163.163,0,0,1,.031.014l.181.106.195.066.193.025.427.14.2.01a.149.149,0,0,1,.046.01l.4.147.2.026.431.095h.206a.145.145,0,0,1,.034,0l.2.047.207,0a.182.182,0,0,1,.034,0l.416.1.435.027.448.06.2,0,.227.007.235.029.2,0,.213.023.2-.049a.141.141,0,0,1,.074,0l.193.048.193-.022.244.006.419-.006.2-.049a.118.118,0,0,1,.044,0l.192.009.185-.066a.163.163,0,0,1,.034-.008l.219-.025.229,0,.2-.036.2-.052.214-.033.189-.077a.168.168,0,0,1,.039-.01l.2-.025.184-.079a.166.166,0,0,1,.04-.011l.221-.03.18-.064.188-.084.228-.054L18,32.505l.163-.113.424-.193.161-.112a.161.161,0,0,1,.031-.016l.208-.081.531-.342.161-.128.3-.3.188-.132.435-.481.165-.155L20.9,30.3l.212-.354a.15.15,0,0,1,.032-.04l.147-.131.088-.171.234-.384.075-.183a.165.165,0,0,1,.016-.029l.116-.164.071-.188a.153.153,0,0,1,.015-.029l.107-.164.049-.19.164-.43.1-.18.011-.189a.15.15,0,0,1,.022-.072l.1-.156,0-.183a.138.138,0,0,1,0-.034l.106-.433.06-.2.011-.2.114-.649-.02-.2a.131.131,0,0,1,0-.035l.027-.219-.029-.409.017-.242-.033-.413-.052-.187a.143.143,0,0,1-.005-.038l0-.221-.044-.4-.081-.185-.073-.225a.15.15,0,0,1-.007-.039l-.011-.2-.074-.182-.065-.229-.08-.184a.15.15,0,0,1-.01-.03l-.093-.395L22,21.362a.152.152,0,0,1-.024-.051l-.056-.217-.06-.171-.13-.152a.144.144,0,0,1-.023-.037l-.091-.2-.068-.219-.09-.165L21.317,20a.143.143,0,0,1-.022-.032l-.092-.18-.134-.153a.15.15,0,0,1-.026-.041l-.078-.185-.856-.966L19.95,18.3a.149.149,0,0,1-.03-.035l-.106-.171-.151-.124-.174-.1a.151.151,0,0,1-.047-.043l-.109-.153-.168-.083a.144.144,0,0,1-.027-.017l-.173-.136-.172-.161-.347-.21a.149.149,0,0,1-.038-.03l-.134-.148L18.1,16.8l-.194-.082-.4-.236-.19-.151-.153-.081-.2-.053a.147.147,0,0,1-.041-.017l-.188-.115L16.56,16l-.21-.1-.2-.12-.182-.065a.166.166,0,0,1-.034-.018l-.154-.108-.188-.026a.143.143,0,0,1-.037-.01l-.2-.082-.2-.124-.406-.131-.2-.1L14.128,15l-.217-.086-.4-.065-1.073-.307-.227-.095-.406-.119-.416-.063a.151.151,0,0,1-.045-.013l-.176-.082-.193-.006a.16.16,0,0,1-.061-.015l-.186-.088-.2-.036-.2,0h0a.158.158,0,0,1-.064-.014l-.2-.093L9.651,13.8,9,13.681l-.212-.1-.2-.029a.177.177,0,0,1-.033-.009l-.208-.08-.2-.111-.2-.047-.211-.035a.154.154,0,0,1-.038-.012l-.2-.09-.194-.053a.159.159,0,0,1-.041-.019l-.173-.111-.4-.123-.428-.2-.2-.105a.178.178,0,0,1-.028-.019l-.156-.132-.185-.081a.149.149,0,0,1-.036-.022l-.173-.142L5.3,12.043a.156.156,0,0,1-.024-.021l-.158-.17-.294-.387A.149.149,0,0,1,4.8,11.4l-.041-.234-.009-.5a.156.156,0,0,1,.022-.079l.1-.171.052-.2a.155.155,0,0,1,.048-.076L5.137,10a.147.147,0,0,1,.052-.029l.194-.065.169-.1a.156.156,0,0,1,.038-.017l.191-.052.18-.1a.148.148,0,0,1,.06-.017l.636-.067a.159.159,0,0,1,.032,0l.193.012.192-.048a.143.143,0,0,1,.043,0l.217.007.241.05.2.019.191-.018a.174.174,0,0,1,.061.007l.181.06.189-.012a.123.123,0,0,1,.034,0l.419.054A.161.161,0,0,1,8.89,9.7l.182.078.668.04.436.044.2-.056a.167.167,0,0,1,.064,0l.19.029.351-.171.174-.106.136-.108.074-.139V9.114l-.02-.167L11.261,8.8l-.44-.441-.151-.1-.154-.149-.363-.153-.395-.243-.565-.263-.2-.037a.149.149,0,0,1-.034-.01l-.2-.088-.191-.049a.16.16,0,0,1-.043-.019l-.173-.111L7.962,7l-.2-.018A.155.155,0,0,1,7.7,6.967l-.182-.1-.2-.048-.412-.131L6.7,6.676,6.25,6.549l-.2-.033A.156.156,0,0,1,6.008,6.5l-.185-.091-.2-.043-.42-.044a.147.147,0,0,1-.053-.014L4.978,6.23l-.192,0a.158.158,0,0,1-.049-.009l-.208-.075-.2-.031L4.1,6.039l-.2-.085-.2-.029-.234-.06-.207-.031-.236-.071-.4-.179L2.4,5.555a.144.144,0,0,1-.066-.025l-.169-.115L1.97,5.356l-.223-.1a.162.162,0,0,1-.029-.016l-.183-.132-.18-.083A.16.16,0,0,1,1.3,4.987l-.126-.153L1,4.75a.155.155,0,0,1-.05-.038L.67,4.4.493,4.282a.15.15,0,0,1-.046-.047L.335,4.059.216,3.9a.154.154,0,0,1-.029-.067L.153,3.646.066,3.454a.154.154,0,0,1-.013-.072l.012-.208-.055-.2A.166.166,0,0,1,0,2.938l0-.23a.151.151,0,0,1,.01-.058l.084-.217L.223,2.01l.109-.226.135-.209a.144.144,0,0,1,.022-.027L.655,1.39l.2-.149.158-.148a.158.158,0,0,1,.064-.036L1.273,1,1.436.884A.155.155,0,0,1,1.481.861L1.7.793,2.076.618A.175.175,0,0,1,2.108.607L2.73.44,2.9.35A.143.143,0,0,1,2.953.335L3.17.305,3.363.253,3.814.2l.2-.044a.131.131,0,0,1,.039,0l.2.008L4.442.107,4.9.055l.228.017.2-.033L5.772.011l.45,0L6.875,0l.231.016.2-.01a.117.117,0,0,1,.045,0l.2.05.424.014.2-.017a.136.136,0,0,1,.05,0l.2.049.2,0a.175.175,0,0,1,.036,0l.193.05.2,0A.144.144,0,0,1,9.1.171L9.5.288,9.7.28a.212.212,0,0,1,.049.006l.211.062.194.023a.169.169,0,0,1,.03.007l.208.072.405.064.232.075.628.139a.155.155,0,0,1,.041.016l.165.095.188.016A.15.15,0,0,1,12.1.87l.174.084.2.02a.137.137,0,0,1,.036.008l.206.073.194.1.2.036a.159.159,0,0,1,.056.022l.188.122.178.068.2.05.615.275.2.047a.147.147,0,0,1,.045.018l.383.244.783.353.2.131.18.068a.163.163,0,0,1,.038.022l.332.265.186.072a.154.154,0,0,1,.038.021l.176.134.174.089.2.142.369.194a.152.152,0,0,1,.043.031l.141.148.172.1.191.137.178.08.2.139a.159.159,0,0,1,.027.024l.127.144.175.076a.148.148,0,0,1,.04.025l.167.146.168.093a.162.162,0,0,1,.035.028l.154.163.157.11.163.133.188.086a.138.138,0,0,1,.038.025l.837.74.162.107a.16.16,0,0,1,.028.024l.137.153.168.119.181.147a.151.151,0,0,1,.029.032l.115.168L22,6.98a.152.152,0,0,1,.039.049l.084.169.157.1a.163.163,0,0,1,.036.031l.282.354.142.143L23,8.192l.156.135a.153.153,0,0,1,.036.047l.1.2.12.149.121.214.124.15.253.381.138.14a.159.159,0,0,1,.034.055l.076.213.093.178.115.166.106.192.137.16a.149.149,0,0,1,.027.047l.241.608.109.168a.141.141,0,0,1,.015.03l.075.208.207.359a.166.166,0,0,1,.015.035l.058.195.1.175a.157.157,0,0,1,.017.042l.1.439.149.391.1.167a.146.146,0,0,1,.018.045l.113.416.18.644a.154.154,0,0,1,0,.032l.009.19.09.17a.147.147,0,0,1,.012.03l.061.212a.143.143,0,0,1,.006.039l0,.225.1.393.03.241.054.191.02.227.071.192a.158.158,0,0,1,.009.043l.015.22.07.422a.161.161,0,0,1,0,.037l-.018.224.019.173.067.2a.138.138,0,0,1,.008.043l.023.437,0,.211.056.2a.153.153,0,0,1,0,.079l-.046.187.045.181.016.249v.23l.022.2a.164.164,0,0,1,0,.049l-.045.2.006.2.033.2a.148.148,0,0,1,0,.047l-.029.192.043.194a.156.156,0,0,1,0,.046l-.019.221.015.2-.013.24,0,.211a.154.154,0,0,1-.151.156h0a.153.153,0,0,1-.154-.151l0-.222.013-.233-.014-.2.017-.22-.045-.2a.161.161,0,0,1,0-.056l.029-.2-.031-.2-.008-.241a.149.149,0,0,1,0-.037l.044-.2-.021-.2v-.237l-.011-.211-.05-.189a.153.153,0,0,1,0-.074l.045-.185-.051-.178a.17.17,0,0,1-.006-.044l0-.222-.022-.411-.065-.193a.183.183,0,0,1-.007-.034l-.021-.219.016-.233-.069-.416-.015-.214-.071-.191a.161.161,0,0,1-.009-.041l-.017-.221-.053-.185-.03-.242-.1-.415-.007-.233-.051-.179-.1-.187a.152.152,0,0,1-.018-.065l-.009-.209-.286-1.028-.1-.172-.168-.436-.1-.431-.1-.172a.153.153,0,0,1-.015-.035l-.058-.195-.213-.374-.079-.212-.111-.173-.1-.22-.149-.4-.129-.15a.163.163,0,0,1-.018-.026l-.106-.193-.117-.17L23.879,10l-.073-.2-.133-.139-.26-.388-.132-.163-.122-.216-.123-.154-.1-.2-.149-.129a.156.156,0,0,1-.025-.028l-.254-.366-.138-.137L22.1,7.543l-.174-.11a.153.153,0,0,1-.056-.061l-.089-.179-.317-.26a.163.163,0,0,1-.03-.033l-.116-.168-.33-.25a.193.193,0,0,1-.025-.022l-.136-.152-.169-.116-.336-.327-.492-.4-.186-.084a.139.139,0,0,1-.034-.021l-.343-.264-.16-.166-.173-.1-.172-.146-.186-.08a.15.15,0,0,1-.054-.039l-.138-.156-.166-.115-.18-.081-.2-.144-.178-.1a.156.156,0,0,1-.034-.027l-.138-.144-.374-.2-.194-.14-.176-.091-.18-.135-.189-.073a.156.156,0,0,1-.041-.024L16,2.867l-.187-.074L15.6,2.659,14.817,2.3l-.367-.234-.2-.045a.158.158,0,0,1-.031-.01l-.606-.274L13.43,1.7l-.223-.087-.189-.119-.189-.035a.15.15,0,0,1-.044-.015l-.2-.1-.167-.058-.2-.021a.144.144,0,0,1-.052-.014l-.173-.084L11.8,1.142a.146.146,0,0,1-.064-.02l-.176-.1L10.946.885,10.722.812,10.312.747,10.1.673l-.2-.026L9.684.587,9.485.6A.171.171,0,0,1,9.439.59l-.4-.119-.2,0a.219.219,0,0,1-.042,0L8.6.42l-.2,0a.166.166,0,0,1-.035,0L8.175.364l-.2.016L7.528.366a.153.153,0,0,1-.035,0L7.3.313,7.1.322,6.866.307,6.225.32l-.441,0-.2.019L5.355.343,5.161.377a.147.147,0,0,1-.038,0L4.9.361,4.5.408,4.31.46a.156.156,0,0,1-.046.005l-.2-.009L3.869.5,3.417.554,3.23.605,3.02.635,2.844.724,2.4.855,2.194.9l-.386.177L1.6,1.146l-.166.121a.168.168,0,0,1-.049.024l-.192.052-.142.132-.194.148-.14.135L.6,1.936l-.09.188-.2.606,0,.181.056.2a.148.148,0,0,1,.005.049l-.011.2.08.176a.168.168,0,0,1,.011.037l.03.172.105.137.1.159.164.106a.141.141,0,0,1,.028.024l.283.314.177.084a.158.158,0,0,1,.052.041l.126.153.173.083.193.136.191.084.2.06a.15.15,0,0,1,.042.02l.158.108.192.026a.142.142,0,0,1,.037.01l.207.083.213.1.192.057.2.03.232.06.206.029a.146.146,0,0,1,.037.01l.209.087.2.062.2.033.21.073.2,0a.149.149,0,0,1,.062.014l.179.083.422.045.228.05a.142.142,0,0,1,.035.012l.182.09.2.033.439.125.193.013a.123.123,0,0,1,.032.006l.626.184a.153.153,0,0,1,.035.013l.171.09L8.01,6.7a.163.163,0,0,1,.04.009l.409.14a.167.167,0,0,1,.038.017l.17.109.19.051.207.089.2.037a.144.144,0,0,1,.038.012l.6.278.388.24.175.064.205.1a.149.149,0,0,1,.043.03l.155.153.155.108L11.5,8.6a.163.163,0,0,1,.021.027l.112.188a.154.154,0,0,1,.021.061l.025.219v.245a.157.157,0,0,1-.018.072l-.107.2a.152.152,0,0,1-.04.048l-.176.139-.2.123-.414.2a.151.151,0,0,1-.088.012l-.2-.031-.2.054a.173.173,0,0,1-.053,0L9.03,10.079a.146.146,0,0,1-.053-.012l-.186-.079-.4-.052-.2.013a.143.143,0,0,1-.058-.008l-.179-.059L7.767,9.9l-.242-.022-.231-.049-.166,0-.2.049a.153.153,0,0,1-.047,0l-.2-.012-.609.064-.167.089a.134.134,0,0,1-.032.013l-.187.051-.165.1a.16.16,0,0,1-.03.014l-.181.06-.108.094-.045.171a.181.181,0,0,1-.017.039l-.091.152.006.425.032.175.262.345.137.147.177.125.165.135.186.081a.163.163,0,0,1,.037.023l.16.135.578.279.412.124a.148.148,0,0,1,.037.017l.171.11.193.054.206.09.2.034.227.054a.157.157,0,0,1,.04.016l.2.111.171.064.206.03A.173.173,0,0,1,8.9,13.3l.2.094.188.042.434.068.44.134.194.087h.193l.246.041a.17.17,0,0,1,.038.012l.176.083.193.006a.163.163,0,0,1,.06.014l.183.086.421.066.442.13.22.092.62.169.422.129.424.07.432.15.207.052a.167.167,0,0,1,.034.013l.2.1.391.123a.153.153,0,0,1,.041.018l.188.123.159.061.208.028a.155.155,0,0,1,.068.026l.168.118.188.07.215.124.382.158.194.115.2.052a.149.149,0,0,1,.034.014l.194.105.2.155.358.212.188.079.207.107a.167.167,0,0,1,.043.033l.136.15.362.224.182.168.149.117.189.093a.16.16,0,0,1,.057.049l.112.159.165.1.19.154a.157.157,0,0,1,.033.038l.107.173.149.129.163.165.286.357.145.141.3.342a.151.151,0,0,1,.026.041l.078.185.131.148a.154.154,0,0,1,.021.032l.092.18.137.153a.157.157,0,0,1,.02.029l.106.194a.179.179,0,0,1,.012.029l.065.216.074.163.135.157a.16.16,0,0,1,.028.049l.073.21.052.2.115.161a.157.157,0,0,1,.023.048l.1.427.081.188.066.232.078.189a.163.163,0,0,1,.011.05l.011.205.061.191.084.19a.149.149,0,0,1,.012.041l.049.444,0,.213.052.195.038.467-.017.242.028.417-.026.228.021.2a.154.154,0,0,1,0,.048l-.116.645-.01.2a.142.142,0,0,1-.006.036l-.121.418-.041.188,0,.21a.153.153,0,0,1-.023.082l-.1.161-.011.187a.159.159,0,0,1-.02.068l-.113.194-.145.382-.051.2a.146.146,0,0,1-.02.046l-.112.172-.073.19a.143.143,0,0,1-.018.034l-.118.167-.079.188-.334.58a.149.149,0,0,1-.034.045l-.149.132-.094.17-.127.194-.151.183-.325.317-.128.16-.156.17a.165.165,0,0,1-.026.022l-.183.126-.294.292-.187.148-.573.366-.217.087-.169.114-.427.194-.16.112-.418.2a.141.141,0,0,1-.034.012l-.218.049-.173.08-.222.075-.228.033-.185.079a.149.149,0,0,1-.041.011l-.2.025-.187.077a.155.155,0,0,1-.035.01l-.218.033-.2.051-.227.041a.175.175,0,0,1-.031,0l-.223-.006-.179.022-.2.07a.125.125,0,0,1-.059.009l-.2-.009-.2.048a.148.148,0,0,1-.037,0h-.668l-.2.025h-.018" transform="translate(34.65 30.063)" fill="#f7bfa0" stroke="#f7bfa0" stroke-miterlimit="10" stroke-width="0.5"/>
      <path id="Fill_5" data-name="Fill 5" d="M5,16.29A.153.153,0,0,1,4.945,16l.169-.072.109-.146a.154.154,0,0,1,.051-.044l.2-.1.154-.118.154-.137.135-.153a.151.151,0,0,1,.035-.029l.174-.106.143-.143a.2.2,0,0,1,.027-.021l.171-.108.139-.145.341-.29.137-.149a.15.15,0,0,1,.042-.032l.172-.089.282-.306.171-.153.353-.278.3-.311.209-.144.453-.457.512-.432.192-.123.139-.148.344-.285.128-.164.317-.328a.152.152,0,0,1,.024-.021l.168-.12.3-.317.182-.133.122-.161a.169.169,0,0,1,.026-.027l.157-.125.116-.166a.156.156,0,0,1,.023-.026l.166-.151.289-.322.2-.153.12-.129.1-.183a.166.166,0,0,1,.035-.042l.152-.129.106-.17A.156.156,0,0,1,13,8.579l.45-.481.106-.164a.158.158,0,0,1,.036-.038l.149-.112.076-.172a.15.15,0,0,1,.029-.044L14,7.407l.114-.163.159-.177.231-.343.285-.352.122-.174.1-.18a.166.166,0,0,1,.018-.025l.276-.316.089-.182.137-.184.08-.188a.144.144,0,0,1,.016-.029l.237-.356.091-.184.266-.354.06-.187a.156.156,0,0,1,.018-.037l.12-.182.1-.18.058-.184.11-.217.137-.185.077-.186.034-.189a.152.152,0,0,1,.014-.04l.087-.172.024-.193a.149.149,0,0,1,.012-.043l.087-.2.034-.151-.039-.181-.022-.2-.074-.174L17,1.087,16.9.926,16.782.813,16.608.724,16.266.485l-.183-.03L15.865.376,15.445.3,15.254.31l-.193.036-.031,0-.412-.01L14.43.4A.137.137,0,0,1,14.393.4l-.407.031L13.8.514a.157.157,0,0,1-.057.013l-.191.006-.174.079-.438.123-.03.006-.2.019-.4.153L12.1.979l-.388.162-.193.095a.111.111,0,0,1-.029.011L11.3,1.3l-.167.1-.213.1-.384.162-.151.137a.156.156,0,0,1-.057.033l-.2.063-.162.093-.154.139a.157.157,0,0,1-.055.032l-.214.069-.16.083-.345.26-.362.212-.126.148a.165.165,0,0,1-.022.022L8.2,3.222l-.122.163-.184.171-.277.307-.105.179a.15.15,0,0,1-.047.049L7.306,4.2l-.091.166a.151.151,0,0,1-.035.044l-.156.132L6.9,4.7a.153.153,0,0,1-.024.026l-.168.145L6.459,5.2,6.3,5.371,6.121,5.5l-.1.167a.152.152,0,0,1-.042.046l-.16.114-.11.161a.14.14,0,0,1-.03.033l-.172.14-.419.481L4.922,6.8l-.173.131L4.637,7.1l-.161.178L4,7.731l-.287.331-.157.16-.26.331-.184.17-.87.977-.124.166-.156.175-.122.168-.179.175-.116.144-.092.189a.148.148,0,0,1-.024.036l-.149.164-.163.148L1,11.233.844,11.4l-.1.181-.149.2-.155.174-.19.16a.154.154,0,0,1-.2-.236l.174-.144.261-.317.093-.177A.152.152,0,0,1,.608,11.2l.155-.16.1-.164a.154.154,0,0,1,.025-.029L1.06,10.7l.124-.137.09-.185a.139.139,0,0,1,.019-.029l.14-.172.175-.169.113-.159.157-.177L2,9.5l.888-1,.176-.16.258-.33.307-.325.133-.164.158-.168.334-.3.14-.153.114-.166A.148.148,0,0,1,4.545,6.7l.178-.134.288-.295.129-.164.155-.17L5.466,5.8l.113-.165A.151.151,0,0,1,5.617,5.6l.156-.111.1-.166a.147.147,0,0,1,.041-.045L6.1,5.141,6.226,5l.264-.338.175-.153.12-.166a.177.177,0,0,1,.025-.027l.148-.125.1-.174A.155.155,0,0,1,7.1,3.962l.16-.107.1-.164a.153.153,0,0,1,.022-.029l.468-.483.113-.156A.173.173,0,0,1,7.986,3l.338-.274.131-.153a.143.143,0,0,1,.034-.03l.183-.118.2-.109.329-.25a.156.156,0,0,1,.026-.017l.2-.1.2-.068.142-.129A.185.185,0,0,1,9.8,1.733l.19-.109a.152.152,0,0,1,.03-.013l.18-.057.143-.13a.141.141,0,0,1,.038-.025l.2-.094.217-.083.186-.089.172-.108a.146.146,0,0,1,.043-.018l.2-.052.39-.183L12,.689,12.42.551l.2-.082A.167.167,0,0,1,12.66.458l.207-.02.414-.114.176-.082a.162.162,0,0,1,.058-.014l.192-.006.177-.078a.144.144,0,0,1,.047-.012L14.357.1l.195-.06A.182.182,0,0,1,14.6.03l.423.011.2-.036L15.47,0l.459.075a.17.17,0,0,1,.03.008l.2.077.188.028a.154.154,0,0,1,.063.025l.353.249.176.088a.164.164,0,0,1,.039.029l.153.155.139.2a.143.143,0,0,1,.02.045l.057.211.076.175a.17.17,0,0,1,.011.044l.022.212.043.2a.156.156,0,0,1,0,.068l-.05.212-.087.2-.024.2a.154.154,0,0,1-.015.051l-.09.177-.038.2-.092.233a.148.148,0,0,1-.019.034l-.135.179-.087.173-.061.188-.117.216-.115.175-.062.192a.16.16,0,0,1-.024.045l-.268.351-.082.171-.245.372-.081.189a.134.134,0,0,1-.019.033l-.133.175-.081.173a.163.163,0,0,1-.021.032l-.283.326-.1.177-.273.37-.145.172-.239.354-.159.176-.116.166-.147.157-.081.186A.156.156,0,0,1,13.958,8l-.16.121-.108.163-.458.493-.11.176a.162.162,0,0,1-.031.037l-.149.126-.1.174a.142.142,0,0,1-.023.031l-.153.16-.2.152-.274.308-.166.152-.119.17a.158.158,0,0,1-.03.032l-.16.127-.124.163a.15.15,0,0,1-.033.031l-.182.131-.279.3a.156.156,0,0,1-.026.023l-.169.121-.3.313-.125.162a.136.136,0,0,1-.023.023l-.344.284-.137.148a.147.147,0,0,1-.03.025l-.191.12-.651.562-.3.317-.209.144-.28.3-.523.429-.283.31a.154.154,0,0,1-.045.035l-.173.09-.13.141-.347.3-.138.146a.154.154,0,0,1-.029.024l-.172.109-.144.144a.137.137,0,0,1-.029.022l-.17.1L6,15.59l-.176.158-.185.139-.188.1-.113.152a.155.155,0,0,1-.063.049l-.207.088A.156.156,0,0,1,5,16.29" transform="translate(27.14 11.987)" fill="#f7bfa0" stroke="#f7bfa0" stroke-miterlimit="10" stroke-width="0.5"/>
      <path id="Fill_7" data-name="Fill 7" d="M6.3,23.339a.148.148,0,0,1-.037,0l-.409-.094-.2.013a.176.176,0,0,1-.042,0L5.391,23.2l-.2-.021a.152.152,0,0,1-.051-.015L4.527,22.9l-.2-.071a.151.151,0,0,1-.046-.026L4.1,22.657a.139.139,0,0,1-.022-.022l-.13-.162-.162-.131a.156.156,0,0,1-.04-.048l-.2-.4a.153.153,0,0,1-.012-.036l-.044-.214-.03-.226,0-.244a.155.155,0,0,1,.011-.06l.084-.2.1-.191.055-.2a.153.153,0,0,1,.021-.045l.244-.346.074-.19a.149.149,0,0,1,.036-.055l.141-.136.086-.174a.153.153,0,0,1,.017-.028l.266-.341a.179.179,0,0,1,.027-.028l.159-.124L4.9,18.9l.156-.17.317-.3.283-.317a.156.156,0,0,1,.025-.022l.157-.116.114-.158.156-.174.166-.159.114-.135.075-.185a.166.166,0,0,1,.034-.051l.142-.142.091-.153.055-.194a.156.156,0,0,1,.026-.052L6.94,16.4l.08-.166.152-.807-.016-.2a.16.16,0,0,1,0-.042l.041-.211.017-.178-.038-.19-.018-.216-.116-.365-.12-.148a.154.154,0,0,1-.025-.045l-.059-.165-.141-.11a.16.16,0,0,1-.037-.041l-.1-.169-.144-.136a.15.15,0,0,1-.022-.026l-.112-.168-.456-.458-.116-.181-.158-.107a.157.157,0,0,1-.043-.044l-.1-.163-.154-.114a.155.155,0,0,1-.031-.031l-.132-.175-.463-.427-.153-.168-.123-.175-.157-.116-.637-.606-.168-.122-.662-.59A.142.142,0,0,1,2.7,9.518l-.132-.176-.282-.325-.678-.865-.249-.369a.158.158,0,0,1-.016-.027l-.091-.2-.094-.161-.14-.156A.159.159,0,0,1,.992,7.2L.9,7,.837,6.783l-.1-.175a.172.172,0,0,1-.013-.03l-.061-.19-.11-.171-.095-.23L.389,5.763.358,5.516l-.05-.169-.1-.185a.149.149,0,0,1-.016-.046L.152,4.9a.15.15,0,0,1,0-.035l.01-.193L.09,4.493a.169.169,0,0,1-.01-.046L.049,4.015l-.036-.2L0,3.136l.021-.442L.012,2.272l.01-.229a.157.157,0,0,1,0-.032L.083,1.8l.029-.182L.1,1.412l.03-.247a.156.156,0,0,1,.016-.05L.238.933.28.741.3.54A.154.154,0,0,1,.312.486l.1-.2L.482.1A.154.154,0,1,1,.768.209L.69.412.6.6.583.787l-.05.231a.158.158,0,0,1-.014.037l-.091.177L.4,1.422l.016.192a.143.143,0,0,1,0,.034l-.035.214-.054.211-.01.2L.328,2.7l-.02.442.012.42v.227l.035.187L.385,4.4l.073.187a.156.156,0,0,1,.01.064l-.011.208.032.175.1.177A.2.2,0,0,1,.6,5.246l.06.21L.689,5.7l.057.185.077.19.107.162a.139.139,0,0,1,.017.036l.063.194.1.176a.156.156,0,0,1,.014.033l.064.213.073.16L1.4,7.2a.138.138,0,0,1,.018.025l.109.189.092.2.12.165.122.2.126.158.13.19.821,1,.638.57.343.266.47.467.163.12a.156.156,0,0,1,.034.035l.126.18.283.291.158.133.164.159.134.175.16.118a.163.163,0,0,1,.038.041l.1.161.158.107a.155.155,0,0,1,.044.045l.118.188.129.14.308.293a.156.156,0,0,1,.021.025L6.637,13l.146.138a.154.154,0,0,1,.026.031l.1.163.155.121a.152.152,0,0,1,.05.07l.066.183.121.15a.153.153,0,0,1,.026.048l.132.415a.151.151,0,0,1,.006.033l.016.215.04.193a.149.149,0,0,1,0,.045L7.5,15.02l-.039.205.016.194a.161.161,0,0,1,0,.032l-.027.212-.133.651a.156.156,0,0,1-.013.037l-.095.2a.152.152,0,0,1-.017.027l-.117.153-.053.185a.169.169,0,0,1-.015.036l-.111.187a.172.172,0,0,1-.023.031L6.74,17.3l-.072.179a.167.167,0,0,1-.026.042l-.141.165L6.194,18l-.117.164a.153.153,0,0,1-.034.034l-.163.12-.438.472-.166.152-.137.15-.124.161a.149.149,0,0,1-.028.028l-.159.124-.246.316-.09.184a.155.155,0,0,1-.031.043l-.136.131-.069.177a.162.162,0,0,1-.019.034L4,20.628l-.053.189a.156.156,0,0,1-.013.033l-.1.192-.064.158,0,.194.065.38.175.348.15.122a.138.138,0,0,1,.023.023l.131.163.14.116.19.067.6.269.194.02.212.044.2-.013a.159.159,0,0,1,.042,0l.41.093L6.5,23a.149.149,0,0,1,.042,0l.195.025.194-.041.242-.016a.122.122,0,0,1,.032,0L7.411,23l.2-.014.186-.052.445-.043.187-.073a.153.153,0,0,1,.045-.01l.423-.035.418-.12.2-.043.185-.089a.139.139,0,0,1,.033-.011l.2-.045.187-.088a.162.162,0,0,1,.037-.012l.415-.08.6-.252.207-.079.365-.207.213-.094.166-.106.188-.091.136-.145a.153.153,0,0,1,.062-.041l.186-.064.147-.125.546-.368.136-.152a.153.153,0,0,1,.033-.028l.163-.1.114-.159a.167.167,0,0,1,.023-.026l.165-.145.2-.136.424-.445.11-.173a.135.135,0,0,1,.026-.03l.147-.136.1-.171a.156.156,0,0,1,.026-.032l.163-.153.109-.157.1-.179.153-.176.205-.375.066-.187.232-.4.065-.184a.14.14,0,0,1,.016-.031l.123-.188.234-.589.058-.2.075-.421.079-.217.084-.648.049-.222.018-.2-.021-.413a.154.154,0,0,1,0-.052l.05-.191-.021-.192-.013-.452-.034-.2a.153.153,0,0,1,0-.033l.011-.2-.038-.2a.147.147,0,0,1,0-.033l.005-.2-.057-.189-.078-.458v-.21l-.085-.172a.156.156,0,0,1-.015-.074L16.617,11l-.09-.162a.158.158,0,0,1-.014-.033l-.11-.437-.038-.207-.081-.186-.179-.642L16,9.156a.163.163,0,0,1-.014-.033l-.064-.212-.187-.374L15.665,8.3l-.178-.381-.113-.164a.159.159,0,0,1-.018-.036L15.2,7.313l-.081-.179-.131-.16-.131-.2a.171.171,0,0,1-.017-.037l-.07-.219a.154.154,0,0,1,.293-.093l.064.2.109.17.134.161a.164.164,0,0,1,.021.034l.18.412.069.2.114.168.2.422.074.231.187.375.068.219.1.179a.152.152,0,0,1,.017.042l.173.631.081.183a.145.145,0,0,1,.01.033l.086.43.053.185.1.185a.152.152,0,0,1,.019.081l-.008.19.083.169a.151.151,0,0,1,.016.068v.225l.07.4.061.2a.16.16,0,0,1,.006.048l-.006.206.039.2a.151.151,0,0,1,0,.037l-.011.2.034.2.014.46.023.208a.161.161,0,0,1,0,.056l-.051.192.016.194,0,.231-.021.236-.089.447-.044.434a.164.164,0,0,1-.008.033l-.078.209-.072.408-.067.23-.254.631-.126.2-.07.191-.233.406-.064.184-.221.408a.163.163,0,0,1-.021.029l-.148.167-.094.166-.136.191-.167.16-.105.172a.156.156,0,0,1-.027.033l-.148.137-.109.171a.159.159,0,0,1-.023.028l-.159.153-.135.157-.163.164-.21.143-.135.12-.122.169a.158.158,0,0,1-.044.041l-.17.106-.134.15a.157.157,0,0,1-.029.025l-.554.372-.151.13a.157.157,0,0,1-.049.028l-.177.061-.129.139a.154.154,0,0,1-.046.034l-.2.1-.171.108-.221.1-.369.208-.829.34a.153.153,0,0,1-.035.011l-.418.081-.184.087a.131.131,0,0,1-.032.011l-.2.045-.186.089a.152.152,0,0,1-.035.012l-.424.1-.2.066a.152.152,0,0,1-.033.007l-.423.035-.187.073a.153.153,0,0,1-.045.01l-.434.04-.193.053-.25.019a.193.193,0,0,1-.033,0l-.207-.031-.2.012-.2.043a.166.166,0,0,1-.051,0l-.2-.025-.2.03-.023,0" transform="translate(18.426 40.432)" fill="#f7bfa0" stroke="#f7bfa0" stroke-miterlimit="10" stroke-width="0.5"/>
      <path id="Fill_9" data-name="Fill 9" d="M.154,2.028a.149.149,0,0,1-.033,0A.153.153,0,0,1,0,1.843l.045-.21A.155.155,0,0,1,.062,1.6l.2-.381L.4,1.026.562.859,1.08.451l.2-.114A.177.177,0,0,1,1.317.323L1.7.2,1.869.1A.173.173,0,0,1,1.905.078L2.117.012A.155.155,0,0,1,2.183.007l.225.029L2.809,0a.157.157,0,0,1,.065.007l.617.2a.167.167,0,0,1,.032.014l.193.109a.148.148,0,0,1,.055.053L3.887.57a.153.153,0,1,1-.261.161l-.1-.154L3.388.5,2.809.309,2.4.341,2.178.315l-.161.05L1.848.472a.175.175,0,0,1-.03.015l-.2.072-.2.055L1.245.709.77,1.086l-.137.14L.52,1.379l-.175.338L.3,1.907a.154.154,0,0,1-.15.121" transform="translate(21.407 30.185)" fill="#f7bfa0" stroke="#f7bfa0" stroke-miterlimit="10" stroke-width="0.5"/>
      <path id="Fill_11" data-name="Fill 11" d="M9.193,5.291,8.068,5.24l-.2.014-.445-.03-.2.039a.155.155,0,0,1-.069,0L6.932,5.2l-.168-.009-.2.044a.2.2,0,0,1-.038,0L6.3,5.232l-.249-.055-.413-.023-.2.027a.151.151,0,0,1-.044,0l-.22-.036-.2.006a.149.149,0,0,1-.04,0l-.218-.054-.184-.027-.2.026a.159.159,0,0,1-.036,0l-.22-.024-.236-.055L3.646,5l-.235-.039L3.2,4.945,2.095,4.721,1.88,4.66l-.222-.1-.191-.056-.221-.093-.4-.25L.657,4.034.475,3.862a.181.181,0,0,1-.02-.023L.328,3.653.111,3.241l-.1-.207A.154.154,0,0,1,0,2.964l.023-.451.085-.455.1-.232a.152.152,0,0,1,.02-.034l.137-.175.088-.173a.152.152,0,0,1,.043-.051l.159-.12.112-.165A.162.162,0,0,1,.818,1.06l.2-.109L1.543.575A.178.178,0,0,1,1.577.558l.21-.074.167-.1A.147.147,0,0,1,2,.368L2.188.322,2.359.215A.152.152,0,0,1,2.435.192l.2-.007L2.808.1a.157.157,0,0,1,.04-.013L3.282.01,3.531,0A.156.156,0,0,1,3.69.149.154.154,0,0,1,3.54.307L3.316.314l-.4.074L2.734.476a.156.156,0,0,1-.06.014L2.487.5,2.329.6a.155.155,0,0,1-.046.019L2.089.661l-.173.1L1.7.841l-.52.37L1,1.31l-.105.157A.155.155,0,0,1,.86,1.5l-.152.115-.087.167-.14.182L.4,2.153l-.071.395-.02.39.176.368.1.186L.7,3.652.851,3.8l.534.343.186.078.194.056.22.1.616.162.645.107.205.017.231.039.207.013.243.056.182.019.207-.027a.145.145,0,0,1,.043,0l.219.033.212.052.2,0,.225.034.2-.025.245.005.231.021.24.054.172,0,.206-.045a.159.159,0,0,1,.043,0l.221.015.216.056.19-.036a.18.18,0,0,1,.042,0l.438.032.2-.014.244.02.875.03.648-.039.247.032.181,0,.2-.048.246-.018a.145.145,0,0,1,.047,0l.2.05.2-.008.2-.04a.139.139,0,0,1,.05,0l.221.03.2,0,.415-.061a.136.136,0,0,1,.034,0l.22.021.19-.021.22.009.2-.046a.171.171,0,0,1,.04,0l.221.007.648-.019.214.027.182-.062a.152.152,0,0,1,.081,0l.222.046a.153.153,0,1,1-.063.3l-.181-.037-.176.06a.153.153,0,0,1-.071.006L14,5.143l-.636.02-.208-.007-.2.046a.1.1,0,0,1-.041,0L12.7,5.2l-.2.021L12.268,5.2l-.417.059-.248,0-.212-.028-.194.038-.244.012a.147.147,0,0,1-.043,0l-.2-.049-.2.013-.194.049a.1.1,0,0,1-.038,0l-.219,0-.239-.032Z" transform="translate(33.305 58.629)" fill="#f7bfa0" stroke="#f7bfa0" stroke-miterlimit="10" stroke-width="0.5"/>
      <path id="Fill_13" data-name="Fill 13" d="M.154,1.823A.156.156,0,0,1,.081,1.8.153.153,0,0,1,.018,1.6l.233-.4a.148.148,0,0,1,.036-.041l.156-.121L.535.854A.154.154,0,0,1,.59.794L.784.671.949.542l.2-.128L1.364.305,1.595.222l.173-.1A.153.153,0,0,1,1.816.1L2.251,0a.155.155,0,0,1,.187.11A.154.154,0,0,1,2.327.3L1.9.4,1.723.5,1.486.587,1.3.681l-.18.112L.961.922.79,1.031.7,1.2a.149.149,0,0,1-.043.051L.5,1.379l-.209.363a.154.154,0,0,1-.136.081" transform="translate(14.744 36.084)" fill="#f7bfa0" stroke="#f7bfa0" stroke-miterlimit="10" stroke-width="0.5"/>
      <g id="Group_17" data-name="Group 17" transform="translate(0 0.196)">
        <path id="Fill_15" data-name="Fill 15" d="M37.876,74.77h0l-.223-.052-.415.043-.248-.013-.2.015-.673-.028-.239.019-.225-.071-.2,0-.2.023L35,74.69l-.215-.04-.237.025-.222-.08-.21.005-.234-.045H33.69l-.238.022-.434-.107h-.207l-.243-.038-.249-.019-.2-.071-.2-.027-.461-.021-.427-.1-.207-.023-.241-.072-.184-.034-.235.008-.237-.07-.2-.04-.416-.133-.27-.015-.182-.086-.419-.057-.45-.131L27.8,73.48l-.246-.023-.208-.076-.2-.042-.232-.1-.191-.043-.222-.075-.2-.083-.2-.033-.859-.317-.414-.085-.231-.1-.194-.054-.22-.089-.187-.116-.23-.045-.612-.271-.2-.112-.394-.149-.232-.065-.2-.1-.189-.073-.212-.108-.193-.077-.408-.21-.179-.112-.239-.077-.17-.117-.219-.094-.184-.127-.177-.082-.2-.126-.183-.073-.583-.341-.246-.1-.138-.13-.244-.085-.168-.15-.167-.121-.367-.2-.2-.138-.179-.088-.2-.129-.173-.141-.183-.095-.2-.136-.181-.152-.17-.116L16,68.016l-.2-.142-.212-.13-.141-.145-.173-.1-.363-.286-.208-.139-.127-.143-.206-.095-.212-.162-.119-.16-.194-.128-.133-.142-.215-.116-.321-.3L13,65.721l-.349-.3-.3-.33-.2-.138-.151-.161-.136-.169-.16-.125-.171-.164-.164-.121-.34-.311-.183-.186-.107-.183-.139-.151-.157-.121-.193-.191-.1-.162-.194-.131-.148-.165-.138-.2-.131-.156-.176-.149-.133-.175-.3-.3-.15-.178-.137-.186-.139-.151-.14-.191-.163-.159-.391-.523-.109-.2-.287-.321-.141-.175-.26-.367-.1-.205-.136-.146-.145-.184-.212-.4-.159-.187-.086-.177L6.015,57.7l-.1-.2-.231-.359-.111-.2-.122-.157-.12-.211-.125-.153-.148-.246-.043-.18-.161-.163-.215-.391-.078-.206-.145-.211-.055-.192-.134-.2-.157-.406-.106-.165-.1-.23-.386-.78-.137-.209-.061-.214L3.2,52.455l-.107-.178L3,52.046l-.049-.208-.13-.187-.176-.4-.074-.224-.045-.213-.1-.175-.179-.425-.068-.223-.157-.444-.019-.191-.121-.224-.024-.205-.071-.188-.114-.229L1.613,48.1l-.124-.21-.116-.422-.086-.445-.069-.189-.067-.255-.013-.2L1.061,46.2l-.052-.244-.023-.216-.069-.192-.049-.238L.8,45.077l-.017-.2L.7,44.641l-.01-.2-.068-.23-.013-.222L.562,43.8.534,43.56l-.009-.232-.036-.2-.059-.2L.4,42.691v-.225l-.042-.2-.017-.243-.038-.2L.238,41.6l0-.464-.018-.207-.107-.441.041-.232-.073-.423L.1,39.611l-.048-.229L.1,39.148l-.012-.2-.032-.205-.014-.463L0,38.053l.048-.227-.016-.2.021-.663L0,36.742l.023-.247.005-.24.046-.2,0-.2.018-.234L.061,35.4.1,35.176.1,34.956l.067-.447.01-.209-.027-.222.087-.442,0-.223L.271,33.2l-.017-.239.086-.215-.005-.192.032-.245.062-.233.032-.183L.44,31.671l.032-.236.105-.451.056-.191-.015-.24.108-.223L.8,29.918l.022-.254.074-.189.022-.2.053-.234.067-.2.023-.265.085-.175.023-.251.083-.181.03-.239.077-.192.036-.2.162-.442.071-.41.075-.257.091-.174.044-.255.107-.181L2,25.422l.051-.231.089-.2.055-.194.095-.2.058-.257.1-.167.04-.191.078-.229.1-.214.109-.183.054-.241.109-.194L3,22.732l.4-.811.058-.189.085-.216.1-.209.128-.188.156-.433.123-.185.1-.181.067-.19.117-.215.147-.2.2-.4.138-.176.279-.562.136-.2.09-.208.379-.528.1-.225.127-.155.111-.237.147-.144.327-.561.388-.539.294-.348.252-.386.136-.135.089-.218.177-.148.12-.223.15-.133.131-.2.15-.138.111-.169.154-.184.193-.162.122-.149.135-.21.15-.125.1-.172.3-.365.18-.141.134-.189.625-.62.122-.16.188-.167.124-.152.32-.323.175-.153.176-.182.172-.095.158-.186.167-.105.165-.2.179-.1L12.7,9.4l.134-.159.508-.461.209-.132L13.7,8.52l.148-.147.176-.15.565-.382.149-.134.194-.137.158-.134.146-.149.233-.164.18-.071.133-.139.193-.148.2-.125.19-.09.171-.18.385-.2.159-.128.2-.112.153-.139.234-.154.213-.076.343-.194.161-.177.243-.093L19,4.9l.2-.146.211-.076,1.331-.725.427-.174.189-.1.212-.135.183-.053.176-.152.444-.122.4-.231.4-.116.194-.137.239-.038.611-.285.218-.048,1.023-.352.186-.091.649-.2.23-.1.2-.031.213-.093.215-.049.223-.076.421-.06.411-.142.222-.057.22-.032.194-.07.454-.1L29.546.9,30.588.655l.23-.023.236-.068.2-.008L31.47.48l.253.005L31.91.473,32.1.406l.229-.057.238-.03.236.014L33.679.21l.247.021.189-.023.212-.062.244,0,.212-.011.224-.042.218.035.218-.054.437-.029.238,0,.216,0,.228-.03.215.042.218-.048.251.039.18,0L37.658,0l.251.041.641.036.2-.026.465.025.226-.019L39.659.1l.229-.022.224.065.234,0L40.565.2l.193,0,.888.068.242.059.2.017.479.021.212.072.4.052.445.088.2-.006.248.042L44.3.689l.183.038h.21l.278.044.191.079.2.032L45.6.956l.192.02.229.043.649.168.2.076.248.016.627.206.638.145.427.184.445.1.374.172.261.034.568.273.254.029.4.167.194.108.244.061.192.115.578.25.2.047.262.109.161.119.226.076.187.122.361.185.249.057.381.208.2.091.205.136.562.311.239.074.181.13.209.109.147.128.222.077.4.247.151.139.606.3.173.14.171.088.4.282.137.137.237.11.136.147.2.11.169.142.171.109.224.1.167.145.166.176.138.1.237.093.14.2.205.122.133.147.4.24.153.161.321.284.167.1.184.172.2.146.135.181.122.127.215.113.135.206.319.265.175.125.2.173.126.162.36.319.093.164.193.114.131.211.142.148.191.164.1.158.205.136.139.172.171.163.112.167.153.131.158.193.133.192.138.137.149.181.119.192.3.312.14.2.154.179.1.173.174.161.113.168.18.179.107.2.121.158.114.185.168.172.232.377.125.162.5.731.156.212.074.2.109.173.127.164.164.186.105.193.076.214.12.158.229.4.085.2.16.194.086.205.105.166.108.2.136.192.159.394.144.184.111.226.058.218.079.184.109.162.109.209.092.212.1.176.173.432.068.223.089.174.423,1.026.063.207.137.216.055.214.083.177.423,1.27.054.229.068.193.1.239.017.2.07.187.124.432.1.238.018.223.048.191.076.185.1.459.087.222.035.431.16.631.08.227.109.863.079.238.009.222.1.392.028.266-.024.208.06.18.073.464.017.459.028.2.065.23-.043.226.058.208-.022.224.056.213-.011.224.054.226-.034.225.042.21-.006.238.032.22-.041.217.076.449-.052.214.049.205-.03.456.027.229-.046.219.033.225-.059.219.031.189.005.265-.062.223-.012.2.015.654-.059.461.014.227-.085.212.014.211-.052.238-.014.411-.085.456-.025.212.02.22-.059.239-.019.2-.1.445-.03.243L74.246,44l-.007.2-.077.456-.077.217-.02.2-.339,1.527-.067.222-.048.241-.092.186-.1.415-.035.249-.086.186-.05.233-.083.184-.044.247-.179.374-.035.247-.092.2-.051.19-.111.227-.115.4-.1.222-.228.652-.111.157-.054.24-.1.167-.048.229-.092.2-.117.187-.077.246-.137.181-.079.172-.062.193-.3.6-.072.244-.254.375-.361.777-.122.19-.1.231L69.859,56l-.09.224-.132.178-.085.176-.139.2L69.2,57.2l-.145.145-.1.175-.132.194-.076.18-.158.236-.141.13-.1.219-.142.17-.117.206-.16.157-.108.158-.13.166-.106.227-.706.857-.12.193-.143.146-.267.394-.157.128-.282.393-.158.1-.106.205-.315.321-.121.158-.325.306-.148.217-.168.124-.137.152-.189.157-.123.149-.321.322-.152.207-.191.121-.151.13-.134.15-.16.147-.157.21L62.5,65.1l-.159.134-.154.173-.178.131-.31.326-.167.113-.168.183-.384.234-.318.27-.157.186-.184.122-.728.542-.174.078-.146.169-.207.157-.207.09-.322.243-.21.122-.153.125-.2.109-.181.168-.2.105-.386.255L57,69.218l-.149.091-.186.17-.575.3-.182.163-.229.049-.142.12-.64.355-.2.051-.178.094-.205.141-.184.061-.192.149-.205.084-.17.1-.821.375-.235.067-.19.076-.212.116-.216.057-.576.261-.215.121-1.039.318-.175.108-.223.1-.445.119-.2.075-.238.054-.182.074-.247.048-.641.226-.2.014-.218.089-.219.035-.646.21-.2.011L46,73.793l-.208.009-.2.052-.194.073-.259.066L44.913,74l-.2.037-.224.015-.2.054-.674.1-.435.137-.222-.026-.2.073-.252-.005-.2.028-.191.059-.246.03-.226.047-.246-.021-.19.025h-.241l-.191.036-.243.007-.437.079-.213-.026-.23.062h-.221l-.225-.039-.427.081-.243-.016-.2.013-.238-.012-.222.026Zm-.2-.362h0l.22.051.194-.022.247.012.2-.013.22.013.453-.083.249.046.17,0,.228-.068.233.028L40.5,74.3l.247-.008.2-.036H41.2l.2-.024.231.016.2-.04.233-.027.188-.059.242-.034.219,0,.22-.079.232.028.391-.121.685-.1.221-.058.222-.014.2-.038.227-.013.2-.052.194-.073.261-.066.194-.008.233-.094.2-.011.4-.142.224-.062.216-.036.237-.094.2-.014.61-.217.24-.045.176-.073.24-.055.185-.072.448-.118.177-.079.211-.124,1.038-.318.177-.1.617-.28L52,71.491l.176-.1L52.4,71.3l.23-.066.783-.359.175-.1.2-.086L54,70.529l.19-.063.162-.116.247-.129.2-.049.167-.105.4-.21.177-.152.223-.049.176-.148.2-.093.363-.2.175-.163.19-.112.22-.083.35-.237.19-.1.18-.167.2-.1.149-.123L58.361,68l.345-.256.214-.1.146-.115.192-.2.191-.085.864-.634.128-.157.358-.3.379-.233.162-.177.168-.114.3-.314.184-.137.136-.155.186-.158.352-.249.135-.188.163-.149.139-.154.184-.157.18-.115.109-.16.329-.334.136-.159.191-.16.154-.169.158-.115.127-.2.327-.305.117-.156.3-.31.109-.224.205-.131.26-.373.158-.13.248-.374.143-.145.106-.176.312-.35.389-.5.1-.221.258-.346.162-.162.1-.176L68.1,58.3l.114-.243.153-.141.111-.169.076-.182.139-.207.125-.216.14-.141.191-.379.137-.2.087-.179.133-.183.094-.232.261-.331.087-.215.121-.185.366-.785.245-.363.063-.226.3-.593.058-.184.1-.217.134-.183.068-.23.121-.188.073-.166.058-.255.1-.167.061-.256.119-.168.205-.6.1-.217.119-.4.109-.222.048-.184.09-.2.035-.246.184-.387.041-.237.085-.187.05-.234.084-.181.023-.2.118-.48.09-.182.034-.2.114-.435.288-1.293.027-.239.076-.21.068-.409.015-.249.07-.193.021-.2.1-.454.019-.2.05-.211-.014-.2.061-.472.049-.225v-.192l.015-.228.047-.219-.015-.236.085-.215-.01-.19.059-.464-.016-.639.018-.267.055-.2,0-.2-.04-.233.061-.22-.032-.217.047-.223-.025-.212.031-.428-.058-.236.056-.229-.077-.432.044-.227-.027-.194,0-.229-.047-.229.034-.22-.05-.211.011-.219-.059-.221.022-.222-.062-.222.043-.226-.049-.182-.034-.239-.017-.455-.064-.418-.076-.221.028-.244-.019-.2-.058-.184-.049-.227-.011-.223-.077-.229-.046-.431-.061-.42L73.809,30l-.172-.683-.034-.419-.076-.184-.1-.456-.076-.184-.058-.236-.02-.22-.08-.181-.212-.679-.017-.2-.083-.177-.078-.221-.055-.232-.189-.627-.078-.186-.146-.427-.086-.188-.057-.212-.133-.208L72,23.863l-.083-.184-.076-.221-.351-.788-.149-.431-.083-.2-.1-.173-.192-.405-.113-.173-.1-.228-.061-.221-.086-.169-.154-.2-.158-.391-.12-.167-.226-.392-.086-.2-.16-.191-.087-.2L69.4,18.55l-.145-.2-.073-.213-.086-.153-.139-.154-.143-.185-.139-.225-.071-.19-.254-.338-.733-1.1-.168-.174-.116-.189-.124-.163-.108-.193-.168-.163-.112-.167-.185-.175-.1-.181-.135-.154-.138-.194-.311-.328-.116-.19-.127-.153-.147-.147-.275-.368-.176-.157L65,12.528l-.149-.139-.137-.167-.2-.124-.127-.2-.153-.124-.187-.2-.1-.16-.2-.118-.121-.213-.337-.29-.126-.164L63,10.5l-.351-.266-.2-.179-.1-.158-.206-.118-.153-.16-.131-.175-.162-.113-.179-.168-.164-.1L61,8.757,60.854,8.6l-.4-.24-.133-.146-.224-.141-.108-.15-.209-.088L59.6,7.7l-.172-.182L59.292,7.4l-.186-.081L58.9,7.188l-.173-.143L58.5,6.917l-.13-.14-.231-.105L58,6.524l-.172-.112-.185-.14-.175-.092-.181-.144-.621-.311-.154-.141-.351-.217-.249-.094-.155-.136-.18-.092-.179-.125L55.2,4.867l-.224-.108L54.392,4.4l-.381-.184-.176-.1L53.59,4.06l-.57-.319-.238-.084-.167-.122-.187-.076L52.2,3.406,51.6,3.142l-.185-.111-.238-.058-.194-.112-.37-.152-.255-.029L49.773,2.4l-.243-.029-.394-.18-.418-.088-.229-.09-.211-.1-.612-.136-.63-.205-.253-.017-.208-.081-.832-.2-.21-.025-.24-.073-.23-.039-.191-.079-.2-.03h-.22L44.221.985,43.991.909,43.8.876l-.2.005L43.355.842,43.129.79l-.2-.019L42.7.733,42.485.662,41.835.628,41.6.569,40.526.5,40.3.45,40.049.444,39.86.389,39.643.41l-.22-.044-.2.016L38.757.356l-.192.027-.242,0L37.874.346,37.669.312l-.21.05-.241,0L37,.325l-.224.05L36.55.329l-.2.025-.238,0L35.888.353l-.414.029L35.24.443,35.011.406l-.194.035-.24.013h-.209l-.2.054-.245.029L33.7.518,33.273.59l-.454.05-.24-.015-.192.025-.2.049L31.95.778l-.221.013-.208,0-.23.075-.2.008-.227.067-.22.019L29.586,1.2l-.249.014-.405.089-.222.077-.22.031-.4.116-.231.084-.427.061-.194.068-.218.05-.229.1-.2.031-.181.086-.222.08-.436.122-.175.087-1.058.364-.22.049L23.675,3l-.188.03-.2.13-.41.12-.4.23-.4.112-.2.158-.192.056-.165.111-.422.2-.219.08-.165.1-.795.409-.175.11-.2.109-.208.076-.158.122-.416.22-.189.074-.175.176-.377.21-.221.082-.167.112-.179.158-.194.105-.178.142-.365.189-.184.188-.2.095-.171.108-.165.126-.192.182L15.6,7.4l-.165.118L15.3,7.66l-.18.153-.192.135-.153.135-.567.385-.483.428-.205.13-.467.425-.133.158-.2.189-.168.1-.157.192-.167.105-.168.194-.177.1-.133.144-.179.157-.3.306-.131.16-.185.163-.115.154L10.2,12.2l-.15.205-.178.137-.257.312-.132.219-.152.127-.1.168-.155.188-.193.162-.124.149-.134.2-.149.136-.133.207-.145.127-.123.229-.145.12-.105.227-.145.144-.235.362L7.3,15.8l-.157.173-.105.165-.27.358-.113.18-.238.413-.139.137-.1.217-.126.155-.1.224-.14.172-.233.346-.082.19-.139.208-.288.579-.141.183-.084.185-.112.2-.147.2-.1.175-.065.187-.113.214-.119.18-.06.193-.1.248-.128.184-.086.179-.139.4-.4.814-.06.189-.11.2-.057.247-.115.192-.084.186-.068.2-.059.25-.1.165-.046.23-.1.2-.052.19-.09.207-.042.2-.088.256-.1.167-.04.243-.1.184-.055.2-.076.424-.162.441-.04.221-.075.186-.032.25-.082.176-.023.255-.085.175-.014.236-.069.21-.047.2-.03.242-.073.185-.013.2-.09.493-.083.169.013.213-.126.45-.067.4.021.23-.042.237-.061.229-.027.2.009.229-.084.21.015.209-.044.222,0,.22-.083.429.023.2-.012.246L.4,34.976l.009.223-.04.213.023.2-.018.251,0,.224-.05.221,0,.2-.019.207.054.221-.025.678.021.228-.046.217.03.193.014.458.032.2.016.254-.042.211.044.209-.014.222.076.45-.039.218.1.4.022.244,0,.437.054.193.043.23.015.239.046.21v.239l.025.2.058.188.041.235.034.45.048.2.016.228L1,44.4l.009.2.081.228.018.205.06.2.047.232.077.222.023.221.041.2.088.228.013.208.054.2.071.2.2.85.131.232.065.414.094.175.1.26.023.19.122.229.021.208.288.808.087.194.118.228.044.219.065.193.165.375.148.226.05.218.072.186.1.167.1.212.063.213.113.164.4.808.088.218.105.162.168.424.14.211.054.19.138.194.078.209.192.345.182.175.059.242.105.165.13.16.122.214.122.158.23.393.12.18.1.192.171.185.086.181.156.18.206.393.122.151.169.192.1.2.515.667.171.188.105.2.257.326.122.178.148.145.147.2.139.151.276.351.3.308.136.176.158.131.16.189.134.2.121.131.22.159.11.174.146.141.164.128.186.205.105.179.461.431.17.128.174.166.188.151.139.174.131.14.2.135.154.159.151.179.319.27.168.111.33.3.224.125.139.148.213.146.122.164.147.107.246.123.135.152.169.107.36.286.205.124.14.146.174.1.192.138.179.088.2.136.182.152.17.116.208.11.171.142.171.11.183.091.2.138.377.207.192.14.153.135.221.064.169.158.181.065.215.11.386.24.183.073.21.129.184.086.19.13.22.094.163.112.23.074.374.217.194.1.194.078.21.107.192.074.2.1.2.053.427.163.407.213.385.159.259.056.191.121.181.071.2.056.222.1.4.081.85.314.23.04.2.085.2.067.2.048.229.1.189.04.207.074.244.023.416.14.207.055.466.069.173.082.238.007.427.137.2.039.2.059.22-.008.234.045.229.071.191.018.437.1.431.018.265.038.19.069.2.011.235.037.213,0,.233.048.2.056.2-.018.238,0,.229.041.235-.005.21.076.211-.023.241.046.2.011.2-.023.284.01.19.06.193-.015h.233l.447.027.205-.014.24.014.444-.048Z" transform="translate(0 0.111)" fill="#f7bfa0" stroke="#f7bfa0" stroke-miterlimit="10" stroke-width="0.5"/>
      </g>
    </g>
  </g>
</svg>
