<svg xmlns="http://www.w3.org/2000/svg" width="70" height="72"><g fill="#2C4349" fill-rule="evenodd" stroke="#2C4349" stroke-width="1.365"><path d="M19.87 38.111a.115.115 0 01-.033-.004l-.183-.043-.182.016-.42-.044-.187.026h-.03l-.204-.015-.414-.061-.206-.064-.191-.019a.132.132 0 01-.047-.013l-.187-.09-.373-.119-.586-.211a.158.158 0 01-.039-.024l-.147-.124-.168-.086c-.009-.004-.017-.01-.024-.015l-.145-.116-.166-.086-.18-.121a.144.144 0 01-.033-.032l-.122-.163-.126-.134-.142-.099a.147.147 0 01-.031-.03l-.118-.163-.127-.116-.307-.249-.282-.295a.16.16 0 01-.02-.024l-.095-.148-.145-.102a.16.16 0 01-.024-.02l-.135-.15a.121.121 0 01-.024-.035l-.074-.163-.127-.125a.13.13 0 01-.034-.053l-.063-.175-.103-.15-.106-.186-.08-.206-.062-.2-.035-.219-.05-.176-.07-.408-.03-.407-.032-.183-.02-.212v-.031l.04-.393.007-.198c0-.011.002-.023.005-.034l.058-.195.049-.377a.147.147 0 01.01-.04l.084-.188.035-.154v-.193c0-.022.006-.044.016-.064l.089-.167.044-.18.092-.207.113-.363.09-.188.034-.184a.197.197 0 01.01-.032l.083-.184.13-.19.172-.34.06-.177.087-.196a.14.14 0 01.027-.04l.129-.134.18-.345.14-.178.094-.145.068-.18a.14.14 0 01.039-.055l.133-.117.073-.16.118-.187a.118.118 0 01.03-.033l.147-.121.103-.154.133-.169.294-.306.112-.15.275-.317c.01-.01.02-.02.033-.028l.16-.097.118-.14a.107.107 0 01.025-.023l.152-.11.12-.146.023-.022.162-.125.21-.107.134-.092.123-.147a.125.125 0 01.039-.033l.179-.1.173-.082.128-.133a.178.178 0 01.038-.028l.37-.169.155-.108.198-.102.155-.106a.16.16 0 01.042-.019l.182-.05.161-.092.154-.114a.202.202 0 01.032-.018l.389-.143.187-.054.16-.097.206-.1.157-.112.136-.118.096-.17.075-.172.11-.175.06-.178a.122.122 0 01.018-.036l.116-.167.2-.34.068-.169a.108.108 0 01.014-.026l.219-.333.08-.155.044-.187a.144.144 0 01.035-.064l.12-.125.044-.166a.127.127 0 01.028-.054l.132-.158.176-.327.065-.177a.111.111 0 01.02-.037l.113-.149.075-.17c.004-.01.01-.02.016-.028l.111-.15.073-.171.203-.365.073-.175a.14.14 0 01.025-.04l.123-.134.154-.357.106-.187.23-.34.175-.353a.143.143 0 01.016-.024l.13-.157.172-.333.115-.182.36-.498.146-.15.096-.16.268-.328.08-.158.24-.344.02-.023.138-.13.107-.154.134-.166.156-.138.101-.154a.161.161 0 01.024-.028l.138-.123.1-.156c.006-.008.012-.017.02-.024l.145-.142.263-.298.185-.138.117-.117.102-.162a.142.142 0 01.035-.038l.149-.109.11-.147a.175.175 0 01.023-.024l.47-.39.122-.135a.127.127 0 01.04-.03l.155-.078.1-.142a.137.137 0 01.037-.035l.168-.115.14-.122.186-.123.308-.25.71-.442a.118.118 0 01.029-.016l.375-.142.163-.102c.01-.006.02-.01.03-.014l.195-.065.156-.093a.162.162 0 01.033-.013l.586-.175a.114.114 0 01.032-.007l.4-.026.18-.059a.172.172 0 01.044-.006l.41-.005.188-.029a.15.15 0 01.03-.001l.206.012a.123.123 0 01.042.01l.56.203c.02.008.04.02.055.038l.137.149.144.12a.132.132 0 01.04.058l.072.192.057.202.082.159c.007.015.012.03.014.046l.055.393a.168.168 0 010 .05l-.04.2-.033.384.01.186c0 .014 0 .028-.004.042l-.05.195-.076.187-.017.182a.113.113 0 01-.011.042l-.081.186-.058.18-.086.197-.055.179-.04.188a.135.135 0 01-.011.034l-.186.349-.046.182a.13.13 0 01-.015.037l-.193.332-.047.18a.122.122 0 01-.025.051l-.126.162a.14.14 0 01-.221-.171l.109-.139.044-.171a.15.15 0 01.014-.035l.193-.333.046-.181a.135.135 0 01.014-.035l.18-.338.04-.183.064-.206.086-.199.058-.179.077-.177.017-.18a.107.107 0 01.01-.04l.077-.189.039-.155-.01-.185.036-.418.037-.19-.05-.358-.08-.16-.119-.364-.129-.109-.125-.135-.514-.187-.17-.01-.192.028-.41.006-.178.058a.159.159 0 01-.037.006l-.391.025-.568.17-.166.094-.204.071-.162.101c-.008.005-.016.01-.025.012l-.37.14-.694.432-.306.249-.18.118-.139.122-.16.11-.107.15a.128.128 0 01-.051.044l-.164.082-.12.131-.469.391-.113.15a.17.17 0 01-.03.03l-.143.104-.096.153a.129.129 0 01-.02.025l-.144.142-.182.134-.385.42-.102.16a.132.132 0 01-.025.028l-.137.123-.102.155a.168.168 0 01-.025.029l-.155.134-.22.297a.092.092 0 01-.018.022l-.137.13-.227.321-.085.164-.272.336-.092.157a.133.133 0 01-.021.026l-.145.145-.443.639-.185.35-.135.168-.173.345-.332.52-.152.357a.125.125 0 01-.026.041l-.124.136-.069.166-.205.368-.072.171a.219.219 0 01-.016.03l-.112.15-.076.171a.164.164 0 01-.016.029L23 19.33l-.063.172-.097.196-.11.183-.123.15-.045.172a.143.143 0 01-.035.062l-.119.123-.04.166a.121.121 0 01-.011.032l-.094.18-.223.34-.071.175-.214.365-.11.16-.059.176-.015.03-.11.171-.07.166-.114.203a.14.14 0 01-.03.038l-.166.142-.188.132-.214.105-.164.1a.104.104 0 01-.034.015l-.383.122-.169.065-.152.112-.19.11a.142.142 0 01-.033.014l-.177.049-.151.101-.196.102-.153.106c-.008.006-.017.01-.026.014l-.344.157-.13.133a.12.12 0 01-.04.03l-.334.17-.119.143a.112.112 0 01-.03.027l-.168.113-.201.102-.126.1-.122.149a.155.155 0 01-.027.024l-.152.11-.123.144a.157.157 0 01-.033.03l-.16.097-.786.907-.108.162a.131.131 0 01-.027.03l-.147.12-.097.152-.075.17a.135.135 0 01-.035.047l-.13.115-.062.16-.014.028-.11.168-.135.169-.169.332a.145.145 0 01-.025.036l-.127.132-.072.162-.063.182-.191.377-.126.183-.064.145-.033.187a.17.17 0 01-.013.038l-.09.18-.044.17-.07.198-.088.196-.04.17a.143.143 0 01-.012.031l-.08.152v.174a.165.165 0 01-.004.032l-.047.195-.083.192-.052.384-.057.197-.02.391-.025.192.017.186.033.187.03.408.065.377.05.182.033.214.124.35.09.157.107.154c.007.01.013.02.017.032l.058.162.122.12a.202.202 0 01.03.042l.076.167.11.121.155.108c.015.01.028.024.038.04l.102.16.268.281.449.38.121.164.145.105.156.163.118.156.146.1.164.083c.009.004.016.01.024.016l.144.115.17.087c.01.005.019.01.027.018l.142.12.17.069.186.055.578.198.185.087.182.018c.01 0 .019.003.028.005l.197.063.563.069.193-.026a.121.121 0 01.038 0l.4.045.18-.018c.015-.002.03 0 .045.003l.167.04.168-.052c.014-.004.03-.005.045-.006l.205.006.206.04.181-.024h.2l.177-.052a.168.168 0 01.045-.006l.201.007.188-.01.18-.033.193-.01.166-.072.029-.01.196-.037.219-.015.158-.036.171-.08a.161.161 0 01.049-.013l.175-.013.155-.08.396-.13a.129.129 0 01.04-.007l.182-.01.526-.235.362-.133.142-.115a.138.138 0 01.064-.029l.17-.03.132-.105.187-.112.198-.089.208-.067.145-.074.148-.118.196-.11.475-.35.19-.103.14-.11.182-.097.257-.275.347-.259.409-.391.095-.16c.005-.009.012-.017.019-.025l.138-.145.1-.148a.114.114 0 01.028-.03l.145-.116.22-.296.067-.172a.165.165 0 01.029-.045l.127-.135.287-.493.052-.18.184-.381.054-.173a.135.135 0 01.017-.034l.102-.156.057-.174.038-.182.024-.19a.194.194 0 01.014-.045l.078-.154.004-.174c0-.014.003-.028.008-.041l.064-.19.02-.172.107-.393.003-.182.02-.21-.01-.183.014-.216.035-.218.002-.164-.054-.181a.115.115 0 01-.005-.055l.02-.182-.088-.385-.01-.21-.05-.184c-.005-.018-.007-.036-.005-.054l.021-.178-.06-.165a.124.124 0 01-.01-.05l.003-.208-.012-.194a.14.14 0 01.13-.148.142.142 0 01.149.131l.012.204-.002.192.064.172c.008.02.01.043.008.065l-.022.184.048.173c.003.01.005.021.005.032l.007.206.088.371a.12.12 0 01.004.05l-.02.18.053.174a.107.107 0 01.006.043l-.004.206-.035.224-.012.188.009.187-.02.22-.003.19a.132.132 0 01-.006.039l-.106.38-.023.183-.064.196-.004.185c0 .02-.006.04-.015.06l-.082.16-.023.178-.044.208-.066.205c-.004.012-.01.023-.016.034l-.102.155-.056.173-.183.378-.047.173c-.003.01-.008.02-.013.03l-.302.519a.174.174 0 01-.02.03l-.122.128-.065.166a.145.145 0 01-.02.034l-.236.318a.179.179 0 01-.027.028l-.144.116-.102.149-.142.15-.097.163a.2.2 0 01-.023.03l-.435.414-.34.252-.26.281a.132.132 0 01-.036.026l-.18.094-.139.109-.197.108-.467.344-.194.11-.14.113a.143.143 0 01-.024.016l-.18.09-.213.069-.169.075-.157.095-.145.116a.145.145 0 01-.062.028l-.169.03-.132.107a.134.134 0 01-.038.022l-.917.38a.172.172 0 01-.05.011l-.188.01-.369.12-.155.082a.128.128 0 01-.053.015l-.178.013-.161.075-.029.01-.195.043-.223.016-.162.032-.176.076a.135.135 0 01-.049.011l-.201.01-.179.033-.218.012-.19-.006-.175.053c-.013.004-.027.004-.041.005l-.201-.002-.184.026a.155.155 0 01-.048-.001l-.206-.043-.156-.003-.183.057a.139.139 0 01-.04.006m25 21.069a.127.127 0 01-.034-.005l-.167-.042-.171.042a.172.172 0 01-.05.004l-.202-.024-.186.003-.22-.027-.188-.006-.198.001-.614-.074-.193-.005a.154.154 0 01-.03-.004l-.376-.094-.187-.003a.154.154 0 01-.03-.004l-.181-.042-.188-.001a.126.126 0 01-.033-.005l-.387-.086-.19-.024a.137.137 0 01-.029-.007l-.36-.132-.182-.01a.106.106 0 01-.04-.008l-.375-.125-.18-.024-.215-.07-.026-.013-.164-.095-.176-.056-.18-.026a.128.128 0 01-.043-.014l-.162-.083-.18-.034a.152.152 0 01-.05-.019l-.323-.195-.18-.042a.158.158 0 01-.034-.013l-.176-.096-.172-.066a.136.136 0 01-.037-.021l-.159-.128-.325-.183-.173-.057a.159.159 0 01-.034-.018l-.164-.115-.148-.134-.165-.076a.141.141 0 01-.036-.024l-.149-.136-.15-.111-.158-.145-.15-.108-.164-.099a.148.148 0 01-.029-.022l-.262-.29-.153-.105a.12.12 0 01-.031-.028l-.239-.302-.149-.113a.141.141 0 01-.039-.045l-.086-.158-.133-.121a.091.091 0 01-.02-.024l-.231-.328c-.007-.01-.012-.02-.017-.03l-.067-.175-.106-.149-.107-.185-.351-.73a.093.093 0 01-.012-.033l-.037-.18-.082-.164-.07-.212-.077-.387-.086-.17a.132.132 0 01-.015-.062v-.204l-.031-.174-.062-.171c-.007-.02-.01-.042-.007-.063l.025-.204.002-.186-.029-.176-.014-.217.017-.419-.023-.184a.17.17 0 01.003-.045l.081-.385-.001-.189c0-.01 0-.02.003-.029l.04-.198.017-.185.035-.196-.008-.192c0-.021.003-.043.012-.062l.072-.16-.006-.175c0-.018.002-.036.008-.053l.064-.176.023-.186a.131.131 0 01.009-.034l.074-.189.075-.374.068-.207.1-.18.023-.18a.154.154 0 01.02-.054l.097-.155.04-.176a.12.12 0 01.014-.04l.102-.176.222-.548.102-.185.12-.162.06-.172.104-.197.796-1.178a.138.138 0 01.194-.034c.064.043.08.13.035.194l-.347.488-.204.34-.234.333-.088.166-.06.173a.102.102 0 01-.02.037l-.121.163-.167.334-.142.372-.098.173-.04.18a.163.163 0 01-.018.043l-.093.149-.024.175a.141.141 0 01-.017.05l-.102.18-.052.167-.078.38-.074.195-.023.185c-.002.01-.004.02-.008.03l-.06.166.007.18a.151.151 0 01-.013.063l-.071.16.006.173c0 .01 0 .02-.002.03l-.035.2-.017.188-.04.199.001.188c0 .01 0 .02-.003.03l-.08.38.02.18-.016.43.013.188.029.188-.001.223-.022.186.057.164.04.22v.193l.08.156a.16.16 0 01.011.033l.08.398.056.173.082.16c.005.01.01.023.012.034l.038.182.434.87.11.153.016.03.067.175.213.303.14.126c.01.01.02.023.028.037l.083.152.14.106c.01.007.018.016.025.025l.236.298.15.103c.011.008.02.016.028.025l.252.28.158.095.172.125.16.145.15.11.143.132.165.076a.141.141 0 01.036.024l.15.136.133.093.175.06.373.209.158.126.167.066.175.093.182.043a.166.166 0 01.037.014l.33.198.174.032a.17.17 0 01.038.013l.16.082.18.028.211.066c.01.003.02.007.028.012l.165.096.177.06.176.023.389.127.183.01c.014 0 .028.004.042.009l.363.133.184.024.392.086.187.002c.01 0 .021 0 .032.003l.18.043.189.003c.01 0 .02.001.03.004l.38.094.395.025.408.055.182-.002.206.007.215.026.184-.002.194.021.181-.044a.13.13 0 01.068 0l.175.044.176-.02.221.005.381-.006.182-.044a.09.09 0 01.04-.004l.174.007.169-.06.03-.007.2-.023.208.005.184-.033.185-.047.195-.03.172-.07a.161.161 0 01.036-.01l.18-.022.167-.072a.156.156 0 01.037-.01l.2-.027.164-.058.171-.077.208-.05.352-.168.148-.103.386-.175.146-.102a.147.147 0 01.028-.014l.19-.074.483-.31.147-.117.276-.272.171-.12.396-.438.15-.141.116-.141.193-.322a.132.132 0 01.03-.037l.133-.119.08-.155.212-.35.069-.166.014-.026.106-.15.065-.17a.138.138 0 01.014-.027l.097-.15.044-.173.15-.39.093-.164.01-.172a.134.134 0 01.02-.065l.088-.143-.002-.166c0-.01 0-.02.003-.031l.097-.394.054-.18.01-.183.104-.59-.018-.18c-.002-.01-.001-.02 0-.032l.024-.198-.026-.373.015-.22-.03-.376-.047-.17a.134.134 0 01-.005-.035l-.001-.2-.04-.362-.075-.168-.066-.205a.197.197 0 01-.006-.035l-.01-.18-.067-.166-.06-.208-.072-.168-.009-.027-.084-.36-.106-.147a.14.14 0 01-.022-.046l-.05-.197-.055-.156-.119-.138a.108.108 0 01-.021-.034l-.083-.182-.062-.2-.081-.15-.126-.14a.174.174 0 01-.02-.03l-.084-.164-.122-.14a.118.118 0 01-.024-.037l-.071-.168-.779-.879-.143-.124a.17.17 0 01-.028-.032l-.096-.156-.138-.113-.158-.092a.134.134 0 01-.043-.039l-.099-.14-.153-.075a.143.143 0 01-.024-.016l-.158-.123-.156-.146-.315-.191a.134.134 0 01-.034-.028l-.122-.134-.156-.082-.176-.075-.362-.214-.173-.138-.139-.073-.183-.048a.153.153 0 01-.037-.016l-.171-.105-.165-.059-.191-.087-.186-.11-.165-.058a.14.14 0 01-.032-.017l-.14-.098-.171-.023a.131.131 0 01-.034-.009l-.186-.074-.177-.113-.37-.12-.183-.094-.377-.106-.198-.078-.367-.059-.977-.28-.207-.085-.37-.109-.378-.058a.093.093 0 01-.04-.012l-.16-.074-.177-.006a.13.13 0 01-.055-.013l-.17-.08-.18-.033-.18.004h0a.144.144 0 01-.058-.013l-.186-.085-.371-.113-.59-.107-.192-.086-.183-.027a.111.111 0 01-.03-.008l-.19-.073-.18-.1-.179-.043-.192-.032a.14.14 0 01-.035-.01l-.185-.082-.176-.049a.163.163 0 01-.038-.017l-.158-.101-.368-.112-.39-.18-.183-.095a.117.117 0 01-.026-.017l-.142-.12-.168-.073a.138.138 0 01-.033-.02l-.157-.13-.165-.116c-.008-.005-.015-.012-.022-.019l-.143-.154-.268-.352a.128.128 0 01-.026-.06l-.038-.214-.007-.45c0-.026.006-.051.02-.073l.092-.155.047-.178a.144.144 0 01.044-.07l.152-.131a.147.147 0 01.047-.027l.176-.06.154-.091a.1.1 0 01.035-.015l.173-.048.164-.087a.117.117 0 01.055-.016l.579-.061c.01-.001.02-.002.029-.001l.175.01.175-.044a.17.17 0 01.04-.004l.196.006.22.046.18.018.173-.016c.02-.001.038 0 .055.006l.165.055.172-.01c.01-.002.02-.001.03 0l.382.05a.13.13 0 01.04.01l.166.07.608.037.397.04.184-.05a.149.149 0 01.059-.004l.172.027.32-.156.158-.097.123-.099.068-.126v-.172l-.018-.152-.08-.133-.4-.401-.137-.095-.14-.135-.33-.14-.36-.22-.514-.24-.183-.033a.124.124 0 01-.031-.01l-.184-.08-.174-.045a.2.2 0 01-.04-.017l-.156-.101-.352-.12-.185-.016a.147.147 0 01-.053-.016l-.165-.087-.179-.043-.374-.12-.188-.014-.414-.116-.181-.03a.106.106 0 01-.039-.013l-.169-.083-.179-.039-.383-.04a.121.121 0 01-.048-.012l-.158-.074-.175-.003a.138.138 0 01-.045-.008l-.19-.068-.178-.028-.213-.066-.186-.077-.185-.027-.213-.055-.188-.028-.215-.064-.369-.163-.19-.026a.13.13 0 01-.06-.023l-.154-.105-.176-.054-.203-.088c-.01-.003-.018-.009-.026-.014l-.166-.12-.164-.076a.147.147 0 01-.048-.037l-.114-.14-.16-.076a.149.149 0 01-.045-.034l-.258-.287-.16-.104a.133.133 0 01-.042-.043l-.102-.161-.11-.142a.153.153 0 01-.026-.06l-.03-.173-.08-.176a.16.16 0 01-.011-.065l.01-.19-.049-.18c-.003-.011-.004-.023-.005-.034l-.004-.21a.16.16 0 01.009-.053l.076-.197.117-.384.1-.205.122-.19c.006-.01.013-.017.02-.025l.152-.144.177-.136.144-.135a.138.138 0 01.058-.032l.183-.05.149-.108a.128.128 0 01.04-.021l.2-.062.342-.159a.176.176 0 01.03-.01l.565-.152.159-.082a.133.133 0 01.044-.014l.198-.027.175-.047.41-.05.185-.041c.012-.003.023-.004.035-.003l.18.007.172-.046.416-.047.208.015.18-.03.406-.025.41.002.594-.012.21.014.183-.01a.095.095 0 01.041.005l.18.045.386.013.184-.016c.015-.002.03 0 .045.004l.18.045.183.003c.011 0 .022.002.033.004l.175.046.182-.005c.014 0 .031.002.046.007l.358.106.181-.007a.14.14 0 01.045.006l.192.056.176.021.028.007.19.066.368.058.211.068.572.127a.142.142 0 01.036.014l.15.086.172.014a.15.15 0 01.05.014l.158.077.178.018c.011 0 .022.003.033.007l.187.067.177.092.178.033c.018.004.035.01.05.02l.172.111.162.062.18.046.559.25.186.043a.116.116 0 01.04.016l.349.222.712.32.186.12.164.062a.137.137 0 01.035.02l.302.241.169.066c.012.004.023.01.034.019l.16.122.158.08.18.13.336.176a.152.152 0 01.039.029l.128.134.156.092.174.124.162.073.186.126a.17.17 0 01.024.022l.116.131.16.07a.134.134 0 01.036.022l.152.133.153.085a.131.131 0 01.032.025l.14.148.143.1.148.122.171.078a.118.118 0 01.035.023l.762.673.147.098c.01.006.018.013.026.022l.125.14.153.108.164.134c.01.008.02.018.027.029l.105.152.3.247a.148.148 0 01.035.044l.076.154.143.09a.18.18 0 01.033.028l.256.322.13.13.234.335.143.124a.15.15 0 01.033.042l.092.182.11.136.11.195.113.137.23.347.126.127a.148.148 0 01.03.05l.07.193.084.162.105.151.096.175.125.145a.14.14 0 01.024.043l.22.553.1.153c.005.008.01.017.013.027l.069.19.188.326c.006.01.01.021.014.032l.053.177.095.16a.145.145 0 01.016.038l.091.4.136.355.096.152a.14.14 0 01.016.04l.103.379.164.586c.002.01.004.02.004.029l.008.173.082.155c.004.009.008.018.01.027l.056.193a.112.112 0 01.005.036l.004.205.089.358.027.22.049.173.018.206.065.175a.159.159 0 01.008.039l.014.2.064.384a.128.128 0 01.001.034l-.016.203.017.158.061.18a.14.14 0 01.007.04l.021.398-.003.192.05.178a.123.123 0 01.002.071l-.041.17.04.166.015.226v.21l.02.184c0 .016 0 .03-.003.045l-.041.185.005.184.03.183a.148.148 0 010 .042l-.026.175.04.176a.154.154 0 01.002.043l-.017.2.013.182-.011.219.003.192a.14.14 0 01-.137.142h-.003a.14.14 0 01-.14-.138l-.003-.202.012-.212-.013-.185.016-.2-.041-.182a.14.14 0 01-.001-.05l.026-.18-.028-.18-.007-.218c0-.012 0-.023.003-.034l.04-.18-.019-.178v-.216l-.01-.192-.045-.172a.127.127 0 010-.067l.04-.168-.046-.162a.19.19 0 01-.005-.04l.004-.202-.02-.374-.06-.176-.006-.03-.02-.2.015-.212-.062-.378-.014-.195-.065-.173a.172.172 0 01-.008-.038l-.016-.201-.048-.168-.027-.22-.091-.378-.007-.213-.046-.162-.09-.17a.122.122 0 01-.016-.06l-.009-.19-.26-.935-.094-.157-.153-.396-.091-.392-.094-.157a.237.237 0 01-.014-.032l-.052-.177-.194-.34-.072-.193-.1-.158-.093-.2-.135-.366-.118-.137a.167.167 0 01-.016-.024l-.097-.176-.106-.155-.1-.193-.067-.182-.121-.127-.237-.353-.12-.148-.11-.197-.113-.14-.093-.18-.136-.117a.184.184 0 01-.023-.025l-.23-.333-.126-.125-.245-.307-.158-.1a.131.131 0 01-.051-.056l-.08-.162-.29-.237a.153.153 0 01-.027-.03l-.105-.153-.3-.227-.023-.02-.124-.14-.154-.105-.306-.298-.447-.365-.17-.077a.174.174 0 01-.03-.02l-.312-.24-.145-.15-.158-.091-.156-.133-.17-.074a.142.142 0 01-.049-.035l-.125-.142-.15-.105-.165-.074-.185-.13-.162-.094a.121.121 0 01-.03-.025l-.126-.13-.34-.181-.176-.128-.16-.082-.165-.123-.172-.067a.14.14 0 01-.037-.022l-.299-.24-.17-.066-.193-.123-.716-.322-.334-.213-.179-.041a.094.094 0 01-.028-.01l-.551-.249-.17-.041-.203-.08-.172-.108-.172-.032a.12.12 0 01-.04-.014l-.177-.094-.153-.053-.186-.02a.113.113 0 01-.047-.012l-.157-.077-.176-.014a.15.15 0 01-.058-.018l-.16-.091-.56-.125-.204-.066-.372-.06-.198-.067-.183-.024-.19-.054-.182.007c-.013 0-.028 0-.042-.004l-.368-.109-.178.004c-.013 0-.026 0-.038-.004l-.178-.046-.183-.003a.165.165 0 01-.032-.004l-.173-.044-.178.014-.411-.012a.175.175 0 01-.032-.004l-.177-.045-.178.009-.216-.014-.582.012-.402-.003-.183.018-.207.006-.177.031a.138.138 0 01-.035.001l-.2-.016-.366.042-.173.048a.121.121 0 01-.042.005l-.183-.008-.176.04-.412.049-.17.047-.19.026-.161.082-.407.119-.185.042-.35.162-.193.06-.151.11a.17.17 0 01-.045.022l-.175.048-.129.12-.176.135-.127.123-.106.161-.083.172-.18.552.002.165.052.186c.004.014.005.03.004.045l-.01.178.073.16c.005.01.008.022.01.034l.027.156.096.125.092.145.15.097a.127.127 0 01.025.022l.258.285.16.077a.15.15 0 01.048.038l.114.138.158.075.175.124.175.077.18.054c.015.004.027.01.04.018l.143.099.175.023a.214.214 0 01.034.009l.188.076.194.093.175.052.184.027.21.055.188.026a.133.133 0 01.034.01l.19.08.183.056.183.03.191.066.182.004c.02 0 .04.005.057.013l.162.075.385.041.207.045c.011.003.022.006.032.011l.166.082.177.03.4.114.176.012c.01 0 .02.002.029.005l.57.167a.208.208 0 01.032.012l.155.082.177.016a.11.11 0 01.036.008l.373.127a.15.15 0 01.034.016l.154.099.173.046.188.08.186.035a.201.201 0 01.035.01l.542.254.353.219.159.058.187.086a.176.176 0 01.04.027l.14.14.14.097.432.43a.144.144 0 01.018.025l.102.171c.01.017.017.036.02.056l.022.198v.223a.145.145 0 01-.016.065l-.098.183a.127.127 0 01-.036.044l-.16.127-.182.111-.377.184a.13.13 0 01-.08.011l-.185-.028-.179.049a.156.156 0 01-.048.004l-1.045-.078a.122.122 0 01-.049-.012l-.169-.071-.36-.047-.184.011a.12.12 0 01-.053-.007l-.163-.054-.17.014-.221-.02-.21-.046-.151-.002-.179.045c-.014.003-.028.005-.042.003l-.183-.01-.554.058-.152.081a.115.115 0 01-.029.011l-.17.047-.15.09a.166.166 0 01-.027.013l-.165.055-.098.085-.042.156a.12.12 0 01-.015.035l-.082.139.005.386.029.159.238.314.125.134.161.113.15.123.17.074a.152.152 0 01.034.022l.146.123.526.253.375.113a.144.144 0 01.033.016l.156.1.175.05.188.081.185.031.206.05a.128.128 0 01.037.014l.18.101.155.059.188.027c.013.003.026.006.038.012l.186.086.17.038.395.061.4.122.178.08.175-.002.224.038a.157.157 0 01.035.011l.16.076.175.005a.149.149 0 01.055.014l.166.077.383.06.402.119.2.084.565.154.384.117.385.064.393.137.189.047.03.012.18.095.355.112a.13.13 0 01.038.017l.17.111.145.056.19.025a.136.136 0 01.06.024l.154.107.171.064.196.112.347.145.177.105.18.047c.01.003.021.007.03.012l.177.096.18.14.325.194.17.072.19.098a.157.157 0 01.038.03l.123.137.33.204.166.153.136.106.172.085c.02.01.038.025.052.044l.102.144.15.089.173.14a.12.12 0 01.03.034l.098.158.136.118.148.15.26.325.132.128.271.311c.01.011.019.024.024.038l.072.168.119.135c.007.01.014.019.019.029l.084.164.124.139.019.026.096.177a.093.093 0 01.01.026l.06.197.068.148.123.143a.15.15 0 01.026.044l.067.192.047.182.105.147c.01.014.017.029.021.044l.094.389.073.171.06.211.071.172c.006.014.01.03.01.045l.01.187.056.174.076.172c.006.012.01.025.011.038l.045.404.002.194.047.178.034.425-.015.22.026.38-.023.207.019.186c.001.015 0 .03-.002.044l-.106.586-.009.184a.113.113 0 01-.005.032l-.11.381-.037.172.002.19a.148.148 0 01-.02.075l-.09.147-.01.17a.142.142 0 01-.02.062l-.101.176-.132.348-.047.184a.15.15 0 01-.018.041l-.102.157-.066.173a.173.173 0 01-.016.03l-.107.153-.072.17-.304.529a.138.138 0 01-.032.04l-.135.12-.086.156-.115.176-.137.167-.296.288-.116.145-.142.155a.091.091 0 01-.024.02l-.167.115-.267.265-.17.135-.521.333-.197.079-.154.104-.388.177-.145.101-.38.184a.121.121 0 01-.032.011l-.198.045-.157.073-.202.069-.207.03-.169.072a.12.12 0 01-.037.01l-.182.023-.17.07a.16.16 0 01-.033.009l-.198.03-.182.046-.207.037c-.009.002-.019.002-.028.002l-.203-.005-.163.02-.18.064a.116.116 0 01-.053.008l-.182-.009-.178.044a.127.127 0 01-.034.004h-.607l-.18.022-.017.001"/><path d="M30.252 26.873a.14.14 0 01-.055-.268l.154-.066.099-.132a.13.13 0 01.047-.04l.18-.096.14-.107.14-.125.123-.14a.13.13 0 01.032-.026l.158-.097.13-.13.024-.019.156-.098.127-.132.31-.264.125-.136a.153.153 0 01.038-.029l.156-.08.256-.28.156-.139.322-.253.27-.283.19-.131.413-.416.466-.393.175-.112.126-.134.314-.26.116-.149.288-.298.022-.02.152-.109.273-.288.165-.121.111-.146a.114.114 0 01.024-.025l.143-.114.105-.151.021-.024.151-.137.263-.293.182-.14.11-.116.092-.166a.152.152 0 01.032-.039l.138-.117.097-.154a.108.108 0 01.018-.024l.41-.438.096-.15a.156.156 0 01.033-.035l.136-.102.069-.157a.131.131 0 01.026-.04l.138-.145.104-.149.145-.16.21-.313.259-.32.11-.158.096-.164a.119.119 0 01.016-.023l.251-.288.081-.166.125-.167.073-.172a.174.174 0 01.015-.026l.215-.324.083-.167.242-.322.055-.17a.135.135 0 01.017-.034l.11-.166.09-.164.053-.167.1-.198.124-.168.07-.169.03-.172a.163.163 0 01.013-.037l.08-.157.021-.176a.19.19 0 01.011-.039l.08-.18.03-.138-.035-.165-.02-.186-.067-.159-.052-.187-.096-.147-.105-.103-.159-.081-.31-.217-.166-.028-.2-.072-.381-.065-.174.005-.176.033-.028.002-.375-.01-.172.054a.175.175 0 01-.033.006l-.37.028-.166.073a.152.152 0 01-.052.012l-.174.006-.159.071-.398.112-.028.006-.182.018-.36.139-.199.06-.353.147-.175.086a.08.08 0 01-.027.01l-.176.046-.152.095-.194.093-.349.148-.137.124a.163.163 0 01-.051.03l-.18.057-.147.084-.14.127a.149.149 0 01-.05.029l-.195.063-.146.075-.314.237-.33.193-.114.134-.02.02-.3.242-.11.149-.168.156-.252.279-.096.162a.12.12 0 01-.042.045l-.143.096-.083.151a.157.157 0 01-.032.04l-.142.12-.109.15a.158.158 0 01-.022.023l-.153.132-.23.297-.146.156-.162.12-.091.152a.155.155 0 01-.039.042l-.146.104-.1.146a.127.127 0 01-.027.03l-.156.127-.381.438-.15.144-.158.12-.102.147-.147.162-.436.415-.26.302-.144.146-.236.3-.168.155-.791.888-.113.151-.142.16-.11.152-.164.16-.105.13-.084.172a.119.119 0 01-.022.033l-.136.15-.148.134-.102.155-.143.151-.09.165-.135.179-.141.158-.173.145a.14.14 0 11-.179-.215l.158-.13.237-.289.085-.161a.12.12 0 01.023-.031l.14-.146.096-.149a.118.118 0 01.023-.027l.152-.137.112-.125.082-.168a.124.124 0 01.017-.027l.127-.157.16-.154.103-.144.143-.161.114-.152.809-.907.16-.145.234-.3.28-.296.12-.149.144-.152.304-.275.128-.14.104-.151a.118.118 0 01.03-.033l.163-.121.261-.269.118-.149.141-.155.155-.128.103-.15a.13.13 0 01.035-.035l.142-.102.09-.15a.136.136 0 01.038-.041l.166-.121.118-.129.24-.307.16-.14.11-.151c.006-.01.014-.017.022-.025l.135-.113.087-.159a.132.132 0 01.045-.049l.145-.097.088-.15a.128.128 0 01.02-.026l.425-.439.103-.142.022-.023.307-.25.12-.14a.131.131 0 01.03-.027l.167-.107.184-.099.3-.228.023-.015.18-.09.184-.061.13-.117a.137.137 0 01.024-.018l.173-.099.027-.012.164-.052.13-.118a.127.127 0 01.034-.023l.181-.085.198-.076.169-.08.156-.099a.136.136 0 01.039-.017l.183-.047.355-.167.194-.075.383-.126.178-.074a.138.138 0 01.04-.01l.189-.018.376-.105.16-.074a.141.141 0 01.053-.012l.175-.006.16-.07a.139.139 0 01.043-.012l.388-.031.177-.055a.18.18 0 01.045-.006l.384.01.185-.033.222-.005.418.069c.009 0 .018.003.027.006l.186.07.17.026c.021.004.04.011.058.023l.321.227.16.08a.183.183 0 01.036.026l.14.141.125.186a.114.114 0 01.018.041l.052.192.069.16a.13.13 0 01.01.04l.02.192.04.18c.004.02.003.04-.001.06l-.046.194-.08.185-.022.18a.118.118 0 01-.014.046l-.082.162-.034.18-.084.211c-.005.011-.01.022-.018.031l-.123.163-.079.158-.055.17-.106.198-.105.158-.056.175a.178.178 0 01-.022.041l-.244.32-.074.155-.224.34-.073.171c-.005.01-.01.02-.018.03l-.121.16-.074.157a.132.132 0 01-.019.029l-.258.297-.094.16-.248.337-.132.157-.218.322-.144.16-.106.152-.134.142-.074.17a.155.155 0 01-.044.055l-.146.11-.098.148-.417.449-.1.16a.126.126 0 01-.028.033l-.136.115-.089.159a.11.11 0 01-.02.028l-.14.146-.18.138-.25.28-.15.139-.109.155a.153.153 0 01-.027.03l-.145.115-.113.149a.2.2 0 01-.03.028l-.166.12-.253.273a.12.12 0 01-.024.021l-.154.11-.276.285-.113.147a.134.134 0 01-.02.021l-.314.258-.125.135a.127.127 0 01-.028.023l-.173.109-.592.511-.275.288-.19.131-.256.271-.475.391-.258.282a.138.138 0 01-.04.032l-.158.082-.119.127-.316.27-.126.132a.112.112 0 01-.026.022l-.157.099-.13.13a.131.131 0 01-.027.021l-.155.094-.12.136-.16.143-.168.127-.172.092-.102.138a.14.14 0 01-.058.045l-.188.08a.137.137 0 01-.055.012M23.5 59.172a.127.127 0 01-.034-.004l-.372-.085-.185.012c-.013 0-.026 0-.038-.003l-.197-.042-.187-.02a.106.106 0 01-.046-.013l-.554-.247-.184-.065a.124.124 0 01-.042-.024l-.159-.13-.02-.02-.119-.148-.147-.12a.13.13 0 01-.036-.044l-.184-.364a.142.142 0 01-.011-.033l-.04-.195-.027-.205-.003-.222a.14.14 0 01.01-.054L21 56.96l.094-.174.05-.179a.105.105 0 01.02-.041l.221-.315.068-.173a.136.136 0 01.033-.05l.128-.123.078-.159a.132.132 0 01.016-.025l.242-.31a.148.148 0 01.024-.026l.145-.112.11-.143.142-.154.288-.277.258-.288a.083.083 0 01.022-.02l.143-.107.104-.144.142-.158.151-.145.104-.123.068-.168a.179.179 0 01.03-.047l.13-.129.083-.14.05-.176a.14.14 0 01.024-.047l.114-.149.072-.15.138-.735-.015-.182c0-.013 0-.025.003-.038l.037-.192.015-.162-.035-.173-.015-.197-.106-.331-.11-.135a.136.136 0 01-.022-.041l-.054-.15-.129-.1a.17.17 0 01-.033-.038l-.095-.154-.13-.124a.15.15 0 01-.021-.023l-.102-.153-.415-.417-.106-.165-.143-.097a.139.139 0 01-.04-.04l-.094-.149-.14-.104a.192.192 0 01-.029-.028l-.12-.16-.42-.387-.14-.154-.112-.158-.143-.106-.58-.552-.153-.11-.602-.538a.1.1 0 01-.02-.021l-.12-.16-.257-.296-.616-.788-.227-.335a.123.123 0 01-.014-.025l-.084-.183-.085-.147-.128-.142a.123.123 0 01-.023-.036l-.082-.183-.059-.194-.092-.159c-.005-.009-.01-.018-.012-.027l-.056-.173-.1-.156-.086-.209-.061-.204-.029-.225-.046-.154-.091-.168a.15.15 0 01-.015-.042l-.036-.197c-.002-.01-.002-.021-.002-.032l.01-.175-.064-.163a.184.184 0 01-.01-.042l-.027-.393-.033-.182-.012-.617.02-.403-.009-.384.01-.208c0-.01.002-.02.004-.03l.051-.192.026-.166-.012-.187.027-.224a.153.153 0 01.014-.046l.086-.166.038-.175.016-.182a.137.137 0 01.013-.049l.088-.18.067-.173a.14.14 0 01.181-.08.14.14 0 01.08.18l-.072.185-.081.167-.016.175-.045.21a.196.196 0 01-.012.034l-.083.16-.023.173.014.175a.16.16 0 01-.001.031l-.032.195-.05.192-.008.183.008.388-.019.402.011.382v.207l.031.17.029.389.066.17c.007.019.01.038.01.058l-.01.19.028.158.088.162a.139.139 0 01.012.028l.055.191.028.224.052.169.07.173.097.147c.006.01.012.021.015.033l.057.176.093.16c.005.01.01.02.013.03l.058.193.066.146.122.137a.091.091 0 01.017.023l.1.172.083.182.11.15.11.178.116.143.118.173.747.909.58.518.312.242.427.426.149.109c.012.009.022.02.031.032l.115.164.257.265.144.12.15.146.121.159.145.107c.014.01.025.023.035.037l.093.146.143.097c.016.011.03.025.04.042l.107.17.118.128.28.266.019.023.102.152.133.126a.123.123 0 01.023.028l.091.148.14.11a.125.125 0 01.046.063l.06.167.11.136a.14.14 0 01.024.043l.12.378c.004.01.005.02.006.03l.015.195.037.176a.143.143 0 01.002.041l-.02.196-.035.187.014.176v.03l-.025.192-.121.592a.17.17 0 01-.012.034l-.086.18-.015.025-.107.138-.048.169a.156.156 0 01-.014.033l-.1.17c-.007.01-.014.02-.022.028l-.122.122-.066.163a.133.133 0 01-.023.038l-.129.15-.279.287-.107.15a.126.126 0 01-.03.031l-.149.11-.398.429-.151.139-.125.136-.112.147a.123.123 0 01-.026.025l-.145.113-.223.288-.083.167a.133.133 0 01-.028.039l-.124.12-.063.16a.123.123 0 01-.017.032l-.215.303-.048.172-.012.03-.095.174-.058.144.001.177.06.346.158.317.137.11a.139.139 0 01.021.021l.12.149.127.105.173.06.549.246.177.018.192.04.185-.011a.159.159 0 01.038.002l.374.085.175-.026a.121.121 0 01.038 0l.177.022.177-.037.22-.015.029.001.188.028.186-.012.17-.048.405-.039.17-.067a.143.143 0 01.041-.009l.385-.032.38-.109.186-.04.168-.08a.118.118 0 01.03-.01l.181-.041.17-.08a.098.098 0 01.034-.012l.378-.072.549-.23.189-.071.332-.188.194-.086.151-.097.17-.082.124-.133a.134.134 0 01.057-.037l.17-.058.133-.113.497-.335.124-.139a.142.142 0 01.03-.025l.149-.093.104-.144.02-.024.15-.131.185-.124.386-.405.1-.158a.125.125 0 01.024-.027l.134-.124.094-.156a.217.217 0 01.024-.029l.148-.14.1-.142.094-.162.14-.16.186-.342.06-.17.211-.368.06-.168a.092.092 0 01.014-.028l.111-.171.213-.536.053-.18.069-.384.072-.197.076-.59.044-.202.016-.184-.02-.376c0-.016 0-.031.005-.047l.045-.173-.019-.175-.011-.411-.031-.178a.101.101 0 01-.002-.03l.01-.185-.035-.18a.101.101 0 01-.002-.03l.004-.18-.052-.173-.07-.416-.001-.192-.077-.156a.142.142 0 01-.014-.067l.007-.17-.082-.147a.13.13 0 01-.013-.03l-.1-.397-.034-.188-.074-.17-.162-.584-.092-.159a.194.194 0 01-.013-.03l-.058-.193-.17-.34-.069-.214-.161-.347-.104-.149a.145.145 0 01-.016-.033l-.141-.371-.075-.163-.119-.145-.12-.183c-.006-.01-.01-.022-.015-.034l-.063-.198a.14.14 0 01.266-.086l.058.182.1.155.121.146c.008.01.015.02.02.031l.163.375.063.183.104.153.18.385.067.21.17.34.062.2.094.162a.168.168 0 01.016.039l.157.574.074.167.01.03.077.392.05.168.093.168a.147.147 0 01.017.074l-.007.173.075.154a.13.13 0 01.014.061v.205l.063.367.056.181c.004.015.006.03.006.044l-.005.188.035.182c.002.01.003.022.002.033l-.01.187.03.182.013.419.021.19a.17.17 0 01-.003.05l-.047.175.015.176.003.21-.02.216-.08.406-.04.395a.111.111 0 01-.008.03l-.07.19-.066.372-.06.209-.232.574-.114.18-.064.173-.212.37-.058.167-.201.372a.097.097 0 01-.019.026l-.135.152-.085.151-.124.174-.152.146-.096.157a.138.138 0 01-.024.03l-.135.124-.1.156a.1.1 0 01-.02.026l-.145.14-.123.142-.148.149-.192.13-.122.11-.111.154a.156.156 0 01-.04.037l-.155.096-.122.137c-.008.008-.016.016-.026.022l-.504.338-.137.118a.131.131 0 01-.044.026l-.162.056-.117.126a.143.143 0 01-.042.031l-.181.087-.156.098-.201.09-.335.19-.755.309a.109.109 0 01-.032.01l-.38.074-.167.079-.03.01-.18.04-.17.081a.089.089 0 01-.031.011l-.386.09-.183.06-.03.006-.385.032-.17.067a.143.143 0 01-.042.009l-.394.036-.176.048-.227.018-.03-.001-.189-.028-.185.01-.18.04a.141.141 0 01-.046.002l-.18-.023-.184.027-.021.002M20.62 30.455c-.01 0-.019-.002-.03-.004a.139.139 0 01-.106-.165l.04-.191c.003-.012.008-.023.013-.034l.181-.347.127-.172.147-.151.471-.372.184-.104c.01-.005.02-.01.032-.013l.347-.107.155-.1a.196.196 0 01.033-.015l.193-.06a.136.136 0 01.06-.005l.205.026.365-.032c.02-.002.04 0 .06.007l.56.181.03.012.175.1c.02.01.038.027.05.048l.106.17a.14.14 0 01-.045.192.142.142 0 01-.193-.045l-.087-.14-.13-.073-.527-.17-.375.028-.199-.024-.146.046-.153.097-.028.014-.182.065-.184.05-.155.087-.433.343-.125.127-.103.14-.158.307-.038.173a.139.139 0 01-.136.11m19.053 28.853l-1.024-.046-.18.013-.406-.028-.184.036a.148.148 0 01-.063-.003l-.201-.054-.153-.008-.185.04c-.012.003-.023.003-.035.003l-.202-.007-.227-.05-.375-.02-.182.024a.134.134 0 01-.04 0l-.2-.033-.178.006a.124.124 0 01-.036-.005l-.198-.048-.167-.025-.186.024h-.033l-.2-.021-.215-.05-.178-.01-.214-.036-.191-.017-1.007-.204-.196-.054-.202-.09-.174-.05-.202-.085-.364-.228-.17-.117-.166-.157a.09.09 0 01-.018-.021l-.116-.169-.197-.375-.088-.188a.13.13 0 01-.013-.064l.02-.41.078-.414.09-.21a.097.097 0 01.018-.031l.125-.16.08-.157a.15.15 0 01.04-.047l.144-.11.101-.15a.15.15 0 01.048-.043l.18-.1.48-.342.031-.016.191-.067.152-.09a.18.18 0 01.038-.016l.175-.041.156-.097a.148.148 0 01.068-.022l.179-.006.16-.076a.11.11 0 01.037-.011l.395-.072.227-.01c.082.006.142.059.144.136a.14.14 0 01-.135.144l-.204.006-.361.068-.17.08a.138.138 0 01-.054.013l-.17.006-.144.09a.132.132 0 01-.041.017l-.177.042-.158.091-.197.073-.474.337-.163.09-.095.143a.25.25 0 01-.032.033l-.138.104-.08.152-.127.165-.074.17-.065.36-.018.354.16.335.095.169.101.146.138.133.486.312.169.07.176.052.2.089.56.147.588.097.187.016.21.035.188.012.221.051.166.017.188-.025a.17.17 0 01.039.001l.2.03.192.047.185-.004.204.032.184-.023.224.004.21.02.218.048.157.004.187-.041a.133.133 0 01.04-.003l.2.014.197.05.173-.032a.123.123 0 01.038-.002l.4.028.185-.012.222.018.796.027.59-.035.225.03h.164l.184-.043.224-.016a.121.121 0 01.042.003l.183.046.18-.008.178-.036a.118.118 0 01.046-.002l.2.028.186.003.377-.055c.01-.002.02-.001.03 0l.201.019.173-.02.2.009.181-.043a.222.222 0 01.037-.003l.2.007.59-.017.194.025.166-.057a.134.134 0 01.074-.004l.202.042a.14.14 0 11-.057.273l-.165-.034-.16.055a.142.142 0 01-.065.006l-.202-.028-.579.018-.19-.006-.18.042c-.012.003-.025.005-.038.003l-.201-.009-.18.019-.21-.018-.38.054-.226-.003-.193-.026-.176.035-.222.01a.135.135 0 01-.04-.003l-.18-.045-.179.011-.176.045c-.012.002-.022.005-.035.003l-.2-.003-.217-.029-.574.036zM14.557 35.636a.14.14 0 01-.123-.207l.212-.366a.146.146 0 01.033-.037l.142-.11.083-.162a.146.146 0 01.05-.055l.176-.111.15-.118.186-.116.192-.1.21-.075.157-.094a.142.142 0 01.045-.016l.395-.088a.14.14 0 01.17.1.138.138 0 01-.1.17l-.39.088-.16.092-.216.08-.165.086-.164.102-.149.117-.155.099-.08.156a.123.123 0 01-.039.046l-.146.114-.19.331a.142.142 0 01-.124.074"/><path d="M35.284 69.131l.2.047.178-.02.224.01.186-.012.199.012.412-.075.227.041.155-.003.207-.062.213.026.374-.066.224-.008.178-.032h.227l.183-.022.21.014.18-.036.212-.025.171-.053.22-.03.199.001.2-.071.212.025.355-.11.623-.095.202-.054.202-.013.182-.034.206-.011.181-.048.177-.067.237-.06.178-.007.212-.086.184-.01.36-.129.204-.056.196-.033.216-.085.183-.013.556-.198.218-.041.161-.066.219-.05.167-.066.409-.107.16-.072.192-.113.945-.29.16-.094.563-.254.201-.054.16-.091.204-.083.21-.06.713-.326.158-.095.185-.078.188-.143.172-.057.148-.106.224-.117.179-.045.151-.095.363-.191.16-.14.204-.043.16-.135.183-.085.33-.18.16-.147.173-.102.2-.076.318-.215.173-.093.164-.153.177-.095.136-.112.192-.113.314-.232.195-.087.133-.105.174-.185.174-.079.786-.577.116-.143.326-.276.344-.212.148-.161.153-.105.27-.285.167-.125.124-.14.169-.144.32-.227.123-.17.148-.137.126-.14.167-.142.165-.105.099-.146.3-.304.123-.145.174-.146.14-.154.143-.105.115-.178.297-.278.107-.141.276-.282.098-.204.187-.119.237-.34.144-.117.224-.34.13-.132.097-.16.284-.319.354-.458.093-.201.235-.315.148-.147.087-.16.13-.16.104-.22.139-.129.101-.154.07-.165.126-.19.114-.195.128-.129.173-.345.124-.179.08-.162.12-.166.087-.212.237-.301.08-.196.11-.169.333-.714.223-.33.057-.205.277-.54.052-.168.094-.198.122-.166.062-.21.11-.171.066-.15.054-.232.091-.152.056-.232.108-.153.187-.55.09-.198.108-.367.1-.203.044-.168.082-.184.031-.224.167-.352.038-.216.077-.17.046-.213.076-.164.02-.18.108-.437.081-.166.031-.179.105-.395.262-1.178.024-.217.07-.19.062-.373.014-.226.064-.176.019-.184.09-.413.018-.18.046-.192-.014-.184.057-.43.044-.204v-.175l.013-.207.043-.198-.014-.215.077-.196-.008-.173.052-.422-.014-.582.016-.244.05-.179-.003-.18-.036-.213.055-.2-.03-.197.043-.203-.022-.193.027-.39-.052-.215.051-.208-.07-.393.04-.207-.025-.177.004-.208-.042-.209.03-.2-.045-.191.01-.2-.054-.2.02-.203-.057-.203.04-.205-.045-.166-.03-.217-.016-.414-.059-.382-.07-.2.027-.223-.018-.186-.052-.167-.045-.207-.01-.203-.07-.209-.042-.392-.056-.383-.064-.176-.157-.621-.031-.382-.07-.168-.09-.414-.068-.168-.054-.214-.017-.2-.073-.165-.192-.618-.016-.18-.075-.162-.072-.201-.05-.21-.171-.572-.072-.17-.133-.388-.077-.172-.052-.193-.121-.19-.058-.192-.076-.167-.069-.202-.319-.716-.136-.392-.075-.185-.092-.157-.175-.368-.104-.158-.09-.207-.055-.2-.078-.154-.14-.187-.144-.355-.11-.151-.205-.356-.078-.185-.145-.174-.08-.185-.192-.336-.132-.184-.067-.194-.078-.14-.126-.14-.13-.168-.127-.206-.065-.172-.231-.308-.666-.997-.154-.158-.105-.172-.114-.148-.098-.175-.153-.149-.102-.152-.168-.16-.092-.164-.123-.14-.125-.176-.283-.3-.106-.172-.116-.14-.133-.133-.25-.335-.16-.142-.104-.155-.135-.127-.125-.152-.185-.112-.115-.18-.14-.113-.17-.18-.09-.146-.182-.107-.11-.194-.306-.264-.115-.15-.143-.119-.32-.242-.181-.163-.094-.144-.187-.107-.14-.145-.119-.16-.147-.102-.163-.153-.15-.092-.317-.28-.135-.142-.368-.219-.12-.133-.205-.128-.099-.137-.19-.08-.159-.122-.156-.166-.125-.107-.17-.074-.188-.12-.158-.13-.202-.116-.119-.127-.21-.096-.133-.135-.156-.101-.17-.128-.159-.084-.164-.13-.565-.283-.14-.129-.32-.197-.226-.085-.141-.124-.164-.083-.163-.114-.175-.05-.204-.098-.531-.325-.347-.168-.16-.093-.224-.05-.519-.29-.216-.076-.151-.111-.17-.07-.207-.048-.55-.24-.169-.101-.217-.053-.177-.1-.337-.14-.231-.026-.53-.252-.22-.026-.36-.164-.38-.08-.209-.082-.191-.09-.557-.124-.574-.187-.23-.016-.188-.073-.758-.182-.191-.022-.218-.067-.21-.035-.174-.072-.182-.027h-.2l-.21-.044-.209-.07-.178-.03-.178.005-.223-.035-.205-.046-.183-.02-.207-.034-.196-.065-.592-.03-.218-.055-.973-.064-.208-.044-.226-.006-.172-.05-.197.02-.2-.04-.184.014-.423-.023-.175.024-.22-.003-.409-.031-.186-.03-.192.045-.219-.004-.194-.03-.204.046-.21-.042-.177.023-.217.003-.207-.004-.377.025-.213.056-.21-.033-.175.032-.219.011h-.19l-.177.049-.223.026-.21-.016-.386.066-.414.046-.219-.015-.174.023-.18.045-.218.072-.2.012-.19-.004-.21.068-.183.007-.206.062-.201.017-.96.226-.228.012-.368.081-.202.071-.2.027-.363.106-.21.076-.39.056-.176.063-.198.046-.209.089-.18.027-.165.078-.202.073-.396.11-.16.08-.962.33-.2.045-.57.264-.172.027-.18.12-.374.109-.366.21-.364.101-.186.144-.174.05-.15.102-.385.184-.199.072-.15.092-.722.372-.16.1-.185.1-.19.068-.143.111-.378.201-.172.067-.158.161-.344.19-.2.075-.154.102-.163.144-.177.096-.162.129-.332.172-.166.171-.185.086-.155.098-.15.115-.175.165-.177.07-.15.107-.123.13-.164.138-.174.123-.14.123-.516.35-.44.39-.186.118-.425.387-.121.144-.181.172-.154.087-.142.174-.152.096-.153.177-.162.09-.121.13-.163.144-.277.278-.12.145-.168.149-.105.14-.574.572-.136.186-.163.125-.234.284-.12.199-.139.115-.094.154-.141.17-.176.148-.112.136-.123.182-.135.124-.122.188-.131.116-.113.208-.131.11-.096.205-.132.131-.214.33-.13.166-.143.157-.095.15-.246.326-.103.163-.216.377-.127.124-.088.198-.115.14-.09.204-.127.157-.212.314-.074.172-.126.19-.263.527-.128.166-.077.168-.101.186-.134.18-.086.158-.06.17-.102.196-.108.164-.054.175-.092.226-.116.167-.079.163-.126.36-.368.74-.055.172-.1.18-.051.226-.105.174-.077.17-.062.177-.054.228-.095.15-.042.21-.086.181-.048.173-.082.188-.039.185-.08.232-.09.152-.036.222-.088.167-.05.18-.068.386-.147.401-.037.202-.068.169-.03.227-.073.161-.022.232-.077.159-.013.214-.063.191-.042.184-.028.22-.066.169-.011.18-.082.45-.075.153.012.195-.115.41-.06.362.018.21-.038.215-.056.208-.024.182.007.208-.075.19.013.191-.04.202.003.201-.076.39.02.182-.01.223-.058.4.009.204-.037.193.021.181-.016.228.004.204-.046.202-.002.186-.017.188.049.2-.023.617.019.208-.042.197.027.175.012.417.03.185.014.231-.038.193.04.19-.013.202.068.41-.035.197.088.366.02.222-.002.397.05.176.039.21.014.217.042.191-.002.218.024.182.053.17.038.214.03.41.044.179.015.208.063.212.008.18.074.207.016.187.055.178.042.211.071.202.022.202.037.183.08.207.013.19.049.18.065.178.181.773.12.211.059.377.085.16.087.236.02.173.11.21.02.188.261.735.08.178.107.206.04.2.06.176.149.342.135.205.045.198.066.17.094.152.092.193.057.194.103.15.365.734.08.198.096.148.153.385.127.192.05.173.125.177.07.19.175.313.166.16.053.22.096.15.118.146.11.194.112.144.21.357.11.164.088.175.155.168.079.165.142.164.187.358.11.138.154.174.087.185.469.607.156.17.095.18.234.297.111.162.135.132.134.18.126.137.252.32.275.28.123.16.144.12.146.171.122.181.11.12.2.145.1.158.133.128.15.117.168.187.096.162.42.393.155.116.157.151.172.137.126.159.12.127.178.123.14.145.137.162.291.246.154.101.3.273.204.113.127.134.193.133.112.15.133.097.224.112.123.139.153.097.328.26.187.113.128.133.158.091.175.125.162.08.181.124.166.138.154.107.19.1.155.129.155.1.167.083.183.125.343.188.174.127.14.123.201.058.154.144.165.06.195.1.351.218.167.066.191.117.168.079.173.118.2.085.148.103.21.066.34.198.176.087.177.072.19.097.175.067.179.094.18.049.39.148.37.194.35.145.236.05.174.11.164.065.18.051.202.088.367.073.774.286.209.036.186.078.181.06.184.044.209.087.172.036.189.067.221.021.379.128.188.05.424.063.158.075.216.006.388.125.18.035.184.054.2-.007.213.04.209.065.174.017.397.087.392.017.24.034.174.064.18.009.215.034.194-.003.211.043.182.051.179-.016.215.001.208.038.214-.005.19.069.193-.02.22.041.182.01.18-.022.258.01.173.054.175-.014h.212l.407.025.187-.013.22.013.403-.043zm.184.33l-.204-.048-.377.04-.226-.013-.183.013-.613-.025-.218.017-.205-.064-.18-.004-.186.021-.224-.01-.196-.037-.216.024-.201-.073-.192.004-.213-.04h-.176l-.216.02-.395-.097h-.189l-.22-.034-.228-.017-.179-.065-.184-.024-.419-.02-.388-.087-.188-.02-.22-.065-.167-.032-.213.008-.216-.064-.185-.037-.379-.12-.245-.015-.166-.078-.38-.051-.41-.12-.176-.062-.223-.022-.19-.069-.18-.038-.21-.087-.174-.04-.203-.068-.18-.075-.184-.03-.782-.288-.378-.078-.21-.089-.177-.049-.2-.081-.17-.106-.21-.04-.558-.247-.182-.102-.358-.135-.212-.06-.178-.094-.172-.067-.193-.098-.175-.07-.37-.191-.163-.102-.219-.07-.154-.107-.2-.086-.166-.115-.162-.075-.185-.115-.166-.066-.531-.31-.223-.092-.126-.117-.222-.078-.153-.137-.151-.11-.334-.182-.181-.125-.164-.08-.182-.118-.156-.129-.166-.086-.181-.123-.165-.138-.155-.106-.165-.082-.181-.129-.194-.117-.128-.133-.158-.092-.33-.26-.189-.126-.115-.13-.188-.087-.192-.147-.109-.146-.176-.117-.122-.129-.195-.106-.293-.268-.153-.1-.317-.27-.272-.3-.18-.126-.138-.147-.124-.154-.146-.113-.155-.15-.15-.11-.31-.283-.166-.17-.097-.166-.126-.138-.142-.11-.176-.174-.094-.147-.176-.12-.134-.149-.125-.185-.12-.141-.16-.136-.122-.16-.27-.273-.137-.163-.125-.17-.126-.136-.128-.174-.147-.145-.356-.476-.099-.182-.262-.293-.128-.159-.236-.334-.091-.187-.124-.133-.13-.167-.194-.364-.146-.17-.077-.162-.153-.164-.09-.18-.211-.328-.1-.183-.112-.142-.109-.192-.113-.139-.135-.224-.04-.164-.146-.148-.196-.355-.071-.188-.132-.192-.05-.174-.122-.179-.143-.37-.097-.15-.087-.209-.351-.71-.124-.19-.056-.195-.078-.16-.097-.162-.083-.21-.044-.189-.12-.17-.16-.368-.067-.204-.04-.194-.088-.16-.163-.386-.063-.202-.142-.404-.017-.174-.11-.204-.022-.186-.065-.172-.104-.208-.058-.372-.113-.19-.106-.385-.079-.404-.063-.172-.06-.232-.012-.18-.069-.167-.048-.222-.021-.197-.063-.174-.045-.217-.061-.208-.016-.182-.075-.215-.009-.184-.062-.21-.012-.201-.043-.172-.026-.217-.008-.212-.032-.178-.054-.179-.03-.222v-.205l-.037-.182-.016-.221-.034-.18-.057-.204.002-.422-.015-.189-.098-.401.037-.212-.066-.385.012-.202-.044-.208.042-.213-.01-.183-.03-.187-.012-.421-.033-.206.043-.206-.015-.18.02-.604-.05-.203.021-.224.005-.219.042-.183-.003-.184.017-.214-.026-.195.039-.205-.008-.2.06-.407.01-.19-.025-.203.08-.402-.004-.203.039-.194-.016-.217.078-.196-.005-.174.03-.222.056-.213.03-.166-.02-.203.029-.215.096-.41.05-.174-.013-.218.099-.204.064-.374.02-.231.068-.172.02-.182.048-.213.06-.185.02-.24.078-.16.02-.228.075-.164.027-.217.07-.175.033-.184.147-.402.065-.373.068-.235.082-.158.041-.232.097-.164.059-.176.046-.21.081-.185.05-.176.086-.186.052-.233.096-.152.035-.174.072-.208.089-.195.1-.166.048-.22.1-.176.052-.167.368-.738.052-.172.077-.196.094-.191.117-.171.141-.394.112-.168.087-.166.06-.172.107-.196.133-.18.182-.36.126-.16.254-.513.124-.185.082-.189.345-.48.09-.206.115-.14.102-.216.133-.131.297-.51.353-.49.268-.318.23-.35.123-.123.081-.199.162-.134.108-.203.137-.121.12-.186.137-.125.1-.154.14-.167.176-.148.11-.135.124-.191.137-.114.088-.157.275-.331.164-.129.122-.172.569-.564.11-.146.172-.152.113-.139.291-.294.16-.14.16-.164.157-.086.143-.17.152-.095.15-.18.163-.093.13-.128.123-.145.461-.42.191-.12.14-.116.135-.134.16-.137.514-.348.136-.121.177-.125.144-.122.132-.136.212-.149.165-.065.12-.125.177-.136.181-.114.173-.081.156-.165.35-.182.145-.117.183-.101.14-.126.213-.14.193-.07.312-.175.147-.161.221-.085.339-.18.18-.132.192-.069 1.212-.659.387-.158.173-.087.192-.124.166-.048.16-.138.404-.111.367-.21.362-.106.177-.124.217-.034.557-.26.198-.044.93-.32.17-.082.591-.181.21-.094.181-.028.194-.084.196-.045.203-.07.383-.054.374-.13.203-.052.2-.028.177-.064.413-.09.225-.012.949-.224.209-.02.215-.063.182-.007.196-.07.23.005.17-.011.175-.06.21-.053.216-.027.215.012.794-.112.224.02.173-.022.193-.057.222.002.193-.01.204-.037.198.031.199-.049.397-.026.216.004.196-.002.208-.027.195.038.198-.044.228.036.165.002.212-.05.228.038.583.033.183-.024.424.023.205-.017.198.038.21-.02.203.06.213.003.198.044.175.003.809.062.22.055.179.015.435.02.194.065.368.047.404.08.179-.005.225.038.212.07.167.034.19.001.253.04.174.072.183.03.213.065.175.018.207.04.591.152.184.07.226.015.57.188.58.131.389.168.405.088.34.156.238.032.517.248.23.026.365.152.176.099.222.055.174.105.527.227.185.043.238.1.147.107.205.07.17.112.329.168.227.052.346.19.178.082.187.123.51.283.219.068.165.117.19.1.132.115.203.071.36.225.137.127.551.272.157.128.156.081.362.256.123.124.216.1.124.134.181.1.155.13.155.098.204.094.153.132.15.16.126.094.214.085.129.178.186.111.122.133.366.219.139.147.292.259.153.094.167.157.182.132.122.165.112.116.195.103.123.187.291.24.159.115.183.157.114.147.328.291.084.15.177.103.118.192.13.135.173.148.093.145.186.123.127.157.155.148.102.153.14.119.143.176.12.174.126.125.136.164.108.175.27.284.128.179.14.163.087.157.159.146.103.154.163.163.098.177.11.143.105.17.152.156.212.343.114.147.456.665.142.193.067.18.099.157.115.149.15.17.095.176.069.194.109.143.208.364.078.18.146.175.077.187.096.15.099.186.123.175.146.358.13.167.101.206.053.198.072.167.1.147.099.19.083.194.094.16.157.393.062.203.082.158.385.933.057.189.124.196.05.195.076.162.384 1.156.05.208.062.174.092.218.017.186.063.17.113.393.088.216.017.203.044.174.068.169.091.417.08.203.031.392.147.574.072.207.1.785.072.216.008.202.093.357.026.241-.022.19.055.163.066.423.016.418.026.184.058.21-.04.205.053.19-.02.204.052.193-.01.204.049.206-.031.205.038.19-.005.217.029.2-.038.198.07.408-.048.195.045.187-.027.416.025.208-.042.199.03.205-.054.199.028.172.005.241-.056.204-.011.185.014.596-.053.419.013.206-.077.194.012.192-.047.216-.013.374-.077.416-.022.193.017.2-.053.218-.017.181-.09.405-.027.222-.061.17-.007.182-.07.415-.071.198-.018.183-.309 1.39-.06.203-.044.22-.083.168-.091.379-.032.226-.078.17-.046.212-.075.167-.04.224-.163.34-.032.225-.084.184-.046.173-.1.206-.106.362-.093.203-.207.592-.1.144-.05.218-.092.153-.044.209-.083.183-.107.17-.07.224-.124.164-.073.157-.056.176-.276.544-.066.222-.23.341-.33.707-.11.173-.089.21-.238.304-.082.204-.12.162-.078.16-.126.182-.196.38-.132.131-.087.159-.12.177-.069.164-.144.214-.128.12-.088.198-.129.155-.107.187-.146.143-.097.144-.12.15-.096.207-.642.78-.109.176-.13.132-.244.36-.142.116-.256.358-.143.09-.097.187-.287.292-.11.145-.295.278-.134.198-.153.112-.125.14-.172.142-.112.135-.292.294-.139.188-.174.11-.137.118-.123.136-.145.134-.143.19-.33.233-.146.122-.14.158-.162.12-.282.296-.152.103-.153.166-.35.213-.29.245-.141.17-.168.11-.663.494-.158.071-.133.154-.188.143-.188.082-.294.22-.19.112-.14.114-.18.1-.165.152-.178.095-.351.233-.192.07-.136.083-.17.155-.523.27-.165.148-.208.045-.13.11-.582.322-.184.047-.161.086-.187.129-.168.055-.175.136-.186.077-.155.094-.747.341-.214.061-.173.07-.192.105-.197.051-.524.239-.196.11-.945.29-.158.097-.204.089-.405.108-.177.068-.217.05-.167.066-.225.044-.583.205-.18.013-.198.08-.2.033-.588.19-.178.01-.214.087-.19.008-.18.047-.176.067-.237.06-.203.01-.18.034-.204.014-.18.049-.614.092-.395.124-.203-.024-.186.067-.229-.005-.178.025-.174.054-.223.027-.206.043-.223-.019-.173.023-.22-.001-.173.033-.222.006-.398.072-.194-.023-.209.056-.201.001-.206-.035-.388.073-.22-.014-.185.012-.217-.01-.202.023z"/></g></svg>