<?xml version="1.0" encoding="UTF-8"?>
<svg width="134px" height="296px" viewBox="0 0 134 296" version="1.1" xmlns="http://www.w3.org/2000/svg" xmlns:xlink="http://www.w3.org/1999/xlink">
    <title>Group 2</title>
    <defs>
        <polygon id="path-1" points="0.40586015 0.043580785 75.6042059 0.043580785 75.6042059 99.600144 0.40586015 99.600144"></polygon>
    </defs>
    <g id="Page-1" stroke="none" stroke-width="1" fill="none" fill-rule="evenodd">
        <g id="Banner-2-care-mobile" transform="translate(-120.000000, -141.000000)">
            <g id="Group-2" transform="translate(120.000000, 141.000000)">
                <g id="Group" transform="translate(22.000000, 99.000000)">
                    <g id="Group-3" transform="translate(0.000000, 0.336469)">
                        <mask id="mask-2" fill="white">
                            <use xlink:href="#path-1"></use>
                        </mask>
                        <g id="Clip-2"></g>
                        <path d="M44.8518759,23.5952741 C44.105282,22.4020253 43.3802433,21.2400236 42.6767597,20.1190338 C36.0475542,9.59071269 21.4703565,-5.76723893 7.90821304,2.30037274 C-5.65197088,10.3660315 2.85841622,35.4515971 5.14522759,41.628759 C9.98535103,54.707625 16.6459096,66.4741126 22.7283967,75.7037259 C30.8115988,88.4388737 39.6864648,100.502209 41.2874288,99.5472192 C41.7969154,99.240607 38.1050966,94.3504352 34.5582855,89.2200513 C26.3594691,77.3539636 15.5857854,59.904409 10.4674038,47.7883444 C13.559596,53.102305 23.0105739,56.764075 29.2361092,52.0379505 C37.0606489,46.1029537 37.7269007,33.6959005 30.5470577,21.1716706 C29.7122833,19.7167273 28.877509,18.6758082 27.731164,17.427877 C26.3829838,15.963169 25.6128751,16.7443466 26.8709153,18.7793142 C26.8709153,18.7793142 27.8506974,20.4217401 28.0780068,20.8142819 C34.4015203,31.7488153 34.6229511,43.2536084 28.0094221,48.3722746 C21.2606831,53.5983528 13.0403115,50.2334303 7.8553048,39.1270377 C5.14718715,33.3209352 2.93679879,23.6226153 2.86233535,17.1310295 C3.10336174,11.9576808 4.87284817,7.29405055 9.50329825,4.53844656 C13.0363924,2.43317293 16.8653808,1.91368983 20.888366,2.99952669 C27.7664361,4.84896466 34.9149261,11.4440565 40.0097929,20.6424228 C43.0902278,26.1965955 53.6542381,42.3005717 61.3847187,52.3152686 C63.1267712,54.5728718 71.6508752,64.1422974 74.2590551,65.5230288 C74.7979353,65.8101116 75.2094437,65.7847233 75.4759445,65.4566288 C75.9971885,64.8102043 75.109506,64.0505091 69.4365678,57.914359 C62.0744852,49.9522063 50.1270226,32.0573805 44.8518759,23.5952741" id="Fill-1" fill="#37444A" mask="url(#mask-2)"></path>
                    </g>
                    <path d="M87.6579669,11.3157251 C85.7767853,5.82209362 81.8909696,1.76582893 75.1481094,0.412438737 C64.1627928,-1.79634093 53.1617996,5.3240929 48.1198411,10.8938892 C46.5698258,12.608574 44.7650672,15.0712364 45.0844762,15.9656848 C45.1863735,16.2488616 45.4156425,16.4422031 45.6997793,16.4871208 C46.2210234,16.5652386 46.6325319,16.1160614 46.9401835,15.711802 C55.7895752,4.06053813 69.0499457,-0.653868687 77.2487621,3.36724301 C81.4520272,5.42955187 84.1699427,9.07765127 85.21635,13.690505 C87.3757897,23.1876717 80.436973,44.0822195 67.5959492,57.040003 C67.0276755,59.4479829 69.0029162,59.5378183 70.1002721,59.0691118 C85.6063032,40.648944 90.9676708,20.9906097 87.6579669,11.3157251" id="Fill-4" fill="#37444A"></path>
                </g>
                <g id="Group-10-Copy-3" transform="translate(60.000000, 61.000000)" stroke="#2C4349" stroke-width="1.484">
                    <line x1="0" y1="0" x2="14.5722852" y2="14.5722852" id="Path-3"></line>
                    <line x1="2.57083836e-12" y1="0" x2="14.5722852" y2="14.5722852" id="Path-3" transform="translate(7.286143, 7.286143) scale(-1, 1) translate(-7.286143, -7.286143) "></line>
                </g>
                <g id="Group-10-Copy-2" transform="translate(60.000000, 218.000000)" stroke="#2C4349" stroke-width="1.484">
                    <line x1="0" y1="0" x2="14.5722852" y2="14.5722852" id="Path-3"></line>
                    <line x1="2.57083836e-12" y1="0" x2="14.5722852" y2="14.5722852" id="Path-3" transform="translate(7.286143, 7.286143) scale(-1, 1) translate(-7.286143, -7.286143) "></line>
                </g>
                <path d="M11.098,10.498 L11.098,2.896 L11.126,2.896 L13.632,10.498 L15.298,10.498 L17.902,2.896 L17.93,2.896 L17.93,10.498 L20.114,10.498 L20.114,0.586 L16.824,0.586 L14.528,7.054 L14.5,7.054 L12.218,0.586 L8.914,0.586 L8.914,10.498 L11.098,10.498 Z M26.946,10.75 C27.7206667,10.75 28.4346667,10.6286667 29.088,10.386 C29.7413333,10.1433333 30.306,9.79566667 30.782,9.343 C31.258,8.89033333 31.629,8.342 31.895,7.698 C32.161,7.054 32.294,6.33533333 32.294,5.542 C32.294,4.74866667 32.161,4.03 31.895,3.386 C31.629,2.742 31.258,2.19366667 30.782,1.741 C30.306,1.28833333 29.7413333,0.940666667 29.088,0.698 C28.4346667,0.455333333 27.7206667,0.334 26.946,0.334 C26.1713333,0.334 25.4573333,0.455333333 24.804,0.698 C24.1506667,0.940666667 23.586,1.28833333 23.11,1.741 C22.634,2.19366667 22.263,2.742 21.997,3.386 C21.731,4.03 21.598,4.74866667 21.598,5.542 C21.598,6.33533333 21.731,7.054 21.997,7.698 C22.263,8.342 22.634,8.89033333 23.11,9.343 C23.586,9.79566667 24.1506667,10.1433333 24.804,10.386 C25.4573333,10.6286667 26.1713333,10.75 26.946,10.75 Z M26.946,8.734 C26.4793333,8.734 26.057,8.65466667 25.679,8.496 C25.301,8.33733333 24.9766667,8.11566667 24.706,7.831 C24.4353333,7.54633333 24.2276667,7.21033333 24.083,6.823 C23.9383333,6.43566667 23.866,6.00866667 23.866,5.542 C23.866,5.08466667 23.9383333,4.66 24.083,4.268 C24.2276667,3.876 24.4353333,3.53766667 24.706,3.253 C24.9766667,2.96833333 25.301,2.74666667 25.679,2.588 C26.057,2.42933333 26.4793333,2.35 26.946,2.35 C27.4126667,2.35 27.835,2.42933333 28.213,2.588 C28.591,2.74666667 28.9153333,2.96833333 29.186,3.253 C29.4566667,3.53766667 29.6643333,3.876 29.809,4.268 C29.9536667,4.66 30.026,5.08466667 30.026,5.542 C30.026,6.00866667 29.9536667,6.43566667 29.809,6.823 C29.6643333,7.21033333 29.4566667,7.54633333 29.186,7.831 C28.9153333,8.11566667 28.591,8.33733333 28.213,8.496 C27.835,8.65466667 27.4126667,8.734 26.946,8.734 Z M38.51,10.498 L42.598,0.586 L40.26,0.586 L37.768,7.082 L37.74,7.082 L35.29,0.586 L32.798,0.586 L36.76,10.498 L38.51,10.498 Z M50.704,10.498 L50.704,8.482 L45.902,8.482 L45.902,6.466 L50.2,6.466 L50.2,4.45 L45.902,4.45 L45.902,2.602 L50.452,2.602 L50.452,0.586 L43.718,0.586 L43.718,10.498 L50.704,10.498 Z M54.638,10.498 L54.638,2.896 L54.666,2.896 L57.172,10.498 L58.838,10.498 L61.442,2.896 L61.47,2.896 L61.47,10.498 L63.654,10.498 L63.654,0.586 L60.364,0.586 L58.068,7.054 L58.04,7.054 L55.758,0.586 L52.454,0.586 L52.454,10.498 L54.638,10.498 Z M72.74,10.498 L72.74,8.482 L67.938,8.482 L67.938,6.466 L72.236,6.466 L72.236,4.45 L67.938,4.45 L67.938,2.602 L72.488,2.602 L72.488,0.586 L65.754,0.586 L65.754,10.498 L72.74,10.498 Z M76.674,10.498 L76.674,3.442 L76.702,3.442 L81.028,10.498 L83.884,10.498 L83.884,0.586 L81.7,0.586 L81.7,7.474 L81.672,7.474 L77.458,0.586 L74.49,0.586 L74.49,10.498 L76.674,10.498 Z M90.002,10.498 L90.002,2.518 L92.83,2.518 L92.83,0.586 L84.99,0.586 L84.99,2.518 L87.818,2.518 L87.818,10.498 L90.002,10.498 Z M100.348,10.498 L100.348,6.634 L104.478,6.634 L104.478,4.618 L100.348,4.618 L100.348,2.602 L104.814,2.602 L104.814,0.586 L98.164,0.586 L98.164,10.498 L100.348,10.498 Z M111.198,10.75 C111.972667,10.75 112.686667,10.6286667 113.34,10.386 C113.993333,10.1433333 114.558,9.79566667 115.034,9.343 C115.51,8.89033333 115.881,8.342 116.147,7.698 C116.413,7.054 116.546,6.33533333 116.546,5.542 C116.546,4.74866667 116.413,4.03 116.147,3.386 C115.881,2.742 115.51,2.19366667 115.034,1.741 C114.558,1.28833333 113.993333,0.940666667 113.34,0.698 C112.686667,0.455333333 111.972667,0.334 111.198,0.334 C110.423333,0.334 109.709333,0.455333333 109.056,0.698 C108.402667,0.940666667 107.838,1.28833333 107.362,1.741 C106.886,2.19366667 106.515,2.742 106.249,3.386 C105.983,4.03 105.85,4.74866667 105.85,5.542 C105.85,6.33533333 105.983,7.054 106.249,7.698 C106.515,8.342 106.886,8.89033333 107.362,9.343 C107.838,9.79566667 108.402667,10.1433333 109.056,10.386 C109.709333,10.6286667 110.423333,10.75 111.198,10.75 Z M111.198,8.734 C110.731333,8.734 110.309,8.65466667 109.931,8.496 C109.553,8.33733333 109.228667,8.11566667 108.958,7.831 C108.687333,7.54633333 108.479667,7.21033333 108.335,6.823 C108.190333,6.43566667 108.118,6.00866667 108.118,5.542 C108.118,5.08466667 108.190333,4.66 108.335,4.268 C108.479667,3.876 108.687333,3.53766667 108.958,3.253 C109.228667,2.96833333 109.553,2.74666667 109.931,2.588 C110.309,2.42933333 110.731333,2.35 111.198,2.35 C111.664667,2.35 112.087,2.42933333 112.465,2.588 C112.843,2.74666667 113.167333,2.96833333 113.438,3.253 C113.708667,3.53766667 113.916333,3.876 114.061,4.268 C114.205667,4.66 114.278,5.08466667 114.278,5.542 C114.278,6.00866667 114.205667,6.43566667 114.061,6.823 C113.916333,7.21033333 113.708667,7.54633333 113.438,7.831 C113.167333,8.11566667 112.843,8.33733333 112.465,8.496 C112.087,8.65466667 111.664667,8.734 111.198,8.734 Z M120.214,10.498 L120.214,6.536 L121.292,6.536 L123.364,10.498 L125.982,10.498 L123.462,6.312 C124.162,6.18133333 124.694,5.871 125.058,5.381 C125.422,4.891 125.604,4.296 125.604,3.596 C125.604,3.01733333 125.503667,2.53433333 125.303,2.147 C125.102333,1.75966667 124.831667,1.45166667 124.491,1.223 C124.150333,0.994333333 123.753667,0.831 123.301,0.733 C122.848333,0.635 122.37,0.586 121.866,0.586 L121.866,0.586 L118.03,0.586 L118.03,10.498 L120.214,10.498 Z M121.502,4.688 L120.214,4.688 L120.214,2.434 L121.642,2.434 C121.838,2.434 122.038667,2.448 122.244,2.476 C122.449333,2.504 122.631333,2.55766667 122.79,2.637 C122.948667,2.71633333 123.079333,2.83066667 123.182,2.98 C123.284667,3.12933333 123.336,3.33 123.336,3.582 C123.336,3.85266667 123.277667,4.06266667 123.161,4.212 C123.044333,4.36133333 122.897333,4.471 122.72,4.541 C122.542667,4.611 122.344333,4.653 122.125,4.667 C121.905667,4.681 121.698,4.688 121.502,4.688 L121.502,4.688 Z M5.05,30.996 C5.48866667,30.996 5.92966667,30.9493333 6.373,30.856 C6.81633333,30.7626667 7.21533333,30.6086667 7.57,30.394 C7.92466667,30.1793333 8.214,29.897 8.438,29.547 C8.662,29.197 8.774,28.7606667 8.774,28.238 C8.774,27.9206667 8.72266667,27.622 8.62,27.342 C8.51733333,27.062 8.37033333,26.817 8.179,26.607 C7.98766667,26.397 7.759,26.2243333 7.493,26.089 C7.227,25.9536667 6.93066667,25.8626667 6.604,25.816 L6.604,25.816 L6.604,25.788 C7.11733333,25.6293333 7.53033333,25.3656667 7.843,24.997 C8.15566667,24.6283333 8.312,24.164 8.312,23.604 C8.312,23.0626667 8.20466667,22.6286667 7.99,22.302 C7.77533333,21.9753333 7.49533333,21.721 7.15,21.539 C6.80466667,21.357 6.415,21.2356667 5.981,21.175 C5.547,21.1143333 5.11533333,21.084 4.686,21.084 L4.686,21.084 L0.99,21.084 L0.99,30.996 L5.05,30.996 Z M4.756,25.046 L3.174,25.046 L3.174,22.932 L4.658,22.932 C4.826,22.932 4.99866667,22.9483333 5.176,22.981 C5.35333333,23.0136667 5.512,23.0673333 5.652,23.142 C5.792,23.2166667 5.90633333,23.3216667 5.995,23.457 C6.08366667,23.5923333 6.128,23.7626667 6.128,23.968 C6.128,24.164 6.08833333,24.332 6.009,24.472 C5.92966667,24.612 5.82466667,24.724 5.694,24.808 C5.56333333,24.892 5.41633333,24.9526667 5.253,24.99 C5.08966667,25.0273333 4.924,25.046 4.756,25.046 L4.756,25.046 Z M5.134,29.148 L3.174,29.148 L3.174,26.894 L4.826,26.894 C5.00333333,26.894 5.19466667,26.908 5.4,26.936 C5.60533333,26.964 5.79666667,27.0153333 5.974,27.09 C6.15133333,27.1646667 6.29833333,27.2743333 6.415,27.419 C6.53166667,27.5636667 6.59,27.7526667 6.59,27.986 C6.59,28.2006667 6.54566667,28.3826667 6.457,28.532 C6.36833333,28.6813333 6.254,28.8026667 6.114,28.896 C5.974,28.9893333 5.81766667,29.0546667 5.645,29.092 C5.47233333,29.1293333 5.302,29.148 5.134,29.148 L5.134,29.148 Z M16.376,30.996 L16.376,28.98 L12.33,28.98 L12.33,21.084 L10.146,21.084 L10.146,30.996 L16.376,30.996 Z M18.966,30.996 L19.792,28.896 L23.642,28.896 L24.496,30.996 L26.96,30.996 L22.648,21.084 L20.842,21.084 L16.558,30.996 L18.966,30.996 Z M22.9,27.048 L20.478,27.048 L21.682,23.968 L22.9,27.048 Z M32.77,31.248 C33.4513333,31.248 34.114,31.108 34.758,30.828 C35.402,30.548 35.934,30.114 36.354,29.526 L36.354,29.526 L34.534,28.168 C34.31,28.504 34.0253333,28.7653333 33.68,28.952 C33.3346667,29.1386667 32.938,29.232 32.49,29.232 C32.098,29.232 31.7316667,29.1526667 31.391,28.994 C31.0503333,28.8353333 30.754,28.6136667 30.502,28.329 C30.25,28.0443333 30.0516667,27.7083333 29.907,27.321 C29.7623333,26.9336667 29.69,26.5066667 29.69,26.04 C29.69,25.5826667 29.7623333,25.158 29.907,24.766 C30.0516667,24.374 30.2523333,24.0356667 30.509,23.751 C30.7656667,23.4663333 31.069,23.2446667 31.419,23.086 C31.769,22.9273333 32.1493333,22.848 32.56,22.848 C32.9706667,22.848 33.3323333,22.918 33.645,23.058 C33.9576667,23.198 34.2213333,23.3986667 34.436,23.66 L34.436,23.66 L36.116,22.288 C35.9013333,22.0173333 35.6586667,21.7886667 35.388,21.602 C35.1173333,21.4153333 34.835,21.266 34.541,21.154 C34.247,21.042 33.9483333,20.9603333 33.645,20.909 C33.3416667,20.8576667 33.05,20.832 32.77,20.832 C31.9953333,20.832 31.2813333,20.9533333 30.628,21.196 C29.9746667,21.4386667 29.41,21.7863333 28.934,22.239 C28.458,22.6916667 28.087,23.24 27.821,23.884 C27.555,24.528 27.422,25.2466667 27.422,26.04 C27.422,26.8333333 27.555,27.552 27.821,28.196 C28.087,28.84 28.458,29.3883333 28.934,29.841 C29.41,30.2936667 29.9746667,30.6413333 30.628,30.884 C31.2813333,31.1266667 31.9953333,31.248 32.77,31.248 Z M39.812,30.996 L39.812,26.292 L43.844,30.996 L46.896,30.996 L42.108,25.69 L46.518,21.084 L43.662,21.084 L39.812,25.2 L39.812,21.084 L37.628,21.084 L37.628,30.996 L39.812,30.996 Z M58.11,30.996 L58.11,28.98 L54.064,28.98 L54.064,21.084 L51.88,21.084 L51.88,30.996 L58.11,30.996 Z M61.47,30.996 L61.47,21.084 L59.286,21.084 L59.286,30.996 L61.47,30.996 Z M68.19,30.996 L72.278,21.084 L69.94,21.084 L67.448,27.58 L67.42,27.58 L64.97,21.084 L62.478,21.084 L66.44,30.996 L68.19,30.996 Z M80.384,30.996 L80.384,28.98 L75.582,28.98 L75.582,26.964 L79.88,26.964 L79.88,24.948 L75.582,24.948 L75.582,23.1 L80.132,23.1 L80.132,21.084 L73.398,21.084 L73.398,30.996 L80.384,30.996 Z M84.724,31.248 C85.2373333,31.248 85.725,31.1826667 86.187,31.052 C86.649,30.9213333 87.055,30.7206667 87.405,30.45 C87.755,30.1793333 88.0326667,29.8386667 88.238,29.428 C88.4433333,29.0173333 88.546,28.5366667 88.546,27.986 C88.546,27.4073333 88.434,26.9453333 88.21,26.6 C87.986,26.2546667 87.7036667,25.9793333 87.363,25.774 C87.0223333,25.5686667 86.656,25.41 86.264,25.298 C85.872,25.186 85.5056667,25.074 85.165,24.962 C84.8243333,24.85 84.542,24.7146667 84.318,24.556 C84.094,24.3973333 83.982,24.1686667 83.982,23.87 C83.982,23.6833333 84.0286667,23.5246667 84.122,23.394 C84.2153333,23.2633333 84.3366667,23.1583333 84.486,23.079 C84.6353333,22.9996667 84.794,22.9413333 84.962,22.904 C85.13,22.8666667 85.2933333,22.848 85.452,22.848 C85.7226667,22.848 86.0096667,22.9016667 86.313,23.009 C86.6163333,23.1163333 86.8566667,23.282 87.034,23.506 L87.034,23.506 L88.532,21.868 C88.112,21.4946667 87.6406667,21.2286667 87.118,21.07 C86.5953333,20.9113333 86.054,20.832 85.494,20.832 C85.0086667,20.832 84.5373333,20.8996667 84.08,21.035 C83.6226667,21.1703333 83.219,21.3733333 82.869,21.644 C82.519,21.9146667 82.239,22.2506667 82.029,22.652 C81.819,23.0533333 81.714,23.52 81.714,24.052 C81.714,24.6026667 81.8283333,25.046 82.057,25.382 C82.2856667,25.718 82.5726667,25.9886667 82.918,26.194 C83.2633333,26.3993333 83.6366667,26.5626667 84.038,26.684 C84.4393333,26.8053333 84.8126667,26.9266667 85.158,27.048 C85.5033333,27.1693333 85.7903333,27.3163333 86.019,27.489 C86.2476667,27.6616667 86.362,27.8973333 86.362,28.196 C86.362,28.3733333 86.3176667,28.5273333 86.229,28.658 C86.1403333,28.7886667 86.0236667,28.896 85.879,28.98 C85.7343333,29.064 85.571,29.127 85.389,29.169 C85.207,29.211 85.0273333,29.232 84.85,29.232 C84.486,29.232 84.1336667,29.1503333 83.793,28.987 C83.4523333,28.8236667 83.17,28.5926667 82.946,28.294 L82.946,28.294 L81.392,30.002 C81.868,30.4406667 82.3813333,30.758 82.932,30.954 C83.4826667,31.15 84.08,31.248 84.724,31.248 Z M96.582,30.996 L96.582,27.132 L100.712,27.132 L100.712,25.116 L96.582,25.116 L96.582,23.1 L101.048,23.1 L101.048,21.084 L94.398,21.084 L94.398,30.996 L96.582,30.996 Z M106.802,31.248 C107.483333,31.248 108.085333,31.1453333 108.608,30.94 C109.130667,30.7346667 109.567,30.45 109.917,30.086 C110.267,29.722 110.530667,29.2926667 110.708,28.798 C110.885333,28.3033333 110.974,27.762 110.974,27.174 L110.974,27.174 L110.974,21.084 L108.79,21.084 L108.79,27.09 C108.79,27.398 108.741,27.6826667 108.643,27.944 C108.545,28.2053333 108.407333,28.4316667 108.23,28.623 C108.052667,28.8143333 107.842667,28.9636667 107.6,29.071 C107.357333,29.1783333 107.091333,29.232 106.802,29.232 C106.512667,29.232 106.244333,29.1783333 105.997,29.071 C105.749667,28.9636667 105.537333,28.8143333 105.36,28.623 C105.182667,28.4316667 105.045,28.2053333 104.947,27.944 C104.849,27.6826667 104.8,27.398 104.8,27.09 L104.8,27.09 L104.8,21.084 L102.616,21.084 L102.616,27.174 C102.616,27.762 102.704667,28.3033333 102.882,28.798 C103.059333,29.2926667 103.323,29.722 103.673,30.086 C104.023,30.45 104.459333,30.7346667 104.982,30.94 C105.504667,31.1453333 106.111333,31.248 106.802,31.248 Z M115.174,30.996 L115.174,23.94 L115.202,23.94 L119.528,30.996 L122.384,30.996 L122.384,21.084 L120.2,21.084 L120.2,27.972 L120.172,27.972 L115.958,21.084 L112.99,21.084 L112.99,30.996 L115.174,30.996 Z M127.97,30.996 C128.707333,30.996 129.412,30.8886667 130.084,30.674 C130.756,30.4593333 131.348667,30.1443333 131.862,29.729 C132.375333,29.3136667 132.783667,28.8003333 133.087,28.189 C133.390333,27.5776667 133.542,26.8706667 133.542,26.068 C133.542,25.1626667 133.385667,24.3926667 133.073,23.758 C132.760333,23.1233333 132.338,22.6076667 131.806,22.211 C131.274,21.8143333 130.651,21.5273333 129.937,21.35 C129.223,21.1726667 128.469333,21.084 127.676,21.084 L127.676,21.084 L124.4,21.084 L124.4,30.996 L127.97,30.996 Z M127.718,28.98 L126.584,28.98 L126.584,23.1 L127.872,23.1 C128.329333,23.1 128.765667,23.1583333 129.181,23.275 C129.596333,23.3916667 129.958,23.5666667 130.266,23.8 C130.574,24.0333333 130.819,24.3296667 131.001,24.689 C131.183,25.0483333 131.274,25.4706667 131.274,25.956 C131.274,26.516 131.183,26.9896667 131.001,27.377 C130.819,27.7643333 130.569333,28.077 130.252,28.315 C129.934667,28.553 129.559,28.7233333 129.125,28.826 C128.691,28.9286667 128.222,28.98 127.718,28.98 L127.718,28.98 Z" id="MOVEMENTFORBLACKLIVESFUND" fill="#2C4349" fill-rule="nonzero"></path>
                <path d="M20.695,274.498 L20.695,270.634 L22.291,270.634 C22.8136667,270.634 23.299,270.585 23.747,270.487 C24.195,270.389 24.5823333,270.223333 24.909,269.99 C25.2356667,269.756667 25.4923333,269.444 25.679,269.052 C25.8656667,268.66 25.959,268.174667 25.959,267.596 C25.959,267.008 25.8586667,266.520333 25.658,266.133 C25.4573333,265.745667 25.1866667,265.437667 24.846,265.209 C24.5053333,264.980333 24.1063333,264.819333 23.649,264.726 C23.1916667,264.632667 22.7063333,264.586 22.193,264.586 L22.193,264.586 L18.511,264.586 L18.511,274.498 L20.695,274.498 Z M22.151,268.786 L20.695,268.786 L20.695,266.434 L21.815,266.434 C22.0203333,266.434 22.235,266.445667 22.459,266.469 C22.683,266.492333 22.886,266.546 23.068,266.63 C23.25,266.714 23.3993333,266.833 23.516,266.987 C23.6326667,267.141 23.691,267.344 23.691,267.596 C23.691,267.829333 23.6466667,268.023 23.558,268.177 C23.4693333,268.331 23.3526667,268.452333 23.208,268.541 C23.0633333,268.629667 22.9,268.692667 22.718,268.73 C22.536,268.767333 22.347,268.786 22.151,268.786 L22.151,268.786 Z M31.391,274.498 C31.8296667,274.498 32.2706667,274.451333 32.714,274.358 C33.1573333,274.264667 33.5563333,274.110667 33.911,273.896 C34.2656667,273.681333 34.555,273.399 34.779,273.049 C35.003,272.699 35.115,272.262667 35.115,271.74 C35.115,271.422667 35.0636667,271.124 34.961,270.844 C34.8583333,270.564 34.7113333,270.319 34.52,270.109 C34.3286667,269.899 34.1,269.726333 33.834,269.591 C33.568,269.455667 33.2716667,269.364667 32.945,269.318 L32.945,269.318 L32.945,269.29 C33.4583333,269.131333 33.8713333,268.867667 34.184,268.499 C34.4966667,268.130333 34.653,267.666 34.653,267.106 C34.653,266.564667 34.5456667,266.130667 34.331,265.804 C34.1163333,265.477333 33.8363333,265.223 33.491,265.041 C33.1456667,264.859 32.756,264.737667 32.322,264.677 C31.888,264.616333 31.4563333,264.586 31.027,264.586 L31.027,264.586 L27.331,264.586 L27.331,274.498 L31.391,274.498 Z M31.097,268.548 L29.515,268.548 L29.515,266.434 L30.999,266.434 C31.167,266.434 31.3396667,266.450333 31.517,266.483 C31.6943333,266.515667 31.853,266.569333 31.993,266.644 C32.133,266.718667 32.2473333,266.823667 32.336,266.959 C32.4246667,267.094333 32.469,267.264667 32.469,267.47 C32.469,267.666 32.4293333,267.834 32.35,267.974 C32.2706667,268.114 32.1656667,268.226 32.035,268.31 C31.9043333,268.394 31.7573333,268.454667 31.594,268.492 C31.4306667,268.529333 31.265,268.548 31.097,268.548 L31.097,268.548 Z M31.475,272.65 L29.515,272.65 L29.515,270.396 L31.167,270.396 C31.3443333,270.396 31.5356667,270.41 31.741,270.438 C31.9463333,270.466 32.1376667,270.517333 32.315,270.592 C32.4923333,270.666667 32.6393333,270.776333 32.756,270.921 C32.8726667,271.065667 32.931,271.254667 32.931,271.488 C32.931,271.702667 32.8866667,271.884667 32.798,272.034 C32.7093333,272.183333 32.595,272.304667 32.455,272.398 C32.315,272.491333 32.1586667,272.556667 31.986,272.594 C31.8133333,272.631333 31.643,272.65 31.475,272.65 L31.475,272.65 Z M37.789,274.498 L38.615,272.398 L42.465,272.398 L43.319,274.498 L45.783,274.498 L41.471,264.586 L39.665,264.586 L35.381,274.498 L37.789,274.498 Z M41.723,270.55 L39.301,270.55 L40.505,267.47 L41.723,270.55 Z M55.737,274.75 C56.4183333,274.75 57.081,274.61 57.725,274.33 C58.369,274.05 58.901,273.616 59.321,273.028 L59.321,273.028 L57.501,271.67 C57.277,272.006 56.9923333,272.267333 56.647,272.454 C56.3016667,272.640667 55.905,272.734 55.457,272.734 C55.065,272.734 54.6986667,272.654667 54.358,272.496 C54.0173333,272.337333 53.721,272.115667 53.469,271.831 C53.217,271.546333 53.0186667,271.210333 52.874,270.823 C52.7293333,270.435667 52.657,270.008667 52.657,269.542 C52.657,269.084667 52.7293333,268.66 52.874,268.268 C53.0186667,267.876 53.2193333,267.537667 53.476,267.253 C53.7326667,266.968333 54.036,266.746667 54.386,266.588 C54.736,266.429333 55.1163333,266.35 55.527,266.35 C55.9376667,266.35 56.2993333,266.42 56.612,266.56 C56.9246667,266.7 57.1883333,266.900667 57.403,267.162 L57.403,267.162 L59.083,265.79 C58.8683333,265.519333 58.6256667,265.290667 58.355,265.104 C58.0843333,264.917333 57.802,264.768 57.508,264.656 C57.214,264.544 56.9153333,264.462333 56.612,264.411 C56.3086667,264.359667 56.017,264.334 55.737,264.334 C54.9623333,264.334 54.2483333,264.455333 53.595,264.698 C52.9416667,264.940667 52.377,265.288333 51.901,265.741 C51.425,266.193667 51.054,266.742 50.788,267.386 C50.522,268.03 50.389,268.748667 50.389,269.542 C50.389,270.335333 50.522,271.054 50.788,271.698 C51.054,272.342 51.425,272.890333 51.901,273.343 C52.377,273.795667 52.9416667,274.143333 53.595,274.386 C54.2483333,274.628667 54.9623333,274.75 55.737,274.75 Z M65.327,274.75 C66.1016667,274.75 66.8156667,274.628667 67.469,274.386 C68.1223333,274.143333 68.687,273.795667 69.163,273.343 C69.639,272.890333 70.01,272.342 70.276,271.698 C70.542,271.054 70.675,270.335333 70.675,269.542 C70.675,268.748667 70.542,268.03 70.276,267.386 C70.01,266.742 69.639,266.193667 69.163,265.741 C68.687,265.288333 68.1223333,264.940667 67.469,264.698 C66.8156667,264.455333 66.1016667,264.334 65.327,264.334 C64.5523333,264.334 63.8383333,264.455333 63.185,264.698 C62.5316667,264.940667 61.967,265.288333 61.491,265.741 C61.015,266.193667 60.644,266.742 60.378,267.386 C60.112,268.03 59.979,268.748667 59.979,269.542 C59.979,270.335333 60.112,271.054 60.378,271.698 C60.644,272.342 61.015,272.890333 61.491,273.343 C61.967,273.795667 62.5316667,274.143333 63.185,274.386 C63.8383333,274.628667 64.5523333,274.75 65.327,274.75 Z M65.327,272.734 C64.8603333,272.734 64.438,272.654667 64.06,272.496 C63.682,272.337333 63.3576667,272.115667 63.087,271.831 C62.8163333,271.546333 62.6086667,271.210333 62.464,270.823 C62.3193333,270.435667 62.247,270.008667 62.247,269.542 C62.247,269.084667 62.3193333,268.66 62.464,268.268 C62.6086667,267.876 62.8163333,267.537667 63.087,267.253 C63.3576667,266.968333 63.682,266.746667 64.06,266.588 C64.438,266.429333 64.8603333,266.35 65.327,266.35 C65.7936667,266.35 66.216,266.429333 66.594,266.588 C66.972,266.746667 67.2963333,266.968333 67.567,267.253 C67.8376667,267.537667 68.0453333,267.876 68.19,268.268 C68.3346667,268.66 68.407,269.084667 68.407,269.542 C68.407,270.008667 68.3346667,270.435667 68.19,270.823 C68.0453333,271.210333 67.8376667,271.546333 67.567,271.831 C67.2963333,272.115667 66.972,272.337333 66.594,272.496 C66.216,272.654667 65.7936667,272.734 65.327,272.734 Z M76.891,274.498 L80.979,264.586 L78.641,264.586 L76.149,271.082 L76.121,271.082 L73.671,264.586 L71.179,264.586 L75.141,274.498 L76.891,274.498 Z M84.171,274.498 L84.171,264.586 L81.987,264.586 L81.987,274.498 L84.171,274.498 Z M89.729,274.498 C90.4663333,274.498 91.171,274.390667 91.843,274.176 C92.515,273.961333 93.1076667,273.646333 93.621,273.231 C94.1343333,272.815667 94.5426667,272.302333 94.846,271.691 C95.1493333,271.079667 95.301,270.372667 95.301,269.57 C95.301,268.664667 95.1446667,267.894667 94.832,267.26 C94.5193333,266.625333 94.097,266.109667 93.565,265.713 C93.033,265.316333 92.41,265.029333 91.696,264.852 C90.982,264.674667 90.2283333,264.586 89.435,264.586 L89.435,264.586 L86.159,264.586 L86.159,274.498 L89.729,274.498 Z M89.477,272.482 L88.343,272.482 L88.343,266.602 L89.631,266.602 C90.0883333,266.602 90.5246667,266.660333 90.94,266.777 C91.3553333,266.893667 91.717,267.068667 92.025,267.302 C92.333,267.535333 92.578,267.831667 92.76,268.191 C92.942,268.550333 93.033,268.972667 93.033,269.458 C93.033,270.018 92.942,270.491667 92.76,270.879 C92.578,271.266333 92.3283333,271.579 92.011,271.817 C91.6936667,272.055 91.318,272.225333 90.884,272.328 C90.45,272.430667 89.981,272.482 89.477,272.482 L89.477,272.482 Z M99.571,271.852 L99.571,270.172 L96.127,270.172 L96.127,271.852 L99.571,271.852 Z M105.969,274.498 L105.969,264.586 L104.009,264.586 L100.775,267.316 L101.965,268.688 L103.953,266.938 L103.953,274.498 L105.969,274.498 Z M112.717,274.498 L114.887,271.11 C115.045667,270.858 115.197333,270.613 115.342,270.375 C115.486667,270.137 115.612667,269.887333 115.72,269.626 C115.827333,269.364667 115.913667,269.087 115.979,268.793 C116.044333,268.499 116.077,268.174667 116.077,267.82 C116.077,267.306667 115.981333,266.842333 115.79,266.427 C115.598667,266.011667 115.337333,265.654667 115.006,265.356 C114.674667,265.057333 114.282667,264.826333 113.83,264.663 C113.377333,264.499667 112.894333,264.418 112.381,264.418 C111.858333,264.418 111.373,264.499667 110.925,264.663 C110.477,264.826333 110.087333,265.057333 109.756,265.356 C109.424667,265.654667 109.163333,266.011667 108.972,266.427 C108.780667,266.842333 108.685,267.306667 108.685,267.82 C108.685,268.268 108.759667,268.690333 108.909,269.087 C109.058333,269.483667 109.268333,269.826667 109.539,270.116 C109.809667,270.405333 110.136333,270.634 110.519,270.802 C110.901667,270.97 111.326333,271.054 111.793,271.054 C111.914333,271.054 112.031,271.044667 112.143,271.026 C112.255,271.007333 112.367,270.984 112.479,270.956 L112.479,270.956 L110.155,274.498 L112.717,274.498 Z M112.381,269.458 C111.905,269.458 111.52,269.311 111.226,269.017 C110.932,268.723 110.785,268.352 110.785,267.904 C110.785,267.456 110.932,267.085 111.226,266.791 C111.52,266.497 111.905,266.35 112.381,266.35 C112.857,266.35 113.242,266.497 113.536,266.791 C113.83,267.085 113.977,267.456 113.977,267.904 C113.977,268.352 113.83,268.723 113.536,269.017 C113.242,269.311 112.857,269.458 112.381,269.458 Z M24.426,294.996 L24.426,291.034 L25.504,291.034 L27.576,294.996 L30.194,294.996 L27.674,290.81 C28.374,290.679333 28.906,290.369 29.27,289.879 C29.634,289.389 29.816,288.794 29.816,288.094 C29.816,287.515333 29.7156667,287.032333 29.515,286.645 C29.3143333,286.257667 29.0436667,285.949667 28.703,285.721 C28.3623333,285.492333 27.9656667,285.329 27.513,285.231 C27.0603333,285.133 26.582,285.084 26.078,285.084 L26.078,285.084 L22.242,285.084 L22.242,294.996 L24.426,294.996 Z M25.714,289.186 L24.426,289.186 L24.426,286.932 L25.854,286.932 C26.05,286.932 26.2506667,286.946 26.456,286.974 C26.6613333,287.002 26.8433333,287.055667 27.002,287.135 C27.1606667,287.214333 27.2913333,287.328667 27.394,287.478 C27.4966667,287.627333 27.548,287.828 27.548,288.08 C27.548,288.350667 27.4896667,288.560667 27.373,288.71 C27.2563333,288.859333 27.1093333,288.969 26.932,289.039 C26.7546667,289.109 26.5563333,289.151 26.337,289.165 C26.1176667,289.179 25.91,289.186 25.714,289.186 L25.714,289.186 Z M38.384,294.996 L38.384,292.98 L33.582,292.98 L33.582,290.964 L37.88,290.964 L37.88,288.948 L33.582,288.948 L33.582,287.1 L38.132,287.1 L38.132,285.084 L31.398,285.084 L31.398,294.996 L38.384,294.996 Z M46.448,294.996 L46.448,292.98 L42.402,292.98 L42.402,285.084 L40.218,285.084 L40.218,294.996 L46.448,294.996 Z M49.808,294.996 L49.808,285.084 L47.624,285.084 L47.624,294.996 L49.808,294.996 Z M58.866,294.996 L58.866,292.98 L54.064,292.98 L54.064,290.964 L58.362,290.964 L58.362,288.948 L54.064,288.948 L54.064,287.1 L58.614,287.1 L58.614,285.084 L51.88,285.084 L51.88,294.996 L58.866,294.996 Z M62.884,294.996 L62.884,291.132 L67.014,291.132 L67.014,289.116 L62.884,289.116 L62.884,287.1 L67.35,287.1 L67.35,285.084 L60.7,285.084 L60.7,294.996 L62.884,294.996 Z M75.33,294.996 L75.33,291.132 L79.46,291.132 L79.46,289.116 L75.33,289.116 L75.33,287.1 L79.796,287.1 L79.796,285.084 L73.146,285.084 L73.146,294.996 L75.33,294.996 Z M85.55,295.248 C86.2313333,295.248 86.8333333,295.145333 87.356,294.94 C87.8786667,294.734667 88.315,294.45 88.665,294.086 C89.015,293.722 89.2786667,293.292667 89.456,292.798 C89.6333333,292.303333 89.722,291.762 89.722,291.174 L89.722,291.174 L89.722,285.084 L87.538,285.084 L87.538,291.09 C87.538,291.398 87.489,291.682667 87.391,291.944 C87.293,292.205333 87.1553333,292.431667 86.978,292.623 C86.8006667,292.814333 86.5906667,292.963667 86.348,293.071 C86.1053333,293.178333 85.8393333,293.232 85.55,293.232 C85.2606667,293.232 84.9923333,293.178333 84.745,293.071 C84.4976667,292.963667 84.2853333,292.814333 84.108,292.623 C83.9306667,292.431667 83.793,292.205333 83.695,291.944 C83.597,291.682667 83.548,291.398 83.548,291.09 L83.548,291.09 L83.548,285.084 L81.364,285.084 L81.364,291.174 C81.364,291.762 81.4526667,292.303333 81.63,292.798 C81.8073333,293.292667 82.071,293.722 82.421,294.086 C82.771,294.45 83.2073333,294.734667 83.73,294.94 C84.2526667,295.145333 84.8593333,295.248 85.55,295.248 Z M93.922,294.996 L93.922,287.94 L93.95,287.94 L98.276,294.996 L101.132,294.996 L101.132,285.084 L98.948,285.084 L98.948,291.972 L98.92,291.972 L94.706,285.084 L91.738,285.084 L91.738,294.996 L93.922,294.996 Z M106.718,294.996 C107.455333,294.996 108.16,294.888667 108.832,294.674 C109.504,294.459333 110.096667,294.144333 110.61,293.729 C111.123333,293.313667 111.531667,292.800333 111.835,292.189 C112.138333,291.577667 112.29,290.870667 112.29,290.068 C112.29,289.162667 112.133667,288.392667 111.821,287.758 C111.508333,287.123333 111.086,286.607667 110.554,286.211 C110.022,285.814333 109.399,285.527333 108.685,285.35 C107.971,285.172667 107.217333,285.084 106.424,285.084 L106.424,285.084 L103.148,285.084 L103.148,294.996 L106.718,294.996 Z M106.466,292.98 L105.332,292.98 L105.332,287.1 L106.62,287.1 C107.077333,287.1 107.513667,287.158333 107.929,287.275 C108.344333,287.391667 108.706,287.566667 109.014,287.8 C109.322,288.033333 109.567,288.329667 109.749,288.689 C109.931,289.048333 110.022,289.470667 110.022,289.956 C110.022,290.516 109.931,290.989667 109.749,291.377 C109.567,291.764333 109.317333,292.077 109,292.315 C108.682667,292.553 108.307,292.723333 107.873,292.826 C107.439,292.928667 106.97,292.98 106.466,292.98 L106.466,292.98 Z" id="PBACOVID-19RELIEFFUND" fill="#2C4349" fill-rule="nonzero"></path>
            </g>
        </g>
    </g>
</svg>