<?xml version="1.0" encoding="UTF-8"?>
<svg width="691px" height="144px" viewBox="0 0 691 144" version="1.1" xmlns="http://www.w3.org/2000/svg" xmlns:xlink="http://www.w3.org/1999/xlink">
    <title>Group 2</title>
    <defs>
        <polygon id="path-1" points="0.579800214 0.0622582643 108.006008 0.0622582643 108.006008 142.28592 0.579800214 142.28592"></polygon>
    </defs>
    <g id="Page-1" stroke="none" stroke-width="1" fill="none" fill-rule="evenodd">
        <g id="Banner_2" transform="translate(-350.000000, -264.000000)">
            <g id="Group-2" transform="translate(350.000000, 264.000000)">
                <g id="Group" transform="translate(309.000000, 0.000000)">
                    <g id="Group-3" transform="translate(0.000000, 0.480670)">
                        <mask id="mask-2" fill="white">
                            <use xlink:href="#path-1"></use>
                        </mask>
                        <g id="Clip-2"></g>
                        <path d="M64.0741085,33.7075344 C63.0075457,32.0028933 61.9717761,30.3428909 60.9667996,28.7414768 C51.496506,13.7010181 30.6719379,-8.23891275 11.2974472,3.28624677 C-8.07424411,14.8086164 4.08345175,50.6451388 7.35032512,59.4696557 C14.2647872,78.15375 23.7798708,94.963018 32.4691381,108.14818 C44.0165697,126.341248 56.6949498,143.574584 58.9820411,142.210313 C59.7098792,141.772296 54.4358523,134.786336 49.3689792,127.457216 C37.6563844,110.505662 22.2654077,85.5777271 14.953434,68.2690634 C19.3708515,75.8604357 32.8722485,81.0915357 41.7658703,74.3399293 C52.9437841,65.8613624 53.8955724,48.1370007 43.6386538,30.2452437 C42.446119,28.1667533 41.2535843,26.679726 39.6159485,24.8969671 C37.6899769,22.8045271 36.5898216,23.9204951 38.3870219,26.8275917 C38.3870219,26.8275917 39.7867105,29.1739144 40.1114383,29.7346884 C49.145029,45.3554504 49.4613587,61.7908692 40.0134601,69.1032495 C30.3724045,76.5690754 18.6290165,71.7620432 11.221864,55.8957682 C7.3531245,47.601336 4.19542684,33.7465933 4.0890505,24.4728992 C4.43337392,17.0824012 6.96121167,10.4200722 13.5761404,6.48349509 C18.6234177,3.47596133 24.0934011,2.73384261 29.8405228,4.28503813 C39.6663373,6.92709237 49.8784659,16.3486522 57.156847,29.4891754 C61.5574682,37.4237079 76.6489116,60.4293882 87.6924552,74.736098 C90.1811017,77.9612455 102.358393,91.6318535 106.084364,93.6043269 C106.854193,94.0144452 107.442062,93.9781762 107.822778,93.5094696 C108.567412,92.5860061 107.299294,91.5007272 99.1950968,82.7347986 C88.6778361,71.3602948 71.6100323,45.7962578 64.0741085,33.7075344" id="Fill-1" fill="#37444A" mask="url(#mask-2)"></path>
                    </g>
                    <path d="M125.225667,16.1653216 C122.538265,8.3172766 116.987099,2.52261276 107.354442,0.589198196 C91.6611325,-2.56620132 75.945428,7.605847 68.7426301,15.5626988 C66.5283226,18.0122486 63.9500961,21.5303377 64.4063946,22.8081211 C64.5519622,23.2126595 64.8794894,23.4888616 65.2853991,23.5530297 C66.0300334,23.6646265 66.6179027,23.0229449 67.0574049,22.4454315 C79.6993931,5.80076876 98.6427796,-0.934098124 110.355374,4.81034716 C116.360039,7.75650268 120.242775,12.9680732 121.737643,19.5578643 C124.822557,33.1252452 114.909961,62.9745993 96.5656416,81.4857185 C95.7538222,84.9256899 98.5755946,85.0540262 100.143246,84.3844454 C122.294719,58.06992 129.953815,29.9865852 125.225667,16.1653216" id="Fill-4" fill="#37444A"></path>
                </g>
                <g id="Group-5" transform="translate(224.000000, 56.000000)" stroke="#2C4349" stroke-width="2.12">
                    <g id="Group-10-Copy-2" transform="translate(0.540000, 0.660000)">
                        <line x1="0" y1="0" x2="20.8175503" y2="20.8175503" id="Path-3"></line>
                        <line x1="3.67262622e-12" y1="0" x2="20.8175503" y2="20.8175503" id="Path-3" transform="translate(10.408775, 10.408775) scale(-1, 1) translate(-10.408775, -10.408775) "></line>
                    </g>
                    <g id="Group-10-Copy-3" transform="translate(262.360000, 0.660000)">
                        <line x1="0" y1="0" x2="20.8175503" y2="20.8175503" id="Path-3"></line>
                        <line x1="3.67262622e-12" y1="0" x2="20.8175503" y2="20.8175503" id="Path-3" transform="translate(10.408775, 10.408775) scale(-1, 1) translate(-10.408775, -10.408775) "></line>
                    </g>
                </g>
                <path d="M14.133,63.498 L14.133,53.181 L14.171,53.181 L17.572,63.498 L19.833,63.498 L23.367,53.181 L23.405,53.181 L23.405,63.498 L26.369,63.498 L26.369,50.046 L21.904,50.046 L18.788,58.824 L18.75,58.824 L15.653,50.046 L11.169,50.046 L11.169,63.498 L14.133,63.498 Z M35.641,63.84 C36.6923333,63.84 37.6613333,63.6753333 38.548,63.346 C39.4346667,63.0166667 40.201,62.5448333 40.847,61.9305 C41.493,61.3161667 41.9965,60.572 42.3575,59.698 C42.7185,58.824 42.899,57.8486667 42.899,56.772 C42.899,55.6953333 42.7185,54.72 42.3575,53.846 C41.9965,52.972 41.493,52.2278333 40.847,51.6135 C40.201,50.9991667 39.4346667,50.5273333 38.548,50.198 C37.6613333,49.8686667 36.6923333,49.704 35.641,49.704 C34.5896667,49.704 33.6206667,49.8686667 32.734,50.198 C31.8473333,50.5273333 31.081,50.9991667 30.435,51.6135 C29.789,52.2278333 29.2855,52.972 28.9245,53.846 C28.5635,54.72 28.383,55.6953333 28.383,56.772 C28.383,57.8486667 28.5635,58.824 28.9245,59.698 C29.2855,60.572 29.789,61.3161667 30.435,61.9305 C31.081,62.5448333 31.8473333,63.0166667 32.734,63.346 C33.6206667,63.6753333 34.5896667,63.84 35.641,63.84 Z M35.641,61.104 C35.0076667,61.104 34.4345,60.9963333 33.9215,60.781 C33.4085,60.5656667 32.9683333,60.2648333 32.601,59.8785 C32.2336667,59.4921667 31.9518333,59.0361667 31.7555,58.5105 C31.5591667,57.9848333 31.461,57.4053333 31.461,56.772 C31.461,56.1513333 31.5591667,55.575 31.7555,55.043 C31.9518333,54.511 32.2336667,54.0518333 32.601,53.6655 C32.9683333,53.2791667 33.4085,52.9783333 33.9215,52.763 C34.4345,52.5476667 35.0076667,52.44 35.641,52.44 C36.2743333,52.44 36.8475,52.5476667 37.3605,52.763 C37.8735,52.9783333 38.3136667,53.2791667 38.681,53.6655 C39.0483333,54.0518333 39.3301667,54.511 39.5265,55.043 C39.7228333,55.575 39.821,56.1513333 39.821,56.772 C39.821,57.4053333 39.7228333,57.9848333 39.5265,58.5105 C39.3301667,59.0361667 39.0483333,59.4921667 38.681,59.8785 C38.3136667,60.2648333 37.8735,60.5656667 37.3605,60.781 C36.8475,60.9963333 36.2743333,61.104 35.641,61.104 Z M51.335,63.498 L56.883,50.046 L53.71,50.046 L50.328,58.862 L50.29,58.862 L46.965,50.046 L43.583,50.046 L48.96,63.498 L51.335,63.498 Z M67.884,63.498 L67.884,60.762 L61.367,60.762 L61.367,58.026 L67.2,58.026 L67.2,55.29 L61.367,55.29 L61.367,52.782 L67.542,52.782 L67.542,50.046 L58.403,50.046 L58.403,63.498 L67.884,63.498 Z M73.223,63.498 L73.223,53.181 L73.261,53.181 L76.662,63.498 L78.923,63.498 L82.457,53.181 L82.495,53.181 L82.495,63.498 L85.459,63.498 L85.459,50.046 L80.994,50.046 L77.878,58.824 L77.84,58.824 L74.743,50.046 L70.259,50.046 L70.259,63.498 L73.223,63.498 Z M97.79,63.498 L97.79,60.762 L91.273,60.762 L91.273,58.026 L97.106,58.026 L97.106,55.29 L91.273,55.29 L91.273,52.782 L97.448,52.782 L97.448,50.046 L88.309,50.046 L88.309,63.498 L97.79,63.498 Z M103.129,63.498 L103.129,53.922 L103.167,53.922 L109.038,63.498 L112.914,63.498 L112.914,50.046 L109.95,50.046 L109.95,59.394 L109.912,59.394 L104.193,50.046 L100.165,50.046 L100.165,63.498 L103.129,63.498 Z M121.217,63.498 L121.217,52.668 L125.055,52.668 L125.055,50.046 L114.415,50.046 L114.415,52.668 L118.253,52.668 L118.253,63.498 L121.217,63.498 Z M135.258,63.498 L135.258,58.254 L140.863,58.254 L140.863,55.518 L135.258,55.518 L135.258,52.782 L141.319,52.782 L141.319,50.046 L132.294,50.046 L132.294,63.498 L135.258,63.498 Z M149.983,63.84 C151.034333,63.84 152.003333,63.6753333 152.89,63.346 C153.776667,63.0166667 154.543,62.5448333 155.189,61.9305 C155.835,61.3161667 156.3385,60.572 156.6995,59.698 C157.0605,58.824 157.241,57.8486667 157.241,56.772 C157.241,55.6953333 157.0605,54.72 156.6995,53.846 C156.3385,52.972 155.835,52.2278333 155.189,51.6135 C154.543,50.9991667 153.776667,50.5273333 152.89,50.198 C152.003333,49.8686667 151.034333,49.704 149.983,49.704 C148.931667,49.704 147.962667,49.8686667 147.076,50.198 C146.189333,50.5273333 145.423,50.9991667 144.777,51.6135 C144.131,52.2278333 143.6275,52.972 143.2665,53.846 C142.9055,54.72 142.725,55.6953333 142.725,56.772 C142.725,57.8486667 142.9055,58.824 143.2665,59.698 C143.6275,60.572 144.131,61.3161667 144.777,61.9305 C145.423,62.5448333 146.189333,63.0166667 147.076,63.346 C147.962667,63.6753333 148.931667,63.84 149.983,63.84 Z M149.983,61.104 C149.349667,61.104 148.7765,60.9963333 148.2635,60.781 C147.7505,60.5656667 147.310333,60.2648333 146.943,59.8785 C146.575667,59.4921667 146.293833,59.0361667 146.0975,58.5105 C145.901167,57.9848333 145.803,57.4053333 145.803,56.772 C145.803,56.1513333 145.901167,55.575 146.0975,55.043 C146.293833,54.511 146.575667,54.0518333 146.943,53.6655 C147.310333,53.2791667 147.7505,52.9783333 148.2635,52.763 C148.7765,52.5476667 149.349667,52.44 149.983,52.44 C150.616333,52.44 151.1895,52.5476667 151.7025,52.763 C152.2155,52.9783333 152.655667,53.2791667 153.023,53.6655 C153.390333,54.0518333 153.672167,54.511 153.8685,55.043 C154.064833,55.575 154.163,56.1513333 154.163,56.772 C154.163,57.4053333 154.064833,57.9848333 153.8685,58.5105 C153.672167,59.0361667 153.390333,59.4921667 153.023,59.8785 C152.655667,60.2648333 152.2155,60.5656667 151.7025,60.781 C151.1895,60.9963333 150.616333,61.104 149.983,61.104 Z M162.219,63.498 L162.219,58.121 L163.682,58.121 L166.494,63.498 L170.047,63.498 L166.627,57.817 C167.577,57.6396667 168.299,57.2185 168.793,56.5535 C169.287,55.8885 169.534,55.081 169.534,54.131 C169.534,53.3456667 169.397833,52.6901667 169.1255,52.1645 C168.853167,51.6388333 168.485833,51.2208333 168.0235,50.9105 C167.561167,50.6001667 167.022833,50.3785 166.4085,50.2455 C165.794167,50.1125 165.145,50.046 164.461,50.046 L164.461,50.046 L159.255,50.046 L159.255,63.498 L162.219,63.498 Z M163.967,55.613 L162.219,55.613 L162.219,52.554 L164.157,52.554 C164.423,52.554 164.695333,52.573 164.974,52.611 C165.252667,52.649 165.499667,52.7218333 165.715,52.8295 C165.930333,52.9371667 166.107667,53.0923333 166.247,53.295 C166.386333,53.4976667 166.456,53.77 166.456,54.112 C166.456,54.4793333 166.376833,54.7643333 166.2185,54.967 C166.060167,55.1696667 165.860667,55.3185 165.62,55.4135 C165.379333,55.5085 165.110167,55.5655 164.8125,55.5845 C164.514833,55.6035 164.233,55.613 163.967,55.613 L163.967,55.613 Z M5.925,89.996 C6.52033333,89.996 7.11883333,89.9326667 7.7205,89.806 C8.32216667,89.6793333 8.86366667,89.4703333 9.345,89.179 C9.82633333,88.8876667 10.219,88.5045 10.523,88.0295 C10.827,87.5545 10.979,86.9623333 10.979,86.253 C10.979,85.8223333 10.9093333,85.417 10.77,85.037 C10.6306667,84.657 10.4311667,84.3245 10.1715,84.0395 C9.91183333,83.7545 9.6015,83.5201667 9.2405,83.3365 C8.8795,83.1528333 8.47733333,83.0293333 8.034,82.966 L8.034,82.966 L8.034,82.928 C8.73066667,82.7126667 9.29116667,82.3548333 9.7155,81.8545 C10.1398333,81.3541667 10.352,80.724 10.352,79.964 C10.352,79.2293333 10.2063333,78.6403333 9.915,78.197 C9.62366667,77.7536667 9.24366667,77.4085 8.775,77.1615 C8.30633333,76.9145 7.7775,76.7498333 7.1885,76.6675 C6.5995,76.5851667 6.01366667,76.544 5.431,76.544 L5.431,76.544 L0.415,76.544 L0.415,89.996 L5.925,89.996 Z M5.526,81.921 L3.379,81.921 L3.379,79.052 L5.393,79.052 C5.621,79.052 5.85533333,79.0741667 6.096,79.1185 C6.33666667,79.1628333 6.552,79.2356667 6.742,79.337 C6.932,79.4383333 7.08716667,79.5808333 7.2075,79.7645 C7.32783333,79.9481667 7.388,80.1793333 7.388,80.458 C7.388,80.724 7.33416667,80.952 7.2265,81.142 C7.11883333,81.332 6.97633333,81.484 6.799,81.598 C6.62166667,81.712 6.42216667,81.7943333 6.2005,81.845 C5.97883333,81.8956667 5.754,81.921 5.526,81.921 L5.526,81.921 Z M6.039,87.488 L3.379,87.488 L3.379,84.429 L5.621,84.429 C5.86166667,84.429 6.12133333,84.448 6.4,84.486 C6.67866667,84.524 6.93833333,84.5936667 7.179,84.695 C7.41966667,84.7963333 7.61916667,84.9451667 7.7775,85.1415 C7.93583333,85.3378333 8.015,85.5943333 8.015,85.911 C8.015,86.2023333 7.95483333,86.4493333 7.8345,86.652 C7.71416667,86.8546667 7.559,87.0193333 7.369,87.146 C7.179,87.2726667 6.96683333,87.3613333 6.7325,87.412 C6.49816667,87.4626667 6.267,87.488 6.039,87.488 L6.039,87.488 Z M21.296,89.996 L21.296,87.26 L15.805,87.26 L15.805,76.544 L12.841,76.544 L12.841,89.996 L21.296,89.996 Z M24.811,89.996 L25.932,87.146 L31.157,87.146 L32.316,89.996 L35.66,89.996 L29.808,76.544 L27.357,76.544 L21.543,89.996 L24.811,89.996 Z M30.15,84.638 L26.863,84.638 L28.497,80.458 L30.15,84.638 Z M43.545,90.338 C44.4696667,90.338 45.369,90.148 46.243,89.768 C47.117,89.388 47.839,88.799 48.409,88.001 L48.409,88.001 L45.939,86.158 C45.635,86.614 45.2486667,86.9686667 44.78,87.222 C44.3113333,87.4753333 43.773,87.602 43.165,87.602 C42.633,87.602 42.1358333,87.4943333 41.6735,87.279 C41.2111667,87.0636667 40.809,86.7628333 40.467,86.3765 C40.125,85.9901667 39.8558333,85.5341667 39.6595,85.0085 C39.4631667,84.4828333 39.365,83.9033333 39.365,83.27 C39.365,82.6493333 39.4631667,82.073 39.6595,81.541 C39.8558333,81.009 40.1281667,80.5498333 40.4765,80.1635 C40.8248333,79.7771667 41.2365,79.4763333 41.7115,79.261 C42.1865,79.0456667 42.7026667,78.938 43.26,78.938 C43.8173333,78.938 44.3081667,79.033 44.7325,79.223 C45.1568333,79.413 45.5146667,79.6853333 45.806,80.04 L45.806,80.04 L48.086,78.178 C47.7946667,77.8106667 47.4653333,77.5003333 47.098,77.247 C46.7306667,76.9936667 46.3475,76.791 45.9485,76.639 C45.5495,76.487 45.1441667,76.3761667 44.7325,76.3065 C44.3208333,76.2368333 43.925,76.202 43.545,76.202 C42.4936667,76.202 41.5246667,76.3666667 40.638,76.696 C39.7513333,77.0253333 38.985,77.4971667 38.339,78.1115 C37.693,78.7258333 37.1895,79.47 36.8285,80.344 C36.4675,81.218 36.287,82.1933333 36.287,83.27 C36.287,84.3466667 36.4675,85.322 36.8285,86.196 C37.1895,87.07 37.693,87.8141667 38.339,88.4285 C38.985,89.0428333 39.7513333,89.5146667 40.638,89.844 C41.5246667,90.1733333 42.4936667,90.338 43.545,90.338 Z M53.102,89.996 L53.102,83.612 L58.574,89.996 L62.716,89.996 L56.218,82.795 L62.203,76.544 L58.327,76.544 L53.102,82.13 L53.102,76.544 L50.138,76.544 L50.138,89.996 L53.102,89.996 Z M77.935,89.996 L77.935,87.26 L72.444,87.26 L72.444,76.544 L69.48,76.544 L69.48,89.996 L77.935,89.996 Z M82.495,89.996 L82.495,76.544 L79.531,76.544 L79.531,89.996 L82.495,89.996 Z M91.615,89.996 L97.163,76.544 L93.99,76.544 L90.608,85.36 L90.57,85.36 L87.245,76.544 L83.863,76.544 L89.24,89.996 L91.615,89.996 Z M108.164,89.996 L108.164,87.26 L101.647,87.26 L101.647,84.524 L107.48,84.524 L107.48,81.788 L101.647,81.788 L101.647,79.28 L107.822,79.28 L107.822,76.544 L98.683,76.544 L98.683,89.996 L108.164,89.996 Z M114.054,90.338 C114.750667,90.338 115.4125,90.2493333 116.0395,90.072 C116.6665,89.8946667 117.2175,89.6223333 117.6925,89.255 C118.1675,88.8876667 118.544333,88.4253333 118.823,87.868 C119.101667,87.3106667 119.241,86.6583333 119.241,85.911 C119.241,85.1256667 119.089,84.4986667 118.785,84.03 C118.481,83.5613333 118.097833,83.1876667 117.6355,82.909 C117.173167,82.6303333 116.676,82.415 116.144,82.263 C115.612,82.111 115.114833,81.959 114.6525,81.807 C114.190167,81.655 113.807,81.4713333 113.503,81.256 C113.199,81.0406667 113.047,80.7303333 113.047,80.325 C113.047,80.0716667 113.110333,79.8563333 113.237,79.679 C113.363667,79.5016667 113.528333,79.3591667 113.731,79.2515 C113.933667,79.1438333 114.149,79.0646667 114.377,79.014 C114.605,78.9633333 114.826667,78.938 115.042,78.938 C115.409333,78.938 115.798833,79.0108333 116.2105,79.1565 C116.622167,79.3021667 116.948333,79.527 117.189,79.831 L117.189,79.831 L119.222,77.608 C118.652,77.1013333 118.012333,76.7403333 117.303,76.525 C116.593667,76.3096667 115.859,76.202 115.099,76.202 C114.440333,76.202 113.800667,76.2938333 113.18,76.4775 C112.559333,76.6611667 112.0115,76.9366667 111.5365,77.304 C111.0615,77.6713333 110.6815,78.1273333 110.3965,78.672 C110.1115,79.2166667 109.969,79.85 109.969,80.572 C109.969,81.3193333 110.124167,81.921 110.4345,82.377 C110.744833,82.833 111.134333,83.2003333 111.603,83.479 C112.071667,83.7576667 112.578333,83.9793333 113.123,84.144 C113.667667,84.3086667 114.174333,84.4733333 114.643,84.638 C115.111667,84.8026667 115.501167,85.0021667 115.8115,85.2365 C116.121833,85.4708333 116.277,85.7906667 116.277,86.196 C116.277,86.4366667 116.216833,86.6456667 116.0965,86.823 C115.976167,87.0003333 115.817833,87.146 115.6215,87.26 C115.425167,87.374 115.2035,87.4595 114.9565,87.5165 C114.7095,87.5735 114.465667,87.602 114.225,87.602 C113.731,87.602 113.252833,87.4911667 112.7905,87.2695 C112.328167,87.0478333 111.945,86.7343333 111.641,86.329 L111.641,86.329 L109.532,88.647 C110.178,89.2423333 110.874667,89.673 111.622,89.939 C112.369333,90.205 113.18,90.338 114.054,90.338 Z M130.147,89.996 L130.147,84.752 L135.752,84.752 L135.752,82.016 L130.147,82.016 L130.147,79.28 L136.208,79.28 L136.208,76.544 L127.183,76.544 L127.183,89.996 L130.147,89.996 Z M144.017,90.338 C144.941667,90.338 145.758667,90.1986667 146.468,89.92 C147.177333,89.6413333 147.7695,89.255 148.2445,88.761 C148.7195,88.267 149.077333,87.6843333 149.318,87.013 C149.558667,86.3416667 149.679,85.607 149.679,84.809 L149.679,84.809 L149.679,76.544 L146.715,76.544 L146.715,84.695 C146.715,85.113 146.6485,85.4993333 146.5155,85.854 C146.3825,86.2086667 146.195667,86.5158333 145.955,86.7755 C145.714333,87.0351667 145.429333,87.2378333 145.1,87.3835 C144.770667,87.5291667 144.409667,87.602 144.017,87.602 C143.624333,87.602 143.260167,87.5291667 142.9245,87.3835 C142.588833,87.2378333 142.300667,87.0351667 142.06,86.7755 C141.819333,86.5158333 141.6325,86.2086667 141.4995,85.854 C141.3665,85.4993333 141.3,85.113 141.3,84.695 L141.3,84.695 L141.3,76.544 L138.336,76.544 L138.336,84.809 C138.336,85.607 138.456333,86.3416667 138.697,87.013 C138.937667,87.6843333 139.2955,88.267 139.7705,88.761 C140.2455,89.255 140.837667,89.6413333 141.547,89.92 C142.256333,90.1986667 143.079667,90.338 144.017,90.338 Z M155.379,89.996 L155.379,80.42 L155.417,80.42 L161.288,89.996 L165.164,89.996 L165.164,76.544 L162.2,76.544 L162.2,85.892 L162.162,85.892 L156.443,76.544 L152.415,76.544 L152.415,89.996 L155.379,89.996 Z M172.745,89.996 C173.745667,89.996 174.702,89.8503333 175.614,89.559 C176.526,89.2676667 177.330333,88.8401667 178.027,88.2765 C178.723667,87.7128333 179.277833,87.0161667 179.6895,86.1865 C180.101167,85.3568333 180.307,84.3973333 180.307,83.308 C180.307,82.0793333 180.094833,81.0343333 179.6705,80.173 C179.246167,79.3116667 178.673,78.6118333 177.951,78.0735 C177.229,77.5351667 176.3835,77.1456667 175.4145,76.905 C174.4455,76.6643333 173.422667,76.544 172.346,76.544 L172.346,76.544 L167.9,76.544 L167.9,89.996 L172.745,89.996 Z M172.403,87.26 L170.864,87.26 L170.864,79.28 L172.612,79.28 C173.232667,79.28 173.824833,79.3591667 174.3885,79.5175 C174.952167,79.6758333 175.443,79.9133333 175.861,80.23 C176.279,80.5466667 176.6115,80.9488333 176.8585,81.4365 C177.1055,81.9241667 177.229,82.4973333 177.229,83.156 C177.229,83.916 177.1055,84.5588333 176.8585,85.0845 C176.6115,85.6101667 176.272667,86.0345 175.842,86.3575 C175.411333,86.6805 174.9015,86.9116667 174.3125,87.051 C173.7235,87.1903333 173.087,87.26 172.403,87.26 L172.403,87.26 Z" id="MOVEMENTFORBLACKLIVESFUND" fill="#2C4349" fill-rule="nonzero"></path>
                <path d="M561.1575,63.498 L561.1575,58.254 L563.3235,58.254 C564.032833,58.254 564.6915,58.1875 565.2995,58.0545 C565.9075,57.9215 566.433167,57.6966667 566.8765,57.38 C567.319833,57.0633333 567.668167,56.639 567.9215,56.107 C568.174833,55.575 568.3015,54.9163333 568.3015,54.131 C568.3015,53.333 568.165333,52.6711667 567.893,52.1455 C567.620667,51.6198333 567.253333,51.2018333 566.791,50.8915 C566.328667,50.5811667 565.787167,50.3626667 565.1665,50.236 C564.545833,50.1093333 563.887167,50.046 563.1905,50.046 L563.1905,50.046 L558.1935,50.046 L558.1935,63.498 L561.1575,63.498 Z M563.1335,55.746 L561.1575,55.746 L561.1575,52.554 L562.6775,52.554 C562.956167,52.554 563.2475,52.5698333 563.5515,52.6015 C563.8555,52.6331667 564.131,52.706 564.378,52.82 C564.625,52.934 564.827667,53.0955 564.986,53.3045 C565.144333,53.5135 565.2235,53.789 565.2235,54.131 C565.2235,54.4476667 565.163333,54.7105 565.043,54.9195 C564.922667,55.1285 564.764333,55.2931667 564.568,55.4135 C564.371667,55.5338333 564.15,55.6193333 563.903,55.67 C563.656,55.7206667 563.3995,55.746 563.1335,55.746 L563.1335,55.746 Z M575.6735,63.498 C576.268833,63.498 576.867333,63.4346667 577.469,63.308 C578.070667,63.1813333 578.612167,62.9723333 579.0935,62.681 C579.574833,62.3896667 579.9675,62.0065 580.2715,61.5315 C580.5755,61.0565 580.7275,60.4643333 580.7275,59.755 C580.7275,59.3243333 580.657833,58.919 580.5185,58.539 C580.379167,58.159 580.179667,57.8265 579.92,57.5415 C579.660333,57.2565 579.35,57.0221667 578.989,56.8385 C578.628,56.6548333 578.225833,56.5313333 577.7825,56.468 L577.7825,56.468 L577.7825,56.43 C578.479167,56.2146667 579.039667,55.8568333 579.464,55.3565 C579.888333,54.8561667 580.1005,54.226 580.1005,53.466 C580.1005,52.7313333 579.954833,52.1423333 579.6635,51.699 C579.372167,51.2556667 578.992167,50.9105 578.5235,50.6635 C578.054833,50.4165 577.526,50.2518333 576.937,50.1695 C576.348,50.0871667 575.762167,50.046 575.1795,50.046 L575.1795,50.046 L570.1635,50.046 L570.1635,63.498 L575.6735,63.498 Z M575.2745,55.423 L573.1275,55.423 L573.1275,52.554 L575.1415,52.554 C575.3695,52.554 575.603833,52.5761667 575.8445,52.6205 C576.085167,52.6648333 576.3005,52.7376667 576.4905,52.839 C576.6805,52.9403333 576.835667,53.0828333 576.956,53.2665 C577.076333,53.4501667 577.1365,53.6813333 577.1365,53.96 C577.1365,54.226 577.082667,54.454 576.975,54.644 C576.867333,54.834 576.724833,54.986 576.5475,55.1 C576.370167,55.214 576.170667,55.2963333 575.949,55.347 C575.727333,55.3976667 575.5025,55.423 575.2745,55.423 L575.2745,55.423 Z M575.7875,60.99 L573.1275,60.99 L573.1275,57.931 L575.3695,57.931 C575.610167,57.931 575.869833,57.95 576.1485,57.988 C576.427167,58.026 576.686833,58.0956667 576.9275,58.197 C577.168167,58.2983333 577.367667,58.4471667 577.526,58.6435 C577.684333,58.8398333 577.7635,59.0963333 577.7635,59.413 C577.7635,59.7043333 577.703333,59.9513333 577.583,60.154 C577.462667,60.3566667 577.3075,60.5213333 577.1175,60.648 C576.9275,60.7746667 576.715333,60.8633333 576.481,60.914 C576.246667,60.9646667 576.0155,60.99 575.7875,60.99 L575.7875,60.99 Z M584.3565,63.498 L585.4775,60.648 L590.7025,60.648 L591.8615,63.498 L595.2055,63.498 L589.3535,50.046 L586.9025,50.046 L581.0885,63.498 L584.3565,63.498 Z M589.6955,58.14 L586.4085,58.14 L588.0425,53.96 L589.6955,58.14 Z M608.7145,63.84 C609.639167,63.84 610.5385,63.65 611.4125,63.27 C612.2865,62.89 613.0085,62.301 613.5785,61.503 L613.5785,61.503 L611.1085,59.66 C610.8045,60.116 610.418167,60.4706667 609.9495,60.724 C609.480833,60.9773333 608.9425,61.104 608.3345,61.104 C607.8025,61.104 607.305333,60.9963333 606.843,60.781 C606.380667,60.5656667 605.9785,60.2648333 605.6365,59.8785 C605.2945,59.4921667 605.025333,59.0361667 604.829,58.5105 C604.632667,57.9848333 604.5345,57.4053333 604.5345,56.772 C604.5345,56.1513333 604.632667,55.575 604.829,55.043 C605.025333,54.511 605.297667,54.0518333 605.646,53.6655 C605.994333,53.2791667 606.406,52.9783333 606.881,52.763 C607.356,52.5476667 607.872167,52.44 608.4295,52.44 C608.986833,52.44 609.477667,52.535 609.902,52.725 C610.326333,52.915 610.684167,53.1873333 610.9755,53.542 L610.9755,53.542 L613.2555,51.68 C612.964167,51.3126667 612.634833,51.0023333 612.2675,50.749 C611.900167,50.4956667 611.517,50.293 611.118,50.141 C610.719,49.989 610.313667,49.8781667 609.902,49.8085 C609.490333,49.7388333 609.0945,49.704 608.7145,49.704 C607.663167,49.704 606.694167,49.8686667 605.8075,50.198 C604.920833,50.5273333 604.1545,50.9991667 603.5085,51.6135 C602.8625,52.2278333 602.359,52.972 601.998,53.846 C601.637,54.72 601.4565,55.6953333 601.4565,56.772 C601.4565,57.8486667 601.637,58.824 601.998,59.698 C602.359,60.572 602.8625,61.3161667 603.5085,61.9305 C604.1545,62.5448333 604.920833,63.0166667 605.8075,63.346 C606.694167,63.6753333 607.663167,63.84 608.7145,63.84 Z M621.7295,63.84 C622.780833,63.84 623.749833,63.6753333 624.6365,63.346 C625.523167,63.0166667 626.2895,62.5448333 626.9355,61.9305 C627.5815,61.3161667 628.085,60.572 628.446,59.698 C628.807,58.824 628.9875,57.8486667 628.9875,56.772 C628.9875,55.6953333 628.807,54.72 628.446,53.846 C628.085,52.972 627.5815,52.2278333 626.9355,51.6135 C626.2895,50.9991667 625.523167,50.5273333 624.6365,50.198 C623.749833,49.8686667 622.780833,49.704 621.7295,49.704 C620.678167,49.704 619.709167,49.8686667 618.8225,50.198 C617.935833,50.5273333 617.1695,50.9991667 616.5235,51.6135 C615.8775,52.2278333 615.374,52.972 615.013,53.846 C614.652,54.72 614.4715,55.6953333 614.4715,56.772 C614.4715,57.8486667 614.652,58.824 615.013,59.698 C615.374,60.572 615.8775,61.3161667 616.5235,61.9305 C617.1695,62.5448333 617.935833,63.0166667 618.8225,63.346 C619.709167,63.6753333 620.678167,63.84 621.7295,63.84 Z M621.7295,61.104 C621.096167,61.104 620.523,60.9963333 620.01,60.781 C619.497,60.5656667 619.056833,60.2648333 618.6895,59.8785 C618.322167,59.4921667 618.040333,59.0361667 617.844,58.5105 C617.647667,57.9848333 617.5495,57.4053333 617.5495,56.772 C617.5495,56.1513333 617.647667,55.575 617.844,55.043 C618.040333,54.511 618.322167,54.0518333 618.6895,53.6655 C619.056833,53.2791667 619.497,52.9783333 620.01,52.763 C620.523,52.5476667 621.096167,52.44 621.7295,52.44 C622.362833,52.44 622.936,52.5476667 623.449,52.763 C623.962,52.9783333 624.402167,53.2791667 624.7695,53.6655 C625.136833,54.0518333 625.418667,54.511 625.615,55.043 C625.811333,55.575 625.9095,56.1513333 625.9095,56.772 C625.9095,57.4053333 625.811333,57.9848333 625.615,58.5105 C625.418667,59.0361667 625.136833,59.4921667 624.7695,59.8785 C624.402167,60.2648333 623.962,60.5656667 623.449,60.781 C622.936,60.9963333 622.362833,61.104 621.7295,61.104 Z M637.4235,63.498 L642.9715,50.046 L639.7985,50.046 L636.4165,58.862 L636.3785,58.862 L633.0535,50.046 L629.6715,50.046 L635.0485,63.498 L637.4235,63.498 Z M647.3035,63.498 L647.3035,50.046 L644.3395,50.046 L644.3395,63.498 L647.3035,63.498 Z M654.8465,63.498 C655.847167,63.498 656.8035,63.3523333 657.7155,63.061 C658.6275,62.7696667 659.431833,62.3421667 660.1285,61.7785 C660.825167,61.2148333 661.379333,60.5181667 661.791,59.6885 C662.202667,58.8588333 662.4085,57.8993333 662.4085,56.81 C662.4085,55.5813333 662.196333,54.5363333 661.772,53.675 C661.347667,52.8136667 660.7745,52.1138333 660.0525,51.5755 C659.3305,51.0371667 658.485,50.6476667 657.516,50.407 C656.547,50.1663333 655.524167,50.046 654.4475,50.046 L654.4475,50.046 L650.0015,50.046 L650.0015,63.498 L654.8465,63.498 Z M654.5045,60.762 L652.9655,60.762 L652.9655,52.782 L654.7135,52.782 C655.334167,52.782 655.926333,52.8611667 656.49,53.0195 C657.053667,53.1778333 657.5445,53.4153333 657.9625,53.732 C658.3805,54.0486667 658.713,54.4508333 658.96,54.9385 C659.207,55.4261667 659.3305,55.9993333 659.3305,56.658 C659.3305,57.418 659.207,58.0608333 658.96,58.5865 C658.713,59.1121667 658.374167,59.5365 657.9435,59.8595 C657.512833,60.1825 657.003,60.4136667 656.414,60.553 C655.825,60.6923333 655.1885,60.762 654.5045,60.762 L654.5045,60.762 Z M668.2035,59.907 L668.2035,57.627 L663.5295,57.627 L663.5295,59.907 L668.2035,59.907 Z M676.8865,63.498 L676.8865,50.046 L674.2265,50.046 L669.8375,53.751 L671.4525,55.613 L674.1505,53.238 L674.1505,63.498 L676.8865,63.498 Z M686.0445,63.498 L688.9895,58.9 C689.204833,58.558 689.410667,58.2255 689.607,57.9025 C689.803333,57.5795 689.974333,57.2406667 690.12,56.886 C690.265667,56.5313333 690.382833,56.1545 690.4715,55.7555 C690.560167,55.3565 690.6045,54.9163333 690.6045,54.435 C690.6045,53.7383333 690.474667,53.1081667 690.215,52.5445 C689.955333,51.9808333 689.600667,51.4963333 689.151,51.091 C688.701333,50.6856667 688.169333,50.3721667 687.555,50.1505 C686.940667,49.9288333 686.285167,49.818 685.5885,49.818 C684.879167,49.818 684.2205,49.9288333 683.6125,50.1505 C683.0045,50.3721667 682.475667,50.6856667 682.026,51.091 C681.576333,51.4963333 681.221667,51.9808333 680.962,52.5445 C680.702333,53.1081667 680.5725,53.7383333 680.5725,54.435 C680.5725,55.043 680.673833,55.6161667 680.8765,56.1545 C681.079167,56.6928333 681.364167,57.1583333 681.7315,57.551 C682.098833,57.9436667 682.542167,58.254 683.0615,58.482 C683.580833,58.71 684.157167,58.824 684.7905,58.824 C684.955167,58.824 685.1135,58.8113333 685.2655,58.786 C685.4175,58.7606667 685.5695,58.729 685.7215,58.691 L685.7215,58.691 L682.5675,63.498 L686.0445,63.498 Z M685.5885,56.658 C684.9425,56.658 684.42,56.4585 684.021,56.0595 C683.622,55.6605 683.4225,55.157 683.4225,54.549 C683.4225,53.941 683.622,53.4375 684.021,53.0385 C684.42,52.6395 684.9425,52.44 685.5885,52.44 C686.2345,52.44 686.757,52.6395 687.156,53.0385 C687.555,53.4375 687.7545,53.941 687.7545,54.549 C687.7545,55.157 687.555,55.6605 687.156,56.0595 C686.757,56.4585 686.2345,56.658 685.5885,56.658 Z M566.221,89.996 L566.221,84.619 L567.684,84.619 L570.496,89.996 L574.049,89.996 L570.629,84.315 C571.579,84.1376667 572.301,83.7165 572.795,83.0515 C573.289,82.3865 573.536,81.579 573.536,80.629 C573.536,79.8436667 573.399833,79.1881667 573.1275,78.6625 C572.855167,78.1368333 572.487833,77.7188333 572.0255,77.4085 C571.563167,77.0981667 571.024833,76.8765 570.4105,76.7435 C569.796167,76.6105 569.147,76.544 568.463,76.544 L568.463,76.544 L563.257,76.544 L563.257,89.996 L566.221,89.996 Z M567.969,82.111 L566.221,82.111 L566.221,79.052 L568.159,79.052 C568.425,79.052 568.697333,79.071 568.976,79.109 C569.254667,79.147 569.501667,79.2198333 569.717,79.3275 C569.932333,79.4351667 570.109667,79.5903333 570.249,79.793 C570.388333,79.9956667 570.458,80.268 570.458,80.61 C570.458,80.9773333 570.378833,81.2623333 570.2205,81.465 C570.062167,81.6676667 569.862667,81.8165 569.622,81.9115 C569.381333,82.0065 569.112167,82.0635 568.8145,82.0825 C568.516833,82.1015 568.235,82.111 567.969,82.111 L567.969,82.111 Z M585.164,89.996 L585.164,87.26 L578.647,87.26 L578.647,84.524 L584.48,84.524 L584.48,81.788 L578.647,81.788 L578.647,79.28 L584.822,79.28 L584.822,76.544 L575.683,76.544 L575.683,89.996 L585.164,89.996 Z M596.108,89.996 L596.108,87.26 L590.617,87.26 L590.617,76.544 L587.653,76.544 L587.653,89.996 L596.108,89.996 Z M600.668,89.996 L600.668,76.544 L597.704,76.544 L597.704,89.996 L600.668,89.996 Z M612.961,89.996 L612.961,87.26 L606.444,87.26 L606.444,84.524 L612.277,84.524 L612.277,81.788 L606.444,81.788 L606.444,79.28 L612.619,79.28 L612.619,76.544 L603.48,76.544 L603.48,89.996 L612.961,89.996 Z M618.414,89.996 L618.414,84.752 L624.019,84.752 L624.019,82.016 L618.414,82.016 L618.414,79.28 L624.475,79.28 L624.475,76.544 L615.45,76.544 L615.45,89.996 L618.414,89.996 Z M635.305,89.996 L635.305,84.752 L640.91,84.752 L640.91,82.016 L635.305,82.016 L635.305,79.28 L641.366,79.28 L641.366,76.544 L632.341,76.544 L632.341,89.996 L635.305,89.996 Z M649.175,90.338 C650.099667,90.338 650.916667,90.1986667 651.626,89.92 C652.335333,89.6413333 652.9275,89.255 653.4025,88.761 C653.8775,88.267 654.235333,87.6843333 654.476,87.013 C654.716667,86.3416667 654.837,85.607 654.837,84.809 L654.837,84.809 L654.837,76.544 L651.873,76.544 L651.873,84.695 C651.873,85.113 651.8065,85.4993333 651.6735,85.854 C651.5405,86.2086667 651.353667,86.5158333 651.113,86.7755 C650.872333,87.0351667 650.587333,87.2378333 650.258,87.3835 C649.928667,87.5291667 649.567667,87.602 649.175,87.602 C648.782333,87.602 648.418167,87.5291667 648.0825,87.3835 C647.746833,87.2378333 647.458667,87.0351667 647.218,86.7755 C646.977333,86.5158333 646.7905,86.2086667 646.6575,85.854 C646.5245,85.4993333 646.458,85.113 646.458,84.695 L646.458,84.695 L646.458,76.544 L643.494,76.544 L643.494,84.809 C643.494,85.607 643.614333,86.3416667 643.855,87.013 C644.095667,87.6843333 644.4535,88.267 644.9285,88.761 C645.4035,89.255 645.995667,89.6413333 646.705,89.92 C647.414333,90.1986667 648.237667,90.338 649.175,90.338 Z M660.537,89.996 L660.537,80.42 L660.575,80.42 L666.446,89.996 L670.322,89.996 L670.322,76.544 L667.358,76.544 L667.358,85.892 L667.32,85.892 L661.601,76.544 L657.573,76.544 L657.573,89.996 L660.537,89.996 Z M677.903,89.996 C678.903667,89.996 679.86,89.8503333 680.772,89.559 C681.684,89.2676667 682.488333,88.8401667 683.185,88.2765 C683.881667,87.7128333 684.435833,87.0161667 684.8475,86.1865 C685.259167,85.3568333 685.465,84.3973333 685.465,83.308 C685.465,82.0793333 685.252833,81.0343333 684.8285,80.173 C684.404167,79.3116667 683.831,78.6118333 683.109,78.0735 C682.387,77.5351667 681.5415,77.1456667 680.5725,76.905 C679.6035,76.6643333 678.580667,76.544 677.504,76.544 L677.504,76.544 L673.058,76.544 L673.058,89.996 L677.903,89.996 Z M677.561,87.26 L676.022,87.26 L676.022,79.28 L677.77,79.28 C678.390667,79.28 678.982833,79.3591667 679.5465,79.5175 C680.110167,79.6758333 680.601,79.9133333 681.019,80.23 C681.437,80.5466667 681.7695,80.9488333 682.0165,81.4365 C682.2635,81.9241667 682.387,82.4973333 682.387,83.156 C682.387,83.916 682.2635,84.5588333 682.0165,85.0845 C681.7695,85.6101667 681.430667,86.0345 681,86.3575 C680.569333,86.6805 680.0595,86.9116667 679.4705,87.051 C678.8815,87.1903333 678.245,87.26 677.561,87.26 L677.561,87.26 Z" id="PBACOVID-19RELIEFFUND" fill="#2C4349" fill-rule="nonzero"></path>
            </g>
        </g>
    </g>
</svg>