<svg xmlns="http://www.w3.org/2000/svg" xmlns:xlink="http://www.w3.org/1999/xlink" width="24" height="39" viewBox="0 0 24 39">
    <defs>
        <path id="j5ol5cwwza" d="M.824 21.297c0 9.149 1.508 17.202 11.292 17.202 9.784 0 11.059-10.47 11.059-17.202C23.175 14.564 19.436.501 12 .501 4.564.501.824 12.146.824 21.297z"/>
    </defs>
    <g fill="none" fill-rule="evenodd">
        <path fill="#F3EBE6" d="M12 .501C4.564.501.824 12.147.824 21.297c0 9.149 1.508 17.202 11.292 17.202 9.784 0 11.06-10.47 11.06-17.202C23.176 14.564 19.436.501 12 .501"/>
        <mask id="rbxqyrj8mb" fill="#fff">
            <use xlink:href="#j5ol5cwwza"/>
        </mask>
        <path fill="#2C4349" d="M-4.809 43L30.46 43 30.46 27.297 -4.809 27.297z" mask="url(#rbxqyrj8mb)"/>
        <path fill="#F3EBE6" d="M25.11 22.003c-.61 6.456-6.165 11.37-12.918 11.428h-.134c-.176 0-.35 0-.526-.01-7.01-.27-12.597-5.878-12.463-12.507.042-1.985.774-3.892 1.477-5.512 1.806-4.114 4.253-7.71 7.01-11.64.413-.587.826-1.147 1.27-1.743l3.088-4.241 2.333 3.2c.444.607.878 1.185 1.3 1.763l.104.135c1.095 1.465 2.116 2.833 3.077 4.298 1.642 2.485 3.118 4.942 4.408 7.294 1.188 2.178 2.251 4.596 1.973 7.535" mask="url(#rbxqyrj8mb)"/>
    </g>
</svg>
