<svg xmlns="http://www.w3.org/2000/svg" width="123" height="119" viewBox="0 0 123 119">
    <g fill="none" fill-rule="evenodd">
        <path fill="#F7BFA0" d="M70.874 52.931L70.393 52.907 70.356 53.632 70.936 53.661 71.444 53.547 72.496 53.71 73.02 53.64 73.522 53.733 74.09 53.785 74.598 53.726 75.09 53.854 75.679 53.945 76.158 53.936 77.201 54.146 78.207 54.3 78.606 54.529 79.181 54.68 79.624 54.828 80.014 55.105 80.574 55.359 81.529 55.694 81.94 55.949 82.553 56.082 82.96 56.246 83.422 56.498 84.027 56.59 84.48 56.71 84.986 56.928 85.479 57.095 86.02 57.169 86.455 57.357 87.013 57.448 87.553 57.603 88.011 57.675 89.082 58.015 89.589 57.981 90.068 58.221 90.649 58.201 91.635 58.43 92.192 58.529 92.703 58.489 93.143 58.631 93.747 58.651 94.25 58.704 95.716 59.016 96.292 59.255 96.833 59.208 97.235 59.391 98.3 59.588 98.758 59.744 99.285 59.994 99.748 60.135 100.294 60.361 100.768 60.464 101.735 60.904 102.2 61.042 103.549 61.774 104.407 62.288 105.132 63.036 105.527 63.372 105.991 63.63 106.552 64.429 106.955 64.811 107.241 65.247 107.551 65.608 107.807 66.016 107.969 66.478 108.275 66.963 108.8 68.352 108.925 68.859 109.182 69.356 109.267 69.814 109.569 70.354 109.706 70.783 109.936 71.79 110.383 72.765 110.46 73.299 110.651 73.85 110.875 74.247 110.939 74.698 111.22 75.226 111.381 75.656 111.48 76.168 111.696 76.686 111.87 77.222 112.064 77.638 112.113 78.109 112.503 79.232 112.732 79.632 112.815 80.085 113.282 81.036 113.402 81.545 113.668 82.053 113.842 82.493 114.117 83.516 114.425 84.011 114.567 84.515 114.971 85.416 115.043 85.898 115.953 87.952 116.222 88.355 116.53 89.355 116.775 89.859 117.025 90.253 117.429 91.266 117.666 91.692 118.302 93.127 118.635 93.598 118.807 94.051 119.172 94.544 119.376 94.951 119.569 95.463 120.004 96.402 120.178 96.906 120.523 97.411 120.771 97.825 120.953 98.267 121.079 98.797 121.37 99.341 121.838 100.308 122.075 100.734 122.261 101.202 122.944 100.959 122.256 99.488 121.772 98.577 121.642 98.048 121.419 97.505 121.129 97.016 120.845 96.617 120.67 96.122 120.444 95.666 120.04 94.661 119.804 94.186 119.465 93.741 119.294 93.294 118.955 92.811 118.316 91.373 118.084 90.96 117.669 89.924 117.409 89.51 117.207 89.104 117.064 88.564 116.89 88.07 116.588 87.609 115.751 85.733 115.68 85.26 115.246 84.268 115.108 83.762 114.798 83.26 114.532 82.273 114.323 81.747 114.095 81.328 113.966 80.804 113.741 80.304 113.518 79.897 113.435 79.44 113.159 78.931 112.829 77.992 112.778 77.503 112.544 76.958 112.373 76.432 112.184 75.99 112.078 75.462 111.874 74.921 111.647 74.525 111.583 74.075 111.31 73.556 111.163 73.136 111.094 72.611 110.636 71.596 110.403 70.586 110.246 70.091 109.967 69.616 109.885 69.167 109.617 68.638 109.491 68.139 108.938 66.669 108.637 66.197 108.479 65.739 108.134 65.179 107.821 64.814 107.537 64.376 107.118 63.975 106.488 63.072 105.966 62.794 104.885 61.741 102.532 60.393 101.982 60.223 101.043 59.79 100.513 59.672 99.997 59.452 99.549 59.32 99.034 59.074 98.473 58.885 97.496 58.712 96.959 58.469 96.405 58.516 95.939 58.327 94.89 58.074 93.788 57.927 93.313 57.923 92.79 57.754 92.228 57.798 90.708 57.472 90.227 57.489 89.737 57.244 89.166 57.281 88.184 56.971 87.713 56.895 87.166 56.739 86.699 56.671 86.26 56.481 85.675 56.394 84.719 56.026 84.164 55.878 83.706 55.826 83.269 55.59 82.789 55.394 82.261 55.294 81.873 55.053 81.313 54.859 80.403 54.492 80.001 54.204 79.379 53.981 78.92 53.872 78.503 53.633 77.852 53.525 76.803 53.307 76.214 53.215 75.735 53.223 75.24 53.144 74.65 52.988 74.08 53.055 73.623 53.014 73.039 52.904 72.49 52.978 72.037 52.925 71.435 52.803z"/>
        <path fill="#2C4349" d="M6.587.904L6.047 1.03 5.554 1.033 4.443 1.434 3.959 1.771 3.5 2.034 2.648 2.902 2.326 3.36 2.049 3.821 1.863 4.963 1.68 5.551 1.731 6.109 1.655 6.653 1.755 7.156 1.63 7.591 1.574 8.238 1.61 8.731 1.607 9.313 1.675 9.763 1.529 10.286 1.623 10.818 1.518 11.264 1.507 11.884 1.531 12.345 1.46 12.901 1.502 13.426 1.439 13.957 1.446 14.451 1.413 15.008 1.497 15.51 1.415 16.023 1.405 16.999 1.297 17.573 1.275 18.112.702 40.01.751 40.476.65 40.993.628 41.552.663 42.104.73 42.566.63 43.073.676 43.586.547 44.112.626 44.634.499 45.161.617 45.697.536 46.181.557 46.701.488 47.782.512 48.253.387 48.808.521 49.324.392 49.822.489 50.385.481 50.802.372 51.351.315 51.904.374 52.389.264 54.004.31 54.495.318 54.975.232 56.087.291 56.549.268 57.037.195 57.597.19 58.164.251 58.615.178 59.663.177 60.11.062 60.661.075 61.26.135 61.734 0 62.776.084 63.329.128 63.91.257 64.503.463 65.002.841 65.454 1.105 65.915 1.902 66.759 2.408 67.11 3.012 67.276 3.444 67.508 4.1 67.705 4.651 67.647 7.302 67.757 7.755 67.747 8.337 67.852 8.855 67.763 9.326 67.774 9.897 67.875 10.413 67.809 10.892 67.834 11.463 67.933 11.984 67.869 12.522 67.97 13.053 67.848 13.544 67.922 14.068 67.877 15.126 67.978 15.598 67.954 16.674 68.082 17.2 67.995 18.229 68.122 18.748 68.068 19.214 68.07 19.785 68.16 20.849 68.203 21.365 68.123 21.834 68.108 22.359 68.245 23.402 68.177 23.935 68.277 24.451 68.208 24.906 68.308 26.054 68.372 27.058 68.281 27.581 68.353 28.073 68.286 28.513 68.414 29.154 68.461 29.7 68.424 30.14 68.359 30.646 68.515 31.214 68.448 31.679 68.427 32.198 68.558 32.712 68.517 33.263 68.574 33.811 68.577 34.298 68.542 34.76 68.549 35.335 68.658 35.879 68.577 36.324 68.604 36.895 68.692 37.414 68.608 37.931 68.691 38.445 68.597 39.454 68.747 40.015 68.776 40.508 68.743 41.028 68.749 41.036 68.022 40.489 68.017 40.012 68.05 39.023 67.965 38.445 67.857 37.922 67.954 37.412 67.874 36.893 67.957 36.403 67.882 35.848 67.848 35.348 67.921 34.835 67.828 34.281 67.816 33.789 67.851 33.304 67.848 32.725 67.793 32.263 67.826 31.754 67.696 31.156 67.723 30.713 67.776 30.195 67.617 29.624 67.701 29.153 67.736 28.676 67.705 28.128 67.547 27.581 67.619 27.072 67.55 26.056 67.648 25.51 67.599 25.026 67.591 24.482 67.47 23.954 67.542 23.456 67.448 22.42 67.51 21.915 67.379 21.3 67.401 20.816 67.474 19.85 67.438 19.278 67.348 18.717 67.342 18.233 67.39 17.19 67.26 16.666 67.347 15.615 67.23 15.138 67.254 14.081 67.147 13.567 67.191 13.025 67.108 12.507 67.227 12.006 67.135 11.48 67.2 10.974 67.114 10.392 67.085 9.918 67.141 9.4 67.052 8.81 67.041 8.343 67.115 7.817 67.025 7.312 67.031 4.64 66.922 4.166 66.968 3.752 66.85 3.313 66.614 2.757 66.47 2.397 66.228 1.71 65.513 1.428 65.033 1.108 64.667.947 64.29.845 63.81.804 63.249.732 62.767.866 61.737.798 61.208.788 60.728.894 60.19.973 58.594.912 58.125.916 57.651.989 57.105 1.013 56.526.954 56.071 1.041 55.005 1.033 54.457.986 54.001 1.095 52.384 1.044 51.901 1.087 51.461 1.199 50.885 1.216 50.332 1.133 49.853 1.27 49.324 1.133 48.795 1.239 48.317 1.212 47.788 1.281 46.711 1.262 46.228 1.355 45.678 1.242 45.168 1.364 44.667 1.285 44.145 1.409 43.64 1.361 43.111 1.465 42.585 1.384 42.03 1.352 41.546 1.368 41.082 1.484 40.51 1.425 39.972 2.005 18.624 1.999 18.123 2.015 17.657 2.122 17.078 2.136 16.552 2.135 16.086 2.231 15.509 2.142 14.969 2.17 14.467 2.161 13.998 2.23 13.441 2.188 12.916 2.252 12.376 2.232 11.87 2.233 11.392 2.364 10.839 2.272 10.321 2.415 9.809 2.329 9.264 2.334 8.711 2.297 8.241 2.336 7.757 2.5 7.187 2.389 6.632 2.461 6.126 2.415 5.626 2.567 5.123 2.707 4.132 3.208 3.36 3.902 2.641 4.352 2.381 4.737 2.1 5.627 1.759 6.091 1.757 6.646 1.637 7.143 1.669 8.134 1.653 8.671 1.788 9.2 1.715 10.195 1.749 10.76 1.839 11.269 1.781 11.769 1.891 12.27 1.875 12.83 1.956 13.396 1.972 13.875 1.855 14.301 1.968 14.936 2.006 15.449 1.914 15.98 1.961 16.429 1.925 16.955 2.091 17.508 2.001 18.498 1.994 19.02 2.13 20.141 2.105 20.621 2.049 21.663 2.209 22.179 2.097 22.616 2.196 24.283 2.276 24.808 2.174 25.212 2.182 25.793 2.321 26.33 2.241 26.81 2.242 27.362 2.304 27.821 2.308 28.397 2.416 28.929 2.341 29.45 2.406 29.95 2.324 30.932 2.37 31.524 2.496 32.08 2.379 34.135 2.581 35.139 2.516 35.679 2.537 36.127 2.523 36.679 2.623 37.181 2.609 37.755 2.68 38.309 2.667 38.797 2.61 39.245 2.594 39.818 2.697 40.88 2.711 41.345 2.69 41.855 2.82 43.448 2.735 45.053 2.883 45.512 2.822 46.032 2.939 46.584 2.855 47.039 2.837 47.557 3.014 48.095 2.98 48.679 3.03 49.167 2.988 49.692 2.992 50.209 2.988 50.686 2.988 51.162 3.105 52.333 3.138 52.815 3.083 53.341 3.14 53.861 3.065 54.939 3.169 55.423 3.112 56.455 3.249 56.976 3.189 57.428 3.195 58.019 3.329 58.55 3.221 59.054 3.307 59.587 3.318 60.054 3.308 60.634 3.396 61.139 3.299 61.653 3.432 62.196 3.337 62.673 3.338 63.198 3.478 64.281 3.446 65.876 3.512 66.892 3.467 67.427 3.568 67.964 3.511 68.388 3.599 68.869 3.851 69.337 4.014 69.704 4.248 70.435 4.919 70.712 5.305 70.922 5.754 71.032 6.238 71.301 6.725 71.29 7.204 71.366 8.168 71.28 8.74 71.348 9.254 71.245 9.77 71.226 10.336 71.299 11.321 71.186 11.834 71.139 12.387 71.189 13.919 71.07 14.429 71.077 15.06 71.163 15.526 71.08 16.052 71.115 17.572 70.972 18.121 71.071 18.645 70.351 39.978 70.432 40.51 70.305 41.041 70.414 41.566 70.29 42.059 70.33 43.127 70.308 43.612 70.217 44.193 70.316 44.741 70.296 45.188 70.16 45.72 70.175 46.332 70.236 46.808 70.148 48.405 70.188 48.86 70.119 49.421 70.167 49.945 70.093 50.47 70.152 50.999 70.005 52.56 69.953 54.156 69.956 54.629 69.877 55.219 69.902 55.805 69.998 56.297 69.988 56.733 69.827 57.205 70.512 57.441 70.692 56.915 70.726 56.236 70.62 55.721 70.597 55.258 70.678 54.682 70.678 54.165 70.727 52.611 70.882 51.005 70.823 50.482 70.897 49.963 70.849 49.429 70.909 48.877 70.87 48.413 70.92 47.88 70.958 46.77 70.896 46.281 70.888 45.804 71.007 45.331 71.043 44.691 70.952 44.184 71.028 43.686 71.055 43.138 71.02 42.131 71.158 41.581 71.047 41.05 71.169 40.541 71.091 40.022 71.814 18.674 71.714 18.147 71.841 17.658 71.799 16.104 71.898 15.519 71.796 14.994 71.796 14.512 71.918 13.984 71.862 12.417 71.9 11.946 72.029 11.379 71.949 10.319 71.962 9.859 72.083 9.28 72.011 8.743 72.086 8.206 72.013 7.181 72.031 6.533 71.726 6.021 71.621 5.555 71.336 4.94 70.983 4.448 70.143 3.673 69.693 3.379 69.158 3.187 68.68 2.933 68 2.778 67.457 2.834 66.942 2.738 65.879 2.786 64.28 2.719 63.282 2.749 62.768 2.611 62.137 2.616 61.686 2.69 61.163 2.555 60.618 2.66 60.104 2.586 59.591 2.591 59.125 2.586 58.541 2.481 58.025 2.586 57.518 2.477 56.947 2.464 56.469 2.517 55.421 2.381 54.928 2.445 53.855 2.331 53.328 2.408 52.815 2.352 52.299 2.413 51.296 2.39 50.816 2.273 50.206 2.261 49.692 2.265 49.14 2.262 48.682 2.306 48.11 2.256 47.658 2.281 47.146 2.105 46.517 2.133 46.059 2.201 45.545 2.085 45.033 2.159 43.46 2.004 41.939 2.092 41.42 1.959 40.865 1.985 39.893 1.977 39.305 1.875 38.75 1.885 38.262 1.943 37.794 1.956 37.221 1.885 36.735 1.895 36.185 1.802 35.687 1.81 35.126 1.79 34.161 1.858 33.108 1.703 32.017 1.65 31.524 1.754 31.027 1.652 29.914 1.601 29.44 1.672 28.923 1.608 28.412 1.68 27.896 1.588 27.41 1.579 26.854 1.517 26.282 1.518 25.826 1.582 25.309 1.465 24.749 1.444 24.225 1.547 23.222 1.486 22.74 1.48 22.183 1.352 21.65 1.468 21.18 1.381 20.62 1.318 20.099 1.382 19.564 1.379 19.097 1.399 18.588 1.267 17.45 1.279 17.012 1.346 16.511 1.188 15.987 1.239 15.419 1.181 14.888 1.276 14.45 1.256 13.883 1.105 13.318 1.243 12.893 1.234 12.316 1.152 11.84 1.162 11.308 1.045 10.776 1.106 10.264 1.025 9.168.991 8.714 1.05 8.219.925 7.159.943zM65.564 69.589L64.99 69.544 64.47 69.423 63.459 69.457 62.926 69.452 62.426 69.483 61.859 69.453 60.834 69.302 60.311 69.396 59.786 69.313 59.259 69.396 58.681 69.307 58.226 69.28 57.676 69.36 57.095 69.25 56.627 69.243 56.139 69.278 55.589 69.273 55.034 69.217 54.512 69.257 53.985 69.124 52.937 69.211 52.422 69.056 51.97 69.12 51.415 69.156 50.768 69.109 50.316 68.98 49.813 69.046 49.281 68.972 48.26 69.062 47.166 69.006 46.568 68.882 46.721 68.173 47.249 68.288 47.71 68.289 48.264 68.338 49.297 68.242 49.815 68.312 50.371 68.241 50.929 68.399 51.416 68.43 51.897 68.397 52.477 68.313 53.004 68.472 53.456 68.421 54.059 68.393 54.578 68.524 55.047 68.493 55.63 68.548 56.118 68.552 56.612 68.517 57.171 68.53 57.69 68.623 58.196 68.55 58.759 68.586 59.257 68.661 59.786 68.578 60.304 68.66 60.835 68.564 61.922 68.73 62.424 68.757 62.908 68.726 63.458 68.73 64.535 68.692 65.105 68.828 65.573 68.865 66.045 68.833 66.088 69.558z"/>
        <path fill="#2C4349" d="M10.658 39.86l.47.028 1.471-.094.375-.107.786-.415 1.084-1.522.097-.42.06-.463.02-.467-.03-.458.075-1.053.072-.45-.112-.495.065-.5-.102-.502.08-.558.027-.45-.11-.52.023-.532-.097-.475-.609-1.27-.335-.318-.312-.397-.364-.18-.559-.146-.386-.207-.919.096-.935.137-.324.275-.403.279-.253.382-.46.89-.129.426-.185.444.026.493-.114.542.038 1.088-.151.545.001.494.066.542-.069 1.106-.1.587-.008.485.077.45.04.547.073.397.261.36.25.462.281.316.85.47.398.158zm.48.752l-.693-.056-.488-.196-1.05-.601-.395-.461-.244-.458-.334-.451-.108-.601-.04-.556-.079-.484.01-.606.101-.593.06-1.014-.061-.511-.004-.635.145-.527-.032-1.082.11-.526-.03-.564.24-.567.144-.46.496-.966.41-.58.434-.297.461-.393 2.314-.278.528.284.543.138.549.273.379.489.412.412.473.947.211.5.137.631-.023.531.111.526-.1 1.04.1.496-.063.494.113.505-.138 1.046-.021.476.03.459-.025.536-.068.527-.184.668-1.293 1.747-.974.503-.485.13-1.58.105zM10.951 20.598l.47.028 1.47-.094.376-.106.785-.415 1.085-1.523.096-.42.06-.463.02-.467-.029-.457.075-1.053.072-.451-.112-.495.064-.5-.101-.502.079-.558.028-.45-.11-.52.023-.532-.098-.475-.608-1.269-.335-.319-.313-.397-.363-.18-.56-.145-.385-.208-.92.096-.934.137-.325.275-.403.279-.252.382-.46.89-.13.426-.184.444.026.493-.114.542.037 1.088-.15.545.001.494.066.543-.069 1.105-.1.587-.009.485.077.45.04.548.073.396.262.36.25.462.281.317.85.469.398.158zm.48.753l-.694-.056-.487-.197-1.05-.601-.396-.461-.244-.458-.333-.451-.108-.601-.04-.555L8 17.486l.01-.606.1-.593.06-1.013-.06-.512-.004-.635.145-.526-.033-1.083.111-.526-.03-.564.239-.566.145-.46.495-.967.411-.58.434-.297.46-.393 2.315-.277.528.283.543.138.548.273.38.489.412.412.472.947.212.5.137.631-.023.532.11.525-.1 1.04.1.496-.062.494.113.506-.139 1.045-.02.477.029.458-.024.536-.068.527-.184.668-1.294 1.747-.973.503-.486.131-1.579.105zM22.165 40.248l.534.008.901-.194.383-.284.432-.25.266-.38.663-.845.218-.422.27-.893-.08-1.013.04-.575.11-.524-.13-2.067.019-.58.12-1-.153-.527-.022-.452-.225-.479-.12-.47-.186-.376-.332-.32-.31-.426-.338-.251-.899-.338-.43-.129-.463.002-.497-.091-.379.099-.5.25-.404.09-1.213 1.392-.101.41-.197.47-.032.454.006.479-.095 1.134-.113.453.055.521-.113.538.042 1.06-.148.529.004.475.07.521-.04.558.019.464v.474l.11.402.675 1.183.376.205.449.338.35.165.962.193.446.02zm.59.73l-1.13-.031-1.138-.236-.458-.223-.464-.346-.482-.26-.339-.497-.523-1.002-.149-.59v-.512l-.017-.49.035-.522-.064-.493-.008-.622.143-.51-.037-1.055.107-.503-.057-.534.135-.543.021-.486.064-.546-.008-.462.066-.663.203-.47.129-.545.437-.448.608-.755.445-.481.576-.131.485-.244.576-.15.59.115.5-.008 1.042.331.578.252.496.39.302.424.407.413.258.54.12.47.252.585.023.48.17.54-.136 1.126-.018.502.049.48.088 1.653-.125.583-.032.48.093 1.071-.34 1.107-.277.533-1.106 1.423-.467.268-.532.363-.53.132-.562.096zM22.458 20.987l.534.007.9-.194.383-.284.432-.25.266-.38.663-.845.219-.422.27-.893-.08-1.013.04-.574.109-.525-.13-2.067.02-.58.12-1-.153-.527-.023-.452-.224-.479-.12-.47-.187-.376-.33-.32-.312-.426-.338-.25-.898-.339-.43-.128-.463.001-.497-.09-.38.098-.5.25-.404.09-1.213 1.393-.1.409-.198.47-.032.454.007.48-.095 1.133-.113.453.055.521-.114.538.042 1.06-.148.529.005.475.07.521-.04.558.018.464v.475l.111.4.675 1.185.375.205.45.338.35.164.962.193.446.02zm.589.729l-1.13-.03-1.137-.236-.459-.224-.464-.346-.481-.259-.339-.498-.523-1.002-.15-.59.001-.512-.018-.49.036-.522-.064-.493-.008-.622.143-.51-.037-1.054.106-.503-.056-.535.135-.542.02-.487.064-.546-.008-.462.066-.662.203-.471.13-.545.436-.447.608-.755.445-.482.576-.131.485-.244.576-.15.591.115.5-.008 1.042.331.577.252.497.39.302.424.406.413.258.54.12.47.253.585.023.48.17.54-.137 1.126-.018.502.05.481.088 1.653-.125.583-.032.478.092 1.072-.34 1.107-.276.534-1.106 1.423-.468.267-.532.363-.53.133-.561.096zM32.698 40.523l.502.07.422-.076 1.326-.593.72-.688.526-.75.11-.456.19-.461-.018-.45.035-.54.11-1.009.001-.481.06-.494-.085-.455-.054-.54.025-.56.103-.513-.062-1.503-.307-1.914-.309-.423-.183-.397-.338-.28-.35-.402-.333-.242-.505-.154-.41-.216-.417-.084-.993.03-.453.05-.432.198-.499.148-.321.28-.364.47-.356.283-.492 1.43-.213.46.025.5-.084.5.064.983-.092 1.13-.11.442.056.51-.112.525.047 1.03-.145.516.01.453.1.473.06.565.254.932.232.372.749.714.333.244.46.094.558.214.427.09.532-.025zm.516.804l-.548-.074-.559.027-.578-.128-.554-.213-.619-.156-.437-.325-.87-.84-.328-.56-.278-1.037-.065-.59-.103-.502-.018-.624.14-.5-.043-1.025.106-.49-.058-.523.133-.533.02-.476.062-.536-.071-.995.085-.508-.03-.602.275-.588.554-1.6.477-.38.347-.455.546-.43.526-.154.55-.235 1.083-.085.567-.005.638.143.424.223.577.19.478.361.334.391.422.341.235.513.35.46.344 2.137.074 1.63-.118.559-.018.45.047.455.101.535-.07.563v.463l-.144 1.532.024.569-.234.558-.16.583-.619.872-.882.83-.464.245-1.074.437-.577.102zM32.991 21.261l.502.07.422-.076 1.326-.593.72-.688.525-.75.11-.455.19-.462-.018-.449.036-.54.11-1.01v-.481l.06-.494-.085-.455-.053-.54.024-.56.104-.512-.062-1.504-.308-1.914-.308-.422-.183-.398-.339-.279-.35-.403-.332-.242-.505-.154-.41-.216-.417-.084-.993.03-.453.05-.433.198-.498.148-.321.28-.364.47-.356.283-.493 1.43-.213.46.025.5-.084.5.064.983-.092 1.131-.11.441.057.51-.113.525.048 1.03-.145.517.01.452.1.473.06.565.254.932.231.373.75.713.332.245.46.093.558.215.428.09.532-.026zm.516.804l-.548-.074-.56.027-.578-.128-.553-.213-.62-.156-.436-.324-.87-.841-.328-.56-.279-1.037-.065-.59-.102-.501-.019-.625.14-.499-.042-1.025.105-.492-.058-.522.133-.533.02-.476.063-.536-.072-.995.086-.508-.03-.602.275-.588.554-1.6.477-.38.347-.454.546-.431.526-.154.55-.234 1.082-.086.568-.005.638.144.424.223.576.189.479.362.334.39.421.341.236.513.35.46.344 2.137.073 1.63-.117.56-.019.449.048.455.1.535-.07.563.001.464-.145 1.53.025.57-.234.558-.161.583-.618.872-.882.83-.465.246-1.074.436-.576.102zM42.26 40.798l.463.048.497.093.456-.048.462-.096.443-.145.347-.173.31-.322.75-.632.208-.353.431-1.341.004-.455.095-1.472-.094-.503.05-.492-.109-.518-.003-.498.1-1.057-.022-.482.002-.484-.72-1.843-.325-.317-.384-.29-.376-.208-.953-.263-.896-.138-.403.174-.476.123-.325.292-.436.293-.28.304-.212.491-.264.39-.136.41-.17 1.538.025.538-.145.538.007.492.05.593-.167.53.053.472.024.57-.045.584-.143.52.083.438.026.51.183.422.485.794.642.634.416.116.473.223zm.93.875l-.572-.108-.612-.085-.473-.227-.54-.145-.86-.867-.53-.876-.261-.656-.024-.525-.11-.555.179-.618.03-.47-.022-.5-.068-.598.17-.54-.04-.475-.01-.62.144-.53-.017-.488.191-1.696.207-.585.273-.402.255-.557.419-.44.43-.286.418-.379.595-.148.524-.232.624.07.542.104 1.11.316.456.257.46.347.502.536.795 2.037-.003.606.022.51-.102 1.083.005.413.118.517-.05.508.09.497-.1 1.542-.015.56-.127.489-.373 1.048-.332.526-.784.66-.419.408-.453.224-.53.175-.536.11-.595.065zM42.554 21.536l.462.049.497.092.455-.047.463-.097.442-.145.347-.173.31-.322.75-.632.209-.353.431-1.34.004-.456.095-1.472-.094-.503.05-.492-.11-.517-.002-.499.1-1.057-.023-.482.002-.484-.72-1.843-.324-.316-.385-.291-.376-.208-.952-.263-.896-.137-.404.173-.475.123-.325.292-.437.293-.279.305-.212.49-.265.39-.135.41-.17 1.538.025.539-.146.537.008.492.05.593-.168.53.054.472.024.57-.045.585-.144.52.084.438.026.508.183.423.485.795.642.633.415.117.474.222zm.93.875l-.573-.108-.613-.085-.472-.226-.54-.146-.86-.867-.53-.875-.262-.657-.024-.525-.109-.555.178-.618.031-.469-.022-.5-.069-.599.171-.54-.04-.475-.01-.62.144-.53-.018-.487.192-1.697.207-.585.272-.401.255-.558.42-.44.43-.286.418-.378.595-.149.523-.232.625.07.542.104 1.11.316.455.258.46.346.503.537.795 2.036-.004.606.023.51-.102 1.083.005.413.118.517-.051.508.091.497-.101 1.542-.015.56-.126.49-.373 1.047-.332.526-.784.66-.419.409-.454.223-.53.175-.536.111-.595.064zM52.966 41.158l.437.018.39-.18.47-.143.357-.26.31-.32.374-.3.182-.394.15-.45.087-.456.03-.441-.08-.536.05-.571.09-.561-.02-.463-.065-.494.077-1.093-.108-1.003-.26-.853-.305-.338-.277-.368-1.265-.555-.43-.07-.897.09-.358.267-.992 1.022-.135.433-.098.484-.047.488.02.448-.042.542-.173.97.082.5-.093.5.072.502-.097.553-.03.405.102.464.025.53.15.385.289.37.335.317.327.238.437.122.466.206.463-.005zm.582.752l-.593-.026-.602.008-.561-.254-.568-.178-.416-.308-.406-.385-.41-.543-.214-.61-.02-.527-.117-.504.042-.549.082-.472-.073-.506.093-.492-.085-.511.192-1.037.04-.473-.022-.455.055-.576.113-.555.247-.684 1.114-1.144.539-.406.622-.088.597-.04.619.11.474.184 1.032.476.369.493.408.496.31 1.026.124 1.13-.084 1.07.066.464.018.568-.13 1.062.079.53-.042.568-.107.545-.176.531-.267.585-.477.38-.322.33-.562.389-.482.142-.5.236zM53.259 21.896l.436.019.39-.181.471-.143.357-.26.31-.319.373-.302.182-.393.15-.45.088-.456.03-.441-.08-.536.05-.57.089-.562-.019-.463-.065-.494.077-1.092-.108-1.004-.26-.853-.306-.337-.276-.369-1.265-.554-.43-.07-.898.089-.357.267-.992 1.022-.135.433-.098.485-.048.487.021.449-.042.541-.174.97.083.501-.093.5.072.5-.098.554-.03.405.103.465.025.529.15.386.289.37.335.316.326.238.438.122.466.207.463-.006zm.581.753l-.593-.026-.601.007-.562-.254-.567-.178-.416-.308-.406-.384-.41-.544-.214-.61-.02-.527-.117-.504.042-.549.082-.471-.073-.507.092-.492-.084-.51.192-1.038.039-.473-.021-.455.054-.576.113-.555.247-.684 1.114-1.144.54-.406.622-.088.596-.039.62.11.474.184 1.031.476.37.492.408.496.309 1.026.125 1.13-.084 1.07.066.464.017.568-.13 1.062.08.53-.042.568-.107.546-.176.53-.267.585-.477.381-.323.329-.562.39-.481.14-.5.238zM9.69 59.485l1 .104.425.133 1.313-.275 1.145-.822.251-.263.178-.48.235-.382.118-.431.062-.446.154-.484-.022-.943.012-.97-.098-.51.04-.546.088-.532-.01-.429-.049-.501.004-.567-.017-.475-.259-.992-.402-.819-.361-.295-.34-.343-1.398-.499-.456-.064-.88.063-.38.233-1.146.867-.207.397-.188.454-.143.463-.196 1.508-.1.493.08.541-.098.543.069.546-.102.593-.04.475.067.567-.118.593-.013.482.24 1.378.231.392.19.456.296.255.497.256.328.276zm1.38.985l-.557-.176-1.123-.113-.46-.387-.502-.26-.463-.398-.234-.572-.28-.505-.196-1.024-.069-.53.017-.6.103-.537-.062-.527.05-.578.087-.517-.07-.55.097-.534-.081-.55.265-1.622.061-.51.169-.562.213-.513.358-.615 1.247-.944.552-.339 1.15-.075.59.083 1.619.568.433.44.48.427.478.984.3 1.165.02.533-.007.546.048.493.007.523-.118.978.095.489-.013 1.036.026 1.044-.18.55-.057.426-.182.62-.242.393-.24.58-.354.363-1.407.974-1.567.323zM20.198 59.763l.576.083.39.178.937-.113.545.027.453-.148.383-.194.343-.343.436-.3.739-1.268.326-1.946-.1-.532.067-.585-.044-1.057.121-.523-.044-1.023.019-.543-.009-.458-.13-.463-.114-1.056-.167-.401-.574-.843-.279-.326-.83-.522-.852-.277-.461.037-.48-.03-1.301.508-.359.243-.628.652-.663 1.805-.034 1.495.019.498-.043.564-.176 1.024.08.526-.093.527.072.528-.098.577-.03.435.101.494-.013.5.106.4.47.81.243.335.361.245.36.337.375.123zm.846 1.006l-.518-.237-.518-.067-.623-.24-.375-.356-.457-.332-.572-.85-.282-.546-.143-.543.013-.52-.105-.51.042-.573.084-.5-.073-.532.094-.519-.084-.537.193-1.087.04-.498-.02-.482.064-1.718.375-.933.404-1.095.77-.787.485-.32 1.49-.586.596.041.544-.048 1.085.36 1.038.666.34.4.647.96.23.59.106 1.05.146.537.009.525-.019.544.052 1.072-.126.539.04 1.012-.059.53.102.536-.408 2.297-.917 1.496-.45.303-.426.41-.486.24-.63.21-.616-.037-1.082.135zM32.169 60.262l.466.073 1.361-.437.725-.554.342-.431.36-.305.231-.402.176-.398.077-.547.15-.425-.053-.956.074-.517-.06-.459-.005-.554.104-.995-.116-.51.063-.567-.02-.456.01-.608.1-.455-.163-.948-.116-.49-.138-.41-.273-.383-.489-.883-.315-.276-1.286-.64-.98-.14-.93.067-.421.232-.459.194-1.044 1.129-.253.406-.373.884-.02 1.016-.062.541-.134.502.016.455-.024 1.05.02.485-.04.554-.173.996.085.512-.092.512.076.494-.054.58.048.406.2.443.133.534.227.375.352.342.754.565.457.14.48.242.474.041.532-.024zm.536.82l-.578-.09-.507.02-.722-.088-.486-.251-.553-.18-.437-.306-.43-.345-.468-.47-.32-.565-.127-.525-.231-.543-.056-.538.047-.56-.08-.525.089-.508-.086-.522.19-1.063.037-.487-.02-.47.022-1.042-.018-.55.152-.554.048-.451.051-1.194.426-.994.32-.51 1.259-1.326.501-.21.586-.294.548-.058.573-.018 1.178.177.478.203 1.01.546.47.435.51.923.326.479.164.494.228 1.065.094.596-.122.55-.002.477.016.495-.05.497.113.504-.113 1.088.005.461.07.513-.085.556.067 1.008-.188.534-.09.59-.216.481-.36.586-.378.32-.354.443-.948.693-1.553.502zM42.676 60.64l.467.037.427-.124.4-.195.488-.139.315-.222.322-.432.319-.267.353-.863.201-.406.09-.921-.037-.5.137-.51.01-.95-.1-.494.086-.503-.07-.437-.035-.576.078-.504-.146-1.004-.043-.542-.088-.396-.272-.37-.235-.476-.322-.34-.368-.285-.355-.341-.429-.135-.481-.096-.49-.05-.412.013-.429.173-.52.158-.402.162-.312.28-.788 1.218-.259.97-.115.969.063.548-.081.532.073.493-.026.614-.137 1.101-.022.52-.083.528.212 1.982.222.387.288.376.3.28.851.448.868.32.487-.032zm.542.772l-.549-.045-.574.037-1.07-.39-1.02-.551-.373-.357-.353-.457-.335-.65-.229-2.13.096-.593.076-1.062.082-.557.026-.508-.085-.529.083-.543-.062-.542.134-1.096.317-1.153.258-.458.666-.955.5-.42.492-.195.52-.159.583-.211.525-.014.572.057.552.11.627.198.451.434.38.296.461.508.228.471.344.514.113.52.108 1.083.1.563-.085.545.026.462.086.52-.085.493.082.436.002.57-.018.59-.118.437.028.436-.134 1.176-.416.889-.205.549-.428.362-.357.463-.527.346-.493.135-.394.193-.608.182zM52.444 60.966l.438.02.41-.169.448-.118.997-1.014.23-.33.109-.435.024-.441.135-.545.013-.455-.096-.556.096-.532-.09-.463-.021-.592.082-.593-.043-.929-.128-.541-.013-.463-.175-.42-.214-.338-.364-.279-.337-.346-.41-.125-.9-.199-.907.214-.422.152-.332.22-.215.39-.31.416-.157.44-.1.469-.18.493.007.432-.076 1.527.07.48-.072.546-.116.526-.004.427.043.458-.001.56.054.427.195.436.224.388.344.346.326.236.452.09.503.157.483.033zm.564.752l-1.224-.079-.505-.16-.636-.16-.434-.32-.477-.49-.265-.463-.263-.624-.063-.528v-.57l-.043-.464.01-.541.175-.982-.061-.457.072-1.555-.009-.551.213-.575.099-.463.24-.634.317-.417.27-.504.596-.381.49-.176.522-.143.62-.122 1.683.427.428.446.463.38.276.446.256.664.014.49.127.541.04 1.025-.081.602.017.47.11.536-.097.539.087.504-.029.646-.134.52-.023.438-.191.686-.299.422-.37.41-.808.798-.602.157-.51.212z"/>
        <path fill="#F7BFA0" d="M46.474 77.889L46.033 78.102 44.859 79.157 44.551 79.665 44.284 80.78 44.2 81.362 44.216 81.865 44.207 82.466 44.408 83.029 44.716 83.507 44.968 84.016 45.255 84.463 46.482 85.651 46.896 85.973 47.437 86.194 47.868 86.5 48.292 86.713 48.763 87.021 49.224 87.258 49.76 87.389 50.163 87.669 50.62 87.924 51.182 88.078 53.522 89.183 53.946 89.347 54.39 89.634 54.954 89.785 55.382 89.974 55.825 90.256 56.366 90.418 56.795 90.622 57.236 90.902 57.784 91.069 58.175 91.323 58.768 91.452 59.151 91.684 59.689 91.867 60.623 92.367 61.062 92.525 61.942 93.034 62.495 93.19 63.337 93.71 63.866 93.901 64.294 94.1 64.779 94.421 65.706 94.891 66.252 95.054 66.692 95.24 67.073 95.546 68.108 95.958 68.509 96.239 69.055 96.422 69.431 96.703 70.456 97.237 71.414 97.569 71.859 97.845 72.158 97.99 72.597 98.792 72.905 99.245 73.183 99.596 73.287 100.043 73.649 100.578 73.901 100.976 74.033 101.44 74.341 101.925 74.569 102.433 74.839 102.915 75.114 103.325 75.339 103.732 75.513 104.232 75.873 104.726 76.074 105.134 76.268 105.631 76.63 106.096 76.808 106.535 77.189 106.992 77.614 107.939 78.506 109.269 79.117 110.072 79.328 110.565 79.636 111.056 80.002 111.478 80.347 111.807 80.607 112.256 80.913 112.652 81.504 113.542 81.829 113.948 82.253 114.301 82.513 114.689 82.951 115.073 83.929 116.299 84.267 116.632 84.97 117.5 85.345 117.813 85.667 118.132 86.225 117.673 85.836 117.28 85.482 116.99 84.809 116.152 84.467 115.814 83.816 115.028 83.511 114.609 83.086 114.239 82.825 113.85 82.369 113.461 82.092 113.119 81.804 112.668 81.209 111.852 80.949 111.399 80.526 110.976 80.218 110.626 79.97 110.234 79.765 109.742 79.397 109.263 78.796 108.401 78.503 108.024 78.252 107.596 78.033 107.148 77.837 106.66 77.456 106.202 77.28 105.771 76.921 105.31 76.736 104.841 76.506 104.371 76.176 103.936 76 103.44 75.734 102.95 75.457 102.537 75.216 102.108 74.973 101.576 74.714 101.186 74.584 100.726 74.245 100.167 73.976 99.803 73.87 99.351 73.219 98.423 72.973 97.939 72.668 97.429 72.207 97.21 71.762 96.931 70.755 96.578 70.275 96.306 69.835 96.099 69.437 95.801 68.876 95.609 68.491 95.34 67.478 94.941 67.107 94.641 66.492 94.37 66.012 94.232 65.137 93.792 64.651 93.471 64.141 93.229 63.679 93.068 62.834 92.544 62.274 92.385 61.36 91.865 60.913 91.702 60.014 91.216 59.49 91.04 59.083 90.793 58.505 90.672 58.131 90.428 57.577 90.258 57.146 89.987 56.621 89.74 56.168 89.614 55.726 89.335 55.186 89.1 54.728 88.99 54.278 88.705 53.811 88.516 51.474 87.412 50.931 87.265 50.547 87.053 50.115 86.752 49.513 86.589 49.127 86.394 48.655 86.085 48.244 85.881 47.821 85.576 47.296 85.365 46.954 85.101 46.199 84.328 45.833 84.023 45.598 83.66 45.343 83.145 45.075 82.742 44.933 82.345 44.94 81.86 44.921 81.406 45.209 79.976 45.396 79.648 46.4 78.731 46.741 78.562 47.198 78.418 46.979 77.725z"/>
        <path fill="#F7BFA0" d="M74.938 88.817L73.448 88.297 73.012 88.066 72.463 88.065 71.954 87.787 71.001 87.565 70.453 87.361 69.947 87.11 69.507 86.984 69.028 86.794 68.472 86.69 67.507 86.333 66.96 86.232 66.476 86.027 64.502 85.418 63.504 84.88 63.11 84.737 62.466 84.625 61.614 84.124 61.074 83.979 60.601 83.749 60.155 83.624 59.635 83.418 59.174 83.134 58.714 83.004 56.779 82.11 56.199 81.959 55.798 81.722 55.248 81.62 54.761 81.413 53.823 80.924 52.737 80.607 52.284 80.316 51.855 80.152 51.273 80.02 50.875 79.774 50.415 79.689 49.861 79.494 49.38 79.233 48.912 79.097 48.396 78.897 47.814 78.735 47.386 78.461 46.417 78.111 45.819 77.975 45.405 77.716 44.939 77.576 44.342 77.31 43.946 77.023 43.492 76.841 42.984 76.555 42.084 75.861 41.534 75.537 40.861 74.686 40.5 74.049 40.408 73.503 40.239 73.065 40.115 72.483 40.076 71.894 40.138 70.634 40.413 70.051 41.431 68.751 41.855 68.453 42.925 67.956 43.43 67.859 43.97 67.802 44.547 67.845 45.082 67.805 45.599 67.966 46.167 67.999 46.675 68.137 47.69 68.517 48.177 68.665 48.655 68.884 49.133 68.958 49.676 69.094 50.215 69.323 50.675 69.611 51.651 69.93 53.133 70.506 54.012 71.012 54.576 71.143 54.969 71.376 55.525 71.512 55.969 71.77 56.37 71.953 56.95 72.1 57.392 72.368 57.813 72.53 58.27 72.656 58.771 72.834 59.262 73.056 59.795 73.201 60.189 73.445 60.628 73.555 61.243 73.685 61.614 73.924 62.045 73.972 62.575 74.07 63.194 74.283 63.589 74.528 64.134 74.626 64.576 74.828 65.574 75.047 66.657 75.462 67.058 75.698 67.622 75.824 68.049 76.061 69.12 76.366 69.528 76.632 69.983 76.773 70.541 76.882 71.508 77.259 72.022 77.533 72.468 77.69 73.015 77.831 73.922 78.278 74.499 78.397 75.43 78.855 75.889 78.991 76.862 79.448 77.418 79.606 77.823 79.824 78.285 79.88 78.199 80.601 77.54 80.497 77.113 80.266 76.572 80.114 75.636 79.672 75.174 79.533 74.214 79.068 73.64 78.95 72.737 78.503 72.258 78.385 71.726 78.194 71.211 77.92 70.3 77.568 69.81 77.477 69.174 77.269 68.777 77.009 67.734 76.717 67.322 76.488 66.744 76.357 66.321 76.108 65.86 75.95 65.352 75.735 64.311 75.507 63.878 75.308 63.27 75.185 62.849 74.924 62.394 74.772 61.293 74.581 60.914 74.336 60.482 74.266 59.855 74.092 59.463 73.848 59.025 73.74 58.5 73.507 57.071 73.017 56.628 72.754 56.104 72.63 55.636 72.415 55.211 72.171 54.651 72.031 54.261 71.801 53.687 71.665 52.81 71.156 52.363 70.953 51.915 70.814 50.91 70.438 50.331 70.252 49.877 69.963 49.443 69.781 48.988 69.669 48.398 69.566 47.919 69.343 46.95 69.024 46.447 68.825 46.018 68.711 45.429 68.674 44.996 68.539 44.54 68.57 43.976 68.525 43.105 68.661 42.218 69.078 41.895 69.311 41.003 70.477 40.832 70.861 40.8 71.892 40.832 72.388 40.934 72.866 41.104 73.315 41.202 73.857 41.451 74.267 42.061 75.031 42.48 75.257 43.381 75.948 43.806 76.188 44.334 76.407 44.735 76.698 45.187 76.895 45.747 77.073 46.146 77.323 46.611 77.413 47.741 77.826 48.153 78.089 48.615 78.205 49.146 78.41 49.692 78.577 50.159 78.834 50.603 78.99 51.199 79.12 51.598 79.367 52.058 79.458 52.613 79.672 53.078 79.964 54.13 80.264 55.067 80.754 55.491 80.934 56.107 81.063 56.518 81.305 57.073 81.443 57.54 81.688 58.484 82.088 58.971 82.327 59.513 82.49 59.963 82.774 60.39 82.938 60.86 83.073 61.356 83.308 61.919 83.464 62.782 83.966 63.321 84.04 63.808 84.222 64.78 84.75 66.727 85.346 67.203 85.547 67.685 85.631 68.706 86.001 69.262 86.105 69.746 86.299 70.213 86.438 70.744 86.697 71.2 86.87 71.656 86.954 72.263 87.128 72.648 87.339 73.193 87.339 73.743 87.635 75.151 88.121z"/>
        <path fill="#F7BFA0" d="M87.711 105.785L87.497 105.251 87.254 104.844 87.017 104.327 86.702 103.881 86.279 102.926 85.974 102.443 85.797 101.941 84.96 100.003 84.745 98.876 84.609 98.487 84.284 97.924 84.126 96.949 83.9 96.437 83.785 95.928 83.608 95.5 83.452 94.963 83.402 94.423 83.232 93.982 82.839 91.913 82.636 91.355 82.609 90.902 82.392 90.397 82.299 89.89 82.196 88.858 81.866 87.809 81.856 87.323 81.756 86.895 81.516 86.336 81.471 85.889 81.253 85.498 81.044 84.98 80.91 84.487 80.433 83.614 80.106 83.168 79.939 82.722 79.373 81.989 78.921 81.601 78.669 81.213 78.295 80.926 77.884 80.56 77.548 80.134 77.163 79.846 76.751 79.452 76.085 78.663 75.588 78.337 75.243 77.934 74.42 77.214 74.148 76.811 73.364 76.164 72.574 75.442 72.1 75.143 71.731 74.759 71.372 74.321 71.014 74.025 70.602 73.745 69.797 72.947 69.417 72.652 68.271 71.549 67.777 71.228 67.458 70.879 66.98 70.592 66.587 70.235 65.851 69.45 65.479 69.107 65.145 68.706 64.748 68.437 64.317 68.079 63.931 67.643 63.644 67.187 62.912 66.485 62.193 65.737 61.841 65.29 61.541 64.826 61.308 64.39 60.884 63.961 60.679 63.534 60.295 63.06 59.931 62.081 59.675 61.531 59.778 60.803 59.978 60.338 60.644 60.625 60.465 61.042 60.419 61.413 60.599 61.8 60.951 62.745 61.309 63.173 61.507 63.584 61.919 63.995 62.165 64.458 62.432 64.87 62.733 65.255 64.231 66.759 64.513 67.213 64.821 67.56 65.183 67.856 65.669 68.203 66.004 68.609 66.735 69.318 67.099 69.723 67.437 70.027 67.954 70.346 68.277 70.7 68.759 71.011 69.127 71.391 70.281 72.407 71.061 73.184 71.453 73.448 71.887 73.814 72.589 74.606 73.009 74.864 74.717 76.358 74.994 76.769 75.752 77.421 76.099 77.82 76.594 78.142 77.283 78.961 77.631 79.293 78.09 79.649 78.412 80.066 79.242 80.764 79.496 81.155 79.914 81.503 80.599 82.418 80.766 82.861 81.044 83.227 81.597 84.252 81.731 84.752 81.906 85.187 82.185 85.743 82.231 86.203 82.452 86.691 82.58 87.269 82.589 87.737 82.915 88.756 83.015 89.784 83.096 90.221 83.329 90.793 83.355 91.254 83.551 91.774 83.616 92.287 83.927 93.788 84.119 94.308 84.162 94.833 84.292 95.263 84.475 95.713 84.597 96.239 84.829 96.766 84.992 97.746 85.28 98.209 85.445 98.698 85.651 99.793 86.643 102.161 86.91 102.574 87.354 103.562 87.642 103.965 87.897 104.509zM95.612 75.66L95.083 75.497 94.569 75.512 93.935 75.378 93.494 75.181 92.399 74.995 90.993 74.385 90.368 74.253 89.96 74 89.403 73.832 87.563 72.752 87.034 72.5 86.635 72.144 85.792 71.665 85.323 71.297 84.831 71.027 84.444 70.664 84.115 70.301 83.603 70.056 83.196 69.717 82.463 68.848 81.315 67.824 80.929 67.445 80.593 67.053 80.203 66.764 79.461 65.983 79.012 65.646 78.664 65.258 78.307 64.928 77.948 64.465 77.618 64.114 77.251 63.844 76.783 63.426 76.528 63.072 76.042 62.84 75.677 62.34 74.623 61.311 74.24 61 73.756 60.657 73.476 60.304 73.002 60.037 71.915 58.995 71.411 58.723 71.121 58.286 70.628 58.031 69.904 57.29 69.534 57.027 69.122 56.658 68.664 56.348 68.349 56.005 67.948 55.776 67.518 55.46 67.172 55.253 66.806 55.178 66.339 55.253 65.868 55.223 65.447 55.335 65.262 54.632 65.796 54.491 66.305 54.523 66.822 54.441 67.491 54.598 67.919 54.856 68.343 55.168 68.845 55.472 69.167 55.824 69.563 56.083 69.99 56.463 70.378 56.744 71.097 57.472 71.613 57.714 71.914 58.17 72.371 58.428 73.456 59.47 73.996 59.793 74.287 60.16 74.669 60.415 75.491 61.119 76.225 61.868 76.517 62.261 77.009 62.496 77.346 62.967 78.101 63.576 78.501 63.996 78.842 64.441 79.181 64.749 79.525 65.132 79.976 65.47 80.675 66.215 81.117 66.549 81.458 66.949 82.979 68.342 83.704 69.203 84.026 69.464 84.602 69.758 84.96 70.155 85.29 70.464 85.719 70.692 86.188 71.059 86.599 71.269 87.069 71.565 87.472 71.92 87.91 72.117 88.846 72.688 89.734 73.185 90.297 73.354 90.689 73.598 91.224 73.695 92.654 74.313 93.741 74.496 94.193 74.697 94.63 74.784 95.182 74.768 95.675 74.918 96.125 74.862 96.678 74.849 96.692 75.576 96.177 75.585zM72.788 97.981L72.209 97.544 73.064 96.342 73.096 95.813 73.461 94.282 74.172 94.419 74.072 94.945 73.807 95.957 73.779 96.567 73.438 97.109z"/>
        <path fill="#F7BFA0" d="M75.456 90.865L74.731 90.85 74.742 90.368 75.102 88.388 75.501 87.385 75.975 87.01 76.242 86.727 76.411 86.311 76.674 85.872 76.78 85.425 77.485 85.594 77.322 86.201 77.056 86.638 76.814 87.179 76.461 87.548 76.095 87.84 75.798 88.596 75.743 89.033 75.459 90.447zM91.036 74.053L90.352 73.814 90.683 72.844 90.949 72.338 91.119 71.82 91.391 71.381 91.711 70.941 92.809 69.842 93.1 69.351 93.975 68.755 94.386 68.309 94.838 68.056 95.241 67.786 95.678 67.38 96.164 67.186 96.591 66.964 96.957 66.684 97.476 66.42 97.798 67.072 97.334 67.301 96.973 67.579 96.463 67.846 96.017 68.027 95.697 68.346 95.215 68.676 94.796 68.911 94.435 69.317 93.636 69.869 93.353 70.324 92.266 71.406 91.758 72.165 91.613 72.62 91.346 73.131zM76.368 62.121L75.795 61.677 76.129 61.243 76.35 60.81 76.51 60.385 76.56 59.883 76.705 59.306 76.813 58.28 76.784 57.25 77.508 57.235 77.534 58.315 77.417 59.428 77.272 60.011 77.204 60.599 77.008 61.109 76.737 61.634zM64.912 64.615l.409.057.974.202.403-.027.482-.24.422-.102 1.076-.93.299-.375.428-.782.1-1.464-.111-.96-.301-.874-.587-.694-.397-.264-.79-.77-1-1.127-.533-.326-.318-.413-.273-.276-.474-.26-.332-.315-.321-.198-.41-.053-.51-.154-.413-.027-1.355.377-.36.229-.385.394-.362.24-.21.376-.183.431-.248.433-.07.449.021.449.09.451.027.488.216.383.36.943.32.302.368.422.323.477.289.356.454.39.276.404.367.318.387.433.363.325.656.775.53.237.303.29zm1.35.99l-.554-.09-.525-.13-.602-.083-.42-.401-.51-.2-.75-.888-.355-.314-.38-.428-.431-.383-.273-.4-.426-.36-.332-.41-.314-.466-.316-.36-.42-.397-.39-1.039-.279-.488-.029-.61-.09-.457-.024-.574.13-.709.262-.453.18-.427.313-.565.474-.314.393-.4.508-.312.485-.167 1.079-.27.653.053.492.153.571.102.477.304.322.304.488.273.344.35.3.384.485.283.36.368.692.814.71.7.455.31.736.903.36 1.071.123 1.058-.145 1.732-.239.472-.279.469-.4.495-1.235 1.064-.543.13-.57.265-.56.039z"/>
        <path fill="#2C4349" d="M70.524 46.628L70.172 46.568 70.141 46.586 69.78 46.601 69.104 46.508 68.656 46.31 67.543 46.028 67.162 45.743 66.724 45.569 66.227 45.26 64.97 44.117 64.673 43.689 64.451 43.199 64.083 42.748 63.875 42.271 63.746 41.744 63.49 41.194 63.421 40.677 63.436 40.156 63.273 39.643 63.306 39.054 63.427 38.476 63.9 36.938 64.017 36.369 64.946 34.49 65.248 34.013 65.458 33.579 65.776 33.1 66.008 32.669 66.226 32.108 67.124 30.89 67.393 30.3 67.745 29.961 68.308 29.049 68.948 28.106 69.682 27.207 69.918 26.756 70.276 26.262 70.859 26.691 70.529 27.143 70.289 27.599 69.917 28.096 69.525 28.542 69.254 28.973 68.603 29.928 68.283 30.45 67.952 30.77 67.742 31.272 66.829 32.515 66.667 32.965 66.395 33.476 66.084 33.942 65.878 34.369 65.576 34.846 65.365 35.281 65.089 35.756 64.91 36.199 64.688 36.647 64.6 37.121 64.129 38.657 64.022 39.153 64.003 39.548 64.165 40.055 64.142 40.643 64.199 41.036 64.441 41.534 64.56 42.043 64.723 42.404 65.091 42.856 65.302 43.335 65.535 43.659 65.902 43.966 66.665 44.685 67.052 44.925 67.557 45.132 67.916 45.401 68.914 45.63 69.346 45.821 69.809 45.877 69.924 45.87 70.029 45.807 70.645 45.911zM70.816 25.366L70.465 25.306 70.434 25.324 70.072 25.339 69.397 25.246 68.948 25.049 67.836 24.767 67.455 24.481 67.017 24.307 66.52 23.999 65.263 22.855 64.966 22.427 64.744 21.938 64.376 21.486 64.168 21.009 64.039 20.483 63.782 19.932 63.714 19.415 63.729 18.895 63.566 18.382 63.599 17.792 63.72 17.214 64.193 15.676 64.31 15.107 65.238 13.228 65.541 12.751 65.751 12.317 66.069 11.838 66.301 11.407 66.518 10.847 67.417 9.628 67.686 9.039 68.037 8.699 68.6 7.787 69.241 6.844 69.974 5.945 70.211 5.494 70.569 5 71.152 5.43 70.822 5.881 70.582 6.337 70.209 6.834 69.818 7.28 69.547 7.711 68.895 8.666 68.576 9.188 68.244 9.508 68.034 10.01 67.121 11.254 66.96 11.703 66.688 12.214 66.376 12.68 66.171 13.107 65.869 13.584 65.658 14.019 65.382 14.494 65.203 14.937 64.981 15.385 64.893 15.859 64.422 17.395 64.314 17.891 64.295 18.286 64.458 18.794 64.435 19.382 64.491 19.774 64.734 20.273 64.853 20.781 65.016 21.142 65.384 21.594 65.594 22.073 65.828 22.398 66.194 22.704 66.957 23.423 67.344 23.663 67.849 23.87 68.209 24.14 69.206 24.368 69.639 24.56 70.101 24.616 70.216 24.608 70.321 24.545 70.938 24.65zM65.968 54.956L65.354 54.568 65.91 53.683 66.164 53.069 66.516 52.701 67.047 51.786 67.638 50.864 68.36 49.951 68.609 49.485 69.336 48.534 69.596 48.092 69.941 47.611 70.347 47.161 70.882 47.652 70.502 48.068 70.201 48.491 69.928 48.951 69.22 49.874 68.969 50.343 68.596 50.85 68.223 51.289 67.072 53.17 66.74 53.517 66.545 54.036z"/>
        <path fill="#F7BFA0" d="M40.486 73.795L40.048 73.522 39.566 73.114 39.236 72.64 39.037 72.18 38.851 71.609 38.861 71.045 39.016 69.895 39.288 69.377 40.088 68.443 40.67 68.083 41.292 67.935 41.839 67.922 42.435 67.784 43.063 68.027 42.802 68.706 42.377 68.541 41.926 68.64 41.353 68.661 40.907 68.773 40.529 69.023 39.872 69.808 39.691 70.166 39.584 71.092 39.577 71.501 39.714 71.924 39.885 72.315 40.126 72.65 40.47 72.932 40.868 73.177z"/>
    </g>
</svg>
