<svg xmlns="http://www.w3.org/2000/svg" width="49" height="35" viewBox="0 0 49 35">
    <g fill="none" fill-rule="evenodd" stroke="#F7BFA0" stroke-width="2.42">
        <path d="M3.102 1.21c-.8 0-1.044.047-1.293.18a.99.99 0 0 0-.419.419c-.133.249-.18.492-.18 1.293v24.73c0 .801.047 1.045.18 1.294a.99.99 0 0 0 .419.419c.249.133.492.18 1.293.18H45.6c.8 0 1.044-.047 1.293-.18a.99.99 0 0 0 .419-.419c.133-.249.18-.493.18-1.294V3.102c0-.8-.047-1.044-.18-1.293a.99.99 0 0 0-.419-.419c-.249-.133-.492-.18-1.293-.18H3.102zM20.65 31.337l-.556 2.225h8.514l-.556-2.225H20.65z"/>
    </g>
</svg>
