<svg xmlns="http://www.w3.org/2000/svg" width="106.174" height="141.99" viewBox="0 0 106.174 141.99">
  <g id="Group_11464" data-name="Group 11464" transform="translate(-696.077 -839.903)">
    <g id="Group_11430" data-name="Group 11430" transform="translate(696.077 839.903)">
      <path id="Path_53" data-name="Path 53" d="M705.824,878.346c-1.706,1.859-3.861,3.488-5.748,5.172a6.325,6.325,0,0,0-2.7,5.789.431.431,0,0,0,.8.215c.6-.948,1.552-1.763,2.242-2.664.8-1.047,1.631-1.993,2.524-2.956a17.888,17.888,0,0,0,3.257-5.272C706.3,878.405,706.018,878.135,705.824,878.346Z" transform="translate(-694.843 -802.618)" fill="#213439"/>
      <path id="Path_54" data-name="Path 54" d="M709.291,900.386c-3.368-1.751-7.81-1.8-9.421-5.621a29.467,29.467,0,0,1-1.54-9.845.228.228,0,0,0-.235-.219.222.222,0,0,0-.183.1,11.325,11.325,0,0,0-.635,11.251c2.638,3.683,7.734,4.143,11.7,5.075C709.409,901.232,709.716,900.607,709.291,900.386Z" transform="translate(-696.077 -796.369)" fill="#213439"/>
      <path id="Path_55" data-name="Path 55" d="M731.344,874.414a80.357,80.357,0,0,0-9.782,14.562c-1.282,2.465-2.875,5.227-4.125,8.073a9.584,9.584,0,0,0-4.308-6.089,14.148,14.148,0,0,0-4.965-2.5c-1.859-.384-3.715.089-5.576-.11l-.014.1a25.818,25.818,0,0,1,14.213,10.171,19.722,19.722,0,0,0-1.4,5.846c-.036.631.793.739,1.1.3a29.848,29.848,0,0,0,2.948-6.578c1.165-3.011,2.476-5.947,3.926-8.832,2.526-5.024,5.243-10.007,8.112-14.842Z" transform="translate(-689.764 -806.365)" fill="#213439"/>
      <path id="Path_56" data-name="Path 56" d="M709.011,894.563a36.34,36.34,0,0,0-3.607,8.952,15.193,15.193,0,0,0-.639,8.712.586.586,0,0,0,1.059.138,26.5,26.5,0,0,0,1.54-8.311c.5-3.129,1.217-6.278,1.962-9.356a.173.173,0,0,0-.126-.211A.17.17,0,0,0,709.011,894.563Z" transform="translate(-687.983 -786.865)" fill="#213439"/>
      <path id="Path_57" data-name="Path 57" d="M714.411,910.571a38.933,38.933,0,0,1-5-1.453,9.355,9.355,0,0,1-3.476-3.664.319.319,0,0,0-.59.16,6.6,6.6,0,0,0,2.8,5.677,5.238,5.238,0,0,0,6.574.436C715.161,911.378,714.847,910.725,714.411,910.571Z" transform="translate(-687.074 -776.344)" fill="#213439"/>
      <path id="Path_58" data-name="Path 58" d="M733.757,877.319c-3.7,7.661-6.55,15.865-9.622,23.807a186.952,186.952,0,0,0-9.327,25.068.767.767,0,0,0,1.394.588,120.684,120.684,0,0,0,9.934-23.816,179.669,179.669,0,0,0,7.808-25.57Z" transform="translate(-677.895 -803.542)" fill="#213439"/>
      <path id="Path_59" data-name="Path 59" d="M733.134,869.723c-2.37.9-3.92,3.709-5.125,5.8a19.642,19.642,0,0,0-2.869,8.183.513.513,0,0,0,.949.256c1.2-2.5,2.1-5.123,3.453-7.544a32.525,32.525,0,0,0,3.881-6.4C733.465,869.849,733.305,869.656,733.134,869.723Z" transform="translate(-667.833 -810.937)" fill="#213439"/>
      <path id="Path_60" data-name="Path 60" d="M751.137,873.267a30.094,30.094,0,0,0-8.1,15.853c.1-1.191.2-2.382.288-3.575l-.081-.012c-3.056,10.618-6,21.287-8.287,32.111a82.491,82.491,0,0,1-3.762,14.582c-1.707,4.131-4.687,7.694-6.193,11.866-.309.858.729,1.429,1.422,1.09a16.018,16.018,0,0,0,6.755-10.229c1.575-5.044,2.956-10.177,4.4-15.26,1.047-3.674,1.924-7.381,2.68-11.107A97.468,97.468,0,0,0,743.91,893.8a71.417,71.417,0,0,1,7.467-20.349.153.153,0,0,0-.063-.207A.155.155,0,0,0,751.137,873.267Z" transform="translate(-668.025 -807.519)" fill="#213439"/>
      <path id="Path_61" data-name="Path 61" d="M729.22,884.948c-2.173,5.852-4.109,11.787-6.324,17.624q-1.553,4.088-3.232,8.128a22.857,22.857,0,0,0-2.638,8.524.947.947,0,0,0,1.6.662,18.116,18.116,0,0,0,3.567-7.2c1-2.94,1.909-5.913,2.788-8.893a154.314,154.314,0,0,0,4.533-18.76.153.153,0,0,0-.294-.083Z" transform="translate(-675.718 -796.236)" fill="#213439"/>
      <path id="Path_62" data-name="Path 62" d="M730.6,913.088c-1.065.022-2.1.341-3.153.359a6.537,6.537,0,0,1-4.545-2.2,15.344,15.344,0,0,0-4.277-2.816,8.255,8.255,0,0,0-7.394,1.075l.109.26a10.115,10.115,0,0,1,6.8,1.41,32.937,32.937,0,0,0,4.164,3.12,9.335,9.335,0,0,0,8.781.59.974.974,0,0,0-.489-1.8Z" transform="translate(-681.354 -773.724)" fill="#213439"/>
      <path id="Path_63" data-name="Path 63" d="M744.08,907.2a16.5,16.5,0,0,1-7.96,2.92,16.8,16.8,0,0,0-7.414,1.932.225.225,0,0,0,.113.416,64.912,64.912,0,0,0,10.845-.223c3.054-.631,4.007-2.025,4.758-4.849a.2.2,0,0,0-.341-.2Z" transform="translate(-664.472 -774.562)" fill="#213439"/>
      <path id="Path_64" data-name="Path 64" d="M748.537,877.138a.319.319,0,0,0-.4-.211.324.324,0,0,0-.211.211,24.721,24.721,0,0,0-.864,6.158c-.244,2.238-.728,4.434-1,6.667-.609,4.969-1.1,9.839-2.055,14.763-1.765,9.167-4.206,18.18-6.33,27.266l.075.031a98.083,98.083,0,0,0,5.915-16.409,17.911,17.911,0,0,1-1,11.375c-.213.333.252.653.528.406a10.264,10.264,0,0,0,3-8.94,133.235,133.235,0,0,1,.028-13.519l-.063-.347c.828-4.44,1.666-8.934,2.2-13.416.288-2.433.237-4.829.323-7.27A22.186,22.186,0,0,0,748.537,877.138Z" transform="translate(-655.649 -803.937)" fill="#213439"/>
      <path id="Path_65" data-name="Path 65" d="M751.8,910.1c-4.32,3.457-9.668-3.453-14.223-1.3l.01.075a36.257,36.257,0,0,1,5.5,2,13.959,13.959,0,0,0,3.991,1.587,6.567,6.567,0,0,0,5.229-1.861C752.646,910.284,752.15,909.823,751.8,910.1Z" transform="translate(-655.746 -773.36)" fill="#213439"/>
      <path id="Path_66" data-name="Path 66" d="M751.38,907.869c-.035-1.775.414-3.435.264-5.251a35.231,35.231,0,0,0-.51-3.829,40.82,40.82,0,0,0-3.193-9.461l-.13.055a44.327,44.327,0,0,1,2.055,9.577,26.873,26.873,0,0,1-.071,10.476c-1.865,5.324-2.337,11.119-4.407,16.358-.071.185.2.262.3.126a34.183,34.183,0,0,0,4.951-8.372,18.909,18.909,0,0,0,1.24-5.1A40.54,40.54,0,0,0,751.38,907.869Z" transform="translate(-648.168 -791.871)" fill="#213439"/>
      <path id="Path_67" data-name="Path 67" d="M710.812,862.076a43.614,43.614,0,0,0-7.322,16.048,21.377,21.377,0,0,0,.708,15.715.249.249,0,0,0,.343.079.256.256,0,0,0,.1-.136,19.5,19.5,0,0,0,.3-6.628,58.655,58.655,0,0,1,.522-8.21,46.791,46.791,0,0,1,5.64-16.693.171.171,0,0,0-.061-.237A.174.174,0,0,0,710.812,862.076Z" transform="translate(-690.005 -818.437)" fill="#213439"/>
      <path id="Path_68" data-name="Path 68" d="M717.491,856.005a92.43,92.43,0,0,0-7.341,26.235,61.674,61.674,0,0,0-.7,26.424c.162.546,1.057.619,1.177,0,1.729-8.761.385-17.709,1.7-26.45,1.323-8.8,3.372-17.435,5.5-26.069C717.874,855.952,717.582,855.808,717.491,856.005Z" transform="translate(-684.155 -824.346)" fill="#213439"/>
      <path id="Path_69" data-name="Path 69" d="M726.408,851.966a44.066,44.066,0,0,0-2.741,8.767l-.335,1.244a16.185,16.185,0,0,0-1.6-8.081c-.124-.241-.562-.14-.53.144a62.53,62.53,0,0,1-1.181,18.838,62.048,62.048,0,0,0-3.187,18.805c.089.7,1.081,1.183,1.479.4a72.569,72.569,0,0,0,3.729-20.85l.087-.138a70.9,70.9,0,0,0,2.78-10.023,37.274,37.274,0,0,0,1.538-9.1Z" transform="translate(-675.908 -828.18)" fill="#213439"/>
      <path id="Path_70" data-name="Path 70" d="M729.925,848.633a.247.247,0,0,0-.308-.164.243.243,0,0,0-.164.164,107.513,107.513,0,0,0-1.619,21.725,78.412,78.412,0,0,1-.276,11.328,26.667,26.667,0,0,0-.382,10.5.729.729,0,0,0,1.394,0,25.6,25.6,0,0,0,.913-10.368,102.142,102.142,0,0,1,.83-11.458A86.25,86.25,0,0,0,729.925,848.633Z" transform="translate(-666.194 -831.589)" fill="#213439"/>
      <path id="Path_71" data-name="Path 71" d="M732.047,874.847q-.373-4.519-.759-9.035c-.515-6.024-.755-12.058-.948-18.1a.3.3,0,0,0-.592,0c-.406,6.239-.513,12.491-.463,18.744.024,3.015.164,6.028.394,9.033a21.764,21.764,0,0,0,1.219,7.457.751.751,0,0,0,1.36-.179A26.478,26.478,0,0,0,732.047,874.847Z" transform="translate(-663.817 -832.587)" fill="#213439"/>
      <path id="Path_72" data-name="Path 72" d="M744.776,881.686c-.781-4.1-1.217-8.27-1.968-12.379a64.021,64.021,0,0,0-7.52-23.208.143.143,0,0,0-.26.11c1.38,7.992,3.91,15.771,5.418,23.751A111.726,111.726,0,0,1,742.4,882.6a27.031,27.031,0,0,0,1.674,10.581,1.037,1.037,0,0,0,1.428.341,1.054,1.054,0,0,0,.451-.586A27.716,27.716,0,0,0,744.776,881.686Z" transform="translate(-658.229 -833.949)" fill="#213439"/>
      <path id="Path_73" data-name="Path 73" d="M756.865,869.959a12.7,12.7,0,0,0-3.741-9.92,16.182,16.182,0,0,0-10.362-2.573l-.018.118c3.685,1.207,7.8,1.508,10.074,5.152,2.36,3.794.836,8.824.68,12.967a11.719,11.719,0,0,1-1.217,6.24,29.077,29.077,0,0,1-4.389,5.216,8.383,8.383,0,0,0-2.855,7.637.513.513,0,0,0,.98,0c.976-3.258,3.6-4.51,5.789-6.763a12.746,12.746,0,0,0,3.052-5A33.814,33.814,0,0,0,756.865,869.959Z" transform="translate(-650.725 -822.903)" fill="#213439"/>
      <path id="Path_74" data-name="Path 74" d="M747.718,871.62c-1.7-1.219-3.912-1.439-5.708-2.552a.226.226,0,0,0-.329.252,5.247,5.247,0,0,0,2.228,3.047,3.475,3.475,0,0,0,3.81.4.662.662,0,0,0,.258-.9A.574.574,0,0,0,747.718,871.62Z" transform="translate(-651.766 -811.588)" fill="#213439"/>
      <path id="Path_75" data-name="Path 75" d="M730.3,841.96c.221-1.656,4.458-2.151,5.6-2.043a43.123,43.123,0,0,1,5.081,20.217c.621,10.324-7.006,9.469-8.605,8.173A46.915,46.915,0,0,1,730.3,841.96Z" transform="translate(-663.788 -839.903)" fill="#f7bfa0"/>
      <path id="Path_76" data-name="Path 76" d="M749.711,872.969c-.156-1.668-4.809-2.409-6.075-2.37a40.069,40.069,0,0,0-6.69,19.889c-1.238,10.271,7.231,9.867,9.064,8.668A42.775,42.775,0,0,0,749.711,872.969Z" transform="translate(-656.48 -810.074)" fill="#f7bfa0"/>
      <path id="Path_77" data-name="Path 77" d="M742.638,868.66c-.036-1.674-4.62-2.755-5.884-2.808a40.075,40.075,0,0,0-8.122,19.347c-1.984,10.155,6.491,10.37,8.408,9.309A42.782,42.782,0,0,0,742.638,868.66Z" transform="translate(-664.73 -814.686)" fill="#f7bfa0"/>
      <path id="Path_78" data-name="Path 78" d="M732.682,872.686c.148-1.668-4.3-3.238-5.545-3.427a40.073,40.073,0,0,0-10.166,18.358c-3.068,9.881,5.332,11.008,7.355,10.161A42.792,42.792,0,0,0,732.682,872.686Z" transform="translate(-676.42 -811.375)" fill="#f7bfa0"/>
      <path id="Path_79" data-name="Path 79" d="M747.507,885.616c-.452-1.258-3.579-.956-4.377-.686a36.83,36.83,0,0,0-.073,16.6c1.378,8.157,6.7,6.251,7.615,4.981A40.613,40.613,0,0,0,747.507,885.616Z" transform="translate(-651.308 -796.378)" fill="#f7bfa0"/>
      <path id="Path_80" data-name="Path 80" d="M727.487,841.784c.672-1.41,4.854-.586,5.913-.15a38.242,38.242,0,0,1-.775,19.519c-2.277,9.38-9.319,6.343-10.486,4.715A41.072,41.072,0,0,1,727.487,841.784Z" transform="translate(-670.898 -838.841)" fill="#f7bfa0"/>
      <path id="Path_81" data-name="Path 81" d="M720.492,848.091c.808-1.337,4.89-.106,5.9.434a38.225,38.225,0,0,1-2.69,19.349c-3.19,9.11-9.9,5.395-10.9,3.658A41.086,41.086,0,0,1,720.492,848.091Z" transform="translate(-679.823 -832.529)" fill="#f7bfa0"/>
      <path id="Path_82" data-name="Path 82" d="M717.028,862.665l.057-.347a39.994,39.994,0,0,1,2.7-5.336q.3-.95.674-1.871c-.954-.477-2.2-.86-2.745-.274a38.148,38.148,0,0,0-10.389,16.423c.278,1.355,3.766,4.691,7.795-.966l.032-.233a23.31,23.31,0,0,1,1-5,2.776,2.776,0,0,1,.538-.741A2.856,2.856,0,0,1,717.028,862.665Z" transform="translate(-685.148 -825.678)" fill="#f7bfa0"/>
      <path id="Path_83" data-name="Path 83" d="M738.736,859.8c1.26-2.731,4.588-2.745,9.175-1.161s7.3,4.314,6,9.672-3.2,5.464-5.3,5.673a9.7,9.7,0,0,1-8.51-4.517A16.641,16.641,0,0,1,738.736,859.8Z" transform="translate(-654.821 -822.732)" fill="#f7bfa0"/>
      <path id="Path_84" data-name="Path 84" d="M701.147,895.057a8.678,8.678,0,0,1,3.2-9.8c2.979-2.157,6.324-1.236,10.084,2.692s2.173,5.529,2.173,5.529a42.757,42.757,0,0,0-2.005,8.763C714.435,905.589,702.734,899.236,701.147,895.057Z" transform="translate(-691.577 -796.928)" fill="#f7bfa0"/>
    </g>
  </g>
</svg>
