<svg xmlns="http://www.w3.org/2000/svg" width="141.373" height="106.505" viewBox="0 0 141.373 106.505">
  <g id="Group_11461" data-name="Group 11461" transform="translate(0 1.639)">
    <g id="Group_1" data-name="Group 1" transform="translate(0 10.069)">
      <path id="Path_7" data-name="Path 7" d="M1122.579,667.378c-.652-2.56-3.1-4.147-4.586-6.2a34.414,34.414,0,0,1-3.639-8.942c-.459-1.244-.985-2.449-1.529-3.655a4.127,4.127,0,0,1,.691-5.044,12.783,12.783,0,0,0,3.715-5.31c.054-.3-.324-.575-.553-.313a31.1,31.1,0,0,0-4.854,6.135,9.569,9.569,0,0,0,.228,7.413c.349,1.116.685,2.285,1.11,3.4a12.215,12.215,0,0,0-3.051,3.839,30.2,30.2,0,0,1-5.226,5.227c-1.682,1.409-3.322,2.824-4.865,4.386-.7.71-1.453,1.37-2.149,2.082a7.52,7.52,0,0,1-2.711,2.352c-.1.033-.088.208.028.192a9.654,9.654,0,0,0,4.443-2.446c1.925-1.525,3.8-3.1,5.741-4.6a59.02,59.02,0,0,0,6.084-5.32,12.993,12.993,0,0,0,2.694-3.559c.641,1.233,1.35,2.442,1.935,3.711a33.256,33.256,0,0,0,5.712,7.113C1122.114,668.212,1122.687,667.8,1122.579,667.378Z" transform="translate(-1095.092 -604.254)" fill="#213439"/>
      <path id="Path_8" data-name="Path 8" d="M1122.156,663.507a36.747,36.747,0,0,0-3.788-8.658,31.267,31.267,0,0,1-2.081-7.964,55.588,55.588,0,0,1-2.418-8.2,18.468,18.468,0,0,1,.425-4.6c.271-1.241,1.161-2.118,1.533-3.3.111-.354-.336-.513-.572-.324a6.926,6.926,0,0,0-2.726,2.925,7.36,7.36,0,0,0-.258,3.657c.431,3.093,1.2,6.128,1.813,9.187.588,2.938,1.3,5.98,2.13,8.862a24.127,24.127,0,0,0,5.526,8.656C1121.912,663.953,1122.205,663.731,1122.156,663.507Z" transform="translate(-1089.513 -606.685)" fill="#213439"/>
      <path id="Path_9" data-name="Path 9" d="M1128.672,656.794a8.379,8.379,0,0,0-1.653-6.423,23.224,23.224,0,0,1-2.253-9.227,28.183,28.183,0,0,1,.232-8.964,15.816,15.816,0,0,0,.546-3.283,13.742,13.742,0,0,1,.325-4.127c.094-.284-.3-.378-.45-.178a10.231,10.231,0,0,0-1.94,6.777,25.4,25.4,0,0,1-.357,3.181,8.259,8.259,0,0,0-7.121-2.6l-.02.167a8.8,8.8,0,0,1,4.463,2.314,21.787,21.787,0,0,1,2.244,2.758,19.75,19.75,0,0,0-.253,3.324,74.7,74.7,0,0,0,5.523,16.388.4.4,0,0,0,.547.121A.391.391,0,0,0,1128.672,656.794Z" transform="translate(-1088.261 -608.613)" fill="#213439"/>
      <path id="Path_10" data-name="Path 10" d="M1128.154,655.527a11.34,11.34,0,0,0-.55-2.106,13.111,13.111,0,0,1-.952-1.843c-.026-.132-.23-.1-.227.032.011.536-.188,1.044-.167,1.589a9.345,9.345,0,0,0,.31,1.722,10.711,10.711,0,0,1,.341,3.292.336.336,0,0,0,.5.284A2.891,2.891,0,0,0,1128.154,655.527Z" transform="translate(-1084.9 -599.78)" fill="#213439"/>
      <path id="Path_11" data-name="Path 11" d="M1131.131,623.749a4.462,4.462,0,0,0-7.374.077.129.129,0,0,0,.146.186,14.573,14.573,0,0,1,1.8-.584,5.5,5.5,0,0,1,1.823.228c1.126.212,2.244.508,3.387.624C1131.218,624.309,1131.273,623.931,1131.131,623.749Z" transform="translate(-1085.722 -609.479)" fill="#213439"/>
      <path id="Path_12" data-name="Path 12" d="M1134.519,644.757c-.779-2.32-1.446-4.666-2.208-6.995a11,11,0,0,1-.981-4.328c.089-1.209.2-2.437.3-3.652.111-1.322.329-2.635.425-3.956.1-1.385-.122-2.766-.04-4.152a4.3,4.3,0,0,1,2.171-3.975,3.894,3.894,0,0,0,1.712-1.647c.048-.1-.037-.246-.161-.2-1.923.656-4,1.4-4.654,3.522a24.84,24.84,0,0,0-.309,4.787c-.18,1.693-.6,3.364-.787,5.064a15.913,15.913,0,0,0-.014,4.233c.243,1.619.011,3.268.3,4.874a10.405,10.405,0,0,0,3.727,6.833.357.357,0,0,0,.484-.145A.363.363,0,0,0,1134.519,644.757Z" transform="translate(-1083.727 -611.441)" fill="#213439"/>
      <path id="Path_13" data-name="Path 13" d="M1133.784,654.038a24.388,24.388,0,0,0-.268-7.118c-.525-2.709-1.194-5.419-1.5-8.164a.1.1,0,0,0-.207,0,37.437,37.437,0,0,0,.236,7.7c.3,2.549.99,5.061,1.28,7.587a.232.232,0,0,0,.463-.008Z" transform="translate(-1083.117 -603.978)" fill="#213439"/>
      <path id="Path_14" data-name="Path 14" d="M1143.241,623.242a13.438,13.438,0,0,0-2.171-4.731,8.257,8.257,0,0,0-5.134-2.414l-.08.2a17.041,17.041,0,0,1,4.62,3.558c.832,1.306,1.012,2.643,2.176,3.734C1142.892,623.814,1143.367,623.591,1143.241,623.242Z" transform="translate(-1081.76 -611.357)" fill="#213439"/>
      <path id="Path_15" data-name="Path 15" d="M1181.417,613.086a7.79,7.79,0,0,0-3.892,1.535c-1.644,1.052-3.294,2.1-4.892,3.218-1.912,1.343-3.416,3.153-5.336,4.472-1.888,1.3-3.924,2.357-5.863,3.57-3.573,2.236-7,4.723-10.6,6.918,1.007-1.055,1.985-2.147,2.97-3.229a66.283,66.283,0,0,1,6.723-5.04,14.132,14.132,0,0,0,4.036-6.016l-.113-.064c-.846,1.038-1.491,2.225-2.418,3.2a20.974,20.974,0,0,1-3.441,2.641c-2.077,1.426-3.993,3.024-5.924,4.641-2.087,1.748-3.916,3.811-6.1,5.452a25.256,25.256,0,0,0-5.774,4.492l-.065.174-.056.053a19.727,19.727,0,0,1-.541-3.191c-.114-1.907.045-3.818.019-5.724a25.2,25.2,0,0,0-.093-5.393.123.123,0,0,0-.154-.081.117.117,0,0,0-.069.054,18.455,18.455,0,0,0-1.614,10.5,22.743,22.743,0,0,0,1.055,4.777,19.468,19.468,0,0,1,.594,5.8.25.25,0,0,0,.494.057,9.137,9.137,0,0,0,.751-4.577l-.08-.482c.644-.378,1.35-.539,2.021-.861a24.1,24.1,0,0,0,2.474-1.572c1.675-1.079,3.151-2.284,4.71-3.511a63.352,63.352,0,0,1,5.831-3.534c1.894-1.186,3.685-2.525,5.535-3.779,1.793-1.216,3.606-2.4,5.384-3.638a41.1,41.1,0,0,0,4.451-3.823,46.229,46.229,0,0,1,5-4.1,15.721,15.721,0,0,1,4.986-2.824Z" transform="translate(-1081.044 -612.341)" fill="#213439"/>
      <path id="Path_16" data-name="Path 16" d="M1176.344,667.991c-1.892,1.5-3.234,3.5-4.993,5.139a23.1,23.1,0,0,1-6.643,3.676,47.705,47.705,0,0,0-5.844,2.981c-1.911,1.183-3.7,2.577-5.672,3.651a42.143,42.143,0,0,1-13.016,2.828,30.164,30.164,0,0,0-10.631,2.823l.068.115a35.976,35.976,0,0,1,12.641-.987,22.369,22.369,0,0,0,6.728-.913,49.293,49.293,0,0,0,5.619-2.717c1.965-1.083,3.863-2.271,5.8-3.393,2.017-1.169,4.183-2,6.264-3.038a34.142,34.142,0,0,0,10.03-9.811.25.25,0,0,0-.354-.353Z" transform="translate(-1083.824 -594.406)" fill="#213439"/>
      <path id="Path_17" data-name="Path 17" d="M1176.921,658.492a15.923,15.923,0,0,0-8.228,1.959,41.532,41.532,0,0,0-6.944,5.6,35.979,35.979,0,0,1-17.118,6.41v.106a23.049,23.049,0,0,0,8.037.33,13.759,13.759,0,0,0,7.093-3.518,43.9,43.9,0,0,1,17.211-10.533.184.184,0,0,0,.118-.231A.181.181,0,0,0,1176.921,658.492Z" transform="translate(-1078.89 -597.494)" fill="#213439"/>
      <path id="Path_18" data-name="Path 18" d="M1169.756,658.654l-.02.033Z" transform="translate(-1070.679 -597.438)" fill="#213439"/>
      <path id="Path_19" data-name="Path 19" d="M1201.618,629.882l-.1-.054a33.346,33.346,0,0,1-13.828,11.308,161.859,161.859,0,0,0-14.6,9.62,150.983,150.983,0,0,0-15.428,12.538,75.5,75.5,0,0,0-7.022,7.118,25.078,25.078,0,0,0-5.1,8.013.369.369,0,0,0,.615.346c2.306-2.49,4.255-5.258,6.63-7.709,2.412-2.492,4.824-4.975,7.406-7.295,5.051-4.535,10.687-8.327,15.753-12.826C1184.253,643.572,1196.359,640.283,1201.618,629.882Z" transform="translate(-1078.594 -606.866)" fill="#213439"/>
      <path id="Path_20" data-name="Path 20" d="M1169.973,636.791a40.954,40.954,0,0,1-10.765,6.191c-1.758.757-3.408,1.723-5.116,2.58a17.68,17.68,0,0,0-4.462,2.825c-1.014.974.462,2.313,1.5,1.5a44.709,44.709,0,0,1,4.768-2.817c1.79-1.074,3.542-2.21,5.331-3.289a50.188,50.188,0,0,0,8.973-6.757C1170.362,636.875,1170.133,636.656,1169.973,636.791Z" transform="translate(-1077.366 -604.602)" fill="#213439"/>
      <path id="Path_21" data-name="Path 21" d="M1188.14,625.7c-3.075,2.4-7.067,3.6-10.334,5.787-3.141,2.1-5.974,4.7-9.276,6.549l.033.077a57.316,57.316,0,0,0,10.11-5.759c1.636-1.064,3.392-1.9,5.095-2.844a22.032,22.032,0,0,0,4.58-3.6C1188.486,625.776,1188.285,625.593,1188.14,625.7Z" transform="translate(-1071.074 -608.226)" fill="#213439"/>
      <path id="Path_22" data-name="Path 22" d="M1167.65,629.292a91.174,91.174,0,0,1-13.456,7.023c-2.352,1.008-4.686,2.036-6.984,3.158a15.746,15.746,0,0,0-5.725,3.976c-.167.214-.023.619.3.508a90.641,90.641,0,0,0,13.2-6.3c2.288-1.24,4.641-2.373,6.9-3.672,2.143-1.236,4.008-2.847,6.027-4.265C1168.162,629.542,1167.923,629.116,1167.65,629.292Z" transform="translate(-1079.942 -607.055)" fill="#213439"/>
      <path id="Path_23" data-name="Path 23" d="M1181.037,619.484c-3.226,1.81-6.19,4-9.385,5.843a58.981,58.981,0,0,0-8.687,5.782l.089.114a76.519,76.519,0,0,1,9.765-5.3,48.646,48.646,0,0,0,8.335-6.284Z" transform="translate(-1072.894 -610.249)" fill="#213439"/>
      <path id="Path_24" data-name="Path 24" d="M1192.214,619.9a.142.142,0,0,0-.106-.17.138.138,0,0,0-.066,0c-.687.188-.92.605-1.315,1.184a20.7,20.7,0,0,1-2.769,3.452c-2.088,2-4.536,3.582-6.776,5.4-4.694,3.818-15.179,10.642-14.764,10.468a104.736,104.736,0,0,0,15.134-9.4A21.533,21.533,0,0,0,1192.214,619.9Z" transform="translate(-1071.768 -610.169)" fill="#213439"/>
      <path id="Path_25" data-name="Path 25" d="M1177.12,617.114l-.113-.064a74.21,74.21,0,0,1-5.787,5.607c-2.1,1.7-4.041,3.526-6.07,5.3-.1.085.028.227.132.171a28.4,28.4,0,0,0,7.012-4.87A16.636,16.636,0,0,0,1177.12,617.114Z" transform="translate(-1072.191 -611.045)" fill="#213439"/>
      <path id="Path_26" data-name="Path 26" d="M1157.027,615.162a17.61,17.61,0,0,1-4.853,2.364,28.135,28.135,0,0,0-4.146,2.366,44.92,44.92,0,0,0-6.815,5.341c-.277.277.076.667.4.518,1.559-.726,2.763-1.91,4.26-2.745a26.334,26.334,0,0,0,3.354-2.164,55.337,55.337,0,0,0,7.887-5.595Z" transform="translate(-1080.04 -611.663)" fill="#213439"/>
      <path id="Path_27" data-name="Path 27" d="M1153.72,629.821c-.021-.731-1-1.161-1.615-1.182a2.023,2.023,0,0,0-1.553.454.341.341,0,0,0,.156.563,2.271,2.271,0,0,1,.664.227,4.411,4.411,0,0,0,.783.468C1152.653,630.551,1153.743,630.649,1153.72,629.821Z" transform="translate(-1076.984 -607.256)" fill="#213439"/>
      <path id="Path_28" data-name="Path 28" d="M1162,634.746a2.652,2.652,0,0,0-2.625-1.723.888.888,0,0,0-.421,1.648c.787.459,1.672,1.155,2.626.818A.621.621,0,0,0,1162,634.746Z" transform="translate(-1074.347 -605.822)" fill="#213439"/>
      <path id="Path_29" data-name="Path 29" d="M1167.776,642.126a3.444,3.444,0,0,0-3.553-3.034.68.68,0,0,0-.471.833,4.245,4.245,0,0,0,1.456,1.6,4.846,4.846,0,0,0,1.886,1.136.552.552,0,0,0,.666-.406A.572.572,0,0,0,1167.776,642.126Z" transform="translate(-1072.644 -603.837)" fill="#213439"/>
      <path id="Path_30" data-name="Path 30" d="M1116.154,654.15c-1.5.831-2.227,2.524-.159,5.247s2.758,4.8,5.045,3.283,2.423-2.077.3-4.96S1118.373,652.918,1116.154,654.15Z" transform="translate(-1088.673 -599.035)" fill="#f6b08e"/>
      <path id="Path_31" data-name="Path 31" d="M1122.319,650.574c-2,.608-3.307,2.444-1.537,6.228s2.062,6.436,5.185,5.218,3.429-1.861,1.63-5.851S1125.286,649.672,1122.319,650.574Z" transform="translate(-1086.962 -600.141)" fill="#f6b08e"/>
      <path id="Path_32" data-name="Path 32" d="M1129.291,643.966c-2.057.369-3.573,2.04-2.256,6s1.3,6.635,4.539,5.79,3.623-1.446,2.3-5.62S1132.341,643.418,1129.291,643.966Z" transform="translate(-1084.806 -602.266)" fill="#f6b08e"/>
      <path id="Path_33" data-name="Path 33" d="M1135.593,631.315c-2.058.369-3.573,2.04-2.256,6s1.3,6.634,4.539,5.789,3.623-1.445,2.3-5.619S1138.643,630.767,1135.593,631.315Z" transform="translate(-1082.745 -606.404)" fill="#f6b08e"/>
      <path id="Path_34" data-name="Path 34" d="M1178.072,623.413c1,1.833,3.067,2.742,6.411.236s5.88-3.332,4.052-6.142-2.52-2.975-6.061-.4S1176.584,620.694,1178.072,623.413Z" transform="translate(-1068.102 -611.623)" fill="#f6b08e"/>
      <path id="Path_35" data-name="Path 35" d="M1181.41,632.189c.844,1.784,2.741,2.645,6.026.145s5.721-3.346,4.15-6.073-2.212-2.882-5.688-.312S1180.156,629.543,1181.41,632.189Z" transform="translate(-1066.975 -608.734)" fill="#f6b08e"/>
      <path id="Path_36" data-name="Path 36" d="M1167.145,620.6c.845,1.784,2.74,2.645,6.026.145s5.721-3.346,4.15-6.071-2.212-2.884-5.685-.313S1165.891,617.954,1167.145,620.6Z" transform="translate(-1071.641 -612.525)" fill="#f6b08e"/>
      <path id="Path_37" data-name="Path 37" d="M1151.967,620.295c.521,1.564,3.075,1.819,4.994.142,2.783-2.434,5.258-3.533,4.229-5.925s-3.042-.853-4.858.329C1153.093,616.951,1151.2,617.975,1151.967,620.295Z" transform="translate(-1076.547 -612.287)" fill="#f6b08e"/>
      <path id="Path_38" data-name="Path 38" d="M1172.249,658.439c1.293-.885,1.976.585,1.943,1.346a19.839,19.839,0,0,1-6.505,9.121s-2.754-.291-1.608-3.439A15.849,15.849,0,0,1,1172.249,658.439Z" transform="translate(-1071.967 -597.599)" fill="#f6b08e"/>
    </g>
    <path id="Path_39" data-name="Path 39" d="M1200.035,623.791l2.885,2.708-3.9.683-2.708,2.885-.683-3.9-2.885-2.708,3.9-.683,2.708-2.885Z" transform="translate(-1063.153 -600.046)" fill="none" stroke="#213439" stroke-miterlimit="10" stroke-width="1.5" fill-rule="evenodd"/>
    <path id="Path_40" data-name="Path 40" d="M1182.257,608.312l2.719,2.179-3.374.868-2.179,2.719-.868-3.375-2.719-2.178,3.374-.868,2.179-2.719Z" transform="translate(-1068.684 -604.938)" fill="none" stroke="#213439" stroke-miterlimit="10" stroke-width="1.5" fill-rule="evenodd"/>
    <path id="Path_41" data-name="Path 41" d="M1145.81,608.6l2.873.682-2.27,1.889-.683,2.874-1.889-2.27-2.874-.683,2.27-1.889.683-2.873Z" transform="translate(-1080.088 -604.484)" fill="none" stroke="#213439" stroke-miterlimit="10" stroke-width="1.5" fill-rule="evenodd"/>
    <path id="Path_42" data-name="Path 42" d="M1183.354,656.458l2.672,2.917-3.937.387-2.917,2.673-.388-3.938-2.673-2.917,3.937-.388,2.917-2.673Z" transform="translate(-1068.594 -589.376)" fill="none" stroke="#213439" stroke-miterlimit="10" stroke-width="1.5" fill-rule="evenodd"/>
  </g>
</svg>
