<svg id="Component_12_1" data-name="Component 12 – 1" xmlns="http://www.w3.org/2000/svg" width="253.983" height="260.696" viewBox="0 0 253.983 260.696">
  <g id="Group_11685" data-name="Group 11685" transform="translate(111.989 0) rotate(49)">
    <g id="Group_11674" data-name="Group 11674" transform="translate(137.319 32.132)">
      <path id="Path_272" data-name="Path 272" d="M13.186,0l-.455,1.061-.3.909-.455.909-.606.909-.3.909-.3,1.061L10,6.669,9.852,7.73,9.7,8.791,8.942,9.7l-.152,1.061v1.061l-.455,1.061-.3,1.061L7.73,15l-.152,1.061-.3,1.061L6.82,18.188V19.4l-.455,1.061-.3,1.061-.455,1.061-.455.909L4.7,24.4l-.606.909-.455,1.061-.758.909-.758.606-1.061.455L0,28.494" fill="none" stroke="#f7bfa0" stroke-linejoin="round" stroke-miterlimit="10" stroke-width="1"/>
    </g>
    <g id="Group_11675" data-name="Group 11675" transform="translate(129.437 48.955)">
      <path id="Path_273" data-name="Path 273" d="M0,11.67l.455,1.061.909.758,1.213.3,1.061.152H4.7l1.061-.455,1.061-.3.909-.758.758-.909.455-1.061.152-.909.3-.909.152-1.061.3-.909.455-.909L10.458,4.7V2.728L10,1.819l-.909-.606L8.336.606,7.427.152,6.366,0H5.3L4.244.3l-1.061.3-.758.909" transform="translate(0 0)" fill="none" stroke="#2c4349" stroke-linejoin="round" stroke-miterlimit="10" stroke-width="1"/>
    </g>
    <path id="Path_274" data-name="Path 274" d="M21.522,2.68q-4.092-.909-7.275-1.364C5-.5.455-.048,0,.407" transform="translate(57.293 17.781)" fill="none" stroke="#f7bfa0" stroke-linejoin="round" stroke-miterlimit="10" stroke-width="1"/>
    <path id="Path_275" data-name="Path 275" d="M68.2,34.86a100.4,100.4,0,0,1-13.641-7.578C38.043,16.521,19.1,5.608,0,0" transform="translate(148.231 36.527)" fill="none" stroke="#f7bfa0" stroke-linejoin="round" stroke-miterlimit="10" stroke-width="1"/>
    <path id="Path_276" data-name="Path 276" d="M49.865,13.112c-5-1.819-10.61-3.638-16.066-5.153C19.855,4.17,13.944,2.806,9.094,1.29S1.516-.377,0,.684" transform="translate(26.525 22.96)" fill="none" stroke="#f7bfa0" stroke-linejoin="round" stroke-miterlimit="10" stroke-width="1"/>
    <path id="Path_277" data-name="Path 277" d="M5.153,1.97c-.606-.152-1.213-.455-1.667-.606C2.577,1.061,1.364.606,0,0" transform="translate(91.395 41.68)" fill="none" stroke="#f7bfa0" stroke-linejoin="round" stroke-miterlimit="10" stroke-width="1"/>
    <path id="Path_278" data-name="Path 278" d="M0,0C1.667.455,3.183.909,4.4,1.364" transform="translate(92.456 39.71)" fill="none" stroke="#f7bfa0" stroke-linejoin="round" stroke-miterlimit="10" stroke-width="1"/>
    <path id="Path_279" data-name="Path 279" d="M.015,0C-.136.455.773,1.819,5.472,3.334c1.667.455,8.942,2.577,16.975,5" transform="translate(53.791 26.524)" fill="none" stroke="#f7bfa0" stroke-linejoin="round" stroke-miterlimit="10" stroke-width="1"/>
    <path id="Path_280" data-name="Path 280" d="M85.937,30.117c-4.4-1.667-9.4-3.789-13.035-5.153-7.275-2.88-6.669-4.244-32.132-13.186s-29.1-9.4-32.435-10.61S1.213-.5,0,.713" transform="translate(8.337 33.843)" fill="none" stroke="#f7bfa0" stroke-linejoin="round" stroke-miterlimit="10" stroke-width="1"/>
    <path id="Path_281" data-name="Path 281" d="M.156,0C-.3.758-.3,3.031,8.037,6.063s15,4.7,23.947,8.336,17.733,6.82,28.343,10.458c4.092,1.364,8.184,2.88,11.822,4.244" transform="translate(21.671 32.132)" fill="none" stroke="#f7bfa0" stroke-linejoin="round" stroke-miterlimit="10" stroke-width="1"/>
    <path id="Path_282" data-name="Path 282" d="M.03,0C-.273.758,1.7,3.334,8.063,6.063s17.127,7.275,21.825,9.7a266.756,266.756,0,0,0,27.888,12.58c11.822,4.4,21.977,8.033,29.4,10.913,3.638,1.364,6.366,2.728,6.82,3.334s1.061,2.122-1.97,1.213-12.277-4.7-17.278-6.82-17.581-8.488-35.163-15.46-19.1-6.972-23.644-8.791-7.275-2.273-8.336-1.364" transform="translate(3.155 44.408)" fill="none" stroke="#f7bfa0" stroke-linejoin="round" stroke-miterlimit="10" stroke-width="1"/>
    <path id="Path_283" data-name="Path 283" d="M.025,0c-.3.758,2.122,4.547,11.367,8.488S36.4,22.28,44.736,25.917s17.43,7.427,23.644,10.458,29.858,15.763,36.072,19.7,23.947,12.58,29.4,14.853" transform="translate(7.707 66.082)" fill="none" stroke="#f7bfa0" stroke-linejoin="round" stroke-miterlimit="10" stroke-width="1"/>
    <path id="Path_284" data-name="Path 284" d="M124.283,11.519c-5-2.273-6.517-2.122-15.611-.606C99.426,12.58,93.818,14.55,78.359,14.55s-12.731,3.031-21.067,2.88-7.578-2.577-19.1-6.669S24.4,4.7,16.975,3.789c-7.427-1.061-10-1.97-12.428-2.88A20.62,20.62,0,0,0,0,0" transform="translate(84.726 130.952)" fill="none" stroke="#f7bfa0" stroke-linejoin="round" stroke-miterlimit="10" stroke-width="1"/>
    <path id="Path_285" data-name="Path 285" d="M.1,13.982s-.909-3.031,2.728-6.517S14.8.038,19.956.189,28.444-.871,33.6,1.4" transform="translate(67.498 114.242)" fill="none" stroke="#f7bfa0" stroke-linejoin="round" stroke-miterlimit="10" stroke-width="1"/>
    <path id="Path_286" data-name="Path 286" d="M9.85.154c3.486-.3,7.578-.3,9.4,1.364,1.97,1.516,0,2.728-4.547,2.88-4.7.152-9.549,0-12.883-.909S.15,1.215,3.485.76C6.668.306,9.85.154,9.85.154Z" transform="translate(65.327 127.311)" fill="none" stroke="#2c4349" stroke-linejoin="round" stroke-miterlimit="10" stroke-width="1"/>
    <path id="Path_287" data-name="Path 287" d="M17.645,10.785c1.061-3.031-1.061-6.669-2.88-7.427C13.1,2.6,8.855,1.085,8.248.782A9.158,9.158,0,0,0,4.611.024a5.159,5.159,0,0,0-4.4,3.638C-.694,6.541,1.428,9.421,3.7,10.633a65.188,65.188,0,0,0,7.275,3.334C11.886,14.574,15.978,15.18,17.645,10.785Z" transform="translate(3.878 54.994)" fill="none" stroke="#2c4349" stroke-linejoin="round" stroke-miterlimit="10" stroke-width="1"/>
    <path id="Path_288" data-name="Path 288" d="M16.445,8.809C15.384,11.386,12.5,12.9,10.837,12.3c-1.516-.455-6.214-2.273-6.82-2.425-2.425-.758-5-3.638-3.638-6.82C1.591.019,4.471-.436,6.9.322c2.122.606,5.759,1.819,6.669,2.122S17.96,4.869,16.445,8.809Z" transform="translate(19.477 23.322)" fill="none" stroke="#2c4349" stroke-linejoin="round" stroke-miterlimit="10" stroke-width="1"/>
    <path id="Path_289" data-name="Path 289" d="M14.353,7.36c-.909,2.425-3.334,3.638-5,3.183-1.364-.455-5-1.364-5.608-1.516C1.622,8.421-.8,6.451.258,3.42A5.029,5.029,0,0,1,6.623.237c1.97.606,3.789,1.061,4.7,1.364C12.231,2.056,15.566,3.723,14.353,7.36Z" transform="translate(51.579 18.102)" fill="none" stroke="#2c4349" stroke-linejoin="round" stroke-miterlimit="10" stroke-width="1"/>
    <path id="Path_290" data-name="Path 290" d="M18.341,9.671a5.459,5.459,0,0,0-3.031-6.82C13.642,2.093,9.7,1.032,8.944.729,4.245-1.09,1.365.729.3,3.609s.758,5.608,3.789,6.669c2.425.909,6.517,2.425,7.578,2.88C13.339,13.763,16.825,14.067,18.341,9.671Z" transform="translate(0 34.131)" fill="none" stroke="#2c4349" stroke-linejoin="round" stroke-miterlimit="10" stroke-width="1"/>
    <g id="Group_11676" data-name="Group 11676" transform="translate(110.189 13.035)">
      <path id="Path_291" data-name="Path 291" d="M27.13,10.306,26.524,9.4l-.455-1.061-.455-1.061-.606-.909L24.4,5.3l-.758-.758-.606-1.061-.909-.606-.758-.909-1.061-.3L19.4.909,18.188.758,17.127.606,16.066.3,15,0H12.883L11.822.3l-1.061.3L9.7,1.061l-.909.606-.606.909-.606.909-.758.758L6.366,5.3l-.3,1.061-.455.909L5.456,8.336V9.549l-.3.909V11.67L5,12.731l.152,1.061L5,14.853l.152,1.061L5,16.975v1.061L4.85,19.1V20.31l.3,1.061-.3,1.061v1.213l-.3,1.061v1.213L4.4,26.978v1.061l-.3,1.061.3,1.213-.455,1.061v1.213l-.3,1.061.152,1.061-.3,1.061-.152,1.213-.152,1.061L3.031,39.1l.152,1.061-.152,1.213-.3,1.061V43.5L2.273,44.56v1.213l-.3,1.061-.152,1.061-.3,1.061-.3,1.061L.606,51.077.3,52.138l.152,1.213L0,54.412l.152.909L0,56.534l.455.909.909.455" transform="translate(0 0)" fill="none" stroke="#f7bfa0" stroke-linejoin="round" stroke-miterlimit="10" stroke-width="1"/>
    </g>
    <g id="Group_11677" data-name="Group 11677" transform="translate(122.011 18.794)">
      <path id="Path_292" data-name="Path 292" d="M0,57.14l1.061-.152.909-.455.909-.455.758-.758.455-.909.455-1.061L4.7,52.29,5,51.229l.455-.909.152-1.213.152-1.061.3-1.061.455-1.061.3-1.061V43.8l.152-1.061.3-1.061.3-1.061.3-1.061.3-1.061.455-1.061.152-1.061.3-1.061.152-1.061V33.193l.3-1.061.3-1.061.455-1.061.3-.909.152-1.213.3-1.061-.152-1.061.152-1.061.152-1.213V22.432l-.3-1.213.3-1.061V18.946l-.152-1.061.3-1.213-.152-1.061.3-1.213.152-1.061.3-1.213.606-.758.455-1.061.152-1.061.606-.909.3-1.061.606-.909.758-.758.455-1.061.606-.909.909-.606.909-.758.758-.606.909-.758.909-.455L21.977,0l1.061.152L24.1.3,25.311,0l1.061.3,1.061.3.909.455,1.061.455.758.909.455,1.061.758.909.152,1.061.455.909.3,1.213.152,1.061.3.909.152,1.061.3,1.061.455.909v1.061L33.8,14.7l.606,1.061v1.061l.3,1.061.3.909v1.061l.455,1.061" transform="translate(0 0)" fill="none" stroke="#f7bfa0" stroke-linejoin="round" stroke-miterlimit="10" stroke-width="1"/>
    </g>
    <g id="Group_11678" data-name="Group 11678" transform="translate(93.82 6.063)">
      <path id="Path_293" data-name="Path 293" d="M24.4,9.549,23.8,8.639l-.3-1.061-.758-.758-.606-.909L21.674,4.85l-.758-.758-.758-.758L19.4,2.577l-.758-.606-.909-.606L16.824.758,15.763.606,14.7.3,13.641.152H12.58L11.519,0H10.458L9.4.152H8.336l-.909.3-.909.606-.909.606-.758.909-.758.758L3.638,4.4,3.031,5.3l-.3,1.213V8.791L2.88,9.852l-.3,1.213.3,1.061-.152,1.213L2.577,14.4l.3,1.213-.152,1.061-.152,1.061.152,1.213-.152,1.061.152,1.213L2.577,22.28l.152,1.213.152,1.061v3.334l.3,1.061V33.5l-.3,1.061-.152,1.213V36.83l-.152,1.061-.3,1.213-.152,1.061L1.97,41.225v1.213l-.3,1.061-.3,1.061-.152,1.061L.758,46.682l.152,1.061L.758,48.8l-.3,1.061L.3,51.077l.152,1.061L.152,53.2,0,54.26l.152,1.213v1.061L.3,57.594l.455,1.061.909.455" fill="none" stroke="#f7bfa0" stroke-linejoin="round" stroke-miterlimit="10" stroke-width="1"/>
    </g>
    <g id="Group_11679" data-name="Group 11679" transform="translate(89.121 25.463)">
      <path id="Path_294" data-name="Path 294" d="M0,17.43l1.061-.152.909-.606.606-.909.606-.909.3-1.061.3-1.061.455-.909L4.4,10.761,4.85,9.7,5.3,8.639l.3-1.061.152-1.061.455-1.061L6.063,4.244l.152-1.061L6.82,2.122V.909L7.275,0" transform="translate(0 0)" fill="none" stroke="#f7bfa0" stroke-linejoin="round" stroke-miterlimit="10" stroke-width="1"/>
    </g>
    <g id="Group_11680" data-name="Group 11680" transform="translate(76.845 0)">
      <path id="Path_295" data-name="Path 295" d="M24.553,6.366,24.1,5.3l-.758-1.061-.758-.909-.3-1.213-1.061-.455-.909-.455-1.061-.152L18.188.909l-1.213-.3L15.914.455,15,.3,13.944.152,12.883,0l-.909.3L10.913.758,10,1.213l-.909.606-.909.455-.909.606-.758.758L5.759,4.4,5.153,5.3l-.606.909-.455.909-.455.909-.3,1.061-.152,1.061v1.061l-.455,1.061.3,1.061L2.88,14.55l-.3.909-.3,1.061.152,1.213L1.97,18.794l.152,1.061-.455,1.061.152,1.213-.152,1.061L1.213,24.25l.152,1.061-.152,1.061-.152,1.213L.909,28.646l-.3,1.061v1.061L.455,31.829.3,33.041.152,34.1,0,35.163l.3,1.061L.152,37.436.3,38.5.152,39.558l.455,1.061.758.909" fill="none" stroke="#f7bfa0" stroke-linejoin="round" stroke-miterlimit="10" stroke-width="1"/>
    </g>
    <g id="Group_11681" data-name="Group 11681" transform="translate(107.006 67.598)">
      <path id="Path_296" data-name="Path 296" d="M3.183,0,2.273.758l-1.061.606L0,1.061" transform="translate(0 0)" fill="none" stroke="#f7bfa0" stroke-linejoin="round" stroke-miterlimit="10" stroke-width="1"/>
    </g>
    <g id="Group_11682" data-name="Group 11682" transform="translate(77.602 31.071)">
      <path id="Path_297" data-name="Path 297" d="M8.184.152l.909.606L10,1.213l.909.758.758.758.455.909L12.58,4.7l-.152,1.061L12.58,6.82l-.3,1.213-.152,1.061-.3,1.213-.152,1.061-.455,1.213-.152,1.213L10.761,15,10,15.914l-.455,1.213-.909.455-.758.606-.909.455-1.061.3L5,18.794l-1.061-.152-.909-.455-.758-.606-.758-.909-.758-.758L.606,14.853l-.455-.909L0,12.883V11.822L.455,10.61.3,9.549.455,8.336l.3-1.061.3-1.213L1.213,5l.455-1.061.455-.909.3-1.061.909-.606L4.092.758,5.153.3,6.063,0,7.124.152Z" fill="none" stroke="#2c4349" stroke-linejoin="round" stroke-miterlimit="10" stroke-width="1"/>
    </g>
    <g id="Group_11683" data-name="Group 11683" transform="translate(110.946 61.535)">
      <path id="Path_298" data-name="Path 298" d="M8.942,0H7.881L6.669.152H5.456L4.4.606l-.909.758-.606.909-.758.909-.3,1.061V5.3l-.152.909L1.213,7.275,1.061,8.336l-.455.909L.455,10.306v1.061L.3,12.428,0,13.489.3,14.55l.3,1.061.3.909.758.909.909.758.909.606,1.061.152,1.061.3L6.669,19.1l1.061-.3.909-.606.909-.758.758-.758.3-1.213.455-.909.455-1.061.3-1.061.3-1.213.3-1.061V8.942l.3-1.061.455-1.061V5.608l.152-1.061-.455-1.061-.455-1.061-.455-.909L11.064.758,10,.455Z" fill="none" stroke="#2c4349" stroke-linejoin="round" stroke-miterlimit="10" stroke-width="1"/>
    </g>
    <g id="Group_11684" data-name="Group 11684" transform="translate(94.881 53.805)">
      <path id="Path_299" data-name="Path 299" d="M9.245.3l1.213.152.909.758.909.758.606.909.455,1.061L13.641,5l.3,1.061L14.1,7.275l-.455,1.061-.3.909v1.213l-.455.909-.152,1.061-.455,1.061-.152,1.061-.3,1.061-.3.909-.3,1.061-.606.758L10,19.249l-.758.758-.909.455-.909.606-1.061-.152-1.061.3L4.4,21.067l-1.213-.3-.758-.758L1.667,19.4l-.909-.758L.606,17.581,0,16.672V14.55l.3-1.061V12.277l.3-1.061.3-1.061.152-1.213.3-1.061.3-1.061V5.608l.455-1.061V3.486l.606-.909.758-.758L4.244.909,5,.3,6.063,0,7.124.152,8.184,0Z" fill="none" stroke="#2c4349" stroke-linejoin="round" stroke-miterlimit="10" stroke-width="1"/>
    </g>
  </g>
  <g id="Group_11555" data-name="Group 11555" transform="translate(122.711 10.153) rotate(-11)">
    <g id="Group_11550" data-name="Group 11550" transform="translate(9.654 1.073)">
      <g id="Group_11549" data-name="Group 11549" transform="translate(0 0)">
        <path id="Path_191" data-name="Path 191" d="M8.939,2.86c.358,3.039,1.788,8.224,6.972,9.3-3.575,1.073-5.542,4.291-6.257,9.654-.358-3.039-1.788-8.224-6.972-9.3C6.436,11.62,8.4,8.224,8.939,2.86m0-2.86c-.179,0-.358,0-.358.179A.657.657,0,0,0,8.4.715V.894C8.224,2.682,8.224,11.8.536,11.978A.806.806,0,0,0,0,12.514a.571.571,0,0,0,.536.536c7.866-.179,8.4,8.939,8.581,10.726v.179a.632.632,0,0,0,.715.715.624.624,0,0,0,.358-.179.657.657,0,0,0,.179-.536v-.179c.179-1.788.179-10.905,7.866-11.084a.806.806,0,0,0,.536-.536.571.571,0,0,0-.536-.536C10.369,11.8,9.833,2.682,9.654.894V.715A.657.657,0,0,0,9.475.179C9.3.179,9.117,0,8.939,0Z" fill="#2c4349"/>
      </g>
    </g>
    <g id="Group_11552" data-name="Group 11552" transform="translate(0 0)">
      <g id="Group_11551" data-name="Group 11551">
        <path id="Path_192" data-name="Path 192" d="M4.291,2.145A5.3,5.3,0,0,0,5.542,4.827a2.881,2.881,0,0,0,1.251.715,3.207,3.207,0,0,0-1.251.894A5.3,5.3,0,0,0,4.291,9.117a6.688,6.688,0,0,0-1.251-2.86,2.881,2.881,0,0,0-1.251-.715,3.206,3.206,0,0,0,1.251-.894c.715-.358,1.073-1.609,1.251-2.5M4.291,0h0a.571.571,0,0,0-.536.536A7.55,7.55,0,0,1,2.682,4.291a2.961,2.961,0,0,1-2.145.894A.571.571,0,0,0,0,5.721a.571.571,0,0,0,.536.536,2.85,2.85,0,0,1,2.145.715c1.073,1.073,1.251,3.039,1.43,3.575v.179a.474.474,0,0,0,.536.536h.358c.179,0,.358-.358.358-.536A7.55,7.55,0,0,1,6.436,6.972a2.961,2.961,0,0,1,2.145-.894.571.571,0,0,0,.536-.536.571.571,0,0,0-.536-.536,2.85,2.85,0,0,1-2.145-.715C5.363,3.218,5.184,1.43,5.006.715V.536A.554.554,0,0,0,4.827.179.657.657,0,0,0,4.291,0Z" fill="#2c4349"/>
      </g>
    </g>
    <g id="Group_11554" data-name="Group 11554" transform="translate(7.508 18.771)">
      <g id="Group_11553" data-name="Group 11553" transform="translate(0 0)">
        <path id="Path_193" data-name="Path 193" d="M3.575,1.967a3.968,3.968,0,0,0,.894,1.966c.179.179.536.358.715.536-.358.179-.536.358-.894.536A3.968,3.968,0,0,0,3.4,6.972,3.968,3.968,0,0,0,2.5,5.006c-.179-.179-.536-.358-.715-.536.358-.179.536-.358.894-.536a2.871,2.871,0,0,0,.894-1.966M3.575,0h0a.571.571,0,0,0-.536.536A5.151,5.151,0,0,1,2.145,3.4a2.185,2.185,0,0,1-1.609.536A.571.571,0,0,0,0,4.469a.571.571,0,0,0,.536.536,2.185,2.185,0,0,1,1.609.536A4.5,4.5,0,0,1,3.039,8.4v.179a.571.571,0,0,0,.536.536.554.554,0,0,0,.358-.179c.179,0,.358-.358.358-.536a5.151,5.151,0,0,1,.894-2.86,2.185,2.185,0,0,1,1.609-.536.571.571,0,0,0,.536-.536.571.571,0,0,0-.536-.536A2.185,2.185,0,0,1,5.184,3.4,4.04,4.04,0,0,1,4.291.715V.536A.554.554,0,0,0,4.112.179.657.657,0,0,0,3.575,0Z" fill="#2c4349"/>
      </g>
    </g>
  </g>
  <g id="Group_11557" data-name="Group 11557" transform="matrix(0.996, -0.087, 0.087, 0.996, 41.234, 30.043)">
    <g id="Group_11556" data-name="Group 11556" transform="translate(0 0)">
      <path id="Path_194" data-name="Path 194" d="M5.986,2.394c.532,2.261,2.128,5.853,5.986,6.119a4.688,4.688,0,0,0-2.66,1.862,8.652,8.652,0,0,0-1.6,5.454c-.532-2.261-2.128-5.853-5.986-6.119A4.688,4.688,0,0,0,4.39,7.848a7.907,7.907,0,0,0,1.6-5.454M5.853,0c-.133,0-.266.133-.4.133a.489.489,0,0,0-.133.4V.665C5.454,2,6.119,8.779.4,9.445c-.266,0-.4.266-.4.532s.266.4.532.4H1.2c5.188-.133,6.119,6.119,6.385,7.316v.133c0,.133,0,.133.133.266a.489.489,0,0,0,.4.133c.133,0,.133-.133.266-.133a.489.489,0,0,0,.133-.4v-.133c-.133-1.33-.8-8.114,4.922-8.779.266,0,.4-.266.4-.532s-.266-.4-.532-.4h-.665C7.449,7.981,6.518,1.729,6.252.532V.4c0-.133,0-.133-.133-.266C6.119,0,5.986,0,5.853,0Z" fill="#2c4349"/>
    </g>
  </g>
  <g id="Group_11559" data-name="Group 11559" transform="matrix(0.996, -0.087, 0.087, 0.996, 54.411, 17.624)">
    <g id="Group_11558" data-name="Group 11558" transform="translate(0 0)">
      <path id="Path_195" data-name="Path 195" d="M3.754,2.145a5.763,5.763,0,0,0,1.43,2.5,3.654,3.654,0,0,0,1.609.894,3.207,3.207,0,0,0-1.251.894h0a4.994,4.994,0,0,0-.894,3.039,7.779,7.779,0,0,0-1.43-2.682A3.654,3.654,0,0,0,1.609,5.9,3.207,3.207,0,0,0,2.86,5.006h0a4.206,4.206,0,0,0,.894-2.86M3.754,0C3.575,0,3.4,0,3.4.179a.714.714,0,0,0-.358.715A8.048,8.048,0,0,1,2.5,4.648,3.531,3.531,0,0,1,.536,5.721c-.358,0-.536.358-.536.715s.358.536.715.536H1.43a2.03,2.03,0,0,1,1.43.536c1.073.894,1.43,2.86,1.788,3.4v.179c0,.358.358.536.715.536a.175.175,0,0,0,.179-.179.714.714,0,0,0,.358-.715,8.048,8.048,0,0,1,.536-3.754A3.531,3.531,0,0,1,8.4,5.9c.358,0,.536-.358.536-.715s-.536-.715-.894-.715H7.33A2.03,2.03,0,0,1,5.9,3.933c-1.073-.894-1.43-2.682-1.788-3.4V.358c0-.179,0-.179-.179-.358.179.179,0,0-.179,0Z" fill="#2c4349"/>
    </g>
  </g>
  <g id="Group_11561" data-name="Group 11561" transform="matrix(0.951, -0.309, 0.309, 0.951, 47.032, 64.987)">
    <g id="Group_11560" data-name="Group 11560" transform="translate(0 0)">
      <path id="Path_196" data-name="Path 196" d="M5.363,1.609a4.909,4.909,0,0,0,.894,3.4,3.312,3.312,0,0,0,1.43,1.251,2.03,2.03,0,0,0-1.43.536A4.533,4.533,0,0,0,4.291,9.832a5.14,5.14,0,0,0-.894-3.4,3.312,3.312,0,0,0-1.43-1.251A2.03,2.03,0,0,0,3.4,4.648,6.379,6.379,0,0,0,5.363,1.609M5.184,0a.571.571,0,0,0-.536.536c-.179.536-.536,2.5-1.788,3.4a3.368,3.368,0,0,1-1.43.358H.715c-.358,0-.715.179-.715.536s.179.715.536.715A2.579,2.579,0,0,1,2.5,6.793a5.309,5.309,0,0,1,.715,3.754v.179c0,.358.179.715.536.715h.358a.571.571,0,0,0,.536-.536c.179-.536.536-2.5,1.788-3.4a3.368,3.368,0,0,1,1.43-.358h.715c.358,0,.715-.179.715-.536S9.117,5.9,8.76,5.9A2.579,2.579,0,0,1,6.793,4.648,6.3,6.3,0,0,1,6.078.894V.715C6.078.536,5.9.358,5.9.179A1.075,1.075,0,0,0,5.184,0Z" fill="#2c4349"/>
    </g>
  </g>
</svg>
