<svg xmlns="http://www.w3.org/2000/svg" xmlns:xlink="http://www.w3.org/1999/xlink" width="23" height="39" viewBox="0 0 23 39">
    <defs>
        <path id="5uustrb8fa" d="M.452 21.297c0 9.15 1.508 17.202 11.292 17.202 9.784 0 11.061-10.47 11.061-17.202 0-6.734-3.741-20.796-11.176-20.796C4.192.501.452 12.147.452 21.297z"/>
    </defs>
    <g fill="none" fill-rule="evenodd">
        <path fill="#F3EBE6" d="M11.629.501C4.192.501.452 12.147.452 21.297c0 9.149 1.508 17.202 11.292 17.202 9.784 0 11.06-10.47 11.06-17.202 0-6.733-3.74-20.796-11.175-20.796"/>
        <mask id="jg4g3ymn3b" fill="#fff">
            <use xlink:href="#5uustrb8fa"/>
        </mask>
        <path fill="#F3EBE6" d="M-5.807 44.088L28.839 44.088 28.839 -5.088 -5.807 -5.088z" mask="url(#jg4g3ymn3b)"/>
        <path fill="#F3EBE6" d="M-0.219 38.499L23.252 38.499 23.252 0.501 -0.219 0.501z" mask="url(#jg4g3ymn3b)"/>
        <path fill="#F3EBE6" d="M-5.136 44.088L28.392 44.088 28.392 -5.088 -5.136 -5.088z" mask="url(#jg4g3ymn3b)"/>
        <path fill="#2C4349" d="M5.119 15.501c.443-.614 1.323-.999 1.99-.781.481.157.946.439 1.449.401.24-.018.467-.108.701-.163 1.433-.337 3.049.945 2.671 2.487-.036.144-.087.287-.075.435.017.184.13.341.231.496.53.82.734 1.918.274 2.779-.345.647-1.157.698-1.952.475-.394-.11-.789.082-.94.463-.246.618-.784 1.104-1.818.828-.654-.175-.672-1.082-1.177-1.5-.263-.218-.848-.143-1.304-.168-.621-.034-1.072-.685-1.158-1.301-.086-.616.138-1.24.468-1.767.149-.237.322-.465.39-.736.087-.344-.007-.705-.03-1.059-.021-.319.09-.625.28-.889" mask="url(#jg4g3ymn3b)"/>
        <path fill="#FFF" d="M9.647 17.455c.283.262.482.601.524.996.287 2.653-3.555 2.535-3.648-.118-.026-.747.687-1.369 1.431-1.45.582-.064 1.243.156 1.693.572" mask="url(#jg4g3ymn3b)"/>
        <path fill="#2C4349" d="M-1.846 11.292c.445-.45.915-.875 1.396-1.287l.006.005c.157.104.136.265.183.419.05.158.148.306.246.439.204.281.468.526.77.699.51.294 1.105.394 1.687.489.621.1 1.29.299 1.92.182-.032-.07-.103-.114-.168-.154-.877-.53-1.728-1.118-2.73-1.391-.389-.105-.858-.15-1.204-.37-.17-.109-.393-.302-.484-.51.141-.118.276-.241.42-.355.708-.564 1.45-1.088 2.221-1.563.076.117.091.212.122.372.036.189.143.379.224.551.155.33.347.648.478.988.228.59.638 1.101 1.146 1.474.135.099 1.628.833 1.63.576 0-.141-.237-.426-.308-.551l-.39-.684c-.185-.32-.353-.699-.6-.979-.303-.347-.628-.676-.976-.978-.178-.154-.365-.293-.55-.437-.14-.109-.347-.188-.46-.32-.037-.043-.058-.101-.064-.158.587-.352 1.192-.674 1.811-.967.02.026.048.043.075.062.251.167.217.655.366.908.21.361.53.72.835 1.004.287.265.686.362 1.066.45.116.026.23.054.343.081.51.121 1.002.229 1.544.184.03-.002.068-.012.073-.041-.267-.135-.508-.375-.75-.551-.285-.207-.576-.407-.863-.611-.327-.234-.716-.372-1.055-.589-.236-.152-.516-.216-.769-.337-.252-.121-.495-.328-.527-.607-.004-.036-.012-.073-.026-.105l.054-.027c.678-.304 1.37-.579 2.07-.822.12-.041.273-.074.425-.115.497.29 1.076.493 1.65.346.331-.085.64-.239.963-.348.5-.17 1.237-.34 1.755-.167.1.033.205.08.307.054-.709-.815-1.95-.758-2.92-.954-.062-.013-.123-.025-.184-.035-.253-.043-.51-.064-.759-.009-.31.069-.605.279-.692.584-.014.049-.033.097-.053.143-.843.255-1.672.552-2.478.908-.139-.137.055-.398.193-.481.517-.313.881-.237 1.324-.761.391-.46.636-1.036.926-1.56.183-.332.39-.653.604-.965.152-.221.36-.42.498-.64.02-.029.035-.063.028-.096-.06-.276-.887.639-.986.711-.47.34-1.042.524-1.518.861-.493.348-.879.848-1.092 1.414-.14.374.157.778-.093 1.059-.098.112-.22.223-.227.371-.003.059.041.133.101.19-.594.271-1.172.573-1.739.896-.03-.063-.063-.125-.08-.189-.086-.318.625-.973.746-1.35.175-.546.3-1.119.585-1.617.183-.317.426-.595.654-.883.216-.271.42-.551.61-.841.085-.131.387-.445.131-.447-.234-.002-.636.347-.808.495-.283.245-.55.537-.883.713-.324.173-.67.312-.966.531-.682.504-1.022 1.432-.824 2.257.115.482.592.656.604 1.22.002.08.003.161.022.237-.37.217-.742.432-1.1.669-.416.278-.833.553-1.246.837.073-.18.037-.458.132-.65.06-.118.173-.201.233-.319.142-.279-.063-.597-.19-.882-.122-.271-.175-.565-.192-.859-.017-.277.083-.575 0-.845-.217.069-.274.534-.308.729-.105.598-.208 1.102-.117 1.707.013.086.187 1.048.263 1.241-.512.359-1.013.733-1.482 1.147-.854.757-1.598 1.802-2.179 2.787.735-.208 1.09-1.068 1.6-1.583M18.684 11.455l-.232-.063-.408-.208c-.009-.004-.03-.013-.043-.024-.033-.02-.075-.044-.115-.06-.023-.016-.036-.028-.056-.037-.157-.06-.325-.067-.489-.042-.09.062-.175.121-.268.175-.09.044-.19.085-.28.105-.19.044-.38.062-.566.096-.024.001-.047-.014-.07-.012l-.016.006-.004.01c-.07.111-.148.225-.226.34-.02.032-.025.083-.04.123-.016.047-.033.087-.054.137-.004.011 0 .017-.005.027l-.03.071c0 .016-.006.027-.014.046l-.008.003c0 .018-.005.028-.007.044-.026.077-.05.161-.074.245-.004.011-.012.014-.016.024-.002-.007-.005-.015 0-.025-.049-.26-.007-.527.035-.792.026-.16-.013-.318-.052-.476-.127-.089-.269-.173-.384-.275-.07-.07-.12-.174-.18-.258l-.126-.19c-.06-.09-.08-.199-.075-.308-.007-.039-.02-.075-.029-.113-.032-.02-.063-.033-.1-.043-.198-.06-.397-.103-.605-.086-.027-.005-.055-.01-.086-.006l-.314.003c-.009-.005-.019-.009-.027-.006.005-.01.012-.013.02-.016.11-.036.222-.082.342-.114.088-.028.172-.045.253-.07.01.005.01.005.017.002.015-.005.021-.008.04-.007.105-.002.204-.025.304-.065.043-.017.078-.032.118-.057.018-.015.05-.019.081-.024l.001-.059c.016-.022.021-.049.034-.08.03-.069.07-.134.1-.205.017-.057.043-.117.064-.167.004-.009-.002-.024.01-.037.063-.067.132-.144.203-.215.082-.083.172-.169.254-.25.03-.03.07-.054.102-.076.02-.056.057-.105.051-.16-.02-.175-.037-.358-.082-.53-.045-.173-.118-.333-.177-.5l-.005-.014c.013-.006.024-.002.034.002.06.067.117.127.167.19.012.011.015.018.018.025.071.112.141.225.204.34.072.177.2.308.352.421.12.008.23.014.343.027.068.005.137.011.208.023.037.01.097.018.106.04.032.078.112.071.164.1.024.015.051.02.071.028.086.048.173.104.26.152l.002.008c.003.006.01.003.013.01l.006.015c.01.004.023.016.026.022.007-.003.01.004.01.004l.01.005c.065-.002.14.018.204-.008.168-.076.335-.152.487-.247.138-.089.261-.196.386-.297.007-.002.018-.015.025-.018-.005.011.001.024-.003.034-.078.114-.156.23-.244.34-.047.067-.107.142-.164.206-.13.11-.216.245-.266.406-.006.027-.025.042-.033.063.01.046.007.08.056.118.04.016.052.087.064.14.022.073.015.16.052.21.076.085.041.182.062.273.042.165-.012.32-.069.467-.025.06-.057.122-.086.175-.004.01-.008.02-.023.026.025.205.162.34.29.471.155.16.34.285.506.432 0 0 .01.004.013.012-.01-.005-.01-.005-.017-.002m-1.442 2.105c.033-.103.082-.206.104-.315.022-.09.032-.186.036-.279.01-.078.013-.154.012-.237.003-.075-.005-.155-.002-.23-.003-.008.01-.02.006-.027.01.004.016.001.02.008.085.09.167.19.264.266.193.17.39.348.601.502.152.112.35.148.542.153.273.022.53-.04.782-.134.156-.063.3-.137.404-.288.04-.065.097-.129.15-.184.152-.136.275-.302.373-.49.01-.079.026-.16.033-.246.023-.125.057-.246.071-.375.05-.328-.115-.674-.132-.717-.049-.079-.102-.15-.15-.229-.003-.007-.132-.203-.208-.289-.073-.077-.164-.14-.24-.225-.136-.152-.33-.222-.38-.244-.04-.017-.077-.027-.117-.044-.115-.037-.229-.073-.35-.107-.017 0-.037-.01-.054-.01-.012-.012-.033-.02-.046-.032-.006-.015.01-.019.054-.03.015-.006.208-.059.372-.125.16-.073.304-.19.446-.288.195-.154.357-.327.477-.54.101-.182.184-.365.2-.57.01-.16.02-.322-.027-.477-.013-.053-.047-.097-.06-.15-.023-.098-.04-.199-.063-.298-.042-.165-.156-.284-.264-.406-.04-.04-.09-.08-.142-.108-.13-.096-.245-.215-.414-.264l-.363-.1c-.155-.038-.304-.077-.46-.096-.219-.027-.438.003-.653.065-.327.091-.6.276-.842.497-.018.016-.029.03-.048.045-.006-.014-.008-.039-.016-.06-.004-.03 0-.066-.009-.104-.036-.192-.058-.39-.116-.574-.062-.173-.148-.346-.249-.494-.086-.13-.209-.23-.314-.346-.138-.135-.307-.207-.48-.268-.23-.074-.457-.106-.687-.079-.274.036-.535.108-.768.27-.138.088-.28.187-.419.292-.089.07-.19.126-.252.218-.117.18-.222.371-.318.567-.139.288-.149.59-.022.886.087.214.201.416.33.611.132.204.29.39.433.58.008.021.021.032.034.043-.017-.002-.044-.007-.06-.008-.09-.014-.174-.038-.263-.052-.112-.012-.22-.018-.335-.03-.047.003-.093.013-.142.016-.024.002-.044-.007-.06-.009-.088.011-.17.011-.255.03-.084.016-.162.047-.24.08l-.02.008c-.037.014-.079.032-.125.041l-.143.058-.014.006-.203.132c-.005.01-.018.015-.026.018-.035.015-.06.034-.094.055-.007.003-.013.006-.018.016l-.014.006c-.007.002-.015.005-.019.015-.04.025-.089.045-.124.083-.09.104-.198.205-.266.323-.064.11-.087.235-.13.351l-.026.102c-.007.043-.022.091-.032.128-.007.003-.004.01-.004.01l-.016.205c.02.191.043.372.13.544.057.125.133.252.2.374.006.015.004.032.007.038l.01.022.023.04c.022.015.038.034.057.06l.107.08c.077.068.151.13.227.191l.02.008c.02.01.04.016.06.025.002.007.01.004.011.012.031.013.054.028.083.041l.102.025.003.007c.097.035.19.081.304.076.127-.01.253.013.384.01.162-.008.326-.016.482-.037.128-.01.248-.043.373-.06.04-.007.076.002.11.005-.012.013-.018.016-.03.03-.107.166-.213.333-.317.507l-.045.07c.003.006-.002.016.001.023l-.013.03c-.013.03-.028.053-.04.082l-.015.006c-.027.118-.066.226-.086.341-.015.106-.045.217-.029.318.038.216.101.431.16.64.075.25.232.451.384.663.17.237.43.348.707.418.158.044.34.045.51.051.201.01.39-.034.568-.106.277-.112.514-.265.708-.5.148-.168.328-.316.394-.542" mask="url(#jg4g3ymn3b)"/>
        <path fill="#EFCB7C" d="M12.03 11.027c-.18-.258-.32-.53-.34-.853-.003-.034 0-.068 0-.102.024.184.042.37.128.54.066.127.138.251.205.377.006.011.005.025.007.038M12.453 11.419c-.072-.05-.146-.095-.215-.148-.045-.036-.08-.084-.119-.127l.106.087c.077.062.153.125.228.188" mask="url(#jg4g3ymn3b)"/>
        <path fill="#FFF" d="M17.071 11.194c-.089.046-.185.087-.28.107-.187.04-.376.064-.564.092-.022.004-.048-.008-.07-.012l-.018.011-.077-.015-.027-.015-.07-.032-.03-.012-.048-.032-.042-.006v-.002.003c-.01 0-.022 0-.032-.002l-.113-.082-.053-.026c-.128-.092-.264-.174-.382-.279-.076-.069-.123-.17-.182-.258-.042-.062-.08-.127-.124-.188-.066-.094-.079-.199-.08-.31 0-.039-.017-.077-.026-.115-.01-.02-.035-.043-.033-.062.007-.07.022-.137.034-.206l.035-.199.005-.02.005-.058.03-.077c.033-.069.068-.139.1-.21.022-.054.042-.11.063-.166.004-.01.003-.025.01-.033.067-.073.132-.148.201-.218.085-.085.171-.169.26-.25.03-.029.068-.05.102-.076l.037-.02.001.001v-.002l.445-.177c.027-.01.055-.018.082-.027.112.007.225.013.337.023.07.006.14.014.21.027.036.006.097.014.105.036.03.082.11.073.164.106.021.013.047.016.07.03.087.047.173.097.258.146l.005.004.004.003.006.01c.003.005.006.01.01.013.01.01.02.016.027.025 0-.002-.004-.004-.006-.006l-.003.006.017.005.008.003.134.17c.025.032.046.074.08.093.042.024.027.104.1.096 0 0 0 .03.007.04.023.03.048.055.073.082.01.042.01.082.058.114.038.024.05.093.065.144.02.07.01.16.051.207.077.086.038.184.06.273.04.165-.01.32-.069.47-.025.061-.055.12-.082.178l-.025.022c-.048.046-.095.092-.144.137-.107.095-.19.218-.333.27-.03.011-.05.047-.076.071-.09.06-.175.125-.27.175" mask="url(#jg4g3ymn3b)"/>
        <path fill="#FDFDFC" d="M18.684 11.453l-.232-.059-.408-.208-.04-.024c-.038-.02-.077-.044-.115-.065h-.002c-.019-.012-.039-.025-.059-.033-.158-.059-.32-.067-.484-.044h-.004c.026-.025.046-.06.076-.072.144-.052.227-.175.333-.269.05-.045.097-.092.145-.138.024.202.162.34.291.471.154.157.333.29.502.431l-.003.01M17.836 9.134c-.024-.027-.05-.054-.072-.083-.008-.01-.008-.04-.008-.04-.072.009-.058-.071-.1-.096-.034-.018-.054-.06-.08-.093l-.134-.17c.069 0 .145.018.202-.006.17-.074.338-.155.494-.251.136-.084.257-.194.385-.291l.023-.02c0 .01.006.025 0 .032-.08.116-.16.23-.242.343-.052.07-.111.137-.165.205-.131.11-.223.245-.272.409-.007.022-.02.04-.031.06M16.23 8.222l-.082.026-.446.178-.037.02c.016-.053.052-.107.047-.158-.017-.178-.036-.358-.079-.532-.042-.17-.115-.333-.174-.5l-.008-.018c.01.004.025.003.032.009.06.062.114.125.171.188l.017.025.205.337c.07.18.2.314.354.425M15.661 12.463l-.003-.028c-.042-.265.001-.526.039-.787.025-.164-.009-.321-.05-.477l.053.026.113.082c.01 0 .022 0 .032.002l.001-.001.042.006.046.032.031.012.07.032.027.015.078.016-.001.01c-.075.112-.153.222-.225.336-.023.037-.03.083-.044.125-.018.046-.034.09-.05.136l-.01.027-.013.037-.013.034-.001.002-.014.042-.004.008-.014.042-.07.243c-.002.01-.013.019-.02.028M14.853 10.021c-.033-.016-.064-.033-.098-.044-.198-.06-.4-.101-.609-.082h-.002c-.027-.003-.055-.01-.082-.01-.105 0-.21.004-.315.005-.009 0-.019-.005-.028-.007.006-.004.011-.01.017-.011.116-.04.231-.082.347-.118.084-.025.17-.044.255-.066h.007c.02-.005.033-.008.048-.01h.001c.15-.004.286-.046.415-.12.024-.014.057-.015.085-.024l-.005.02-.035.198c-.012.07-.027.137-.034.207-.002.02.021.042.033.063" mask="url(#jg4g3ymn3b)"/>
        <path fill="#EFCB7C" d="M15.664 8.445l-.017-.023.017.023M16.184 14.374l-.16.06c-.01.002-.02 0-.029-.001.007-.005.013-.011.021-.014.053-.024.106-.046.158-.068.015-.007.031-.01.046-.015l-.036.038M15.442 13.11l-.104.021c.016-.016.03-.04.048-.049.021-.008.048 0 .073 0l-.017.027M16.517 14.162l-.034.008c.012-.014.026-.029.04-.042.006-.004.017-.003.024-.004l-.03.038M16.584 14.09h-.02c.005-.007.007-.016.012-.02s.014-.003.02-.003l-.012.023" mask="url(#jg4g3ymn3b)"/>
        <path fill="#F6E3E3" d="M17.434 8.65l-.018-.006.003-.006.007.006.008.005" mask="url(#jg4g3ymn3b)"/>
        <path fill="#EFCB7C" d="M15.703 8.428l-.001-.002.001.002zM15.846 11.28L15.845 11.281 15.845 11.278z" mask="url(#jg4g3ymn3b)"/>
        <path fill="#F6E3E3" d="M18.7 11.455l-.016-.002.003-.01.012.012" mask="url(#jg4g3ymn3b)"/>
        <path fill="#2C4349" d="M11.06 34.148c-.077.01-.164.02-.24.028-.152-.012-.304-.026-.455-.039-.01 0-.034 0-.049-.006-.038-.006-.087-.012-.13-.012-.027-.006-.044-.012-.065-.013-.168.003-.327.061-.469.146-.06.09-.116.176-.183.262-.066.075-.143.151-.22.203-.16.112-.329.202-.488.302-.02.011-.049.005-.07.016l-.012.01v.011c-.023.13-.053.265-.082.401-.006.038.01.087.01.13.004.048.003.092.002.146 0 .011.006.017.006.027v.076c.004.017.004.028.003.05l-.005.005c.005.016.005.027.01.043.003.082.013.17.023.256 0 .011-.006.016-.006.026-.006-.005-.01-.01-.01-.02-.143-.226-.205-.487-.266-.748-.035-.158-.13-.29-.227-.422-.15-.035-.314-.059-.46-.109-.092-.04-.177-.118-.263-.173-.064-.044-.124-.083-.188-.128-.09-.06-.149-.154-.186-.258-.02-.032-.047-.06-.069-.093-.038-.006-.07-.007-.108-.002-.207.02-.408.054-.594.15-.027.004-.055.01-.082.025-.093.036-.19.078-.289.12-.012 0-.023 0-.027.005 0-.01.004-.016.01-.02.088-.076.176-.162.276-.236.071-.058.142-.106.208-.16.01.001.01.001.016-.005.011-.01.017-.015.033-.02.098-.043.181-.1.257-.176.034-.032.062-.059.09-.097.01-.02.037-.037.065-.053-.005-.016-.016-.038-.02-.054.005-.028 0-.055 0-.087.002-.076.014-.152.015-.228-.005-.059-.004-.125-.003-.179 0-.01-.01-.022-.005-.038.034-.086.068-.183.107-.275.045-.108.096-.222.141-.329.017-.038.045-.075.066-.107-.004-.06.013-.12-.013-.169-.084-.154-.169-.318-.276-.46-.106-.143-.234-.264-.35-.396l-.012-.012c.011-.01.021-.009.032-.009.081.04.156.072.227.111.016.006.021.012.027.018.107.077.214.154.317.237.132.138.3.211.484.257.114-.036.218-.073.327-.104.065-.02.131-.04.201-.056.038-.005.1-.02.114-.003.06.06.13.023.19.03.027.005.055 0 .076 0 .098.013.2.03.298.043l.005.006c.006.005.011 0 .016.005l.011.011c.011 0 .028.006.032.011.006-.005.011 0 .011 0l.011.001c.06-.026.137-.036.186-.084.126-.134.253-.267.36-.413.094-.134.166-.279.244-.419.006-.006.012-.02.017-.027 0 .01.01.021.01.033-.029.135-.058.27-.098.405-.018.081-.046.173-.075.254-.078.15-.107.308-.093.476.005.027-.007.05-.007.07.026.04.037.071.097.09.042 0 .08.06.112.103.048.061.073.143.127.176.102.051.106.153.16.231.101.136.11.3.112.457 0 .065-.008.135-.013.195 0 .011 0 .021-.012.032.1.181.278.254.445.327.205.09.421.137.632.21 0 0 .011.001.017.006-.01 0-.01 0-.017.006m-.542 2.493c-.01-.108-.002-.222-.022-.33-.015-.094-.04-.186-.073-.273-.02-.077-.046-.148-.077-.224-.026-.07-.063-.143-.09-.213-.005-.006.001-.022-.005-.027.011 0 .017-.006.022 0 .113.051.226.112.346.146.243.085.491.176.745.24.183.045.38.005.56-.063.261-.083.475-.236.673-.418.121-.118.227-.24.267-.42.012-.075.041-.156.07-.226.088-.184.141-.383.16-.595-.02-.076-.036-.158-.062-.239-.025-.126-.039-.25-.076-.376-.076-.322-.36-.58-.392-.614-.075-.055-.15-.1-.226-.155-.005-.006-.198-.139-.3-.189-.097-.045-.206-.069-.308-.119-.184-.089-.39-.082-.443-.083-.044 0-.082.004-.125.003-.12.01-.24.02-.365.034-.016.004-.038.004-.054.01-.016-.007-.038-.007-.054-.012-.01-.01 0-.022.038-.048.012-.01.171-.134.297-.256.122-.129.211-.29.306-.436.122-.214.207-.436.238-.679.024-.206.033-.408-.029-.604-.052-.152-.104-.305-.206-.43-.032-.045-.08-.073-.112-.117-.058-.083-.11-.17-.17-.252-.1-.137-.252-.205-.397-.278-.054-.02-.114-.039-.173-.046-.156-.04-.308-.107-.482-.088-.125.014-.25.03-.375.043-.158.025-.31.044-.462.085-.212.057-.405.168-.58.307-.269.207-.453.481-.592.777-.012.022-.017.038-.029.06-.01-.01-.02-.034-.037-.05-.015-.027-.026-.06-.048-.093-.105-.164-.2-.34-.323-.487-.123-.138-.267-.265-.418-.365-.129-.089-.28-.134-.42-.202-.177-.073-.362-.076-.547-.068-.239.02-.462.074-.665.186-.24.137-.455.302-.61.54-.095.132-.189.278-.278.428-.056.097-.128.19-.15.296-.043.211-.067.428-.082.645-.02.32.083.603.314.83.16.165.342.308.536.442.198.14.414.25.618.373.016.016.032.022.05.028l-.062.015c-.087.021-.174.031-.26.05-.11.031-.213.067-.323.1-.043.02-.082.047-.125.067-.022.011-.044.011-.06.016-.076.042-.154.073-.225.121-.07.048-.13.107-.192.166l-.016.015c-.028.028-.06.06-.099.086l-.11.107-.012.011-.138.198c0 .011-.01.021-.017.027-.027.026-.044.054-.066.086-.006.005-.01.011-.01.022-.007.004-.013.01-.013.01-.005.005-.01.011-.01.022-.029.037-.067.075-.083.123-.046.13-.108.264-.126.4-.018.124.006.25.01.374l.015.104c.011.044.015.093.02.131-.005.004 0 .01 0 .01l.062.197c.09.17.18.328.324.455.102.093.22.182.327.27.011.012.016.028.021.033l.016.017.038.027c.027.006.048.018.075.035l.13.034c.097.034.19.062.281.092h.021l.066.001c.005.004.011 0 .015.005.034 0 .06.006.093.007.038-.005.066-.01.104-.014l.005.004c.103-.003.206.003.31-.044.114-.057.24-.083.36-.135.147-.069.294-.137.432-.216.114-.058.213-.133.323-.196.033-.022.071-.027.104-.037-.006.016-.012.022-.018.04-.035.193-.07.388-.1.588l-.018.081c.005.005.005.017.011.022v.033c0 .032-.007.06-.008.092-.006.005-.01.011-.01.011.02.12.023.233.048.347.026.104.04.218.093.306.117.187.256.362.39.532.164.203.384.331.605.471.247.155.53.16.812.12.163-.018.333-.087.491-.144.19-.068.35-.179.487-.313.215-.209.376-.439.467-.73.073-.21.185-.416.162-.65" mask="url(#jg4g3ymn3b)"/>
        <path fill="#EFCB7C" d="M4.734 36.258c-.265-.17-.497-.371-.637-.662-.014-.03-.025-.063-.038-.094.092.162.18.327.322.45.11.094.222.182.332.273.01.008.014.022.021.033M5.273 36.46c-.085-.017-.17-.03-.255-.055-.055-.015-.105-.048-.158-.072.044.013.088.025.131.04l.282.088" mask="url(#jg4g3ymn3b)"/>
        <path fill="#FFF" d="M9.467 34.514c-.064.076-.138.15-.22.206-.157.106-.323.2-.486.297-.02.012-.047.01-.071.016l-.011.016-.077.015-.031-.003-.078-.004H8.46l-.056-.012-.041.01-.001-.001v.003l-.03.01-.135-.033-.058-.005c-.153-.037-.312-.061-.46-.115-.096-.035-.178-.111-.266-.17-.061-.042-.122-.086-.185-.126-.096-.063-.15-.156-.192-.258-.014-.035-.044-.065-.066-.097-.02-.015-.05-.026-.054-.045-.02-.066-.031-.136-.047-.204-.013-.065-.027-.131-.042-.196v-.001l-.003-.021-.017-.054v-.083c.004-.078.01-.155.012-.232 0-.06-.002-.12-.003-.178 0-.011-.007-.025-.004-.035.034-.093.067-.186.105-.277.046-.111.095-.222.146-.331.017-.037.044-.071.066-.108l.026-.033c.116-.11.23-.222.347-.332.02-.02.043-.037.066-.057.106-.034.212-.071.32-.105.066-.02.135-.038.204-.054.037-.007.096-.023.11-.006.06.065.13.026.193.037.025.004.05-.003.076 0 .099.01.197.025.295.039.002 0 .004 0 .006.002.002 0 .003 0 .005.002l.009.006.013.009c.013.003.024.008.036.012l-.008-.002-.001.006.018-.002h.009l.187.106c.036.02.072.052.11.057.048.007.064.086.127.052 0 0 .012.026.023.033.032.018.065.033.099.05.025.034.039.07.097.083.044.008.08.067.114.109.044.057.069.145.126.172.102.052.103.156.158.23.098.138.11.299.112.46 0 .067-.006.132-.01.198-.004.009-.01.019-.012.029-.03.06-.055.122-.083.182-.063.128-.093.273-.207.376-.024.02-.03.06-.043.093-.061.089-.116.183-.185.264" mask="url(#jg4g3ymn3b)"/>
        <path fill="#FDFDFC" d="M11.059 34.145l-.237.034-.455-.04-.047-.008-.132-.016h-.002c-.022-.002-.046-.008-.066-.007-.168.005-.322.059-.465.142h-.003c.013-.032.019-.072.043-.093.114-.103.143-.248.207-.376.028-.06.054-.121.083-.182.097.179.277.254.446.326.202.088.417.143.627.212v.008M9.4 32.317c-.034-.017-.067-.03-.1-.05-.01-.007-.022-.034-.022-.034-.064.035-.079-.044-.128-.05-.038-.006-.073-.037-.109-.057l-.188-.107c.063-.026.141-.038.184-.082.13-.132.255-.27.363-.419.095-.129.165-.275.246-.415.005-.009.011-.017.015-.026.005.01.015.02.013.03-.03.136-.06.273-.096.408-.022.085-.05.17-.076.252-.08.152-.113.312-.097.482.002.022-.004.045-.006.068M7.568 32.076c-.022.02-.045.037-.065.057-.117.11-.232.221-.347.332-.009.01-.019.022-.026.033h-.002c-.003-.056.008-.12-.015-.165-.083-.158-.168-.319-.274-.462-.102-.143-.232-.266-.349-.398l-.015-.014c.012 0 .026-.007.034-.003.078.035.154.072.23.11.008.004.017.01.024.016l.317.235c.134.141.303.214.488.26M8.639 36.22l-.014-.024c-.137-.23-.197-.488-.26-.745-.039-.161-.129-.292-.226-.422l.06.005.135.033.03-.01v-.001l.041-.011.056.012h.031c.027 0 .052.002.08.004l.03.003.076-.015.004.01c-.027.132-.059.264-.082.395-.006.043.004.089.007.133l.005.145c0 .01 0 .019.002.029v.075l.002.002.002.044c0 .003 0 .006-.002.009l.004.044.027.252c.002.01-.005.022-.008.034M6.97 34.263c-.036-.002-.071-.007-.106-.004-.206.019-.41.057-.595.153h-.002c-.027.008-.055.012-.08.023-.097.04-.194.083-.29.124-.008.004-.02.002-.03.003.005-.006.007-.013.013-.018.092-.08.183-.161.278-.24.068-.055.14-.103.21-.155l.007-.003.04-.028c.138-.06.249-.15.34-.268.019-.023.047-.036.07-.054 0 .007.002.014.004.02l-.001.002c.015.065.029.13.042.196.016.068.028.138.047.204.005.019.035.03.054.045" mask="url(#jg4g3ymn3b)"/>
        <path fill="#EFCB7C" d="M7.128 32.498l-.024-.016.024.015v.001zM9.844 37.793l-.127.116c-.007.006-.018.007-.026.01.005-.007.008-.015.014-.021l.12-.123.038-.031-.02.049M8.68 36.901c-.03.02-.06.04-.088.061.008-.023.01-.05.026-.065.016-.016.044-.018.067-.027l-.005.031M10.071 37.472l-.028.02c.007-.018.012-.037.021-.053.003-.007.015-.01.022-.014l-.015.047zM10.106 37.38l-.017.007c.001-.008 0-.017.002-.023.003-.005.012-.007.018-.011l-.003.027" mask="url(#jg4g3ymn3b)"/>
        <path fill="#F6E3E3" d="M8.845 32.02c-.006 0-.012 0-.018.002v-.006c.003 0 .006 0 .009.002.003 0 .006 0 .009.002" mask="url(#jg4g3ymn3b)"/>
        <path fill="#EFCB7C" d="M7.157 32.466v-.001zM8.364 35.056L8.363 35.057 8.363 35.054z" mask="url(#jg4g3ymn3b)"/>
        <path fill="#F6E3E3" d="M11.073 34.143l-.015.003v-.01c.004.003.01.005.015.007" mask="url(#jg4g3ymn3b)"/>
        <path fill="#2C4349" d="M19.04 34.994c-.032.187-.065.375-.101.562-.06.318-.122.635-.178.953-.022.116-.045.23-.11.333-.042-.218-.092-.436-.13-.655-.168-1.04-.38-2.073-.653-3.09-.058-.216-.098-.437-.165-.649-.151-.48-.268-.973-.415-1.456-.121-.399-.28-.784-.408-1.18-.06-.183-.144-.358-.221-.536-.015-.037-.052-.065-.07-.088-.098-.029-.16.022-.224.052-.29.137-.596.172-.912.16-.27-.01-.531-.058-.788-.137-.128-.04-.254-.082-.353-.115-.128.007-.194.068-.253.135-.083.092-.184.15-.314.158-.181-.027-.322-.134-.456-.256-.154-.226-.24-.475-.234-.774.095-.368.398-.547.704-.693.145-.019.263-.026.382.051.02.024.06.051.08.09.09.186.177.375.26.551.07.084.159.104.243.13.227.072.458.13.697.142.287.017.565-.008.809-.182l.02-.092c-.103-.225-.216-.45-.352-.665-.094-.15-.176-.31-.268-.463-.2-.333-.434-.639-.733-.89-.032-.029-.074-.046-.094-.059-.116-.03-.191.03-.276.052l-.201.05c-.187-.016-.338-.084-.445-.213-.135-.163-.23-.35-.25-.564-.011-.132-.001-.265-.001-.356.099-.268.232-.463.385-.649.168-.126.347-.228.555-.286.132-.015.263 0 .4.082.1.106.2.234.249.395.034.113.06.227.054.35-.01.192-.006.385-.01.581.05.052.1.107.154.158.389.375.692.815.952 1.285.115.21.219.423.335.631.033.06.073.128.173.117.012-.038.035-.079.037-.12.019-.37.025-.742-.034-1.112-.03-.195-.08-.377-.2-.536-.1-.133-.16-.283-.2-.444-.042-.188-.012-.349.138-.487.12-.112.236-.226.493-.277.096-.014.266.025.446.155.049.07.126.163.185.263.179.303.144.585-.098.856l-.096.11c.006.066.008.14.017.212.057.398.086.798.067 1.2-.021.433-.076.858-.304 1.244.077.356.229.68.364 1.008.015.038.049.068.074.1.034-.012.073-.014.087-.033.196-.278.383-.563.614-.796.033-.228.057-.435.183-.648l.273-.222c.063-.01.106-.019.15-.027.239-.046.403.071.529.253.137.2.22.42.237.664.01.14-.021.268-.101.38-.124.173-.262.326-.52.345l-.316-.107c-.024.011-.056.017-.074.036-.394.441-.564.971-.598 1.55-.005.116.016.237.042.352.063.275.127.55.205.822.185.657.325 1.326.473 1.992.023.101.06.198.09.297M19.585 19.589c.024.017.046.04.072.05.615.24 1.168.593 1.692.985.523.393.995.847 1.418 1.35.287.34.564.69.82 1.054.23.329.449.665.562 1.057.012.042.013.087.02.14-.038.02-.073.053-.11.056-.21.018-.415-.025-.62-.057-.353-.055-.702-.125-1.04-.25-.25-.091-.501-.183-.763-.242-.145-.034-.283-.093-.421-.148-.595-.236-1.19-.474-1.782-.714-.264-.105-.51-.248-.74-.412-.506-.363-1.003-.741-1.508-1.107-.282-.203-.516-.444-.715-.728-.273-.39-.566-.765-.848-1.15-.043-.058-.08-.122-.113-.174.045-.111.082-.206.142-.36.27-.291.589-.623.927-.935.23-.212.503-.368.786-.503.296-.141.592-.28.91-.43.445-.083.918-.127 1.393-.166.464-.038.919.03 1.373.119.459.173.918.345 1.377.52.055.023.097.068.116.147-.007.027-.005.079-.028.11-.116.154-.222.32-.363.449-.377.339-.782.647-1.25.85-.271.118-.561.194-.843.287-.141.046-.285.085-.426.132-.017.007-.025.046-.038.07M1.458 26.553c-.028-.008-.057-.021-.086-.021-.66-.008-1.302-.142-1.93-.324-.628-.182-1.23-.441-1.803-.761-.39-.22-.772-.448-1.14-.698-.331-.225-.655-.464-.9-.79-.026-.035-.042-.077-.068-.124.029-.033.05-.076.084-.092.19-.09.397-.122.6-.165.349-.073.7-.13 1.059-.133.268-.003.536-.006.802-.042.147-.021.297-.014.446-.011.64.01 1.28.023 1.919.037.284.006.564.053.836.125.604.16 1.202.339 1.804.503.334.09.64.232.926.428.392.268.799.517 1.199.775.062.04.118.088.167.125l-.006.386c-.148.368-.33.79-.537 1.202-.14.28-.34.522-.558.749-.226.236-.455.47-.7.723-.385.235-.813.443-1.243.647-.42.199-.87.297-1.326.375-.49 0-.982 0-1.472-.002-.06-.001-.115-.028-.16-.095-.004-.028-.024-.075-.013-.113.054-.184.094-.38.182-.548.232-.45.5-.882.867-1.236.212-.207.456-.381.689-.567.115-.093.236-.18.35-.274.016-.013.009-.052.012-.08" mask="url(#jg4g3ymn3b)"/>
    </g>
</svg>
