<svg xmlns="http://www.w3.org/2000/svg" xmlns:xlink="http://www.w3.org/1999/xlink" width="23" height="39" viewBox="0 0 23 39">
    <defs>
        <path id="6gemyief2a" d="M.452 21.297c0 9.149 1.508 17.202 11.292 17.202 9.784 0 11.061-10.47 11.061-17.202 0-6.733-3.741-20.796-11.176-20.796C4.192.501.452 12.146.452 21.297z"/>
    </defs>
    <g fill="none" fill-rule="evenodd">
        <mask id="b6so3kvlhb" fill="#fff">
            <use xlink:href="#6gemyief2a"/>
        </mask>
        <path fill="#2C4349" d="M-5.136 19.308L28.392 19.308 28.392 -1.088 -5.136 -1.088z" mask="url(#b6so3kvlhb)"/>
        <path fill="#F3EBE6" d="M-5.36 32.126c.696-9.908 7.827-17.515 16.583-17.687l.175-.001c.226-.002.454-.004.681.008 9.096.326 16.422 8.858 16.345 19.027-.023 3.045-.945 5.98-1.832 8.471-2.284 6.333-5.404 11.875-8.921 17.939-.527.907-1.055 1.769-1.622 2.691l-3.941 6.54-3.072-4.877c-.585-.925-1.157-1.806-1.713-2.688l-.138-.205c-1.44-2.234-2.785-4.32-4.053-6.554-2.164-3.792-4.116-7.542-5.824-11.132-1.571-3.325-2.986-7.021-2.667-11.532" mask="url(#b6so3kvlhb)"/>
    </g>
</svg>
