<svg xmlns="http://www.w3.org/2000/svg" width="31.782" height="46.387" viewBox="0 0 31.782 46.387">
  <path id="Path_Copy_24" data-name="Path Copy 24" d="M28.4,21.062c-1.52-2.97-3.269-6.066-5.2-9.2-1.133-1.842-2.343-3.575-3.63-5.42L19.45,6.26c-.5-.721-1.017-1.458-1.536-2.22L15.16,0,11.509,5.347c-.519.756-1.009,1.469-1.488,2.2a86.6,86.6,0,0,0-8.273,14.7A19.721,19.721,0,0,0,0,29.206,15.5,15.5,0,0,0,14.708,44.987c.209.008.416.013.625.013h.153A15.57,15.57,0,0,0,30.737,30.578c.329-3.715-.928-6.769-2.334-9.516" transform="translate(0.5 0.887)" fill="#2c4349" stroke="#fff" stroke-miterlimit="10" stroke-width="1"/>
</svg>
