<svg xmlns="http://www.w3.org/2000/svg" width="76" height="82" viewBox="0 0 76 82">
    <g fill="none" fill-rule="evenodd">
        <g>
            <g>
                <path fill="#F5DED1" d="M55 37.911c-2.73-5.347-5.87-10.919-9.337-16.567-2.035-3.316-4.207-6.435-6.518-9.755l-.221-.321c-.905-1.298-1.827-2.625-2.758-3.997L31.222 0l-6.556 9.625c-.93 1.361-1.811 2.644-2.672 3.96-5.86 8.944-11.026 17.109-14.854 26.46-1.5 3.664-3.046 8.018-3.134 12.526-.301 15.05 11.543 27.792 26.404 28.405.376.015.748.024 1.122.024.09 0 .181 0 .274-.002 14.317-.135 26.09-11.294 27.385-25.958.59-6.687-1.666-12.185-4.192-17.129" opacity=".324" transform="translate(-1023 -663) translate(1024 663)"/>
                <g stroke="#2C4349" stroke-width=".8">
                    <path d="M23.28 37.832l-20.093-.578c-1.672-.05-2.986-1.447-2.936-3.12L1.34 3.188C1.39 1.515 2.786.2 4.46.251L41.433 1.36c1.672.05 2.986 1.447 2.936 3.119l-.93 25.749M40.553 38.375L27.152 37.97" transform="translate(-1023 -663) translate(1024 663) translate(0 9)"/>
                    <path d="M7.548 22.754c1.323.074 2.006-1.053 2.095-1.785.082-.667.077-2.18.1-2.448.154-1.835-.755-2.657-1.871-2.73-1.116-.072-1.89.848-1.986 1.999-.079.931-.209 2.535-.233 2.954-.036.654.174 1.914 1.895 2.01zM14.096 23.094c1.515.085 2.297-1.206 2.4-2.044.092-.764.087-2.495.113-2.802.176-2.1-.864-3.041-2.142-3.125-1.278-.083-2.162.97-2.274 2.288-.09 1.066-.238 2.902-.265 3.38-.042.75.199 2.192 2.168 2.303zM20.795 23.441c1.609.09 2.44-1.28 2.548-2.17.099-.812.093-2.65.12-2.977.188-2.231-.917-3.23-2.274-3.319-1.358-.088-2.297 1.03-2.415 2.43-.096 1.132-.254 3.082-.282 3.591-.045.796.21 2.328 2.303 2.445zM26.993 23.789c1.422.08 2.157-1.133 2.253-1.92.088-.716.082-2.342.107-2.631.165-1.972-.812-2.856-2.012-2.934-1.2-.078-2.03.91-2.135 2.148-.084 1.001-.223 2.725-.25 3.176-.039.702.188 2.057 2.037 2.16zM32.736 24.111c1.18.066 1.788-.938 1.867-1.59.073-.595.069-1.942.09-2.182.137-1.634-.673-2.366-1.668-2.431-.994-.065-1.683.754-1.77 1.78-.07.83-.185 2.258-.206 2.632-.033.582.154 1.705 1.688 1.791zM33.606 13.824c-1.358-.084-1.917-1.316-1.92-2.073-.002-.69.186-2.23.195-2.507.065-1.889 1.091-2.617 2.238-2.555 1.146.06 1.822 1.091 1.782 2.276-.033.96-.095 2.61-.121 3.04-.042.67-.409 1.93-2.174 1.82zM27.507 13.444c-1.514-.094-2.139-1.468-2.141-2.312-.003-.77.207-2.488.217-2.797.073-2.106 1.217-2.918 2.496-2.85 1.279.069 2.033 1.219 1.988 2.54-.037 1.07-.106 2.91-.135 3.39-.047.748-.456 2.152-2.425 2.03zM21.31 13.058c-1.607-.1-2.27-1.559-2.274-2.456-.003-.818.22-2.643.231-2.97.078-2.238 1.293-3.1 2.651-3.027 1.358.072 2.16 1.293 2.111 2.697-.038 1.136-.111 3.091-.143 3.6-.049.795-.484 2.286-2.575 2.156zM14.614 12.672c-1.421-.088-2.008-1.378-2.01-2.171-.003-.723.194-2.336.204-2.626.068-1.978 1.143-2.74 2.343-2.676 1.201.064 1.91 1.144 1.867 2.384-.034 1.005-.099 2.733-.127 3.183-.043.703-.428 2.021-2.277 1.906zM7.873 12.315c-1.178-.073-1.665-1.143-1.667-1.8-.002-.599.161-1.937.17-2.177.056-1.639.947-2.27 1.942-2.218.995.054 1.582.948 1.548 1.977-.029.832-.082 2.265-.106 2.638-.035.582-.354 1.675-1.887 1.58zM6.87 33.025c1.392.078 2.11-1.108 2.204-1.878.086-.702.08-2.292.105-2.575.161-1.93-.794-2.794-1.968-2.87-1.174-.077-1.987.89-2.09 2.101-.082.98-.218 2.666-.243 3.107-.039.688.183 2.013 1.992 2.115zM13.522 33.37c1.514.085 2.297-1.206 2.399-2.044.093-.764.088-2.495.113-2.803.177-2.1-.864-3.04-2.142-3.123-1.277-.084-2.162.969-2.273 2.287-.09 1.066-.239 2.901-.266 3.38-.042.75.2 2.192 2.169 2.303zM20.22 33.717c1.61.09 2.44-1.28 2.549-2.17.098-.812.093-2.65.12-2.977.187-2.23-.918-3.23-2.275-3.319-1.357-.088-2.297 1.03-2.415 2.43-.095 1.132-.253 3.082-.282 3.591-.045.796.211 2.328 2.303 2.445zM26.42 34.065c1.422.08 2.156-1.132 2.252-1.92.088-.716.082-2.342.107-2.631.165-1.972-.812-2.855-2.012-2.934-1.2-.078-2.03.91-2.135 2.148-.084 1.001-.223 2.725-.25 3.176-.039.703.188 2.057 2.037 2.16zM32.163 34.387c1.178.067 1.787-.938 1.867-1.59.072-.595.068-1.942.088-2.182.138-1.634-.672-2.366-1.667-2.431-.994-.065-1.683.755-1.77 1.78-.07.83-.185 2.259-.206 2.632-.033.583.155 1.705 1.688 1.791zM54.2 71.896c-2.294-2.437-4.57-5.231-6.508-8.868-3.05-5.72-2.71-4.993-2.71-4.993s-4.321-2.095-6.49-3.18c-2.17-1.084-9.9-4.338-10.984-5.152-1.085-.814-2.184-1.858-1.695-3.662.314-1.159 1.64-1.558 1.64-1.558" transform="translate(-1023 -663) translate(1024 663) translate(0 9)"/>
                    <path d="M46.763 51.6s-6.102-1.83-8.543-2.847c-2.44-1.017-7.661-3.186-9.763-3.932-2.102-.746-2.06-.671-4-1.81-1.822-1.07-1.763-3.142-1.394-3.86.549-1.067 1.651-1.795 3.332-1.381.938.23 2.51.684 4.465 1.51 3.05 1.288 4.58 2.016 7.225 2.761 2.644.746 10.852 3.992 10.852 3.992" transform="translate(-1023 -663) translate(1024 663) translate(0 9)"/>
                    <path d="M61.679 69.703s-5.356-2.915-7.933-10.576c-2.576-7.662-1.356-9.492-4.339-12.611-2.983-3.119-7.425-6.702-9.61-8.864-2.373-2.348-3.854-4.512-3.216-5.253M40.071 28.639s.96-.447 1.909.299c.949.745 4.987 3.969 9.258 8.333 4.271 4.364 8.678 5.38 10.441 5.313M43.525 27.4s3.671 0 5.47.55c1.8.55 3.631 2.014 10.316 2.93 6.684.916 9.706 3.205 10.988 6.867.938 2.68 2.316 7.123 4.172 11.68M45.858 55.7s-.079 1.836-.877 2.335" transform="translate(-1023 -663) translate(1024 663) translate(0 9)"/>
                    <path d="M46.767 53.295s.272-1.098.218-1.607c-.055-.51 1.055-1.018 1.164-2.073M57.567 41.658s.413-2.772 4.767-4.948M48.149 30.18s.298 1.789-.691 3.192M42.551 34.72c.978-1.101.735-3.018.092-3.665-.586-.59-2.07-1.98-2.321-2.2-.25-.22-.938-.825-1.393-.905-.456-.081-1.593-.21-2.544.852-.95 1.064-.509 2.677.196 3.597.704.921 2.1 2.309 2.482 2.661.38.353 2.028 1.302 3.488-.34zM44.334 5.823l-.848 1.08c-.12.152-.234.296-.346.443-.76 1.005-1.433 1.924-1.963 2.995-.207.42-.426.92-.477 1.453-.173 1.776 1.082 3.39 2.798 3.595.044.005.087.01.13.013l.032.002c.079.005.157.008.235.007M43.923 15.804l-.847 1.079c-.121.152-.235.296-.346.444-.761 1.005-1.434 1.924-1.963 2.995-.208.42-.427.92-.478 1.452-.173 1.777 1.083 3.39 2.799 3.596l.129.012.032.002c.079.006.157.008.235.008M43.525 25.958l-.848 1.08c-.12.152-.234.296-.346.443-.3.396-.586.78-.855 1.163M24.588 37.832s-1.393-.586-2.288.865c-.703 1.137.142 2.594.736 2.594" transform="translate(-1023 -663) translate(1024 663) translate(0 9)"/>
                </g>
            </g>
        </g>
    </g>
</svg>
