<svg xmlns="http://www.w3.org/2000/svg" xmlns:xlink="http://www.w3.org/1999/xlink" width="62" height="81" viewBox="0 0 62 81">
    <defs>
        <path id="raxiwn0ada" d="M0 0.105L10.44 0.105 10.44 0.225 0 0.225z"/>
    </defs>
    <g fill="none" fill-rule="evenodd">
        <g>
            <g>
                <path fill="#F5DED1" d="M54 37.911c-2.73-5.347-5.87-10.919-9.337-16.567-2.035-3.316-4.207-6.435-6.518-9.755l-.221-.321c-.905-1.298-1.827-2.625-2.758-3.997L30.222 0l-6.556 9.625c-.93 1.361-1.811 2.644-2.672 3.96-5.86 8.944-11.026 17.109-14.854 26.46-1.5 3.664-3.046 8.018-3.134 12.526-.301 15.05 11.543 27.792 26.404 28.405.376.015.748.024 1.122.024.09 0 .181 0 .274-.002 14.317-.135 26.09-11.294 27.385-25.958.59-6.687-1.666-12.185-4.192-17.129" opacity=".324" transform="translate(-714 -544) translate(714 544)"/>
                <g>
                    <g>
                        <path stroke="#F5BFA0" stroke-width=".8" d="M26.84 6.012c-.352 1.292-.671 2.684-.948 4.136-.162.853-.272 1.693-.39 2.588l-.011.087c-.046.35-.093.707-.146 1.073l-.276 1.942 2.527-.603c.358-.085.696-.164 1.036-.252 2.31-.595 4.389-1.166 6.425-2.134.797-.38 1.707-.865 2.398-1.596 2.31-2.438 2.27-6.319-.09-8.652-.06-.06-.12-.117-.18-.173-.016-.014-.03-.027-.047-.04-2.382-2.129-6-2.056-8.417.169-1.101 1.014-1.555 2.26-1.88 3.455M22.941 6.012c.353 1.292.672 2.684.948 4.136.163.853.273 1.693.39 2.588l.012.087c.046.35.093.707.145 1.073l.277 1.942-2.528-.603c-.358-.085-.695-.164-1.035-.252-2.31-.595-4.389-1.166-6.425-2.134-.798-.38-1.707-.865-2.399-1.596-2.31-2.438-2.27-6.319.09-8.652.06-.06.12-.117.182-.173l.045-.04c2.383-2.129 6.001-2.056 8.417.169 1.102 1.014 1.556 2.26 1.881 3.455M41.881 12.838L24.713 15.838M7.723 12.838L24.891 15.838" transform="translate(-714 -544) translate(714 544) translate(0 14)"/>
                        <path stroke="#2C4349" stroke-width=".8" d="M12.579 48.502L5.22 48.502 5.22 45.456M5.22 36.728L5.22 15.838 44.743 15.838 44.743 36.728 44.743 42.278 44.743 48.502 22.764 48.502M56.636 48.502h4.23v-9.917c0-2.724-2.207-4.932-4.931-4.932H44.743v14.85h1.666M56.527 26.056H44.743V21.58h8.256c1.949 0 3.528 1.58 3.528 3.528v.95zM54.711 26.056L56.527 33.689" transform="translate(-714 -544) translate(714 544) translate(0 14)"/>
                        <path stroke="#2C4349" stroke-width=".8" d="M59.251 42.536h1.575v-4.574h-4.574v1.574c0 1.657 1.343 3 3 3z" transform="translate(-714 -544) translate(714 544) translate(0 14)"/>
                        <g transform="translate(-714 -544) translate(714 544) translate(0 14) translate(0 45.29)">
                            <mask id="4jv3si3s5b" fill="#fff">
                                <use xlink:href="#raxiwn0ada"/>
                            </mask>
                            <path stroke="#2C4349" stroke-width=".8" d="M0 0.165L10.44 0.165" mask="url(#4jv3si3s5b)"/>
                        </g>
                        <path stroke="#2C4349" stroke-width=".8" d="M24.871 45.456L41.161 45.456M2.296 41.296L16.533 41.296M22.826 49.48c0 2.856-2.315 5.17-5.17 5.17-2.856 0-5.17-2.314-5.17-5.17 0-2.855 2.314-5.17 5.17-5.17 2.855 0 5.17 2.315 5.17 5.17zM56.656 49.48c0 2.856-2.315 5.17-5.17 5.17s-5.17-2.314-5.17-5.17c0-2.855 2.315-5.17 5.17-5.17s5.17 2.315 5.17 5.17z" transform="translate(-714 -544) translate(714 544) translate(0 14)"/>
                        <path stroke="#2C4349" stroke-width=".8" d="M19.223 49.48c0 .866-.702 1.568-1.568 1.568-.865 0-1.567-.702-1.567-1.567 0-.866.702-1.568 1.567-1.568.866 0 1.568.702 1.568 1.568zM53.053 49.48c0 .866-.701 1.568-1.567 1.568s-1.567-.702-1.567-1.567c0-.866.701-1.568 1.567-1.568s1.567.702 1.567 1.568z" transform="translate(-714 -544) translate(714 544) translate(0 14)"/>
                    </g>
                    <path fill="#2C4349" d="M28.068 34.839c-.832.912-2.013 1.405-3.255 1.357-2.227-.088-4.002-1.925-3.957-4.094.014-.65.263-1.316.506-1.883.102-.239.22-.49.365-.782.832 1.36 3.039 3.928 6.341 5.402m1.063-2.395c-.057.613-.247 1.194-.565 1.727-3.63-1.576-6.061-4.772-6.37-5.618.543-.958 1.176-1.895 1.778-2.773.15-.218.304-.433.492-.695l.458-.64.182.256c.184.259.366.508.557.77.402.552.782 1.073 1.14 1.63.614.957 1.171 1.902 1.657 2.81.4.75.76 1.575.671 2.533m.094-2.891c-.494-.925-1.062-1.888-1.689-2.864-.368-.573-.761-1.112-1.179-1.686l-.04-.055c-.164-.225-.33-.454-.499-.691L24.924 23l-1.186 1.664c-.168.235-.328.457-.483.684-1.06 1.546-1.995 2.957-2.687 4.574-.271.633-.551 1.385-.567 2.164-.054 2.602 2.088 4.804 4.776 4.91.068.003.135.004.203.004h.05c2.59-.024 4.719-1.952 4.953-4.487.107-1.156-.301-2.106-.758-2.96" transform="translate(-714 -544) translate(714 544) translate(0 14)"/>
                </g>
            </g>
        </g>
    </g>
</svg>
