<svg xmlns="http://www.w3.org/2000/svg" width="70" height="81" viewBox="0 0 70 81">
    <g fill="none" fill-rule="evenodd">
        <g>
            <g>
                <path fill="#F5DED1" d="M58 37.911c-2.73-5.347-5.87-10.919-9.337-16.567-2.035-3.316-4.207-6.435-6.518-9.755l-.221-.321c-.905-1.298-1.827-2.625-2.758-3.997L34.222 0l-6.556 9.625c-.93 1.361-1.811 2.644-2.672 3.96-5.86 8.944-11.026 17.109-14.854 26.46-1.5 3.664-3.046 8.018-3.134 12.526-.301 15.05 11.543 27.792 26.404 28.405.376.015.748.024 1.122.024.09 0 .181 0 .274-.002 14.317-.135 26.09-11.294 27.385-25.958.59-6.687-1.666-12.185-4.192-17.129" opacity=".324" transform="translate(-709 -659) translate(710 659)"/>
                <g stroke-width=".8">
                    <g>
                        <g stroke="#2C4349">
                            <path d="M6.026 38.102L.113 38.102.202 10.774.202 8.355 6.026 8.355 6.026 10.774zM5.758 42.941L.382 42.941.382 38.909.113 38.909.113 38.102 6.026 38.102 6.026 38.909 5.758 38.909zM5.936 8.355H.202v-.717h.985V2.442c0-.807.807-1.165 1.703-.628.985.538 2.06 1.792 2.06 3.136v2.688l.986.09v.627z" transform="translate(-709 -659) translate(710 659) translate(0 19) translate(0 7.2) translate(9.334)"/>
                            <path d="M4.503 5.398c-.717.538-1.792-.09-2.509-1.164-.717-1.076-1.075-2.061-.448-2.51.627-.447 1.702.09 2.598 1.166.807.985 1.076 1.97.359 2.508zM.291 8.355L6.026 8.355 6.026 7.638.291 7.638z" transform="translate(-709 -659) translate(710 659) translate(0 19) translate(0 7.2) translate(9.334)"/>
                            <path d="M1.635.112h3.047c.717 0 1.254.807 1.344 1.792v11.648H.202V1.904C.202.92.919.112 1.635.112z" transform="translate(-709 -659) translate(710 659) translate(0 19) translate(0 7.2) translate(9.334)"/>
                        </g>
                        <g stroke="#2C4349">
                            <path d="M0.08 30.608L10.064 30.608 10.064 0.08 0.08 0.08z" transform="translate(-709 -659) translate(710 659) translate(0 19) translate(0 7.2) translate(18.934 12.16)"/>
                            <path d="M0.08 30.672L10.064 30.672 10.064 12.816 0.08 12.816z" transform="translate(-709 -659) translate(710 659) translate(0 19) translate(0 7.2) translate(18.934 12.16)"/>
                            <path d="M6.928 27.216H3.28c-1.088 0-1.984-.832-2.112-1.92L.72 12.816h8.704L8.912 25.36c0 1.024-.896 1.856-1.984 1.856z" transform="translate(-709 -659) translate(710 659) translate(0 19) translate(0 7.2) translate(18.934 12.16)"/>
                        </g>
                        <path stroke="#2C4349" d="M15.36 6.4h31.734c2.474 0 4.48 2.006 4.48 4.48v26.24c0 2.474-2.006 4.48-4.48 4.48H41.3h0-12.302" transform="translate(-709 -659) translate(710 659) translate(0 19) translate(0 7.2)"/>
                        <path stroke="#2C4349" d="M.209 6.4h5.056c2.474 0 4.48 2.006 4.48 4.48v26.24c0 2.474-2.006 4.48-4.48 4.48H0" transform="translate(-709 -659) translate(710 659) translate(0 19) translate(0 7.2) matrix(-1 0 0 1 9.745 0)"/>
                        <path stroke="#2C4349" d="M15.116 41.6L19.014 41.6" transform="translate(-709 -659) translate(710 659) translate(0 19) translate(0 7.2)"/>
                        <path stroke="#F5BFA0" d="M40.534 18.606c.762.612 1.82.974 2.866.974 1.176 0 2.363-.594 2.363-1.923 0-.742-.38-1.236-2.384-1.725-.163-.04-.316-.081-.46-.123h0c-2.005-.49-2.385-.984-2.385-1.725 0-1.33 1.187-1.924 2.363-1.924 1.046 0 2.104.362 2.866.975M42.498 10.72L42.498 21.12M43.778 10.72L43.778 21.12" transform="translate(-709 -659) translate(710 659) translate(0 19) translate(0 7.2)"/>
                    </g>
                    <g stroke="#2C4349">
                        <path d="M47.574 45.683h10.601c2.06 0 5.639-.52 4.935-6.307-.47-3.859-1.313-11.073-2.529-21.643-.539-3.671-1.011-6.754-1.417-9.248" transform="translate(-709 -659) translate(710 659) translate(0 19) translate(4)"/>
                        <path d="M59.272 9.108c-.525-3.127-1.232-5.726-1.232-5.726-11.737-.335-21.351-.502-28.843-.502-7.491 0-16.345.167-26.563.502C1.527 7.185.774 10.545.374 13.461M51.68 2.88c.298-.479.67-.718 1.119-.718.671 0 2.013-.033 2.013.163 0 .13.156.316.468.555" transform="translate(-709 -659) translate(710 659) translate(0 19) translate(4)"/>
                        <path d="M53.84 2.091c.915-.73 1.575-.846 1.977-.35.403.496.14.876-.789 1.139" transform="translate(-709 -659) translate(710 659) translate(0 19) translate(4)"/>
                        <path d="M54.56 1.415c1.223-.9 1.951-1.35 2.185-1.35.35 0 1.264-.572 1.65 1.686.384 2.259 1.927 5.108 2.872 6.697.63 1.059 1.6 3.052 2.913 5.977l-1.44.91c-1.736-3.725-2.929-6.021-3.577-6.887" transform="translate(-709 -659) translate(710 659) translate(0 19) translate(4)"/>
                        <path d="M56.745.065c-.204.643-.152 1.143.158 1.5.233.268.367.268.5.63.127.347.201.74.222 1.176M2 5.04c6.365-.48 16.531-.72 30.5-.72 13.969 0 22.597.24 25.884.72" transform="translate(-709 -659) translate(710 659) translate(0 19) translate(4)"/>
                        <path d="M58.688 43.808c.882-.27 1.498-.492 1.847-.667.801-.403 1.441-1.123 1.809-1.715" transform="translate(-709 -659) translate(710 659) translate(0 19) translate(4) matrix(-1 0 0 1 121.031 0)"/>
                        <path d="M55.882 2.428c.41-.285.664-.31.763-.073.148.356.566.75.566 1.016" transform="translate(-709 -659) translate(710 659) translate(0 19) translate(4)"/>
                    </g>
                </g>
            </g>
        </g>
    </g>
</svg>
