<svg xmlns="http://www.w3.org/2000/svg" width="58" height="81" viewBox="0 0 58 81">
    <g fill="none" fill-rule="evenodd">
        <g>
            <g>
                <path fill="#F5DED1" d="M51.61 37.911c-2.729-5.347-5.87-10.919-9.335-16.567-2.035-3.316-4.207-6.435-6.519-9.755l-.22-.321c-.906-1.298-1.828-2.625-2.759-3.997L27.834 0l-6.556 9.625c-.932 1.361-1.812 2.644-2.672 3.96C12.744 22.529 7.58 30.694 3.75 40.045 2.251 43.71.705 48.064.617 52.572c-.3 15.05 11.544 27.792 26.405 28.405.376.015.747.024 1.121.024.09 0 .182 0 .274-.002 14.318-.135 26.091-11.294 27.385-25.958.59-6.687-1.665-12.185-4.191-17.129" opacity=".324" transform="translate(-1026 -544) translate(1027.389 544)"/>
                <g>
                    <g stroke-width=".8">
                        <path stroke="#2C4349" d="M0 33.362L44.685 33.362 44.685 3.206 0 3.206z" transform="translate(-1026 -544) translate(1027.389 544) translate(0 23.255) rotate(-15 48.787 4.808)"/>
                        <path stroke="#2C4349" d="M3.206 3.206L3.206 0 47.891 0 47.891 30.156 44.685 30.156M22.343 6.229L22.343 30.279M40.749 30.156L31.949 30.156" transform="translate(-1026 -544) translate(1027.389 544) translate(0 23.255) rotate(-15 48.787 4.808)"/>
                        <path stroke="#F5BFA0" d="M16.877 8.001L3.697 8.092M16.738 16.246L3.558 16.337M16.808 12.123L3.628 12.215M16.669 20.368L3.489 20.46M9.413 24.601L3.54 24.646" transform="translate(-1026 -544) translate(1027.389 544) translate(0 23.255) rotate(-15 48.787 4.808)"/>
                        <path stroke="#2C4349" d="M40.749 27.879L37.549 27.879" transform="translate(-1026 -544) translate(1027.389 544) translate(0 23.255) rotate(-15 48.787 4.808)"/>
                    </g>
                    <path fill="#2C4349" stroke="#2C4349" stroke-width=".2" d="M42.129 16.475c-.38.787-1.079 1.354-1.924 1.56-1.515.37-3.072-.55-3.468-2.047-.119-.449-.082-.955-.03-1.39.022-.185.05-.38.091-.608.827.773 2.818 2.11 5.33 2.485m.244-1.85c.083.433.07.868-.04 1.296-2.752-.382-5.018-2.107-5.392-2.629.177-.762.418-1.528.65-2.247.058-.178.12-.356.194-.572l.182-.528.174.14c.174.143.346.28.526.422.38.302.738.586 1.088.9.601.538 1.162 1.08 1.668 1.61.417.436.821.934.95 1.609m-.506-2.004c-.514-.539-1.086-1.09-1.7-1.64-.36-.322-.731-.617-1.125-.93l-.038-.03c-.154-.123-.312-.248-.472-.378l-.849-.69-.47 1.37c-.067.194-.13.377-.19.563-.41 1.266-.76 2.416-.908 3.66-.058.486-.098 1.057.044 1.595.476 1.796 2.351 2.895 4.18 2.45l.138-.037.033-.01c1.738-.515 2.792-2.25 2.45-4.036-.156-.814-.617-1.388-1.093-1.887" transform="translate(-1026 -544) translate(1027.389 544) translate(0 23.255)"/>
                </g>
            </g>
        </g>
    </g>
</svg>
