<svg xmlns="http://www.w3.org/2000/svg" width="15.992" height="15.992" viewBox="0 0 15.992 15.992">
  <g id="google" transform="translate(0 -0.004)">
    <path id="SVGCleanerId_1_1_" d="M10.421,4.958a5.29,5.29,0,0,0-8.14-.639l-.232.24L0,2.8l.253-.27A7.978,7.978,0,0,1,12.727,3.542l.094.141a.194.194,0,0,1-.063.276l-2,1.176a.194.194,0,0,1-.258-.056Z" transform="translate(1.911 0.004)" fill="#2c4349"/>
    <path id="SVGCleanerId_2_1_" d="M1.02,9.132A7.981,7.981,0,0,1,1.711.29L1.94,0,3.989,1.758l-.2.266a5.283,5.283,0,0,0-.449,5.717l.159.294L1.2,9.455Z" transform="translate(0 2.771)" fill="#2c4349"/>
    <path id="SVGCleanerId_3_1_" d="M6.819,5.228a8,8,0,0,1-6.61-3.5L0,1.419,2.3,0l.192.273a5.307,5.307,0,0,0,4.33,2.252A5.329,5.329,0,0,0,10.63.9l.232-.24L12.909,2.42l-.253.27a7.987,7.987,0,0,1-2.6,1.853A7.919,7.919,0,0,1,6.819,5.228Z" transform="translate(1.177 10.769)" fill="#2c4349"/>
    <path id="Path" d="M3.151,4.375l.2-.266A5.263,5.263,0,0,0,4.118,2.7H.194A.194.194,0,0,1,0,2.508V.194A.194.194,0,0,1,.194,0H6.942a.171.171,0,0,1,.171.167l.019.746A7.909,7.909,0,0,1,5.426,5.84L5.2,6.131Z" transform="translate(8.86 7.092)" fill="#2c4349"/>
  </g>
</svg>
