<svg xmlns="http://www.w3.org/2000/svg" width="21" height="21" viewBox="0 0 21 21">
    <g fill="none" fill-rule="evenodd">
        <g fill-rule="nonzero">
            <g>
                <path fill="#FBBB00" d="M4.539 12.376l-.713 2.662-2.606.055C.442 13.648 0 11.996 0 10.24c0-1.698.413-3.3 1.145-4.71l2.32.426 1.016 2.306c-.212.62-.328 1.285-.328 1.978 0 .752.136 1.472.386 2.136z" transform="translate(-903 -474) translate(903 474)"/>
                <path fill="#518EF8" d="M20.301 8.327c.118.62.179 1.26.179 1.913 0 .733-.077 1.448-.224 2.138-.498 2.347-1.8 4.397-3.605 5.848v-.001l-2.923-.15-.413-2.58c1.197-.703 2.133-1.802 2.626-3.117h-5.476V8.327h9.836z" transform="translate(-903 -474) translate(903 474)"/>
                <path fill="#28B446" d="M16.65 18.225c-1.754 1.411-3.983 2.255-6.41 2.255-3.9 0-7.29-2.18-9.02-5.387l3.319-2.717c.865 2.308 3.09 3.951 5.701 3.951 1.122 0 2.173-.303 3.075-.833l3.335 2.731z" transform="translate(-903 -474) translate(903 474)"/>
                <path fill="#F14336" d="M16.776 2.357L13.46 5.073c-.934-.583-2.037-.92-3.219-.92-2.67 0-4.937 1.718-5.759 4.109L1.146 5.53h-.001C2.849 2.245 6.282 0 10.24 0c2.485 0 4.763.885 6.536 2.357z" transform="translate(-903 -474) translate(903 474)"/>
            </g>
        </g>
    </g>
</svg>
