<svg xmlns="http://www.w3.org/2000/svg" width="475.064" height="743.721" viewBox="0 0 475.064 743.721">
  <path id="Path" d="M438.232,348.09C414.778,299,387.79,247.834,358.007,195.975c-17.486-30.447-36.149-59.083-56.011-89.57l-1.9-2.945c-7.774-11.92-15.7-24.1-23.7-36.7L233.917,0,177.583,88.376c-8,12.5-15.566,24.278-22.959,36.357C104.258,206.86,59.879,281.823,26.98,367.692,14.094,401.323.808,441.3.048,482.694-2.537,620.879,99.241,737.871,226.942,743.5c3.231.139,6.424.219,9.636.219.779,0,1.558,0,2.357-.02C361.961,742.468,463.13,640,474.248,505.36c5.075-61.391-14.312-111.878-36.016-157.269" fill="#fff9f7"/>
</svg>
