<svg xmlns="http://www.w3.org/2000/svg" width="69" height="81" viewBox="0 0 69 81">
    <g fill="none" fill-rule="evenodd">
        <g>
            <g>
                <path fill="#F5DED1" d="M55.606 37.911c-2.729-5.347-5.87-10.919-9.336-16.567-2.035-3.316-4.207-6.435-6.518-9.755l-.221-.321c-.905-1.298-1.827-2.625-2.758-3.997L31.829 0l-6.556 9.625c-.93 1.361-1.811 2.644-2.671 3.96-5.862 8.944-11.026 17.109-14.855 26.46-1.5 3.664-3.046 8.018-3.134 12.526-.301 15.05 11.543 27.792 26.405 28.405.376.015.747.024 1.12.024.092 0 .182 0 .275-.002 14.317-.135 26.09-11.294 27.385-25.958.59-6.687-1.666-12.185-4.192-17.129" opacity=".324" transform="translate(-267 -467) translate(268.25 467)"/>
                <g stroke-width=".6">
                    <path stroke="#F5BFA0" d="M39.795 4.978l-.765.964c-.109.137-.211.265-.312.397-.687.898-1.294 1.719-1.772 2.675-.188.375-.385.823-.431 1.298-.157 1.587.977 3.028 2.526 3.211l.117.012.029.002c.071.004.141.007.212.006M39.424 13.894l-.765.964c-.109.136-.212.265-.312.396-.687.898-1.295 1.719-1.772 2.676-.187.374-.385.822-.432 1.297-.155 1.587.978 3.028 2.527 3.212l.117.011.029.002c.07.005.142.007.211.007M39.065 22.965l-.765.964c-.11.136-.212.265-.313.396-.27.354-.529.696-.772 1.04" transform="translate(-267 -467) translate(268.25 467) translate(0 13)"/>
                    <path stroke="#2C4349" d="M20.79 33.572l-18.138-.517c-1.51-.045-2.696-1.292-2.65-2.786L.982 2.624C1.03 1.13 2.29-.044 3.8.001l33.378.99c1.51.046 2.696 1.293 2.65 2.787l-.84 23M36.382 34.056L24.285 33.695" transform="translate(-267 -467) translate(268.25 467) translate(0 13)"/>
                    <path stroke="#F5BFA0" d="M6.588 20.103c1.194.066 1.81-.94 1.891-1.595.074-.596.07-1.947.09-2.187.139-1.639-.682-2.373-1.689-2.438-1.007-.065-1.705.757-1.793 1.785-.07.832-.188 2.265-.21 2.639-.033.584.157 1.71 1.71 1.796zM12.5 20.406c1.366.076 2.073-1.077 2.165-1.826.084-.682.08-2.228.102-2.503.16-1.876-.78-2.716-1.933-2.791-1.154-.074-1.952.866-2.053 2.043-.08.953-.215 2.593-.24 3.02-.037.67.18 1.958 1.958 2.057zM18.546 20.716c1.452.081 2.202-1.144 2.3-1.939.09-.724.084-2.367.11-2.659.168-1.993-.83-2.885-2.054-2.964-1.226-.079-2.074.92-2.18 2.17-.087 1.012-.23 2.753-.255 3.208-.04.711.19 2.08 2.079 2.184zM24.142 21.027c1.283.071 1.946-1.012 2.033-1.715.08-.64.074-2.092.097-2.35.149-1.762-.733-2.551-1.816-2.62-1.084-.07-1.833.813-1.928 1.918-.075.894-.201 2.434-.225 2.837-.035.627.169 1.838 1.839 1.93zM29.326 21.315c1.064.059 1.614-.838 1.685-1.421.066-.53.062-1.735.08-1.949.124-1.46-.607-2.114-1.505-2.172-.897-.057-1.519.674-1.597 1.59-.063.742-.167 2.018-.186 2.352-.03.52.14 1.523 1.523 1.6zM30.11 12.126c-1.225-.076-1.73-1.176-1.732-1.853-.002-.616.167-1.992.176-2.24.059-1.686.985-2.336 2.02-2.281 1.035.054 1.645.975 1.609 2.033-.03.857-.086 2.33-.11 2.715-.037.6-.368 1.724-1.962 1.626zM24.605 11.786c-1.367-.084-1.93-1.312-1.933-2.065-.002-.688.187-2.223.197-2.499.066-1.881 1.098-2.606 2.253-2.545 1.154.06 1.835 1.088 1.794 2.268-.033.956-.095 2.6-.122 3.028-.042.668-.412 1.923-2.189 1.813zM19.012 11.442c-1.452-.09-2.05-1.393-2.053-2.195-.003-.73.198-2.36.208-2.653.07-1.998 1.167-2.768 2.393-2.704 1.226.065 1.95 1.156 1.906 2.41-.035 1.015-.101 2.76-.13 3.216-.044.71-.436 2.042-2.324 1.926zM12.967 11.097c-1.283-.08-1.813-1.232-1.815-1.94-.002-.646.175-2.087.184-2.346.062-1.766 1.032-2.447 2.115-2.39 1.085.057 1.724 1.022 1.686 2.13-.031.897-.09 2.44-.115 2.843-.04.628-.386 1.805-2.055 1.703zM6.881 10.777c-1.063-.065-1.502-1.02-1.504-1.608-.002-.534.145-1.73.153-1.944.051-1.464.855-2.028 1.754-1.981.898.048 1.428.847 1.396 1.765-.026.744-.074 2.024-.095 2.357-.032.52-.32 1.496-1.704 1.411zM5.976 29.277c1.256.07 1.905-.99 1.99-1.677.077-.627.072-2.048.094-2.3.146-1.724-.717-2.496-1.777-2.564-1.06-.069-1.793.796-1.885 1.877-.075.875-.198 2.381-.22 2.775-.035.614.165 1.799 1.798 1.89zM11.98 29.585c1.368.076 2.074-1.077 2.166-1.826.085-.682.08-2.228.103-2.503.16-1.876-.78-2.716-1.934-2.79-1.153-.075-1.952.865-2.052 2.043-.081.952-.215 2.592-.24 3.02-.038.67.18 1.957 1.958 2.056zM18.028 29.896c1.452.08 2.202-1.144 2.3-1.94.089-.724.084-2.367.109-2.658.169-1.993-.829-2.886-2.054-2.965-1.225-.078-2.073.92-2.18 2.17-.086 1.012-.229 2.754-.254 3.209-.041.71.19 2.08 2.079 2.184zM23.623 30.206c1.284.072 1.947-1.01 2.034-1.714.079-.64.074-2.092.096-2.351.15-1.762-.732-2.55-1.816-2.62-1.083-.07-1.833.813-1.927 1.918-.076.894-.202 2.434-.225 2.837-.036.628.169 1.838 1.838 1.93zM28.808 30.494c1.064.06 1.613-.838 1.685-1.421.066-.53.062-1.734.08-1.948.124-1.46-.607-2.114-1.505-2.172-.897-.058-1.52.674-1.597 1.59-.063.741-.168 2.018-.186 2.35-.03.522.139 1.524 1.523 1.601z" transform="translate(-267 -467) translate(268.25 467) translate(0 13)"/>
                    <path stroke="#2C4349" d="M48.702 64c-2.072-2.177-4.126-4.673-5.876-7.921-2.753-5.11-2.447-4.46-2.447-4.46s-3.9-1.872-5.858-2.841c-1.959-.969-8.936-3.876-9.915-4.603-.98-.726-1.971-1.66-1.53-3.27.283-1.036 1.481-1.392 1.481-1.392" transform="translate(-267 -467) translate(268.25 467) translate(0 13)"/>
                    <path stroke="#2C4349" d="M41.988 45.871s-5.509-1.635-7.712-2.544c-2.203-.908-6.916-2.846-8.813-3.512-1.897-.666-1.86-.6-3.611-1.617-1.645-.955-1.592-2.807-1.259-3.447.496-.954 1.491-1.605 3.009-1.235.846.206 2.265.611 4.03 1.349 2.754 1.15 4.135 1.8 6.522 2.467 2.387.666 9.796 3.565 9.796 3.565" transform="translate(-267 -467) translate(268.25 467) translate(0 13)"/>
                    <path stroke="#2C4349" d="M55.453 62.042s-4.835-2.605-7.161-9.448c-2.326-6.844-1.224-8.48-3.917-11.265-2.693-2.786-6.703-5.987-8.675-7.918-2.142-2.097-3.48-4.03-2.904-4.692M35.947 25.359s.866-.399 1.723.268c.857.666 4.502 3.545 8.357 7.443 3.856 3.898 7.834 4.807 9.426 4.746M39.065 24.253s3.314 0 4.938.49c1.625.492 3.278 1.8 9.312 2.618 6.034.818 8.762 2.863 9.919 6.135.847 2.393 2.091 6.362 3.766 10.434M41.17 49.533s-.07 1.64-.79 2.085" transform="translate(-267 -467) translate(268.25 467) translate(0 13)"/>
                    <path stroke="#2C4349" d="M41.991 47.384s.246-.98.198-1.435c-.05-.455.951-.91 1.05-1.852M51.741 36.99s.373-2.477 4.303-4.421M43.239 26.735s.27 1.6-.624 2.852M38.186 30.79c.883-.982.663-2.694.083-3.272-.53-.527-1.87-1.77-2.096-1.966-.226-.197-.846-.736-1.257-.808-.411-.073-1.438-.188-2.296.761-.858.95-.46 2.391.176 3.213.636.823 1.897 2.062 2.241 2.377.344.316 1.83 1.163 3.149-.304zM21.97 33.572s-1.257-.524-2.065.772c-.635 1.016.128 2.317.664 2.317" transform="translate(-267 -467) translate(268.25 467) translate(0 13)"/>
                </g>
            </g>
        </g>
    </g>
</svg>
