<svg xmlns="http://www.w3.org/2000/svg" width="57" height="81" viewBox="0 0 57 81">
    <g fill="none" fill-rule="evenodd">
        <g>
            <g>
                <path fill="#F5DED1" d="M51 37.911c-2.73-5.347-5.87-10.919-9.337-16.567-2.035-3.316-4.207-6.435-6.518-9.755l-.221-.321c-.905-1.298-1.827-2.625-2.758-3.997L27.222 0l-6.556 9.625c-.93 1.361-1.811 2.644-2.672 3.96-5.86 8.944-11.026 17.109-14.854 26.46C1.64 43.71.094 48.064.006 52.572c-.301 15.05 11.543 27.792 26.404 28.405.376.015.748.024 1.122.024.09 0 .181 0 .274-.002 14.317-.135 26.09-11.294 27.385-25.958.59-6.687-1.666-12.185-4.192-17.129" opacity=".324" transform="translate(-49 -467) translate(49.857 467)"/>
                <g stroke-width=".6">
                    <path stroke="#2C4349" d="M24.633 22.163c-.19-2.171-.508-4.28-.711-5.657-.305-2.07-.74-2.98-.871-3.063M21.039 13.363c-.11 0-.334.282-.316 1.397.013.794.434 7.486.434 9.299 0 1.813.084 4.906 0 5.439-.084.533-.393.693-.435-.853-.042-1.547-.154-4.106-.154-5.466 0-1.36.24-4.901 0-8.111-.239-3.21-.37-4.537-.418-5.679-.049-1.142-.21-1.744-.552-1.975M17.455 7.059c-.178-.03-.665.139-.682 2.099-.016 1.96.13 3.487.017 5.648-.114 2.16-.13 4.228-.098 6.713.032 2.484-.113 5.154-.113 5.447 0 .293-.39.71-.472 0-.08-.71.066-3.735.13-5.463.066-1.728.406-1.713.39-7.731-.016-6.019-.162-6.806-.162-7.608 0-.803-.179-1.605-.536-1.79M13.51 4.05c-.195-.016-.568.602-.682 2.13-.114 1.527-.276 4.135-.422 5.292-.146 1.158-.552 3.982-.584 6.79-.033 2.81-.076 5.217-.123 6.991-.024.88-.105 1.528-.186 1.682-.081.154-.373.386-.406-.34-.032-.725.081-2.931.163-4.135.08-1.204.47-4.321.649-8.518.178-4.198.065-4.538.114-5.618.048-1.08-.065-1.682-.325-1.836M9.24 6.611c-.178 0-.795.772-.941 2.994-.147 2.222-1.056 6.281-1.218 8.302-.163 2.022-.292 4.198-.455 5.726-.162 1.528-1.12 7.438-1.477 9.027-.357 1.59-.877 5.957-.974 7.269" transform="translate(-49 -467) translate(49.857 467) translate(2.143 12)"/>
                    <path stroke="#2C4349" d="M6.996 51.152c-1.026-1.808-1.881-2.86-3.014-6.09-1.133-3.23-1.603-2.458-2.159-4.205-.555-1.747-.021-1.768 0-4.51.021-2.743.257-3.332-.085-4.977-.342-1.646-.32-2.256-.32-2.804 0-.549-.13-1.016-.13-1.016M.562 23.751s.577-.427 1.56.081c.984.508 2.459 1.97 2.8 3.068.342 1.097.85 1.702.746 2.974" transform="translate(-49 -467) translate(49.857 467) translate(2.143 12)"/>
                    <path stroke="#2C4349" d="M1.289 25.275c.32.71.62 1.564.427 2.082-.192.518-.577.214-.94-.761-.363-.976-.705-1.992-.77-2.764-.064-.772.364-.508.684.143.321.65.599 1.3.599 1.3zM10.328 9.466c.706.004 1.319-.708 1.348-1.155.027-.408.058-1.406.058-1.57 0-.164 0-.613-.115-.808-.115-.194-.428-.656-1.112-.662-.683-.006-1.124.68-1.232 1.24-.109.558-.167 1.523-.173 1.778-.006.255.173 1.17 1.226 1.177zM18.524 10.005c-.633-.022-1.147-.522-1.155-.923-.008-.366.019-1.48.014-1.628-.016-.55.414-1.31 1.159-1.27.743.04 1.027.618 1.054 1.154.025.51.04 1.345.035 1.574-.005.229-.164 1.126-1.107 1.093zM22.144 15.804c-.575-.007-1.023-.435-1.04-.8-.016-.331-.075-1.148-.082-1.281-.03-.5.215-1.141.912-1.14.676 0 1.098.51 1.14 1.11.032.462.045.886.047 1.094.001.207-.12 1.026-.977 1.017zM14.735 7.176c.81 0 1.188-.707 1.217-1.154.027-.408-.028-1.326-.023-1.49.031-1.118-.552-1.585-1.235-1.592-.684-.006-1.124.579-1.143 1.28-.017.568-.04 1.545-.04 1.8-.001.399.17 1.156 1.224 1.156zM22.71 35.181v-9.919c0-1.917 1.562-3.471 3.49-3.471h12.676c1.928 0 3.491 1.554 3.491 3.471v31.65c0 1.917-1.563 3.471-3.491 3.471H26.2c-1.928 0-3.49-1.554-3.49-3.472v-3.245M22.709 42.286L22.709 40.469" transform="translate(-49 -467) translate(49.857 467) translate(2.143 12)"/>
                    <path stroke="#F5BFA0" d="M24.574 51.791v4.981c0 .968.794 1.757 1.764 1.757h12.397c.974 0 1.767-.789 1.767-1.757V25.401c0-.968-.793-1.754-1.767-1.754h-2.34c0 .31-.126.587-.333.793-.207.205-.488.33-.8.33h-5.447c-.625 0-1.13-.502-1.133-1.123h-2.344c-.97 0-1.764.786-1.764 1.754v10.818m0 2.243v4.91m0 2.692v4.555" transform="translate(-49 -467) translate(49.857 467) translate(2.143 12)"/>
                    <path stroke="#2C4349" d="M22.709 49.281L22.709 47.499M19.71 53.489s1.514.455 2.767.132c1.252-.322 2.288-1.33 2.18-2.64-.107-1.31-2.115-1.847-3.217-1.954-1.101-.108-4.059-.71-4.901 1.76-.842 2.47.993 3.457 3.11 5.54 2.115 2.083 3.41 3.5 5.786 6.399 1.187 1.449 2.278 2.463 3.363 3.274M39.692 60.383s-.298 1.045 2.35 2.599" transform="translate(-49 -467) translate(49.857 467) translate(2.143 12)"/>
                    <path stroke="#2C4349" d="M19.107 46.958s1.305.655 2.834.661c1.53.007 2.722-1.44 3.095-2.366.373-.928-.514-2.67-2.327-2.967-1.812-.297-3.789-.742-4.87-.186-1.081.557-1.977 2.04-1.827 3.264.149 1.224 2.535 3.26 2.797 3.52" transform="translate(-49 -467) translate(49.857 467) translate(2.143 12)"/>
                    <path stroke="#2C4349" d="M19.442 40.32s1.276.928 3.267.149c1.992-.78 2.588-3.577 1.693-4.477-.895-.9-1.757-.79-2.277-.863-.52-.074-3.28-.89-4.398 1.15-1.119 2.039.037 3.737.56 4.501.522.764.706 1.062.706 1.062" transform="translate(-49 -467) translate(49.857 467) translate(2.143 12)"/>
                    <path stroke="#2C4349" d="M22.71 31.887s-.822-.817-1.382-1.336c-.56-.52-1.82-.682-2.417.282-.597.964-.743 1.805.047 2.96l.79 1.157M21.382 39.023s-.075-1.373.447-2.003c.522-.63 1.22-1.598 1.22-1.598s-1.547-.078-2.018 0c-.47.078-1.589.745-1.402 2.006 0 0 .112.704 1.753 1.595zM23.694 43.028s-.895.482-1.194 1.483c-.298 1.001-.373 1.446-.373 1.446s-1.193-.037-1.827-1.26c-.634-1.225.27-2.077.731-2.226.462-.148 2.029.112 2.663.557zM22.09 52.335s.157-1.223.62-1.705c.462-.483.76-.557.76-.557s-.932-.519-1.753-.556l-.82-.037s-.609.152-.815.724c-.206.572 0 1.043 0 1.043s.346.897 2.008 1.088zM42.367 45.957s1.533-1.06 2.139-1.764c0 0-.653-2.373.054-5.17 0 0-1.888-4.957-2.193-6.762M46.588 30.947c.081.134.28.415.374.547 1.515 2.16 3.194 5.218 3.345 7.528.152 2.31.393 6.687.898 10.906.252 2.11.555 3.265.795 4.364M42.367 27.023s.655-.954 1.917-.552c.08.025.153.058.222.099M44.876 44.68s-.005 1.381 1.712 1.844M19.332 54.398s.735-.159 1.226-.732" transform="translate(-49 -467) translate(49.857 467) translate(2.143 12)"/>
                    <path stroke="#2C4349" d="M45.002 28.75c.215.895.55 1.91 1.096 2.276.545.364.678-.186.314-1.362-.364-1.176-.777-2.376-1.269-3.156-.493-.78-.694-.24-.523.597.172.837.382 1.645.382 1.645zM18.407 31.988s-.531-1.113.349-1.853 1.41.038 1.41.038" transform="translate(-49 -467) translate(49.857 467) translate(2.143 12)"/>
                    <path stroke="#F5BFA0" d="M7.023 18.644H2.115C.947 18.644 0 17.702 0 16.54V2.103C0 .942.947 0 2.115 0h25.54c1.169 0 2.116.942 2.116 2.103V16.54c0 1.162-.947 2.104-2.115 2.104h-3.427M28.906 56.96L36.17 56.96" transform="translate(-49 -467) translate(49.857 467) translate(2.143 12)"/>
                </g>
            </g>
        </g>
    </g>
</svg>
