<svg xmlns="http://www.w3.org/2000/svg" width="62" height="81" viewBox="0 0 62 81">
    <g fill="none" fill-rule="evenodd">
        <g>
            <g>
                <path fill="#F5DED1" d="M53.856 37.911c-2.729-5.347-5.87-10.919-9.336-16.567-2.035-3.316-4.207-6.435-6.518-9.755l-.221-.321c-.905-1.298-1.827-2.625-2.758-3.997L30.079 0l-6.556 9.625c-.93 1.361-1.811 2.644-2.671 3.96-5.862 8.944-11.026 17.109-14.855 26.46-1.5 3.664-3.046 8.018-3.134 12.526-.301 15.05 11.543 27.792 26.405 28.405.376.015.747.024 1.121.024.09 0 .181 0 .274-.002 14.317-.135 26.091-11.294 27.385-25.958.59-6.687-1.666-12.185-4.192-17.129" opacity=".324" transform="translate(-157 -467) translate(157 467)"/>
                <g>
                    <g stroke-width=".6">
                        <g>
                            <path stroke="#F5BFA0" d="M26.84 5.174c-.352 1.292-.671 2.683-.948 4.136-.162.852-.272 1.693-.39 2.588l-.011.086c-.046.35-.093.708-.146 1.074L25.07 15l2.527-.603c.358-.085.696-.164 1.036-.252 2.31-.596 4.389-1.167 6.425-2.135.798-.379 1.707-.865 2.398-1.595 2.31-2.438 2.27-6.32-.09-8.653-.06-.059-.12-.116-.18-.172l-.046-.04c-2.383-2.13-6.001-2.057-8.418.168-1.101 1.015-1.555 2.261-1.88 3.456M22.941 5.174c.353 1.292.672 2.683.948 4.136.163.852.273 1.693.39 2.588l.012.086c.046.35.093.708.145 1.074L24.713 15l-2.528-.603c-.358-.085-.695-.164-1.035-.252-2.31-.596-4.389-1.167-6.425-2.135-.798-.379-1.707-.865-2.399-1.595-2.31-2.438-2.27-6.32.09-8.653.06-.059.12-.116.182-.172l.045-.04c2.383-2.13 6.001-2.057 8.417.168 1.102 1.015 1.556 2.261 1.881 3.456M41.881 12L24.713 15M7.723 12L24.891 15" transform="translate(-157 -467) translate(157 467) translate(0 14.838)"/>
                            <path stroke="#2C4349" d="M12.579 47.664L5.22 47.664 5.22 44.617M5.22 35.89L5.22 15 44.743 15 44.743 35.89 44.743 41.439 44.743 47.664 22.764 47.664M56.636 47.664h4.23v-9.917c0-2.724-2.207-4.932-4.931-4.932H44.743v14.849h1.666M56.527 25.218H44.743V20.74h8.256c1.949 0 3.528 1.58 3.528 3.528v.949zM54.711 25.218L56.527 32.851" transform="translate(-157 -467) translate(157 467) translate(0 14.838)"/>
                            <path stroke="#2C4349" d="M59.251 41.698h1.575v-4.575h-4.574v1.575c0 1.657 1.343 3 3 3zM0 44.617L10.44 44.617M24.871 44.617L41.161 44.617M2.296 40.458L16.533 40.458M22.826 48.642c0 2.856-2.315 5.17-5.17 5.17-2.856 0-5.17-2.314-5.17-5.17 0-2.855 2.314-5.17 5.17-5.17 2.855 0 5.17 2.315 5.17 5.17zM56.656 48.642c0 2.856-2.315 5.17-5.17 5.17s-5.17-2.314-5.17-5.17c0-2.855 2.315-5.17 5.17-5.17s5.17 2.315 5.17 5.17z" transform="translate(-157 -467) translate(157 467) translate(0 14.838)"/>
                            <path stroke="#2C4349" d="M19.223 48.642c0 .866-.702 1.568-1.568 1.568-.865 0-1.567-.702-1.567-1.568 0-.865.702-1.567 1.567-1.567.866 0 1.568.702 1.568 1.567zM53.053 48.642c0 .866-.701 1.568-1.567 1.568s-1.567-.702-1.567-1.568c0-.865.701-1.567 1.567-1.567s1.567.702 1.567 1.567z" transform="translate(-157 -467) translate(157 467) translate(0 14.838)"/>
                        </g>
                    </g>
                    <path fill="#2C4349" d="M28.068 34c-.832.912-2.013 1.406-3.255 1.357-2.227-.087-4.002-1.924-3.957-4.093.014-.65.263-1.317.506-1.883.102-.239.22-.49.365-.782.832 1.359 3.039 3.928 6.341 5.401m1.063-2.394c-.057.613-.247 1.194-.565 1.727-3.63-1.576-6.061-4.772-6.37-5.619.543-.957 1.176-1.894 1.778-2.772.15-.218.304-.433.492-.695l.458-.641.182.256c.184.26.366.51.557.77.402.553.782 1.074 1.14 1.631.614.956 1.171 1.901 1.657 2.81.4.749.76 1.575.671 2.533m.094-2.892c-.494-.924-1.062-1.887-1.689-2.863-.368-.573-.76-1.112-1.179-1.686l-.04-.056c-.164-.224-.33-.453-.499-.69l-.894-1.257-1.186 1.663c-.168.236-.328.457-.483.685-1.06 1.546-1.995 2.957-2.687 4.573-.271.633-.551 1.386-.567 2.165-.054 2.601 2.088 4.804 4.776 4.91.068.002.135.004.203.004h.05c2.59-.024 4.719-1.953 4.953-4.487.107-1.156-.301-2.106-.758-2.96" transform="translate(-157 -467) translate(157 467) translate(0 14.838)"/>
                </g>
            </g>
        </g>
    </g>
</svg>
