<svg xmlns="http://www.w3.org/2000/svg" xmlns:xlink="http://www.w3.org/1999/xlink" width="23" height="38" viewBox="0 0 23 38">
    <defs>
        <path id="vyemju76ga" d="M0 20.796c0 9.149 1.508 17.202 11.292 17.202 9.784 0 11.061-10.469 11.061-17.202C22.353 14.063 18.613 0 11.177 0 3.74 0 0 11.645 0 20.796z"/>
    </defs>
    <g fill="none" fill-rule="evenodd">
        <path fill="#F3EBE6" d="M11.177 0C3.74 0 0 11.646 0 20.796c0 9.149 1.508 17.202 11.292 17.202 9.784 0 11.061-10.47 11.061-17.202C22.353 14.063 18.613 0 11.177 0"/>
        <mask id="te1ux6upfb" fill="#fff">
            <use xlink:href="#vyemju76ga"/>
        </mask>
        <path fill="#F3EBE6" d="M-6.259 43.587L28.387 43.587 28.387 -5.589 -6.259 -5.589z" mask="url(#te1ux6upfb)"/>
        <path fill="#F3EBE6" d="M-0.671 37.998L22.8 37.998 22.8 0 -0.671 0z" mask="url(#te1ux6upfb)"/>
        <path fill="#F3EBE6" d="M-5.588 43.587L27.94 43.587 27.94 -5.589 -5.588 -5.589z" mask="url(#te1ux6upfb)"/>
        <path fill="#2C4349" d="M-2.877 40.17c.651-7.4 6.593-13.032 13.816-13.1h.144c.187 0 .375 0 .562.012 7.5.31 13.475 6.737 13.332 14.336-.045 2.274-.83 4.462-1.58 6.317-1.933 4.715-4.55 8.835-7.5 13.34-.44.675-.882 1.316-1.358 2l-3.302 4.86-2.496-3.667c-.474-.696-.938-1.36-1.39-2.021l-.112-.155c-1.17-1.68-2.263-3.246-3.29-4.925C2.191 54.317.611 51.5-.769 48.806c-1.27-2.495-2.408-5.268-2.109-8.636" mask="url(#te1ux6upfb)"/>
    </g>
</svg>
