<svg xmlns="http://www.w3.org/2000/svg" width="213" height="19" viewBox="0 0 213 19">
    <path fill="#2C4349" d="M11.317 18.402c.683 0 1.146-.488 1.146-1.243V2.31c0-.756-.463-1.243-1.146-1.243-.707 0-1.17.487-1.17 1.243v6.217h-7.46V2.311c0-.756-.464-1.243-1.146-1.243-.707 0-1.17.487-1.17 1.243V17.16c0 .755.463 1.243 1.17 1.243.682 0 1.146-.488 1.146-1.243v-6.534h7.46v6.534c0 .755.463 1.243 1.17 1.243zm15.01.244c4.266 0 7.095-3.487 7.095-8.899 0-5.29-2.95-8.899-7.095-8.899-4.169 0-7.095 3.609-7.095 8.899 0 5.412 2.78 8.899 7.095 8.899zm0-2.146c-2.95 0-4.778-2.633-4.778-6.753 0-4.047 1.901-6.753 4.778-6.753 2.828 0 4.778 2.73 4.778 6.753 0 4.145-1.852 6.753-4.778 6.753zm23.836 1.902c.658 0 1.121-.463 1.219-1.122l1.95-14.36c.049-.365.073-.585.073-.755 0-.634-.439-1.073-1.121-1.073-.586 0-.976.341-1.049.975l-1.463 11.8-2.51-7.972c-.196-.585-.586-.95-1.147-.95-.56 0-.975.34-1.145.926l-2.292 7.874-1.439-11.678c-.073-.634-.463-.975-1.048-.975-.683 0-1.121.439-1.121 1.073 0 .17.024.39.073.78l1.926 14.311c.097.683.585 1.146 1.243 1.146.537 0 1.024-.317 1.22-.95l2.608-8.607 2.804 8.606c.219.658.682.95 1.219.95zm39.82 0c.658 0 1.122-.463 1.22-1.122l1.95-14.36c.048-.365.073-.585.073-.755 0-.634-.44-1.073-1.122-1.073-.585 0-.975.341-1.048.975l-1.463 11.8-2.511-7.972c-.195-.585-.585-.95-1.146-.95-.56 0-.975.34-1.146.926L82.5 13.745 81.06 2.067c-.073-.634-.463-.975-1.048-.975-.683 0-1.122.439-1.122 1.073 0 .17.025.39.073.78l1.926 14.311c.098.683.586 1.146 1.244 1.146.536 0 1.024-.317 1.219-.95l2.608-8.607 2.804 8.606c.22.658.683.95 1.22.95zm21.593-.122c.707 0 1.194-.414 1.194-1.097 0-.634-.487-1.073-1.194-1.073h-9.118v-5.437h8.167c.707 0 1.121-.39 1.121-1.048s-.414-1-1.121-1h-8.167V3.385h9.118c.707 0 1.17-.415 1.17-1.073 0-.658-.463-1.097-1.17-1.097h-10.118c-.878 0-1.316.439-1.316 1.317v14.432c0 .878.438 1.317 1.316 1.317h10.118zm34.896.366c2.9 0 5.339-1.829 6.217-4.389.097-.317.17-.61.17-.853 0-.634-.487-1.097-1.17-1.097-.512 0-.902.317-1.122.95-.707 2.024-2.242 3.243-4.217 3.243-3.023 0-5.071-2.755-5.071-6.753 0-4.047 2.048-6.753 5.07-6.753 1.951 0 3.487 1.243 4.218 3.242.244.659.634.951 1.146.951.683 0 1.146-.463 1.146-1.146 0-.317-.049-.56-.17-.877-.976-2.56-3.365-4.316-6.217-4.316-4.413 0-7.51 3.633-7.51 8.899 0 5.266 3.097 8.899 7.51 8.899zm25.395-.244c.683 0 1.146-.415 1.146-1.073 0-.195-.073-.463-.17-.707l-5.925-14.628c-.243-.61-.634-.902-1.219-.902-.585 0-.975.293-1.219.902l-5.924 14.628c-.098.244-.17.512-.17.707 0 .658.463 1.073 1.145 1.073.415 0 .83-.17 1.049-.756l1.511-3.852h7.217l1.511 3.852c.22.585.634.756 1.048.756zm-3.34-6.631h-5.656l2.828-7.193 2.828 7.193zm22.568 6.63c.683 0 1.073-.487 1.073-1.047 0-.293-.146-.61-.439-.976l-3.754-4.949c2.535-.39 4.144-2.292 4.144-5.095 0-3.096-2.023-5.12-5.095-5.12h-6.193c-.829 0-1.292.463-1.292 1.268v14.725c0 .732.463 1.195 1.146 1.195.683 0 1.17-.463 1.17-1.195v-5.705h3.413l4.876 6.437c.244.317.585.463.951.463zm-4.266-8.995h-4.974V3.31h4.974c1.853 0 2.974 1.146 2.974 3.023 0 1.901-1.121 3.072-2.974 3.072zm24.298 8.874c.707 0 1.195-.414 1.195-1.097 0-.634-.488-1.073-1.195-1.073h-9.118v-5.437h8.168c.707 0 1.121-.39 1.121-1.048s-.414-1-1.121-1h-8.168V3.385h9.118c.707 0 1.17-.415 1.17-1.073 0-.658-.463-1.097-1.17-1.097H201.01c-.878 0-1.317.439-1.317 1.317v14.432c0 .878.439 1.317 1.317 1.317h10.117z"/>
</svg>
