<svg id="Component_11_1" data-name="Component 11 – 1" xmlns="http://www.w3.org/2000/svg" width="152" height="152" viewBox="0 0 152 152">
  <g id="Ellipse_23" data-name="Ellipse 23" fill="none" stroke="#f7c0a0" stroke-width="1">
    <circle cx="76" cy="76" r="76" stroke="none"/>
    <circle cx="76" cy="76" r="75.5" fill="none"/>
  </g>
  <g id="Group_2" data-name="Group 2" transform="translate(40 34.578)">
    <path id="Stroke_1" data-name="Stroke 1" d="M2.8,70.911l.049-.275-.065-.275,0-.275.069-.275-.073-.275L2.8,69.26l.008-.276-.032-.276.08-.277-.07-.276.008-.277.027-.277-.053-.277.078-.277-.057-.275.022-.275.046-.275-.081-.275.006-.275L2.766,65.4l.053-.275-.036-.276.019-.276.009-.276v-.277l.024-.277-.02-.275-.044-.276.055-.276-.014-.276-.018-.277.021-.276.04-.277-.019-.277-.043-.278.051-.277L2.825,60.7,2.8,60.422v-.278l0-.278.046-.278-.061-.279.043-.278.012-.279-.052-.278-.01-.279.038-.279-.044-.279.036-.279.029-.279.012-.279L2.8,56.523l.03-.278-.05-.278.056-.278L2.8,55.411l0-.278,0-.279.025-.277.026-.277-.064-.277.029-.277-.027-.277.061-.277-.061-.277.036-.277.027-.277-.016-.278L2.8,51.812l-.021-.272.061-.274-.008-.275-.053-.277.034-.277L2.8,50.159l0-.278.022-.277.05-.277.03-.278-.022-.279,0-.278-.009-.278.011-.278.046-.276-.01-.28-.03-.277-.013-.277.035-.278-.068-.277L2.824,46v-.278l.033-.279v-.281l.013-.278L2.827,44.6l.019-.279-.091-.273.008-.279.03-.281-.03-.278-.111-.27-.021-.278.048-.285-.067-.272.018-.284-.1-.269.029-.286L2.47,41l-.007-.278-.083-.27-.071-.277L2.252,39.9l-.04-.274-.038-.278-.052-.275v-.287l-.085-.268-.071-.266-.083-.267-.061-.267-.033-.276-.127-.253.009-.285-.126-.255-.05-.272-.067-.268L1.4,35.833l-.046-.273-.033-.275-.072-.267-.037-.272-.111-.26-.071-.267L1,33.943.953,33.67.881,33.4l-.024-.278-.072-.268L.8,32.573l-.092-.265.005-.278-.08-.267-.01-.28-.092-.267.027-.284-.074-.269-.055-.274L.4,30.115l-.023-.274-.032-.275-.065-.272-.043-.274.04-.283-.054-.273.016-.279-.1-.27L.114,27.64l.044-.281-.029-.276L.1,26.808l.026-.28-.052-.272-.026-.277L.026,25.7l.016-.277.014-.277L0,24.872v-.277l0-.28.027-.277.055-.274.007-.277-.01-.277.009-.277.022-.275,0-.277L.126,22.1l.1-.27-.006-.281.035-.28,0-.283.018-.28.072-.273.033-.277.036-.276L.418,19.6l.128-.262.013-.28.074-.27.041-.275.07-.27,0-.283L.84,17.7l.064-.27.026-.281.075-.269v-.283l.139-.256.036-.276.05-.273L1.178,15.5l.061-.272.011-.276V14.68l.091-.274.011-.278-.043-.28.052-.279L1.327,13.3l.033-.273-.03-.274,0-.273L1.309,12.2l.061-.272-.03-.276.089-.27-.061-.279.1-.269-.028-.278.047-.273.013-.275.049-.273-.008-.278.041-.274.061-.272.032-.274-.026-.28.043-.274.046-.273-.012-.28.094-.266L1.843,7l-.036-.282.108-.263.036-.273L1.925,5.9l.032-.272.092-.263.043-.27-.033-.283.088-.264.035-.27.072-.261.034-.27-.021-.277.061-.276.082-.271.018-.282.061-.276.061-.274.094-.266.044-.278.032-.283L2.84,1,2.971.751,2.986.456l.128-.25L3.294,0" transform="translate(5.971 15.319)" fill="none" stroke="#f7bfa0" stroke-miterlimit="10" stroke-width="0.63"/>
    <path id="Stroke_2" data-name="Stroke 2" d="M.207,6.721l.182.2L.5,7.182l-.01.286.1.275-.066.285.041.283-.036.276L.5,8.862l.011.277.036.279-.061.274L.47,9.968l.04.281-.066.275,0,.279-.072.275.079.283-.066.273.015.278v.277l-.026.277L.3,12.738l.033.28-.07.275.017.28.046.282-.1.275L.2,14.408l.066.284L.21,14.97l-.04.279.021.282-.025.28-.028.279-.021.279.061.282v.279L.109,17.2l-.036.276.019.279.035.279L.1,18.314l-.02.276-.049.275.017.28v.28L.024,19.7l.067.28-.053.28-.008.278.074.281-.075.28.047.283v.282L0,21.952l.047.284v.848l-.027.281.014.28v.28L0,24.206l.071.277L0,24.765l.03.28.126.26.172.131.122-.247L.5,24.913l.021-.281-.013-.282.015-.283.03-.269.013-.267.04-.268L.618,23l.01-.269-.047-.272.066-.266L.59,21.918l.044-.267.061-.269-.043-.273.061-.269-.024-.272L.664,20.3.7,20.03l.013-.27-.029-.271-.009-.27.1-.27-.03-.27-.022-.27.018-.269.036-.269-.012-.278.01-.278-.088-.276.032-.279-.052-.277L.7,16.2l.03-.278-.011-.278L.7,15.366.633,15.09l-.014-.279.013-.279.043-.28-.046-.278L.644,13.7l-.007-.278.008-.278v-.278l-.05-.28L.569,12.3.6,12.023l0-.28-.03-.28.091-.28L.632,10.9l-.024-.281.064-.279-.016-.282L.662,9.78.7,9.5.669,9.216l.046-.279.013-.28L.74,8.375.819,8.1l.008-.282.027-.28.03-.28L.851,6.974l0-.283.08-.277L.9,6.128l.04-.28.012-.281.081-.275.014-.281L1.06,4.73l.033-.28.039-.279L1.121,3.89V3.608l.052-.278-.038-.284.071-.276L1.2,2.492l-.029-.281.079-.263-.014-.269.012-.267.086-.257L1.36.889,1.445.637,1.472.365l.2-.19L1.854,0" transform="translate(11.324 8.496)" fill="none" stroke="#f7bfa0" stroke-miterlimit="10" stroke-width="0.63"/>
    <path id="Stroke_3" data-name="Stroke 3" d="M0,3.058l.226.074L.439,3.3.5,3.566l.1.247.072.258.054.266L.69,4.611l.019.266.066.267-.046.271.086.28-.092.28.084.28-.092.28.032.281.027.28,0,.28L.72,7.656.7,7.933.689,8.21l.022.278-.026.276.009.277,0,.277.029.277-.041.278.019.278,0,.279.03.279v.277l.009.28.007.283-.027.284.046.271.061.27.005.273-.009.273v.547l.041.27-.043.273,0,.272,0,.272.012.272.018.272v.272l.024.27-.006.27v.27l.053.27-.043.272.057.272-.076.269-.027.273.027.274.009.274-.036.272.007.273.061.275-.035.274.006.275-.053.28,0,.282.046.282L.8,20.576l.083.281.012.281-.022.282-.02.282-.035.283,0,.281.069.28.007.281-.013.281.026.281.013.281-.012.282-.023.282.061.278,0,.283.061.278-.03.28.047.279.074.243.169.182.151-.166.095-.26.026-.267.026-.269.012-.27-.061-.273v-.267L1.5,24.018l.014-.27.006-.27.021-.27-.057-.266-.03-.268.04-.27-.046-.269-.018-.27.044-.274.019-.273-.022-.271-.005-.272-.036-.269-.036-.268.046-.272-.03-.268L1.4,19.43l-.052-.274.022-.278-.045-.273-.01-.276-.1-.263.015-.278-.061-.267.02-.277L1.1,16.978l-.032-.272.041-.278-.021-.273-.1-.268L1,15.611l.045-.277-.061-.272L1,14.788l-.061-.273.074-.277-.054-.273-.026-.274.05-.276L.96,13.14.9,12.865l.048-.277.017-.276L.91,12.039l.07-.277-.033-.275L.9,11.212l-.014-.278.057-.278-.047-.28L.953,10.1l-.02-.279L.927,9.54.9,9.261V8.982L.892,8.7l.052-.279.04-.279V7.864L.975,7.583.94,7.3l.021-.28.033-.279L.972,6.463V6.184l.052-.278-.052-.28L.967,5.348l.061-.278-.007-.28L.995,4.512l.026-.277.015-.279,0-.279L1.078,3.4l-.019-.279.047-.277.022-.276-.034-.28.03-.275-.04-.276.048-.273,0-.278L1.183.918,1.325.672l.08-.258L1.5.156,1.727,0" transform="translate(15.58 5.028)" fill="none" stroke="#f7bfa0" stroke-miterlimit="10" stroke-width="0.63"/>
    <path id="Stroke_4" data-name="Stroke 4" d="M0,0,.182.192.3.416.4.655.511.892l.039.26.058.256.105.249-.025.269.071.258,0,.266-.01.275.061.269.014.273.047.27.005.273-.024.277.047.27,0,.274L.9,4.9l.1.267.024.274-.066.281L1.04,6l.026.273.025.274-.022.277.076.27-.007.276.017.275.015.275.061.269v.275l.048.273L1.327,9l-.017.28.061.27.088.266.046.272v.278l.051.272-.044.283.067.27.035.275,0,.278.083.267.047.272-.055.281.074.27-.032.28.023.274.064.272.033.275-.05.28.061.273.017.277.007.278.027.278-.032.28,0,.279.061.278-.064.276.066.275-.045.275.032.274-.056.276.074.274-.061.275.011.274.041.274.036.273,0,.274-.061.275.044.275.013.275L2,20.283l-.061.276.022.274.017.273v.274l-.013.274.026.272-.02.273-.009.275.029.273.029.272.02.27-.009.274-.005.27.032.269v.277l0,.277.038.274-.027.281.071.269.081.263-.009.291.217.122.207-.049.057-.239.036-.243L2.7,25.344l-.007-.276-.034-.274,0-.275.052-.278.015-.277-.064-.274-.039-.275.064-.28,0-.278-.042-.277V22.3l-.086-.269.007-.277.027-.279L2.6,21.2l-.077-.27.026-.28-.039-.274-.068-.271.038-.281-.058-.272-.061-.272-.019-.275.013-.278-.02-.275-.047-.273L2.271,17.9l-.031-.278L2.2,17.351l0-.278.006-.279-.113-.269.01-.279-.038-.273-.03-.274-.018-.275-.023-.276.053-.281-.049-.275-.071-.274.044-.281L1.9,13.766v-.278l-.015-.275.008-.279.019-.28-.027-.277L1.809,12.1v-.28l.038-.282-.024-.281-.008-.278L1.763,10.7l-.029-.279v-.28l-.027-.278,0-.278.036-.279L1.7,9.035l.013-.278L1.669,8.48,1.715,8.2,1.66,7.924l-.007-.277.061-.277L1.7,7.092l-.061-.278L1.7,6.538,1.653,6.26l.074-.277V5.708L1.69,5.432l-.018-.275-.049-.273,0-.275.027-.275-.017-.273.057-.27.052-.266.067-.258.061-.26.187-.17" transform="translate(20.028 4.616)" fill="none" stroke="#f7bfa0" stroke-miterlimit="10" stroke-width="0.63"/>
    <path id="Stroke_5" data-name="Stroke 5" d="M0,0,.2.2l.187.21L.525.655l.087.27L.667,1.2l.078.268.086.267.094.269,0,.287.016.283.069.275v.284l.1.278-.024.274.035.27-.01.275.075.266V4.77l.074.263-.017.275.053.266.064.264.046.267.046.267v.273l.047.267.088.261v.276l.1.259-.01.279.057.267.015.275L1.8,8.8l.073.266.08.264-.011.279.039.271.122.257,0,.278.066.266.015.274.048.268.041.269.038.271.022.271.039.269.009.272.016.27.036.269.061.267.047.269-.019.274.017.272.061.269-.032.275-.018.275.038.27.047.27.057.269-.035.276.005.273.052.269.042.27-.012.273.019.27-.017.276.113.261-.028.275.031.269.021.272.08.263-.061.277.083.272.04.277.033.278" transform="translate(24.85 7.536)" fill="none" stroke="#f7bfa0" stroke-miterlimit="10" stroke-width="0.63"/>
    <path id="Stroke_6" data-name="Stroke 6" d="M.2,17.5l-.007-.277.072-.276-.041-.278L.259,16.4.22,16.118l-.028-.277L.18,15.564l.067-.276-.033-.276.053-.276-.05-.277.021-.277.035-.276-.046-.278-.01-.277V12.8l.074-.278-.021-.277.022-.278-.064-.278.051-.276v-.276L.233,10.86l.02-.278L.295,10.3v-.277L.272,9.751.224,9.473.253,9.2V8.917L.227,8.641l.078-.277,0-.28L.246,7.805l.038-.278L.233,7.248.3,6.971l.012-.279-.071-.28L.233,6.134l.03-.279.067-.28L.314,5.3.24,5.015l.086-.279-.053-.28.014-.28L.325,3.9l.007-.28L.314,3.34.277,3.061l.03-.279V2.5l-.045-.28.052-.28.023-.279L.314,1.384.295,1.107.286.827.344.55.247.275.271,0" transform="translate(25.951 65.956)" fill="none" stroke="#f7bfa0" stroke-miterlimit="10" stroke-width="0.63"/>
    <path id="Stroke_7" data-name="Stroke 7" d="M1.61,4.753l-.263-.012-.279-.02-.2-.205L.623,4.4.406,4.23.3,3.966.156,3.744.082,3.485v-.3l-.035-.3L0,2.6l.069-.3L.036,2,0,1.7l.053-.31.04-.3.1-.28.1-.239L.5.422l.165-.2.238-.1L1.149.053,1.408,0l.261.083.247.089L2.144.3l.172.2.171.2.145.224.126.239.012.273.1.276-.018.295.017.289.077.286.041.288-.018.292-.024.289-.025.256-.041.265-.137.229-.167.205-.182.2-.27.057-.255.061Z" transform="translate(22.011 5.999)" fill="none" stroke="#2c4349" stroke-miterlimit="10" stroke-width="0.63"/>
    <path id="Stroke_8" data-name="Stroke 8" d="M1.284,4.389,1.53,4.3l.239-.076L2,4.12l.208-.145.2-.161.138-.224L2.6,3.333,2.575,3.07V2.808l-.036-.264.086-.267L2.6,2.013,2.535,1.75V1.484l.007-.269L2.521.937,2.339.72,2.2.491,2.031.277,1.771.187,1.536.05,1.261,0,.994.122.7.141l-.21.2-.2.2-.1.266-.1.265-.024.282.032.3-.066.294L0,2.245l.036.3-.013.3.021.3L.03,3.428l.152.247.1.267L.5,4.12l.223.17L1,4.379Z" transform="translate(13.086 7.026)" fill="none" stroke="#2c4349" stroke-miterlimit="10" stroke-width="0.63"/>
    <path id="Stroke_9" data-name="Stroke 9" d="M1.138,3.662l.26-.031.277-.014.239-.135.182-.2.179-.209.082-.27L2.3,2.505l.094-.286-.041-.3.039-.29-.032-.3L2.4,1.073,2.364.805,2.212.582,2.066.37,1.905.145,1.641.079,1.374,0l-.28.091L.811.144.6.339l-.2.19L.23.76l-.073.274-.052.276-.07.243L.024,1.8,0,2.052.032,2.3l-.009.246L.08,2.8l.042.252.11.236.194.177.222.122.23.122Z" transform="translate(9.145 14.285)" fill="none" stroke="#2c4349" stroke-miterlimit="10" stroke-width="0.63"/>
    <path id="Stroke_10" data-name="Stroke 10" d="M1.412,4.767l-.266.043L.909,4.689l-.221-.13-.21-.146-.156-.2-.173-.2L.064,3.755,0,3.5l.031-.284.03-.281L.049,2.651.012,2.367l.049-.281L.1,1.8.069,1.515l.069-.281,0-.3L.322.706.416.425.625.217.918.152,1.168,0l.291.019L1.725.03l.267.061L2.2.267l.191.187.138.228.114.243.077.259.01.27,0,.292.061.291-.061.294.045.292-.033.293.091.291V3.5l-.065.269-.109.243-.083.246-.16.215-.2.191-.267.08-.263.067Z" transform="translate(17.235 3.39)" fill="none" stroke="#2c4349" stroke-miterlimit="10" stroke-width="0.63"/>
    <path id="Stroke_32" data-name="Stroke 32" d="M4.874,2.014l-.177-.2-.2-.182-.214-.168-.2-.187-.223-.16-.17-.22L3.5.7,3.287.526,3.069.351,2.819.226,2.562.1,2.277.1,2,0,1.713.043,1.433.1,1.2.286.924.375.755.608l-.208.2-.078.277L.276,1.3l-.04.285-.108.254L.009,2.1l.03.283L0,2.66l.08.269.075.264.028.285.14.243.163.23L.6,4.209l.154.216.16.212.178.2.122.237.159.212.146.254" transform="translate(22.907 34.222)" fill="none" stroke="#f7bfa0" stroke-miterlimit="10" stroke-width="0.63"/>
    <path id="Stroke_36" data-name="Stroke 36" d="M0,15.509l.276-.1L.5,15.229l.207-.2.252-.139.2-.212.26-.132.213-.193.2-.208.2-.211.2-.2.25-.182-.061-.289L2.279,13l.048-.294-.078-.274L2.2,12.159l-.067-.277V11.6l.01-.283.011-.282-.03-.28-.044-.283.026-.283.023-.283.032-.281.084-.273-.057-.291.058-.279.106-.274.012-.285.1-.269.07-.287L2.431,7.4l-.08-.267L2.193,6.9l-.122-.252-.083-.267L1.961,6.1l-.1-.26-.11-.255-.1-.26L1.57,5.057l-.1-.256L1.4,4.532l-.146-.243L1.237,4l-.151-.243L.986,3.5l-.013-.29L.841,2.954.8,2.674.693,2.413.614,2.146.486,1.891.435,1.617.343,1.353.291,1.078.215.809.17.534.088.267.015,0" transform="translate(49.935 36.674)" fill="none" stroke="#f7bfa0" stroke-miterlimit="10" stroke-width="0.63"/>
    <path id="Stroke_39" data-name="Stroke 39" d="M0,.752.173.55l.2-.182L.59.213.839.108,1.094.018l.275.039L1.641,0,1.9.1l.28-.013L2.4.258" transform="translate(49.962 29.974)" fill="none" stroke="#f7bfa0" stroke-miterlimit="10" stroke-width="0.63"/>
    <path id="Stroke_25" data-name="Stroke 25" d="M.071,15.25l-.01-.274L.01,14.7l.061-.274-.01-.274L.015,13.88l.07-.274,0-.274-.061-.274.032-.273-.04-.274.041-.275.018-.275-.066-.275.047-.274.022-.274-.069-.274.029-.274.017-.275,0-.275.02-.274L.061,9.493.036,9.219,0,8.946l.082-.273L.061,8.4.08,8.125.035,7.849l.032-.274L.052,7.3l.02-.275L0,6.751l.012-.275L.026,6.2V5.923l.022-.276,0-.275L.021,5.1l.043-.277V4.267L0,3.989l.091-.278V3.429l.031-.281L.209,2.88l.074-.272L.4,2.35.53,2.1l.182-.218.106-.267.2-.2.213-.182.2-.2.217-.17L1.865.7,2.077.5,2.342.4,2.6.285l.26-.122L3.146.14,3.421.08,3.7.047,3.983.1,4.254.05l.273.026L4.8.016l.274.021L5.348,0l.273.078L5.9.089,6.169.052l.274,0L6.717.013h.275l.275.018.276.036L7.818.05,8.093.022l.274.049L8.641.036l.274.024L9.19.1,9.465.021,9.74.009l.275.009h.276l.276.037.276-.029.275.049.275-.029.277-.011.275-.017.276,0L12.5.037l.275-.023.276.051.274.01L13.593,0l.274.075.276-.036.277-.01.275.026h.275l.276-.04.277.047L15.8.043l.276.015.275.02.277-.036L16.9.069l.276.008.277-.005.278.012L18.012.1l.283-.081.279.071.279.026L19.14.1l.27.089.247.146.268.082L20.2.5l.22.182L20.683.8,20.9.982l.167.233.232.169.117.266.189.21.16.233.108.26.157.243.067.277.066.275.019.282.011.28.024.279.032.275.009.275-.03.275-.009.275.061.275-.057.275.052.275-.058.275-.018.276.052.276.012.276-.036.275.026.276-.061.277.049.277-.023.276.01.277.021.276-.011.276-.03.276v.276l.052.276-.061.275,0,.276.011.276,0,.276.061.275-.02.275-.022.275,0,.276-.009.275.039.276-.05.276,0,.275-.014.276.013.276-.039.276.015.276.064.276-.03.277.035.277-.061.277.04.277-.025.277-.01.276-.009.277.061.276-.046.276-.03.276.057.276-.016.276.017.276-.039.276.026.276,0,.276-.027.277.008.276.036.277,0,.277-.026.277-.022.277.061.277-.013.277.029.276v.277l-.084.274.008.275.027.275-.043.275.01.276.066.276-.007.276-.027.277L22.2,24.4l.061.277-.061.277-.022.276.089.276-.092.275v.275l.037.275,0,.275.038.275v.275l0,.276-.033.275.057.276-.092.277v.277l.01.278.007.277v.277l-.006.277-.01.276.021.277.069.277-.027.276-.036.277.056.277-.054.277-.018.278.017.277.02.277.022.277-.046.277-.009.277.061.278-.07.278.055.277-.026.277.052.278-.046.275-.036.276.057.277.005.275-.024.278,0,.277.057.277-.014.277-.043.279.021.278-.058.278.094.279-.022.279-.038.278.008.278-.014.279.036.28-.026.281-.033.28.077.285-.066.278-.043.28-.061.277-.158.243-.058.279-.145.243-.15.236-.122.26-.235.171-.169.224-.168.233-.27.112-.215.182-.227.167-.272.084-.248.131-.27.073-.266.092-.281.019-.278.031-.279.074-.273-.064-.274.036h-.273l-.274.026-.274-.047-.274.036-.274.005-.274-.008-.273-.042-.275.024H15.28l-.274-.038-.275.038-.275-.046-.275.016-.275.073-.275-.018-.274-.02-.274-.014-.275-.021-.275.038-.275-.042-.276.035-.275.026-.275-.047-.275-.025-.275.048-.275-.045-.276.032-.276.055-.276-.036-.275-.038-.275.046-.274-.012-.273-.013-.275.046-.275-.025-.277-.019-.275.046-.275-.013L7.03,43.9l-.277-.067-.276.019-.278.033-.277.021-.277,0-.276-.027-.276-.047-.278.038-.278.039-.279-.043-.278.036L3.7,43.847l-.275-.061-.275-.05-.283-.023L2.6,43.618l-.261-.1L2.081,43.4l-.243-.141-.194-.213-.258-.128L1.2,42.7l-.162-.232-.175-.216-.221-.188-.122-.256-.151-.243L.285,41.3l-.115-.26.013-.294-.108-.264,0-.283-.069-.28.077-.281-.02-.282-.035-.283.022-.28v-.283L.01,38.221l.04-.283L0,37.656l.006-.283.064-.284L.055,36.8l.027-.285-.027-.285" transform="translate(27.727 24.737)" fill="none" stroke="#2c4349" stroke-miterlimit="10" stroke-width="0.63"/>
    <path id="Stroke_26" data-name="Stroke 26" d="M.236,2.063l.1-.294V1.475L.262,1.182.248.887l.006-.3L.266.3.291,0" transform="translate(27.486 45.989)" fill="none" stroke="#f7bfa0" stroke-miterlimit="10" stroke-width="0.63"/>
    <path id="Stroke_27" data-name="Stroke 27" d="M.293,2.023.246,1.735l.061-.288L.33,1.16.279.87.313.581.3.291.252,0" transform="translate(27.479 53.971)" fill="none" stroke="#f7bfa0" stroke-miterlimit="10" stroke-width="0.63"/>
    <path id="Stroke_29" data-name="Stroke 29" d="M0,0V.285L.111.541.182.812l.148.237.2.2.161.226.2.2.207.182.2.194.268.106.214.173.188.214.258.111.229.158.253.119" transform="translate(46.914 68.59)" fill="none" stroke="#f7bfa0" stroke-miterlimit="10" stroke-width="0.63"/>
    <path id="Stroke_33" data-name="Stroke 33" d="M2.042,4.2l0-.29-.04-.261.079-.257V3.126l.042-.26.01-.271.11-.243.133-.23L2.525,1.9l.142-.25.205-.2L3.016,1.2l.219-.192L3.382.765l.2-.213L3.707.288l.2-.209L3.618.1,3.336.037,3.051.086,2.767.015,2.481,0H2.195L1.907.016,1.623.061l-.272.07-.23.163L.873.419.69.631.472.8.3,1.025l-.13.246-.061.272L0,1.8l.041.28L0,2.367l.148.243.115.255.224.173.2.182.179.211.255.117.176.226.236.14.238.141Z" transform="translate(24.249 40.177)" fill="none" stroke="#f7bfa0" stroke-miterlimit="10" stroke-width="0.63"/>
    <path id="Stroke_34" data-name="Stroke 34" d="M4.072.657,3.89.828,3.668.989l-.229.159L3.3,1.4l-.148.23-.162.22-.168.228-.083.265-.053.281L2.607,2.9l-.122.26-.071.274.017.3-.095.266-.254-.055-.243-.092L1.58,3.8,1.326,3.72l-.2-.177-.2-.173L.717,3.212.579,2.986.446,2.762l-.176-.2L.2,2.294.034,2.059l-.022-.28L0,1.5l.1-.262L.143.966.292.734.465.525.636.313.866.166,1.1.044,1.381.032,1.662,0l.283.031L2.234.009l.28.061.27.1.275.074.263.106.27.086.27.089Z" transform="translate(24.775 48.23)" fill="none" stroke="#f7bfa0" stroke-miterlimit="10" stroke-width="0.63"/>
    <path id="Stroke_35" data-name="Stroke 35" d="M2.4,3.291,2.37,3l.115-.243-.007-.269.088-.248.095-.243.089-.25.122-.236L3.039,1.3l.193-.191L3.464.958,3.69.808,3.952.69,3.7.566l-.243-.1L3.229.334,2.978.261,2.723.19,2.474.1,2.21.08H1.945l-.31.009L1.33,0,1.021.014.79.128l-.232.1L.392.425.224.613.132.851l-.089.286-.022.3L0,1.741l.067.3.205.189.122.25L.642,2.6l.21.16.243.106.237.122.243.114.26.066.26.08Z" transform="translate(24.702 56.202)" fill="none" stroke="#f7bfa0" stroke-miterlimit="10" stroke-width="0.63"/>
    <path id="Stroke_37" data-name="Stroke 37" d="M0,0,.122.215.309.391.447.6.573.851l.166.22L.893,1.3l.141.238.137.243.145.236.145.236.177.217.118.253.107.258.169.222.174.221.139.243.061.284.148.236.182.222.122.252.052.284.125.249.156.236.046.283.142.243.1.26.08.267.153.243L3.783,7l.011.287.1.253.122.256L4,8.079l.07.267.093.266,0,.28.024.275.015.275-.013.282L4.273,10l.021.275.028.275.022.275.015.276.009.276-.061.28.074.269-.006.275.053.271-.014.276-.018.277.075.27-.012.277v.276l.049.273.04.273.055.273-.043.278.083.269-.018.277.05.272-.05.28.032.275.061.272.039.273-.01.278v.277l.024.275.11.267.007.278v.278l.073.27-.061.284.03.276.075.272.052.274-.008.281.049.275.008.279L5.167,21l-.033.284.056.274.026.275.094.266.046.274.015.278-.021.283L5.4,23.2l.122.26-.014.282L5.606,24l.05.27.064.269-.03.287.092.264.082.266.066.267.075.266.034.277.078.266.073.266,0,.281.071.265.064.266.064.267.041.272.027.274.006.276.04.272.005.275.017.274.016.273.064.272-.061.278,0,.275.018.276-.018.277v.275l.039.273-.018.275.1.266-.024.277.038.27.019.275.11.257v.279l.108.255L7,34.034l.021.279.1.255.109.252.089.257.11.25.092.257.131.239.122.243.046.281.179.216.077.267.137.235.191.2.122.243.141.232.1.256.171.215.108.254.154.225.2.193.151.225.139.235.122.243.137.236.147.228.182.2.132.243.166.218.151.228.165.219.122.248.2.2.108.259.129.246.157.228.193.2.151.232.149.234.15.235.233.173.149.235.162.225.166.22.188.2.122.256.2.2.142.243.165.224.167.222.179.214.208.192.171.221.163.227.187.209.169.223.176.216.186.21.13.254.182.211.173.22.2.2.156.234.182.212.182.212.207.19.169.221.154.233.187.207.141.243.2.2.163.226.226.174.156.233.2.194.136.243" transform="translate(54.728 35.179)" fill="none" stroke="#f7bfa0" stroke-miterlimit="10" stroke-width="0.63"/>
    <path id="Stroke_40" data-name="Stroke 40" d="M0,0,.016.281l.09.266L.265.78l.077.275.222.179.146.243.239.148.239.139.243.126.238.16.275.078" transform="translate(52.775 50.77)" fill="none" stroke="#f7bfa0" stroke-miterlimit="10" stroke-width="0.63"/>
    <path id="Stroke_41" data-name="Stroke 41" d="M0,.875.237.717.486.611.735.506.99.4l.219-.17L1.372,0" transform="translate(23.965 60.968)" fill="none" stroke="#f7bfa0" stroke-miterlimit="10" stroke-width="0.63"/>
    <path id="Stroke_42" data-name="Stroke 42" d="M.486,2.989.6,3.232.627,3.5l.083.253.061.26.088.252L.995,4.5l.1.246.134.23.138.23.165.213.2.182.272.069.257-.048.122-.26L2.37,5.08l-.04-.272-.067-.264-.084-.26L2.161,4l-.114-.254-.1-.258-.1-.258-.094-.26-.082-.264-.1-.256-.027-.284L1.39,1.928l-.1-.258-.117-.251L1.1,1.149.946.916.8.684.694.425.517.232.365,0,.092.064,0,.322.061.588.006.858l.045.263.083.263.082.263L.3,1.908l.033.275.089.261,0,.283Z" transform="translate(52.41 29.707)" fill="none" stroke="#f7bfa0" stroke-miterlimit="10" stroke-width="0.63"/>
    <path id="Stroke_43" data-name="Stroke 43" d="M.159,2.431l-.074-.28L.049,1.868.033,1.586,0,1.3l.038-.292L.176.745.369.526.57.321.769.15,1.008.043,1.264.015,1.511,0l.243.061L2,.156l.186.188" transform="translate(22.739 33.94)" fill="none" stroke="#f7bfa0" stroke-miterlimit="10" stroke-width="0.63"/>
    <path id="Stroke_44" data-name="Stroke 44" d="M7.975,21.251l-.277-.02H7.424l-.275-.019H6.874L6.6,21.2l-.277.044-.277-.078-.276.026-.276.009-.278,0-.277-.013L4.66,21.2l-.278.032L4.1,21.18l-.275-.015-.277.035-.278.007L3,21.2l-.28-.027-.284.089-.264-.094L1.9,21.138l-.27-.033-.243-.113-.206-.178L.922,20.72l-.2-.182-.182-.2-.127-.243L.326,19.84.217,19.6l-.078-.252L.083,19.09l-.038-.265,0-.277.009-.278.041-.28-.019-.277L0,17.437l.032-.277.014-.277L0,16.609l.036-.276-.024-.276v-.276l.065-.276L.061,15.23l-.035-.278v-.276L.038,14.4,0,14.123l.005-.278.049-.278.03-.278-.077-.278v-.278l0-.275.026-.277-.027-.277.067-.277-.053-.277.057-.278L.05,10.8l-.015-.281-.018-.278,0-.278.067-.278L.071,9.4l-.01-.278L.036,8.847.077,8.57.048,8.291,0,8.012l.069-.278.01-.276L.014,7.182.022,6.9l.071-.28L.044,6.346.025,6.07l0-.278V5.513l.041-.28V4.955l.007-.279L.044,4.4l.029-.28-.04-.279.019-.279.035-.277L.035,3,.027,2.717l.026-.281L.068,2.17l0-.273L.2,1.654l.07-.26.107-.25L.538.922.751.751.942.565,1.15.391l.232-.14L1.659.219,1.9.1l.26-.086.27,0L2.7.088l.273-.02L3.252,0l.274.044L3.8,0l.273.02.273.047L4.622.024,4.9.016l.274.078L5.444.024l.274.066L5.992.08,6.266.019H6.54l.275.036L7.09.033,7.364.08h.275L7.913,0l.274.061L8.461.022l.274.039.273.018L9.283.061,9.557.016l.274.048L10.1.049l.274-.043.274.042.274.019L11.2.055l.275.01.275-.038.275.035L12.3.019l.275.033L12.85.036l.274.038L13.4.046l.272.007.273-.042L14.216,0l.274.089.274,0L15.036.05,15.311.04l.275.021.277-.055.275.041.272,0,.274.043.274-.033L17.231.02,17.5.046l.274.012.274.032.274-.043L18.6.1l.273-.085.274.022.274-.007L19.692,0l.275.035.275-.029.275.061.275-.024.275.033.275,0L21.617.03,21.892,0l.275,0,.275.073.275-.009.275-.021.275.013h.275l.275-.049.275.067.275-.071.275.033h.276L25.193,0l.273.042.276.033.275.009h.274l.274-.067.274.03.276.026.278-.033.276.022h.275l.276-.05.277.05.276.027h.277l.277-.035L29.6.011,29.875.1l.276-.08.278.061.278-.05.278.038L31.264,0l.272.011L31.8.1l.254.086.229.138.271.061.2.182.227.151.189.2.1.261.2.2.061.266.113.249.021.272v.27l.01.277-.029.278.039.278.012.277-.024.277-.035.277,0,.276v.277l.008.276.051.276,0,.277,0,.276.008.276L33.7,6.3l-.005.277v.277l-.016.277-.061.278.049.278-.02.278-.03.278.041.278.04.277-.075.277.021.277.026.277.012.277.016.278-.061.278.061.278-.08.278.04.278.033.278.01.278-.017.278-.017.278.014.278-.074.278.061.278.03.278-.018.276.016.277-.061.277.051.278-.084.279.069.278-.037.278.041.278-.047.28-.007.279.009.279.02.28.03.279-.012.279-.016.279-.016.28,0,.281.042.281-.018.281-.038.266,0,.272-.061.266-.122.243-.146.227-.152.222-.173.207-.212.166-.2.176-.255.094-.243.113-.25.1-.271.012-.266.05-.275.014-.275-.016-.275-.033-.277.03-.276-.04-.276.021-.277.03h-.276l-.276-.057-.276-.022-.277.009-.278.006-.278.025h-.278" fill="none" stroke="#f7bfa0" stroke-miterlimit="10" stroke-width="0.63"/>
    <path id="Stroke_46" data-name="Stroke 46" d="M0,.3.274.265.547.3.819.274h.275l.273-.03.272,0,.274.016.274-.01L2.459.3l.273.022L3,.317,3.272.3,3.544.264,3.816.256,4.089.3l.273-.01.273.036L4.908.236l.273.01.275.035.274.046H6L6.277.24l.274.009L6.825.238l.273,0L7.373.31h.275L7.924.269,8.2.294" transform="translate(34.765 64.427)" fill="none" stroke="#2c4349" stroke-miterlimit="10" stroke-width="0.63"/>
    <path id="Stroke_47" data-name="Stroke 47" d="M11.348,39.682h0l-.274-.016-.272-.048-.275.032-.275.009-.275-.013-.275,0-.275.008-.275.026L8.88,39.6l-.274.043-.274-.008H8.057l-.275-.02H7.507l-.274-.02-.273.049-.274-.023-.273.041H6.139l-.273-.076-.274,0-.274.012-.272-.007-.275.086H4.5l-.273-.046L3.949,39.6l-.273-.01-.273.09-.272-.036-.273.01-.272-.044-.277.007-.273.038-.288-.007-.285-.053L1.2,39.471l-.224-.182-.23-.161-.187-.21L.4,38.693.24,38.461.14,38.2l-.091-.272.018-.287-.033-.271L.012,37.1l.026-.271.042-.27-.014-.27-.015-.27.027-.27-.04-.27V35.2l.047-.269-.068-.27V34.4l.052-.268.01-.269-.068-.27.03-.268.041-.268-.027-.267L.047,32.52l.009-.269-.042-.269V27.119l.009.037v-.163l-.009.078V25.482l.013.08v1.431l.017-.157.041-.272-.033-.272-.009-.27.009-.27-.03-.19.006-3.174,0,.038v-.5l.006-.061.042-.28-.014-.281-.015-.278.027-.279-.04-.279v-.28l.047-.278-.049-.2-.005,1.8h0L.022,19.657l.012.051v-.477L.021,19.3l0-.746.019.078v.6l.03-.158.01-.278-.039-.16v-.4l-.019.182L.011,16.852l.029.193v1.193l.041-.278-.027-.277-.009-.276.009-.276-.013-.086.005-2.739-.012-.277.041-.276-.025-.276L.069,13.2l-.008-.273,0-.275.018-.274.018-.275-.016-.274-.041-.274.024-.275.018-.273-.042-.272,0-.273.015-.274.016-.273L.082,9.65l-.03-.271-.02-.271L.022,8.835.03,8.562l.047-.273L.036,8.016l.037-.273L0,7.47.085,7.2.034,6.926l.061-.273L.076,6.382l.019-.273-.03-.274L0,5.561l.076-.273L.061,5.018l.018-.272.016-.272L.087,4.2.053,3.931l-.04-.273.08-.273L.033,3.112.094,2.84.077,2.568.066,2.3.04,2.025V1.738l.132-.261L.233,1.2l.1-.27.2-.211L.745.532l.2-.212L1.222.236,1.49.154,1.763.1,2.039.081,2.305.076,2.572.069l.265,0,.263,0L3.365.017,3.629.009h.264l.264,0,.264.035L4.673.07,4.7.325l.132.258.129.256.21.194L5.4,1.2l.269.122.294-.007.282.044.282-.074.281.074.281-.01.28-.038.28.03.28-.078.281.04.28.013.279.04.28,0,.28-.061.278.038.279-.049.28.061.279-.08.278.085L11,1.3l.277-.035h.279l.279.027.278.051.247-.078L12.6,1.2l.232-.1L13,.92,13.18.745l.146-.209.009-.259L13.381,0l.277.007.266.033.265.041L14.454.04h.263l.263.033L15.244,0l.264.068.263-.049h.264l.283.033L16.6.093l.272.092.214.2.219.17.219.176.207.2.142.25.071.28.085.274-.042.287.028.281-.035.28.026.28.007.279-.022.277.084.278-.051.278.043.278-.032.278-.012.278L18,5.088l.041.277.033.277-.043.277,0,.278-.041.277.053.276-.019.275.011.276.035.277,0,.277-.089.277.013.277.043.277-.007.277.028.277-.038.277.015.277L18,10.068l.042.278-.036.277.039.277-.01.277.013.276-.019.276L17.99,12l.042.277.014.277L18,12.833l.045.277.015.277-.019.277-.034.277.039.276-.061.275.088.275v.275l-.047.275.023.275-.037.275v.275l.057.275.011.275-.066.276.071.276L18,17.522l.008.277.043.277-.047.276-.02.276.047.275-.044.275.06.272.02.274L18,20l-.013.276.041.276.043.276-.076.276.01.277.02.277.012.276-.045.277v.281l.028.277.036.276L18,23.316l.041.276v.276l-.025.275.008.276.053.276-.035.275-.019.276.04.276-.029.276.019.276-.007.276v.277l-.037.276v.277l0,.276.019.276.05.276-.069.276L18,28.558l.064.276-.01.275-.069.275.048.276.029.275-.043.275.025.275.013.275.008.275L18,31.312l.005.276.018.275.015.275.029.276-.057.275.053.276-.067.277.027.276L18,33.795l0,.276v.277l.077.276-.03.276-.049.276-.006.275.039.276L18.01,36v.276l.033.275.019.275L18,37.1v.275l.024.275-.057.278-.013.285-.112.26-.163.232-.113.269-.192.218-.255.14-.254.129-.266.1-.275.083-.287.032-.278.006-.278.009-.277-.047-.277-.036-.275,0-.276,0-.276.075-.277-.056-.275-.01-.276.043L13,39.68l-.275-.08-.274.09-.275-.027-.276-.011-.275.008-.274.035ZM.021,27.156v.736l-.006.03v2.71l.024-.253L.08,30.1l-.014-.273L.05,29.557l.027-.272-.04-.272v-.272l.047-.274-.066-.263v-.312l.047-.243.01-.271Z" transform="translate(29.827 26.859)" fill="none" stroke="#2c4349" stroke-miterlimit="10" stroke-width="0.63"/>
    <path id="Stroke_28" data-name="Stroke 28" d="M3.845,5.227l.269.1.275.083.287.027.284.04.287.013.285.046.287.024.29-.009.284-.066.289-.019.283-.061.276-.061L7.483,5.2l.261-.1.239-.146L8.215,4.8l.239-.15.23-.169.156-.243.126-.253.2-.208L9.25,3.5l.069-.27.072-.27.024-.279L9.387,2.4l.027-.278-.126-.243-.159-.217-.159-.214-.158-.225-.259-.105L8.331.976,8.105.834l-.244-.1-.248-.1L7.375.495,7.1.475,6.851.359,6.581.334,6.321.25H6.05L5.787.229,5.509.182,5.231.142,4.95.122,4.672.089,4.4,0,4.113.026l-.284,0L3.552.078,3.27.069l-.281,0L2.719.16,2.446.221,2.181.3,1.9.343,1.662.506,1.429.659,1.18.79.948.957.76,1.171l-.117.264-.136.243L.318,1.9l-.075.278-.089.263-.069.27L.1,3l-.04.272-.007.275L0,3.824.047,4.1l.109.26L.2,4.639l.182.221.143.233.093.269.209.189.191.2.156.23.169.219.182.211.243.146.156.238.2.19.243.143.191.2.167.227.212.182.23.156.2.2.2.193.2.194.218.182.148.251.212.186.187.211.232.165.182.211.232.165.193.2.2.2.168.227.15.243.233.163.174.218.22.175.151.238.225.171.122.262.2.19.209.182.182.208.16.229.191.2.2.2.176.217.14.247.182.21.207.187.144.243.211.187.188.207.173.221.142.243.19.207.23.173.179.223.109.273.248.157.13.256.209.188.2.2.182.21.146.243.194.2.253.142.193.2.174.222.205.19.2.2.22.173.194.2.2.192.269.111.218.173.207.186.219.174.225.164.252.126.2.2.208.19.234.151.276.084.23.157.217.178.238.142.265.1.226.162.243.129.264.092.227.164.246.134.233.149.228.157.243.133.247.122.258.1.225.16.243.127.225.161.23.153.248.122.208.188.222.166.271.084.186.218.225.158.238.139.243.133.22.167.267.1.221.168.215.177.207.188.254.122.21.182.25.128.215.179.222.167.247.131.248.131.192.21.26.115.193.208.225.164.208.182.243.136.2.191.258.122.222.167.182.22.248.133.205.188.182.217.239.148.182.216.22.168.251.137.194.2.171.221.21.182.16.228.137.236.109.254.144.233.169.218.127.243.127.243.15.228.142.234.072.273.193.2.142.233.137.237.131.243.127.243.074.27.141.233.149.23.162.222.129.243.134.243.089.266.139.236.2.2.061.28.182.216.125.243.1.259.148.232.136.239.108.254.133.243.194.207.129.243.061.278.134.239.142.235.114.25.2.2.054.282.135.239.122.243.177.21" transform="translate(20.546 55.519)" fill="none" stroke="#f7bfa0" stroke-miterlimit="10" stroke-width="0.63"/>
    <path id="Stroke_30" data-name="Stroke 30" d="M3.54,5.8l.253.1.249.111.256.1.256.1.252.122.273.045.263.093.282,0,.269.072.277.02.275.053.279-.055L7,6.611l.266-.091.26-.084.28-.029.226-.167.258-.1.217-.168.252-.122.2-.188.162-.227.21-.176.194-.2L9.7,4.851l.111-.256.122-.243.145-.229.164-.225.03-.284.009-.277.05-.286-.09-.271-.1-.265-.122-.253-.117-.256L9.75,1.763,9.507,1.6l-.134-.261-.243-.15-.215-.182L8.668.866,8.418.728,8.144.642,7.866.588l-.28-.03L7.326.425,7.05.4,6.772.359,6.486.374,6.221.267,5.949.194,5.669.165,5.383.182,5.105.127,4.827.122,4.555.04,4.276.015,4,0,3.718.05,3.441.016,3.166.069,2.894.111l-.27.048-.286.01L2.105.331l-.258.11L1.6.573l-.2.2-.2.2-.187.208-.187.21-.158.232-.122.253L.376,2.1.3,2.377l-.117.257-.016.283-.105.262L0,3.455l.04.28-.034.282.1.258.109.246.128.237.113.247L.6,5.234l.176.207.169.212.174.207.182.2.153.229.153.232.2.193.188.2.216.168.194.19.182.205.243.137.14.243.22.159" transform="translate(20.178 47.533)" fill="none" stroke="#f7bfa0" stroke-miterlimit="10" stroke-width="0.63"/>
    <path id="Stroke_31" data-name="Stroke 31" d="M2.457,6.2l.243.122.243.118.26.086.254.112.276.022L4,6.72l.277-.064.273.077.277-.046.27-.039.26-.095.263-.066.262-.076.276-.045.263-.1.253-.125.219-.179.188-.21L7.318,5.6l.159-.232.166-.221L7.8,4.918l.2-.2.142-.243.109-.26L8.3,3.928l.067-.27.091-.265,0-.281.066-.273.024-.281-.074-.275L8.486,2l-.138-.25-.1-.263L8.07,1.269l-.237-.16L7.61.938,7.41.726l-.266-.1L6.9.464,6.611.441,6.342.335,6.055.342,5.774.312,5.5.294,5.227.218,4.949.209,4.684.122,4.413.054l-.28.038L3.858,0l-.28.033L3.3.049,3.027.092,2.754.133,2.469.122l-.263.1L1.941.3,1.7.448,1.459.581,1.209.714,1.041.943.859,1.15.7,1.373.574,1.62l-.148.232L.264,2.08.2,2.348.119,2.61l-.082.263-.019.275.024.275-.016.27L0,3.969l.046.27.046.27.061.267.1.255.113.249.122.243.091.26.155.225.105.256.167.217.187.2L1.3,6.96l.187.222.129.261.156.243.213.2" transform="translate(21.615 39.635)" fill="none" stroke="#f7bfa0" stroke-miterlimit="10" stroke-width="0.63"/>
  </g>
</svg>
