<svg xmlns="http://www.w3.org/2000/svg" width="152" height="152" viewBox="0 0 152 152">
  <g id="Group_11581" data-name="Group 11581" transform="translate(-842 -672)">
    <g id="Path_232" data-name="Path 232" transform="translate(842 672)" fill="none">
      <path d="M76,0A76,76,0,1,1,0,76,76,76,0,0,1,76,0Z" stroke="none"/>
      <path d="M 76 1 C 65.87461853027344 1 56.05265808105469 2.982833862304688 46.80692291259766 6.893463134765625 C 42.36308288574219 8.773040771484375 38.07691955566406 11.09951782226563 34.06748199462891 13.8082275390625 C 30.09587860107422 16.49137878417969 26.36113739013672 19.57284545898438 22.96699523925781 22.96699523925781 C 19.57284545898438 26.36113739013672 16.49137878417969 30.09587860107422 13.8082275390625 34.06748199462891 C 11.09951782226563 38.07691955566406 8.773040771484375 42.36308288574219 6.893463134765625 46.80692291259766 C 2.982833862304688 56.05265808105469 1 65.87461853027344 1 76 C 1 86.12538146972656 2.982833862304688 95.94734191894531 6.893463134765625 105.1930847167969 C 8.773040771484375 109.6369171142578 11.09951782226563 113.9230804443359 13.8082275390625 117.9325256347656 C 16.49137878417969 121.9041213989258 19.57284545898438 125.6388626098633 22.96699523925781 129.0330047607422 C 26.36113739013672 132.4271545410156 30.09587860107422 135.5086212158203 34.06748199462891 138.1917724609375 C 38.07691955566406 140.9004821777344 42.36308288574219 143.2269592285156 46.80692291259766 145.1065368652344 C 56.05265808105469 149.0171661376953 65.87461853027344 151 76 151 C 86.12538146972656 151 95.94734191894531 149.0171661376953 105.1930847167969 145.1065368652344 C 109.6369171142578 143.2269592285156 113.9230804443359 140.9004821777344 117.9325256347656 138.1917724609375 C 121.9041213989258 135.5086212158203 125.6388626098633 132.4271545410156 129.0330047607422 129.0330047607422 C 132.4271545410156 125.6388626098633 135.5086212158203 121.9041213989258 138.1917724609375 117.9325256347656 C 140.9004821777344 113.9230804443359 143.2269592285156 109.6369171142578 145.1065368652344 105.1930847167969 C 149.0171661376953 95.94734191894531 151 86.12538146972656 151 76 C 151 65.87461853027344 149.0171661376953 56.05265808105469 145.1065368652344 46.80692291259766 C 143.2269592285156 42.36308288574219 140.9004821777344 38.07691955566406 138.1917724609375 34.06748199462891 C 135.5086212158203 30.09587860107422 132.4271545410156 26.36113739013672 129.0330047607422 22.96699523925781 C 125.6388626098633 19.57284545898438 121.9041213989258 16.49137878417969 117.9325256347656 13.8082275390625 C 113.9230804443359 11.09951782226563 109.6369171142578 8.773040771484375 105.1930847167969 6.893463134765625 C 95.94734191894531 2.982833862304688 86.12538146972656 1 76 1 M 76 0 C 117.9736404418945 0 152 34.02635955810547 152 76 C 152 117.9736404418945 117.9736404418945 152 76 152 C 34.02635955810547 152 0 117.9736404418945 0 76 C 0 34.02635955810547 34.02635955810547 0 76 0 Z" stroke="none" fill="#f7c0a0"/>
    </g>
    <g id="truck-icon" transform="translate(863.5 683.352)">
      <path id="Path_184" data-name="Path 184" d="M72.575,51.4H62.944a.262.262,0,0,0-.244.244v9.266a.262.262,0,0,0,.244.244H81.353c.122,0,.122,0,.244-.122a.426.426,0,0,0,.122-.244c0-.122,0-.122-.122-.244L72.819,51.4Z" transform="translate(12.097 2.191)" fill="none" stroke="#2c4349" stroke-miterlimit="10" stroke-width="0.5"/>
      <path id="Path_185" data-name="Path 185" d="M79.089,73.4a4.389,4.389,0,1,0,4.389,4.389A4.371,4.371,0,0,0,79.089,73.4Zm0,8.168a3.8,3.8,0,0,1-3.779-3.779h0a3.779,3.779,0,1,1,3.779,3.779Z" transform="translate(14.727 7.013)" fill="#2c4349"/>
      <path id="Path_186" data-name="Path 186" d="M79.746,70.4a8.046,8.046,0,1,0,8.046,8.046A8.039,8.039,0,0,0,79.746,70.4Z" transform="translate(14.069 6.355)" fill="none" stroke="#2c4349" stroke-miterlimit="10" stroke-width="0.5"/>
      <path id="Path_187" data-name="Path 187" d="M25.989,73.4a4.389,4.389,0,1,0,4.389,4.389A4.371,4.371,0,0,0,25.989,73.4Zm0,8.168a3.8,3.8,0,0,1-3.779-3.779h0a3.779,3.779,0,1,1,3.779,3.779Z" transform="translate(3.09 7.013)" fill="#2c4349"/>
      <path id="Path_188" data-name="Path 188" d="M26.646,70.4a8.046,8.046,0,1,0,8.046,8.046A8.039,8.039,0,0,0,26.646,70.4Z" transform="translate(2.433 6.355)" fill="none" stroke="#2c4349" stroke-miterlimit="10" stroke-width="0.5"/>
      <path id="Path_189" data-name="Path 189" d="M22.5,77.487a9.839,9.839,0,0,1,13.9.731,9.564,9.564,0,0,1,2.56,5.486.262.262,0,0,0,.244.244H83.819a.262.262,0,0,0,.244-.244,9.222,9.222,0,0,1,2.56-5.486l.731-.731a9.76,9.76,0,0,1,13.9.731,9.564,9.564,0,0,1,2.56,5.486.262.262,0,0,0,.244.244h4.023a3.123,3.123,0,0,0,3.048-3.17v-6.1a6.39,6.39,0,0,0-3.292-5.242l-8.046-4.267-11.582-12.8a5.84,5.84,0,0,0-4.267-1.951h-.122l-6.461-7.8A3.457,3.457,0,0,0,74.675,41.4H7.744a.262.262,0,0,0-.244.244V80.535a3.408,3.408,0,0,0,3.414,3.414h8.168a.262.262,0,0,0,.244-.244,9.222,9.222,0,0,1,2.56-5.486C22.008,77.853,22.252,77.731,22.5,77.487Z" transform="translate(0)" fill="none" stroke="#2c4349" stroke-miterlimit="10" stroke-width="0.5"/>
      <line id="Line_5" data-name="Line 5" y2="42.548" transform="translate(68.214 41.4)" fill="none" stroke="#2c4349" stroke-miterlimit="10" stroke-width="0.5"/>
    </g>
  </g>
</svg>
