<svg xmlns="http://www.w3.org/2000/svg" width="258.666" height="651.301" viewBox="0 0 258.666 651.301">
  <g id="howto-uniquenail" transform="translate(0.344)">
    <g id="Ellipse_24" data-name="Ellipse 24" transform="translate(34.902)">
      <circle id="Ellipse_30" data-name="Ellipse 30" cx="77.003" cy="77.003" r="77.003" fill="none"/>
      <circle id="Ellipse_31" data-name="Ellipse 31" cx="76.496" cy="76.496" r="76.496" transform="translate(0.507 0.507)" fill="none" stroke="#f7c0a0" stroke-width="1"/>
    </g>
    <line id="Line_10" data-name="Line 10" y2="71.937" transform="translate(112.411 153.803)" fill="none" stroke="#f7bfa0" stroke-width="1"/>
    <g id="Group_11593" data-name="Group 11593" transform="translate(64.214 42.533)">
      <path id="Path_380" data-name="Path 380" d="M97.954,73.968a.263.263,0,0,1-.253-.213v-.132a7.325,7.325,0,0,0-2.553-5.066,4.863,4.863,0,0,0-3.3-.892h0a.253.253,0,1,1-.081-.5h0c5.005-.79,4.266-7.092,4.235-7.315a.253.253,0,0,1,.213-.284.263.263,0,0,1,.294.213c.426,2.736,1.378,4.59,2.807,5.522a4.053,4.053,0,0,0,2.563.618l.426-.071a.243.243,0,0,1,.274.2.253.253,0,0,1-.172.294,1.854,1.854,0,0,0-.476.081,4.286,4.286,0,0,0-2.675,1.682c-1.459,1.966-1.125,5-1.013,5.522a.223.223,0,0,0,0,.081.253.253,0,0,1-.213.284ZM93.3,67.24a5.2,5.2,0,0,1,2.118.922,6.5,6.5,0,0,1,2.219,3.151,6.981,6.981,0,0,1,1.206-3.546,4.519,4.519,0,0,1,1.692-1.4,4.57,4.57,0,0,1-1.51-.628,6.6,6.6,0,0,1-2.553-3.708C96.282,63.785,95.593,66.2,93.3,67.24Z" transform="translate(-91.521 -42.456)" fill="#2c4349"/>
      <path id="Path_381" data-name="Path 381" d="M179.837,60.868h0a.253.253,0,0,1-.243-.263v-.132a7.285,7.285,0,0,0-1.55-5.431,4.782,4.782,0,0,0-3.09-1.51h0a.253.253,0,0,1-.243-.263.243.243,0,0,1,.263-.243h0c5.066.172,5.522-6.079,5.542-6.383a.223.223,0,0,1,.263-.233.253.253,0,0,1,.243.253c-.091,2.766.486,4.772,1.712,5.958a4.053,4.053,0,0,0,2.4,1.094h.426a.254.254,0,0,1,.01.507,4.456,4.456,0,0,1-.486,0,4.255,4.255,0,0,0-2.908,1.094c-1.8,1.662-2.026,4.7-2.087,5.228v.081A.253.253,0,0,1,179.837,60.868Zm-3.344-7.487a5.269,5.269,0,0,1,1.9,1.307,6.535,6.535,0,0,1,1.581,3.465,7.093,7.093,0,0,1,1.854-3.252,4.61,4.61,0,0,1,1.925-1.013A4.468,4.468,0,0,1,182.4,53a6.657,6.657,0,0,1-1.814-4.164C180.07,50.554,178.935,52.783,176.493,53.381Z" transform="translate(-90.423 -42.63)" fill="#2c4349"/>
      <path id="Path_382" data-name="Path 382" d="M102.193,62.856a.2.2,0,0,1-.2-.162v-.061a2.867,2.867,0,0,0-.952-1.935,1.672,1.672,0,0,0-1.155-.314h0a.206.206,0,1,1-.071-.405h0c1.8-.284,1.54-2.665,1.53-2.766a.2.2,0,1,1,.4-.051,2.908,2.908,0,0,0,1.013,2.118,1.327,1.327,0,0,0,.861.213h.172a.213.213,0,0,1,.223.162.2.2,0,0,1-.142.233h-.193a1.52,1.52,0,0,0-.922.567,3.364,3.364,0,0,0-.405,2.128h0a.192.192,0,0,1-.172.223ZM100.7,60.04a2.341,2.341,0,0,1,.567.294,2.6,2.6,0,0,1,.75.942,2.614,2.614,0,0,1,.446-1.074,2.026,2.026,0,0,1,.446-.436,2.179,2.179,0,0,1-.344-.172,2.452,2.452,0,0,1-.892-1.135A2.432,2.432,0,0,1,100.7,60.04Z" transform="translate(-91.414 -42.49)" fill="#2c4349"/>
      <path id="Path_383" data-name="Path 383" d="M173.7,48.567h0a.193.193,0,0,1-.182-.213V48.3a2.786,2.786,0,0,0-.507-2.1A1.722,1.722,0,0,0,172,45.639h0a.192.192,0,0,1-.182-.213.182.182,0,0,1,.213-.182h0c1.824.111,2.026-2.28,2.087-2.381a.193.193,0,0,1,.213-.182.223.223,0,0,1,.193.223,2.928,2.928,0,0,0,.557,2.29,1.307,1.307,0,0,0,.79.4h.182a.2.2,0,0,1-.01.405.628.628,0,0,1-.182,0,1.52,1.52,0,0,0-1.013.365A3.262,3.262,0,0,0,174,48.384h0a.2.2,0,0,1-.294.182Zm-.9-3.04a2.249,2.249,0,0,1,.5.415,2.432,2.432,0,0,1,.527,1.115,2.675,2.675,0,0,1,.669-.952,1.732,1.732,0,0,1,.537-.324,3.191,3.191,0,0,1-.3-.243,2.442,2.442,0,0,1-.628-1.307,2.4,2.4,0,0,1-1.3,1.287Z" transform="translate(-90.461 -42.679)" fill="#2c4349"/>
      <path id="Path_384" data-name="Path 384" d="M175.5,63.406h0a.192.192,0,0,1-.182-.213h0a2.8,2.8,0,0,0-.507-2.1,1.621,1.621,0,0,0-1.013-.557h0a.2.2,0,1,1,.03-.405h0c1.824.122,2.077-2.27,2.087-2.371a.192.192,0,0,1,.213-.182.213.213,0,0,1,.193.213,2.918,2.918,0,0,0,.557,2.29,1.388,1.388,0,0,0,.79.405h.182a.213.213,0,0,1,.182.213.193.193,0,0,1-.193.193.871.871,0,0,1-.182,0,1.459,1.459,0,0,0-1.013.355,3.3,3.3,0,0,0-.851,2.026h0a.2.2,0,0,1-.294.132Zm-.9-3.04a2.027,2.027,0,0,1,.486.415,2.381,2.381,0,0,1,.537,1.084,2.706,2.706,0,0,1,.669-.963,1.733,1.733,0,0,1,.537-.324,2.128,2.128,0,0,1-.3-.243,2.412,2.412,0,0,1-.628-1.3,2.411,2.411,0,0,1-1.3,1.317Z" transform="translate(-90.438 -42.482)" fill="#2c4349"/>
      <path id="Path_385" data-name="Path 385" d="M173.626,110.825h-.061a.253.253,0,0,1-.193-.3v-.071a4.053,4.053,0,0,0-.2-3.121,2.492,2.492,0,0,0-1.368-1.064h0a.253.253,0,0,1-.193-.3.263.263,0,0,1,.3-.182h0c2.574.6,3.526-2.715,3.566-2.857a.257.257,0,0,1,.5.132,4.2,4.2,0,0,0,.223,3.394,1.864,1.864,0,0,0,1.013.77l.253.061a.263.263,0,0,1,.182.294.253.253,0,0,1-.284.2,1.155,1.155,0,0,1-.263-.061,2.229,2.229,0,0,0-1.56.263,4.772,4.772,0,0,0-1.712,2.614h0a.263.263,0,0,1-.2.233Zm-.648-4.509a2.929,2.929,0,0,1,.638.74,3.505,3.505,0,0,1,.486,1.753,3.871,3.871,0,0,1,1.226-1.277,2.979,2.979,0,0,1,.892-.334,2.24,2.24,0,0,1-.405-.456,3.546,3.546,0,0,1-.557-2.118,3.445,3.445,0,0,1-2.239,1.692Z" transform="translate(-90.464 -41.887)" fill="#2c4349"/>
      <path id="Path_386" data-name="Path 386" d="M165.687,105.526H110.914a5.694,5.694,0,0,1-5.694-5.694V54.684A5.694,5.694,0,0,1,110.914,49h54.773a5.694,5.694,0,0,1,5.694,5.694V99.832a5.694,5.694,0,0,1-5.694,5.694ZM110.914,49.5a5.188,5.188,0,0,0-5.188,5.188V99.832a5.2,5.2,0,0,0,5.188,5.188h54.773a5.2,5.2,0,0,0,5.167-5.188V54.684a5.188,5.188,0,0,0-5.188-5.188Z" transform="translate(-91.34 -42.596)" fill="#f7bfa0"/>
      <path id="Path_387" data-name="Path 387" d="M170.6,70.912h-.77a5.623,5.623,0,0,1-5.066-4.255c-.659-4.3,5.177-10.507,5.431-10.77l.436-.456Zm-.507-14.185c-1.358,1.54-5.38,6.454-4.863,9.838a5.066,5.066,0,0,0,4.63,3.84h.213Z" transform="translate(-90.555 -42.511)" fill="#f7bfa0"/>
      <path id="Path_388" data-name="Path 388" d="M169.938,85.429a5.745,5.745,0,0,1-5.208-4.053c-.659-4.306,5.177-10.517,5.431-10.78l.436-.456V85.4Zm.132-14.023c-1.358,1.54-5.38,6.454-4.863,9.838a5.147,5.147,0,0,0,4.721,3.678h.142Z" transform="translate(-90.556 -42.317)" fill="#f7bfa0"/>
      <path id="Path_389" data-name="Path 389" d="M170.01,100.513a5.177,5.177,0,0,1-5.289-4.367c-.648-4.276,5.188-10.487,5.441-10.75l.436-.456V99.581l-.1.912h-.486Zm.061-14.306c-1.358,1.54-5.38,6.454-4.863,9.838a4.59,4.59,0,0,0,4.782,3.962h0l.051-.446Z" transform="translate(-90.556 -42.121)" fill="#f7bfa0"/>
      <path id="Path_390" data-name="Path 390" d="M116.435,54.54a5.34,5.34,0,0,0-1.814.314s-2.624.7-2.422,4.2a22,22,0,0,0,1.185,5.177c.871,2.2,3.506,2.026,3.506,2.026a3.779,3.779,0,0,0,3.769-3.04c.355-1.793.527-4.053.527-4.053.142-3.394-2.422-4.184-2.422-4.184a4.853,4.853,0,0,0-1.966-.314Z" transform="translate(-91.248 -42.522)" fill="none" stroke="#2c4349" stroke-miterlimit="10" stroke-width="0.5"/>
      <path id="Path_391" data-name="Path 391" d="M153.975,70.54a5.34,5.34,0,0,0-1.814.314s-2.614.689-2.422,4.195a22.585,22.585,0,0,0,1.185,5.177c.871,2.2,3.506,2.026,3.506,2.026a3.769,3.769,0,0,0,3.769-3.04,39.7,39.7,0,0,0,.537-4.053c.132-3.394-2.432-4.185-2.432-4.185a4.833,4.833,0,0,0-1.966-.314Z" transform="translate(-90.753 -42.311)" fill="none" stroke="#2c4349" stroke-miterlimit="10" stroke-width="0.5"/>
      <path id="Path_392" data-name="Path 392" d="M116.475,86.22a5.38,5.38,0,0,0-1.814.314s-2.614.689-2.422,4.195a22.29,22.29,0,0,0,1.2,5.177c.861,2.2,3.5,2.026,3.5,2.026a3.769,3.769,0,0,0,3.769-3.04,39.7,39.7,0,0,0,.537-4.053c.132-3.394-2.432-4.184-2.432-4.184a4.8,4.8,0,0,0-1.955-.314Z" transform="translate(-91.248 -42.104)" fill="none" stroke="#2c4349" stroke-miterlimit="10" stroke-width="0.5"/>
      <path id="Path_393" data-name="Path 393" d="M130.7,59.535a2.8,2.8,0,0,0-1.013-1.783c-1.2-.912-1.489-.9-2.138-.922a3.4,3.4,0,0,0-2.442.922,2.462,2.462,0,0,0-1.013,1.783,13.172,13.172,0,0,0,.8,5.218,2.513,2.513,0,0,0,2.432,1.429h0a2.624,2.624,0,0,0,2.432-1.429,11.459,11.459,0,0,0,.942-5.218Z" transform="translate(-91.091 -42.492)" fill="none" stroke="#2c4349" stroke-miterlimit="10" stroke-width="0.5"/>
      <path id="Path_394" data-name="Path 394" d="M130.7,91.135a2.8,2.8,0,0,0-1.013-1.793c-1.2-.912-1.489-.892-2.138-.922a3.4,3.4,0,0,0-2.442.922,2.472,2.472,0,0,0-1.013,1.793,13.172,13.172,0,0,0,.8,5.218,2.513,2.513,0,0,0,2.432,1.418h0a2.624,2.624,0,0,0,2.432-1.418,11.47,11.47,0,0,0,.942-5.218Z" transform="translate(-91.091 -42.075)" fill="none" stroke="#2c4349" stroke-miterlimit="10" stroke-width="0.5"/>
      <path id="Path_395" data-name="Path 395" d="M146.756,75.535a2.8,2.8,0,0,0-.963-1.783c-1.2-.912-1.479-.9-2.138-.922a3.4,3.4,0,0,0-2.442.922,2.462,2.462,0,0,0-1.013,1.783,13.019,13.019,0,0,0,.811,5.218,2.492,2.492,0,0,0,2.422,1.418h0a2.624,2.624,0,0,0,2.432-1.418A11.459,11.459,0,0,0,146.756,75.535Z" transform="translate(-90.879 -42.281)" fill="none" stroke="#2c4349" stroke-miterlimit="10" stroke-width="0.5"/>
      <path id="Path_396" data-name="Path 396" d="M137.218,66.181a3.171,3.171,0,0,1-2.908-1.814,10.132,10.132,0,0,1-.78-4.762,2.827,2.827,0,0,1,2.888-2.715,7.092,7.092,0,0,1,2.746.284s1.56.426,1.6,3.04c0,0,.091,3.637-1.55,5.36A2.421,2.421,0,0,1,137.218,66.181Z" transform="translate(-90.967 -42.492)" fill="none" stroke="#2c4349" stroke-miterlimit="10" stroke-width="0.5"/>
      <path id="Path_397" data-name="Path 397" d="M133.808,82.121A3.161,3.161,0,0,1,130.9,80.3a9.95,9.95,0,0,1-.78-4.762,2.817,2.817,0,0,1,2.918-2.675,7.092,7.092,0,0,1,2.746.284s1.56.426,1.611,3.04c0,0,.081,3.637-1.56,5.36a2.411,2.411,0,0,1-2.026.578Z" transform="translate(-91.012 -42.281)" fill="none" stroke="#2c4349" stroke-miterlimit="10" stroke-width="0.5"/>
      <path id="Path_398" data-name="Path 398" d="M137.278,97.8a3.151,3.151,0,0,1-2.908-1.814,10.132,10.132,0,0,1-.78-4.762,2.817,2.817,0,0,1,2.888-2.705,7.194,7.194,0,0,1,2.736.274s1.57.436,1.611,3.04c0,0,.091,3.637-1.55,5.36a2.432,2.432,0,0,1-2,.608Z" transform="translate(-90.966 -42.075)" fill="none" stroke="#2c4349" stroke-miterlimit="10" stroke-width="0.5"/>
      <path id="Path_399" data-name="Path 399" d="M146.612,56.36a2.928,2.928,0,0,0-2.766,1.773,6.951,6.951,0,0,0-.436,2.462s0,3.658,1.418,4.894a2.908,2.908,0,0,0,2.026.7,2.867,2.867,0,0,0,2.766-1.895s1.449-3.739.253-6.464C149.894,57.829,149.459,56.33,146.612,56.36Z" transform="translate(-90.836 -42.498)" fill="none" stroke="#2c4349" stroke-miterlimit="10" stroke-width="0.5"/>
      <path id="Path_400" data-name="Path 400" d="M123.741,72.43a2.9,2.9,0,0,0-2.736,1.773,6.93,6.93,0,0,0-.436,2.452s0,3.658,1.418,4.894a2.908,2.908,0,0,0,2.026.7,2.867,2.867,0,0,0,2.766-1.895s1.449-3.729.253-6.454C127.085,73.9,126.6,72.4,123.741,72.43Z" transform="translate(-91.138 -42.286)" fill="none" stroke="#2c4349" stroke-miterlimit="10" stroke-width="0.5"/>
      <path id="Path_401" data-name="Path 401" d="M146.622,88.09a2.9,2.9,0,0,0-2.756,1.773,6.93,6.93,0,0,0-.436,2.452s0,3.658,1.408,4.894a2.948,2.948,0,0,0,2.026.7,2.847,2.847,0,0,0,2.756-1.895s1.449-3.729.253-6.454C149.9,89.559,149.479,88.06,146.622,88.09Z" transform="translate(-90.836 -42.08)" fill="none" stroke="#2c4349" stroke-miterlimit="10" stroke-width="0.5"/>
      <path id="Path_402" data-name="Path 402" d="M155.71,57.41A2.817,2.817,0,0,0,153,59.274a5.066,5.066,0,0,0-.263,2.786s.709,3.962,2.888,4.114c0,0,1.621.344,2.634-2.381a6.474,6.474,0,0,0-.122-4.873,2.817,2.817,0,0,0-2.432-1.51Z" transform="translate(-90.714 -42.485)" fill="none" stroke="#2c4349" stroke-miterlimit="10" stroke-width="0.5"/>
      <path id="Path_403" data-name="Path 403" d="M115.31,73.38a2.837,2.837,0,0,0-2.725,1.864,5.066,5.066,0,0,0-.263,2.786s.709,3.972,2.888,4.124c0,0,1.631.334,2.634-2.391a6.474,6.474,0,0,0-.122-4.873A2.817,2.817,0,0,0,115.31,73.38Z" transform="translate(-91.248 -42.274)" fill="none" stroke="#2c4349" stroke-miterlimit="10" stroke-width="0.5"/>
      <path id="Path_404" data-name="Path 404" d="M155.72,89A2.817,2.817,0,0,0,153,90.9a5.066,5.066,0,0,0-.263,2.786s.7,3.972,2.888,4.124c0,0,1.621.334,2.624-2.391a6.413,6.413,0,0,0-.122-4.873A2.807,2.807,0,0,0,155.72,89Z" transform="translate(-90.714 -42.068)" fill="none" stroke="#2c4349" stroke-miterlimit="10" stroke-width="0.5"/>
      <path id="Path_405" data-name="Path 405" d="M166.91,65h.881a1.683,1.683,0,0,1,.324,0,.821.821,0,0,1,.274.111.466.466,0,0,1,.182.213.679.679,0,0,1,.071.334.659.659,0,0,1-.122.405.557.557,0,0,1-.365.213l.578,1.013h-.6l-.476-.912h-.253v.912h-.5Zm.5.942h.446a.314.314,0,0,0,.132,0,.233.233,0,0,0,.1-.071.213.213,0,0,0,0-.142.2.2,0,0,0,0-.142.3.3,0,0,0-.081-.081.284.284,0,0,0-.132,0h-.466Z" transform="translate(-90.526 -42.385)" fill="#f7bfa0"/>
      <path id="Path_406" data-name="Path 406" d="M167.1,79.88h.507v1.814h.922v.466H167.1Z" transform="translate(-90.524 -42.188)" fill="#f7bfa0"/>
      <path id="Path_407" data-name="Path 407" d="M167,96.5h.679V95.82h.405V96.5h.679V96.9h-.679v.679h-.405V96.9H167Z" transform="translate(-90.525 -41.978)" fill="#f7bfa0"/>
    </g>
    <path id="Path_408" data-name="Path 408" d="M150.154,328.859v-.6a22.611,22.611,0,0,0,3.536-.3l.122.6A24.849,24.849,0,0,1,150.154,328.859Zm-3.658-.3a17.7,17.7,0,0,1-3.536-.952l.172-.547a17.82,17.82,0,0,0,3.425.9Zm10.851-.952-.182-.547a19.249,19.249,0,0,0,3.242-1.5l.294.547c-1.135.537-2.219,1.074-3.333,1.5Zm-17.751-1.56a18.035,18.035,0,0,1-3.04-2.1l.365-.486a20.264,20.264,0,0,0,2.938,2.026Zm24.043-2.1-.355-.486a25.574,25.574,0,0,0,2.513-2.513l.476.355A25.965,25.965,0,0,1,163.64,323.945Zm-29.575-2.584a19.891,19.891,0,0,1-2.1-3.04l.537-.294a23.864,23.864,0,0,0,2.026,2.938Zm34.3-3.04-.547-.294a18.89,18.89,0,0,0,1.5-3.242l.547.182a13.172,13.172,0,0,1-1.54,3.333Zm-37.954-3.232a24.978,24.978,0,0,1-.963-3.536l.6-.122a22.87,22.87,0,0,0,.9,3.414Zm40.467-3.6-.6-.122a22.49,22.49,0,0,0,.3-3.536v-.122h.6v.122a18.575,18.575,0,0,1-.345,3.637Zm-41.6-3.658h-.182a24.612,24.612,0,0,1,.294-3.6l.608.122a22.293,22.293,0,0,0-.3,3.475Zm41-3.658a21.883,21.883,0,0,0-.963-3.414l.547-.182a23.3,23.3,0,0,1,.952,3.536Zm-39.393-3.3-.537-.172a24.032,24.032,0,0,1,1.56-3.364l.537.3a21.123,21.123,0,0,0-1.6,3.212Zm36.931-3.354a33.1,33.1,0,0,0-2.026-2.938l.486-.355a21.467,21.467,0,0,1,2.1,3.04ZM134.379,294.7l-.476-.365a21.369,21.369,0,0,1,2.584-2.574l.355.476a23.527,23.527,0,0,0-2.462,2.442Zm28.846-2.634a20.881,20.881,0,0,0-2.938-2.026l.294-.537a17.618,17.618,0,0,1,3.04,2.1Zm-23.385-2.026-.3-.537a24.511,24.511,0,0,1,3.3-1.56l.182.537a22.558,22.558,0,0,0-3.181,1.641Zm17.224-1.56a17.681,17.681,0,0,0-3.414-.892l.122-.608a18.847,18.847,0,0,1,3.536.963Zm-10.547-.892-.122-.608a18.97,18.97,0,0,1,3.658-.294v.6a22.5,22.5,0,0,0-3.556.385Z" transform="translate(-26.811 3.073)" fill="#f7bfa0" stroke="#f7bfa0" stroke-miterlimit="10" stroke-width="1"/>
    <path id="Path_409" data-name="Path 409" d="M148.268,433.65H143.81v-.74h4.458Zm-8.916,0h-4.458v-.74h4.458Zm-8.906,0h-4.458v-.74h4.418Zm-8.916,0h-4.448v-.74h4.448Zm-8.906,0h-4.458v-.74h4.458Zm-8.906,0H99.26v-.74h4.458Z" transform="translate(-27.204 5.003)" fill="#f7bfa0" stroke="#f7bfa0" stroke-miterlimit="10" stroke-width="1"/>
    <path id="Path_410" data-name="Path 410" d="M148.268,449.85H143.81v-.75h4.458Zm-8.916,0h-4.458v-.75h4.458Zm-8.906,0h-4.458v-.75h4.418Zm-8.916,0h-4.448v-.75h4.448Zm-8.906,0h-4.458v-.75h4.458Zm-8.906,0H99.26v-.75h4.458Z" transform="translate(-27.204 5.216)" fill="#f7bfa0" stroke="#f7bfa0" stroke-miterlimit="10" stroke-width="1"/>
    <g id="Group_11594" data-name="Group 11594" transform="translate(0 432.612)">
      <path id="Path_411" data-name="Path 411" d="M39.984,645.5h-.74c0-1.013.071-2.442.071-4.225.294-8.916.811-25.472-3.273-40.528-4.448-16.333-9.352-37.569-7.5-56.941a114.794,114.794,0,0,1,2.969-17.67A46.84,46.84,0,0,0,33.3,512.847c0-12.027,2.381-26.211,3.789-34.753l.152-.892c1.256-7.639,3.192-12.027,4.154-12.472l.375.669c-.3.223-2.31,3.192-3.789,11.956l-.152.892c-1.408,8.44-3.749,22.625-3.749,34.58a48.512,48.512,0,0,1-1.783,13.516,103.282,103.282,0,0,0-2.969,17.518c-1.864,19.251,3.04,40.4,7.5,56.648,4.154,15.2,3.556,31.784,3.333,40.771A41.373,41.373,0,0,0,39.984,645.5Z" transform="translate(-28.143 -427.19)" fill="#f7bfa0" stroke="#f7bfa0" stroke-miterlimit="10" stroke-width="0.75"/>
      <path id="Path_412" data-name="Path 412" d="M50.688,531.408c-.517,0-1.013-.669-1.185-1.783-.294-1.489-.152-7.275-.071-13.445.071-2.888.071-5.937.071-8.389,0-4.671.821-17.447,1.337-26.8.294-5.2.6-9.281.6-10.4.071-4.164-.821-5.2-1.013-5.2v-.74a.871.871,0,0,1,.669.365c.446.446,1.185,1.783,1.114,5.643a13.487,13.487,0,0,1-.071,1.489v-.3c.365-4.752.74-8.531,1.013-11.581.446-5.066.74-8.237.892-11.145.223-4.752,1.013-7.2,2.675-8.166l.375.669c-1.418.811-2.087,3.192-2.31,7.569-.142,2.9-.446,6.018-.892,11.145-.294,3.04-.588,6.748-1.013,11.581a210.9,210.9,0,0,0-.152,26.434c.081,2.442.152,4.529.152,5.937,0,3.637-.223,9.5-.446,14.62-.071,2.6-.223,5.127-.294,7.2-.081,5.2-1.013,5.279-1.418,5.279ZM51.7,477.871c-.071,1.013-.152,2.077-.223,3.192-.6,9.352-1.337,22.057-1.337,26.728,0,2.452-.071,5.421-.071,8.389-.081,5.866-.152,11.885.071,13.293.152.821.375,1.185.517,1.185s.6-.446.75-4.529c.071-2.026.142-4.529.294-7.2.223-5.2.446-10.983.446-14.62,0-1.408-.071-3.5-.152-5.937-.263-5.35-.486-12.928-.263-20.5Z" transform="translate(-27.863 -427.504)" fill="#f7bfa0" stroke="#f7bfa0" stroke-miterlimit="10" stroke-width="0.75"/>
      <path id="Path_413" data-name="Path 413" d="M71.108,439.5c.071-1.266.142-2.158.142-3.04,0-3.414.892-6.231,2.229-6.829L73.185,429c-2.026.892-2.675,4.6-2.675,7.5,0,.892-.071,1.783-.152,3.04-.142,3.485-.517,9.868-.588,27.356v4.053c-.3-5.279-.223-9.656-.081-13.962.081-2.675.152-5.492.152-8.541-.071-4.306-.74-7.092-2.026-8.237a1.915,1.915,0,0,0-1.125-.547.74.74,0,0,1,.071.294v.476a1.013,1.013,0,0,1,.608.294c.669.6,1.7,2.3,1.783,7.721,0,3.04-.081,5.866-.152,8.541-.152,4.306-.223,8.683.071,14.033.446,7.872.6,15.887.446,26.809-.071,7.639.3,15.735.446,19.6.081,1.115.081,1.854.081,2.158A2.026,2.026,0,0,0,71.6,521.5c.446,0,1.1-.294,1.185-1.925.365-2.381-.081-10.912-.375-17.822,0-1.489-.071-2.9-.142-4.053a51.957,51.957,0,0,0-.527-5.35c-.517-3.779-1.256-8.906-1.185-25.543C70.51,449.365,70.885,442.911,71.108,439.5Zm-.051,53.01a52.576,52.576,0,0,1,.527,5.269c0,1.267.071,2.6.142,4.053.375,6.839.75,15.37.446,17.67-.142,1.013-.365,1.266-.588,1.266a1.51,1.51,0,0,1-.821-1.185c0-.3,0-1.013-.071-2.229-.223-3.86-.6-11.885-.446-19.524.071-4.306.071-8.176.071-11.733a59.915,59.915,0,0,0,.74,6.413Z" transform="translate(-27.634 -427.661)" fill="#f7bfa0" stroke="#f7bfa0" stroke-miterlimit="10" stroke-width="0.75"/>
      <path id="Path_414" data-name="Path 414" d="M93.969,520.519A1.672,1.672,0,0,1,92.7,519.7c-.446-.74-.821-3.485-.892-6.9-.223-7.356-.446-17.012-.517-27.924a209.437,209.437,0,0,0-2.381-25.462l-.223-1.641c-.517-3.485-1.013-10.243-1.479-16.11-.152-1.854-.3-3.566-.375-5.066-.517-6.241-2.229-8.166-2.675-8.166h0l-.071-.75c1.337-.071,2.969,2.979,3.485,8.845.152,1.479.3,3.192.375,5.066.446,5.643,1.013,12.624,1.489,16.11l.223,1.631c.365,2.381.811,5.725,1.256,9.585,0-.446-.071-.821-.071-1.267-.517-11.064-.517-15.441-.446-18.339,0-1.56,0-2.675-.071-4.053-.223-4.458.294-6.981,1.631-7.65l.365.669c-.74.375-1.55,1.935-1.256,6.981.071,1.479.071,2.594.071,4.154,0,2.9-.071,7.275.446,18.237.6,12.027,1.631,21.753,2.381,28.238.294,2.523.517,4.448.588,5.866.375,4.975.892,13.729.75,16.556-.081,1.408-.446,2.148-1.013,2.3A.587.587,0,0,0,93.969,520.519Zm-1.935-36.161v.517c.152,10.993.375,20.639.517,27.924a21.723,21.723,0,0,0,.821,6.525c.152.223.446.527.669.446s.446-.142.517-1.631c.152-2.817-.365-11.51-.74-16.485-.071-1.337-.294-3.333-.6-5.785-.365-3.121-.74-6.981-1.185-11.51Z" transform="translate(-27.405 -427.679)" fill="#f7bfa0" stroke="#f7bfa0" stroke-miterlimit="10" stroke-width="0.75"/>
      <path id="Path_415" data-name="Path 415" d="M125.715,571.318c-.446-4.9-2.746-22.574-4.377-28.957-1.631-6.535-6.018-30.143-6.687-36.09-.446-3.931-.892-8.906-1.337-14.185-.223-2.9-.446-5.8-.74-8.693-.375-3.779-1.408-9.281-2.594-15.147-1.266-6.535-2.6-13.283-2.979-18.035-.669-9.119-3.485-11.591-3.931-11.591v-.74c1.266,0,4.053,3.708,4.6,12.331a172.77,172.77,0,0,0,2.969,17.964c1.115,5.866,2.229,11.358,2.6,15.2.294,2.9.517,5.8.74,8.693.446,5.269.821,10.243,1.337,14.185.74,5.947,5.066,29.555,6.687,36.019s4,24.124,4.448,29.1Z" transform="translate(-27.154 -427.544)" fill="#f7bfa0" stroke="#f7bfa0" stroke-miterlimit="10" stroke-width="0.75"/>
      <path id="Path_416" data-name="Path 416" d="M109.015,644.766h-.75V642.1a136.635,136.635,0,0,0-.223-13.739c-.517-4.975.081-6.241,4.833-13.516,1.013-1.56,2.026-2.969,2.888-4.377a89.271,89.271,0,0,0,10.7-19.9c2.969-7.356,4.894-9.585,6.535-11.358a14.589,14.589,0,0,0,3.262-5.421c1.489-4.053,1.185-5.725.74-8.764a55.724,55.724,0,0,1-.74-9.119c0-3.637-.152-6.383-.294-8.531-.223-4.529-.375-6.981.669-11.439,1.479-6.16,1.479-8.683,1.408-10.76V524.8a16.393,16.393,0,0,1,.6-4.154l.74.223a14.429,14.429,0,0,0-.6,3.931v.375A40.939,40.939,0,0,1,137.3,536.1c-1.011,4.3-.889,6.75-.666,11.2.142,2.229.223,4.9.294,8.541a62.519,62.519,0,0,0,.74,8.987,15.005,15.005,0,0,1-.811,9.119,14.184,14.184,0,0,1-3.414,5.643c-1.56,1.712-3.5,3.941-6.393,11.145a87.651,87.651,0,0,1-10.76,20.051c-1.013,1.408-1.935,2.827-2.9,4.377-4.6,7.092-5.127,8.318-4.681,13.07.375,3.789.3,9.879.223,13.81C109.015,643.206,109.015,644.179,109.015,644.766Z" transform="translate(-27.091 -426.452)" fill="#f7bfa0" stroke="#f7bfa0" stroke-miterlimit="10" stroke-width="0.75"/>
      <path id="Path_417" data-name="Path 417" d="M141.528,505a8.936,8.936,0,0,0-6.444.719c-4.671,2.148-11.358,8.014-12.918,12.472a29.25,29.25,0,0,1-1.479,3.415c-1.185,2.523-2.3,4.9-1.935,8.612l.892-.071c-.365-3.485.669-5.714,1.854-8.237a25.333,25.333,0,0,0,1.489-3.5c1.489-4.154,8.014-10.021,12.472-12.027a8.106,8.106,0,0,1,5.907-.719.315.315,0,0,0,.051-.1A.811.811,0,0,1,141.528,505Z" transform="translate(-26.948 -426.663)" fill="#f7bfa0" stroke="#f7bfa0" stroke-miterlimit="10" stroke-width="0.75"/>
    </g>
    <path id="Path_418" data-name="Path 418" d="M61.953,450.834h-.375c-3.04-.142-5.269-2.523-5.269-4.448v-6.241a6.262,6.262,0,0,1,1.773-4.458,4.508,4.508,0,0,1,3.5-1.256,5.714,5.714,0,0,1,5.643,6.008c0,2.077,0,4.164-.071,5.279a6.221,6.221,0,0,1-1.013,2.969A4.884,4.884,0,0,1,61.953,450.834Zm-.375-.74a4.276,4.276,0,0,0,3.86-1.712,6.191,6.191,0,0,0,1.013-2.594c.081-1.115.152-3.192.081-5.269a5.066,5.066,0,0,0-4.975-5.279,3.81,3.81,0,0,0-2.979,1.013,5.319,5.319,0,0,0-1.57,3.891v6.241c-.071,1.55,1.925,3.556,4.529,3.708Z" transform="translate(-27.771 5.022)" fill="#2c4349" stroke="#2c4349" stroke-miterlimit="10" stroke-width="0.5"/>
    <path id="Path_419" data-name="Path 419" d="M206.6,379.3H66.639A14.57,14.57,0,0,1,52.09,364.752V249.379A14.56,14.56,0,0,1,66.639,234.83H206.6a14.56,14.56,0,0,1,14.6,14.549V364.752a14.57,14.57,0,0,1-14.6,14.55ZM66.639,236.117a13.273,13.273,0,0,0-13.263,13.263V364.752A13.273,13.273,0,0,0,66.639,378H206.6a13.273,13.273,0,0,0,13.253-13.253V249.379A13.273,13.273,0,0,0,206.6,236.117Z" transform="translate(-27.827 2.389)" fill="#f7bfa0"/>
    <path id="Path_420" data-name="Path 420" d="M219.2,290.866l-1.966-.071c-10.72-.689-13.009-10.77-13.04-10.872-1.662-10.973,13.253-26.84,13.891-27.508l1.115-1.175Zm-1.3-36.323c-3.465,3.962-13.739,16.515-12.432,25.147.071.334,2.118,9.19,11.834,9.808h.6Z" transform="translate(-25.822 2.606)" fill="#f7bfa0"/>
    <path id="Path_421" data-name="Path 421" d="M217.475,327.94a14.7,14.7,0,0,1-13.323-10.426c-1.672-11,13.242-26.86,13.881-27.529l1.115-1.185v39.089Zm.375-35.827c-3.465,3.951-13.739,16.5-12.432,25.147a13.172,13.172,0,0,0,12.077,9.382h.355Z" transform="translate(-25.822 3.101)" fill="#f7bfa0"/>
    <path id="Path_422" data-name="Path 422" d="M217.637,366.519c-11.966,0-13.486-11.145-13.5-11.226-1.662-10.922,13.253-26.779,13.891-27.447l1.115-1.185v37.488l-.253,2.33h-.557Zm.213-36.546c-3.465,3.951-13.739,16.5-12.432,25.147a11.743,11.743,0,0,0,12.219,10.132h.091l.132-1.145Z" transform="translate(-25.822 3.601)" fill="#f7bfa0"/>
    <path id="Path_423" data-name="Path 423" d="M81.429,279.485c-1.651,0-7.092-.405-9.119-5.471a55.786,55.786,0,0,1-3.04-13.4c-.537-9.392,6.586-11.378,6.657-11.4a13.669,13.669,0,0,1,4.792-.821H82a12.442,12.442,0,0,1,4.924.831s6.971,2.27,6.616,11.327a105.452,105.452,0,0,1-1.378,10.517c0,.061-1.52,8.409-10.254,8.409C81.925,279.475,82.047,279.485,81.429,279.485Zm-.689-29.8a12.9,12.9,0,0,0-4.4.76c-.314.081-6.231,1.783-5.765,10.071a56.861,56.861,0,0,0,3.04,13.03c2.026,5.066,8.237,4.64,8.3,4.63h0a8.947,8.947,0,0,0,9.038-7.346A100.893,100.893,0,0,0,92.3,260.478c.324-8.014-5.5-9.96-5.755-10.031a10.871,10.871,0,0,0-4.519-.76H80.74Z" transform="translate(-27.6 2.568)" fill="#2c4349"/>
    <path id="Path_424" data-name="Path 424" d="M177.369,320.405c-1.662,0-7.092-.4-9.119-5.461a56.738,56.738,0,0,1-3.04-13.415c-.527-9.392,6.586-11.378,6.657-11.4a13.963,13.963,0,0,1,4.8-.821h1.266a12.27,12.27,0,0,1,4.934.821s6.971,2.27,6.606,11.328a102.231,102.231,0,0,1-1.378,10.517c0,.071-1.51,8.41-10.243,8.41C177.855,320.405,177.977,320.405,177.369,320.405Zm-.689-29.8a12.909,12.909,0,0,0-4.407.76c-.314.081-6.231,1.783-5.755,10.071a56.038,56.038,0,0,0,2.989,13.03c2.026,5.066,8.045,4.651,8.3,4.63h0a8.947,8.947,0,0,0,9.038-7.346A104.15,104.15,0,0,0,188.2,301.4c.314-8.055-5.694-10.01-5.755-10.031a10.943,10.943,0,0,0-4.529-.76Z" transform="translate(-26.335 3.108)" fill="#2c4349"/>
    <path id="Path_425" data-name="Path 425" d="M81.549,360.405c-1.662,0-7.092-.405-9.119-5.461a56.181,56.181,0,0,1-3.04-13.415c-.527-9.392,6.586-11.378,6.657-11.4a13.922,13.922,0,0,1,4.8-.821h1.317a12.219,12.219,0,0,1,4.924.821s6.971,2.27,6.616,11.327A105.456,105.456,0,0,1,92.3,352.016c0,.071-1.51,8.409-10.243,8.409h-.5Zm-.689-29.8a12.909,12.909,0,0,0-4.407.76c-.314.081-6.231,1.783-5.765,10.071a56.637,56.637,0,0,0,3.04,13.03c2.026,5.117,8.237,4.64,8.3,4.63h0a8.926,8.926,0,0,0,9.028-7.346A100.891,100.891,0,0,0,92.41,341.4c.324-8.055-5.684-10.01-5.745-10.031a11.145,11.145,0,0,0-4.529-.76Z" transform="translate(-27.599 3.635)" fill="#2c4349"/>
    <path id="Path_426" data-name="Path 426" d="M108.938,279.408c-5.329,0-6.88-3.87-6.94-4.053-2.553-5.664-2.118-13.283-2.1-13.607,0-2.979,2.624-4.965,2.736-5.066,3.252-2.5,5.066-2.492,6.626-2.472,1.945.061,2.857.182,5.856,2.482a7.741,7.741,0,0,1,2.725,5.066c0,.5.648,8.106-2.128,13.668a7.285,7.285,0,0,1-6.778,3.982Zm0-23.881c-1.429,0-2.9.172-5.562,2.219a5.735,5.735,0,0,0-2.229,4.053c0,.111-.426,7.67,2.026,13.07.061.162,1.327,3.252,5.613,3.252a6.079,6.079,0,0,0,5.735-3.242c2.655-5.309,2.026-12.949,2.026-13.02h0a6.485,6.485,0,0,0-2.239-4.053c-2.766-2.128-3.445-2.158-4.924-2.2Z" transform="translate(-27.196 2.645)" fill="#2c4349"/>
    <path id="Path_427" data-name="Path 427" d="M108.938,360.138c-5.329,0-6.88-3.87-6.94-4.053-2.553-5.664-2.118-13.283-2.1-13.607,0-2.979,2.624-4.965,2.736-5.066,3.262-2.5,5.066-2.5,6.626-2.472,1.945.061,2.857.182,5.856,2.482a7.741,7.741,0,0,1,2.725,5.066c0,.5.648,8.106-2.128,13.668a7.285,7.285,0,0,1-6.778,3.982Zm0-23.871c-1.429,0-2.9.162-5.562,2.209a5.735,5.735,0,0,0-2.229,4.053c0,.111-.426,7.67,2.026,13.07.061.162,1.327,3.252,5.613,3.252a6.079,6.079,0,0,0,5.735-3.242c2.655-5.309,2.026-12.949,2.026-13.02h0a6.485,6.485,0,0,0-2.239-4.053c-2.766-2.128-3.445-2.148-4.934-2.2Z" transform="translate(-27.196 3.71)" fill="#2c4349"/>
    <path id="Path_428" data-name="Path 428" d="M149.978,320.328c-5.329,0-6.869-3.87-6.94-4.053-2.553-5.664-2.118-13.283-2.1-13.607,0-2.979,2.624-4.965,2.736-5.066,3.262-2.5,5.066-2.492,6.626-2.472,1.945.061,2.867.182,5.856,2.482a7.69,7.69,0,0,1,2.725,5.066c0,.5.648,8.106-2.128,13.668a7.275,7.275,0,0,1-6.778,3.982Zm0-23.871c-1.418,0-2.9.162-5.562,2.209a5.735,5.735,0,0,0-2.229,4.053c0,.111-.426,7.67,2.026,13.07a5.765,5.765,0,0,0,5.613,3.252,6.079,6.079,0,0,0,5.745-3.242c2.655-5.309,2.026-12.949,2.026-13.02h0a6.474,6.474,0,0,0-2.249-4.053c-2.766-2.128-3.445-2.148-4.934-2.2Z" transform="translate(-26.655 3.185)" fill="#2c4349"/>
    <path id="Path_429" data-name="Path 429" d="M134,279.436h-.182a8.663,8.663,0,0,1-7.974-5.309c-.081-.142-2.381-4.833-2.026-13.172a8.166,8.166,0,0,1,7.964-7.964,17.589,17.589,0,0,1,7.275.79c.132,0,4.418,1.368,4.539,8.734,0,.415.182,10.132-4.154,14.945C139.414,277.5,138.015,279.436,134,279.436Zm-.466-25.137c-1.013,0-1.641.071-1.662.071-6.677.517-6.778,6.383-6.778,6.636-.314,7.954,1.895,12.493,1.915,12.533a7.305,7.305,0,0,0,6.839,4.529h0c3.465.081,4.559-1.459,4.569-1.469,4.053-4.448,3.85-13.931,3.84-14.033-.1-6.3-3.5-7.417-3.637-7.457a14.782,14.782,0,0,0-5.086-.811Z" transform="translate(-26.881 2.628)" fill="#2c4349"/>
    <path id="Path_430" data-name="Path 430" d="M125.273,320.346a1.09,1.09,0,0,1-.182,0,8.653,8.653,0,0,1-7.974-5.309c-.081-.142-2.381-4.833-2.026-13.172a8.166,8.166,0,0,1,7.964-7.964,17.589,17.589,0,0,1,7.275.79c.132,0,4.418,1.368,4.539,8.744,0,.405.182,10.132-4.154,14.934C130.684,318.37,129.285,320.346,125.273,320.346Zm-.466-25.137c-1.013,0-1.641.071-1.662.071-6.677.517-6.778,6.383-6.778,6.636-.324,7.954,1.895,12.493,1.915,12.533a7.285,7.285,0,0,0,6.839,4.529h.142c3.313,0,4.438-1.449,4.448-1.469,4.053-4.448,3.84-13.931,3.84-14.033-.1-6.292-3.5-7.417-3.637-7.457a14.822,14.822,0,0,0-5.106-.851Z" transform="translate(-26.996 3.167)" fill="#2c4349"/>
    <path id="Path_431" data-name="Path 431" d="M134.133,360.255h-.172a8.683,8.683,0,0,1-7.974-5.309c-.081-.152-2.381-4.833-2.026-13.171a8.176,8.176,0,0,1,7.964-7.964,17.873,17.873,0,0,1,7.275.8c.132,0,4.418,1.368,4.539,8.734,0,.405.182,10.132-4.154,14.945C139.564,358.32,138.186,360.255,134.133,360.255Zm-.466-25.147a13.066,13.066,0,0,0-1.652.081c-6.677.507-6.778,6.383-6.778,6.626-.324,7.954,1.895,12.493,1.915,12.543a7.305,7.305,0,0,0,6.839,4.529h.142c3.313,0,4.438-1.459,4.448-1.479,4.053-4.448,3.84-13.931,3.84-14.023-.1-6.3-3.5-7.427-3.637-7.467a14.833,14.833,0,0,0-5.106-.811Z" transform="translate(-26.879 3.694)" fill="#2c4349"/>
    <path id="Path_432" data-name="Path 432" d="M158.686,279.434h-.193a8.035,8.035,0,0,1-5.664-2.026c-3.759-3.262-3.789-12.543-3.789-12.938a18.319,18.319,0,0,1,1.165-6.525,8.156,8.156,0,0,1,7.66-4.934h.253c7.488,0,8.734,4.053,8.784,4.215,3.1,7.092-.517,16.525-.669,16.92a7.974,7.974,0,0,1-7.548,5.289Zm-.142-1.3A6.616,6.616,0,0,0,165,273.71c0-.091,3.566-9.382.659-16.008-.071-.213-1.216-3.455-7.791-3.364h-.051a6.707,6.707,0,0,0-6.414,4.134,17.315,17.315,0,0,0-1.064,6c0,.122,0,9.119,3.394,12.037a6.819,6.819,0,0,0,4.813,1.631Z" transform="translate(-26.548 2.629)" fill="#2c4349"/>
    <path id="Path_433" data-name="Path 433" d="M100.265,320.483h-.142a7.984,7.984,0,0,1-5.664-2.026c-3.759-3.262-3.789-12.543-3.789-12.938a18.319,18.319,0,0,1,1.114-6.454,8.106,8.106,0,0,1,7.66-4.934c7.639,0,8.957,4.053,9.007,4.215,3.04,7.092-.517,16.525-.669,16.92a7.974,7.974,0,0,1-7.518,5.218Zm-.142-1.3a6.606,6.606,0,0,0,6.454-4.428c0-.091,3.566-9.382.659-16.008-.071-.213-1.135-3.364-7.569-3.364h-.274a6.728,6.728,0,0,0-6.363,4.134,17.052,17.052,0,0,0-1.013,6c0,.122,0,9.119,3.394,12.037a6.819,6.819,0,0,0,4.813,1.631Z" transform="translate(-27.318 3.171)" fill="#2c4349"/>
    <path id="Path_434" data-name="Path 434" d="M158.725,360.5h-.182a8,8,0,0,1-5.664-2.026c-3.759-3.262-3.789-12.553-3.789-12.949a18.035,18.035,0,0,1,1.155-6.515,8.106,8.106,0,0,1,7.66-4.934c7.71-.142,8.957,4.053,9.007,4.215,3.1,7.092-.507,16.515-.669,16.92a7.994,7.994,0,0,1-7.518,5.289ZM157.712,335.4a6.717,6.717,0,0,0-6.231,4.144,17.315,17.315,0,0,0-1.013,6c0,.122,0,9.119,3.394,12.027a6.758,6.758,0,0,0,4.823,1.641,6.626,6.626,0,0,0,6.444-4.428c0-.1,3.566-9.382.659-16.019-.071-.213-1.165-3.435-7.791-3.364h-.233Z" transform="translate(-26.547 3.698)" fill="#2c4349"/>
    <path id="Path_435" data-name="Path 435" d="M181.334,279.439a2.928,2.928,0,0,1-.608-.051c-5.927-.4-7.812-10.608-7.883-11.044a13.283,13.283,0,0,1,.729-7.508,7.954,7.954,0,0,1,7.538-5.137,7.771,7.771,0,0,1,6.707,4.225c3.04,6.18.436,12.705.324,12.989C186,278.791,182.691,279.439,181.334,279.439Zm-.537-22.422c-.952,0-4.255.314-6.079,4.4a12.341,12.341,0,0,0-.628,6.748c0,.1,1.773,9.646,6.778,9.98.253.051,3.749.628,6.079-5.664,0-.091,2.543-6.292-.274-11.935a6.5,6.5,0,0,0-5.562-3.526h-.324Z" transform="translate(-26.237 2.664)" fill="#2c4349"/>
    <path id="Path_436" data-name="Path 436" d="M78.114,320.308a4.237,4.237,0,0,1-.608,0c-5.917-.4-7.8-10.608-7.883-11.044a13.465,13.465,0,0,1,.73-7.508,7.964,7.964,0,0,1,7.579-5.137,7.8,7.8,0,0,1,6.707,4.225c3.04,6.181.436,12.706.324,12.979C82.774,319.609,79.461,320.308,78.114,320.308Zm-.527-22.463c-.963,0-4.255.314-6.079,4.4a12.412,12.412,0,0,0-.628,6.738c0,.1,1.783,9.656,6.788,9.99.233.051,3.749.638,6.079-5.664,0-.091,2.533-6.292-.284-11.935a6.474,6.474,0,0,0-5.562-3.506h-.324Z" transform="translate(-27.599 3.204)" fill="#2c4349"/>
    <path id="Path_437" data-name="Path 437" d="M181.344,360.309a2.888,2.888,0,0,1-.6-.051c-5.927-.385-7.812-10.6-7.883-11.034a13.415,13.415,0,0,1,.719-7.508,7.974,7.974,0,0,1,7.579-5.147,7.791,7.791,0,0,1,6.707,4.235c3.09,6.181.436,12.706.324,12.979C186.025,359.63,182.711,360.309,181.344,360.309Zm-.527-22.452c-1.013,0-4.255.314-6.079,4.387a12.239,12.239,0,0,0-.628,6.748c0,.1,1.773,9.656,6.778,9.99.233,0,3.749.628,6.079-5.674,0-.081,2.543-6.292-.284-11.935a6.454,6.454,0,0,0-5.562-3.506H180.8Z" transform="translate(-26.236 3.731)" fill="#2c4349"/>
    <path id="Path_438" data-name="Path 438" d="M209.72,275.64h2.249a3.748,3.748,0,0,1,.841.091,1.956,1.956,0,0,1,.7.284,1.438,1.438,0,0,1,.476.537,1.955,1.955,0,0,1,.172.851,1.7,1.7,0,0,1-.314,1.013,1.479,1.479,0,0,1-.942.547l1.479,2.452h-1.53l-1.216-2.32h-.618v2.32H209.73Zm1.3,2.391h1.115a1.3,1.3,0,0,0,.355-.071.679.679,0,0,0,.253-.193.588.588,0,0,0,.1-.375.578.578,0,0,0-.091-.344.537.537,0,0,0-.223-.2,1.105,1.105,0,0,0-.324-.1h-1.185Z" transform="translate(-25.747 2.927)" fill="#f7bfa0"/>
    <path id="Path_439" data-name="Path 439" d="M210.22,313.78H211.5v4.62h2.371v1.185H210.22Z" transform="translate(-25.74 3.431)" fill="#f7bfa0"/>
    <path id="Path_440" data-name="Path 440" d="M210.07,356.232h1.722V354.51h1.013v1.722h1.733v1.013h-1.733v1.733h-1.013v-1.733H210.07Z" transform="translate(-25.742 3.968)" fill="#f7bfa0"/>
    <g id="Group_11595" data-name="Group 11595" transform="translate(204.895 273.724)">
      <path id="Path_441" data-name="Path 441" d="M230.37,271h1.652a3.463,3.463,0,0,1,.659.061,1.894,1.894,0,0,1,.567.223,1.2,1.2,0,0,1,.4.415,1.51,1.51,0,0,1-.142,1.52,1.2,1.2,0,0,1-.811.426l1.256,2.087h-1.013l-1.094-2.026h-.618v2.026h-.841Zm1.5,2.026h.355a.9.9,0,0,0,.334-.081.507.507,0,0,0,.243-.193.608.608,0,0,0,.091-.365.588.588,0,0,0-.081-.334.527.527,0,0,0-.233-.182,1.013,1.013,0,0,0-.3-.091h-1.064v1.246Z" transform="translate(-230.37 -270.858)" fill="#2c4349"/>
      <path id="Path_442" data-name="Path 442" d="M235.82,271h.851v4.732h-.851Z" transform="translate(-230.298 -270.858)" fill="#2c4349"/>
      <path id="Path_443" data-name="Path 443" d="M243.208,275.359a4.053,4.053,0,0,1-1.966.466,2.674,2.674,0,0,1-1.013-.182,2.28,2.28,0,0,1-.79-.5,2.188,2.188,0,0,1-.517-.78,2.675,2.675,0,0,1-.182-1.013,2.766,2.766,0,0,1,.182-1.013,2.178,2.178,0,0,1,1.307-1.3,2.676,2.676,0,0,1,1.013-.182,3.727,3.727,0,0,1,1.013.132,2.087,2.087,0,0,1,.841.466l-.618.628a1.519,1.519,0,0,0-.547-.344,2.026,2.026,0,0,0-.689-.122,1.782,1.782,0,0,0-.669.132,1.662,1.662,0,0,0-.507.365,1.712,1.712,0,0,0-.334.537,2.027,2.027,0,0,0-.111.659,2.31,2.31,0,0,0,.112.71,1.652,1.652,0,0,0,.334.547,1.54,1.54,0,0,0,.507.375,1.784,1.784,0,0,0,.669.132,2.95,2.95,0,0,0,.608-.061,1.54,1.54,0,0,0,.5-.192v-1.115h-.963v-.76H243.2Z" transform="translate(-230.26 -270.86)" fill="#2c4349"/>
      <path id="Path_444" data-name="Path 444" d="M245.45,271h.841v1.885H248.5V271h.841v4.732H248.5v-2.087h-2.209v2.087h-.841Z" transform="translate(-230.171 -270.858)" fill="#2c4349"/>
      <path id="Path_445" data-name="Path 445" d="M252.629,271.729H251.18V271h3.739v.76H253.47v3.972h-.841Z" transform="translate(-230.095 -270.858)" fill="#2c4349"/>
      <path id="Path_446" data-name="Path 446" d="M260,271h.841v1.885h2.2V271h.841v4.732h-.841v-2.087h-2.209v2.087H260Z" transform="translate(-229.979 -270.858)" fill="#2c4349"/>
      <path id="Path_447" data-name="Path 447" d="M267.777,271h.729l2.026,4.732H269.52l-.446-1.084h-2.026l-.436,1.084h-.942Zm1.064,2.928L268.112,272l-.74,1.925Z" transform="translate(-229.904 -270.858)" fill="#2c4349"/>
      <path id="Path_448" data-name="Path 448" d="M272.32,271h1.115l2.29,3.516h0V271h.841v4.732h-1.013l-2.34-3.627h0v3.627h-.841Z" transform="translate(-229.817 -270.858)" fill="#2c4349"/>
      <path id="Path_449" data-name="Path 449" d="M278.89,271h1.864a3.041,3.041,0,0,1,.9.142,2.361,2.361,0,0,1,.76.436,2.209,2.209,0,0,1,.537.74,2.6,2.6,0,0,1,.2,1.013,2.239,2.239,0,0,1-.233,1.013,2.138,2.138,0,0,1-.588.74,2.726,2.726,0,0,1-.811.436,3.039,3.039,0,0,1-.871.142H278.89Zm1.469,3.972a2.9,2.9,0,0,0,.74-.091,1.814,1.814,0,0,0,.618-.284,1.307,1.307,0,0,0,.405-.5,1.611,1.611,0,0,0,.152-.729,1.794,1.794,0,0,0-.132-.74,1.246,1.246,0,0,0-.375-.5,1.45,1.45,0,0,0-.557-.284,2.683,2.683,0,0,0-.719-.091h-.76v3.212Z" transform="translate(-229.73 -270.858)" fill="#2c4349"/>
    </g>
    <g id="Group_11596" data-name="Group 11596" transform="translate(204.895 310.706)">
      <path id="Path_450" data-name="Path 450" d="M230.37,307.36h.841v3.962h2.026v.74H230.38Z" transform="translate(-230.37 -307.36)" fill="#2c4349"/>
      <path id="Path_451" data-name="Path 451" d="M235.11,307.36h3.141v.76h-2.3v1.165h2.178v.75h-2.178v1.277h2.411v.75H235.11Z" transform="translate(-230.307 -307.36)" fill="#2c4349"/>
      <path id="Path_452" data-name="Path 452" d="M240.46,307.36h3.04v.76h-2.219v1.236h2.087v.77h-2.087v1.935h-.841Z" transform="translate(-230.237 -307.36)" fill="#2c4349"/>
      <path id="Path_453" data-name="Path 453" d="M246.539,308.12H245.09v-.76h3.739v.76H247.38v3.941h-.841Z" transform="translate(-230.176 -307.36)" fill="#2c4349"/>
      <path id="Path_454" data-name="Path 454" d="M253.94,307.36h.841v1.885h2.259V307.36h.841v4.7h-.841v-2.026h-2.219v2.026h-.841Z" transform="translate(-230.059 -307.36)" fill="#2c4349"/>
      <path id="Path_455" data-name="Path 455" d="M261.687,307.36h.729l2.026,4.732h-.963l-.436-1.044h-2.026l-.426,1.084h-.942Zm1.013,2.918-.719-1.925-.75,1.925Z" transform="translate(-229.984 -307.36)" fill="#2c4349"/>
      <path id="Path_456" data-name="Path 456" d="M266.23,307.36h1.115l2.29,3.506h0V307.36h.841v4.7H269.4l-2.34-3.637h0v3.637h-.841Z" transform="translate(-229.897 -307.36)" fill="#2c4349"/>
      <path id="Path_457" data-name="Path 457" d="M272.8,307.36h1.864a2.7,2.7,0,0,1,.9.142,2.118,2.118,0,0,1,1.307,1.175,2.522,2.522,0,0,1,.193,1.013,2.28,2.28,0,0,1-.223,1.013,2.362,2.362,0,0,1-.6.73,2.331,2.331,0,0,1-.811.436,2.674,2.674,0,0,1-.871.152H272.8Zm1.469,3.962a2.9,2.9,0,0,0,.74-.091,1.824,1.824,0,0,0,.618-.274,1.388,1.388,0,0,0,.405-.5,1.631,1.631,0,0,0,.152-.74,1.774,1.774,0,0,0-.142-.7,1.277,1.277,0,0,0-.375-.507,1.591,1.591,0,0,0-.557-.274,2.614,2.614,0,0,0-.709-.091h-.77v3.2Z" transform="translate(-229.81 -307.36)" fill="#2c4349"/>
    </g>
    <g id="Group_11597" data-name="Group 11597" transform="translate(204.895 348.589)">
      <path id="Path_458" data-name="Path 458" d="M230.37,344.75H233.5v.77h-2.29v1.155h2.168v.76h-2.168v1.287h2.411v.76H230.37Z" transform="translate(-230.37 -344.75)" fill="#2c4349"/>
      <path id="Path_459" data-name="Path 459" d="M236.882,347.029,235.3,344.77h1.013l1.115,1.753,1.1-1.753h1.013l-1.51,2.259,1.722,2.472h-1.074l-1.246-2.026-1.246,2.026H235.18Z" transform="translate(-230.307 -344.75)" fill="#2c4349"/>
      <path id="Path_460" data-name="Path 460" d="M242.529,345.52H241.08v-.77h3.739v.77H243.37v3.962h-.841Z" transform="translate(-230.229 -344.75)" fill="#2c4349"/>
      <path id="Path_461" data-name="Path 461" d="M246.66,344.75H248.3a2.8,2.8,0,0,1,.659.071,1.652,1.652,0,0,1,.567.213,1.2,1.2,0,0,1,.4.415,1.51,1.51,0,0,1-.142,1.52,1.2,1.2,0,0,1-.811.426l1.256,2.087h-1.013l-1.094-2.026H247.5v2.026h-.841Zm1.5,2.026h.355a1.611,1.611,0,0,0,.334-.081.659.659,0,0,0,.243-.193.649.649,0,0,0,.091-.365.547.547,0,0,0-.081-.334.486.486,0,0,0-.233-.192,1.012,1.012,0,0,0-.3-.081,1.906,1.906,0,0,0-.334,0H247.5v1.277Z" transform="translate(-230.155 -344.75)" fill="#2c4349"/>
      <path id="Path_462" data-name="Path 462" d="M253.677,344.75h.719l2.026,4.732h-.963l-.446-1.084h-2.026l-.436,1.084h-.942Zm1.013,2.928-.729-1.925-.74,1.925Z" transform="translate(-230.09 -344.75)" fill="#2c4349"/>
    </g>
    <g id="Group_11598" data-name="Group 11598" transform="translate(127.082 435.429)">
      <path id="Path_463" data-name="Path 463" d="M155.019,431.32H153.57v-.77h3.739v.77H155.86v3.962h-.841Z" transform="translate(-153.57 -430.458)" fill="#2c4349"/>
      <path id="Path_464" data-name="Path 464" d="M158.85,432.942a2.806,2.806,0,0,1,.193-1.013,2.148,2.148,0,0,1,.517-.79,2.3,2.3,0,0,1,.79-.507,3.121,3.121,0,0,1,2.026,0,2.1,2.1,0,0,1,.8.5,2.149,2.149,0,0,1,.517.79,2.563,2.563,0,0,1,.193,1.013,2.513,2.513,0,0,1-.193,1.013,2.279,2.279,0,0,1-.517.78,2.25,2.25,0,0,1-.8.507,2.512,2.512,0,0,1-1.013.193,2.9,2.9,0,0,1-1.013-.172,2.3,2.3,0,0,1-.79-.507,2.188,2.188,0,0,1-.517-.78,2.645,2.645,0,0,1-.192-1.023Zm.892-.051a1.946,1.946,0,0,0,.111.7,1.814,1.814,0,0,0,.334.557,1.662,1.662,0,0,0,.507.365,1.763,1.763,0,0,0,1.337,0,1.7,1.7,0,0,0,.517-.365,1.611,1.611,0,0,0,.324-.557,1.946,1.946,0,0,0,.122-.7,1.823,1.823,0,0,0-.122-.669,1.479,1.479,0,0,0-.841-.892,1.763,1.763,0,0,0-1.337,0,1.48,1.48,0,0,0-.507.355,1.711,1.711,0,0,0-.334.537,1.824,1.824,0,0,0-.111.669Z" transform="translate(-153.5 -430.459)" fill="#2c4349"/>
      <path id="Path_465" data-name="Path 465" d="M165.92,430.55h1.591a3.548,3.548,0,0,1,.659.071,1.61,1.61,0,0,1,.557.223,1.124,1.124,0,0,1,.385.426,1.408,1.408,0,0,1,.142.659,1.489,1.489,0,0,1-.152.719,1.115,1.115,0,0,1-.415.426,1.794,1.794,0,0,1-.608.2,5.342,5.342,0,0,1-.719.051h-.6v1.955h-.841Zm1.348,2.026h.375A1.3,1.3,0,0,0,168,432.5a.689.689,0,0,0,.274-.2.659.659,0,0,0,.1-.375.618.618,0,0,0-.091-.355.638.638,0,0,0-.243-.192.911.911,0,0,0-.324-.091,2.137,2.137,0,0,0-.355,0h-.6v1.327Z" transform="translate(-153.407 -430.458)" fill="#2c4349"/>
      <path id="Path_466" data-name="Path 466" d="M171.19,432.537a.527.527,0,0,1,.162-.375.537.537,0,0,1,.75,0,.436.436,0,0,1,.162.355.537.537,0,0,1-.152.375.547.547,0,0,1-.385.152.659.659,0,0,1-.2,0,.628.628,0,0,1-.172-.111.385.385,0,0,1-.111-.162A.416.416,0,0,1,171.19,432.537Zm0,2.259a.507.507,0,0,1,.162-.365.517.517,0,0,1,.375-.152.557.557,0,0,1,.375.142.466.466,0,0,1,.162.365.5.5,0,0,1-.152.365.547.547,0,0,1-.385.152.456.456,0,0,1-.2,0,.6.6,0,0,1-.172-.1.578.578,0,0,1-.111-.162A.466.466,0,0,1,171.19,434.8Z" transform="translate(-153.338 -430.439)" fill="#2c4349"/>
      <path id="Path_467" data-name="Path 467" d="M178.789,431.32H177.33v-.77h3.718v.77H179.63v3.962h-.841Z" transform="translate(-153.257 -430.458)" fill="#2c4349"/>
      <path id="Path_468" data-name="Path 468" d="M182.89,430.55h.851v4.732h-.851Z" transform="translate(-153.183 -430.458)" fill="#2c4349"/>
      <path id="Path_469" data-name="Path 469" d="M186.07,430.55h1.591a3.548,3.548,0,0,1,.659.071,1.61,1.61,0,0,1,.557.223,1.124,1.124,0,0,1,.385.426,1.408,1.408,0,0,1,.142.659,1.489,1.489,0,0,1-.152.719,1.115,1.115,0,0,1-.415.426,1.794,1.794,0,0,1-.608.2,5.465,5.465,0,0,1-.719.051h-.6v1.955h-.841Zm1.348,2.026h.375a1.3,1.3,0,0,0,.355-.081.689.689,0,0,0,.274-.2.659.659,0,0,0,.1-.375.618.618,0,0,0-.091-.355.729.729,0,0,0-.243-.192.912.912,0,0,0-.334-.091,1.968,1.968,0,0,0-.344,0h-.6v1.327Z" transform="translate(-153.141 -430.458)" fill="#2c4349"/>
      <path id="Path_470" data-name="Path 470" d="M194.44,432.942a2.8,2.8,0,0,1,.182-1.013,2.148,2.148,0,0,1,.517-.79,2.3,2.3,0,0,1,.79-.507,2.675,2.675,0,0,1,1.013-.172,2.786,2.786,0,0,1,1.013.162,2.138,2.138,0,0,1,.79.5,2.3,2.3,0,0,1,.527.79,2.745,2.745,0,0,1,.182,1.013,2.694,2.694,0,0,1-.182,1.013,2.462,2.462,0,0,1-.527.78,2.3,2.3,0,0,1-.79.507,2.594,2.594,0,0,1-1.013.193,2.9,2.9,0,0,1-1.013-.172,2.3,2.3,0,0,1-.79-.507,2.189,2.189,0,0,1-.517-.78,2.645,2.645,0,0,1-.182-1.013Zm.881-.051a2.2,2.2,0,0,0,.111.7,1.814,1.814,0,0,0,.334.557,1.662,1.662,0,0,0,.507.365,1.763,1.763,0,0,0,1.337,0,1.591,1.591,0,0,0,.517-.365,1.611,1.611,0,0,0,.324-.557,1.945,1.945,0,0,0,.122-.7,1.823,1.823,0,0,0-.122-.669,1.53,1.53,0,0,0-.324-.537,1.429,1.429,0,0,0-.517-.355,1.763,1.763,0,0,0-1.337,0,1.479,1.479,0,0,0-.507.355,1.711,1.711,0,0,0-.334.537,2.025,2.025,0,0,0-.111.669Z" transform="translate(-153.031 -430.459)" fill="#2c4349"/>
      <path id="Path_471" data-name="Path 471" d="M201.5,430.55h3.04v.77h-2.209v1.236h2.087v.76h-2.087v1.966h-.841Z" transform="translate(-152.938 -430.458)" fill="#2c4349"/>
      <path id="Path_472" data-name="Path 472" d="M210.849,431.32H209.4v-.77h3.739v.77H211.69v3.962h-.841Z" transform="translate(-152.833 -430.458)" fill="#2c4349"/>
      <path id="Path_473" data-name="Path 473" d="M215,430.55h.841v1.885h2.2V430.55h.851v4.732h-.851V433.2h-2.209v2.077H215Z" transform="translate(-152.76 -430.458)" fill="#2c4349"/>
      <path id="Path_474" data-name="Path 474" d="M221.19,430.55h3.131v.77h-2.31v1.155h2.168v.77h-2.168v1.277h2.411v.76H221.17Z" transform="translate(-152.678 -430.458)" fill="#2c4349"/>
      <path id="Path_475" data-name="Path 475" d="M229.81,430.55h1.115l2.29,3.516h0V430.55h.841v4.732h-1.013l-2.34-3.627h0v3.627h-.841Z" transform="translate(-152.564 -430.458)" fill="#2c4349"/>
      <path id="Path_476" data-name="Path 476" d="M237.917,430.55h.729l2.026,4.732H239.66l-.446-1.074h-2.026l-.436,1.074h-.932Zm1.064,2.928-.73-1.925-.74,1.925Z" transform="translate(-152.485 -430.458)" fill="#2c4349"/>
      <path id="Path_477" data-name="Path 477" d="M242.44,430.55h.841v4.732h-.841Z" transform="translate(-152.397 -430.458)" fill="#2c4349"/>
      <path id="Path_478" data-name="Path 478" d="M245.61,430.55h.841v3.972h2.026v.76H245.62Z" transform="translate(-152.356 -430.458)" fill="#2c4349"/>
      <path id="Path_479" data-name="Path 479" d="M154,447.41h1.844a2.267,2.267,0,0,1,.527.061,1.226,1.226,0,0,1,.466.213,1.166,1.166,0,0,1,.334.365,1.145,1.145,0,0,1,.122.547,1.013,1.013,0,0,1-.223.669,1.348,1.348,0,0,1-.6.375h0a1.408,1.408,0,0,1,.415.122,1.3,1.3,0,0,1,.324.243,1.347,1.347,0,0,1,.2.355,1.013,1.013,0,0,1,.081.426,1.161,1.161,0,0,1-.557,1.054,1.531,1.531,0,0,1-.578.223,2.847,2.847,0,0,1-.659.071H154Zm.841,1.925h.77a1.013,1.013,0,0,0,.628-.162.578.578,0,0,0,0-.892,1.277,1.277,0,0,0-.7-.152h-.7Zm0,2.087h1.125a1.165,1.165,0,0,0,.334-.1.578.578,0,0,0,.355-.578.537.537,0,0,0-.243-.517,1.469,1.469,0,0,0-.76-.152h-.811Z" transform="translate(-153.564 -430.235)" fill="#2c4349"/>
      <path id="Path_480" data-name="Path 480" d="M159.34,449.792a2.645,2.645,0,0,1,.193-1.013,2.32,2.32,0,0,1,.476-.77,2.28,2.28,0,0,1,.79-.5,2.676,2.676,0,0,1,1.013-.182,2.948,2.948,0,0,1,1.013.162,2.229,2.229,0,0,1,.8.5,2.32,2.32,0,0,1,.517.79,2.766,2.766,0,0,1,.193,1.013,2.675,2.675,0,0,1-.193,1.013,2.188,2.188,0,0,1-.517.78,2.269,2.269,0,0,1-.8.517,2.958,2.958,0,0,1-1.013.193,2.676,2.676,0,0,1-1.013-.182,2.219,2.219,0,0,1-1.307-1.277,2.513,2.513,0,0,1-.152-1.044Zm.881-.051a1.946,1.946,0,0,0,.122.7,1.55,1.55,0,0,0,.334.557,1.409,1.409,0,0,0,.507.365,1.58,1.58,0,0,0,.669.142,1.611,1.611,0,0,0,.669-.142,1.511,1.511,0,0,0,.507-.365,1.7,1.7,0,0,0,.334-.557,1.945,1.945,0,0,0,.122-.7,1.773,1.773,0,0,0-.122-.659,1.712,1.712,0,0,0-.334-.537,1.511,1.511,0,0,0-.507-.365,1.783,1.783,0,0,0-.669-.132,1.754,1.754,0,0,0-.669.132,1.408,1.408,0,0,0-.507.365,1.55,1.55,0,0,0-.334.537,1.773,1.773,0,0,0-.122.659Z" transform="translate(-153.494 -430.236)" fill="#2c4349"/>
      <path id="Path_481" data-name="Path 481" d="M167.379,448.17H165.93v-.76h3.739v.76H168.22v3.972h-.841Z" transform="translate(-153.407 -430.235)" fill="#2c4349"/>
      <path id="Path_482" data-name="Path 482" d="M172.489,448.17H171v-.76h3.739v.76H173.33v3.972h-.841Z" transform="translate(-153.34 -430.235)" fill="#2c4349"/>
      <path id="Path_483" data-name="Path 483" d="M176.37,449.792a2.837,2.837,0,0,1,.182-1.013,2.321,2.321,0,0,1,.517-.79,2.28,2.28,0,0,1,.79-.5,2.676,2.676,0,0,1,1.013-.182,2.909,2.909,0,0,1,1.013.162,2.228,2.228,0,0,1,.8.5,2.321,2.321,0,0,1,.517.79,2.573,2.573,0,0,1,.192,1.013,2.492,2.492,0,0,1-.192,1.013,2.188,2.188,0,0,1-.517.78,2.27,2.27,0,0,1-.8.517,2.908,2.908,0,0,1-1.013.193,2.675,2.675,0,0,1-1.013-.182,2.219,2.219,0,0,1-1.307-1.277A2.7,2.7,0,0,1,176.37,449.792Zm.881-.051a1.945,1.945,0,0,0,.111.7,1.7,1.7,0,0,0,.334.557,1.511,1.511,0,0,0,.507.365,1.652,1.652,0,0,0,1.337,0,1.551,1.551,0,0,0,.507-.314,1.52,1.52,0,0,0,.324-.557,1.945,1.945,0,0,0,.122-.7,1.773,1.773,0,0,0-.122-.659,1.531,1.531,0,0,0-.324-.537,1.55,1.55,0,0,0-.517-.365,1.763,1.763,0,0,0-1.337,0,1.509,1.509,0,0,0-.507.365,1.712,1.712,0,0,0-.334.537,1.763,1.763,0,0,0-.1.608Z" transform="translate(-153.269 -430.237)" fill="#2c4349"/>
      <path id="Path_484" data-name="Path 484" d="M183.45,447.41h1.277l1.266,3.313,1.277-3.313h1.266v4.732h-.8V448.21h0l-1.439,3.931h-.588l-1.439-3.931h0v3.931h-.8Z" transform="translate(-153.176 -430.235)" fill="#2c4349"/>
      <path id="Path_485" data-name="Path 485" d="M190.78,449.387a.466.466,0,0,1,.162-.365.517.517,0,0,1,.375-.152.578.578,0,0,1,.375.142.486.486,0,0,1,0,.73.507.507,0,0,1-.375.152.456.456,0,0,1-.2,0,.6.6,0,0,1-.172-.1.425.425,0,0,1-.111-.162A.466.466,0,0,1,190.78,449.387Zm0,2.27a.507.507,0,0,1,.162-.375.517.517,0,0,1,.375-.152.537.537,0,0,1,.375.152.436.436,0,0,1,.162.355.5.5,0,0,1-.162.375.507.507,0,0,1-.375.152.66.66,0,0,1-.2,0,.627.627,0,0,1-.172-.111.334.334,0,0,1-.111-.152.5.5,0,0,1-.051-.243Z" transform="translate(-153.079 -430.216)" fill="#2c4349"/>
      <path id="Path_486" data-name="Path 486" d="M200.646,448.516a1.561,1.561,0,0,0-.5-.375,1.428,1.428,0,0,0-.5-.091,1.783,1.783,0,0,0-.669.132,1.509,1.509,0,0,0-.507.365,1.713,1.713,0,0,0-.334.537,2.026,2.026,0,0,0-.111.659,2.2,2.2,0,0,0,.111.7,1.7,1.7,0,0,0,.334.557,1.51,1.51,0,0,0,.507.365,1.611,1.611,0,0,0,.669.142,1.226,1.226,0,0,0,.557-.142,1.439,1.439,0,0,0,.507-.436l.7.5a1.9,1.9,0,0,1-.79.638,2.431,2.431,0,0,1-1.013.2,2.675,2.675,0,0,1-1.013-.182,2.28,2.28,0,0,1-.79-.5,2.615,2.615,0,0,1-.517-.78,2.7,2.7,0,0,1-.182-1.013,2.837,2.837,0,0,1,.182-1.013,2.665,2.665,0,0,1,.517-.79,2.279,2.279,0,0,1,.79-.5,2.676,2.676,0,0,1,1.013-.182,2.331,2.331,0,0,1,.892.172,1.956,1.956,0,0,1,.77.577Z" transform="translate(-152.996 -430.237)" fill="#2c4349"/>
      <path id="Path_487" data-name="Path 487" d="M207.05,450.4a1.945,1.945,0,0,1-.142.78,1.8,1.8,0,0,1-.405.577,1.713,1.713,0,0,1-.6.375,2.229,2.229,0,0,1-1.51,0,1.864,1.864,0,0,1-.608-.375,1.632,1.632,0,0,1-.4-.578,1.945,1.945,0,0,1-.152-.78V447.41h.851v2.969a1.216,1.216,0,0,0,0,.365.921.921,0,0,0,.172.344.79.79,0,0,0,.334.263,1.013,1.013,0,0,0,.5.111,1.073,1.073,0,0,0,.507-.111.861.861,0,0,0,.334-.263.922.922,0,0,0,.172-.345,1.215,1.215,0,0,0,0-.365V447.41h.942Z" transform="translate(-152.915 -430.235)" fill="#2c4349"/>
      <path id="Path_488" data-name="Path 488" d="M210.289,448.17H208.84v-.76h3.739v.76H211.13v3.972h-.841Z" transform="translate(-152.841 -430.235)" fill="#2c4349"/>
      <path id="Path_489" data-name="Path 489" d="M214.4,447.41h.841v4.732H214.4Z" transform="translate(-152.767 -430.235)" fill="#2c4349"/>
      <path id="Path_490" data-name="Path 490" d="M220.826,448.515a1.591,1.591,0,0,0-.507-.375,1.377,1.377,0,0,0-.486-.091,1.712,1.712,0,0,0-.669.132,1.55,1.55,0,0,0-.517.365,1.691,1.691,0,0,0-.324.537,1.774,1.774,0,0,0-.122.659,1.946,1.946,0,0,0,.122.7,1.681,1.681,0,0,0,.324.557,1.631,1.631,0,0,0,1.185.507,1.266,1.266,0,0,0,.557-.142,1.51,1.51,0,0,0,.5-.436l.7.5a1.884,1.884,0,0,1-.78.638,2.513,2.513,0,0,1-1.013.2,2.675,2.675,0,0,1-1.013-.182,2.219,2.219,0,0,1-1.307-1.277,2.513,2.513,0,0,1-.193-1.013,2.645,2.645,0,0,1,.193-1.013,2.32,2.32,0,0,1,.537-.77,2.28,2.28,0,0,1,.79-.5,2.676,2.676,0,0,1,1.013-.182,2.331,2.331,0,0,1,.892.172,2.026,2.026,0,0,1,.76.577Z" transform="translate(-152.729 -430.236)" fill="#2c4349"/>
      <path id="Path_491" data-name="Path 491" d="M223.41,447.41h.841v3.972h2.026v.76H223.42Z" transform="translate(-152.649 -430.235)" fill="#2c4349"/>
      <path id="Path_492" data-name="Path 492" d="M228.15,447.41h3.141v.76h-2.28v1.165h2.178v.76h-2.178v1.287h2.411v.76H228.17Z" transform="translate(-152.586 -430.235)" fill="#2c4349"/>
    </g>
    <path id="Path_493" data-name="Path 493" d="M45.307,474.837a1.311,1.311,0,0,1-.355-.061C41.507,474.2,41,467.289,41,467a10.132,10.132,0,0,1,.851-5c1.662-3.435,4.438-3.111,4.732-3.04,2.705.243,3.647,3.04,3.688,3.171a12.878,12.878,0,0,1-.557,8.713C48.093,474.635,46.066,474.908,45.307,474.837Zm1.013-15.056c-.567,0-2.513,0-3.8,2.634a9.322,9.322,0,0,0-.75,4.488c0,.061.486,6.545,3.4,7.021.132,0,2.158.608,3.87-3.5a12.016,12.016,0,0,0,.517-8,3.87,3.87,0,0,0-3.04-2.624H46.34Z" transform="translate(-27.974 5.346)" fill="#2c4349" stroke="#2c4349" stroke-miterlimit="10" stroke-width="0.5"/>
    <path id="Path_494" data-name="Path 494" d="M78.92,439.346h-.1a5.127,5.127,0,0,1-4.762-3.475,20.609,20.609,0,0,1-1.216-8.622s0-4.823,4.742-5.218a9.656,9.656,0,0,1,4.347.517c.081,0,2.634.892,2.705,5.725,0,.263.111,6.647-2.482,9.8A3.818,3.818,0,0,1,78.92,439.346Zm-.284-16.475a9,9,0,0,0-1.013.051,4.306,4.306,0,0,0-4.053,4.347,19.8,19.8,0,0,0,1.145,8.217,4.3,4.3,0,0,0,4.053,2.969h.091a3.131,3.131,0,0,0,2.644-1.013c2.4-2.918,2.3-9.119,2.3-9.19-.061-4.134-2.087-4.863-2.178-4.894A8.156,8.156,0,0,0,78.636,422.872Z" transform="translate(-27.554 4.858)" fill="#2c4349" stroke="#2c4349" stroke-miterlimit="10" stroke-width="0.5"/>
    <path id="Path_495" data-name="Path 495" d="M98.934,449.212h-.122a5.066,5.066,0,0,1-3.647-.78c-2.574-1.722-3.333-7.447-3.364-7.69a11.358,11.358,0,0,1,.2-4.114A5.066,5.066,0,0,1,96.34,433c4.711-.628,5.846,1.783,5.887,1.895,2.472,4.053,1.013,10.233.932,10.487a4.954,4.954,0,0,1-4.225,3.83Zm-.182-.79a4.053,4.053,0,0,0,3.627-3.242c0-.061,1.449-6.079-.871-9.929,0-.122-.963-2.026-4.934-1.479h-.132a4.174,4.174,0,0,0-3.627,3.04,10.263,10.263,0,0,0-.182,3.779c0,.081.74,5.623,3.04,7.163a4.276,4.276,0,0,0,3.1.618Z" transform="translate(-27.304 5.002)" fill="#2c4349" stroke="#2c4349" stroke-miterlimit="10" stroke-width="0.5"/>
    <path id="Path_496" data-name="Path 496" d="M138.325,521.667a1.59,1.59,0,0,1-1.115-.415c-1.672-1.54-.355-7.021-.2-7.639,3.708-10.821,6.93-10.243,7.336-10.132a1.4,1.4,0,0,1,.871.74c.892,1.722-.608,6-.79,6.484-2.614,9.615-4.721,10.72-5.3,10.821a2.521,2.521,0,0,1-.8.142Zm5.694-17.3c-.456,0-3.04.426-6.079,9.5-.527,2.1-1.013,5.816-.061,6.687.081.081.334.314,1.013.071h.132s1.945-.618,4.549-10.193c.618-1.7,1.378-4.742.851-5.775a.466.466,0,0,0-.3-.274Z" transform="translate(-26.715 5.933)" fill="#2c4349" stroke="#2c4349" stroke-miterlimit="10" stroke-width="0.25"/>
    <g id="Group_11599" data-name="Group 11599" transform="translate(73.423 335.904)">
      <path id="Path_497" data-name="Path 497" d="M103.779,427.308l-.7-.263,1.57-4.174.7.263Zm3.141-8.339-.689-.263,1.57-4.164.7.263Zm3.151-8.339-.7-.263,1.581-4.164.689.263Zm3.151-8.328-.7-.263,1.621-4.184.7.263Zm3.141-8.339-.689-.263,1.57-4.164.7.263Zm3.151-8.339-.7-.263L120.4,381.2l.689.263Zm3.151-8.328-.7-.263,1.57-4.174.7.263Zm3.141-8.339-.689-.263,1.57-4.164.7.263Zm3.151-8.339-.689-.263,1.57-4.164.689.263Zm3.151-8.328-.7-.263,1.581-4.174.689.263Zm3.141-8.339-.689-.263,1.57-4.164.7.263Zm2.938-7.285-.689-.263,1.57-4.174.7.263Z" transform="translate(-100.577 -332.23)" fill="#f7bfa0" stroke="#f7bfa0" stroke-miterlimit="10" stroke-width="1"/>
      <path id="Path_498" data-name="Path 498" d="M72.84,424.184l.669-.3,1.418,3.394,3.242-1.641.365.7-4,1.976Z" transform="translate(-72.84 -330.311)" fill="#f7bfa0" stroke="#f7bfa0" stroke-miterlimit="10" stroke-width="1"/>
    </g>
  </g>
</svg>
