<svg xmlns="http://www.w3.org/2000/svg" width="168.27" height="167.999" viewBox="0 0 168.27 167.999">
  <g id="Group_11539" data-name="Group 11539" transform="translate(-824.311 -1114.845)">
    <g id="Group_11535" data-name="Group 11535" transform="matrix(0.766, -0.643, 0.643, 0.766, 839.066, 1210.285)">
      <path id="Path_159" data-name="Path 159" d="M0,0S16.3,8.782,17.215,9.183c0,0,4.64.4,7.39,2.234,0,0,10.826,4.983,11.628,5.041,0,0,5.786,1.6,6.932,2.635a11,11,0,0,1,4.182,5.328s10.426,8.364,13,9.452c0,0,2.463,1.145,2.521,1.719" transform="translate(20.584 2.542)" fill="none" stroke="#213439" stroke-miterlimit="10" stroke-width="0.7"/>
      <path id="Path_160" data-name="Path 160" d="M0,0A80.268,80.268,0,0,1,6.318,7.091a44.244,44.244,0,0,0,6.189,4.9s3.095,1.16,3.223,3.223" transform="translate(0 26.619)" fill="none" stroke="#213439" stroke-miterlimit="10" stroke-width="0.7"/>
      <path id="Path_161" data-name="Path 161" d="M11.426,0S6.609.176,5.551,3.172c0,0-2.408,2.82-2.878,9.811,0,0-.705,4.053-1.528,7.7,0,0-3.995,11.1,2.937,13.688,0,0,8.342,1.469,18.388,3.23,0,0,9.164,2.174,19.033,5.64,0,0,10.339,3.7,18.328.822a92.386,92.386,0,0,1,16.1-2.232s2.585-.235,12.983-3c0,0,7.284-.822,8.518-3.113" transform="translate(14.348 23.894)" fill="none" stroke="#213439" stroke-miterlimit="10" stroke-width="0.7"/>
      <path id="Path_162" data-name="Path 162" d="M1.679,0S6.317,3.518,9.2,3.837c0,0,6.156,1.919,16.711,4.717,0,0,18.31,4.078,19.989,5.117,0,0,13.113,4.318,13.753,6.637,0,0,2.718,5.357.879,8.795,0,0-.72,5.037-12.473.8,0,0-10.874-3.6-14.791-4.238,0,0-3.039-.8-8.555.24,0,0-4.318,1.6-12.953-1.759,0,0-4.877-1.439-11.753-3.279" transform="translate(37.543 24.369)" fill="none" stroke="#213439" stroke-miterlimit="10" stroke-width="0.7"/>
      <path id="Path_163" data-name="Path 163" d="M7.734.607S.586-1.979.066,3.521c0,0-1.38,5.06,8.434,6.593,0,0,3.067-.154,2.607-5.367A3.939,3.939,0,0,0,7.734.607Z" transform="translate(86.05 45.252)" fill="none" stroke="#213439" stroke-miterlimit="10" stroke-width="0.7"/>
      <path id="Path_164" data-name="Path 164" d="M0,0A30.2,30.2,0,0,1,2.019,5.416s.469,4.927,9.571,6.24c0,0,13.653,3.19,22.38,6.8,0,0,13.6,5.536,17.843,1.706,0,0,9.212-4.554,15.319-6.935,0,0,4.14-.31,9.626-4.451A28.524,28.524,0,0,1,83.8,3.5" transform="translate(20.482 59.194)" fill="none" stroke="#213439" stroke-miterlimit="10" stroke-width="0.7"/>
      <path id="Path_165" data-name="Path 165" d="M0,0S1.335,3.458,13.353,1.729" transform="translate(63.6 49.682)" fill="none" stroke="#213439" stroke-miterlimit="10" stroke-width="0.7"/>
      <path id="Path_166" data-name="Path 166" d="M0,.582S4.414-.486,7.66.271c0,0,11.01,1.8,4.037,9.314" transform="translate(100.138 50.209)" fill="none" stroke="#213439" stroke-miterlimit="10" stroke-width="0.7"/>
      <path id="Path_167" data-name="Path 167" d="M2.919.7A5.155,5.155,0,0,0,.208,4.842S-.761,8.406,1.486,8.251c0,0,7.36-.581,7.941-1.859,0,0,5.191-6.237-3.525-6.392A8.763,8.763,0,0,0,2.919.7Z" transform="translate(102.292 53.287)" fill="none" stroke="#213439" stroke-miterlimit="10" stroke-width="0.7"/>
      <path id="Path_168" data-name="Path 168" d="M0,40.855S6.2,3.74,6.749,1.672c0,0,.762-2.613,4.463-1.306l5.224,1.306s1.85.218.762,3.265L8.272,48.8s-.486,3.267-1.524,2.721" transform="translate(92.093 0)" fill="none" stroke="#213439" stroke-miterlimit="10" stroke-width="0.7"/>
    </g>
    <g id="Group_17" data-name="Group 17" transform="translate(824.564 1114.989)">
      <path id="Fill_15" data-name="Fill 15" d="M84.847,167.492h0l-.5-.117-.929.1-.556-.03-.452.034-1.508-.062-.536.042-.5-.159-.446-.008-.456.05-.552-.026-.482-.089-.53.056-.5-.179-.47.012-.524-.1h-.435l-.532.05-.972-.24-.464,0-.544-.085L72.4,166.7l-.442-.159-.452-.061-1.032-.046-.956-.214-.464-.05-.54-.161-.411-.077-.526.018-.53-.157-.456-.091-.931-.3-.6-.034-.407-.192-.937-.127-1.008-.294-.433-.153-.55-.052-.466-.171-.442-.095-.52-.214-.427-.1-.5-.167-.446-.186-.454-.075-1.925-.71-.927-.19-.518-.22-.435-.121-.494-.2-.419-.26-.516-.1-1.371-.607-.45-.25-.883-.335-.52-.145-.437-.234-.423-.163-.474-.242-.431-.173-.913-.47-.4-.25-.536-.173-.381-.262-.49-.212-.411-.284-.4-.183-.456-.282-.409-.163-1.306-.764-.55-.224-.308-.29-.546-.192-.377-.337-.373-.27-.823-.45-.446-.308-.4-.2-.448-.288-.387-.317-.409-.212-.446-.3-.405-.341-.381-.26-.405-.2-.448-.319-.476-.29-.317-.325L34.2,151.2l-.812-.641-.466-.31-.284-.321-.462-.212-.474-.363-.266-.359-.435-.286-.3-.319-.482-.26-.72-.661-.377-.248-.782-.663-.667-.74-.446-.308-.339-.361-.3-.379-.359-.28-.383-.367-.367-.272-.762-.7-.409-.417-.24-.409-.31-.339-.351-.27-.433-.427-.23-.363-.433-.294-.331-.369-.308-.454-.294-.349-.4-.335-.3-.393-.665-.673-.337-.4-.306-.417-.31-.339-.315-.427-.365-.357-.875-1.171-.244-.45-.643-.72-.317-.391-.583-.823-.222-.46-.3-.327-.325-.413-.476-.9-.357-.419-.192-.4-.377-.405-.222-.444-.518-.8-.248-.452-.272-.351-.268-.472-.28-.343-.333-.55-.1-.4-.361-.365-.482-.875-.175-.462-.325-.472-.123-.429-.3-.442-.353-.909-.238-.369-.214-.516L7.8,118.844l-.306-.468-.137-.48-.192-.393-.24-.4-.2-.516-.111-.466L6.32,115.7l-.4-.905-.165-.5-.1-.478-.216-.391-.4-.952-.153-.5-.351-.994-.042-.427-.27-.5-.054-.46-.159-.421-.256-.514-.143-.913-.278-.47-.26-.946-.194-1-.155-.423-.151-.571-.028-.446-.169-.409-.117-.546-.052-.484-.155-.429-.111-.534-.151-.512-.038-.448L1.569,100l-.022-.454-.153-.514-.03-.5-.1-.421L1.2,97.578l-.02-.52-.081-.442-.133-.44-.073-.546,0-.5L.8,94.677l-.038-.544-.085-.444-.141-.5.008-1.04L.5,91.685.26,90.7l.091-.52L.187,89.23l.03-.5L.111,88.22l.1-.524-.026-.452-.071-.46-.03-1.036L0,85.242l.107-.508-.036-.446L.121,82.8,0,82.3l.052-.552.012-.538.1-.452-.006-.454.04-.524L.137,79.3l.095-.5L.214,78.3l.149-1,.022-.468-.06-.5.2-.99-.01-.5.1-.476-.038-.534.192-.482-.012-.429.073-.548.139-.522.073-.409-.046-.5.071-.528.236-1.01.125-.427-.034-.538.242-.5.161-.923.048-.569L2,66.027l.048-.448.119-.524.149-.454.05-.593.19-.391.05-.562.185-.405.067-.534.171-.429.081-.454.363-.99.159-.919.167-.577.2-.389.1-.571.24-.405.143-.433L4.6,56.43l.2-.454.123-.433.212-.456.129-.575.234-.375.089-.427.175-.514.22-.48.244-.409.121-.54.244-.433.129-.411.905-1.816.129-.423.19-.484.232-.468.286-.421.349-.97.276-.415.214-.405.149-.425.262-.482.329-.442.448-.891.308-.393.625-1.26.3-.456.2-.466.849-1.183.224-.5.284-.347.248-.53.329-.323.732-1.256.869-1.208.659-.78.565-.865.3-.3.2-.488.4-.331.268-.5.337-.3.294-.456.337-.308.248-.379.345-.411.431-.363.274-.335.3-.47.337-.28.218-.385.677-.817.4-.317.3-.423,1.4-1.389.274-.359.421-.375.278-.341.718-.724.393-.343.4-.407.385-.212.353-.417.373-.236.369-.442.4-.23.323-.314.3-.357,1.137-1.032.468-.3.347-.286.331-.329.393-.337,1.266-.857.335-.3.435-.306.355-.3.327-.335.522-.367.4-.159.3-.31.433-.333.446-.28.425-.2.383-.4.863-.45.357-.286.452-.25.343-.31.524-.345.478-.169.768-.433.361-.4.544-.208.833-.442.446-.327.472-.169,2.982-1.623.956-.389.423-.216.474-.3.409-.119.393-.341.994-.272.9-.518.893-.26.433-.306.536-.085,1.369-.639.488-.107,2.292-.788.417-.2L58.9,3.867l.516-.23.446-.069.478-.208.482-.111.5-.171.944-.135.921-.319.5-.127.494-.071.435-.157,1.016-.222.554-.028,2.335-.552.516-.05.528-.153.448-.018.484-.171.567.012.419-.026.429-.151.514-.127L72.96.716l.528.03L75.444.47,76,.516,76.42.464,76.9.325l.546.006.476-.024.5-.095.488.079L79.4.169,80.373.1l.532.01.484-.006L81.9.042l.482.095L82.869.03l.562.087.4,0L84.357,0l.562.093,1.435.081L86.8.115l1.042.056.506-.042.488.095.514-.048.5.145.524.008.488.109L91.3.446,93.29.6l.542.133.44.038,1.073.046.476.161.905.117,1,.2.44-.014.554.095.524.171.409.085.47,0,.623.1.427.177.45.071.524.163.429.044.512.1,1.454.377.454.171.554.036,1.405.462,1.429.325.956.411,1,.218.839.385.585.077,1.272.611.569.065.9.375.433.242.546.137.429.258,1.294.56.456.1.587.244.361.266.506.171.419.274.808.415.558.127.853.466.437.2.46.3,1.258.7.536.165.405.29.468.244.329.286.5.173.885.554.339.312,1.357.671.387.315.383.2.889.631.306.306.53.246.3.329.448.246.379.319.383.244.5.23.375.325.371.4.308.232.53.208.314.437.46.274.3.329.9.538.343.361.72.637.375.234.411.385.448.327.3.405.274.284.482.254.3.462.716.593.391.28.45.387.282.363.806.716.208.367.433.256.292.472.319.331.427.367L145,26.6l.46.3.31.385.383.365.25.375.343.294.353.433.3.429.308.306.335.405.266.429.665.7.314.44.345.4.216.387.389.361.254.377.4.4.24.437.272.353.256.415.377.385.52.845.28.363,1.123,1.637.349.474.165.442.244.387L155,39.5l.367.417.236.433.169.48.268.353.512.9.192.44.359.433.192.46.236.371.242.458.3.429.357.883.323.411.248.506.131.488.177.411.244.363.244.468.206.476.232.393.387.968.153.5.2.389.948,2.3.141.464.306.484.123.48.185.4.948,2.845.121.512.151.431.23.536.038.456.157.419.278.968.218.532.04.5.107.427.169.415.224,1.028.2.5.079.966L166,66.99l.179.508.244,1.933.177.532.02.5.232.877.063.595-.054.466.135.4.163,1.04.038,1.028.063.454.145.516-.1.506.129.466-.048.5.125.478-.024.5.121.506-.077.5.095.47-.014.534.073.492-.093.486.171,1.006-.117.48.111.46-.067,1.022.06.514-.1.49.075.5-.133.49.069.423.012.595-.139.5-.026.458.034,1.466-.131,1.032.032.508-.19.476.03.472-.117.534-.03.921-.189,1.022-.056.476.044.494-.131.534-.042.446-.22,1-.067.544-.153.421-.016.446-.173,1.022-.173.486-.044.454-.76,3.421-.149.5-.107.54-.206.417-.224.929-.079.558-.192.417-.113.522-.185.411-.1.552-.4.837-.079.552-.206.454-.115.425-.248.508-.258.891-.228.5-.51,1.46-.248.353-.121.538-.228.375-.107.514-.206.452-.262.419-.173.55-.306.405-.177.385-.139.433-.679,1.339-.161.546-.569.841-.808,1.74-.274.425-.218.518-.587.748-.2.5-.3.4-.19.393-.31.448-.484.933-.325.325-.214.391-.3.435-.169.4-.353.528-.317.292-.216.49-.319.381-.262.462-.359.351-.242.355-.292.371-.238.508-1.581,1.919-.268.433-.321.327-.6.883-.351.286-.631.881-.353.224-.238.46-.706.72-.27.355-.728.685-.331.486-.377.278-.306.341-.423.351-.276.335-.72.722-.341.464-.427.27-.339.29-.3.337-.359.329-.353.47-.812.573-.357.3-.345.387-.4.294-.694.73-.375.254-.377.409-.861.524-.712.6-.351.417-.413.272-1.631,1.214-.389.175-.327.379-.464.351-.464.2-.722.544-.47.274-.343.28-.446.244-.405.377-.437.236-.865.571-.472.175-.335.2-.417.381-1.288.663-.407.365-.512.111-.319.268-1.433.8-.452.115-.4.212-.46.317-.413.137-.429.335-.46.188-.381.232-1.839.841-.526.149-.425.171-.474.26-.484.127-1.29.585-.482.272-2.327.712-.391.242-.5.218-1,.266-.437.167-.534.121-.407.165-.554.107-1.435.506-.446.032-.488.2-.49.079-1.448.47-.437.024-.528.212-.466.02-.444.117-.435.163-.581.147-.5.026-.442.083-.5.034-.446.121-1.51.226-.974.306-.5-.058-.458.163-.565-.012-.437.063-.427.133-.55.067-.506.1-.55-.046-.425.056-.54,0-.427.081-.544.016-.98.177-.478-.058-.516.139-.5,0-.5-.087-.956.181-.544-.036-.454.03-.534-.026-.5.058Zm-.452-.81h0l.494.115.435-.048.552.026.456-.03.492.028,1.014-.186.558.1.381-.008.51-.151.522.062.921-.163.552-.018.44-.081h.558l.45-.054.518.036.442-.089.522-.06.421-.131.542-.077.49.006.492-.177.52.062.875-.272,1.534-.234.5-.131.5-.032.448-.085.508-.028.446-.117.435-.163.585-.147.435-.018.522-.212.454-.024.887-.318.5-.139.484-.081.53-.21.452-.032,1.367-.486.538-.1.4-.163.538-.123.413-.161,1-.264.4-.177.472-.278,2.325-.712.4-.232,1.383-.627.494-.133.4-.224.5-.2.516-.147,1.754-.8.391-.234.456-.192.462-.351.425-.141.363-.26.552-.288.44-.111.373-.236.891-.47.4-.341.5-.109.4-.333.45-.208.812-.442.393-.365.425-.252.492-.185.784-.53.425-.23.4-.375.437-.234.335-.276.472-.276.772-.573.48-.216.327-.258.429-.456.427-.192,1.935-1.421.286-.353.8-.679.849-.522.363-.4.377-.256.663-.7.411-.306.3-.347.417-.353.788-.558.3-.421.365-.335.31-.345.411-.351.4-.258.244-.359.738-.748.3-.357.427-.359.345-.379.353-.258.284-.439.732-.683.262-.349.677-.694.244-.5.46-.292.583-.837.353-.29.554-.837.321-.325.238-.393.7-.784.871-1.129.228-.494.579-.774.363-.363.218-.393.319-.393.256-.544.343-.317.248-.379.171-.407.31-.464.28-.484.314-.317.427-.849.306-.44.2-.4.3-.409.212-.52.585-.742.2-.482.27-.415.821-1.758.548-.812.141-.506.681-1.329.129-.413.23-.486.3-.409.153-.516.27-.421.163-.371.131-.571.226-.373.137-.573.266-.377.46-1.353.224-.486.266-.907.244-.5.107-.413.2-.454.079-.55.411-.867.093-.53.189-.419.113-.524.187-.405.05-.444.264-1.075.2-.407.077-.442.256-.974.645-2.9.06-.536.171-.47.153-.915.034-.558.157-.431.046-.452.224-1.016.042-.444.113-.474-.032-.452.137-1.058.111-.5,0-.429.034-.51.1-.49-.034-.528.19-.482-.022-.425.131-1.04-.036-1.431.04-.6.123-.442-.008-.446-.089-.522.137-.492-.073-.486.1-.5L167,84.26l.069-.96-.129-.528.125-.514-.173-.968.1-.508-.06-.435.01-.512-.1-.514.077-.492-.113-.472.024-.49-.131-.5.048-.5-.139-.5.1-.506-.109-.407-.077-.536-.038-1.02-.143-.937-.171-.5.062-.546-.042-.458-.129-.413-.111-.508-.024-.5-.173-.514-.1-.966-.137-.942-.159-.433-.385-1.53-.077-.939-.171-.411-.222-1.022-.169-.411-.129-.528-.044-.492-.179-.405-.474-1.522-.038-.444-.185-.4-.175-.5-.123-.52-.423-1.405-.175-.417-.327-.958-.192-.421-.127-.476-.3-.466-.143-.474-.185-.411-.169-.5-.786-1.764-.335-.966-.185-.454-.228-.387-.429-.907-.254-.387-.222-.51-.137-.494-.194-.379-.345-.458-.353-.875-.268-.373-.506-.877-.192-.454-.359-.427-.2-.458-.474-.827-.325-.454-.163-.478-.194-.343-.31-.345-.321-.415-.312-.5-.159-.425-.569-.758-1.641-2.454-.377-.389-.26-.423-.278-.365-.242-.431-.377-.365-.25-.375-.415-.393-.226-.405-.3-.345-.308-.433-.7-.736-.26-.425-.284-.343-.329-.329-.615-.825-.4-.351-.254-.381-.335-.312-.306-.373L144.5,27.1l-.284-.444-.343-.278-.419-.442-.222-.359-.448-.264-.27-.478-.754-.649-.282-.367-.353-.294-.786-.6-.448-.4-.23-.353-.462-.264-.343-.359-.294-.391-.363-.252-.4-.377-.367-.226-.782-.689-.333-.351-.905-.538-.3-.327-.5-.317-.242-.337-.468-.2-.393-.3-.385-.407-.306-.264L132.4,16.4l-.464-.294-.387-.321-.5-.286-.29-.315-.518-.236-.329-.331-.385-.25-.415-.315-.391-.206-.405-.323-1.391-.7-.345-.317-.786-.486-.558-.21-.347-.3-.4-.206-.4-.28-.431-.121-.5-.242-1.308-.8-.853-.413-.4-.23-.55-.123-1.276-.714-.532-.188-.373-.272-.419-.171-.506-.121-1.357-.591-.415-.248-.534-.129-.435-.25-.829-.341-.571-.065-1.3-.621-.544-.065-.883-.4-.935-.2-.514-.2-.472-.222-1.371-.3-1.411-.46-.567-.038-.466-.181-1.865-.448L102,2.808l-.538-.163-.516-.087-.427-.177-.448-.067-.492,0-.518-.109-.514-.171-.437-.075-.437.012-.55-.087-.506-.117-.448-.042-.512-.085-.482-.159-1.458-.077-.536-.133-2.4-.157-.512-.109L89.714.994,89.29.871,88.8.919l-.492-.1-.452.036L86.819.8l-.429.06L85.847.851,84.841.774,84.381.7l-.47.111L83.371.8l-.48-.073-.5.113-.514-.1-.437.056L80.9.8,80.393.79l-.927.064-.524.137L78.428.909l-.433.079-.538.028-.468,0-.437.121L76,1.2l-.516-.038-.952.161-1.018.113L72.978,1.4l-.429.056-.442.111-.536.175-.5.028-.466-.008-.516.167-.452.018-.508.151-.494.042L66.275,2.7l-.558.032-.907.2-.5.173-.492.069-.893.26-.518.188-.958.137-.433.153-.488.113-.514.22-.444.069-.405.192-.5.179-.976.272-.393.2-2.369.814-.492.109-1.4.651-.421.067-.448.292-.917.268-.9.516-.9.252-.458.353-.429.125-.369.248-.946.454-.49.179L46.39,9.7l-1.78.917-.391.246-.456.244-.466.171-.353.272-.931.494-.423.165-.391.4-.845.47-.5.183-.375.252-.4.353-.435.236-.4.319-.817.423-.411.421-.454.212-.383.242L35.814,16l-.429.407-.435.171-.369.264-.3.317-.4.343-.429.3-.343.3-1.27.863-1.083.96-.46.29-1.046.952-.3.355-.446.423-.377.214-.351.429-.375.236-.377.435-.4.222-.3.323-.4.351-.681.685-.294.359-.415.365-.258.345L22.858,27.32l-.337.46-.4.306-.577.7-.3.49-.341.284-.232.377-.347.421-.431.363-.278.335-.3.448-.335.3-.3.464-.325.284-.276.514-.325.268-.236.508-.325.323-.526.81-.319.407L16,35.773l-.236.369-.6.8-.254.4-.532.925-.31.306-.218.486-.282.347-.222.5-.312.385-.522.774-.183.425-.31.466-.645,1.3-.317.409-.187.415-.25.458-.329.44-.214.393-.145.419-.252.48-.266.4-.135.431-.224.556-.286.411-.194.4-.31.885-.907,1.823-.135.423-.246.444-.127.554-.258.429-.187.417-.153.437-.133.56-.234.369-.1.516-.214.448-.117.425-.2.464-.095.454-.2.573-.222.375-.089.544-.216.413-.123.442-.169.95-.363.988-.089.5-.167.417-.073.56-.183.4-.052.571-.19.391-.032.528-.155.47-.1.452-.067.542L2.5,66.65l-.028.446-.2,1.1-.185.379.03.478-.282,1.008-.149.9.046.514L1.631,72l-.137.512-.06.448.02.512-.187.47.034.468-.1.5.006.494-.185.962.05.448-.026.55L.9,78.349l.02.5-.089.478.052.444-.04.562.01.5-.113.5-.006.458L.7,82.252l.121.494L.76,84.264l.046.51-.1.486.067.431L.8,86.718l.071.456.036.569-.095.474.1.468-.032.5.169,1.008-.087.488.218.9.048.546,0,.978.121.433.1.516.034.536.1.47,0,.536.056.446.131.421.093.526.077,1.008.107.442.036.51.155.522.02.446.181.51.04.46.135.438.1.52.173.5.052.494.093.452.2.51.03.466.121.444.159.44.448,1.9.294.52.145.927.21.393.214.583.05.425.272.514.046.466.645,1.81.2.435.264.51.1.49.145.433.369.841.331.506.113.488.161.417.23.373.228.476.141.478.254.367.9,1.81.2.488.236.363.377.95.312.472.121.425.308.435.175.468.429.772.407.391.131.542.236.369.29.359.274.48.274.353.516.881.268.4.218.429.383.415.194.405.349.4.462.881.272.339.379.429.214.456,1.153,1.494.383.421.236.442.577.73.272.4.333.325.329.441.31.339.619.786.677.689.3.4.355.294.359.423.3.446.27.294.494.357.246.389.327.317.367.286.417.46.236.4,1.032.966.381.286.389.371.421.339.31.389.294.313.44.3.345.357.339.4.716.6.377.248.74.671.5.28.31.331.478.327.274.367.329.24.55.276.3.341.379.24.806.641.46.278.315.327.389.224.429.308.4.2.446.3.407.341.381.26.466.246.383.319.383.246.409.2.45.308.845.464.429.313.343.3.5.143.379.355.405.145.482.246.865.538.409.163.47.288.413.194.425.29.492.21.365.252.516.165.839.486.433.216.435.175.47.24.429.165.44.232.446.119.958.365.911.478.863.357.581.125.427.27.405.159.442.125.5.216.9.181,1.9.7.516.089.458.192.448.149.452.107.514.214.423.089.464.165.546.052.931.314.464.123,1.044.155.387.183.532.016.956.306.444.087.454.133.492-.018.524.1.514.159.427.04.978.216.966.04.593.085.425.155.446.024.526.083.478-.006.522.107.446.125.439-.04.532,0,.512.093.526-.012.47.169.472-.052.54.1.45.024.442-.052.637.022.425.135.431-.034.522,0,1,.06.46-.032.538.032,1-.107Z" transform="translate(0 0.111)" fill="none" stroke="#f7bfa0" stroke-miterlimit="10" stroke-width="0.5"/>
    </g>
  </g>
</svg>
