<svg xmlns="http://www.w3.org/2000/svg" width="168.27" height="167.999" viewBox="0 0 168.27 167.999">
  <g id="Group_11538" data-name="Group 11538" transform="translate(-575.311 -1114.845)">
    <g id="Group_35" data-name="Group 35" transform="translate(608.684 1149.197)">
      <path id="Stroke_24" data-name="Stroke 24" d="M0,.015.451.078.9.081l.449,0L1.807,0l.451.047.446.1.452.028L3.613.144l.448.09.455.034L4.958.39,5.423.358l.43.176.442.087.453.053L7.138.9l.427.114.4.177L8.4,1.3l.374.247.436.1.413.155.391.209.417.145.407.17.425.124.437.083.4.214.418.143.444.054.416.154.441.058.4.193.446.034.419.152.422.144.463-.048.428.122.432.1.432.091.43.121.436.088.439.06.457-.042.447.028.433.142.435.117.457-.023.443.064.435.11.43.127.434.1.425.141.458.006.4.21.452.037.422.141.432.11.385.244.433.11.436.108.4.192.4.211.362.268.406.182.417.168.341.29.4.194.344.28L29.8,8l.335.289.307.319.3.321.263.356.344.289.311.321.176.414.25.364.179.4.231.377.183.4.19.4.193.4.139.415.115.423.055.443.189.4.188.4.031.45.236.383.134.417.06.441.268.371.134.412.04.444.21.388.078.433.164.4.093.429.26.371.052.444.232.382.153.409.091.431.139.415.126.417.215.386.187.4.162.405.128.419.071.441.128.42.208.39.173.4.156.41.139.417.172.4.258.368.093.436.187.4.183.4.126.424.149.416.165.409.174.4.243.375.218.384.221.384.121.43.16.412.2.392.256.365.127.427.163.419.219.392.254.373.264.369.1.447.269.367.16.42.259.37.088.453.183.411.3.356.159.422.147.427.218.394.139.428.208.4.25.379.193.4.114.436.15.42.209.4.14.424.081.442.267.378.133.425.127.425.08.442.189.41.012.456.156.419.091.434.031.444.159.422.02.444.084.436v.444l.046.439,0,.443.028.441.051.443-.021.444-.055.441.037.444-.118.438-.03.441.1.444-.085.441.037.444,0,.442-.025.443.035.444-.075.442.069.444-.088.444,0,.445.13.439v.441l-.121.445.084.441.019.442-.042.446.076.442-.007.445-.043.447.023.444.125.439.028.444-.072.452.033.445.042.446.131.439.022.446.107.437.033.445.009.447-.025.452.135.431,0,.45.107.434.049.447.1.438.049.446.156.425.151.422.081.438.144.42.12.425.1.433.137.421.173.408.213.389.123.433.286.343" transform="translate(53.384 33.262)" fill="none" stroke="#213439" stroke-linecap="round" stroke-linejoin="round" stroke-miterlimit="10" stroke-width="0.832"/>
      <path id="Stroke_1" data-name="Stroke 1" d="M28.426,46.05l-.441-.039-.441,0-.439-.064-.44-.016L26.223,46l-.437-.09-.442.059-.439-.026-.441.026-.437-.1-.442.051-.438-.078-.444.107-.438-.131h-.443l-.445.076-.443-.009-.438-.145-.444.065-.44-.069-.443.032-.441.018-.443.024-.44-.069-.441-.016-.443-.025-.445.034-.441-.065-.441-.056-.443.016-.443.024-.445.057-.443-.011-.443-.037-.441-.065-.442-.048-.442-.047-.44.009-.444.11-.44-.037-.44-.106-.448.1-.439-.15L9,45.485l-.444.03-.446.012L7.665,45.5l-.443-.053-.444-.073-.444-.032-.447.08-.443-.055L5,45.3l-.448.018-.45.062-.448-.01-.444-.1-.465,0-.4-.219-.4-.2-.377-.243L1.2,44.335.9,44l-.277-.353-.155-.423-.176-.4-.2-.406L0,41.97l.03-.452L0,41.077l.036-.439L.089,40.2l-.016-.44.118-.436L.1,38.88l.107-.436L.157,38l.063-.438.031-.439.014-.44-.1-.443L.213,35.8l.02-.44.093-.438-.081-.444.063-.439,0-.441L.4,33.166l.021-.439-.128-.445.054-.436.11-.434-.076-.441.035-.438L.441,30.1l.09-.436,0-.441L.45,28.774l-.015-.441.085-.438v-.44l.038-.439.086-.436L.55,26.138.531,25.7l.138-.434L.6,24.823l.067-.436-.046-.441.124-.435-.133-.444L.7,22.63l.041-.438-.086-.444.056-.441.035-.44.065-.439-.08-.444.148-.436-.065-.442-.043-.442.088-.438.06-.439-.065-.443L.83,16.9l.031-.442.121-.438-.046-.443.03-.441L.948,14.7l.025-.441.121-.438,0-.443-.107-.446L1,12.488l.119-.438-.052-.44.013-.439.077-.438-.024-.443L1.2,9.849,1.171,9.4l-.039-.443.117-.438-.092-.447L1.3,7.638l-.044-.444.079-.442L1.244,6.3l.06-.442.013-.442-.023-.446.1-.443-.009-.447-.06-.45L1.4,3.187l.052-.452.232-.4.108-.449.36-.3.242-.377L2.767.957,3.086.64,3.5.468l.4-.2L4.34.192,4.778.132,5.222.05l.441-.01L6.106,0l.437.143h.441l.441.008L7.866.18,8.31.068l.438.113L9.192.12l.441.026L10.074.2l.443-.035L10.959.2,11.4.26,11.845.2l.441.037L12.73.212l.439.123.444-.064.44.072L14.5.332l.439.077L15.38.3l.442,0,.438.113.442,0,.445-.1.44.07L18.03.354l.439.114.443-.026.441.083H19.8l.446-.086.441.039L21.126.5l.442.035.443-.008.441-.043L22.888.6l.439.052.441-.031.441,0,.444-.07L25.1.595l.443,0,.442.065.444-.036.442,0L27.3.739l.443-.077L28.185.8,28.63.679l.438.108.439.032L29.95.753l.441-.009.441,0,.438.136.443-.018L32.154.9H32.6l.444-.025.444,0,.444-.037.439.13.445-.084.44.081.441.054.442.018.444-.059L37.026,1l.445-.053.443.075.443.024.442.069.445-.061.444-.026.444-.009.442.087.444.04.446-.077.444.026.442.06.439.067.444-.1.441.065.446-.056.442.122.444.017.447-.1.44.142.447-.026.447-.034.443.065.448-.05.443.12.448-.047.444.025.449-.051.446.066.45-.021.449.026.443.086.43.12.422.138.425.146.369.254.369.26.255.373.366.289.116.45.252.379.144.43.086.447.02.457-.129.433.034.439,0,.438-.035.436-.041.436-.055.435.044.436.028.436-.06.433.018.436-.08.433.086.439-.032.436.006.438-.1.435-.023.438-.014.436-.081.435.126.442-.011.436-.08.433-.071.434.086.439-.1.433-.052.434v.436l-.038.435-.01.436.108.441-.006.438-.159.432v.439l.108.442-.042.437-.092.435.088.441-.155.432.051.439-.054.436,0,.438.081.441-.028.438-.094.436-.032.438.027.44.055.439-.1.435.058.441-.088.436-.074.438-.021.438.015.439-.047.438.041.438-.083.434.043.439.017.44-.023.44-.009.439-.1.435.054.441.021.442.012.441-.076.438-.075.439.1.444-.062.439-.094.437-.037.441.121.447-.054.442-.012.444" transform="translate(0 0)" fill="none" stroke="#213439" stroke-linecap="round" stroke-linejoin="round" stroke-miterlimit="10" stroke-width="0.832"/>
      <path id="Stroke_3" data-name="Stroke 3" d="M16.521.56,16.076.553l-.445.02L15.188.509,14.744.464,14.3.471,13.856.4l-.449.084L12.96.451,12.514.438l-.447.015-.443-.1-.446.028L10.73.439,10.284.415,9.84.328,9.395.257,8.947.3,8.5.372,8.059.228,7.614.274,7.171.23l-.448.02L6.276.224,5.831.159,5.386.141,4.938.165l-.45.058L4.042.156,3.6.1,3.148.068,2.7.091,2.251.06,1.8.17,1.352.109.9.142.452.071H0" transform="translate(33.199 46.161)" fill="none" stroke="#213439" stroke-linecap="round" stroke-linejoin="round" stroke-miterlimit="10" stroke-width="0.832"/>
      <path id="Stroke_4" data-name="Stroke 4" d="M2.383,8.546l.471,0,.434-.174L3.716,8.2l.406-.234.31-.351.181-.429.191-.41L4.97,6.35l0-.428L5.021,5.5V5.07l.086-.43-.116-.431L5.02,3.78l.144-.42-.009-.466-.115-.457-.015-.46L4.95,1.515l-.268-.386-.3-.342L4.033.51,3.65.282l-.4-.238L2.779.079,2.35,0,1.926.1,1.574.348,1.206.562.871.841l-.208.382-.078.427-.16.392-.152.412L.26,2.907l0,.455-.055.449-.023.456-.054.452-.05.45.009.456L0,6.072.067,6.5l.016.431.2.384.149.414L.78,8l.334.28.409.149.42.125Z" transform="translate(6.647 19.052)" fill="none" stroke="#213439" stroke-linecap="round" stroke-linejoin="round" stroke-miterlimit="10" stroke-width="0.832"/>
      <path id="Stroke_5" data-name="Stroke 5" d="M2.668,9.826l.436.013.4-.185.436-.042.38-.208.293-.318.264-.325.254-.33.229-.353L5.574,7.7l.095-.418.014-.43.072-.427L5.739,6l-.015-.431-.062-.432.118-.426-.073-.431.1-.424-.018-.441-.018-.438-.027-.439-.125-.422-.169-.4-.079-.449-.3-.334L4.756.623,4.377.4,3.972.245l-.4-.18L3.126.05,2.681,0,2.262.157,1.85.3,1.441.488l-.279.35-.346.294-.13.435-.232.382-.108.432L.3,2.823l-.07.455.048.466L.2,4.2l.035.467-.051.46L.144,5.59l-.054.458L.008,6.5l.033.462L.07,7.4,0,7.85l.259.379L.4,8.643l.3.32.274.359.436.125.377.247.439.1Z" transform="translate(14.433 18.221)" fill="none" stroke="#213439" stroke-linecap="round" stroke-linejoin="round" stroke-miterlimit="10" stroke-width="0.832"/>
      <path id="Stroke_6" data-name="Stroke 6" d="M2.9,10.347l.452.027.444-.091.433-.128.4-.206.345-.291L5.3,9.35l.322-.33.161-.431.128-.431.1-.433.093-.449L6.1,6.818l.042-.455.066-.457-.064-.459L6.09,4.992l.066-.454-.037-.46.039-.427.022-.428.052-.438-.07-.433-.167-.406-.144-.411-.317-.31L5.276.893,5.02.532,4.6.381,4.232.16,3.813.04,3.377.054,2.948,0,2.533.114l-.421.1L1.754.45,1.442.738l-.325.278L.924,1.4l-.162.388-.128.4-.133.4-.1.412-.007.44-.11.433.071.448-.076.436L.2,5.189l-.049.441.076.45-.062.438-.049.439L0,7.389l.082.424.047.418.126.4.12.408.219.368.324.28.334.264.388.179.407.122.407.166Z" transform="translate(22.469 18.044)" fill="none" stroke="#213439" stroke-linecap="round" stroke-linejoin="round" stroke-miterlimit="10" stroke-width="0.832"/>
      <path id="Stroke_7" data-name="Stroke 7" d="M2.57,9.251l.454-.015.44-.1.42-.16.38-.239.288-.342.306-.318L5.092,7.7l.144-.418.108-.425L5.4,6.4l0-.46.033-.46.014-.464-.046-.461.017-.461.085-.456L5.5,3.185l-.053-.447L5.39,2.3l-.043-.451-.158-.423-.205-.409-.4-.246-.32-.3L3.872.253,3.432.178,3,.1,2.533,0,2.075.113,1.653.321l-.34.318L.984.961l-.278.373-.178.43L.39,2.207l.017.468L.362,3.1l-.01.433L.3,3.968.217,4.4l.041.439-.052.431-.149.424.11.442-.12.424L0,7.02l.192.433.145.427.2.408.335.31.394.22.375.3.46.1Z" transform="translate(30.431 19.65)" fill="none" stroke="#213439" stroke-linecap="round" stroke-linejoin="round" stroke-miterlimit="10" stroke-width="0.832"/>
      <path id="Stroke_8" data-name="Stroke 8" d="M2.079,7.553l.459-.021.493.006.351-.344.414-.24.211-.427.223-.406L4.3,5.67l.163-.431-.051-.448.009-.446.1-.444-.049-.447L4.422,3l.052-.451L4.468,2.1l-.085-.446L4.2,1.238,3.975.854,3.653.549,3.342.193,2.887.08,2.428.068,1.993,0,1.571.127l-.35.259L.841.61l-.193.4L.5,1.4l-.237.375.025.438-.1.455-.026.46-.018.463-.073.46.014.464-.039.46L0,5.433l.02.424.136.4L.3,6.643l.24.338L.833,7.3l.389.193.422.1Z" transform="translate(38.009 21.622)" fill="none" stroke="#213439" stroke-linecap="round" stroke-linejoin="round" stroke-miterlimit="10" stroke-width="0.832"/>
      <path id="Stroke_9" data-name="Stroke 9" d="M2.365,8.744,1.946,8.7l-.39-.149-.423-.106L.873,8.1.564,7.814.259,7.5l-.1-.422-.08-.411-.035-.41-.02-.437L0,5.38l.075-.435L.036,4.5l.113-.431L.18,3.626l.109-.434L.3,2.766l.071-.42.046-.43.107-.424L.8,1.151l.28-.319L1.354.494,1.768.357,2.147.173,2.569.13,3,0l.439.1.39.21L4.18.555l.327.278.256.349.165.4.125.41.113.421.039.438-.037.464.051.468-.059.462-.084.465.107.471-.143.46L5,6.1l.073.468L5,7l-.1.433-.187.408-.374.263-.292.323-.393.192-.427.08-.429.124Z" transform="translate(38.795 7.86)" fill="none" stroke="#213439" stroke-linecap="round" stroke-linejoin="round" stroke-miterlimit="10" stroke-width="0.832"/>
      <path id="Stroke_10" data-name="Stroke 10" d="M2.617,9.765l-.411-.11-.406-.1-.387-.161L1,9.241.69,8.929.543,8.508l-.26-.335L.108,7.786.072,7.363,0,6.951l.028-.426L.06,6.1l.064-.425.017-.431.034-.429.006-.43.095-.422L.268,3.529.247,3.089l.119-.427.126-.418.087-.43.144-.419L.936,1,1.314.746,1.6.39,2.04.278,2.43.05,2.877,0l.446,0,.438.1.411.16L4.537.5l.341.266.259.345.314.322.181.407.041.444.16.425-.084.444-.013.46.059.463-.108.458-.047.462.121.468-.015.463-.165.455.023.463.069.464-.195.415-.068.429L5.2,8.524,4.987,8.9,4.7,9.232l-.369.239-.419.13-.406.185-.45-.029Z" transform="translate(31.021 6.409)" fill="none" stroke="#213439" stroke-linecap="round" stroke-linejoin="round" stroke-miterlimit="10" stroke-width="0.832"/>
      <path id="Stroke_11" data-name="Stroke 11" d="M2.869,10.376l-.46,0-.449-.111-.412-.208L1.173,9.8.9,9.424.636,9.068.345,8.715.234,8.273.169,7.832,0,7.4l.083-.455L.17,6.491l-.1-.465.088-.453.018-.458.038-.454.15-.443-.057-.46.033-.431L.4,2.9l.091-.423L.6,2.056l.174-.4L1,1.287,1.32.99l.25-.36.39-.2.4-.138L2.753.1,3.18,0l.433.116L4.03.162l.406.109.417.12L5.2.651,5.53.931l.2.383.133.406.156.389L6.2,2.5l.062.425-.086.427-.043.438,0,.441-.013.44-.031.441.1.446L6.145,6l-.014.442-.083.438L6,7.323l.1.445-.166.407-.007.434-.224.369-.181.384-.282.32-.313.291-.394.17-.388.186-.422.08L3.3,10.386Z" transform="translate(23.131 5.316)" fill="none" stroke="#213439" stroke-linecap="round" stroke-linejoin="round" stroke-miterlimit="10" stroke-width="0.832"/>
      <path id="Stroke_12" data-name="Stroke 12" d="M2.488,9.222l-.433-.13-.43-.106-.354-.263-.35-.255-.3-.318L.333,7.81.189,7.391.12,6.958.036,6.531,0,6.072l.036-.459.006-.461.073-.46L.106,4.228l.176-.447L.243,3.317l.017-.452.1-.441L.4,1.964l.163-.43.3-.349.26-.364.3-.344L1.847.307,2.259.132,2.7,0l.458,0,.464.074.411.22.376.252.412.237L5,1.217l.222.4.2.42L5.46,2.5l-.013.461-.08.429-.022.432-.015.433.018.436.083.438-.125.43.03.435.028.435-.07.428-.034.457-.184.422-.2.408-.228.4L4.3,8.856,3.83,8.95l-.419.171-.46,0Z" transform="translate(15.252 6.057)" fill="none" stroke="#213439" stroke-linecap="round" stroke-linejoin="round" stroke-miterlimit="10" stroke-width="0.832"/>
      <path id="Stroke_13" data-name="Stroke 13" d="M2.128,7.517l-.473-.03-.4-.245L.787,7.076l-.268-.4L.29,6.262l-.1-.456L0,5.353l.133-.442L.09,4.463l.131-.437,0-.448L.213,3.13l.129-.439L.3,2.231l.127-.44.107-.442L.773.965.98.551l.4-.239L1.772.086,2.225.034,2.673,0l.411.1L3.51.181l.367.238.2.395.212.356.139.392.108.408.082.425-.093.458-.046.46.091.466-.119.46L4.5,4.7,4.5,5.164l-.067.457-.063.417-.141.4-.183.382-.282.324L3.411,7.4l-.422.12L2.554,7.5Z" transform="translate(7.306 7.253)" fill="none" stroke="#213439" stroke-linecap="round" stroke-linejoin="round" stroke-miterlimit="10" stroke-width="0.832"/>
      <path id="Stroke_14" data-name="Stroke 14" d="M2.5,8.924l.437.013.439-.046.42-.146.323-.307.364-.244.225-.375.306-.326.087-.435L5.2,6.642,5.286,6.2l-.034-.452L5.235,5.3l.128-.45-.032-.451-.017-.452-.031-.455.107-.433-.077-.438.04-.449-.089-.439L4.977,1.37,4.838.946l-.3-.328-.4-.2L3.755.234l-.4-.165L2.922,0,2.48.067H2.022l-.413.2L1.287.581.971.895.65,1.23.523,1.67l-.078.444L.33,2.551l.01.424L.349,3.4l-.166.411.1.435L.1,4.66l.08.433-.018.424-.123.416L0,6.352.091,6.8l.036.446.13.431.269.363.3.335.361.272.43.149.449.046Z" transform="translate(5.692 31.215)" fill="none" stroke="#213439" stroke-linecap="round" stroke-linejoin="round" stroke-miterlimit="10" stroke-width="0.832"/>
      <path id="Stroke_15" data-name="Stroke 15" d="M2.7,9.868l.431-.06.434-.023.393-.18.4-.159L4.632,9.1l.308-.285.266-.328.233-.357.194-.386,0-.435.054-.424L5.7,6.459l-.022-.43.12-.428L5.8,5.17l-.056-.43.108-.427-.11-.434.1-.433L5.84,3l-.046-.44-.047-.444-.211-.4L5.381,1.31,5.04,1.016,4.794.647,4.432.39,4,.281,3.6.062,3.157.051,2.706,0,2.292.2l-.4.16-.4.193-.3.323-.319.312L.7,1.6l-.125.419-.2.4-.1.438-.044.458.092.47-.168.449L.18,4.7l-.025.462.01.465-.026.46-.067.458L0,7l.094.434.069.424.014.452.247.373.237.375L1,9.345l.407.184.425.109.421.143Z" transform="translate(13.696 30.764)" fill="none" stroke="#213439" stroke-linecap="round" stroke-linejoin="round" stroke-miterlimit="10" stroke-width="0.832"/>
      <path id="Stroke_16" data-name="Stroke 16" d="M2.875,10.364l.457.072.431-.174.42-.147L4.635,10l.308-.345.31-.323.345-.31.195-.414.1-.442.073-.438.089-.447.04-.454.062-.455.01-.458L6.11,5.457,6.07,5l.125-.453-.072-.458,0-.429.07-.428L6.147,2.8,6.1,2.372l-.2-.387-.16-.392-.19-.379L5.265.894,5.011.526,4.623.317,4.18.264,3.8.013,3.361,0,2.937.111l-.429,0-.4.149L1.767.508l-.355.23-.327.28L.87,1.389l-.2.378L.6,2.19l-.169.393L.348,3l.006.441-.012.441-.1.434-.039.44L.221,5.2l-.032.442-.015.444-.149.431L.018,6.96.033,7.4,0,7.827l.137.408.134.394.135.393.25.331.233.355.327.281.383.2.411.136.428.076Z" transform="translate(21.781 30.612)" fill="none" stroke="#213439" stroke-linecap="round" stroke-linejoin="round" stroke-miterlimit="10" stroke-width="0.832"/>
      <path id="Stroke_17" data-name="Stroke 17" d="M2.556,9.244,3,9.1l.437-.049.457-.067.382-.251.3-.337L4.9,8.08l.117-.445.155-.4.18-.406.05-.457.033-.459.053-.46-.067-.466.068-.459-.01-.461.04-.455.038-.452-.139-.447-.052-.441-.059-.444-.125-.435L4.9,1.035,4.659.643,4.282.384,3.838.275,3.452,0,2.986.062,2.528.029l-.475.03-.4.259-.37.276L.962.924l-.3.367L.55,1.745l-.2.427L.3,2.637V3.07L.229,3.5l.016.436.043.44L.181,4.8l-.028.433-.01.433L.072,6.1l-.007.431L0,6.99l.165.438L.3,7.862l.258.373L.835,8.6l.379.266.46.084L2.1,9.1Z" transform="translate(29.736 32.258)" fill="none" stroke="#213439" stroke-linecap="round" stroke-linejoin="round" stroke-miterlimit="10" stroke-width="0.832"/>
      <path id="Stroke_18" data-name="Stroke 18" d="M2.127,7.714l.481-.057.47-.108.411-.25.3-.371.36-.318.2-.432L4.4,5.709l.017-.443.042-.442.1-.443.015-.447-.038-.447-.052-.45.14-.453-.1-.455-.049-.456-.248-.39L4.028.89,3.777.5,3.348.324,2.925.181,2.49,0,2.052.059,1.619.142l-.38.225L.989.728.644,1l-.125.418-.142.4-.023.426L.3,2.707l-.05.458-.037.461-.137.455.047.467L.033,5l.041.463L0,5.9l.174.4.163.387.206.38.348.258.383.207.414.152Z" transform="translate(37.246 34.167)" fill="none" stroke="#213439" stroke-linecap="round" stroke-linejoin="round" stroke-miterlimit="10" stroke-width="0.832"/>
      <path id="Stroke_19" data-name="Stroke 19" d="M48.76,56.853l-.021-.445-.2-.42-.052-.436.055-.452-.168-.42.013-.449-.091-.433-.177-.417-.038-.442L48.04,52.5l-.144-.419-.049-.441-.1-.431-.237-.4-.108-.428.019-.466-.166-.414-.144-.42-.16-.415-.176-.409-.086-.439-.19-.4-.209-.394-.115-.432-.156-.418-.279-.362-.14-.425-.162-.417-.169-.415-.259-.367-.256-.367-.277-.352L44.3,43.05l-.31-.327-.269-.352-.285-.342-.247-.371-.337-.294-.229-.386-.374-.248-.258-.359-.25-.367-.385-.237-.239-.379-.335-.285-.366-.255-.293-.327-.261-.359-.314-.306-.312-.308-.361-.259-.295-.326-.369-.252-.249-.371-.343-.277-.319-.3-.283-.337-.356-.266-.276-.344-.314-.308-.348-.275-.248-.37L35.2,33.52l-.338-.285-.3-.321-.254-.363-.294-.326-.388-.243-.2-.408-.341-.284-.271-.344-.293-.326-.248-.363-.309-.314-.239-.37-.316-.31-.2-.4-.33-.3-.211-.39-.358-.285-.244-.367-.2-.4-.229-.376-.271-.346-.266-.35L28.84,25.7l-.149-.427-.24-.37-.218-.383L28,24.147l-.333-.318-.14-.429-.17-.411-.237-.378-.2-.395-.194-.4-.334-.323-.084-.455-.216-.387-.278-.353-.244-.369-.139-.425-.3-.342-.219-.384-.1-.449-.286-.345-.195-.394-.143-.421-.29-.341-.117-.289-.471-.171-.345-.3-.429-.132-.377-.239-.406-.179-.4-.188-.433-.127-.349-.29-.4-.2-.427-.139-.423-.146-.367-.266-.4-.209-.433-.137-.369-.267-.459-.08-.393-.209-.411-.175-.375-.245-.382-.226-.419-.133-.363-.252-.432-.111-.372-.239-.431-.114-.4-.174-.388-.209-.364-.263-.436-.094-.4-.164-.354-.281-.42-.136-.438-.1-.378-.226-.4-.18-.423-.135L8.926,9.6l-.371-.254-.414-.16-.419-.152-.372-.254-.416-.149-.392-.2-.394-.2-.452-.073-.4-.183-.37-.253L4.5,7.587l-.379-.224-.369-.248L3.318,7l-.389-.2-.392-.2-.344-.268-.326-.3L1.5,5.766l-.351-.278L.861,5.15.533,4.837.4,4.4.2,4.005.11,3.578,0,3.155l.018-.436.066-.432.044-.441L.3,1.475l.2-.349L.716.771,1.029.495,1.391.288l.33-.266L2.149,0" transform="translate(31.442 54.251)" fill="none" stroke="#213439" stroke-linecap="round" stroke-linejoin="round" stroke-miterlimit="10" stroke-width="0.832"/>
      <path id="Stroke_21" data-name="Stroke 21" d="M29.551,17.018l-.462.011-.381-.266h-.465l-.4-.2-.418-.149-.407-.181-.432-.1L26.159,16l-.435-.1-.409-.179-.414-.155-.444-.068-.425-.128-.428-.124-.44-.09L22.748,15l-.41-.179-.432-.112-.391-.23-.454-.052-.4-.2-.4-.2-.452-.061-.38-.245-.459-.047-.386-.228-.4-.2-.443-.1-.383-.238-.4-.2-.43-.121-.422-.147-.407-.181-.4-.2-.444-.095-.374-.261-.417-.16-.434-.124-.43-.133-.415-.173-.408-.189-.42-.163-.385-.248-.434-.127-.428-.141-.425-.146-.4-.2L9.49,9.685,9.04,9.6l-.4-.2-.4-.221-.43-.129L7.4,8.89l-.427-.127-.439-.116L6.12,8.453l-.455-.081L5.25,8.188l-.434-.134-.4-.209-.443-.118-.352-.3-.392-.218-.4-.2-.408-.2-.354-.293-.411-.2-.4-.239-.3-.355-.3-.357L.493,4.925.28,4.52.168,4.077l-.076-.45L0,3.173l.11-.452,0-.463.173-.426.253-.36L.8,1.119,1.1.8,1.466.554,1.823.295,2.249.174,2.662,0l.451.077L3.547.051,3.994.03l.432.1L4.843.3l.433.1L5.7.544l.429.123.432.114L6.98.94l.454.054.414.162.409.182.433.123.383.242.439.116.4.2.393.187.4.185.426.116.4.166.411.146.357.269.433.09.369.236.42.127.432.1.409.142.4.174.384.205.42.107.359.269.425.089.43.073.374.244.451.012.386.2.423.1.409.151.44.07.391.233.424.13.438.093.4.2.424.135.441.088.412.17.431.1.408.173.439.092.415.159.4.195.395.215.451.071.426.141.38.258.42.155.446.084.427.135.417.162.384.245.419.153.411.174.436.11.425.14.438.107.39.225.431.124.406.193.383.242.412.153" transform="translate(27.845 45.813)" fill="none" stroke="#213439" stroke-linecap="round" stroke-linejoin="round" stroke-miterlimit="10" stroke-width="0.832"/>
      <path id="Stroke_22" data-name="Stroke 22" d="M31.12,45.639l-.385-.22-.409-.193-.3-.357-.437-.162-.274-.374-.42-.193-.3-.338-.356-.274-.354-.275-.219-.413-.417-.215L27,42.244l-.346-.289-.305-.328-.206-.412-.312-.323-.334-.307-.182-.424-.287-.345-.316-.326-.223-.39-.281-.348-.257-.365L23.8,37.96l-.312-.335-.158-.425-.2-.4-.276-.363-.093-.454-.239-.379-.211-.395-.2-.4-.2-.4-.03-.469-.219-.4-.236-.391-.021-.474-.2-.393-.165-.4-.174-.4-.057-.443-.077-.436-.2-.4-.144-.416-.037-.444-.205-.4-.081-.431-.133-.417-.05-.437-.145-.413,0-.445-.12-.418-.179-.406.035-.451-.233-.4.016-.447-.078-.43-.085-.427-.093-.426-.134-.415-.135-.414-.007-.444-.107-.421-.213-.392-.127-.414-.068-.437-.157-.407-.307-.333-.153-.408-.3-.324-.145-.424-.34-.288-.234-.367-.262-.349-.314-.3-.321-.31-.3-.327-.29-.337-.317-.311-.325-.3-.4-.228-.253-.379-.387-.239-.243-.391-.383-.242-.279-.356-.345-.285-.347-.283-.388-.239-.275-.364-.322-.313-.4-.226-.342-.29-.329-.305-.346-.288-.321-.315-.279-.361-.326-.308L8.1,10l-.3-.332-.329-.3-.358-.271-.379-.245-.271-.365L6.129,8.19,5.789,7.9l-.377-.25-.36-.265L4.773,7.03l-.266-.362L4.2,6.355,3.825,6.1l-.313-.312L3.172,5.5l-.316-.31L2.6,4.827l-.311-.313-.27-.348-.292-.329-.261-.352-.24-.369L.983,2.752.662,2.435.513,2.014.35,1.607l-.2-.387L0,.808.075.383.2,0" transform="translate(44.646 39.412)" fill="none" stroke="#213439" stroke-linecap="round" stroke-linejoin="round" stroke-miterlimit="10" stroke-width="0.832"/>
      <path id="Stroke_23" data-name="Stroke 23" d="M0,.17.378,0,.8.034l.4.034.4.081.42.083L2.3.557l.419.172.335.282.261.37.4.206.33.286.3.317.33.283.335.278.35.261.369.239.293.328.4.2.29.333.353.262.266.36.318.294.338.272.351.261.315.3.313.306.327.289.333.286L10,6.994l.335.286.251.369.354.263.29.33.3.318.331.291.285.334.394.228.291.334.313.31.287.341.3.335.348.286.288.346.4.228.323.309.343.286.287.352.329.306.379.242.366.258.372.249.365.257.394.213.317.33.371.252.391.225.408.193.377.247.435.139.412.175.364.28.409.185.468.034.414.164.424.137.412.187.435.107.411.194.432.117.459-.014.442.05.43.176.449-.022.441-.042" transform="translate(49.139 34.647)" fill="none" stroke="#213439" stroke-linecap="round" stroke-linejoin="round" stroke-miterlimit="10" stroke-width="0.832"/>
      <path id="Stroke_26" data-name="Stroke 26" d="M1.13,0,1,.437.972.883l-.111.436-.156.422-.166.414-.264.354L0,2.858" transform="translate(55.181 67.916)" fill="none" stroke="#213439" stroke-linecap="round" stroke-linejoin="round" stroke-miterlimit="10" stroke-width="0.832"/>
      <path id="Stroke_27" data-name="Stroke 27" d="M0,4.509l.152-.375.033-.4L.266,3.34.219,2.935l0-.388.17-.4.242-.35L.943,1.5l.243-.351L1.41.794,1.537.4l.12-.4" transform="translate(57.383 60.461)" fill="none" stroke="#213439" stroke-linecap="round" stroke-linejoin="round" stroke-miterlimit="10" stroke-width="0.832"/>
      <path id="Stroke_28" data-name="Stroke 28" d="M0,6.03l.187-.4L.278,5.2l.173-.4.324-.316.219-.368.228-.365L1.5,3.419,1.677,3,2,2.708l.3-.318.366-.248.35-.259.3-.322.4-.2.32-.3L4.422.856,4.791.622,5.165.4,5.56.2,5.947,0" transform="translate(70.634 44.687)" fill="none" stroke="#213439" stroke-linecap="round" stroke-linejoin="round" stroke-miterlimit="10" stroke-width="0.832"/>
      <path id="Stroke_29" data-name="Stroke 29" d="M.84,0,.992.436l0,.457-.021.454-.115.444-.128.436-.108.439-.105.446L.255,3.5,0,3.87" transform="translate(58.191 36.684)" fill="none" stroke="#213439" stroke-linecap="round" stroke-linejoin="round" stroke-miterlimit="10" stroke-width="0.832"/>
      <path id="Stroke_30" data-name="Stroke 30" d="M8.292,8.428l.181-.41.221-.369.2-.389.174-.412L9.118,6.4l-.061-.442.006-.442-.049-.442-.243-.384-.157-.4-.2-.4-.316-.3L7.8,3.269,7.47,2.987l-.313-.3-.31-.314-.334-.285-.3-.313-.386-.226L5.515,1.24,5.257.908,4.866.734,4.546.472,4.178.288,3.8.18,3.382,0,2.946.042,2.522.135,2.11.255,1.667.32,1.3.554.953.832l-.3.317-.3.329L.139,1.87.021,2.3,0,2.737l.036.432.076.422.028.435.145.408.141.413L.6,5.253l.257.357.291.34.275.354.329.307L2.1,6.9l.315.318.3.333.264.37.4.238.258.379L4,8.792l.284.345.438.108.409.138.415.135.437.039.436-.04.417-.135.433-.108.355-.263.339-.282Z" transform="translate(43.912 33.823)" fill="none" stroke="#213439" stroke-linecap="round" stroke-linejoin="round" stroke-miterlimit="10" stroke-width="0.832"/>
      <path id="Stroke_31" data-name="Stroke 31" d="M4.571,0,4.32.337l-.33.275-.26.332-.275.32-.1.359-.3.205-.23.379-.258.357-.306.326-.208.392-.292.334L1.5,3.975l-.24.368-.231.374-.1.447-.261.357-.183.433-.256.406-.1.464L0,7.288l.057.447,0,.443.031.447.264.383.114.424.222.379.2.4.314.313.291.338.411.189.343.289.391.224.433.129.459-.032.158.012.032.112.294.017" transform="translate(49.828 6.876)" fill="none" stroke="#213439" stroke-linecap="round" stroke-linejoin="round" stroke-miterlimit="10" stroke-width="0.832"/>
      <path id="Stroke_32" data-name="Stroke 32" d="M4.507,0,4.285.359,3.971.648l-.159.41-.264.33-.234.255L3.1,1.915,2.76,2.21l-.269.351-.261.357-.145.438-.243.366-.263.351L1.3,4.417l-.164.411-.309.33-.195.394-.208.425-.1.467-.147.444L0,7.337l.025.448.018.444.167.417.061.439.136.424.285.348.237.367.264.353.33.294.33.3.4.2.387.229.438.1.446.032.16.013.039,0,.288.075" transform="translate(49.322 19.043)" fill="none" stroke="#213439" stroke-linecap="round" stroke-linejoin="round" stroke-miterlimit="10" stroke-width="0.832"/>
      <path id="Stroke_33" data-name="Stroke 33" d="M2.462,0,2.226.348l-.295.3L1.7,1.006l-.274.321-.188.291-.306.2-.149.446-.348.294-.245.37L0,3.332" transform="translate(50.92 31.508)" fill="none" stroke="#213439" stroke-linecap="round" stroke-linejoin="round" stroke-miterlimit="10" stroke-width="0.832"/>
      <path id="Stroke_34" data-name="Stroke 34" d="M3.169.153,2.69.125,2.227,0,1.781.185,1.3.242.984.6.593.867l-.239.4L.2,1.653,0,2.028l.078.421.029.4.013.426.234.354.19.371.262.346.431.073" transform="translate(26.889 45.845)" fill="none" stroke="#213439" stroke-linecap="round" stroke-linejoin="round" stroke-miterlimit="10" stroke-width="0.832"/>
    </g>
    <g id="Group_17" data-name="Group 17" transform="translate(575.564 1114.989)">
      <path id="Fill_15" data-name="Fill 15" d="M84.847,167.492h0l-.5-.117-.929.1-.556-.03-.452.034-1.508-.062-.536.042-.5-.159-.446-.008-.456.05-.552-.026-.482-.089-.53.056-.5-.179-.47.012-.524-.1h-.435l-.532.05-.972-.24-.464,0-.544-.085L72.4,166.7l-.442-.159-.452-.061-1.032-.046-.956-.214-.464-.05-.54-.161-.411-.077-.526.018-.53-.157-.456-.091-.931-.3-.6-.034-.407-.192-.937-.127-1.008-.294-.433-.153-.55-.052-.466-.171-.442-.095-.52-.214-.427-.1-.5-.167-.446-.186-.454-.075-1.925-.71-.927-.19-.518-.22-.435-.121-.494-.2-.419-.26-.516-.1-1.371-.607-.45-.25-.883-.335-.52-.145-.437-.234-.423-.163-.474-.242-.431-.173-.913-.47-.4-.25-.536-.173-.381-.262-.49-.212-.411-.284-.4-.183-.456-.282-.409-.163-1.306-.764-.55-.224-.308-.29-.546-.192-.377-.337-.373-.27-.823-.45-.446-.308-.4-.2-.448-.288-.387-.317-.409-.212-.446-.3-.405-.341-.381-.26-.405-.2-.448-.319-.476-.29-.317-.325L34.2,151.2l-.812-.641-.466-.31-.284-.321-.462-.212-.474-.363-.266-.359-.435-.286-.3-.319-.482-.26-.72-.661-.377-.248-.782-.663-.667-.74-.446-.308-.339-.361-.3-.379-.359-.28-.383-.367-.367-.272-.762-.7-.409-.417-.24-.409-.31-.339-.351-.27-.433-.427-.23-.363-.433-.294-.331-.369-.308-.454-.294-.349-.4-.335-.3-.393-.665-.673-.337-.4-.306-.417-.31-.339-.315-.427-.365-.357-.875-1.171-.244-.45-.643-.72-.317-.391-.583-.823-.222-.46-.3-.327-.325-.413-.476-.9-.357-.419-.192-.4-.377-.405-.222-.444-.518-.8-.248-.452-.272-.351-.268-.472-.28-.343-.333-.55-.1-.4-.361-.365-.482-.875-.175-.462-.325-.472-.123-.429-.3-.442-.353-.909-.238-.369-.214-.516L7.8,118.844l-.306-.468-.137-.48-.192-.393-.24-.4-.2-.516-.111-.466L6.32,115.7l-.4-.905-.165-.5-.1-.478-.216-.391-.4-.952-.153-.5-.351-.994-.042-.427-.27-.5-.054-.46-.159-.421-.256-.514-.143-.913-.278-.47-.26-.946-.194-1-.155-.423-.151-.571-.028-.446-.169-.409-.117-.546-.052-.484-.155-.429-.111-.534-.151-.512-.038-.448L1.569,100l-.022-.454-.153-.514-.03-.5-.1-.421L1.2,97.578l-.02-.52-.081-.442-.133-.44-.073-.546,0-.5L.8,94.677l-.038-.544-.085-.444-.141-.5.008-1.04L.5,91.685.26,90.7l.091-.52L.187,89.23l.03-.5L.111,88.22l.1-.524-.026-.452-.071-.46-.03-1.036L0,85.242l.107-.508-.036-.446L.121,82.8,0,82.3l.052-.552.012-.538.1-.452-.006-.454.04-.524L.137,79.3l.095-.5L.214,78.3l.149-1,.022-.468-.06-.5.2-.99-.01-.5.1-.476-.038-.534.192-.482-.012-.429.073-.548.139-.522.073-.409-.046-.5.071-.528.236-1.01.125-.427-.034-.538.242-.5.161-.923.048-.569L2,66.027l.048-.448.119-.524.149-.454.05-.593.19-.391.05-.562.185-.405.067-.534.171-.429.081-.454.363-.99.159-.919.167-.577.2-.389.1-.571.24-.405.143-.433L4.6,56.43l.2-.454.123-.433.212-.456.129-.575.234-.375.089-.427.175-.514.22-.48.244-.409.121-.54.244-.433.129-.411.905-1.816.129-.423.19-.484.232-.468.286-.421.349-.97.276-.415.214-.405.149-.425.262-.482.329-.442.448-.891.308-.393.625-1.26.3-.456.2-.466.849-1.183.224-.5.284-.347.248-.53.329-.323.732-1.256.869-1.208.659-.78.565-.865.3-.3.2-.488.4-.331.268-.5.337-.3.294-.456.337-.308.248-.379.345-.411.431-.363.274-.335.3-.47.337-.28.218-.385.677-.817.4-.317.3-.423,1.4-1.389.274-.359.421-.375.278-.341.718-.724.393-.343.4-.407.385-.212.353-.417.373-.236.369-.442.4-.23.323-.314.3-.357,1.137-1.032.468-.3.347-.286.331-.329.393-.337,1.266-.857.335-.3.435-.306.355-.3.327-.335.522-.367.4-.159.3-.31.433-.333.446-.28.425-.2.383-.4.863-.45.357-.286.452-.25.343-.31.524-.345.478-.169.768-.433.361-.4.544-.208.833-.442.446-.327.472-.169,2.982-1.623.956-.389.423-.216.474-.3.409-.119.393-.341.994-.272.9-.518.893-.26.433-.306.536-.085,1.369-.639.488-.107,2.292-.788.417-.2L58.9,3.867l.516-.23.446-.069.478-.208.482-.111.5-.171.944-.135.921-.319.5-.127.494-.071.435-.157,1.016-.222.554-.028,2.335-.552.516-.05.528-.153.448-.018.484-.171.567.012.419-.026.429-.151.514-.127L72.96.716l.528.03L75.444.47,76,.516,76.42.464,76.9.325l.546.006.476-.024.5-.095.488.079L79.4.169,80.373.1l.532.01.484-.006L81.9.042l.482.095L82.869.03l.562.087.4,0L84.357,0l.562.093,1.435.081L86.8.115l1.042.056.506-.042.488.095.514-.048.5.145.524.008.488.109L91.3.446,93.29.6l.542.133.44.038,1.073.046.476.161.905.117,1,.2.44-.014.554.095.524.171.409.085.47,0,.623.1.427.177.45.071.524.163.429.044.512.1,1.454.377.454.171.554.036,1.405.462,1.429.325.956.411,1,.218.839.385.585.077,1.272.611.569.065.9.375.433.242.546.137.429.258,1.294.56.456.1.587.244.361.266.506.171.419.274.808.415.558.127.853.466.437.2.46.3,1.258.7.536.165.405.29.468.244.329.286.5.173.885.554.339.312,1.357.671.387.315.383.2.889.631.306.306.53.246.3.329.448.246.379.319.383.244.5.23.375.325.371.4.308.232.53.208.314.437.46.274.3.329.9.538.343.361.72.637.375.234.411.385.448.327.3.405.274.284.482.254.3.462.716.593.391.28.45.387.282.363.806.716.208.367.433.256.292.472.319.331.427.367L145,26.6l.46.3.31.385.383.365.25.375.343.294.353.433.3.429.308.306.335.405.266.429.665.7.314.44.345.4.216.387.389.361.254.377.4.4.24.437.272.353.256.415.377.385.52.845.28.363,1.123,1.637.349.474.165.442.244.387L155,39.5l.367.417.236.433.169.48.268.353.512.9.192.44.359.433.192.46.236.371.242.458.3.429.357.883.323.411.248.506.131.488.177.411.244.363.244.468.206.476.232.393.387.968.153.5.2.389.948,2.3.141.464.306.484.123.48.185.4.948,2.845.121.512.151.431.23.536.038.456.157.419.278.968.218.532.04.5.107.427.169.415.224,1.028.2.5.079.966L166,66.99l.179.508.244,1.933.177.532.02.5.232.877.063.595-.054.466.135.4.163,1.04.038,1.028.063.454.145.516-.1.506.129.466-.048.5.125.478-.024.5.121.506-.077.5.095.47-.014.534.073.492-.093.486.171,1.006-.117.48.111.46-.067,1.022.06.514-.1.49.075.5-.133.49.069.423.012.595-.139.5-.026.458.034,1.466-.131,1.032.032.508-.19.476.03.472-.117.534-.03.921-.189,1.022-.056.476.044.494-.131.534-.042.446-.22,1-.067.544-.153.421-.016.446-.173,1.022-.173.486-.044.454-.76,3.421-.149.5-.107.54-.206.417-.224.929-.079.558-.192.417-.113.522-.185.411-.1.552-.4.837-.079.552-.206.454-.115.425-.248.508-.258.891-.228.5-.51,1.46-.248.353-.121.538-.228.375-.107.514-.206.452-.262.419-.173.55-.306.405-.177.385-.139.433-.679,1.339-.161.546-.569.841-.808,1.74-.274.425-.218.518-.587.748-.2.5-.3.4-.19.393-.31.448-.484.933-.325.325-.214.391-.3.435-.169.4-.353.528-.317.292-.216.49-.319.381-.262.462-.359.351-.242.355-.292.371-.238.508-1.581,1.919-.268.433-.321.327-.6.883-.351.286-.631.881-.353.224-.238.46-.706.72-.27.355-.728.685-.331.486-.377.278-.306.341-.423.351-.276.335-.72.722-.341.464-.427.27-.339.29-.3.337-.359.329-.353.47-.812.573-.357.3-.345.387-.4.294-.694.73-.375.254-.377.409-.861.524-.712.6-.351.417-.413.272-1.631,1.214-.389.175-.327.379-.464.351-.464.2-.722.544-.47.274-.343.28-.446.244-.405.377-.437.236-.865.571-.472.175-.335.2-.417.381-1.288.663-.407.365-.512.111-.319.268-1.433.8-.452.115-.4.212-.46.317-.413.137-.429.335-.46.188-.381.232-1.839.841-.526.149-.425.171-.474.26-.484.127-1.29.585-.482.272-2.327.712-.391.242-.5.218-1,.266-.437.167-.534.121-.407.165-.554.107-1.435.506-.446.032-.488.2-.49.079-1.448.47-.437.024-.528.212-.466.02-.444.117-.435.163-.581.147-.5.026-.442.083-.5.034-.446.121-1.51.226-.974.306-.5-.058-.458.163-.565-.012-.437.063-.427.133-.55.067-.506.1-.55-.046-.425.056-.54,0-.427.081-.544.016-.98.177-.478-.058-.516.139-.5,0-.5-.087-.956.181-.544-.036-.454.03-.534-.026-.5.058Zm-.452-.81h0l.494.115.435-.048.552.026.456-.03.492.028,1.014-.186.558.1.381-.008.51-.151.522.062.921-.163.552-.018.44-.081h.558l.45-.054.518.036.442-.089.522-.06.421-.131.542-.077.49.006.492-.177.52.062.875-.272,1.534-.234.5-.131.5-.032.448-.085.508-.028.446-.117.435-.163.585-.147.435-.018.522-.212.454-.024.887-.318.5-.139.484-.081.53-.21.452-.032,1.367-.486.538-.1.4-.163.538-.123.413-.161,1-.264.4-.177.472-.278,2.325-.712.4-.232,1.383-.627.494-.133.4-.224.5-.2.516-.147,1.754-.8.391-.234.456-.192.462-.351.425-.141.363-.26.552-.288.44-.111.373-.236.891-.47.4-.341.5-.109.4-.333.45-.208.812-.442.393-.365.425-.252.492-.185.784-.53.425-.23.4-.375.437-.234.335-.276.472-.276.772-.573.48-.216.327-.258.429-.456.427-.192,1.935-1.421.286-.353.8-.679.849-.522.363-.4.377-.256.663-.7.411-.306.3-.347.417-.353.788-.558.3-.421.365-.335.31-.345.411-.351.4-.258.244-.359.738-.748.3-.357.427-.359.345-.379.353-.258.284-.439.732-.683.262-.349.677-.694.244-.5.46-.292.583-.837.353-.29.554-.837.321-.325.238-.393.7-.784.871-1.129.228-.494.579-.774.363-.363.218-.393.319-.393.256-.544.343-.317.248-.379.171-.407.31-.464.28-.484.314-.317.427-.849.306-.44.2-.4.3-.409.212-.52.585-.742.2-.482.27-.415.821-1.758.548-.812.141-.506.681-1.329.129-.413.23-.486.3-.409.153-.516.27-.421.163-.371.131-.571.226-.373.137-.573.266-.377.46-1.353.224-.486.266-.907.244-.5.107-.413.2-.454.079-.55.411-.867.093-.53.189-.419.113-.524.187-.405.05-.444.264-1.075.2-.407.077-.442.256-.974.645-2.9.06-.536.171-.47.153-.915.034-.558.157-.431.046-.452.224-1.016.042-.444.113-.474-.032-.452.137-1.058.111-.5,0-.429.034-.51.1-.49-.034-.528.19-.482-.022-.425.131-1.04-.036-1.431.04-.6.123-.442-.008-.446-.089-.522.137-.492-.073-.486.1-.5L167,84.26l.069-.96-.129-.528.125-.514-.173-.968.1-.508-.06-.435.01-.512-.1-.514.077-.492-.113-.472.024-.49-.131-.5.048-.5-.139-.5.1-.506-.109-.407-.077-.536-.038-1.02-.143-.937-.171-.5.062-.546-.042-.458-.129-.413-.111-.508-.024-.5-.173-.514-.1-.966-.137-.942-.159-.433-.385-1.53-.077-.939-.171-.411-.222-1.022-.169-.411-.129-.528-.044-.492-.179-.405-.474-1.522-.038-.444-.185-.4-.175-.5-.123-.52-.423-1.405-.175-.417-.327-.958-.192-.421-.127-.476-.3-.466-.143-.474-.185-.411-.169-.5-.786-1.764-.335-.966-.185-.454-.228-.387-.429-.907-.254-.387-.222-.51-.137-.494-.194-.379-.345-.458-.353-.875-.268-.373-.506-.877-.192-.454-.359-.427-.2-.458-.474-.827-.325-.454-.163-.478-.194-.343-.31-.345-.321-.415-.312-.5-.159-.425-.569-.758-1.641-2.454-.377-.389-.26-.423-.278-.365-.242-.431-.377-.365-.25-.375-.415-.393-.226-.405-.3-.345-.308-.433-.7-.736-.26-.425-.284-.343-.329-.329-.615-.825-.4-.351-.254-.381-.335-.312-.306-.373L144.5,27.1l-.284-.444-.343-.278-.419-.442-.222-.359-.448-.264-.27-.478-.754-.649-.282-.367-.353-.294-.786-.6-.448-.4-.23-.353-.462-.264-.343-.359-.294-.391-.363-.252-.4-.377-.367-.226-.782-.689-.333-.351-.905-.538-.3-.327-.5-.317-.242-.337-.468-.2-.393-.3-.385-.407-.306-.264L132.4,16.4l-.464-.294-.387-.321-.5-.286-.29-.315-.518-.236-.329-.331-.385-.25-.415-.315-.391-.206-.405-.323-1.391-.7-.345-.317-.786-.486-.558-.21-.347-.3-.4-.206-.4-.28-.431-.121-.5-.242-1.308-.8-.853-.413-.4-.23-.55-.123-1.276-.714-.532-.188-.373-.272-.419-.171-.506-.121-1.357-.591-.415-.248-.534-.129-.435-.25-.829-.341-.571-.065-1.3-.621-.544-.065-.883-.4-.935-.2-.514-.2-.472-.222-1.371-.3-1.411-.46-.567-.038-.466-.181-1.865-.448L102,2.808l-.538-.163-.516-.087-.427-.177-.448-.067-.492,0-.518-.109-.514-.171-.437-.075-.437.012-.55-.087-.506-.117-.448-.042-.512-.085-.482-.159-1.458-.077-.536-.133-2.4-.157-.512-.109L89.714.994,89.29.871,88.8.919l-.492-.1-.452.036L86.819.8l-.429.06L85.847.851,84.841.774,84.381.7l-.47.111L83.371.8l-.48-.073-.5.113-.514-.1-.437.056L80.9.8,80.393.79l-.927.064-.524.137L78.428.909l-.433.079-.538.028-.468,0-.437.121L76,1.2l-.516-.038-.952.161-1.018.113L72.978,1.4l-.429.056-.442.111-.536.175-.5.028-.466-.008-.516.167-.452.018-.508.151-.494.042L66.275,2.7l-.558.032-.907.2-.5.173-.492.069-.893.26-.518.188-.958.137-.433.153-.488.113-.514.22-.444.069-.405.192-.5.179-.976.272-.393.2-2.369.814-.492.109-1.4.651-.421.067-.448.292-.917.268-.9.516-.9.252-.458.353-.429.125-.369.248-.946.454-.49.179L46.39,9.7l-1.78.917-.391.246-.456.244-.466.171-.353.272-.931.494-.423.165-.391.4-.845.47-.5.183-.375.252-.4.353-.435.236-.4.319-.817.423-.411.421-.454.212-.383.242L35.814,16l-.429.407-.435.171-.369.264-.3.317-.4.343-.429.3-.343.3-1.27.863-1.083.96-.46.29-1.046.952-.3.355-.446.423-.377.214-.351.429-.375.236-.377.435-.4.222-.3.323-.4.351-.681.685-.294.359-.415.365-.258.345L22.858,27.32l-.337.46-.4.306-.577.7-.3.49-.341.284-.232.377-.347.421-.431.363-.278.335-.3.448-.335.3-.3.464-.325.284-.276.514-.325.268-.236.508-.325.323-.526.81-.319.407L16,35.773l-.236.369-.6.8-.254.4-.532.925-.31.306-.218.486-.282.347-.222.5-.312.385-.522.774-.183.425-.31.466-.645,1.3-.317.409-.187.415-.25.458-.329.44-.214.393-.145.419-.252.48-.266.4-.135.431-.224.556-.286.411-.194.4-.31.885-.907,1.823-.135.423-.246.444-.127.554-.258.429-.187.417-.153.437-.133.56-.234.369-.1.516-.214.448-.117.425-.2.464-.095.454-.2.573-.222.375-.089.544-.216.413-.123.442-.169.95-.363.988-.089.5-.167.417-.073.56-.183.4-.052.571-.19.391-.032.528-.155.47-.1.452-.067.542L2.5,66.65l-.028.446-.2,1.1-.185.379.03.478-.282,1.008-.149.9.046.514L1.631,72l-.137.512-.06.448.02.512-.187.47.034.468-.1.5.006.494-.185.962.05.448-.026.55L.9,78.349l.02.5-.089.478.052.444-.04.562.01.5-.113.5-.006.458L.7,82.252l.121.494L.76,84.264l.046.51-.1.486.067.431L.8,86.718l.071.456.036.569-.095.474.1.468-.032.5.169,1.008-.087.488.218.9.048.546,0,.978.121.433.1.516.034.536.1.47,0,.536.056.446.131.421.093.526.077,1.008.107.442.036.51.155.522.02.446.181.51.04.46.135.438.1.52.173.5.052.494.093.452.2.51.03.466.121.444.159.44.448,1.9.294.52.145.927.21.393.214.583.05.425.272.514.046.466.645,1.81.2.435.264.51.1.49.145.433.369.841.331.506.113.488.161.417.23.373.228.476.141.478.254.367.9,1.81.2.488.236.363.377.95.312.472.121.425.308.435.175.468.429.772.407.391.131.542.236.369.29.359.274.48.274.353.516.881.268.4.218.429.383.415.194.405.349.4.462.881.272.339.379.429.214.456,1.153,1.494.383.421.236.442.577.73.272.4.333.325.329.441.31.339.619.786.677.689.3.4.355.294.359.423.3.446.27.294.494.357.246.389.327.317.367.286.417.46.236.4,1.032.966.381.286.389.371.421.339.31.389.294.313.44.3.345.357.339.4.716.6.377.248.74.671.5.28.31.331.478.327.274.367.329.24.55.276.3.341.379.24.806.641.46.278.315.327.389.224.429.308.4.2.446.3.407.341.381.26.466.246.383.319.383.246.409.2.45.308.845.464.429.313.343.3.5.143.379.355.405.145.482.246.865.538.409.163.47.288.413.194.425.29.492.21.365.252.516.165.839.486.433.216.435.175.47.24.429.165.44.232.446.119.958.365.911.478.863.357.581.125.427.27.405.159.442.125.5.216.9.181,1.9.7.516.089.458.192.448.149.452.107.514.214.423.089.464.165.546.052.931.314.464.123,1.044.155.387.183.532.016.956.306.444.087.454.133.492-.018.524.1.514.159.427.04.978.216.966.04.593.085.425.155.446.024.526.083.478-.006.522.107.446.125.439-.04.532,0,.512.093.526-.012.47.169.472-.052.54.1.45.024.442-.052.637.022.425.135.431-.034.522,0,1,.06.46-.032.538.032,1-.107Z" transform="translate(0 0.111)" fill="none" stroke="#f7bfa0" stroke-miterlimit="10" stroke-width="0.5"/>
    </g>
  </g>
</svg>
