<svg xmlns="http://www.w3.org/2000/svg" width="214.225" height="149.834" viewBox="0 0 214.225 149.834">
  <g id="Group_11473" data-name="Group 11473" transform="translate(26.031 -264.793)">
    <g id="Group_11469" data-name="Group 11469" transform="translate(-25.534 414.124) rotate(-90)">
      <path id="Path_94" data-name="Path 94" d="M122.063,3.689s-2.115,18.935-2.679,26.663a47.294,47.294,0,0,0,.543,9.3c.738,3.808,4.1,10.92,4.941,14.7,1.849,8.292,3.155,25.294,3.888,33.757.223,2.568.109,7.763.6,10.293,1.351,6.941,9.062,26.791,9.062,26.791s6.135,16.273,7.567,21.88a46.739,46.739,0,0,1,1.56,9.239c-.018.947-.178,2.972-.772,3.71a9.98,9.98,0,0,1-6,2.682,7.379,7.379,0,0,1-3.785-2.11c-2.3-2.712-3.551-10.048-4.779-13.382-1.055-2.862-3.2-8.572-4.331-11.408-1.4-3.518-5.815-13.987-5.815-13.987l-6.758-11.6-1.7.766-.706,5.039s3.135,22.3,4.07,29.748c.841,6.693,2.419,20.093,3.066,26.808.4,4.1,2.529,12.49,1.292,16.417a10.753,10.753,0,0,1-3.888,4.725,9.947,9.947,0,0,1-5.478.32,8.626,8.626,0,0,1-3.314-2.555c-.818-1.188-1.351-4.116-1.657-5.525-1.144-5.294-2.057-16.119-2.919-21.465-.893-5.542-3.262-16.525-4.121-22.072-.651-4.2-2.081-16.889-2.081-16.889l-1.092-2.242-1.4,3.527s1.037,14.852,1.158,19.812c.147,6.082-.391,18.253-.245,24.336.152,6.235,1.092,18.678,1.455,24.9.155,2.657,1.329,8.061.621,10.625a7.873,7.873,0,0,1-2.122,3.123,12.852,12.852,0,0,1-5.193,1.636,7.77,7.77,0,0,1-3.573-.68c-1.332-.888-2.955-3.85-3.523-5.347-1.754-4.63-2.305-14.678-2.8-19.6-.526-5.24-.921-15.772-1.229-21.03-.145-2.49-.436-7.47-.582-9.96-.271-4.649-.539-13.97-1.086-18.595-.227-1.913-1.36-7.583-1.36-7.583l-2.077-1.1L72.02,128.63s-1.411,3.535-1.71,4.765c-1.234,5.048-2.185,15.436-2.789,20.6-.907,7.748-2.256,23.295-3.07,31.053-.241,2.294-.644,6.891-1.017,9.166a32.274,32.274,0,0,1-.789,3.6c-.321.979-.918,3.058-1.668,3.763a6.2,6.2,0,0,1-2.5.924,15.626,15.626,0,0,1-3.673-.12,9.787,9.787,0,0,1-3.556-1.013,9.567,9.567,0,0,1-2.053-3.768c-.656-2.291-.522-7.134-.556-9.518-.065-4.479.381-13.434.535-17.912.2-5.789.552-17.372.91-23.153.327-5.282,1.787-21.094,1.787-21.094l-1.058-14.488-1.5-14.349-2.807-6.279-1.574-.352S38.3,101.06,35.982,104.526c-2.281,3.411-6.454,10.61-9.431,13.434-2.935,2.782-10.009,6.959-13.714,8.575-1.869.816-5.891,2.606-7.873,2.127-1.62-.393-4.573-2.86-4.927-4.488-.315-1.454,1.476-4.261,2.346-5.468,1.363-1.889,5.5-4.379,6.969-6.182,3.442-4.217,8.586-13.921,10.893-18.851,2.124-4.543,4.867-14.252,6.9-18.838,2.484-5.616,8.2-16.516,11.389-21.767,3.06-5.041,9.48-14.961,13.067-19.644,1.152-1.5,4.122-4.013,5-5.691,2.865-5.489,5.924-24.044,5.924-24.044L87.47,0Z" transform="translate(1.282)" fill="none" stroke="silver" stroke-linecap="round" stroke-linejoin="bevel" stroke-width="1"/>

    </g>
    <text id="fit_REVIEW" data-name="fit REVIEW" transform="translate(51 344)" fill="silver" font-size="28" font-family="SegoeUI, Segoe UI" letter-spacing="0.167em"><tspan x="-8.374" y="0">L</tspan></text>
  </g>
</svg>
