<?xml version="1.0" encoding="UTF-8" standalone="no"?>
<!DOCTYPE svg PUBLIC "-//W3C//DTD SVG 20010904//EN"
              "http://www.w3.org/TR/2001/REC-SVG-20010904/DTD/svg10.dtd">

<svg xmlns="http://www.w3.org/2000/svg"
     width="2.77778in" height="5.55556in"
     viewBox="0 0 200 400">
  <path id="Card" 
        fill="black" stroke="none" stroke-width="1"
        d="M 165.00,32.00
           C 165.00,32.00 165.00,100.00 165.00,100.00
             165.00,100.00 56.00,100.00 56.00,100.00
             56.00,100.00 56.00,32.00 56.00,32.00
             56.00,32.00 165.00,32.00 165.00,32.00 Z" />
  <path id="hand" 
        fill="grey" stroke="none" stroke-width="1"
        d="M 144.67,182.67
           C 144.67,182.67 145.33,169.00 146.33,158.67
             147.33,153.67 158.33,64.67 158.33,64.67
             158.33,64.67 158.67,56.33 149.67,55.67
             141.33,53.67 139.67,62.33 139.67,62.33
             139.67,62.33 124.33,150.00 124.33,150.00
             124.33,150.00 119.33,153.00 116.00,147.67
             116.00,147.67 125.00,49.00 125.00,49.00
             125.00,49.00 126.67,41.67 116.67,39.67
             105.67,38.33 105.33,47.67 105.33,47.67
             105.33,47.67 93.67,144.33 93.67,144.33
             93.67,144.33 92.00,151.00 86.00,146.67
             86.00,146.67 86.00,60.33 86.00,60.33
             86.00,60.33 85.67,49.00 77.33,49.33
             68.00,47.67 68.33,60.67 68.33,60.67
             68.33,60.67 66.00,152.67 66.00,152.67
             66.00,152.67 64.00,158.00 59.00,153.67
             59.00,153.67 52.67,98.00 52.67,98.00
             52.67,98.00 51.67,92.33 44.00,92.00
             37.67,94.00 37.33,101.33 37.33,101.33
             37.33,101.33 42.00,148.67 41.33,159.00
             41.33,159.00 42.33,167.67 42.00,183.67M -49.67,37.00" />

</svg>
