<svg xmlns="http://www.w3.org/2000/svg" width="302.5" height="473.569" viewBox="0 0 302.5 473.569">
  <path id="Path" d="M279.047,221.648c-14.934-31.26-32.119-63.839-51.083-96.86C216.829,105.4,204.945,87.167,192.3,67.754l-1.21-1.875c-4.95-7.59-10-15.345-15.091-23.366L148.948,0,113.077,56.274c-5.1,7.958-9.912,15.459-14.619,23.151C66.387,131.719,38.128,179.453,17.179,234.13,8.974,255.545.515,281,.031,307.358c-1.646,87.99,63.161,162.486,144.476,166.072,2.057.089,4.091.139,6.136.139.5,0,.992,0,1.5-.013,78.337-.786,142.757-66.031,149.837-151.766,3.231-39.091-9.113-71.239-22.934-100.142" fill="#fff9f7"/>
</svg>
