<svg xmlns="http://www.w3.org/2000/svg" width="290.072" height="454.113" viewBox="0 0 290.072 454.113">
  <path id="Path" d="M267.583,212.543c-14.321-29.976-30.8-61.216-48.985-92.881-10.677-18.591-22.073-36.076-34.2-54.691l-1.16-1.8c-4.746-7.278-9.586-14.715-14.471-22.406L142.829,0l-34.4,53.962c-4.886,7.631-9.5,14.824-14.019,22.2C63.66,126.308,36.562,172.08,16.474,224.511,8.606,245.046.494,269.457.029,294.731-1.549,379.106,60.6,450.541,138.57,453.98c1.973.085,3.922.134,5.884.134.476,0,.952,0,1.439-.012a134.813,134.813,0,0,0,36.427-5.383c57.791-16.815,101.6-71.665,107.254-140.148,3.1-37.485-8.738-68.312-21.991-96.028" fill="#fff9f7"/>
</svg>
