<svg width="35" height="34" xmlns="http://www.w3.org/2000/svg"><g fill="#F7BDA3" fill-rule="evenodd"><path d="M6.192 17.727c.573-.418 1.528-.233 2.119.02 1.01.433 1.633 1.366 2.12 2.305.163.317.302.668.457 1.011.192.427.408.84.728 1.158.98.971 1.41-.154 1.593-1.492.15-1.097.133-2.336.116-2.678-.09-1.786-.364-4.105-.37-5.9-.002-.895-.285-2.094.266-2.87.493-.691 1.458-.307 1.657.38.246.852.161 1.894.197 2.769.048 1.15.117 2.619.21 3.953.052.744.311 2.707.795 2.67.396-.03.652-1.303.734-1.883.018-.128.028-.223.029-.262.012-.55.036-1.688.074-2.237.114-1.578.175-3.295.13-4.878-.034-1.236-.19-3.406 1.01-3.406 1.218 0 1.061 2.153 1.026 3.754-.026 1.201-.084 3.876-.087 5.077 0 .306-.134 4.344.468 4.453.604.108.716-1.956.921-3.135.152-.873.336-2.001.44-2.915.098-.857.304-1.877.437-2.926.076-.601.313-1.349 1.144-1.264.85.086.83 1.238.771 1.65-.194 1.352-.324 2.451-.46 3.497a128.24 128.24 0 01-.739 4.887c-.19 1.097-.274 1.921-.073 2.024.387.196 1.31-1.16 2.013-2.303.18-.293.345-.572.483-.807.673-1.147.768-1.763 1.47-3.062.212-.391.77-.712 1.202-.395.451.33.346.96.208 1.416-.307 1.024-.556 1.69-.969 2.502-.112.22-.236.45-.376.702-.696 1.247-1.38 2.514-1.803 3.884-.434 1.404-.916 4.12-1.298 5.538-.18.669-.403 1.341-.797 1.92-.046.039-.156.282-.345.572-.18.274-.43.59-.765.816a3.025 3.025 0 01-.173.107c-.617.349-1.413.497-1.964.58l-.012.002-.07.01.05-.007-.045.006-.004.001-.01.002-.015.002c-1.038.145-2.143.218-3.187.026a5.547 5.547 0 01-.765-.194 4.917 4.917 0 01-.7-.293c-1.196-.617-1.978-1.653-2.678-2.762-.887-1.406-1.549-4.073-2.173-5.616-.355-.875-.706-1.79-1.124-2.665a12.368 12.368 0 00-.965-1.702c-.29-.418-1.61-1.526-.901-2.042"/><path d="M9.215 32.567a.326.326 0 01-.158-.04A17.308 17.308 0 010 17.307C0 7.766 7.765 0 17.308 0s17.308 7.765 17.308 17.308c0 5.95-3 11.412-8.026 14.61a.331.331 0 01-.354-.557c4.833-3.078 7.718-8.33 7.718-14.053 0-9.179-7.467-16.646-16.646-16.646C8.129.662.662 8.129.662 17.308c0 6.11 3.337 11.718 8.71 14.637.16.088.22.289.134.45a.328.328 0 01-.291.172"/></g></svg>