<svg xmlns="http://www.w3.org/2000/svg" width="19" height="15" viewBox="0 0 19 15">
  <g id="twitter" transform="translate(0 -0.145)">
    <path id="Path" d="M19,1.776a8.307,8.307,0,0,1-2.244.6A3.785,3.785,0,0,0,18.469.282,7.923,7.923,0,0,1,16,1.2,3.957,3.957,0,0,0,13.154,0,3.84,3.84,0,0,0,9.261,3.786a3.791,3.791,0,0,0,.09.863A11.135,11.135,0,0,1,1.323.69,3.728,3.728,0,0,0,.79,2.6,3.763,3.763,0,0,0,2.52,5.748,3.933,3.933,0,0,1,.76,5.282v.042A3.831,3.831,0,0,0,3.881,9.043a4,4,0,0,1-1.021.125A3.542,3.542,0,0,1,2.122,9.1a3.92,3.92,0,0,0,3.64,2.637,7.973,7.973,0,0,1-4.83,1.614A7.506,7.506,0,0,1,0,13.3,11.2,11.2,0,0,0,5.976,15,10.847,10.847,0,0,0,17.062,4.23c0-.167-.006-.329-.014-.489A7.653,7.653,0,0,0,19,1.776Z" transform="translate(0 0.145)" fill="#fff"/>
  </g>
</svg>
