<svg version="1.1" id="Capa_1" xmlns="http://www.w3.org/2000/svg" xmlns:xlink="http://www.w3.org/1999/xlink" x="0" y="0" viewBox="0 0 22.4 38" xml:space="preserve"><style>.st0{opacity:.9}.st1{fill-rule:evenodd;clip-rule:evenodd;fill:#1d1d1b}</style><g class="st0"><defs><path id="SVGID_1_" class="st0" d="M11.2 0C3.7 0 0 11.6 0 20.8 0 29.9 1.5 38 11.3 38s11.1-10.5 11.1-17.2S18.6 0 11.2 0z"/></defs><use xlink:href="#SVGID_1_" overflow="visible" fill-rule="evenodd" clip-rule="evenodd" fill="#2c4349"/><clipPath id="SVGID_2_"><use xlink:href="#SVGID_1_" overflow="visible"/></clipPath></g><path class="st1" d="M9.9 24.1c-.1 0-.1 0-.2-.1 0 .2.1.2.2.1-.1.1 0 .1 0 0 0 .1 0 0 0 0zM10.2 24.3c-.1 0-.1 0 0 0-.1 0-.1.1-.1.1v.1h.2c-.1-.1-.1-.1-.1-.2zM10.2 19.1s-.1.1 0 0c-.1.1-.1.1 0 0-.1.1 0 .1 0 0 0 .1 0 0 0 0zM10.2 25.6c-.1 0-.1 0 0 0-.1.1-.1.1 0 0 0 .1 0 0 0 0zM10.2 19.4h.1c-.1-.1-.1-.1-.1 0 0-.1 0 0 0 0zM10.2 23.1c0 .1 0 0 0 0zM10.2 26c0-.1-.1 0-.1 0s-.1 0-.1.1h.1c0-.1.1 0 .1-.1zM10.1 15.8s0 .1 0 0c.1.1.1.1.2.1-.1 0-.1-.1-.2-.1zM10.1 15.4s0 .1 0 0c.1.1.2 0 .1 0 0 0 0-.1-.1 0 0-.1 0 0 0 0zM10.1 26.7c0 .1 0 .1 0 0v.1c.1 0 .1 0 0-.1.1.1 0 0 0 0zM10 29.2c0 .1 0 .1 0 0 .1.1.1.1 0 0 .1.1.1 0 0 0zM9.9 28c.1 0 .1.1 0 0l.1.1h.1s0-.1.1-.1c-.1-.1-.2 0-.3 0 .1 0 0 0 0 0zM9.8 22.4c-.1 0-.1 0-.1.1 0 0 0 .1.1.1 0-.1.1-.1 0-.2.1 0 0 0 0 0zM9.9 27.9c0-.1 0-.1 0 0 0-.1 0-.1 0 0 0-.1 0-.1 0 0 0-.1 0-.1 0 0zM10.2 29.6H10c.1.1.1.1.2 0-.1.1 0 .1 0 0 0 .1 0 .1 0 0zM10.2 27.2zM10 23.5c-.1 0-.1 0 0 0-.1 0-.1 0 0 0zM10.2 19.8s0-.1 0 0c0-.1 0-.1 0 0-.1-.1-.1-.1 0 0-.1-.1-.1 0 0 0zM9.8 19.9l-.1.1.1.1.1-.1c0-.1-.1-.2-.1-.1zM9.7 12.1s0 .1.1.1l.1-.1c-.1 0-.1-.1-.2 0 0-.1 0-.1 0 0zM9.8 16c.1 0 .1 0 0 0 .1 0 .1 0 0 0 .1 0 .1-.1 0 0 .1-.1.1 0 0 0zM9.7 17.3c0 .1 0 .1.1.2 0 0 .1 0 .1-.1 0 0 .1-.1 0-.1l-.1-.1c-.1 0-.1 0-.1.1zM9.8 19.1zM9.7 5.3zM10 14.1s0 .1.1.1V14c.1 0 .1 0-.1.1.1-.1 0 0 0 0zM9.7 6.5c-.1.1-.1.1 0 0-.1.1 0 .1 0 .2v-.2c0 .1 0 0 0 0zM9.6 9.4v-.1.1c0-.1 0 0 0 0zM10 19.4c0-.1 0-.1 0 0 0-.1 0-.1 0 0 0-.1 0-.1 0 0 0-.1 0-.1 0 0zM9.9 20.6c0 .1.1.1 0 0 .1.1.1 0 0 0 0-.1 0-.1-.1-.2.1.1.1.2.1.2zM10 16.8c.1 0 .1 0 0 0 .1 0 .1 0 0 0 0-.1 0 0 0 0zM9.6 14.7l.2.2.1-.1c-.2-.1-.2-.1-.3-.1zM9.8 13.5s0-.1 0 0c.1-.1 0-.2 0-.2h-.1v.1c-.1 0-.1 0 .1.1-.1 0-.1 0 0 0zM9.6 20.4s.1 0 0 0h.2s-.1-.1-.2 0c.1-.1 0 0 0 0zM9.8 20.4h.1-.1zM9.8 32.2s.1 0 0 0v-.1h-.1l-.1.1h.2c0 .1 0 .1 0 0zM10.4 17.9c.1-.1.1-.1 0 0 .1-.1.1-.1 0 0 0-.1 0-.1 0 0 0-.1 0-.1 0 0zM10.4 20c0-.1 0-.1 0 0 0-.1 0-.1 0 0-.1-.1-.1-.1 0 0-.1-.1 0-.1 0 0zM10.4 18.7c0-.1 0-.1 0 0 0-.1 0-.1 0 0zM10.5 20.4zM10.1 30.5s-.1 0 0 0c-.1 0-.1 0-.2.1 0 0 .1 0 .2-.1v0zM10.5 21.3c0-.1 0-.1 0 0 0-.1-.1-.2-.2-.2 0 .1.1.2.2.2zM10.2 21.8s0 .1 0 0h.1-.1zM10.3 22.3s0 .1.1.1h.1s.1 0 .1-.1h-.1c0 .1-.1.1-.2 0zM10.4 19.1s.1 0 0 0zM10.5 24.9c0-.1 0-.1 0 0 0-.1 0-.1 0 0 0-.1 0 0 0 0zM10.3 23.7c.1 0 .1 0 0 0h0c.1 0 .1 0 0 0zM10.4 25s0-.1 0 0c0-.1 0 0 0 0zM10.6 22.9c-.1 0-.1-.1 0 0-.1-.1-.1-.1 0 0-.1-.1-.1-.1 0 0-.1 0-.1 0 0 0-.1 0-.1 0 0 0zM10.6 17.3c-.1 0-.1 0 0 0v0c0 .1 0 0 0 0zM10.6 25.4zM10.5 14.8l.1.1h.1c-.1-.1-.1-.2-.2-.1 0-.1 0 0 0 0zM10.4 16.1c.1 0 .1 0 0 0 .1 0 .1 0 0 0zM9.9 21.2c0-.1 0-.1 0 0-.1-.1-.2-.1-.3 0v.1h.1s.1 0 .2-.1zM9.6 7.9zM10 31.6l.1.1s.1 0 .1-.1v-.1c-.1 0-.2 0-.2.1 0 0-.1-.1 0 0zM9.3 25.6c0 .1.1.1.2 0h-.2c.1 0 .1 0 0 0zM9.9 24.9h-.2-.1c0 .1 0 .1.1.1h.1l.1-.1zM9.5 26.7c-.1-.1-.2 0-.2.1.1 0 .1 0 .2-.1 0 .1 0 .1 0 0zM9.5 24.8c0-.1-.1-.1 0 0-.1-.1-.1 0-.1 0h.1c-.1 0 0 0 0 0zM9.7 21.6c.1 0 0 0 0 0zM9.6 23.6s0-.1 0 0c-.1-.1-.1-.1-.2-.1h-.1c.1.1.2.1.3.1zM9.3 27.1c0 .1 0 .1 0 0 0 .1.1.1.2.1-.1-.1-.1-.1-.2-.1zM9.8 26.1zM9.8 27.5s-.1 0 0 0c-.1 0 0 0 0 0zM9.7 28.6h.1v-.1l-.1-.1v.2zM9.7 27.3zM9.7 31c0 .1 0 .1 0 0 .1.1.1 0 .1 0l-.1-.1c.1.1 0 .1 0 .1zM9.6 29.9c.1.1.2 0 .2 0v-.1c-.1 0-.1 0-.2.1zM9.7 30.3c0-.1 0-.1 0 0 0-.1 0-.1 0 0 0-.1 0 0 0 0zM11.9 18.8zM11.2 6.6c-.1 0-.1 0 0 0v.1h.1v-.1h-.1zM11.3 22.6c0-.1 0-.1 0 0 0-.1-.1 0 0 0zM11.2 19.1s0-.1 0 0c0-.1 0 0 0 0zM11.3 25.1c.1 0 .1 0 .1-.1v-.1h-.2v.1c-.1.1 0 .1.1.1zM11.3 18.6s0-.1 0 0h-.1.1zM11.5 18.1s.1 0 .1.1h.1v-.1h-.1-.1s-.1 0 0 0c-.1 0 0 0 0 0zM11.7 13.1s0 .1 0 0c0 .1 0 .1 0 0 0 .1 0 0 0 0zM11.6 15.8h-.1c0 .1 0 .1.1 0 0 .1 0 .1 0 0zM11.5 16.7c.1 0 .1 0 0 0 .2 0 .2 0 .2-.1s0-.1-.1-.1h-.1c0 .1-.1.1 0 .2zM11.3 12.1c-.1 0-.1-.1-.1-.1v.1c-.1.1-.1.1.1 0-.1.1-.1.1 0 0zM11.2 9.3s-.1 0 0 0c-.1.1-.1.1 0 0-.1.1 0 .1 0 0 0 .1 0 0 0 0zM11.4 8c-.1 0-.1 0 0 0h-.1-.1s-.1 0-.1.1.1.1.1.1c0-.1.1-.1.2-.2-.1 0-.1 0 0 0zM11.2 10.8c0-.1 0-.1-.1-.1 0 .1.1.1.1.1zM11.1 14.7s0 .1 0 0c0 .1 0 .1 0 0 .1.1.1 0 .2 0v-.1h-.1c0 .1-.1.1-.1.1zM11.1 16s0 .1 0 0c0 .1 0 0 0 0zM11.3 17.4s-.1 0 0 0c-.1-.1-.1 0-.1 0s0 .1.1 0c0 .1 0 .1 0 0zM11.1 13.4v.1h.2s.1 0 .1-.1 0-.1-.1-.1c-.1.1-.1 0-.2.1 0-.1 0-.1 0 0zM11.3 21.7zM12.8 8.5c.1 0 .1 0 0 0 .1-.1.1-.1 0 0 0-.1 0 0 0 0zM12.9 5.2c-.1 0-.1 0 0 0-.1 0-.1 0 0 0-.1 0-.1.1 0 0zM12.4 13.2c.1 0 .1 0 0 0 .1-.1.1-.1 0 0 0-.1 0-.1 0 0zM12.4 11.9c.1 0 .1 0 0 0 .1 0 .1 0 0 0zM12.3 15.4s.1.1 0 0c.1.1.1 0 .2 0v-.1c-.1 0-.1.1-.2.1.1 0 0 0 0 0zM12.9 8.1zM12.1 16.2c-.1-.1-.1-.1 0 0-.1-.1-.1-.1 0 0-.1 0-.1 0 0 0-.1 0-.1 0 0 0zM12.8 8zM12.7 10.8s.1 0 0 0h.2c-.1-.1-.1-.1-.2 0 .1-.1 0-.1 0 0zM12 18.8h-.1.1zM11.9 17.9h.2l-.1-.1h-.1v.1zM12 14.7c-.1 0-.1.1 0 0-.1.1-.1.1 0 0 0 .1 0 .1 0 0 0 .1 0 0 0 0zM12.1 20h-.2-.1v.1s.1 0 .1.1c.1-.1.2-.1.2-.2 0 .1 0 0 0 0zM11.9 19.1c.1 0 .1 0 0 0 .1 0 .1-.1 0 0 0-.1 0 0 0 0zM10.5 24.2c0-.1 0-.1 0 0 0-.1-.1-.1 0 0zM11.8 18.6s0 .1.1.1l-.1-.1c.1 0 0 0 0 0zM11.3 23.7h-.2c.1.1.2.1.2 0 0 .1 0 0 0 0zM9.4 30.5c.1 0 .1 0 .2-.1v-.1h-.4c0 .1.1.2.2.2zM9.4 29.7c0-.1 0-.1 0 0 0-.1 0-.1 0 0 0-.1 0-.1 0 0 0-.1 0-.1 0 0zM9.2 26.6zM9.2 28c.1 0 .1.1.1.1.1 0 .1 0 .1-.1v-.1c0 .1-.1.1-.2.1.1-.1 0 0 0 0zM9.5 29.4c-.1-.1-.1-.2-.2-.2v.1s.1 0 .2.1zM9.7 35.8s.1 0 0 0c.1-.1 0-.1 0 0 0-.1 0-.1 0 0 0-.1 0-.1 0 0 0-.1 0 0 0 0zM9.4 35.5c.1.1.1.1.2.1 0-.1-.1-.1-.2-.1zM9.8 34.6s-.1 0 0 0h-.1.1zM9.5 31.5c-.1-.1-.1 0-.1 0v.1h.1c-.1 0 0 0 0-.1 0 .1.1.1 0 0zM9.4 22.2s.1.1 0 0l.1.1c0-.1 0-.1-.1-.1.1 0 0 0 0 0zM9.5 20.6s0 .1 0 0zM9.3 20.5zM9.6 16.1s.1.1 0 0c.1 0 .1 0 .2-.1 0 0 0-.1-.1-.1h-.2c.1.1.1.2.1.2zM9.3 21.8s0 .1 0 0c0 .1 0 .1 0 0 0 .1 0 .1 0 0 0 .1.1 0 .1 0h-.1zM9.4 19.2c-.1 0-.1.1-.1.1 0 .1 0 .1.1.1 0 0 .1 0 0-.2.1 0 0 0 0 0zM9.4 21h-.1.1c-.1 0 0 0 0 0zM11.1 23.8h.1c-.1-.1-.1-.1-.1 0-.1-.1 0 0 0 0zM11.2 21.2c-.1 0-.1-.1-.1-.1H11c.1 0 .1.1.2.1-.1 0 0 0 0 0zM11.1 28.7s0-.1 0 0c0-.1 0-.1 0 0 0-.1-.1-.2-.1-.2h-.1v.1c.1 0 .1 0 .2.1zM10.9 33.2c.1 0 .1 0 0 0 .1 0 0 0 0 0zM11 35s-.1 0 0 0c-.1 0-.1 0 0 0-.1 0-.1 0 0 0-.1 0 0 0 0 0zM11.1 22.5zM11.2 23.7v.1zM10.8 33.1h-.1c0 .1 0 .1.1 0 0 .1 0 .1 0 0zM9.5 5.2s.1 0 0 0c.1 0 .1 0 0 0 .1 0 .1 0 0 0zM9.8 34.9zM9.7 33.3zM9.9 33.4c0-.1 0-.1 0 0-.1-.1-.1-.1-.2-.1 0 .1.1.1.2.1zM9.6 33.2s0 .1 0 0c0 .1.1.1 0 0 .1.1.1.1 0 0 .1 0 0 0 0 0zM10.2 30.8c0 .1 0 .1 0 0 0 .1 0 .1 0 0 0 .1 0 0 0 0zM10.8 31.5c-.1-.1-.2-.1-.2-.1 0 .1.1.1.2.1-.1.1 0 .1 0 0zM10.2 32.6c-.1 0-.1.1-.2.1v.1c.1.1.1 0 .2 0v-.2c0 .1 0 0 0 0zM10.7 35.1c-.1 0-.1 0 0 0zM10.8 22.2s.1.1 0 0l.1.1-.1-.1c.1 0 .1 0 0 0zM8.6 18.4c0 .1 0 0 0 0zM8.7 22c-.1 0-.1 0 0 0-.1 0-.1 0 0 0-.1 0-.1 0 0 0zM8.5 16.6v.1h.2v-.1h-.2zM8.7 19.2h-.2v.1h.1s.1 0 .1-.1zM8.2 26.2h.1v-.1c0-.1 0-.1-.1-.1-.1.1-.1.2 0 .2zM8.2 25.4zM8.2 24.1c.1 0 0 0 0 0zM8.3 23.6c-.1 0-.1.1-.2.1 0 0 .1 0 .1.1h.1s.1 0 .1-.1 0-.1-.1-.1zM8.4 25c0-.1 0-.1 0 0-.1-.1-.2-.1-.2-.1 0 .1.1.1.2.1zM8.6 25.5c-.1 0-.1 0 0 0v.1h.2s0-.1.1-.1H8.6zM8.6 26.7c-.1 0-.1 0 0 0-.1.1 0 .1 0 .1h.1s.1 0 .1-.1v-.1c-.1.2-.2.2-.2.1zM8.6 23.2c.1.1.2 0 .2-.1-.1 0-.2 0-.2.1zM8.6 30.8s.1 0 0 0c.1 0 .1 0 0 0 .1 0 .1 0 0 0 .1 0 .1 0 0 0zM8.6 31.6s.1.1 0 0c.1 0 .2 0 .2-.1h-.1l-.1.1zM8.7 23.5zM8.6 24.3zM8.7 24.4v-.1h-.1l.1.1zM8.5 24.2c.1.1.1.1 0 0 .1 0 .1 0 0 0 .1 0 0 0 0 0zM8.3 21.2c0-.1 0-.1 0 0-.1.1 0 .2.1.2.1-.2 0-.2-.1-.2zM8.2 22.5c0 .1 0 .1 0 0 .1.1.1 0 0 0 .1 0 .1 0 0 0 .1 0 .1 0 0 0 .1 0 0 0 0 0zM8.5 15.3zM8.2 16.2c.1 0 .1-.1 0 0 .1-.1.1-.1 0 0 0-.1 0-.1 0 0zM8.4 22.5s-.1 0 0 0c-.1 0 0 0 0 0zM8.1 22.4s.1 0 0 0c.1 0 .1-.1 0 0 0-.1 0 0 0 0zM8.2 32.1c0-.1 0-.1 0 0-.1 0-.1 0 0 0zM8.3 29.9c0-.1 0-.1 0 0-.1-.1-.1 0-.2 0 0 0 0 .1.1.1 0-.1.1-.1.1-.1zM8.3 22.5zM8.2 17.4c.1 0 .2.1.2 0h-.2c.1-.1 0-.1 0 0 0-.1 0-.1 0 0 0-.1 0 0 0 0zM8.3 14.7l-.1-.1c0 .1.1.1.1.1 0 .1 0 .1 0 0zM8.3 18.7c-.1 0-.1 0 0 0-.1 0-.1 0 0 0zM8.2 19.1c0-.1 0-.1 0 0 0-.1 0-.1 0 0-.1 0 0 0 0 0zM8.2 22.9zM8.4 19.9c-.1 0-.1 0-.1.1s.1 0 .1-.1zM8.2 17.7s0 .1 0 0c0 .1 0 0 0 0zM8.3 13.8zM8.1 13.4s.1 0 .1-.1l-.1.1c.1-.1 0-.1 0 0zM8.4 27.4s0-.1 0 0c.1-.1.1-.1 0-.1v.1c-.1 0-.2 0-.3-.2H8v.1l.2.2s.1-.1.2-.1zM8.1 10.8c.1 0 .1 0 0 0 .1 0 .1 0 0 0zM8.2 12.2s-.1 0 0 0c-.1 0 0 0 0 0zM8.3 10.7zM8.2 27.8s.1 0 0 0c.1 0 .1 0 0 0zM8.7 14.1c0-.1 0-.1-.1-.1-.1-.1-.2-.1-.3-.1.1.1.2.2.2.3.1-.1.2-.1.2-.1zM8.3 11.2zM7.9 31.6s.1 0 0 0v-.1h-.1-.1c.1.1.1.1.2.1zM7.6 32.5s.1 0 0 0c.1 0 .1 0 0 0zM7.6 32.2c0-.1 0-.1 0 0-.1-.1-.1 0-.1 0h.1zM8 30.8s0-.1 0 0c-.1 0-.2.1-.3.1.1 0 .2-.1.3-.1zM8.2 13.8s.1 0 0 0h0c.1 0 0 0 0 0zM8 30.5c-.1 0-.1 0 0 0zM8 31.9zM8 32.8s0-.1 0 0c0-.1 0-.1 0 0 0-.1 0-.1 0 0-.1-.1-.1 0-.1 0H8zM8.6 12.8v-.2c-.1.1-.1.2 0 .2zM8.8 32.6c-.1.1-.1.1-.2.1s-.1-.1-.2-.1h-.1v.1c.1.1.1.2.2.2.2-.1.3-.1.3-.3.1.1 0 0 0 0zM8.5 34.9zM8.8 33.1s-.1 0-.1-.1c0 .1 0 .1.1.1-.1 0-.1 0 0 0zM8.7 33.8s-.1 0 0 0c-.1 0-.2.1-.2.1s0 .1.1.1h.1c.1 0 .1 0 .1-.1s0-.1-.1-.1zM10.6 27.3h-.2-.1v.1c.1.1.2.1.3-.1 0 .1 0 0 0 0zM8.7 28zM8.5 28c.1 0 .1 0 0 0 .1 0 .1-.1 0 0 0-.1 0 0 0 0zM8.5 28.4c.1 0 .1 0 0 0h0c.1 0 .1 0 0 0zM8.8 35.5zM8.7 30.5c0-.1 0-.1-.1-.2h-.1c0 .2.1.2.2.2zM8.5 7.2s-.1 0 0 0l-.1.1c.1 0 .1-.1.1-.1zM8.6 10.1h-.1c0 .1 0 .1.1 0 0 .1 0 .1 0 0zM8.6 35v.1c.1 0 .1 0 .1-.1.1-.1 0-.1-.1 0zM8.6 13.2zM8.4 12c0 .1 0 .1 0 0zM8.8 34.3c0-.1 0 0 0 0zM8.6 29.2c0 .1 0 .1 0 0h.1s0-.1-.1 0c.1-.1 0 0 0 0zM10.9 25.6c0-.1-.1-.1 0 0h-.1v.1l.1-.1zM10.7 24.4c.1 0 .1 0 0 0 .1 0 .1 0 0 0zM10.8 27.9zM10.9 31.5c0 .1 0 .1 0 0 0 .1 0 .1 0 0zM10.9 23c-.1 0-.1 0 0 0-.1.1 0 .1 0 .1V23zM8.4 28.7l-.1-.1s0 .1.1.1zM10.7 28.4s.1 0 0 0c.1 0 0 0 0 0zM10.9 24.8v-.1s-.1 0 0 .1zM10.7 30.5s.1 0 .1.1l.1-.1s0-.1-.1-.1l-.1.1c0-.1 0-.1 0 0zM10.8 7.8c.1 0 .1 0 0 0 .1 0 0 0 0 0zM10.8 12.8c.1 0 .1 0 0 0v-.1c.1 0 0 0 0 .1 0-.1 0 0 0 0zM10.7 29.7c.1 0 .1-.1 0 0 .1-.1 0-.1 0 0 0-.1 0-.1 0 0zM10.9 6.4zM10.8 4.5c0 .1 0 .1 0 0 .1.1.1.1 0 0 .1 0 .1 0 0 0zM10.7 33.9v.1h.1s.1-.1.1-.2c-.1 0-.1 0-.2.1zM10.9 32.7c0-.1 0 0 0 0-.2 0-.3.1-.2.1l.1.1h.1v-.2zM12.7 13.3v.1l.1.1c0-.1 0-.1-.1-.2.1 0 .1 0 0 0zM10.9 29.3zM10.4 29.1s.1 0 0 0c.1-.1.1-.1 0 0 0-.1 0-.1 0 0 0-.1 0-.1 0 0zM10.3 32.2c.1.1.1 0 .1 0s0-.1-.1 0c.1-.1 0-.1 0 0zM10.4 32.6s0-.1 0 0c0-.1 0 0 0 0zM10.6 28.6c-.1-.1-.1-.1 0 0-.1 0-.1 0-.2.1l-.1.1h.1c.1-.1.1-.2.2-.2zM10.4 30.3c.1 0 .1 0 0 0 .1 0 .1 0 0 0 .1 0 .1-.1 0 0 .1-.1 0-.1 0 0l-.1-.1c0 .1.1.1.1.1zM10.5 31.1s-.1 0-.1-.1h-.1c.1.1.2.1.2.1zM10.6 29.8s-.1 0 0 0h-.2v.1h.1l.1-.1c0 .1 0 0 0 0zM10.4 33.4c-.1 0-.1-.1-.2 0h.2c0 .1 0 .1 0 0 .1.1.1.1 0 0 .1 0 .1 0 0 0zM10.4 34.7c0-.1 0-.1 0 0 0-.1 0-.1 0 0 0-.1 0 0 0 0zM10.8 21s-.1 0 0 0c-.1 0 0 .1 0 0 0 .1 0 0 0 0zM10.8 20.6c-.1 0-.1 0 0 0-.1 0-.1 0 0 0 0 .1.1.1.1.1l-.1-.1zM10.8 21.8s0 .1 0 0c0 .1 0 .1 0 0 .1.1.1.1 0 0 .1.1.1 0 .1 0 0 .1 0 0-.1 0 .1 0 .1 0 0 0zM11 27.9c-.1 0 0 0 0 0zM10.5 33.8c0-.1 0-.1 0 0h-.1.1zM10.6 28.1c.1 0 .1 0 0 0 .1.1.1 0 .2 0 0-.1-.1-.1-.2 0 .1-.1 0-.1 0 0zM10.6 21.6s-.1 0 0 0c-.1.1-.1.1 0 0-.1.1-.1.1 0 0-.1.1 0 .1 0 0 0 .1 0 .1 0 0 0 .1 0 .1 0 0 .1.1.1.1 0 0zM11 11.9c-.1 0-.1-.1 0 0h-.1.1zM9.1 27.4c0-.1 0-.1 0 0-.1-.1-.1-.1-.1 0v.1h.1c-.1 0-.1 0 0-.1zM9 27.8zM9.1 28.6c0-.1 0-.1 0 0 0-.1 0-.1 0 0-.1-.1-.2-.1-.2-.1h-.1s0 .1.1.1h.2zM9 26.1h-.2l.1.1c.1.1.2 0 .1-.1.1 0 .1 0 0 0zM8.9 36.1c-.1 0-.2 0-.2.1v.1l.2-.2zM9 29.9c0-.1 0-.1-.1-.1v.1c0-.1.1 0 .1 0zM8.7 24.7c-.1 0-.1 0 0 0-.1.1-.1.1 0 0 0 .1.1.1.1.1 0-.1-.1-.1-.1-.1zM9.1 25.3s0 .1 0 0c0 .1 0 .1 0 0 0 .1 0 .1 0 0 0 .1 0 0 0 0zM8.4 29zM8.3 31h-.1s.1.1.1 0c0 .1 0 0 0 0zM8.6 36.7c.1 0 .1-.1 0 0 .1-.1 0-.1 0 0 0-.1 0-.1 0 0 0-.1 0-.1 0 0zM8.3 30.1c0 .1-.1.1 0 0v.1h.1s-.1 0-.1-.1zM8.2 32.5c0-.1-.1 0-.1 0 .1 0 .1.1.1 0 0 .1 0 0 0 0zM8.5 29.1s0-.1 0 0c-.1-.1-.1-.1 0 0-.1-.1-.1 0 0 0zM8.4 29s-.1-.1-.1 0h.1zM8.8 24.8zM9.4 12.7h-.2l.1.1.1-.1z"/><path class="st1" d="M9.1 24.9c-.1 0-.2 0-.3-.1.1.2.1.3.3.2 0 0 .1 0 0-.1.1 0 0 0 0 0zM10.8 15.4c0 .1.1.1.1.1v-.1h-.1c0-.1 0 0 0 0zM10.4 13.9c0 .1.1.1.1 0h-.2.1zM10 17.1s0 .1 0 0zM10.9 16.8c0-.1 0-.1 0 0 0-.1 0-.1 0 0 0-.1-.1-.1 0 0-.1-.1-.1-.1 0 0-.1 0-.1 0 0 0zM10.9 14.5zM10.1 18.1c.1-.1 0-.1 0-.1H10c0 .1 0 .1.1.1zM10.8 16.6zM10.3 13.5c0-.1 0 0 0 0s.1 0 0 0c.1 0 0 0 0 0zM9.4 10.2c0-.1 0-.1 0 0l-.2-.2c0 .1.1.2.2.2-.1 0 0 0 0 0zM9.3 14.1s0 .1 0 0c0 .1 0 .1 0 0 .1.1.1.1.1 0-.1.1-.1 0-.1 0zM9.2 11.5s0 .1 0 0c.1.1.1.1.1 0 0 0-.1-.1-.1 0 0-.1 0 0 0 0zM9.8 10.7zM9.3 15.4c0 .1 0 .1 0 0 0 .1 0 .1 0 0zM9.7 8c0 .1 0 .1.1.1l.1-.1h-.2zM10.8 14c0 .1.1.1 0 0l.1.1c0-.1 0-.1-.1-.1zM14.7 27.6c.1 0 .1 0 0 0 .1 0 .1 0 0 0h.1l.1-.1s0-.1-.1-.1h-.1v.2zM13.3 31.1c-.1 0-.1.1 0 0-.1.1 0 .1 0 0 0 .1 0 .1 0 0 .1.1.1.1.1 0h-.1zM13.4 31.4c0 .1 0 .1 0 0 0 .1 0 0 0 0zM13.5 28.6s-.1 0 0 0c-.1 0-.1 0 0 0-.1 0-.1 0 0 0-.1 0 0 0 0 0zM13.2 32.3c.1.1.1.1.2.1h.1v-.1c-.2-.1-.2-.1-.3 0 0-.1 0-.1 0 0zM13.5 26.3s-.1-.1 0 0c-.1-.1-.1-.1-.2-.1h-.1s0 .1.1.1h.2c-.1 0-.1 0 0 0zM13.3 32.7s0-.1 0 0zM13.4 29.9h-.1-.1l.1.1.1-.1c0 .1 0 .1 0 0zM13.2 33.5h.2v-.1h-.1c0 .1-.1.1-.1.1zM13.3 26.7c0-.1 0-.1 0 0 0-.1 0 0 0 0zM13.1 20.9s-.1.1 0 0c-.1.1-.1.1 0 0 0 .1 0 .1 0 0zM13 24.4l.1.1h.1s0-.1-.1-.1c0-.1 0-.1-.1 0 0-.1 0-.1 0 0zM13.2 23.6c0-.1 0-.1 0 0l-.1-.1c0 .1.1.1.1.1zM13 28h-.2c.1.1.2.1.2 0zM13.2 23.1c0-.1-.1 0 0 0-.1-.1-.1-.1-.2 0h-.1.2c0 .1 0 .1.1 0-.1.1 0 .1 0 0zM13 24.7c0 .1 0 .1 0 0 0 .1.1.1.1.1l-.1-.1zM13 26.1s0-.1 0 0c0-.1 0-.1 0 0 0-.1 0-.1 0 0zM13.1 25.5h-.2v.1h.1s.1 0 .1-.1c0 .1 0 0 0 0zM13.5 20.4s-.1 0 0 0h-.1.1l.1.1c0-.1 0-.1-.1-.1zM13 28.5s0-.1 0 0h-.2c-.1.1-.1.1-.2.1v.1s0 .1.1.1c0 0 .1 0 .1-.1 0-.2.1-.2.2-.2zM14 21c-.1 0-.1 0 0 0-.1-.1-.1 0 0 0-.1 0-.1 0 0 0-.1 0 0 0 0 0zM13.6 20.5zM13.9 22.2h-.1c0 .1 0 .1.1 0 0 .1 0 .1 0 0 0 .1 0 0 0 0zM13.9 20.6s0-.1 0 0c-.1-.1-.2-.1-.3-.1.1.1.2.1.3.1zM13.9 23.5s-.1-.1 0 0c-.1 0-.2 0-.2.1 0-.1.1-.1.2-.1-.1 0 0 0 0 0zM13.7 27.3zM13.7 28.1c-.1 0-.1 0 0 0-.1.1 0 .1 0 .2.1 0 .1-.1.1-.1 0-.1-.1-.1-.1-.1zM13.5 25c-.1-.1-.2-.1-.3 0v.1c.1 0 .2 0 .3-.1 0 .1 0 .1 0 0zM14 18h-.1c0 .1 0 .1.1 0-.1.1 0 .1 0 0zM13.3 27.4c-.1.1-.1.1 0 0-.1.2 0 .2 0 .2s0-.1.1-.1c0 0 0-.1-.1-.1zM13.7 23.1h.2c-.1-.1-.1-.1-.2 0 0-.1 0 0 0 0zM13.8 15.2s0 .1 0 0c0 .1.1 0 0 0zM13.9 15.4zM13.9 21.9s-.1 0 0 0c-.1-.1-.1 0-.1 0h.1c-.1 0-.1 0 0 0-.1 0 0 0 0 0zM14 16.8s-.1 0 0 0c-.1 0-.1 0 0 0zM12.4 29.1h.2V29c-.1 0-.2.1-.2.1zM12.7 31.5s-.1 0-.1-.1c0 .1.1.1.1.1zM13.7 28.5s.1 0 0 0c.1 0 0 0 0 0zM12.6 26.6c0 .1 0 .1 0 0 .1.1.1.1 0 0 .1 0 0 0 0 0zM12.4 24.8s0-.1 0 0h-.1.1zM12.7 27.6c0-.1 0-.1 0 0v-.1h-.2v.1h.2zM12.7 25c-.1 0-.1 0 0 0-.1.1-.1.1 0 0l-.1.1.1-.1c0 .1 0 .1 0 0 .1.1.1.2.1.1s-.1-.1-.1-.1zM12.6 26.1s0 .1 0 0c0 .1 0 .1.1.1l.1-.1c-.1.1-.1.1-.2 0zM12.7 28s.1 0 0 0c.1 0 .1-.1 0 0 0-.1-.1-.1-.1-.2h-.1v.1c.1.1.2.1.2.1zM12.3 21c.1 0 .1 0 0 0 .1 0 .1 0 0 0zM12.5 20.5zM12.6 21.1v.2c.1-.1.1-.1 0-.2.1 0 .1 0 0 0zM12.4 23.1s0 .1 0 0h0zM12.6 22.4s.1.1 0 0c.1.1.1 0 0 0 .1 0 .1 0 0 0 .1 0 0 0 0 0zM12.6 29.8c-.1 0-.1.1 0 0-.1.1-.1.1 0 0v.1s.1 0 .1-.1c0 .1-.1 0-.1 0zM12.5 23.7c.1.1.1.1.2.1h.1v-.1h-.1-.2zM12.5 31v.1h.1s.1 0 .1-.1h-.1-.1zM12.6 30.3l.1.1c0-.1-.1-.1-.1-.1zM12.5 26.3zM12.7 32.6s-.1 0 0 0h-.1s0 .1.1 0c0 .1 0 0 0 0zM12.6 33.3c-.1 0-.1 0-.2-.1h-.1c.1 0 .1.1.2.2h.1v-.1c.1 0 0 0 0 0zM12.3 22.3s0-.1 0 0c0-.1 0-.1 0 0zM12.2 23.5s.1 0 0 0c.1 0 0 0 0 0zM12.5 31.4h.1-.1zM12.6 31.4zM12.1 32.8c0 .1 0 .1 0 0 0 .1.1.1.1.1l-.1-.1c.1 0 0 0 0 0zM12.6 32.2s-.1 0-.1.1h.1c.1 0 .1-.1 0-.1.1 0 .1 0 0 0zM12.5 35.7s0-.1 0 0h-.1l.1.1v-.1zM12.3 27.9zM12.4 28s-.1 0 0 0c-.1 0-.1 0 0 0l-.1.1s.1 0 .1-.1c0 .1 0 0 0 0zM12.2 27.9s0 .1 0 0c.1.1.1 0 0 0 .1 0 .1 0 0 0zM12.2 29.3c.1 0 .1 0 0 0 .1.1.1 0 .1 0h-.1c.1-.1 0 0 0 0zM12.3 30.6s0-.1 0 0v-.1h-.2c.1 0 .1 0 .2.1zM12.4 30.9c0-.1 0-.1 0 0-.1-.1-.1-.1 0 0-.1-.1-.1 0 0 0zM12.1 31.7s.1 0 0 0h.1s0-.1-.1 0c.1-.1.1-.1 0 0 0-.1 0-.1 0 0zM12.5 34.6c0 .1 0 .1 0 0 0 .1 0 0 0 0zM14.4 29.2s0 .1 0 0l-.1.1h.1v-.1c.1.1 0 0 0 0zM14.4 32.8c-.1 0-.1.1 0 0-.1.1 0 .1 0 .1-.1 0 0 0 0-.1 0 .1 0 0 0 0zM14.5 31.8c0-.1-.1-.1 0 0l-.1-.1h-.1s0 .1.1.1h.1c-.1 0 0 0 0 0zM14.6 27c0-.1 0-.1 0 0h-.1.1zM14.4 26.1h.1-.1c0-.1 0 0 0 0zM14.4 22.3c-.1 0-.1 0 0 0-.1 0-.1.1 0 0-.1.1 0 .1 0 0zM14.9 28.7c.1 0 .1-.1 0 0 .1-.1 0-.1 0 0h-.2v.1c.1 0 .2 0 .2-.1zM14.8 30c.1 0 .1-.1.1-.1-.1 0-.2.1-.3-.1l-.1.1s0 .1.1.1h.2zM14.2 21.2s0 .1 0 0c.1.1.1 0 .1 0h-.1zM14.3 34s0-.1 0 0c0-.1-.1-.1 0 0-.1 0-.1.1 0 .1V34zM14.2 22.9s.1 0 0 0c.1 0 0 0 0 0s0-.1 0 0l-.1-.1s0 .1.1.1c-.1 0 0 0 0 0zM15 26.3c-.1 0-.1 0 0 0-.1.1-.1.1 0 0 0 .1 0 .1 0 0zM14.3 21.7zM14.3 19.1s0 .1 0 0c0 .1.1.1 0 0zM14.1 22.5s0-.1 0 0c0-.1-.1 0 0 0zM14.4 30.5h-.2s.1.1.1 0c.1.1.1 0 .1 0zM14.2 20c-.1 0-.1 0 0 0h-.1s0 .1.1 0c-.1 0-.1 0 0 0zM14.9 27.9zM14.9 25l-.1.1.1.1c0-.1.1-.1 0-.2.1 0 0 0 0 0zM14.9 33.9s-.1 0 0 0c-.1 0-.1 0 0 0-.1 0 0 0 0 0zM14.7 31.5zM14.8 30.4c.1 0 .1 0 0 0 .1-.1.1-.1 0 0 0-.1 0-.1 0 0 0-.1 0-.1 0 0-.1-.1-.2-.1-.2-.1 0 .1.1.1.2.1zM15.2 31.8s0-.1 0 0c0-.1-.1-.1-.1-.2l-.1.1s0 .1.1.1h.1zM14.9 19.9h-.1c0 .1 0 .1.1.1 0 0 .1 0 .1-.1.1.1 0 .1-.1 0zM14.6 24.5c.1-.1 0-.1 0 0 0-.1 0-.1 0 0zM15.2 29.3s-.1-.1 0 0h-.1s0 .1.1 0c-.1.1 0 0 0 0zM14.9 31.2c0-.1 0-.1 0 0-.1 0-.2-.1-.2 0h.2zM7.2 32.7s-.1 0 0 0c-.1 0-.1 0 0 0-.1 0-.1 0 0 0zM15 23.7h-.2v.1h.2v-.1zM15 22.9c-.1 0-.1 0 0 0zM14.9 24.1s.1 0 0 0zM14.9 22.4l-.1.1c.1 0 .1 0 .1-.1 0 .1.1.1 0 0 0 .1 0 0 0 0zM14.8 26.7zM14.7 26.3c.1.1.1.1.1-.1 0 0-.1 0-.1.1zM14.1 26.2H14h-.1v.1h.1c.2 0 .2 0 .1-.1.1 0 0 0 0 0zM13.8 30.5c-.1 0-.1 0 0 0-.1 0-.1 0 0 0h-.1v.1s0 .1.1.1c-.1-.1-.1-.2 0-.2zM13.7 31.6c-.1 0-.1.1-.2.2v.1c.1-.1.3-.2.2-.3.1 0 0 0 0 0zM13.7 32.9c-.1 0-.1 0 0 0h-.2.2c-.1.1-.1 0 0 0-.1 0 0 0 0 0zM13.5 34s0 .1 0 0c0 .1.1.1.1.1.1 0 .1 0 .1-.1h-.2zM13.8 26c0 .1 0 .1 0 0 0 .1 0 .1 0 0zM13.7 26.9s-.1 0-.1.1l.1.1c.1-.1.1-.1 0-.2.1 0 .1 0 0 0zM13.8 33.8c.1 0 .1.1 0 0 .1.1.1 0 0 0 .1 0 .1 0 0 0 .1 0 .1 0 0 0zM13.7 33.3zM13.8 25.6s-.1 0 0 0c-.1 0-.1 0-.1.1l.1-.1c-.1.1 0 .1 0 0 0 .1 0 .1 0 0 0 .1 0 .1 0 0zM13.6 25.5c0-.1-.1-.1 0 0-.1-.1-.1-.1 0 0-.1-.1-.1 0 0 0zM13.6 29.4zM13.6 21.1s-.1.1 0 0c-.1.1 0 .1 0 .2v-.2c0 .1 0 0 0 0zM13.6 22.3s-.1 0-.1.1v.1h.1v-.2zM13.4 24.1c-.1 0-.1 0 0 0-.1 0-.1.1 0 0 0 .1 0 0 0 0zM13.4 24.1c.1 0 .1 0 0 0 .1 0 .1 0 0 0 .1 0 0 0 0 0zM14.2 23.7h-.1-.1l.2.1s.1 0 0-.1c.1 0 0 0 0 0zM13.5 23.7c-.1 0-.1 0 0 0-.1 0-.1 0-.1.1h.2c-.1 0-.1-.1-.1-.1zM14 31.2V31c-.1.1-.1.1 0 .2-.1 0-.1 0 0 0zM14 31s0 .1 0 0c.1.1.1 0 .1 0H14zM14.1 30.3c-.1 0-.1 0 0 0-.1 0-.1 0 0 0-.1 0-.1 0 0 0-.1.1-.1.1 0 0 0 .1 0 0 0 0zM14.2 26.7zM14.2 24.1zM13.9 29.9s.1 0 .1.1h.1v-.1l-.1-.1c-.1 0-.1 0-.1.1zM14.2 25c0-.1 0-.1 0 0-.2-.1-.3-.2-.4-.2h-.1c.1.1.2.1.2.2s.1.1.2 0c.1.1.1.1.1 0zM14 34.7s-.1 0 0 0c-.1 0-.1 0 0 0-.1 0 0 0 0 0zM13.6 29.7zM14.2 32.2h-.3s-.1 0-.1.1 0 .1.1.1c.1-.1.2-.1.3-.2 0 .1 0 0 0 0zM13.9 32.7c.1 0 .1 0 0 0 .1 0 0 0 0 0zM14 35.1c0-.1 0-.1 0 0 0-.1 0-.1 0 0h-.1c0-.1 0 0 .1 0zM14 29.1c.1 0 .1 0 0 0 .1 0 .1 0 0 0 .1 0 .1 0 0 0 .1 0 .1 0 0 0zM14 28.8c.1 0 .1 0 .2-.1v-.1s0-.1-.1-.1h-.2c0 .2 0 .2.1.3-.1 0-.1 0 0 0zM14 27.5c-.1 0-.1 0 0 0v.1c.1 0 .1 0 .2-.1-.1-.1-.2-.1-.2 0zM14.2 28c0-.1 0-.1 0 0 0-.1-.1-.1 0 0-.1-.1 0 0 0 0zM15 13.9s.1 0 0 0c.1 0 .1 0 0 0 .1 0 .1 0 0 0zM16.4 16zM16.4 12.8c-.1 0-.1 0 0 0-.1 0-.1 0 0 0-.1 0 0 0 0 0zM16.3 15.9c0 .1.1.1 0 0 .1.1 0 0 0 0zM16.3 8.7v.1c.1 0 .1-.1 0-.1.1 0 .1 0 0 0zM16.6 16.1c0-.1 0-.1-.1-.1h-.1v.1c.1.1.1 0 .2 0zM16.7 8c-.1 0-.1 0 0 0-.1 0-.1.1 0 0zM16.7 13.4c0-.1-.1-.1 0 0-.1-.1-.2 0-.2 0v.1c.1 0 .2-.1.2-.1zM16.4 14.8c0 .1.1.2.2.2h.1c-.1-.1-.1-.2-.3-.2.1-.1.1-.1 0 0 0-.1 0 0 0 0zM15.1 17.5s-.1 0 0 0c-.1 0 0 0 0 0zM15.2 14.8h-.1.1zM14.8 18.7h.1l.1.1h.1v-.1H15h-.1c0-.1 0-.1-.1 0zM15.1 12.1H15h.1zM15 17.9h.1c-.1-.1-.1-.1-.1 0 0-.1 0-.1 0 0zM16.6 9.4zM15.2 6.6s0 .1 0 0c0 .1 0 .1 0 0 0 .1 0 .1 0 0 0 .1 0 0 0 0zM12.8 16.1c0-.1 0-.1 0 0l-.1-.1c0 .1.1.1.1.1zM15.2 10.7s.1 0 0 0c.1 0 0-.1 0 0zM17.2 11.9c-.1 0-.1 0 0 0-.1 0-.1 0 0 0-.1 0-.1.1 0 0-.1 0-.1 0 0 0zM18 13.3zM18.3 19.4s.1.1 0 0h.1s0-.1-.1 0c.1 0 0 0 0 0zM16.8 15.3l.1.1h.1s0-.1-.1-.1h-.1zM18 12zM17.9 16c0 .1 0 .1 0 0l.1.1h.1V16h-.2zM18.6 15.9s-.1 0 0 0c0 .1 0 .1 0 0 0 .1 0 .1 0 0zM18.4 18.5zM18.7 18.8v-.1h-.1v.1h.1zM17.9 10c.1 0 .1-.1 0 0 0-.1 0-.1 0 0 0-.1 0 0 0 0zM16.9 15.9c.1 0 .2.1.3.2l.1.1h.1v-.1l-.2-.2h-.3zM17 14.6c-.1 0-.1 0 0 0-.1 0-.1 0 0 0-.1 0 0 0 0 0zM14.9 21.7s0-.1 0 0c0-.1 0-.1 0 0 0-.1-.1-.1-.1-.1 0 .1 0 .1.1.1zM17.5 18.1c0 .1 0 .1 0 0 0 .1 0 .1 0 0zM17.6 14.1c.1 0 0 0 0 0zM17.6 12.8zM17.5 19.5c.1.1.1 0 .2 0l.1-.1s0-.1-.1-.1-.1 0-.2.1c0 0-.1 0 0 .1-.1-.1-.1-.1 0 0zM14.7 7.3h-.1c0 .1 0 .1.1 0 0 .1 0 .1 0 0zM13.5 16.5h.1-.1zM13.5 16.1c.1 0 .1 0 0 0 .1 0 .1 0 0 0 .1 0 .1 0 0 0 .1 0 0 0 0 0zM13.6 13.9s-.1 0 0 0c-.1 0-.1 0 0 0-.1 0-.1 0 0 0-.1 0-.1 0 0 0zM13.5 19.1zM13.2 19.8c0 .1 0 .1 0 0l.1.1c.1.1.1 0 .1-.1 0 .1-.1.1-.2 0zM13.7 9.5s0-.1 0 0l-.1-.1h-.1s0 .1.1.1h.1zM13.7 18c0-.1-.1-.1-.1-.2 0 .1 0 .2.1.2zM13.4 17.5s.1 0 0 0h.1s.1 0 .1-.1-.1-.1-.1-.1-.1 0-.1.2c0-.1 0-.1 0 0zM13.3 11.5s-.1 0 0 0c0 .1 0 .1 0 0 0 .1 0 .1 0 0zM13.1 14.2s.1.1 0 0h.2c-.1-.1-.2-.1-.2 0zM13.4 19.9zM13.2 7.3c-.1 0 0 0 0 0zM12.6 17.4l.1.1c.1-.1 0-.1-.1-.1 0-.1 0 0 0 0zM13.2 12.6s0 .1 0 0c-.1.1 0 .1 0 .1s.1 0 0-.1c.1.1.1 0 0 0zM13.6 19.9s-.1 0 0 0c-.1-.1-.1-.1-.1 0 0 0 0 .1.1 0-.1.1 0 .1 0 0zM13.5 9.9s0-.1 0 0c0-.1 0 0 0 0zM13.2 8.8zM14.7 22.3c0-.1 0-.1 0 0 0-.1 0 0 0 0zM14.6 13.3h.1c0-.1 0-.1-.1 0 .1-.1.1-.1 0 0 0-.1 0-.1 0 0 0-.1 0 0 0 0zM14.5 18.1c.1.1.1.1 0 0h0c.1 0 .1 0 0 0zM14.7 21.1zM14.5 23.1h.2c-.1-.1-.1-.1-.2 0 0-.1 0-.1 0 0zM14.6 14.2zM14.7 15.3c-.1 0-.1 0 0 0-.1.1 0 .1 0 .1v-.1c.1 0 0 0 0 0zM14.5 21.9s.1 0 0 0c.1-.1.1-.1 0 0 0-.1 0 0 0 0zM19.5 14.8c-.1.1 0 .1 0 .1h.2l-.1-.1h-.1zM14.6 21c-.1 0-.1 0 0 0-.1 0-.1 0 0 0-.1 0-.1 0 0 0zM14 12.7s.1 0 0 0c.1 0 .1 0 0 0zM14.1 17.2s-.1 0 0 0c-.1 0 0 0 0 0zM13.9 12.8s0-.1 0 0c-.1-.1-.1-.1 0 0-.1 0-.1 0 0 0zM13.8 14.3c.1 0 .2 0 .2-.1s0-.1-.1-.1-.1 0-.1.2c0-.1 0-.1 0 0zM14.5 20.6s0-.1 0 0c0-.1 0 0 0 0zM14.1 18.8h.1v-.1s-.1 0-.1.1zM14.2 17.4zM20.8 15.9zM15.7 33.4h.2-.3c-.1.1-.3.1-.4 0h-.1c.1.1.2.1.2.2s.1.1.1 0c.1-.2.2-.2.3-.2zM14.8 32.3h-.2v.1s.1 0 .2-.1c-.1.1 0 0 0 0zM15 35.3c.1 0 .1-.1.1-.1H15v.1c0-.1-.1 0 0 0zM15.3 34s.1 0 0 0c.1-.1.1-.1 0 0 0-.1 0-.1 0 0 0-.1 0 0 0 0zM16.5 33.3c0 .1.1.1 0 0 .2.1.2.1.3.1h.1l-.1-.1c0 .1-.1 0-.3 0 .1 0 0 0 0 0zM14.6 35zM14.7 33.9s-.1 0 0 0c-.1 0-.1 0 0 0-.1 0-.1 0 0 0zM14.7 34.6v.1c.1 0 .1 0 0-.1.1 0 .1 0 0 0 .1 0 .1-.1 0 0 .1-.1.1-.1 0 0 .1 0 0 0 0 0zM16.4 26.2c-.1 0-.1 0 0 0-.1.1-.1.1-.2.1l.1.1h.1c0-.1.1-.1 0-.2.1 0 0 0 0 0zM16.7 33s0-.1 0 0c0-.1-.1-.1-.1-.1 0 .1 0 .1.1.1zM16.6 32.1c0 .1 0 0 0 0zM16.9 32.3c-.1 0-.1.1-.2.1l.1.1c.1-.1.1-.1.1-.2zM16.6 31.8s.1 0 0 0c.1.1.1 0 .1 0h-.1c.1 0 0 0 0 0zM16.4 27.4c0 .1 0 .1 0 0v0c0 .1 0 .1 0 0zM14 33.4c-.1 0-.1 0-.1.1v.1h.1l.1-.1h.2c-.2 0-.2-.1-.3-.1.1 0 0 0 0 0zM16.6 30.5c-.1 0-.1.1-.1.1s0 .1.1.1h.1c-.1-.1-.1-.2-.1-.2zM16.4 28.6s0 .1 0 0c0 .1 0 .1 0 0zM15 32.8s-.1 0 0 0c-.1.1-.1.1 0 .1v-.1zM12.5 33.8h-.4s-.1 0-.1.1v.1h.1c.2 0 .3-.1.4-.2zM14.1 33.9s0-.1 0 0c0-.1 0-.1 0 0zM19.7 13.9s0 .1 0 0c0 .1 0 0 0 0zM12.2 34.4s-.1 0 0 0v.1s.1 0 .1-.1h-.1zM12.2 26zM12.1 36.7c.1 0 .1 0 0 0 .1 0 .1 0 0 0zM12.2 21.8c.1 0 .1 0 0 0 .1 0 .1 0 0 0zM12.2 21.7zM12.4 24.4c.1 0 .1-.1.1-.1s0-.1-.1 0c0 0-.1.1 0 .1-.1-.1-.1 0-.1 0h.1c-.1 0-.1 0 0 0zM12.9 29.6s0 .1 0 0c0 .1 0 .1 0 0zM13.1 30.5s-.1 0-.1.1c0-.1 0-.1.1-.1zM12.9 31.7h.1c0-.1 0-.1-.1 0 .1-.1.1-.1 0 0 0-.1 0-.1 0 0 0-.1 0-.1 0 0zM12.6 35.8zM12.3 36.4l-.1-.1s-.1 0-.1.1 0 .1.1.1c0-.1.1-.1.1-.1zM13.2 27.3s-.1 0 0 0l-.1-.1H13s0 .1.1.1c-.1.1-.1.1.1 0-.1.1-.1.1 0 0zM12.6 35h-.1.1zM12.2 35.2s0 .1 0 0l.1.1s0-.1-.1-.1zM20.9 25.6c0-.1 0-.1 0 0 0-.1 0-.1 0 0 0-.1 0 0 0 0zM20.1 14.6c0 .1 0 .1 0 0 0 .1 0 .1 0 0zM12.2 23.1s.1 0 0 0c.1 0 0-.1 0 0 0-.1 0 0 0 0zM20.3 19.2c0-.1-.1-.1-.1-.1h-.1c.1.1.1.1.2.1 0 .1 0 .1 0 0zM20.9 22.9c0 .1 0 .1 0 0 0 .1 0 .1 0 0 0 .1 0 .1 0 0 0 .1 0 .1 0 0zM19.3 20.4s0 .1 0 0c.2 0 .3.1.4.2h.1c-.2-.1-.3-.1-.5-.2.1 0 0 0 0 0zM20.7 23.8s.1.1 0 0c.1.1.2.1.2.1l-.1-.1s0-.1-.1 0zM20.8 15.6zM20.7 18c-.1 0 0 .1 0 0v.1h-.1v.1h.1c.1 0 .1-.1.2-.1V18h-.2zM19.5 17.9l.1.1h0c-.1-.2-.1-.2-.1-.1 0 0-.1 0 0 0zM19.6 17.5c0-.1 0-.1 0 0 0-.1 0-.1 0 0-.1-.1-.1-.1 0 0-.1-.1-.1-.1 0 0zM19.7 17.5c.1 0 .1 0 0 0 .1-.1.1-.1 0 0 0-.1 0-.1 0 0zM17.4 29.5v-.2c-.1-.1-.1-.1-.2-.1h-.1v.1l.1.1c.1 0 .2.1.2.1zM19.6 20.1s.1-.1 0 0c0-.1-.1-.1-.1-.1.1 0 .1.1.1.1zM19.4 19.2s.1 0 0 0c.1 0 0-.1 0 0 0-.1 0 0 0 0zM19.5 18.7s0-.1 0 0zM19.7 19.2s-.1 0 0 0c-.1 0-.1 0 0 0zM20 29.2s-.1 0 0 0c-.1 0 0 0 0 0zM20.8 24.3zM17.2 33h.2v-.1c-.1 0-.2 0-.2.1 0 0-.1 0 0 0zM20.6 24.4c-.1 0-.2.1-.3.1h.1c.1.1.2 0 .2-.1zM19.9 28.8s0-.1 0 0h-.1v.1h.1s.1-.1.2-.1h-.2zM17.3 32.2zM17.1 34c.1 0 .1 0 0 0 .1 0 .1 0 0 0 .1 0 0 0 0 0zM17.3 34.5c-.1 0-.1 0 0 0-.1 0-.1.1 0 0 0 .1 0 .1 0 0zM20.4 28.3l.1-.1v-.1c-.1.1-.1.1-.1.2zM20.7 21.9zM20.9 25.1c-.1 0-.1 0 0 0-.1 0-.1 0 0 0-.1 0-.1 0 0 0-.1 0-.1 0 0 0zM20.7 25.5c.1 0 .1 0 0 0 .1 0 0 0 0 0zM20.5 25.7h-.1c0 .1.1.1.1 0zM20.4 23.2c.1.2.3.1.3 0v-.1c-.1 0-.2 0-.3.1 0-.1 0-.1 0 0zM21 21.8v-.1h-.1c-.1 0-.1 0-.1.1 0 0 .1-.1.2 0-.1 0 0 0 0 0zM20.7 21.9c0-.1 0-.1 0 0 0-.1 0-.1 0 0zM5.7 24.3v-.1.1zM2.7 23s0 .1 0 0c.1.1.1 0 .1 0h-.1zM2.9 23zM3 22.9s-.1 0-.1.1H3l.1-.1c0-.1-.1 0-.1 0zM3.2 27.7c0-.1 0-.1 0 0-.1-.1-.1 0-.1 0h.1zM3.1 26.5c0-.1 0 0 0 0zM2.9 25.4c-.1 0-.1.1 0 0-.1.1-.1.1 0 0 0 .1 0 .1 0 0 0 .1 0 .1 0 0 0 .1 0 .1 0 0zM3 25.9c0-.1 0-.1 0 0l-.1-.1c0 .1 0 .1.1.1-.1 0 0 0 0 0zM3.1 30.7c0-.1 0-.1 0 0 0-.1 0-.1 0 0zM2.7 11.3h-.1s.1.1.1 0zM2.5 22.4c.1-.1 0-.1 0-.2 0 .1-.1.2 0 .2-.1 0 0 0 0 0zM2.5 21.6c0-.1-.1-.1 0 0-.1-.1-.1-.1 0 0-.1-.1-.1 0 0 0zM2.3 27zM2.8 17.9s0-.1 0 0h-.2.2zM2.5 21.1c0-.1-.1-.1 0 0-.1-.1-.1-.1-.2-.1.1.1.1.1.2.1-.1 0 0 0 0 0zM3 23.6zM2.7 15.4zM2.7 14.2v-.1h-.1s-.1 0-.1.1h.2zM2.6 12.8c-.1 0 0 0 0 0zM2.9 12.2h0zM2.9 14s.1 0 0 0h.2c0-.1-.1-.1-.2 0 .1-.1 0 0 0 0zM3.1 7.8zM3.1 10.2c.1 0 .1 0 0 0 .1-.1 0-.1 0 0 0-.1 0 0 0 0zM3.2 17.3l-.2.1c.1.1.1 0 .2-.1zM2.8 20.5s-.1 0-.1.1.1.1.1.1 0-.1.1-.1c0-.1-.1-.1-.1-.1zM3.1 11.3c-.1-.1-.1-.1 0 0-.1-.1-.1-.1 0 0-.1 0-.1 0 0 0-.1 0-.1 0 0 0zM2.9 13.5c-.1 0 0 0 0 0 0 .1.1.1.1.1 0-.1 0-.1-.1-.1zM3.1 21.2zM2.9 22.1s0 .1 0 0v.1c.1 0 .1 0 0-.1.1 0 0 0 0 0zM2.7 21.7s0 .1 0 0v.1s.1 0 .1-.1c.1-.1 0 0-.1 0zM3.1 14.7l-.1.1c.1 0 .1 0 .1-.1.1 0 0 0 0 0zM2.7 19.6c0 .1 0 .1 0 0zM3 21.5v.1c.1 0 .1 0 0-.1.1 0 .1 0 0 0zM3.1 20.3c-.1 0-.1 0 0 0-.1 0-.1 0 0 0 0 .1.1.1.1.1 0-.1-.1-.1-.1-.1zM3.1 18.7zM3 16.1h.1c0-.1-.1 0-.1 0zM1.8 18c0-.1 0-.1 0 0 0-.1 0-.1 0 0zM1.7 18.6s0-.1 0 0h-.1.1zM2.1 15.2zM1.6 21.5zM1.9 14h.2v-.1H2s0 .1-.1.1zM1.4 25.8zM1.5 24.1h-.1-.1c.1.1.2.1.2 0zM1.3 23s0 .1 0 0c.1 0 .2.1.2 0s0-.1-.1-.1-.1.1-.1.1zM1.8 19.8s-.1 0 0 0c-.1 0-.1 0 0 0-.1 0 0 0 0 0zM2.1 18s-.1-.1 0 0c-.1 0-.1 0 0 0-.1 0-.1 0 0 0zM2.5 11.9s-.1 0 0 0c-.1 0-.1 0 0 0-.1 0-.1 0 0 0zM2.3 18.6l.1.1h.1c-.1-.1-.1-.1-.2-.1 0-.1 0 0 0 0zM2.4 11.4zM2.2 17.7c.1.1.1.1 0 0h0c.1 0 .1 0 0 0zM2 18.4s.1.1 0 0h0c.1 0 0 0 0 0zM2.1 20.4zM2.2 22.1h-.1c0 .1 0 .1.1 0 0 .1 0 .1 0 0 0 .1.1.1 0 0 .1.1.1.1 0 0zM2.2 26.6h0c0-.1-.1-.1-.1-.1v.1h.1zM1.7 23.7l.1.1c0-.1-.1-.1-.1-.1zM1.4 26.6c0-.1.1 0 0 0 .1.1.1.1.1 0v-.1c0-.1-.1-.1-.1-.1 0 .1-.1.1 0 .2-.1-.1-.1 0 0 0-.1 0 0 0 0 0zM1.7 22.3c-.1 0-.1.1-.2 0l.1.1c.2.1.2 0 .1-.1zM1.9 22.3c-.1 0-.1 0 0 0h-.1s0 .1.1 0c-.1.1-.1 0 0 0zM1.7 22.3zM2.3 27.9c-.1-.1-.1-.1-.2-.1 0 .1.1.2.2.1zM2.3 29s0-.1 0 0h-.1s0 .1.1 0c0 .1 0 .1 0 0zM1.4 22.2c-.1 0-.1 0 0 0-.1 0-.1 0 0 0zM2.1 26.9H2c0 .1.1.1.1 0 0 .1 0 .1 0 0zM1.5 15.9c0 .1 0 .1 0 0 .1.1.1 0 .1 0h-.1zM1.5 15.2c-.1 0-.1 0 0 0-.1 0-.1 0 0 0 0 0 0-.1 0 0 0-.1 0-.1 0 0zM1.3 29.7s0-.1 0 0c0-.1 0-.1 0 0 0-.1 0-.1 0 0-.1-.1 0 0 0 0zM1.5 19zM1.3 20.9s0-.1 0 0h-.1.1zM1.1 24s.1 0 0 0c.1.1.1 0 .1 0h-.1c.1 0 0 0 0 0zM1.2 21.7s0 .1 0 0c.1.1.1.1 0 0 .1.1.1 0 .2 0v-.1c-.1.1-.1.1-.2.1zM4 28.5c.1 0 .1 0 .2-.1-.1 0-.1.1-.2.1zM4.4 25.5s-.1 0 0 0c-.1.1 0 .1 0 .1v-.1zM4.4 15.2c-.1 0 0 0 0 0 0 .1 0 .1 0 0 .1 0 .1 0 0 0 .1 0 .1 0 0 0zM4.4 16.1c0 .1 0 .1 0 0 .1.1.1.1 0 0 .1 0 0 0 0 0zM4.4 17.4c.1 0 .1 0 0 0h.2c-.1-.1-.1-.1-.2 0zM4.2 25.9s.1 0 .1.1c0-.1 0-.1-.1-.1zM7.2 31.6c0 .1.1.1.1.1 0-.1 0-.1-.1-.1zM4.6 19.8c-.1 0-.1 0-.2.1v.1h.1c.2 0 .2-.1.1-.2.1 0 0 0 0 0zM4.4 27.1c-.1-.1-.1-.1 0 0h-.1.1zM4.3 18.5c.1.1.1.2.2.2h.1s.1 0 .1-.1v-.1h-.1c-.2-.1-.3 0-.3 0 0-.1 0 0 0 0zM4 16.8c0 .1.1 0 0 0h.1c.1 0 .1 0 .1-.1h-.1H4h-.1c.1 0 .1.1.1.1zM4 15.9c.1 0 .1 0 0 0 .1 0 .1 0 0 0 .1 0 .1-.1 0 0 .1 0 .1 0 0 0zM4.6 21s-.1 0-.1.1l.1.1.1-.1-.1-.1zM4.7 22.9c-.1 0-.1 0 0 0h-.2.2zM4.2 11.9s-.1 0 0 0c-.1.1-.1.1 0 0 0 .1 0 .1 0 0zM4.5 21.5l.1.1s0-.1-.1-.1c.1 0 .1 0 0 0zM4.6 23.8c0-.1 0-.1 0 0 0-.1-.1-.1-.1-.1 0 .1.1.1.1.1zM4.6 22.6l.1-.1h-.1-.1c0-.1 0 0 .1.1-.1-.1 0-.1 0 0zM2.5 19.1c0-.1 0-.1 0 0h-.1.1c-.1 0-.1 0 0 0zM3.8 24.1s0-.1 0 0c0-.1 0-.1 0 0zM4 19.2zM4 24.1zM3.9 23.6c0 .1 0 .1 0 0h-.1c0 .1 0 .1.1 0 0 .1 0 .1 0 0zM3.8 25.3zM4.1 20.5h.2c-.1-.1-.1-.1-.2 0 0-.1 0 0 0 0zM3.9 24.8s.1 0 .1-.1l-.1.1v-.1c-.1 0-.1.1 0 .1-.1 0-.1.1 0 0zM4 27.4c.1 0 .1-.1 0 0 .1-.1.1-.1 0 0 0-.1 0-.1 0 0 0-.1 0-.1 0 0 0-.1 0-.1 0 0zM3.9 26.4zM4.1 29.7c0-.1 0-.1 0 0v-.1.1c0-.1 0-.1 0 0zM4.2 26.6s0 .1 0 0l.1.1v-.1h-.1zM4.2 15.5s0-.1 0 0c0-.1 0-.1 0 0 0-.1-.1-.1 0 0-.1-.1 0-.1 0 0zM4 23.6c-.1 0-.1 0-.1.1l.1-.1zM3.9 23.6zM4.1 26.1c0-.1-.1-.1-.1-.1h-.1l.1.1c0 .1.1 0 .1 0zM3.8 32.6c.1-.1.1-.1 0 0 0-.1 0 0 0 0zM3.3 25.2c0 .1 0 .1 0 0 0 .1 0 .1 0 0 .1 0 0 0 0 0zM3.2 28.8s0 .1 0 0c0 .1 0 0 0 0zM3 28.2s0 .1 0 0c0 .1 0 .1 0 0 0 .1 0 .1 0 0 0 .1 0 0 0 0zM3 29s0 .1 0 0zM3 27.9c0-.1 0-.1 0 0 0-.1 0-.1-.1-.1v.1c0-.1 0 0 .1 0zM3 29.4c-.1 0-.1 0 0 0h-.1c-.1 0 0 .1.1 0-.1.1-.1 0 0 0zM3.3 26c-.1.1 0 .1 0 .2V26zM4 10.5zM3.3 28.4h-.2c.1.1.1.1.2 0 0 .1 0 .1 0 0zM2.6 30s0 .1 0 0c.1.1.1 0 .1 0h-.1zM2.7 29.6s0 .1 0 0c0 .1 0 .1 0 0zM2.7 18.4c.1.1.1 0 0 0 .1 0 .1 0 0 0zM2.7 19.2c-.1 0-.1 0 0 0-.1.1-.1.1 0 0 0 .1 0 .1 0 0zM2.8 23.4c.1.1.1.1 0 0h0c.1 0 .1 0 0 0 0-.1-.1-.1-.1-.1 0 .2.1.1.1.1zM2.9 27c.1 0 .1 0 0 0zM2.9 26.6c0-.1 0-.1 0 0-.1-.1-.1-.1 0 0-.1-.1-.1 0 0 0-.1 0-.1 0 0 0zM3 24.8s0-.1 0 0c0-.1-.1-.2-.2-.2l.2.2zM3.3 27.1c-.1 0-.1 0-.2.1l.1.1c.1 0 .1 0 .1-.2.1.1 0 0 0 0zM3.7 13.6s-.1 0 0 0c-.1 0 0 0 0 0zM3.4 19.3s0-.1 0 0c0-.1 0-.1 0 0-.1-.1-.1-.1 0 0-.1-.1 0 0 0 0zM3.6 17.2c0-.1-.1 0 0 0-.1 0 0 0 0 0zM3.4 16.6c-.1 0-.1 0 0 0-.1 0 0 0 0 0zM3.6 15.9s0 .1 0 0c0 .1 0 .1 0 0zM4 12.8c0-.1 0-.1 0 0 0-.1 0-.1 0 0-.1-.1 0 0 0 0zM3.8 16.5c0-.1 0-.1 0 0zM3.8 17.5c0-.1.1-.1 0 0v-.2s-.1 0-.1.1c.1 0 .1 0 .1.1zM3.6 21.8s-.1 0 0 0c-.1 0 0 0 0 0zM3.5 27.7s0-.1-.1-.1c0 0 0 .1.1.1-.1 0-.1 0 0 0-.1 0-.1 0 0 0zM3.4 26.5zM3.5 24.1c-.1 0-.1-.1-.2-.1h-.1v.1c.1 0 .2.1.3 0-.1.1 0 .1 0 0 0 .1 0 0 0 0zM3.4 22.9c0-.1-.1-.1-.1-.1-.1.1 0 .1.1.1-.1 0-.1 0 0 0zM3.5 21.8zM3.4 24.7c-.1 0-.1 0-.2.1v.1h.1s.1-.1.1-.2zM3.5 21.7c-.1-.1-.1-.1 0 0h-.1s0 .1.1.1h.1c-.1 0-.1-.1-.1-.1zM1.2 25.2H1h.2c0 .1.1 0 0 0 .1 0 0 0 0 0zM7 29.8h-.1s-.1 0-.1.1c0 0 .1 0 .1.1H7v-.2zM6.2 31.3zM7.2 33.1zM6.3 30.9s-.1 0 0 0c-.1 0-.2-.1-.2 0s.1.1.2 0c-.1.1 0 .1 0 0zM5.9 31.5h-.2v.2h.1c.1-.1.1-.1.1-.2.1 0 .1 0 0 0zM6 29H5.7h-.1l-.1.1v.1s.1 0 .2.1c0 0 .1 0 .1-.1.2-.1.3-.1.2-.2zM5.9 30.4s-.1 0-.1.1c0-.1 0 0 .1-.1 0 .1 0 0 0 0zM5.9 31.9c0 .1.1.1 0 0 .1.1.1 0 0 0 .1 0 0 0 0 0zM7.6 32.1c0-.1 0-.1 0 0-.1-.1-.2-.1-.3-.2h-.1.1c.1 0 .1 0 .2.1 0 .1 0 .1.1.1zM7.1 33.2c-.1 0-.1 0 0 0-.1 0-.2.1-.2.1v.1c.1 0 .1-.1.2-.2zM7 34.8zM6.9 34.4c0-.1 0-.1 0 0-.1 0-.1 0 0 0v.1H7s0-.1-.1-.1zM6.9 32.5s0 .1 0 0H7h-.1zM5.7 29.6zM6.9 32.2c.1 0 .1-.1 0 0 .1-.1.1-.1 0 0 0-.1 0-.1 0 0 0-.1 0-.1 0 0zM6.9 30.9c.1 0 .1 0 0 0 .1 0 0-.1 0 0zM7 30.2zM6.1 32s.1.1 0 0c.1.1.1.1 0 0 .1 0 .1 0 0 0zM3.4 30.8zM3.4 30h-.1c0 .1 0 .1.1 0 0 .1 0 .1 0 0 0 .1.1.1 0 0 .1.1 0 0 0 0zM3.5 32s0-.1 0 0c0-.1 0-.1 0 0 0-.1-.1 0 0 0h-.1.1zM3.7 30.3s.1 0 0 0zM3.7 31.6c.1-.1.1-.1 0 0 .1-.1.1-.2 0-.2v.2c0-.1 0-.1 0 0zM3.1 31.3c-.1 0-.1 0-.2.1.1 0 .1.1.2.1 0 0 .1 0 .1-.1s-.1-.1-.1-.1zM2.9 30.6v.1c.1-.1.1-.1 0-.1.1 0 .1 0 0 0zM3.1 32.6c.1 0 .1 0 0 0 .1-.1 0-.1 0 0 0-.1 0-.1 0 0 0-.1 0-.1 0 0 0-.1 0-.1 0 0 0-.1 0 0 0 0zM4.9 32h-.1v.1c0 .1.1 0 .1-.1zM4.9 33.6c-.1 0-.1 0 0 0h-.1.1c-.1.1 0 0 0 0zM4.1 30.8H4h-.1s0 .1.1.1.1 0 .1-.1c.1 0 .1 0 0 0 .1 0 .1 0 0 0zM4.8 32.5c-.1 0 0 0 0 0zM3.7 29.5s0-.1 0 0c0-.1 0-.1 0 0zM3.8 29.1s0-.1 0 0c-.1-.1-.1-.1 0 0-.1 0-.1 0 0 0zM4.1 31.3c0 .1 0 .1 0 0l.1.1c0-.1 0-.1-.1-.1zM4.1 33.2c0 .1 0 .1.1.1h.1c-.1-.1-.2-.2-.2-.1zM3.1 31.8s-.1 0 0 0H3c0 .1 0 .1.1 0-.1.1 0 .1 0 0 0 .1 0 .1 0 0zM10.8 36.3c0-.1 0-.1 0 0 0-.1 0-.1 0 0 0-.1 0 0 0 0zM10.3 36.9c.1 0 .1 0 0 0 .1.1.1 0 .1.1h.1s-.1 0-.1-.1 0-.1-.1 0c.1-.1.1-.1 0 0zM10.5 36.1c-.1-.1-.1 0-.1 0h.1zM11 36.9zM10.9 34.4s-.1 0-.1-.1c0 .1.1.1.1.1zM10.5 35.7h-.2-.1v.1c.1 0 .1.1.2.1s.1 0 .1-.1c.1-.2 0-.1 0-.1zM10 36.6h.1v-.1c0 .1 0 .1-.1.1zM10.2 33.8s-.1 0 0 0c-.1 0-.2 0-.3-.1v.1c.1.1.2.2.3.2h.1c-.1-.1-.1-.2-.1-.2zM14.6 37.5h.2c0-.1-.1-.1-.1-.1h-.1-.1v.1c-.1-.1 0-.1.1 0-.1-.1 0 0 0 0zM14.4 37.5zM7.2 34s.1 0 0 0c.1 0 .1-.1.1-.1l-.1.1c0-.1 0-.1 0 0 0-.1 0 0 0 0zM10 35.1c-.1 0 0 0 0 0 .1.1.1.1.2.1v-.1h-.1c-.1-.1-.1-.1-.1 0zM11.4 33.8zM11.5 35.2l.1-.1c-.1 0-.1.1-.1.1-.1 0-.1 0 0 0zM11.1 35.8c0-.1-.1-.1-.1-.1 0 .1 0 .1.1.1zM11.6 33.9c-.1-.1-.2-.1-.2-.1v.2c0 .1.1 0 .2-.1 0 .1 0 .1 0 0zM11.1 33.8s.1 0 0 0h0c.1 0 0 0 0 0zM8.4 32.2s0-.1 0 0c-.1-.1-.1 0 0 0-.1 0-.1 0 0 0zM8.6 36h-.1-.1s0 .1.1.1l.1-.1zM8.4 36.8zM8.1 29.1h-.2c0 .1.1.1.2 0zM9.5 33.2c0-.1 0-.1 0 0 0-.1 0-.1 0 0zM7.5 34.5c.1 0 .2 0 .2-.1-.1 0-.1 0-.2.1 0-.1 0 0 0 0zM7.7 33.2h-.2-.1v.1h.1c.2.1.2 0 .2-.1 0 .1 0 0 0 0zM8.1 36.1zM8.3 31.3c-.1 0-.1 0 0 0-.1.1-.1.1 0 0-.1.1-.1.1 0 0-.1.1 0 .1 0 0 .1.1.1 0 .1 0-.1.1-.1 0-.1 0zM9.5 32.6h-.1l-.1.1s.1 0 .1.1h.1s.1 0 .1-.1c-.1 0-.1-.1-.1-.1zM9.1 31c-.1 0-.1 0 0-.1H9c-.1 0-.1.1 0 .2l.1-.1c0 .1 0 .1 0 0 0 .1 0 .1 0 0zM9.1 32.5H9c0 .1 0 .1.1 0 0 .1 0 .1 0 0zM9.3 34c.1 0 .1.1.1.1 0-.1 0-.1-.1-.1.1 0 0 0 0 0zM9.1 34.5c0-.1 0-.1 0 0 0-.1 0-.1 0 0 0-.1 0 0 0 0zM9.1 33.7c-.1-.1-.1 0 0 0-.1 0 0 0 0 0zM9.1 32.1s-.1 0 0 0c-.1 0-.1 0-.2.1 0 .1 0 .1.1.1.1-.1.1-.1.1-.2zM2 20.8s0 .1 0 0c0 .1 0 .1 0 0 0 .1.1.1.1.1 0-.1 0-.1-.1-.1zM.9 27.7zM1.2 17.1zM1.2 18s0 .1 0 0l.1.1c0-.1-.1-.1-.1-.1zM.8 25.8l-.1-.1c0 .1 0 .1.1.1-.1 0 0 0 0 0zM.7 25.4c.1 0 .1 0 0 0 .1-.1 0-.1 0 0 0-.1 0-.1 0 0zM1.2 20.5s.1 0 .1.1h.1v-.1c-.1-.1-.1-.1-.2 0 0-.1 0-.2-.1-.1l.1.1zM1.3 18.4zM1.1 21.5zM1.3 19.7s.1 0 0 0c.1 0 .1 0 0 0 .1 0 .1-.1 0 0 .1-.1 0-.1 0 0 0-.1-.1-.1-.1 0h.1zM1 14.2s.1 0 0 0c.1 0 .1 0 0 0 .1 0 .1 0 0 0 .1 0 .1 0 0 0zM1.1 16.7c0-.1 0-.1 0 0-.1-.1-.1-.1 0 0-.1-.1 0 0 0 0zM1.1 15.4s0 .1 0 0c0 .1 0 .1 0 0 0 .1 0 .1 0 0 0 .1 0 0 0 0zM.7 24.6s0-.1 0 0c0-.1 0 0 0 0zM.5 20.9c.1 0 0 0 0 0zM.7 23.4c-.1 0-.1 0 0 0-.1 0-.1 0 0 0-.1 0-.1.1 0 0-.1.1-.1 0 0 0zM.6 22.9c0 .1 0 .1 0 0 0 .1.1.1.1.1s0-.1-.1-.1zM.7 21.8zM1.6 12.8s.1 0 0 0c.1 0 .1-.1 0 0 .1 0 .1-.1 0-.1.1 0 .1 0 0 .1zM1.9 19.7H2s0-.1-.1 0c0-.1 0 0 0 0zM2 23.4zM2.3 25.4c-.1 0-.1 0 0 0-.1 0-.1 0 0 0-.1.1-.1.1 0 0-.1.1-.1 0 0 0zM2 23.1h.2H2h-.1c0-.1 0 0 .1 0zM2.1 24.3h.1v-.1H1.9h-.1c.2 0 .2.1.3.1-.1 0 0 0 0 0zM2.3 24.6h-.1.1zM2.3 20.3zM2.3 23.5s0-.1 0 0c0-.1 0 0 0 0zM1.4 17.3c.1.1.2.1.3 0 .1-.1.2-.1.3-.1h.1s0-.1-.1-.1h-.1c-.1 0-.3.1-.5.2 0-.1 0 0 0 0zM2.2 10.8c0-.1 0-.1 0 0-.1 0-.1 0-.2.1.1 0 .1 0 .2-.1zM2.4 19.9c0-.1-.1-.1-.1-.1v.1c0-.1.1 0 .1 0zM1.8 14.2s0-.1 0 0c-.1 0-.1 0 0 0-.1 0-.1 0 0 0zM2 13.4l.1.1v-.1H2c0-.1 0 0 0 0zM2 19.2s.1 0 0 0c.1 0 .1-.1.1-.1l-.1.1zM2 21.7c0 .1 0 .1 0 0 .1.1.2.1.2.1v-.1c0 .1-.1 0-.2 0zM2.2 16.1zM.8 26.6c.1 0 .1 0 0 0v-.2c-.1 0 0 .1 0 .2zM1 24c0 .1 0 0 0 0zM1.1 25.9s0 .1 0 0c0 .1-.1.1 0 0-.1.1 0 .1 0 .2v-.2c.1.1.1.1 0 0 .1 0 0 0 0 0zM4.2 19.2c-.1 0-.1 0 0 0-.1.1 0 .1 0 .1v-.1zM1.1 27.6s.1 0 0 0c.1 0 .1 0 0 0 .1 0 .1 0 0 0zM1.1 23.6h.1s0-.1-.1 0c.1-.1 0-.1 0-.1H1c-.1 0 0 0 .1.1-.1 0-.1 0 0 0zM1 24.8zM2.7 27.2l-.1-.1h-.1v.1s.1.1.2 0c0 .1 0 0 0 0zM1.2 26.4zM1.8 27.2H2l-.1-.1h-.1s-.1 0 0 .1c-.1 0 0 0 0 0zM1.7 26v.1l.1-.1v-.1h-.1c.1 0 .1.1 0 .1zM1.9 25.2zM2.6 25.2h0c-.1.1-.1.1 0 0zM1.9 27.7s.1-.1 0 0v-.1h-.1s.1 0 .1.1zM2 28.4c-.1-.1-.1-.1-.2 0l.1.1.1-.1zM2 24.6h-.2c-.1 0-.2.1-.2.1v.1l.1-.1c.2 0 .3 0 .3-.1zM.5 26.1c0-.1 0-.1 0 0 0-.1 0-.1 0 0-.1-.1-.1-.1 0 0-.1-.1-.1-.1 0 0zM.5 19.1zM.2 21s0 .1 0 0c0 .1 0 .1 0 0-.1.1-.1.1 0 .1h.1l.1-.1H.2zM.8 22.9zM.7 24.2h.2s0-.1-.1-.1-.1 0-.1.1zM.6 20.4l.1-.1c0-.1-.1 0-.1 0H.5.4c.1 0 .1.1.2.1-.1 0 0 0 0 0zM.7 15.9c-.1 0-.1.1 0 0-.1.1-.1.1 0 0 0 .1 0 .1 0 0zM1 19.7s-.1 0 0 0c-.1.1-.1.1 0 0 0 .1 0 .1 0 0 0 .1 0 0 0 0zM.8 21c.1 0 .1 0 .1.1H1s.1 0 .1-.1 0-.1-.1-.1c0 0-.1 0-.2.1zM.9 20.2c0 .1 0 0 0 0zM.4 18.4c.1 0 .1 0 0 0 .1 0 0 0 0 0 0-.1 0 0 0 0zM.5 24zM.6 22.1c-.1 0-.1 0 0 0-.1.1 0 .1 0 .1v-.1zM.6 24.7c-.1 0-.1 0 0 0-.1 0-.1 0-.2.1v.1h.1c0-.1 0-.1.1-.2 0 .1 0 0 0 0zM.4 25.1s0 .1 0 0c0 .1 0 .1 0 0 0 .1.1.1 0 0zM.6 19.6H.4.3l.1.1c.1 0 .2 0 .2-.1zM1 22.7s0 .1 0 0c0 .1 0 .1 0 0 0 .1 0 .1 0 0 0 .1.1.1 0 0h0zM.4 21.5c.1 0 .1 0 0 0zM4.3 28c.1 0 .1-.1.1-.1h-.1v.1c-.1-.1-.1-.1 0 0-.1 0 0 0 0 0zM5.9 14.8c0-.1-.1-.1-.1-.1l-.1.1c.1 0 .1.1.2 0 0 .1 0 0 0 0zM5.9 16.1c.1.1.1.1 0 0h0c.1 0 .1 0 0 0zM5.8 12.1s.1 0 0 0c.1 0 .1 0 0 0 .1 0 .1 0 0 0zM6.4 13.2c.1 0 .1.1 0 0 .1.1.1 0 0 0 .1 0 .1 0 0 0 .1 0 .1 0 0 0z"/><path class="st1" d="M5.9 14.8l.1.1c0-.1 0-.1-.1-.1zM5.8 13.3c0 .1.1.1.1.1s.1 0 .1-.1h-.1-.1zM5.9 12.1H6c0-.1-.1-.1-.1 0 0-.1 0 0 0 0zM5.9 12.1zM6.1 16.5c0 .1 0 .1.1.2 0-.1-.1-.1-.1-.2zM6.4 19.1c0 .1 0 .1 0 0-.1.1-.2.1-.2.2s.1.1.2 0c.1 0 .1-.1 0-.2.1.1 0 .1 0 0zM6.3 20.5h0c.1 0 0 0 0 0zM6.5 19.7s-.1 0 0 0h-.1.1zM6 16.5h0zM6.1 19s0 .1 0 0c0 .1 0 0 0 0zM6 20c.1 0 .2 0 .2-.1-.1 0-.1 0-.2.1 0-.1 0-.1 0 0zM5.6 21.8c0 .1 0 .1 0 0 .1.1.1.1 0 0l.1.1v-.1h-.1c.1 0 .1 0 0 0zM6.1 16.5zM5.3 21.6s.1 0 0 0zM5.5 22.5c-.1 0-.1-.1 0 0h-.1.1c-.1 0-.1 0 0 0zM5 23.5s0-.1 0 0c0-.1 0 0 0 0zM5.1 25.5s0 .1 0 0c0 .1 0 .1 0 0 0 .1 0 0 0 0zM5.4 23s.1 0 0 0c.1 0 .1 0 0 0 .1-.1.1-.1 0 0 0-.1-.1-.1-.1-.1h-.1c-.1 0-.1.1-.2.1h.1c.1-.1.2-.1.3 0zM5.3 18.6c-.1.1-.1.1 0 0-.1.1-.1.1 0 0 0 .1.1.1.1.1l.1-.1c-.1.1-.1 0-.2 0zM5.1 16.1s.1 0 0 0c.1 0 .1 0 .1-.1s-.1 0-.1.1zM6.2 17.9v.1c.1-.1.1-.1 0-.1zM5.2 19.1c.1 0 .1 0 .1-.1l-.1.1c0-.1 0 0 0 0zM5.7 19.7s-.1 0 0 0c-.1 0-.1 0 0 0-.1 0-.1 0 0 0-.1 0-.1 0 0 0-.1 0-.1 0 0 0zM5.1 26c0-.1 0-.1 0 0 0-.1 0-.1 0 0zM5.1 30.3s0 .1 0 0c-.1.1-.1.1 0 .1 0 0 .1 0 0-.1.1.1.1 0 0 0zM5.6 20.5s0 .1 0 0c0 .1 0 .1 0 0h.2c-.1-.1-.1 0-.2 0zM7.1 18.1c.1 0 .1-.1.1-.1-.1 0-.2-.1-.3-.2 0 .1 0 .2.2.3-.1 0 0 0 0 0zM5 28.3s.1 0 0 0c.1 0 .1 0 0 0zM5 31.5h.1s0-.1-.1 0c0-.1 0 0 0 0zM5.2 27.9c-.1 0-.1 0 0 0-.2 0-.2 0-.2.1h.1l.1-.1zM5.7 23.1s-.1 0 0 0c-.1 0-.1.1 0 .1v-.1zM7 15.4zM7.2 14.6s0-.1 0 0c0-.1 0 0 0 0zM7.1 14.1c-.1 0-.1 0 0 0-.1 0-.1 0 0 0-.1.1-.1.1 0 0 0 .1 0 .1 0 0 0 .1 0 0 0 0zM7.3 13.3c0-.1 0-.1 0 0-.1-.1-.1 0 0 0-.1 0-.1 0 0 0zM7.1 15.4c.1 0 .1 0 0 0 .1 0 .1 0 0 0zM6.3 20.9c-.1.1-.2.1-.3.2h-.1v.1H6c.1 0 .2 0 .2-.1s.1-.1.1-.2c.1.1.2.1.3.2l.1.1h.1v-.1-.1h-.1c-.1.1-.2 0-.2 0-.1 0-.1-.1-.2-.1.1 0 .1 0 0 0zM6.5 12s.1.1 0 0c.1.1.1.1.2.1V12h-.2zM7 13.2zM7.1 19.7s-.1 0 0 0c-.1 0 0 0 0 0zM7.2 15.8h-.1s.1.1.1 0c0 .1 0 .1 0 0zM6.2 26.1c0-.1 0-.1-.1-.1s-.1.1-.2.1v.1H6c.2.1.2 0 .2-.1zM7.1 19.3s-.1 0 0 0c-.1 0 0 0 0 0zM7.1 16.8c.1 0 .1 0 .1-.1-.1 0-.1 0-.1.1zM7.2 18.4s-.1 0 0 0h-.1c0 .1 0 .1.1 0 0 .1 0 .1 0 0zM7.3 24.3h-.1s0 .1-.1.1h.1s0-.1.1-.1zM7.3 21.7l-.2.2c.1 0 .1-.1.2-.2 0 .1 0 .1 0 0zM7.1 23.2h.1c0-.1 0-.1-.1 0zM6.2 24.9c-.1 0-.2 0-.3-.1h-.1c.1 0 .2.1.3.2 0 0 .1 0 .1-.1zM5.9 18.7c-.1 0-.1 0 0 0-.1 0-.1 0 0 0zM5.8 25.6s0-.1 0 0c-.1-.1-.1 0-.1 0h.1zM5.8 17.3s0 .1 0 0c0 .1 0 .1 0 0 0 .1.1.1 0 0 .1 0 0 0 0 0zM5.9 20.3zM6 24.1l.1.1c0-.1 0-.1-.1-.1.1 0 0 0 0 0zM6.5 18c0-.1 0-.1 0 0-.1-.1-.1-.1 0 0h-.2c.1.1.1.1.2 0zM6.1 23.6l-.1.1s0 .1.1.1v-.2c0 .1 0 0 0 0zM6 27.3c0 .1 0 .1 0 0 .1.1.1.1.2.1v-.1H6zM5.1 17.4c.1 0 .1 0 0 0 .1 0 .1 0 0 0 .1-.1.1-.1 0 0 .1-.1 0-.1 0 0 0-.1 0-.1 0 0zM6.2 18zM5.7 21s0-.1 0 0h-.1.1zM6.1 25.3s0 .1 0 0c.1.1.1 0 0 0 .1 0 .1 0 0 0zM5.6 24.2zM5.8 24.4s0-.1 0 0c0-.1-.1-.2-.1-.1l.1.1zM5.6 25.6zM15.2 20.7h.1c0-.1 0-.1-.1 0 0-.1 0 0 0 0zM5.5 19.4h.1l.1-.1v-.1s-.1 0-.1.1c-.1 0-.1 0-.1.1zM5.5 29.7v.1c.1 0 .1 0 0-.1.1 0 0 0 0 0zM5.6 32s-.1 0 0 0c-.2.1-.2 0-.3 0h-.1c0 .2.1.1.2.2.1 0 .2-.1.2-.2zM5 31.9c.1.1.2.1.2.1 0-.1-.1-.1-.2-.1zM5.2 32zM5.5 31s.1 0 0 0c.1 0 0 0 0 0zM5.7 26.8h.1s0-.1.1-.1h-.1s-.1 0-.1.1c-.1-.1-.1-.1-.1 0s0 0 .1 0zM5.7 28.4c.1 0 0 0 0 0zM5.8 27.9h-.1l-.1.1.1.1c.1 0 .1-.1.1-.2 0 .1 0 0 0 0zM5 35c.1 0 .1-.1.1-.1v-.1c-.1 0-.1.1-.1.2zM5.3 33.8s-.1-.1 0 0c-.1 0-.2 0-.2.1l.1.1c0-.1 0-.1.1-.2zM5.1 29.1c0-.1-.1-.1-.1 0s0 .1.1 0zM5 24.4c.1 0 .1 0 0 0 .1-.1.1-.1 0 0 0-.1 0-.1 0 0 0-.1 0-.1 0 0 0-.1 0-.1 0 0-.1-.1-.1-.1-.2-.1l.2.1zM4.7 30.9h.1c-.1 0-.1-.1-.1 0 0-.1 0 0 0 0zM5 21.9l.2-.2v-.1c-.1 0-.2.1-.2.1-.1.1-.1.1 0 .2-.1 0 0 0 0 0zM5.1 34.2c0 .1 0 .1 0 0 0 .1.1.1 0 0 .1 0 .1 0 0 0zM6.2 29.9c0-.1 0-.1 0 0-.1-.1-.1-.1-.2-.1v.1c0-.1.1 0 .2 0zM4.7 31.3s.1 0 0 0c.1 0 .1 0 0 0h.1s0-.1-.1 0c.1-.1 0 0 0 0zM5 32.8c0-.1 0-.1 0 0 0-.1 0-.1 0 0zM7.3 28.1c0-.1-.1-.1 0 0-.1-.1-.1-.1-.1-.2-.1 0-.2-.1-.2-.1 0 .1.1.2.3.3-.1 0 0 0 0 0zM6.8 27.8s-.1 0 0 0c-.1 0 0 0 0 0zM6.9 28.7s.1 0 0 0c.1 0 0-.1 0 0 0-.1-.1-.1-.1-.2 0 .1.1.2.1.2zM6.7 29zM7.2 29.7c0-.1 0-.1 0 0 0-.1 0-.1 0 0 0-.1-.1-.1 0 0-.1-.1 0 0 0 0zM7.2 30.5c.1 0 .1 0 0 0h.1c.1 0 .1 0 0-.1 0-.1-.2-.1-.3 0v.1c.1-.1.1 0 .2 0zM7.2 29.1s0-.1 0 0h-.1.1zM6.7 25c.1 0 .1-.1 0 0v-.2l-.1.1.1.1zM6.3 32.2h-.1.1c0 .1 0 0 0 0zM6.4 25.6s0-.1 0 0c0-.1-.1 0 0 0-.1 0 0 0 0 0zM6.4 29.2zM6.4 24.5c.1 0 .1-.1.2-.1 0 0-.1 0-.1-.1h-.1c-.1.1-.1.1 0 .2zM6.6 29.6h-.1s-.1 0-.1.1h.1c0-.1 0-.1.1-.1zM6.6 28.4zM6.5 27.9v.1s.1 0 .1-.1h-.1zM6.5 30.5c.1 0 .1-.1.1-.1h-.1c-.1-.1-.1 0 0 .1-.1-.1-.1 0 0 0-.1 0 0 0 0 0zM5.2 14.8s.1 0 0 0c.1 0 .1-.1.1-.1s0-.1-.1-.1h-.1l-.1.1c.1.1.2.1.2.1zM5.3 26.1h-.1s0 .1.1 0c0 .1 0 0 0 0zM5.4 27.4c.1-.1 0-.2 0-.2h-.1v.1c0 .1 0 .1.1.1zM5.2 25.4s.1 0 0 0c.1-.1 0-.1 0 0 0-.1 0-.1 0 0zM5.5 25.3h-.1.1c-.1 0 0 0 0 0zM5.4 30.2c0-.1 0-.1 0 0 0-.1-.1-.1 0 0l-.1-.1s0 .1.1.1c-.1 0-.1 0 0 0zM5.3 26.5h0zM5.2 28.5s0-.1 0 0c0-.1 0-.1 0 0zM5.2 29.6zM5.4 24.2c0-.1 0-.1 0 0-.1-.1-.1-.1 0 0-.1-.1-.1 0 0 0zM5.4 31c0-.1 0-.1 0 0 0-.1 0-.1 0 0zM5.3 23.6v.1c.1.1.1.1 0-.1.1.1.1.1 0 0zM5.4 26.2zM5.2 21.2c.1 0 .1 0 0 0 .1 0 .1 0 0 0zM5.2 24.9c.1 0 .1 0 0 0 .2.1.2 0 0 0 .1-.1.1 0 0 0 .1 0 .1 0 0 0zM5.4 24.8c-.1 0-.1 0 0 0-.1 0 0 0 0 0zM5.3 24.8zM4.9 19.7H5s0-.1-.1 0c.1 0 0 0 0 0zM5 19.3h-.1.1zM5.1 19.9s.1 0 0 0c.1 0 .1 0 0 0h.2c0-.1-.1-.1-.2 0 0-.1 0-.1 0 0zM5.2 13.9c0 .1.1.1.1.1 0-.1 0-.1-.1-.1zM5.5 14.2zM4.9 19.3zM4.7 29.7c0 .1 0 .1 0 0h0zM5.6 15.4c-.1-.2-.2-.2-.2-.1s.1.1.2.1zM5.5 28.6h-.1c0 .1 0 .1.1 0-.1.1 0 .1 0 0zM4.7 19.2s.1.1 0 0c.1.1.1.1.2.1 0-.2-.1-.2-.2-.1.1-.1 0 0 0 0zM5.4 27.7h-.1c0 .1.1.1.1 0 0 .1.1.1.1.1 0-.1-.1-.1-.1-.1zM5.7 18.5v-.1l-.1.1h.1zM5.4 15.3zM5.5 29c0-.1 0 0 0 0zM5.5 17.2c.1 0 .1 0 0 0h.1c0-.1 0-.1-.1 0 .1-.1.1-.1 0 0zM5.2 15.2c.1 0 .1 0 0 0l.1.1c0-.1 0-.1-.1-.1.1 0 .1 0 0 0zM5.5 15.9s.1 0 0 0c.1.1.1.1.2.1v-.1h-.1c0-.1-.1 0-.1 0zM3.8 20c.1.1.1 0 .1 0s0-.1-.1 0c0-.1 0 0 0 0zM6 15.2c.1.1.1.1.2.1h.1c-.1-.1-.2-.1-.3-.1zM6.4 14.2c.1 0 .1-.1 0-.1 0 0-.1-.1-.2-.1 0 0-.1 0-.1.1v.1h.3zM6.3 15.4zM6.4 15.5v-.1h-.1-.1c.1 0 .1.1.2.1zM7 7.8l-.1-.1c0 .1 0 .1.1.1 0 .1 0 .1 0 0zM6.8 9.9zM5.4 10zM6.9 10.2s0-.1 0 0c0-.1 0-.2-.1-.3 0 .1 0 .2.1.3zM6.7 9.8s0 .1 0 0c0 .1 0 .1 0 0 0 .1 0 .1 0 0zM4.3 24.7zM4.8 24.8c-.2 0-.3 0-.4-.1h-.1c.1.1.1.2.2.3.1 0 .2 0 .3-.2 0 .1 0 .1 0 0zM5.1 13.4l.1.1c0-.1.1-.1.2-.2h0s-.1.1-.3.1c0-.1 0 0 0 0zM4.8 18.5c.1 0 .2.1.3.1-.1-.2-.2-.2-.3-.1 0-.1 0-.1 0 0zM4.2 24.7h0c0-.1 0 0 0 0zM4.9 18s-.1 0 0 0c-.1 0-.1.1 0 0 0 .1 0 .1 0 0zM4.8 27.3c-.1 0-.1 0 0 0h-.2c0 .1.1.1.2 0-.1.1-.1 0 0 0zM5.4 7.2h-.1v.1h.2l-.1-.1c.1 0 0 0 0 0zM5.4 7.8c.1 0 0 0 0 0zM7.7 5.8zM7.4 21.2c.1.1.1.1.2 0v-.1s-.1 0-.1-.1c-.1 0-.2-.1-.2-.1-.1.2 0 .3.1.3zM7.7 8.8h.1v-.1c0 .1-.1.1-.1.1s-.1 0 0 0c-.1 0-.1 0 0 0zM7.1 21s.1 0 0 0h0zM6.7 7c0 .1 0 .1 0 0 0 .1.1.1.1.1L6.7 7c.1.1 0 .1 0 0zM8.1 27.9s0-.1 0 0c-.1-.1-.3 0-.3.1 0 0 0 .1 0 0 .1 0 .2 0 .3-.1zM8.1 21.1c-.1 0-.1 0 0 0zM8 21.8s.1 0 0 0c.1 0 .1-.1 0 0 0-.1 0-.1 0 0zM7.2 21zM6.7 6.5c0 .1 0 .1 0 0 0 .1 0 .1 0 0zM6.8 7.2s0 .1 0 0c0 .1.1.1.1.1l-.1-.1zM6.8 7.2zM7.5 18.7zM6.5 10.8s.1 0 0 0c.1.1.1.1.1 0 0 0 .1 0 .1-.1l-.1-.1c0 .1 0 .1-.1.2 0-.1 0 0 0 0zM7.4 19.8s0 .1 0 0v.1h.2c-.1 0-.1 0-.2-.1.1 0 0 0 0 0zM6.5 11.2c.1.1.1 0 0 0 .2 0 .3 0 .3.2 0 0 .1 0 .1-.1v-.1c-.1 0-.1-.1-.2-.1 0 .1-.1.1-.2.1zM4.5 30.3c-.1 0-.1-.1 0 0-.1 0-.1 0 0 0-.1 0-.1 0 0 0-.1 0-.1 0 0 0zM3.5 20.6c0-.1.1-.1 0 0l.1-.1c-.1 0-.1 0-.1.1 0-.1 0-.1 0 0zM3.7 21.5c0 .1 0 .1 0 0 .1.1.1.1 0 0 .1 0 .1 0 0 0zM3.9 17.8zM3.9 21.2c0-.1 0-.1 0 0-.1-.1-.1 0-.1 0h.1zM3.8 18.6c.1 0 .1 0 0 0 .1 0 .1 0 0 0 .1 0 0 0 0 0zM4.7 27.7h-.1v.1c0-.1 0-.1.1-.1-.1 0-.1 0 0 0zM3.6 24.3c.1 0 .1 0 .1-.1-.1 0-.2 0-.1.1zM3.6 23.1h0c.1 0 0 0 0 0zM4.2 22.2zM4.3 23.2s.1 0 0 0c.1-.2 0-.1 0-.2 0 0-.1 0-.1.1-.1.1 0 .1.1.1-.1 0 0 0 0 0zM4.3 21.8c.1 0 .1 0 0 0 .1 0 0 0 0 0zM4.2 20.9zM4 14.6zM3.8 22.3c-.1.1-.1.1 0 0 0 .1 0 .2.1.2 0 0 .1 0 .1-.1v-.1c0 .1 0 .1-.2 0 .1.1 0 .1 0 0zM4.3 10.8c-.1.1 0 .1 0 .1v-.1zM4.1 17.9c0 .1 0 .1 0 0v.1c.1 0 .1 0 0-.1.1.1.1 0 .1 0h-.1c.1 0 0 0 0 0zM3.7 16.1zM4.2 28.9c0 .1 0 .1.1.1-.1 0-.1 0-.1-.1zM4.3 29.1zM4.3 29.1zM3.5 10.8c-.1-.1-.1 0-.1 0h.1c0 .1 0 0 0 0zM4.5 29.5c-.1 0-.1 0 0 0h-.1.1c-.1 0-.1 0 0 0zM3.9 33.1c0-.1 0-.1 0 0 0-.1 0-.1 0 0-.1-.1-.1-.1 0 0-.1-.1-.1-.1-.2-.1 0 0 .1 0 .2.1-.1-.1-.1-.1 0 0zM4.6 31.5s-.1 0 0 0h-.2l.1.1s0-.1.1-.1zM8 28.4zM4 28.9s0-.1 0 0c-.1-.1-.1-.1 0 0-.1 0-.1 0 0 0-.1 0 0 0 0 0zM3.4 15.5c.1 0 .1 0 0 0l.1-.1c-.1 0-.1 0-.1.1zM3.4 14.6c0-.1 0-.1 0 0 0-.1 0-.1 0 0 0-.1 0 0 0 0zM3.5 20.9zM3.8 31.8s-.1 0 0 0c-.1 0-.1 0 0 0-.1 0-.1 0 0 0zM3.6 27.9s.1 0 .1-.1l.1-.1h-.1c-.1 0-.1 0-.2.1 0 .1 0 .1.1.1zM3.6 25.6c0-.1.1-.1 0 0v-.1h-.1l-.1.1c.1-.1.1-.1.2 0zM3.6 26.7v-.1s-.1 0 0 .1c-.1-.1 0 0 0 0zM7.3 26.8c-.1-.1-.1-.1 0 0-.1-.1-.2 0-.2 0h.2c-.1 0-.1 0 0 0zM6.6 21.8l-.1.1.1-.1zM6.4 23.5s0 .1 0 0h0zM6.3 21.8zM6.6 27.1s-.1 0 0 0h-.1c0 .1 0 .1.1 0-.1.1 0 .1 0 0zM6.4 25.9c0 .1 0 .1 0 0zM6.5 22.3s0-.1 0 0c-.1-.1-.1 0 0 0-.1 0 0 0 0 0zM6.3 21.8zM6.5 21.7h-.1c0 .1 0 .1.1 0zM6.5 23h-.1-.1l.1.1h.1V23c0 .1 0 0 0 0zM6.4 28.1zM7 26.2c-.1 0-.1-.1-.1-.1s-.1 0-.1.1l.1.1s0-.1.1-.1zM7.1 27.2s0-.1 0 0c0-.1 0-.1 0 0zM6.8 20.4c.1 0 .1 0 0 0 .1 0 .1-.1 0 0v-.1c-.1 0-.1.1 0 .1zM7.2 25.5c-.1 0-.1-.1-.2 0 0 .1 0 .1.1.1h.1s.1 0 0-.1c.1.1 0 0 0 0zM6.5 26.8l-.1-.1v.1h.1zM6.7 27.4c.1 0 .1 0 0 0 .1-.1.1-.1 0 0 .1-.1 0-.1 0 0zM7.7 23v.1c.1 0 .1-.1 0-.1zM6.7 22.4s0-.1 0 0c-.1-.1-.1-.1-.2 0h.2zM6.8 16.1c.1-.1 0-.1 0-.1s-.1 0 0 .1c-.1-.1-.2-.1-.1 0 0 .1 0 .1.1 0zM6.7 13.9c-.1 0-.1 0 0 0-.1 0-.1 0 0 0-.1 0-.1 0 0 0-.1 0-.1 0 0 0zM6.7 13.5s.1 0 0 0v-.1h-.1c0 .1 0 .1.1.1zM6.5 16c.1 0 .1 0 0 0zM6.7 14.8s.1-.1.1-.2c0 0-.1 0-.1.1-.1 0-.1.1 0 .1-.1 0 0 0 0 0zM6.9 20c-.1 0-.1-.1 0 0h-.1.1zM6.7 17.4h.1s0-.1-.1 0c.1 0 .1 0 0 0zM6.8 18.7c-.1 0-.1-.1 0 0-.1-.1-.1 0 0 0-.1 0-.1 0 0 0-.1 0-.1 0 0 0zM6.9 24.1h-.1s-.1-.1-.1 0h.1c.1.1.1.1.1 0zM7.6 21.6zM6.8 23.8s.1 0 .1-.1c0 0-.1 0-.1-.1-.1 0-.2 0-.2.1.1.1.2.1.2.1zM6.8 22.9c-.1 0-.1 0 0 0-.1 0-.1 0 0 0zM7.1 22.2l-.1.1.1-.1c0 .1 0 .1 0 0zM6.9 25.4zM7 22.4s0-.1 0 0c0-.1 0-.1 0 0zM6.8 22.5s.1 0 0 0c.1 0 .1-.1.1-.1l-.1.1zM6.8 26.6c.1 0 .1-.1 0 0 .1-.1.1-.1 0 0 0-.1 0-.1 0 0 0-.1 0-.1 0 0zM7.8 18.4h0zM7.9 15.5v-.1h-.1-.1c.1 0 .1.1.2.1-.1 0-.1 0 0 0zM7.7 21s.1 0 0 0c.1 0 .1 0 0 0h.2c0-.1-.1 0-.2 0 .1 0 0 0 0 0zM7.7 18s.1 0 .1.1c0-.1 0-.1-.1-.1zM8 12.7c0-.1-.1 0-.1 0s-.1 0-.1.1h.1s.1 0 .1-.1zM7.9 16.7c-.1 0-.1 0 0 0-.1 0-.1 0 0 0-.1.1-.1.1 0 0-.1.1 0 .1 0 .1l.1-.1h-.1zM7.9 21.7c-.1-.1-.1-.1-.1 0 0 0 0 .1.1 0 0 .1 0 0 0 0zM8 19.4c-.1-.1-.1-.1-.2-.1 0 .1.1.1.2.1-.1 0 0 0 0 0zM7.7 14.2h.2v-.1s-.1 0-.2-.1h-.1c.1.1.1.1.1.2 0-.1 0 0 0 0zM7.8 23.1zM7.6 28.6c-.1-.1-.1-.1-.2-.1v.1c.1 0 .1.1.2 0zM8 23.1c-.1-.1-.1 0-.2 0 0 0 .1.1.2 0zM8 15.9c-.1 0 0 0 0 0zM7.4 28.5v-.1zM7.4 29.7c0-.1 0-.1 0 0-.1-.1-.1-.1 0 0-.1 0 0 0 0 0zM7.4 28.4l-.1-.1c0 .1.1.1.1.1zM7.9 11.5zM7.9 26H8c0-.1 0-.1-.1 0 0-.1 0 0 0 0zM7.4 24.9v.1s.1 0 .1.1h.1s.1-.1 0-.1c0-.1-.1-.2-.2-.1zM8 26.7c-.1 0-.1 0 0 0-.1.1 0 .1 0 0 0 .1 0 .1 0 0zM8 25.6c-.1 0 0 .1 0 0 0 .1 0 .1 0 0zM8.1 24.2c-.1 0-.1 0 0 0-.1.1-.1.1-.2.1h-.1v.1h.1c.1 0 .1 0 .2-.2 0 .1 0 .1 0 0zM7.9 11.5s0 .1 0 0c0 .1 0 0 0 0zM7.8 11.5zM7.6 23.6zM7.9 10.5s.1.1 0 0c.1.1.1.1 0 0 .1 0 .1 0 0 0 .1 0 0 0 0 0zM7.4 23.6c-.1.1 0 .2.1.2 0-.1 0-.1-.1-.2zM7.5 27.8s.1 0 0 0c.1 0 0 0 0 0zM7.5 27.4c0 .1 0 .1 0 0 .1.1.1.1 0 0 .1 0 0 0 0 0zM7.6 29.9s.1 0 0 0c.1 0 .1 0 0 0 0-.1 0-.1 0 0 0 0-.1 0 0 0-.1 0 0 0 0 0zM7.7 30.2s-.1 0 0 0c-.1 0-.1 0 0 0-.1 0-.1 0 0 0-.1 0 0 0 0 0zM7.6 26.2c-.1 0-.1.1-.1.1s.1.1.1 0c0 0 .1-.1 0-.1.1 0 .1 0 0 0zM7.6 22.4h-.2s-.1 0-.1.1.1.1.1.1l.2-.2zM21.6 26.3c-.1 0-.2 0-.2.1s.1.1.2.1c0 0 .1 0 0-.2.1.1 0 .1 0 0zM11.9 12.1s-.1-.1 0 0c-.1-.1-.1-.1 0 0-.1 0-.1 0 0 0-.1 0 0 0 0 0zM11.9 10.8zM12.1 13.9H12h-.1.2zM11.9 10.6zM11.8 15.9s0 .1 0 0c.1.1.1.1 0 0 .1 0 .1 0 0 0zM11.8 17.4l.2.2c-.1-.2-.1-.2-.2-.2 0-.1 0-.1 0 0 0-.1 0-.1 0 0 0-.1 0 0 0 0zM11.8 6c-.1 0-.1 0 0 0-.1 0-.1 0 0 0zM11.7 8.8s.1 0 0 0c.1 0 .1 0 0 0 .1-.1.1-.1 0 0 0-.1 0-.1 0 0zM12.1 5.7zM12 12.2s.1 0 0 0h.1s0-.1-.1 0c.1-.1.1-.1 0 0zM11.6 12.8c-.1.1 0 .1 0 .1h.1c0-.1 0-.1-.1-.1zM12 13.5h.1c-.1-.1-.1-.1-.1 0 0-.1 0-.1 0 0zM12.3 18.5c0-.1-.1-.1 0 0-.1 0-.1 0 0 0-.1 0-.1 0 0 0zM12.1 5.2zM12.1 8c-.1 0-.1 0 0 0-.1 0-.1 0 0 0-.1 0-.1.1 0 0-.1.1-.1 0 0 0zM12.1 6.6s-.1 0-.1-.1c0 .1.1.1.1.1zM12 11.2s-.1 0 0 0c-.1 0-.1 0 0 0zM11.4 12.6zM11.4 9.9zM12.3 11.5c.1.1.1 0 .2 0v-.1c0-.1-.1-.1-.1-.1h-.1l-.1.1s0 .1.1.1zM11.5 15.4l.1.1.1-.1-.1-.1-.1.1c0-.1 0-.1 0 0 0-.1-.1-.1 0 0-.1-.1-.1 0 0 0zM11.5 8.7s0 .1 0 0c0 .1 0 0 0 0zM11.3.9c0-.1-.1-.1 0 0h-.1.1c-.1 0 0 0 0 0zM11.2 2.5c0-.1-.1-.1 0 0-.1-.1-.1 0 0 0-.1 0-.1 0 0 0-.1 0 0 0 0 0zM11.4 2.4s0-.1 0 0c0-.1 0-.1 0 0zM11.6 7.4c0-.1 0-.1 0 0 0-.1 0-.1 0 0-.1-.1-.1-.1 0 0-.1 0-.1 0 0 0-.1 0 0 0 0 0zM11.5 5.9s.1 0 0 0c.1 0 .1 0 0 0 .1 0 .1 0 0 0 .1 0 0 0 0 0zM11.7 3s0-.1 0 0c-.1-.1-.1 0-.2 0 .1 0 .1.1.2 0 0 .1 0 0 0 0zM11.7 1.7c0-.1 0-.1 0 0-.1-.1-.1 0 0 0-.1 0 0 0 0 0zM11.7 10.1s0-.1 0 0c0-.1-.1-.1 0 0-.1-.1-.1-.1-.1 0v.1c-.1-.1-.1 0 .1-.1-.1 0-.1 0 0 0zM11.6 3.6s.1 0 0 0v-.1h-.1c.1 0 0 0 .1.1-.1 0-.1 0 0 0zM11.7 7.3s0-.1 0 0c-.1 0-.1 0 0 0-.1 0-.1 0 0 0-.1 0-.1 0 0 0-.1 0 0 0 0 0zM11.6 11.5s0-.1 0 0c-.1-.1-.1 0-.1 0h.1zM11.6 7.3zM13.2 5.9c0 .1 0 .1 0 0l.1.1c0-.1 0-.1-.1-.1zM13.1 12.8zM13.2 16.8s0-.1 0 0c0-.1 0-.1 0 0 0-.1 0 0 0 0zM13.1 15.5h.1v-.1H13c0-.1 0 0 .1.1-.1-.1-.1-.1 0 0 0-.1 0-.1 0 0zM13.3 4.5c-.1-.1-.1-.1 0 0h-.1.1c-.1 0-.1 0 0 0zM13.3 3.5c-.1 0-.1 0 0 0-.1.1-.1.1 0 0 0 .1 0 .1 0 0zM13.1 15.9c0-.1 0-.1 0 0 0-.1 0-.1 0 0-.1-.1-.1-.1 0 0zM13.6 3.8c-.1 0-.1 0 0 0-.1 0-.1 0 0 0-.1 0-.1 0 0 0-.1 0-.1 0 0 0zM12.8 17.8s-.1 0 0 0h-.1s0 .1.1 0c0 .1.1.1.1.3 0 .1.2.1.3.1 0 0 0-.1.1-.1h-.1c-.1 0-.2 0-.2-.1-.1-.2-.2-.2-.2-.2zM13.5 10.9c.1 0 .1-.1.1-.1l-.1-.1s-.1.1 0 .2c-.1-.1 0 0 0 0zM13.5 8.5zM13.7 8.1c0-.1-.1-.2-.2-.1v.1h.2c-.1.1-.1 0 0 0zM12.3 10.1s0 .1 0 0c.1.1.2 0 .2-.1h-.1c-.1 0-.1.1-.1.1zM13.6 5.3h.1c.1 0 .1-.1 0-.2h-.1v.2c-.1-.1-.1-.1 0 0-.1 0-.1 0 0 0-.1 0-.1 0 0 0zM11.3 3.8c0-.1-.1-.1 0 0-.1-.1-.1-.1-.2-.1v.1h.1c0 .1 0 0 .1 0zM13.4 18.8s.1 0 0 0h0c.1-.1 0-.1 0-.1v.1c-.1 0 0 0 0 0zM13.4 12.1c.1.1.1.1 0 0 .1.1.1.1 0 0 .1 0 .1 0 0 0 .1 0 0 0 0 0zM13.5 13.5c.1 0 .2 0 .1-.1 0-.1-.1-.1-.1-.1h-.1c0 .1 0 .2.1.2zM12.9 12.1c-.1 0 0 0 0 0h.1c-.1-.1-.1-.1-.1 0 0-.1 0 0 0 0zM12.5 7.8l.1.1c0-.1-.1-.1-.1-.1 0-.1 0 0 0 0zM12.5 14.6s0 .1 0 0c.1.1.1 0 0 0zM12.6 14.7zM12.5 1.6zM12.4 7.3c.1 0 .1 0 0 0 .1-.1.1-.1 0 0 0-.1 0-.1 0 0zM12.5 4.4c-.1 0-.1 0 0 0h-.1c0 .1 0 .1.1 0-.1.1 0 .1 0 0zM12.3 8.8l.1-.1h-.1c-.1 0-.1 0 0 .1zM12.4 1.6s-.1 0 0 0c-.1 0-.1 0 0 0zM12.9.8c-.1-.1-.1 0-.1 0h.1zM12.9 3.8zM12.8 6.5s0 .1 0 0h0c.1 0 .1 0 0 0zM12.9 9.3c.1 0 0 0 0 0zM12.7 12.2zM12.8 1.3c0 .1 0 .1 0 0 0 .1 0 0 0 0zM12.6 14.7c0 .1 0 .1 0 0 .1 0 .1 0 .1-.1l-.1.1zM12.7 9.4zM12.9 13.9s-.1 0 0 0c-.1 0 0 0 0 0zM9 14.8s0-.1 0 0c0-.1 0-.1 0 0h-.1-.1.2zM8.9 17.2s-.1 0 0 0c-.1 0-.1 0 0 0 0 .1 0 .1.1.2 0-.1 0-.1-.1-.2zM11.2 5.3h.2v-.1H11.1s-.1 0-.1.1c.1-.1.1 0 .2 0zM9.2 5.8c0 .1 0 .1 0 0 0 .1 0 .1 0 0 0 .1 0 .1 0 0 0 .1 0 .1 0 0zM8.8 19.9c0 .1 0 .1.1.2H9c-.1-.2 0-.1.1-.1v-.1H9h-.2zM9 21.3h.2s0-.1-.1-.1h-.2s.1 0 .1.1zM8.9 11.2zM9 13.9s0-.1 0 0c-.1-.1-.1-.1 0 0-.1 0-.1 0 0 0-.1 0 0 0 0 0zM8.9 2.4zM9.3 1.7l-.1-.1s0 .1-.1.1c.1-.1.1 0 .2 0-.1 0 0 0 0 0zM9.2 3.1h.1c-.1-.1-.1-.1-.1 0 0-.1 0-.1 0 0zM9.4 5c0-.1 0-.1 0 0 0-.1-.1-.1 0 0zM9.2 7.4c0-.1 0-.1 0 0 0-.1 0 0 0 0zM8.8 10.8s.1 0 0 0c.1 0 .1 0 .1-.1l-.1.1zM9 8h-.2c0 .1.1.1.2 0 0 .1 0 .1 0 0zM9.1 15.2v-.1c-.1 0-.1 0 0 .1-.1 0 0 0 0 0zM9.2 4.6c.1 0 .1 0 0 0 .1 0 .1-.1.1-.1 0-.1-.1-.1-.1-.1s-.1 0-.1.1c0 0 0 .1.1.1zM8.8 12.1c0 .1.1.1.1.1H9s0-.1-.1-.1h-.1V12v.1zM8.5 5.9c.1-.1 0-.1 0 0l-.1-.1c0 .1 0 .1.1.1zM8.5 1.6c-.1 0-.1 0 0 0-.1 0-.1 0 0 0-.1.1-.1.1 0 0-.1.1-.1.1 0 0zM8.5 4.6zM8.6 4.5c0-.1 0-.1 0 0 0-.1 0-.1 0 0zM8.5 3.1h.1s-.1 0-.1-.1v.1zM8.2 9.8c0 .1 0 .1 0 0h.2-.2zM8.3 6.6zM8.3 4.3s0 .1 0 0c0 .1 0 0 0 0zM8.6 22.3h0c.1-.1 0 0 0 0zM8.6 8.7s-.1 0 0 0c-.1 0-.1 0 0 0h-.1c0 .1 0 .1.1 0-.1.1 0 .1 0 .1v-.1c.1.1 0 0 0 0zM8.9 6.6c0-.1 0-.1-.1-.1 0 0-.1 0-.1.1.1 0 .1.1.2 0 0 .1 0 0 0 0zM8.9 5.2s-.1 0 0 0zM9 22.6c.1 0 .1 0 .2-.1 0 0-.1-.1-.1 0-.1 0-.1 0-.1-.1v-.1c-.2.1-.1.2 0 .3-.1 0-.1 0 0 0zM8.8 22.3zM8.6 10.5s0 .1 0 0l.1.1v-.1h-.1zM9 3.8s0-.1-.1-.1h-.1c.1.1.1.1.2.1zM9 18.8s0-.1 0 0c.1-.1 0-.1 0-.1v.1c-.1-.1-.1-.1 0 0zM10.8 19.3c0-.1 0-.1 0 0h-.1.1zM10.3 9.4c.1 0 .1 0 0 0l.1.1h.1l.1-.1h-.1c0-.1-.1 0-.2 0 .1 0 0 0 0 0zM10.7 10.6s-.1 0 0 0c-.1 0-.1 0 0 0-.1.1-.1.1 0 0-.1.1 0 .1 0 0zM10.8 18.1h.1V18l-.1-.1h-.1-.1l.2.2zM10.8 13.2c0-.1 0-.1 0 0 0-.1-.1 0 0 0-.1 0 0 0 0 0zM10.4 9.9c.1.1.1 0 .1 0 0-.1 0-.1-.1 0 0-.1 0-.1 0 0zM10.5 7.1zM10.4 8.5zM10.9 2.1zM11.1 27.5s0-.1 0 0v-.2c-.1 0-.1.1 0 .2-.1-.1-.1 0 0 0zM11.2 20c0 .1 0 .1 0 0 .1 0 .1-.1.1-.1s-.1 0-.1-.1h-.1-.1l.2.2c-.1 0-.1 0 0 0zM10.8 11.5s0 .1 0 0c0 .1 0 0 0 0zM10.9 7.2s0 .1 0 0c.1.1.1 0 .1 0h-.1zM10.9 1.5l-.1.1c.1 0 .1-.1.1-.1zM11 3c0-.1-.1-.1 0 0h-.2l.1.1c0-.1 0-.1.1-.1zM10.4 5.3s.1 0 0 0c.1 0 .1 0 0 0 .1 0 .1 0 0 0 .1 0 0 0 0 0zM10 7.3zM9.6 2.3s-.1 0 0 0zM10.4 3.8c.1 0 .1 0 0 0 .1 0 .1-.1 0 0 0-.1 0-.1 0 0-.1-.1-.1 0-.1 0h.1c0 .1 0 0 0 0zM9.8 3.9s0-.1 0 0c0-.1 0-.1 0 0 0-.2-.1-.2-.2-.1l-.1.1h.1c0-.1.1-.1.2 0zM9.6 1.4zM9.5 14.1c0-.1 0-.1 0 0zM9.3 11.9c.1 0 .1 0 0 0l.1.1h0c0-.1-.1-.1-.1-.1zM9.4 14.5s0 .1 0 0c0 .1 0 .1 0 0zM9.8.9s0-.1 0 0c0-.1 0 0 0 0zM9.4 16.7c-.1 0-.2 0-.2.1s.1 0 .1.1h.1c.1-.1.1-.1 0-.2.1 0 .1 0 0 0zM10.4 17.4l-.1-.1s0 .1.1.1zM9.7 11.2s0 .1 0 0c.1.1.1.2.2.2l.1.1c0-.1-.1-.1-.1-.2-.1-.1-.1-.1-.2-.1.1 0 0 0 0 0zM10.5 12.2c0-.1 0-.1 0 0 0-.1 0-.1 0 0 0-.1-.1-.2-.1-.2-.1.1 0 .2.1.2zM10.1 11.4v.1c0-.1.1-.1.1-.2.1 0 0 .1-.1.1 0-.1 0 0 0 0zM10.1 8.8s.1 0 0 0v-.1.1c-.1-.1 0 0 0 0zM10 6s.1-.1 0 0c.1-.1 0-.2-.1-.2v.1s0 .1.1.1zM9.2 8.7s0 .1 0 0c.1.1.1.1.2.1h.1c-.1-.1-.2-.1-.3-.1 0-.1 0-.1 0 0zM18.3 12.1h-.1s0 .1.1 0c0 .1 0 0 0 0zM20 12.8zM19.4 11.4v0zM18.9 13.5h0c0-.1-.1-.1 0 0-.1-.1-.1-.1 0 0-.1 0-.1 0 0 0-.1 0-.1 0 0 0zM19.4 12.9zM19.4 15.5v-.1h-.1-.1v.1s.1.1.2 0zM18.9 12.6c-.1 0-.1-.1 0 0-.1-.1-.1-.1 0 0-.1 0-.1 0 0 0-.1 0-.1 0 0 0zM19 7.9s-.1 0 0 0c-.1.1-.1.1 0 0 0 .1 0 .1 0 0zM19 9.9h.1v-.1c0-.1-.2-.1-.2 0 0 0 0 .1.1.1-.1 0-.1 0 0 0-.1 0 0 0 0 0zM19.3 13.2zM20.1 15.6s0-.1 0 0v-.1H20s-.1-.1-.1 0c0 0 0 .1.1.1 0-.1 0 0 .1 0zM19.4 10.1s.1 0 0 0c.1-.1.1-.1 0-.1h-.1l-.1.1s0 .1.1.1c0-.1.1-.1.1-.1zM20 14.3c.1 0 .1-.1 0 0 .1-.2 0-.2-.1-.2l-.1.1c.1 0 .2 0 .2.1zM19.8 10.8c-.1 0-.1-.1 0 0-.1-.1-.1-.1 0 0-.1 0-.1 0 0 0zM19.9 16.8l.1-.1c0-.1 0-.1-.1-.1s-.1 0-.1.1.1.1.1.1zM19.5 8.7c0-.1 0-.1 0 0-.1-.1-.2 0-.2 0s0 .1.1.1.1 0 .1-.1zM13.8 1.4c0-.1-.1-.1 0 0-.1-.1-.1-.1-.1 0h.1zM19.8 13.5c0-.1 0-.1 0 0-.1-.1-.1 0-.1 0h.1zM19.4 14.2c0-.1 0-.1 0 0 0-.1 0-.1 0 0 0-.1-.3-.1-.3 0v.1c.1 0 .3-.1.3-.1zM18.3 6.6zM18.3 8.1zM8.1 5.3s.1 0 0 0c.1 0 .1-.1 0 0 .1-.1.1-.1 0 0 .1-.1.1-.1 0 0 0-.1 0-.1 0 0 0-.1-.1-.1 0 0-.1 0 0 0 0 0zM18.2 9.5c.1 0 .1 0 .1-.1h-.1c0-.1-.1-.1 0 .1-.1 0 0 0 0 0zM18 14.8c-.1 0 0 .1 0 0l.1.1h.1c-.1-.1-.1-.1-.2-.1 0 0 0-.1 0 0zM18.2 16h.1v-.1l-.1.1c0-.1 0 0 0 0zM18.1 13.5H18c.1 0 .1.1.1 0 0 .1 0 .1 0 0zM18.7 15.2s0 .1 0 0c0 .1 0 .1 0 0 0 .1 0 .1 0 0 .1.1.1 0 0 0 .1 0 .1 0 0 0zM18.2 10.7h-.1v.1c.1 0 .1-.1.1-.1zM18.7 11.5c0-.1-.1-.1 0 0h-.1.1zM18.6 11.9s.1 0 0 0c.1 0 .1 0 0 0zM18.8 8.7s-.1 0 0 0c-.1 0-.1 0 0 0-.1 0-.1 0 0 0-.1 0-.1 0 0 0zM18.6 12.7c-.1 0-.2 0-.1.1 0 .1.1 0 .1-.1zM18.5 16.8s.1 0 0 0v-.1s-.1 0-.1.1h.1zM18.3 18.2s0 .1 0 0h.2v-.1s-.1-.1-.2 0v.1zM18.7 14h-.2c.1.2.1.1.2 0zM21.5 16.7c-.1-.1-.1 0-.2 0 .1.1.1.1.2 0 0 .1 0 .1 0 0zM22.1 19.9c0 .1.1.1.1.1h.1l-.1-.1h-.1zM22.2 21.2c0-.1 0-.1 0 0-.1-.1-.1-.1 0 0zM22.1 21.9c0 .1 0 .1.1.1s.1-.1.1-.2c-.1 0-.1 0-.2.1zM22.2 23.8s0-.1 0 0c0-.1 0 0 0 0zM22 23.2c-.1 0-.1 0 0 0-.1 0-.1.1 0 0 0 .1 0 .1 0 0 .1.1.1.1.2.1-.1-.1-.1-.1-.2-.1zM22.1 20.8s.1 0 .1-.1h-.1s-.1 0 0 .1c-.1-.1-.1 0 0 0zM21.9 18.9c0-.1 0-.1 0 0 0-.1 0-.1 0 0 0-.1 0-.1 0 0zM21.9 17.6s0-.1 0 0c0-.1-.1-.1-.2-.2l.2.2zM22 24.9s0 .1 0 0v.1c.1.1.1 0 0-.1.1.1.1 0 0 0zM21.5 25.6s.1 0 0 0c.1 0 .1 0 0 0 .1-.1.1-.1 0 0 .1-.1.1-.1 0 0zM20.2 10.2c.1-.1.1-.1 0 0 .1-.1 0-.1 0-.1h-.1s-.1 0-.1.1v.1c.1-.1.2-.1.2-.1zM21.9 25.8c0 .1 0 .1 0 0h0c.1 0 0 0 0 0zM21.6 26.8c-.1 0-.1 0 0 0-.1 0-.1.1 0 0-.1.1 0 0 0 0zM22 24.6c.1 0 .1 0 0 0 .1 0 .1-.1 0 0-.1-.1-.2-.1-.3-.1v.1h.3zM21.7 23.9zM21.6 25.6c.1 0 .1 0 0 0 .1 0 .1 0 0 0 .1 0 .1 0 0 0zM21.6 25.6zM21 12.8s-.1 0 0 0c-.1-.1-.1 0-.2 0 0 0 0 .1.1.1 0 0 .1 0 .1-.1zM21.1 17.9c-.1 0-.1 0 0 0-.1 0-.1 0 0 0zM20.8 14.3c.1 0 .1 0 0 0 0-.1-.1-.1-.1-.2v.1c0 .1.1.1.1.1zM21 17.5zM20.6 16.8c.1.1.1.1 0 0h.1s0-.1.1-.1h-.1s0 .1-.1.1zM20.4 13.5s.1 0 .1-.1h-.1s-.1 0 0 .1c-.1 0 0 0 0 0zM20.5 12.6s.1 0 0 0c.1 0 .1-.1 0 0 0-.1 0-.1 0 0 0-.1 0-.1 0 0 0-.1 0 0 0 0zM21.8 19.2zM20.6 12.1h-.1c0 .1 0 .1.1 0 0 .1 0 .1 0 0zM21.7 15.5c-.1-.1-.1-.1 0 0-.1-.1-.1-.1-.2-.1 0 .1.1.1.2.1-.1 0-.1 0 0 0zM21.8 20.2h.1c0-.1 0-.1-.1 0 .1-.1 0-.1 0 0 0-.1-.1-.2-.1-.1l.1.1zM18 7.3c0-.1 0-.1 0 0l-.1-.1h-.1v.1c.1 0 .1.1.2 0zM21.2 16.2c.1 0 0 0 0 0-.1 0-.1 0 0 0-.1 0-.1 0 0 0zM21.1 14.8c-.1 0-.1 0 0 0-.1 0 0 0 0 0zM21.3 13.9c0-.1 0-.1 0 0-.1-.1-.1 0 0 0-.1 0-.1 0 0 0-.1 0 0 0 0 0zM19.8 12.2c0-.1.1-.1 0 0 0-.1 0-.1 0 0-.1-.1-.1 0 0 0h-.1.1c-.1 0-.1 0 0 0zM14.6 5c.1 0 .1 0 0 0 .1 0 .1 0 0 0zM14.7 4.4s.1 0 0 0c0-.1-.1-.1-.1-.1v.1h.1zM14.8 8.8zM14.6 12.7s-.1 0 0 0c-.1 0-.1 0 0 0-.1 0-.1 0 0 0-.1 0 0 0 0 0zM14.6 6.4c0 .1 0 .1 0 0 .1.1.2 0 .3 0h-.3zM14.4 7.1zM14.5 19.4s.1 0 0 0h.1c.1 0 .1-.1.1-.1 0-.1-.1-.1-.1 0l-.1.1c0-.1 0 0 0 0zM14.5 8.6s0-.1 0 0c0-.1 0-.1 0 0zM15.1 13.5c0-.1 0-.1 0 0 .1-.1 0-.1 0-.2H15h-.1c0 .1 0 .1.2.2-.1-.1-.1-.1 0 0zM14.7 14.1c0 .1.1.1 0 0 .1.1.1 0 0 0 .1 0 .1 0 0 0 .1 0 0 0 0 0zM15.2 8.1s0-.1 0 0c-.1 0-.1 0 0 0-.1 0 0 0 0 0zM15.1 9.5s.1-.1 0 0c0-.1-.1-.2-.1-.2 0 .1 0 .2.1.2zM15.2 5.3s.1 0 0 0c.1-.1 0-.1 0-.1h-.1v.2c0-.2 0-.1.1-.1zM15 8.5c.1 0 .1 0 0 0 .1 0 .1 0 0 0zM14.8 14.6l.1.1c0-.1 0-.1-.1-.1zM14.4 2.4zM15 16.2c.1 0 .1 0 .1-.1s-.1-.1-.1.1c0-.1-.1-.1 0 0-.1-.1-.1-.1 0 0-.1 0-.1 0 0 0zM14.2 1.5c-.1 0-.1 0 0 0-.1-.1-.1 0-.2 0 0 0 0 .1.2 0-.1.1-.1.1 0 0zM14.4 3.8zM14 8.8zM14.1 7.9s-.1-.1 0 0c-.1-.1-.1-.1 0 0-.1 0-.1 0 0 0-.1 0 0 0 0 0zM15.2 3.8s.1 0 .1-.1l-.1-.1h-.1v.1s0 .1.1.1c-.1 0 0 0 0 0zM13.8 10.1c0 .1 0 .1 0 0 .1.1.1 0 .1 0h-.1zM14.1 4.4s.1 0 0 0zM13.7 2.5s.1 0 0 0c.1 0 .1 0 .2-.1-.1 0-.1 0-.2.1 0-.1 0-.1 0 0zM13.8 7.8zM14 11.5l.1-.1s-.1 0-.1.1c-.1-.1-.1-.1 0 0-.1 0-.1 0 0 0zM14.3 9.9s.1 0 0 0c.1 0 .1 0 0 0 .1 0 .1-.1 0 0 .1-.1.1-.1 0 0 0-.1 0-.1 0 0zM14.4 5.2c-.1 0-.1 0 0 0zM14.2 16.1c0-.1 0 0 0 0zM14.3 2.3c0-.1 0 0 0 0zM14.3 13.9s-.1 0 0 0c-.1 0-.1 0 0 0-.1 0-.1 0 0 0-.1 0-.1 0 0 0zM17.8 8.6l-.1-.1c0 .1 0 .1.1.1-.1.1-.1 0 0 0zM14.3 12.2c.1 0 .1 0 0 0 0-.1-.1-.1-.1-.1 0 .1.1.1.1.1zM14.3 13.4zM16.7 6.5c0 .1 0 .1 0 0 0 .1 0 .1 0 0 0 .1 0 .1 0 0 .1.1.1 0 .1 0h-.1zM17.1 10zM17.1 7.2zM17.1 8.8s0-.1 0 0v-.2c-.1 0-.1 0-.1.1-.1 0 0 .1.1.1zM17.1 11.4c-.1 0-.2 0-.2-.1h-.1v.1c0 .1.1.1.1.1.1 0 .2 0 .2-.1zM16.4 12c0 .1.1.1.1.2h.1l.1-.1c-.1-.1-.1-.1-.1-.2-.1 0-.1 0-.2.1 0-.1 0-.1 0 0zM16.7 10.8c0-.1 0-.1 0 0-.1-.1-.1 0-.1 0h.1c0 .1 0 0 0 0zM16.7 5.2s.1 0 0 0c0-.1-.1-.1-.1-.1h-.1s0 .1.1.1h.1zM17.6 6.6zM17.4 13.5s0 .1 0 0c.1 0 .1 0 .2-.1-.1 0-.2.1-.2.1zM16.5 4.4c-.1 0-.1 0 0 0-.1 0-.1.1 0 0 0 .1 0 0 0 0zM17.4 9.5h-.1c.1-.1 0-.1.1 0-.1-.1 0-.1 0 0zM17.3 15s0-.1 0 0c0-.1 0-.1 0 0 0-.1 0-.1 0 0-.1-.1-.1-.1 0 0-.1 0-.1 0 0 0zM17.2 7.7s0 .1 0 0zM17.2 5.8c-.1 0-.1 0 0 0-.1 0-.1 0 0 0-.1 0-.1 0 0 0zM17.4 13.9c-.1 0-.1 0 0 0-.1 0-.1 0 0 0zM16.4 3h-.1v.1c.1 0 .1-.1.1-.1zM15.5 2.1s-.1 0 0 0c-.1.1 0 .1 0 0 0 .1 0 .1 0 0zM15.4 6.4c.1 0 .1 0 0 0 .1 0 .1 0 0 0 .1-.1.1-.1 0 0 .1-.1 0 0 0 0zM21.5 27.6s0 .1 0 0c.1.1.1.1.1 0h-.1zM15.7 6.4zM15.5 8.7c.1.1.1.1 0 0 .1.1.1 0 .1 0h-.1c.1 0 .1 0 0 0zM15.3 16.8s.1 0 0 0c.1-.1 0-.1 0-.1v.1zM15.5 11.5c.1 0 .1 0 .1-.1v-.1h-.2c0 .1.1.2.1.2zM15.5 10s-.1 0 0 0c-.1 0-.1 0 0 0-.1 0-.1.1 0 0-.1.1-.1 0 0 0zM16.3 14.2c0-.1 0-.1-.1-.1v.1h.1zM15.3 2.3s0-.1 0 0c-.1 0-.1 0-.1.1l.1-.1zM16.4 5.9h-.1l-.1.1h.1l.1-.1zM16.1 15.5h.2c-.1-.1-.1-.1-.2 0 0-.1 0-.1 0 0 0-.1 0-.1 0 0zM16.1 12.7s0 .1 0 0c0 .1 0 .1 0 0zM15.9 7.1h.1c0-.1 0-.1-.1 0 0-.1 0-.1 0 0-.1-.1-.1-.1 0 0-.1 0-.1 0 0 0-.1 0 0 0 0 0zM16 3.7zM15.8 2.1c-.1 0-.1 0 0 0h-.1s0 .1.1 0c-.1.1 0 0 0 0zM15.5 7.3l.1-.1c0 .1 0 0-.1.1zM3.7 30.7s0-.1 0 0c0-.1-.1-.1 0 0-.1 0-.1 0 0 0zM3.8 34.9c-.1 0-.1 0 0 0v.1s.1 0 .1-.1v-.1l-.1.1c0-.1 0 0 0 0zM3.9 33.7c-.1 0-.1-.1-.2 0h-.1v.1c.1 0 .3 0 .3-.1zM4.1 35.5l.1.1-.1-.1c0-.1 0 0 0 0zM4.1 32.1l.1-.1h-.1H4h-.1s0 .1.2.1c-.1 0-.1 0 0 0zM4.4 33zM4.1 34.3c-.1 0-.1 0 0 0H4s0 .1.1.1.2 0 .3.1c-.2-.1-.3-.2-.3-.2zM4.4 32.7h.1s0-.1-.1-.1h-.1-.1c.1 0 .2.1.2.1zM3.6 29.2c0-.1 0-.1 0 0 0-.1 0-.1 0 0 0-.1 0-.1 0 0 0-.1 0-.1 0 0zM3.3 33.1c.1 0 .1 0 0 0 .1 0 0 0 0 0zM3.3 29.6h-.1c.1.1.1 0 .1 0zM3.3 30.9zM4.5 34.2c-.1 0-.1 0 0 0-.1 0-.1 0 0 0zM3.5 29.6c-.1 0-.1 0 0 0-.1-.1-.1 0-.1 0h.1c-.1 0-.1 0 0 0zM3.8 28.4c0-.1-.1-.1-.1-.1h-.1-.1c.1 0 .2 0 .3.1zM3.5 34.2h-.1c0 .1 0 .1.1 0 0 .1 0 .1 0 0 0 .1 0 .1 0 0 0 .1 0 .1 0 0 0 .1 0 0 0 0zM3.5 31.2c-.1 0-.1 0 0 0 0 .1 0 .1.1.1-.1 0-.1-.1-.1-.1zM3.3 29.6zM4.9 35.4c.1 0 .1 0 .1-.1 0 .1 0 0-.1.1.1 0 0 0 0 0zM5.1 36.1s-.1 0 0 0v.1h.2v-.1c-.1-.1-.1-.1-.2 0zM4.4 35.4c0-.1 0-.1 0 0 0-.1 0 0 0 0zM4.9 25.5zM4.8 34.3c-.1 0-.1 0 0 0-.1.1 0 .1 0 .1.1 0 .1 0 0-.1.1 0 .1 0 0 0 .1 0 0 0 0 0zM5.5 35.5c0 .1 0 .1 0 0 .1.1.1.1.1 0h-.1zM5.6 34.3s-.1 0 0 0c-.1 0-.1 0-.1.1v.1c0-.1 0-.1.1-.2zM5.5 35.9h.1-.1zM5.3 32.5zM4.8 28.5l-.1-.1h-.1v.1c0 .1 0 .1.2 0-.1.1-.1.1 0 0zM4.4 33.8s0 .1 0 0c0 .1.1.1.1.1s.1-.1 0-.1h-.1zM4.4 34.9v.1h.1l-.1-.1zM4.7 35.5c.1 0 .1.1 0 0 0 .1.1.1.1.1.1 0 .1-.1-.1-.1.1 0 .1 0 0 0zM4.8 30.1s0-.1 0 0h-.1.1zM4.9 34.7c-.1 0-.1 0 0 0-.1 0-.1.1 0 0 0 .1 0 0 0 0zM4.7 33.3zM1.6 31.5s.1 0 0 0c.1 0 .1 0 0 0 .1 0 .1 0 0 0 .1-.1 0 0 0 0zM2 29.5c-.1 0-.2 0-.3.1.2 0 .2 0 .3-.1zM1.7 30.6zM5.4 33.2s0 .1 0 0v.1c.1 0 .1-.1.2-.1v-.1h-.1c0 .1 0 .2-.1.1zM2.1 30.7H2v.1l.1-.1c0 .1 0 .1 0 0zM2 30h-.1.1zM1.7 28.8c-.1 0-.2 0-.3.1v.1s0 .1.1.1c.1-.1.1-.1.2-.3 0 .1 0 0 0 0zM2 31.9c.1 0 .1 0 0 0 .1.1.1 0 0 0 .1 0 .1 0 0 0 .1-.1 0 0 0 0zM1.9 32s0 .1 0 0c.1.1.1 0 .1 0h-.1c0-.1 0 0 0 0zM1.2 30s.1 0 0 0h.1c0-.1 0-.1-.1 0 0-.1 0-.1 0 0zM1.1 27.1L1 27c0 .1 0 .2.1.1 0 .1 0 0 0 0zM1.2 28.4s-.1 0 0 0c-.1 0-.1 0 0 0-.1 0-.1.1 0 0v.1s.1 0 .1-.1h-.1zM2 28.8s0 .1 0 0c0 .1.1.1.1.1h.1c-.1 0-.2-.1-.2-.1zM.9 28.9s-.1 0 0 0H.8c0 .1 0 .1.1 0 0 .1 0 .1 0 0l.1.1c0-.1 0-.1-.1-.1zM1.6 27.8c.1 0 .1 0 0 0zM1.5 27.9l.1-.1c-.1-.1-.1 0-.2 0v.1h.1zM1.6 27.8zM1.5 28.2s0-.1 0 0c0-.1-.1 0 0 0-.1 0 0 0 0 0zM2.3 30.2h-.1c0 .1 0 .1.1 0 0 .1 0 0 0 0zM2.7 33.2zM2.7 32zM2.7 33.2h0zM2.7 31.9c-.1 0 0 .1 0 .1s.1 0 .1.1c0 0 .1 0 .1-.1-.1-.1-.2-.1-.2-.1zM2.6 32.1s.1 0 0 0c.1-.1 0-.1 0 0 0-.1 0 0 0 0zM3 34.1s.1 0 0 0h.1s0-.1-.1 0zM3.1 32.9s-.1 0 0 0c-.1.1 0 .1 0 0 0 .1 0 .1 0 0 0 .1 0 .1 0 0 0 .1 0 .1 0 0 .1.1.1.1 0 0 .1.1.1.1 0 0zM2.9 32.6s.1 0 .1.1c0-.1-.1-.1-.1-.1zM2.9 30.3c.1 0 .1 0 0 0 .1 0 .1-.1.1-.1s-.1 0-.1.1zM2.6 23.6c0-.1 0-.1 0 0-.1-.1-.2-.1-.2 0 .1.1.1 0 .2 0zM2.3 31.3c0 .1 0 .1 0 0v.1h.1v-.1h-.1zM2.2 32.6c.1 0 .1 0 0 0 .1-.1 0-.1 0 0 0-.1 0 0 0 0zM2.8 30.9c0-.1 0-.1 0 0-.1-.1-.1-.1-.2-.1h-.1v.1h.3c-.1 0 0 0 0 0zM2.6 28.5c.1-.2.1-.2-.1-.2 0 0-.1 0-.1.1 0 0 0 .1.2.1-.1 0-.1 0 0 0zM2.6 33.1c0 .1 0 .1.1.1 0-.1 0-.1-.1-.1zM2.6 28.8h-.1.1c-.1 0 0 0 0 0zM7.6 37.1c0 .1 0 .1 0 0h.1-.1zM8.4 35.7c0-.1 0-.1 0 0v-.1c-.1 0-.1 0-.2.1h.2zM8.7 37.7c.1 0 .1 0 0 0 .1 0 .1 0 0 0 .1 0 0 0 0 0zM8.2 34.6c.1 0 .1 0 .1-.1s0-.1-.1-.1c0 0-.1 0-.1.1.1 0 .1.1.1.1zM8.8 37.3c-.1 0-.2-.1-.3-.1-.1 0-.1-.1-.2-.1h-.1c.1 0 .2.1.2.1.1 0 .1.1.2.1s.2-.1.2-.2c.1.1 0 .2 0 .2zM9 35.7c-.1 0-.1 0 0 0-.1 0 0 0 0 0 .2.1.2 0 .2 0s0-.1 0 0c-.1-.1-.2-.1-.2 0zM9.5 35.1s0-.1 0 0c.1-.1 0-.1 0-.2h-.1-.1v.2h.2zM9.4 36.3s.1 0 0 0c.1-.1 0-.2 0-.2s-.1 0-.1.1c-.1 0 0 .1.1.1zM9.1 36.6c-.1 0-.1.1-.2.2.1 0 .2 0 .2-.1.1 0 .1 0 0-.1zM.9 28.2c0-.1 0-.1 0 0-.1-.1-.1-.1 0 0l-.1-.1H.7c.1.1.1.1.2.1zM7.8 33.8c0 .1 0 .1 0 0 0 .1 0 0 0 0zM8 34v-.2s0-.1-.1-.1c0 .1-.1 0-.1.1v.1c.1.1.1.1.2.1zM7.7 33.7s0 .1.1.1c0 0 0-.1-.1-.1zM7.9 37.3s-.1 0 0 0c-.1 0 0 0 0 0 0 .1.1.1.1.1h.1l-.1-.1h-.1zM7.7 36.7h-.1v.1c0 .1.1.1.2 0 0 0 .1 0 .1-.1h-.2zM7.9 34.3zM7.9 35.1s.1 0 0 0c.1 0 0 0 0 0zM8 34.3c0-.1 0-.1 0 0 0-.1 0-.1 0 0zM8 36.5c0 .1 0 .1 0 0 0 .1 0 .1 0 0 0 .1.1.1 0 0l.1.1-.1-.1c.1 0 .1 0 0 0zM11.1 36.9c.1 0 .1.1 0 0 .1.1.1 0 0 0 .1 0 .1 0 0 0 .1 0 .1 0 0 0zM11.1 36c0 .1-.1.1 0 0-.1.1 0 .1 0 0 .1.1.2.1.3.2-.1-.1-.2-.2-.3-.2zM10.9 37.3h-.3c-.1-.1-.1-.1-.2-.1s-.2.1-.3.1l-.1.1h.1c.1-.1.2-.1.3-.1.1 0 .1.1.2.1.1.1.2.1.2.1.1-.1.2-.2.3-.2 0-.1-.1 0-.2 0zM11.3 36.3zM9.3 37.7c0 .1.1.1 0 0h0c.1 0 .1 0 0 0zM10.5 37.9zM11.6 36.7c-.1 0-.1 0 0 0h-.1.1c-.1 0-.1 0 0 0zM11.5 36.2h-.1l.1.1h.2l.1-.1c-.2.1-.2 0-.3 0zM11.5 37.4s-.1 0 0 0c-.1 0-.1.1-.1.1v.1c.1-.1.2-.1.1-.2.1 0 .1 0 0 0 0-.1 0 0 0 0zM9.6 36s0 .1 0 0c0 .1 0 .1 0 0 0 .1 0 .1 0 0 0 .1 0 .1 0 0zM5.8 30.3l-.1-.1s0 .1.1.1zM9.3 37.3c0 .1.1.1.1.1v-.1-.1l-.1.1zM9.5 36.6c-.1 0-.1 0-.1.1 0 0 .1 0 .1.1h.2c-.1-.2-.2-.2-.2-.2zM9.6 37.2c.1 0 .1 0 0 0 .1-.1.1-.1 0 0 0-.1 0-.1 0 0zM10.1 36.3h.1l-.1-.1H10l-.1.1h.2c-.1 0 0 0 0 0zM9.8 36.7s-.1.1 0 0c-.1.1 0 .1 0 .1.1 0 .1 0 0-.1.1.1.1.1 0 0zM10 37.7s0 .1 0 0c0 .1.1.1.2.1 0 0-.1-.1-.2-.1zM6.1 36.7s0 .1 0 0c0 .1.1 0 .2 0v-.1c-.1.1-.1.1-.2.1zM6.2 35.6c.1 0 .1 0 0 0 .1 0 .1 0 0 0 0-.1 0-.1-.1-.1l.1.1zM6.2 33.2c0 .1 0 .1 0 0 .1.1.1 0 .2 0h-.2c.1 0 0 0 0 0zM6.3 34.5c0-.1-.1-.1-.1-.1h-.1H6v.1h.3c-.1 0 0 0 0 0zM6.7 31.4zM6.6 31.6c0-.1.1-.1.1-.3l-.1.1c-.1 0-.1.1-.2 0l-.1-.1v.1c.1.2.1.2.3.2-.1.1 0 .1 0 0zM5.9 34.9c-.1 0-.1 0-.2.1v.1c.1 0 .2 0 .2-.1.1 0 .1 0 0-.1.1 0 .1 0 0 0zM6.9 31.3s-.1 0 0 0h-.2c.1.1.1.1.2 0-.1.1 0 .1 0 0zM5.8 35.3c0 .1 0 .1 0 0 0 .1 0 .1 0 0 0 .1.1.1 0 0 .1.1 0 .1 0 0zM5.9 33.9c0-.1-.1-.1-.1-.1v.1h.1s.1 0 0 0zM5.7 34.2c.1.1.1.1 0 0 .1.1.1.1 0 0 .1 0 .1 0 0 0 .1 0 .1 0 0 0zM5.8 32.8c.1 0 .1 0 .2-.1 0-.1.1-.1.1-.1H6c-.2 0-.2 0-.2.2-.1-.1-.1 0 0 0-.1 0 0 0 0 0zM5.8 33.1s0-.1 0 0c-.1 0-.1 0 0 0-.1 0-.1 0 0 0zM5.9 36.5H6h-.1zM6.6 34.2c0 .1 0 .1 0 0 .1.1.1.1 0 0 .1 0 .1 0 0 0zM5.9 36.1l-.1.1h.1v-.1c0 .1 0 0 0 0zM6.7 36.5c0 .1 0 .1 0 0 .1.1.1.1.1 0 0 .1-.1 0-.1 0zM7.6 36c0 .1 0 .1 0 0h0c.1 0 0 0 0 0zM7.1 36.6c-.1 0-.1.1-.2.1l-.1.1H7c.1 0 .2-.1.2-.1h-.1c.1-.1 0-.1 0-.1zM6.9 36h0zM7 35.6v-.1h-.1s-.1 0-.1.1H7c-.1 0 0 0 0 0zM6.9 37.2s.1 0 0 0c.1 0 .1-.1 0 0 0-.1 0 0 0 0zM6.6 34.9c0 .1.1.1 0 0 .1 0 0 0 0 0zM7.3 36.2s.1 0 0 0c.1.1.1 0 .1 0h-.1zM7.4 34.2h-.1c0 .1 0 .1.1 0-.1.1 0 .1 0 0 0 .1 0 0 0 0zM7.8 35.7c-.1 0-.1 0 0 0l-.2-.2-.1-.1s0 .1.1.1c0 .1 0 .2.2.2-.1 0-.1 0 0 0zM6.6 36.1h-.1s-.1 0-.1.1c0 0 0 .1.1.1h.1s.1 0 .1-.1-.1-.1-.1-.1zM6.7 32.7c-.1 0-.1 0 0 0-.1 0-.1 0 0 0l-.1-.1h-.1l.1.1c0 .1 0 .1.1 0zM6.6 33.8h-.1s-.1 0-.1.1v.1s.1 0 .1.1c.2-.1.2-.2.1-.3.1 0 0 0 0 0zM6.5 35.4c.1 0 .1 0 0 0 .1 0 .1 0 0 0 .1 0 .1 0 0 0zM6.4 36.5s0 .1 0 0c0 .1.1.1 0 0 .1.1.1 0 .1 0h-.1zM6.7 31.9c-.1 0-.1 0 0 0v0zM6.4 34.9c0-.1 0-.1 0 0 0-.1 0-.1 0 0zM7.7 4.5s0-.1 0 0c-.1-.1-.1 0-.1 0h.1zM5.5 12.7s0 .1 0 0c.1 0 .1 0 0 0 .1 0 .1 0 0 0 .1 0 0 0 0 0zM5.8 10.9c.1 0 .1-.1.2-.1v-.1c-.1.1-.2.1-.3 0-.1 0 .1.2.1.2zM5.5 5.9c0 .1 0 .1 0 0 0 .1 0 .1 0 0zM4.5 5.9zM5.4 8.8c.1.1.1 0 .1-.1v-.1c0 .1-.1.1-.1.2zM5.9 5.3c-.1 0-.1-.1 0 0-.1-.1-.1 0 0 0-.1 0-.1 0 0 0zM5.5 11.5c0 .1 0 .1 0 0h0c.1 0 0 0 0 0zM5.5 10.1s0 .1 0 0c0 .1 0 .1 0 0zM5.9 9.5c.1 0 .1-.1.1-.2l-.1.1-.1.1v.1c0-.1 0-.1.1-.1-.1 0-.1 0 0 0zM6.3 3.1c-.1 0-.1 0 0 0-.1 0-.1 0 0 0-.1 0-.1 0 0 0-.1 0 0 0 0 0zM6.3 7.4s0-.1 0 0c0-.1 0-.1-.1-.2v.1s0 .1.1.1zM6.2 8.6c.1.1.1 0 0 0 .1 0 .1 0 0 0zM6.2 10.1v.1l.1-.1h-.1c.1 0 0-.1 0 0zM6.2 7.8c0-.1 0-.1 0 0 0-.1 0-.1 0 0zM5.8 11.2s0 .1 0 0c.1 0 .1.1.2.2s.2.1.2.2h.1v-.1c-.1 0-.2-.1-.3-.2 0-.1-.1-.1-.2-.1.1 0 .1 0 0 0zM6.1 9.9zM6 4.4c0-.1 0-.1 0 0 0-.1 0 0 0 0zM5.1 10.8zM4.8 10.2zM4.7 15.3c0 .1.1.1.1.1 0-.1-.1-.1-.1-.1zM5.2 9.5c-.1-.1-.1-.1 0 0H5c0 .1.1 0 .2 0zM4.8 16.7l.1.1c0-.1 0-.1-.1-.1zM4.7 14.2c.1 0 .1 0 0 0 .1 0 .1-.1 0 0zM4.4 13.5s-.1 0 0 0c-.1 0-.1.1 0 0 0 .1 0 .1 0 0 0 .1 0 .1 0 0l.1.1c0-.1 0-.1-.1-.1zM4.4 14.9h.1l.1-.1-.1-.1c0 .1 0 .1-.1.2zM4.7 7.4s0-.1 0 0c0-.1 0-.1 0 0 0-.1 0-.1 0 0-.1-.1-.2 0-.2 0h.2zM5.2 12.2zM5.4 3.1c0 .1 0 0 0 0zM5.3 12.6s0-.1 0 0c0-.1-.1-.1 0 0-.1-.1-.1-.1 0 0-.1-.1-.1 0 0 0zM5.4 5.9c-.1 0-.1 0 0 0-.1 0-.1 0 0 0-.1.1-.1.1 0 0 0 .1 0 .1 0 0zM5 10.8s.1 0 0 0c.1 0 .1 0 0 0 .1 0 .1 0 0 0 .1 0 0 0 0 0zM5.1 10.8v.1c.1 0 .1 0 0-.1.1 0 .1 0 0 0zM5.1 8s0-.1 0 0H5v.1c.1 0 .1-.1.1-.1zM6.3 11.9zM5.9 8.1s0-.1 0 0c0-.1 0-.1-.1-.1h-.1c.1.1.1.1.2.1zM7.3 16.1h.2c-.1-.1-.1-.1-.2 0 0-.1 0-.1 0 0zM7.3 12.1s0 .1 0 0c.1.1.1 0 .2-.1 0 0 0-.1-.1-.1 0 0-.1.1-.1.2zM6.2 12.9c0 .1.1 0 .1 0h.1v-.1s0-.1-.1-.1h-.1c.1.1 0 .1 0 .2zM7.4 13.4s0 .1 0 0c0 .1.1 0 0 0zM7.4 13.8zM7.4 6.7c0-.1 0-.1 0 0l-.1-.1s0 .1.1.1zM7.3 8c.1 0 .1 0 0 0h0c.1 0 .1 0 0 0zM7.3 9.4l.1.1c0-.2 0-.2-.1-.1 0-.1 0-.1 0 0zM7.4 3.8c0 .1 0 .1 0 0zM7.5 7zM7.9 10.2c0-.1 0-.1 0 0 0-.1 0-.1 0 0zM7.8 7.2s0 .1 0 0c0 .1 0 .1 0 0 0 .1 0 .1 0 0zM7.9 5.9c-.1 0-.1 0 0 0-.1 0-.1 0 0 0-.1 0-.1 0 0 0-.1 0-.1 0 0 0zM7.3 17.4c0 .1.1.1.1.1.1 0 .1-.1.2-.1v-.1h-.1s-.1 0-.2.1c0-.1 0 0 0 0zM7.7 1.6s-.1 0 0 0c0 .1 0 .1 0 0 0 .1 0 0 0 0zM8.1 8s.1 0 0 0c.1 0 .1 0 0 0 .1 0 .1 0 0 0 0-.1-.1-.2-.1-.2 0 .1.1.2.1.2zM7.4 12.5s.1 0 0 0c.1 0 0 0 0 0zM7.3 7.9c-.1 0-.1-.1 0 0-.1-.1-.1 0 0 0-.1 0-.1 0 0 0-.1 0 0 0 0 0zM6.7 5.8c.1.1.2.1.2.1l-.1-.1c-.1-.1-.1-.1-.1 0-.1-.1-.1 0 0 0-.1 0-.1 0 0 0zM6.9 3.2c.1 0 .1 0 .1-.1V3s-.1 0-.2-.1V3c0 .1 0 .1.1.2zM7 1.6s0-.1 0 0c0-.1-.1 0-.1.1 0 0 .1 0 .1-.1zM6.6 5.2s-.1 0 0 0c-.1 0 0 .1 0 0 0 .1 0 .1 0 0zM6.4 5.2c0 .1 0 0 0 0zM6.5 8.1c.1 0 .1 0 0 0 .1 0 .1 0 0 0 0-.1 0-.1 0 0zM6.6 9.4c0-.1 0-.1 0 0 0-.1-.1-.1-.1-.1l.1.1c-.1 0-.1 0 0 0zM6.7 2.8c-.1 0-.1 0 0 0-.1 0-.1 0 0 0-.1 0-.1 0 0 0-.1.1-.1 0 0 0zM7.1 9.1c0 .1 0 .1 0 0 0 .1 0 .1 0 0zM7.1 10.6c.1 0 .1 0 .2.1l.1.1h.1v-.1c-.2-.1-.3-.1-.4-.1 0-.1 0 0 0 0zM7.2 2.3zM7 7.4c.1 0 .1 0 0 0 .1 0 .1 0 0 0zM6.9 4.4l-.1.1H7s.1 0 .1-.1h-.2c.1 0 0 0 0 0zM7 8.7s-.1 0 0 0c-.1 0-.1.1 0 0 0 .1 0 .1.1.1 0 0 0-.1-.1-.1zM7 3.5zM.7 19.8s0 .1.1.1c0 0 0-.1-.1-.1zM1.3 12.2c.1 0 .2 0 .2-.1V12h-.1c0 .1 0 .1-.1.2v-.1h-.1c.1 0 .1.1.1.1zM1.2 13.4zM1.2 13.4c0-.2-.1-.2-.2-.2.1.1.2.1.2.2zM1.1 12.8s0-.1 0 0c0-.1 0 0 0 0zM1.4 13.4h-.2c.1 0 .1.1.2 0 0 .1 0 0 0 0zM.8 18.6h.1s0-.1-.1 0zM1 15.3c0 .1 0 0 0 0zM.9 17.8s0-.1 0 0c0-.1 0-.1 0 0 0-.1 0-.1 0 0zM.9 19c.1 0 .1 0 0 0 .1 0 .1 0 0 0zM1.8 10.1h-.1s0 .1.1 0c0 .1 0 0 0 0zM1.8 11.4h-.1c0 .1.1.1.1 0zM1.4 13.9c.1 0 .1 0 0 0 .1 0 0 0 0 0zM1.9 15.5s.1 0 0 0v-.1.1c0-.1 0 0 0 0zM1.9 12c0-.1 0-.1 0 0 0-.1-.1-.1 0 0-.1 0-.1 0 0 0zM1.4 14.7s0 .1 0 0h.1l.1-.1h-.1l-.1.1zM1.7 11.5c0-.1 0-.1-.1-.1 0 0 .1 0 .1.1zM1.7 11.5zM.5 26.4c.1 0 .1 0 0 0 .1-.1.1-.1 0 0 .1-.1 0-.1 0 0zM.1 20.3s0-.1 0 0c0-.1 0 0 0 0zM.3 22.7c-.1 0-.1 0 0 0-.1 0 0 .1 0 0 0 .1 0 .1 0 0zM.4 22.4c0-.1-.1 0-.1-.1 0 .1 0 .1.1.1zM.3 19.9s0-.1 0 0v-.1s-.1 0-.1.1c0 0-.1 0-.1.1 0-.1.1-.1.2-.1-.1 0 0 0 0 0zM.4 27.1s0 .1 0 0c0 .1 0 .1.1.1h.1c-.1-.1-.1-.1-.2-.1.1 0 0 0 0 0zM2 14.5c-.1 0-.1 0 0 0-.1 0-.1 0 0 0-.1 0 0 0 0 0zM.9 16.1c0-.1 0-.1 0 0 0-.1-.1-.1 0 0-.1 0 0 0 0 0zM.3 19c-.1 0-.1 0 0 0-.1 0-.1 0 0 0-.1 0-.1 0 0 0-.1 0-.1 0 0 0zM.5 23.6v-.1H.4.3s-.1.1 0 .1c0 .1.1 0 .1 0h.1c-.1 0 0 0 0 0zM.7 27.6c-.1-.1-.1 0-.1-.1v.1s.1.1.1 0c0 .1 0 .1 0 0 0 .1 0 0 0 0zM.8 14.7c-.1 0-.1-.1 0 0H.7c-.1 0-.1.1.1 0-.1 0-.1 0 0 0zM.9 17.4s-.1 0 0 0c-.1 0-.1 0 0 0-.1 0-.1.1 0 0-.1.1 0 0 0 0zM.5 17.9c-.1.1-.1.1 0 0-.1.1-.1.1 0 0-.1.1-.1.1 0 0 0 .1 0 .1 0 0 0 .1 0 .1 0 0 0 .1 0 .1 0 0zM.3 18.6s-.1 0 0 0c-.1 0-.1 0 0 0-.1 0-.1.1 0 0-.1.1 0 0 0 0zM.5 16.7s.1 0 0 0c.1-.1 0-.1 0 0 0-.1 0-.1 0 0-.1-.1-.1-.1 0 0l-.1-.1s0 .1.1.1c-.1 0 0 0 0 0zM.4 17.1c.1.1.1 0 0 0 .1 0 .1 0 0 0zM3.4 15.9c0-.1 0-.1 0 0-.1-.1-.1-.1 0 0-.1 0 0 0 0 0zM3.6 9.6s0-.1 0 0c.1 0 .1 0 .1-.1 0 0-.1 0-.1.1 0-.1 0-.1 0 0 0-.1 0 0 0 0zM3.6 6.7c-.1 0-.1 0 0 0-.1 0 0 0 0 0zM3.7 12.2c.1-.1 0-.1 0-.2-.1.1-.1.1 0 .2-.1 0 0 0 0 0zM3.6 14.8c.1 0 .1.1 0 0h0c.1 0 .1 0 0 0zM3.3 11.8s0 .1 0 0c0 .1 0 .1 0 0 0 .1 0 0 0 0zM4 7.3s0-.1 0 0c-.1-.1-.1-.1 0 0-.1-.1-.1 0-.2 0v.1c.1 0 .1 0 .2-.1zM3.3 22.4c0-.1 0-.1 0 0 0-.1 0-.1 0 0zM4.5 7.8zM3.6 8h-.2s-.1 0-.1.1l.1.1.2-.2zM4.2 8.1c.1.1.1 0 .2 0V8c-.1 0-.1 0-.2.1 0-.1 0-.1 0 0zM4.4 8.5zM4.3 9.9c.1 0 .1 0 0 0 .1 0 .1-.1 0 0 0-.1 0 0 0 0zM3.9 6.4c-.1 0-.1 0 0 0-.1 0-.1 0 0 0-.1 0 0 0 0 0zM4 10.2s0-.1 0 0V10v.2c-.1-.1 0 0 0 0zM4.1 14.3c0-.1 0-.1 0 0 0-.1-.1-.1 0 0-.1 0 0 0 0 0zM4.3 6.7c-.1 0-.1-.1 0 0h-.1.1zM2.1 9.5l.1-.1H2c0-.1 0 0-.1 0v.1h.2zM2.2 16.5c.1 0 .1 0 0 0 .1 0 .1 0 0 0 .1 0 .1-.1 0 0 .1-.1 0-.1 0 0zM2.4 15.2c-.1 0 0 .1 0 0 0 .1 0 .1 0 0zM2.4 10.6zM2.5 10.2c.1 0 .1 0 0 0 0-.1 0-.1-.1-.1h-.1v.1h.2zM2.2 13.5zM3.1 19.9c.1 0 .1 0 0 0 .1 0 .1-.1.1-.1h-.1c.1 0 .1 0 0 .1zM2.8 8s0-.1 0 0c0-.1-.1-.2-.1-.1V8c-.1 0 0 .1.1 0zM2.1 14.7c.1.1.1.1 0 0 .1.1.1 0 .1 0h-.1c.1 0 .1 0 0 0zM2.1 12.1s0 .1 0 0c.1.1.1.1.2.1 0-.1-.1-.1-.2-.1zM3.1 7.4s.1 0 0 0c.1 0 0 0 0 0 0-.1 0 0 0 0zM3 10.8c-.1 0-.1 0 0 0zM3.3 8.6c-.1 0-.1 0 0 0-.1 0-.1 0 0 0-.1 0-.1 0 0 0-.1 0-.1 0 0 0zM2.7 9.4c0 .1.1.1 0 0 .1 0 .2.1.2 0h-.1-.1zM2.9 8.1s0-.1 0 0c0-.1 0 0 0 0zM2.7 8.5h.1s0-.1-.1 0c.1 0 0 0 0 0zM2.9 7.1c-.1 0-.1 0 0 0h-.1.1c-.1 0-.1 0 0 0zM15.4 37c-.1 0-.1 0-.1.1l.1.1c0-.1.1-.1 0-.2.1 0 0 0 0 0zM18.6 25.1c-.1 0-.1 0 0 0zM18.1 20.5s-.1-.1 0 0l-.1-.1c-.1.1 0 .1.1.1-.1 0-.1 0 0 0zM18.3 25.7s0-.1 0 0c-.2-.1-.3-.2-.4-.2h-.1-.1v.1h.1c.1 0 .1 0 .2.1h.3c0 .1 0 0 0 0zM17.9 23c0-.1 0-.1 0 0 0-.1 0-.1 0 0-.1-.1-.1 0 0 0-.1 0 0 0 0 0zM18 21.2c-.1 0-.1 0 0 0-.1 0-.1 0-.1.1-.1 0 0 0 .1-.1-.1.1-.1.1 0 0 0 .1 0 .1 0 0zM18 22.5zM18 21.7c-.1 0-.1 0 0 0h-.1c-.1 0 0 .1.1 0-.1.1-.1 0 0 0zM18 22.6s0 .1 0 0c0 .1 0 .1 0 0zM18 27.4zM18.1 28.1zM18.4 25.5c.1 0 .1 0 0 0 .1 0 0 0 0 0zM18.5 25.1zM18.5 26.7s-.1 0-.1.1l.1-.1c0 .1 0 .1 0 0 0 .1 0 0 0 0zM18.5 25s-.1 0 0 0c0 .1 0 .1 0 0zM18.1 28.6c.1-.1.1-.1 0 0 0-.1 0-.1 0 0zM18.3 27c0-.1-.1-.1-.2-.1 0 .1.1.2.2.1-.1.1 0 .1 0 0zM18.3 31.7s-.1 0 0 0c-.1 0 0 0 0 0zM18.1 26.1c-.1 0-.1 0 0 0-.1.1-.1.1 0 0-.1.1 0 .1 0 0 0 .1 0 0 0 0zM18.2 23.6c.1 0 .1 0 0 0 .1 0 .1 0 0 0 .1 0 .1-.1 0 0 0-.1 0 0 0 0zM18 24.2s-.1 0 0 0c-.1-.1-.2-.1-.2-.1 0 .1 0 .2.2.1-.1.1 0 .1 0 0zM18.1 24.5l.1.1h.1v-.1c0-.1-.1-.1-.1-.1s-.1 0-.1.1zM18.2 18c0-.1-.1-.1-.1-.1-.1.1 0 .1.1.1zM17.9 18.8s0 .1 0 0c.1.1.2 0 .2 0h-.2c0-.1 0-.1 0 0zM17.8 15.4c0 .1 0 0 0 0zM17.8 23.9h.1c0-.1 0-.1-.1 0 0-.1 0-.1 0 0 0-.1 0-.1 0 0 0-.1-.1-.1 0 0-.1-.1 0 0 0 0zM18 19.2h.1v-.1c0 .1 0 .1-.1.1 0-.1-.1-.1-.1 0h.1zM18.1 21.1s0 .1 0 0c0 .1 0 0 0 0zM18.3 29.3l.1-.1c-.1-.1-.1 0-.1.1 0-.1 0-.1 0 0zM17.8 25s.1 0 0 0c.1 0 .1 0 0 0 .1 0 .1 0 0 0zM17.8 26.7c0 .1 0 .1 0 0 0 .1 0 .1 0 0zM17.9 26.3s-.1 0 0 0zM18.5 27.4c-.1 0-.1.1 0 0v0zM18.4 30c0 .1 0 .1 0 0 0 .1 0 .1 0 0 .1 0 0 0 0 0zM18.4 30.4h-.1s0 .1.1 0c0 .1 0 0 0 0zM17.8 20l.1.1h.1V20c0-.1-.1-.1-.2 0 0-.1 0 0 0 0zM19 18.5c0 .1 0 .1 0 0 .1.1.1.1.1 0H19zM19.2 19.4h-.1-.1v.1h.2v-.1zM19.3 19.9c0 .1 0 0 0 0zM19.1 18.2s.1 0 0 0c.1 0 .1 0 0 0 .1.1.2.1.2.1v-.2h-.1s-.1 0-.1.1zM18.5 23.9zM19.3 26.8zM19.4 26.4c0-.1 0-.1 0 0l-.1-.1c-.1 0 0 0 .1.1-.1 0-.1 0 0 0-.1 0-.1 0 0 0zM19.2 26.3zM18.8 19.2s-.1-.1 0 0h-.1.1c-.1 0 0 0 0 0zM19.6 24.3zM18.6 21.7c.1 0 .2 0 .2.1v-.1s-.1-.1-.2 0c.1 0 0 0 0 0zM19.4 24.3c-.1 0-.1-.1 0 0-.1-.1-.1 0-.1 0h.1c-.1 0-.1 0 0 0zM19.1 28c.1 0 .1 0 0 0 .1 0 .1 0 0 0 .1 0 .1 0 0 0 .1-.1.1-.1 0 0 0-.1 0 0 0 0zM19.5 22.5c0 .1 0 .1 0 0v.1c.1.1.1 0 0-.1.1.1.1.1 0 0zM19.6 23.7c-.1 0-.1.1-.2.1.1.1.2 0 .2-.1zM19.3 22.9c.1 0 0 0 0 0zM19.5 21.3c0-.1 0-.1 0 0-.1-.1-.1-.1-.2-.1v.1c.1.1.1.1.2 0z"/><path class="st1" d="M19.1 26.2s0 .1 0 0c.1.1.1.1.2.1-.1 0-.1-.1-.2-.1zM19.2 22.4s0-.1 0 0c-.1-.1-.1-.1-.2-.1h-.1c.1 0 .2.1.3.1zM19 25.6c-.1.1-.1.1 0 0-.1.1 0 .2 0 .2v-.2c0 .1 0 .1 0 0zM18.8 28.5h-.2c.2.1.2.1.2 0zM19.2 20.6c0-.1-.1-.2-.2-.2 0 0-.1 0-.1.1s.1.1.1.1h.2c-.1.1-.1.1 0 0-.1.1 0 .1 0 0zM18.7 22.9h-.1c.1.1.2.1.3.2h.1c.1 0 .1 0 .2-.1v-.1h-.1c-.1.1-.3.1-.4 0zM18.5 22.5s0 .1 0 0c.1.1.2.1.2.1 0-.1-.1-.1-.2-.1zM18.6 20.5c.1 0 .1 0 0 0 .1 0 .1-.1 0 0 0-.1 0 0 0 0zM18.8 19.9h.2v-.1h-.1l-.1.1zM19.1 24.5c0-.1 0-.1 0 0H19l-.1.1c0 .1.1 0 .1 0l.1-.1zM18.7 23.7s0 .1 0 0c0 .1 0 .1 0 0 0 .1 0 .1 0 0 0 .1 0 0 0 0zM18.6 24.2s.1.1 0 0l.1.1c0-.1 0-.1-.1-.1zM18.7 29.4s0 .1 0 0c.1.1.2 0 .2 0l-.1-.1c-.1 0-.2 0-.1.1zM19 27.4zM18.7 25.5c0 .1 0 0 0 0zM18.9 26.1c-.1 0-.1 0 0 0-.1 0-.1.1 0 0 0 .1 0 .1 0 0zM18.9 26.9h.1-.1c0-.1-.1-.1-.1 0h.1c-.1.1 0 0 0 0zM19 21.9c0 .1 0 .1 0 0h0zM20.2 26.9zM20.5 22zM20.2 21.7c0 .1 0 .1 0 0 .1.1.1 0 .1 0h-.1zM20.3 27v-.1h-.1s0 .1.1.1zM19.3 15.9s-.1 0 0 0c-.1 0 0 0 0 0zM20.2 26.8c-.1 0-.1 0 0 0 0 .1 0 .1 0 0 0 .1 0 0 0 0zM20.3 17.3c0 .1-.1 0 0 0-.1.1-.1.1 0 0 0 .1 0 .1 0 0 0 .1 0 .1 0 0zM20.7 20.7s0-.1 0 0c0-.1 0-.1 0 0-.2 0-.2-.1-.3-.2 0 0-.1 0-.2-.1h-.1c.1 0 .2.1.3.2.2.2.2.2.3.1zM20.1 24.2s0 .1 0 0c0 .1 0 .1 0 0zM19.7 28.2s0-.1 0 0c-.1 0-.1 0-.1.1v.1c.1-.1.1-.1.1-.2zM20.1 26.4l-.1-.1-.1.1c.1.1.1.1.2 0 0 .1 0 0 0 0zM19.8 27.4s0-.1-.1-.1v.1h.1zM19.6 28.6zM20.2 25h-.1s-.1 0-.1.1.1.1.1.1h.1c0-.1.1-.1 0-.2zM20 25.5l.1.1c0-.1 0-.1-.1-.1zM20.3 16.5s-.1 0 0 0c-.1 0-.1.1 0 0-.1.1-.1.1 0 0 0 .1 0 .1 0 0 0 .1.1.1.1 0h-.1zM20.2 30.6c-.1 0-.1 0 0 0-.1 0-.1.1 0 0-.1.1-.1.1 0 0-.1.1-.1.1 0 0zM19.7 21.9v.1c.1 0 .2 0 .2-.1l.1-.1h-.1s-.1 0-.2.1zM19.5 29.5s.1 0 .1-.1c-.1 0-.1-.1-.1-.1v.2zM20 19.4zM20 23.9c.1.1.2 0 .2-.1v-.1c-.1 0-.1.1-.2.2 0-.1 0 0 0 0zM20.1 23h.1-.1zM19.9 20.6s0 .1 0 0c.1.1.1.1 0 0 .1 0 .1 0 0 0zM19.7 21.1c0 .1.1.1 0 0h0zM20.1 21.3zM19.8 19.4s0 .1 0 0c0 .1.1.1 0 0l.1.1c0-.1 0-.1-.1-.1zM20.6 19.4s-.1-.1 0 0c-.1-.1-.1-.1 0 0-.1 0-.1 0 0 0zM20.1 20.1s0 .1 0 0c.1.1.1 0 .2 0 0-.1-.1-.1-.2 0 0-.1 0 0 0 0zM20.8 19.9s0-.1-.1-.1c0 0 0 .1.1.1-.1 0 0 0 0 0zM20.3 14.8l.1.1v-.1h-.1c.1 0 .1 0 0 0zM20.5 19.9zM20.2 11.4s.1 0 0 0c0 0 0-.1 0 0 0-.1 0 0 0 0zM20.2 16c0 .1.1.1 0 0 0 .1 0 .1.1.2l.1-.1-.1-.1h-.1c.1 0 .1 0 0 0zM20.2 12.7s.1 0 0 0c.1 0 .1 0 0 0 .1 0 .1 0 0 0zM19.3 31.3c0-.1 0-.1 0 0-.1-.1-.1-.1 0 0-.1-.1-.1 0 0 0zM18.7 32.9s-.1 0 0 0h-.1c0 .1 0 .1.1 0-.1.1 0 .1 0 0zM18.6 28s-.1 0 0 0zM18.7 33.4c0-.1 0-.1 0 0 0-.1 0 0 0 0zM18.7 26.3c0-.1-.1-.1-.1-.1s-.1 0-.1.1v.1h.1s.1 0 .1-.1zM18.7 31.8v.1h.1c0-.1 0-.1-.1-.1zM18.5 31.1h-.1s-.1 0-.1.1v.1h.1c0-.1.1-.1.1-.2 0 .1 0 .1 0 0zM18.9 30.6c0-.1 0-.1 0 0-.1 0-.2 0-.2.1.1 0 .1 0 .2-.1zM19.6 26.9c-.1 0-.1-.1 0 0-.1-.1-.1 0-.1 0h.1c-.1 0-.1 0 0 0zM18.4 32.5c0-.1 0-.1 0 0 0-.1 0-.1 0 0zM18.2 29.3s0 .1 0 0c-.1.1 0 .1 0 .1v-.1zM18.2 32.2s-.1 0 0 0h-.1.1zM18.1 31.9v-.1H18c-.1 0 0 .1.1.1zM18.3 34s0-.1 0 0c0-.1 0-.1 0 0 0-.1 0-.1 0 0-.1-.1-.1-.1 0 0-.1 0-.1 0 0 0zM18.4 32.8h-.1c.1.1.1.1.1 0 0 .1 0 0 0 0zM19 28.2c0-.1-.1-.1 0 0-.1-.1-.2-.1-.2 0v.1s.1.1.1 0c0 0 0-.1.1-.1zM18.4 33.6s0-.1 0 0c-.1-.1-.1 0-.1 0h.1zM18.7 31c0 .1 0 .1 0 0 0 .1 0 .1 0 0 .1.1.1 0 0 0zM19.7 27zM19.9 22.3c0 .1 0 .1 0 0zM19.9 26.2c-.1-.1-.2-.1-.3-.1h-.1v.1h.4zM19.6 25.7c0 .1.1.1.1.1h.1s0-.1-.1-.1-.1-.1-.2-.1h-.1-.1c.2 0 .2 0 .3.1zM19.8 23.1c-.1 0-.1.1 0 0v.1c.1 0 .2-.1.2-.2h-.1c0 .1-.1.1-.1.1zM20 27.7c0-.1 0-.1 0 0-.1-.1-.1 0-.1 0h.1zM19.6 24.9s.1 0 0 0c.1.1.1.1.2.1h.1c-.1-.1-.2-.2-.3-.1 0-.1 0-.1 0 0zM19.7 24.3zM19.5 25.1c0-.1-.1-.1 0 0-.2-.1-.2-.1-.3-.1.1 0 .1.1.2.1h.1c-.1 0 0 0 0 0zM19.3 30.4c0 .1 0 .1 0 0 0 .1 0 0 0 0zM19.4 28.8s-.1 0 0 0c-.1 0-.1 0 0 0-.1 0-.1.1 0 0-.1.1 0 .1 0 0zM18 30.6h.1s0-.1-.1 0c0-.1 0-.1-.1-.1h-.1c.1.1.1.1.2.1-.1 0 0 0 0 0zM19.1 32.5c.1 0 .1 0 0 0l.1-.1c-.1.1-.2 0-.2 0h-.1v.1h.2zM19.4 32s0-.1 0 0c0-.1 0 0 0 0zM19.4 27.6h-.1-.1v.1c.1 0 .1 0 .2.1v-.2zM19.4 30c-.1 0-.1 0 0 0-.1 0-.1.1 0 0zM20.3 18.7zM16.2 21.1s0-.1 0 0h-.1.1zM16.2 27.5c0 .1 0 .1 0 0 0 .1 0 .1 0 0zM16.1 23.1H16h-.1v.1s.1 0 .1.1h.2c0-.2 0-.2-.1-.2.1 0 .1 0 0 0zM16.3 30l.1-.1c0-.1-.1-.1-.1-.1h-.1c-.1.2-.1.2.1.2-.1 0-.1 0 0 0zM16.2 28.8s0-.1 0 0c0-.1-.1-.1-.1-.1l.1.1zM15.9 30.6s0-.1 0 0c0-.1-.1-.1-.1-.1s-.1 0-.1.1 0 .1.1.1c0-.1 0-.1.1-.1zM16 21.8c-.1 0-.1 0 0 0-.1 0-.1 0 0 0 0 .1 0 .1.1.1 0 0 .1 0 .1-.1-.2.1-.2.1-.2 0zM15.9 14.7c0 .1 0 .1 0 0 0 .1 0 .1 0 0zM15.5 27.9h.2-.2zM16.1 28.1s-.1 0 0 0c-.2-.1-.3-.2-.4-.2 0 .2.2.2.4.2-.1.1 0 .1 0 0zM16 24.3c0 .1 0 .1 0 0v.2h.1v-.1s-.1 0-.1-.1zM16 23.5zM16 29.3c-.1 0-.2 0-.2.1v.1c.1 0 .2-.1.2-.2zM15.7 27.9zM16.1 24.8zM16.1 26.1c-.1 0-.1 0 0 0-.1 0 0 0 0 0 0 .1 0 0 0 0zM15.9 27.3h0zM16.1 23.5H16h.1zM16.2 33.7s0-.1 0 0c0-.1 0-.1 0 0 0-.1-.1-.1 0 0l-.1-.1.1.1c-.1-.1 0 0 0 0zM16 34.7c.1 0 .1 0 0 0 .1 0 .1 0 0 0 0-.1 0-.1-.1-.2h-.1c0 .1.1.2.2.2zM16 31.6s-.1 0 0 0c-.1 0-.1 0 0 0zM15.8 34.1s-.1 0 0 0c0 .1 0 .1 0 0 .1.1.1 0 .1 0h-.1zM16.3 31.1c-.1 0-.2-.1-.3-.1h-.1s0 .1.1.1c0 .1.1.1.2.1h.2c-.1 0 0 0-.1-.1.1.1 0 0 0 0zM15.1 28.5s.1 0 0 0c.1 0 .1-.1 0 0 0-.1 0-.1 0 0zM16.3 32.3s-.1 0 0 0c-.1.1-.2.1-.2 0v.1c0 .1.1.1.2-.1 0 .1 0 0 0 0zM16.3 31.6l-.1-.1h-.1l.2.1zM15.8 24.3s.1 0 0 0c.1-.1.1-.1 0 0 0-.1 0-.1 0 0zM15.5 22.9s0 .1 0 0c.1.1.1.1.2.1-.1 0-.1-.1-.2-.1zM15.8 25.6c0 .1.1.1.2.1 0 0-.1-.1-.2-.1zM15.1 28.2c.1 0 .3-.1.3-.1-.1 0-.1 0-.2.1-.1-.1-.1-.1-.1 0 0-.1 0 0 0 0zM15.9 23.6s.1 0 .1-.1c-.1 0-.1 0-.1.1zM15.1 25.7s0 .1 0 0c0 .1 0 .1 0 0h.3v-.1c-.1 0-.2.1-.3.1zM15.7 23zM15.7 23c.1 0 .1-.1.1-.1-.1 0-.1 0-.1.1zM16.1 20.6s-.1 0 0 0H16h.1zM15.1 24.5c0 .1.1 0 .1 0v-.1l-.1.1c0-.1 0 0 0 0zM15.1 27.3c.1 0 .1 0 0 0 .1 0 .1 0 0 0zM15.3 31c0-.1 0-.1 0 0l-.1-.1.1.1zM15.3 30.5h-.2v.1l.1.1c0-.1 0-.1.1-.2zM15.4 26.9c-.1 0-.1-.1 0 0-.1-.1-.1 0-.2 0 0 .1 0 .1.2 0-.1.1-.1 0 0 0zM15.3 23.1v.1-.1zM15.2 23.5s.1.1 0 0l.1.1c0-.1 0-.1-.1-.1zM15.3 23.1c0 .1 0 .1 0 0 .1.1.1.1 0 0 .1 0 .1 0 0 0zM15.2 23.1s0 .1 0 0c0 .1.1.1.1.1 0-.1-.1-.2-.1-.1zM15.5 22.4s-.1 0 0 0c-.1.1 0 .1 0 .1.1 0 .1.1.2.1h.2v-.1l-.1-.1h-.3zM15.1 21.9c0 .1.1.1 0 0 .1 0 .2.1.2-.1 0-.1.1-.1.2-.1-.2 0-.3.1-.4.2zM15.5 32.7s0 .1 0 0c.1.1.1.1 0 0 .1 0 .1 0 0 0zM15.7 21.7c-.1 0 0 0 0 0zM15.8 31.8s0-.1 0 0c-.1-.1-.1 0 0 0-.1 0-.1 0 0 0-.1 0 0 0 0 0zM15.5 32.3h-.2l-.1.1c.1 0 .1.1.2.1l.1-.1c.1-.2.1-.1 0-.1zM15.9 20.5c0 .1 0 .1.1.2 0-.1 0-.1-.1-.2.1 0 0 0 0 0zM16.4 25.4s0 .1 0 0c0 .1 0 .1 0 0zM15.8 26.8c-.1-.1-.1-.1-.2-.1 0 .1.1.1.2.1-.1 0-.1 0 0 0zM15.6 23.8c-.1 0-.1 0-.1.1 0 0 0 .1.1.1v-.2c.1.1.1.1.1 0h-.1zM15.8 26.8zM15.8 26.7c0 .1 0 .1 0 0 0 .1 0 .1 0 0zM15.4 24.9c0-.1-.1-.1-.2-.2l.2.2zM15.6 27.4h-.1c0 .1 0 .1.1 0-.1.1 0 .1 0 0 0 .1 0 0 0 0zM15.7 31h-.1s-.1 0-.1.1l.1.1c.1-.1.1-.1.1-.2zM15.6 31.5c0 .1 0 .1 0 0 0 .1 0 .1 0 0 0 .1 0 0 0 0zM15.6 25.1s.1 0 0 0h0zM15.5 26.3zM15.6 26.4s.1-.1 0 0c.1-.1 0-.1 0-.1h-.1c0 .1 0 .1.1.1zM15.3 26.1h-.1.1l.2.2c-.1-.1-.1-.2-.2-.2zM15.4 31.5zM15.6 29.9c0-.1-.1-.1 0 0-.1-.1-.2-.1-.2 0 0 0 .1.1.2 0-.1.1 0 0 0 0zM15.7 28.7c-.1-.1-.1 0-.2 0h.1c0 .1.1.1.1 0zM15.5 30.3c0 .1 0 .1 0 0 0 .1 0 .1 0 0zM17.4 22.3h.2-.2zM17.7 23.2h-.1c0 .1 0 .1.1 0-.1.1 0 .1 0 0zM17.6 21.1c0-.1 0-.1 0 0-.1-.1-.1-.1 0 0-.1-.1-.1 0-.1 0h.1c-.1 0-.1 0 0 0zM17.5 23.6s.1.1 0 0h0zM17.4 24.8zM17.3 23.1s0 .1.1.1l.1-.1h-.2c.1 0 0 0 0 0zM17.4 21.9c0 .1 0 0 0 0 .2.1.2 0 .2 0 0-.1-.1-.1-.2 0 0-.1 0-.1 0 0zM16.4 25.1c-.1 0-.1 0-.2-.1l-.1.1H16.4c0 .1 0 0 0 0 .1 0 .1 0 0 0 .1 0 .1 0 0 0zM17.3 24.4c0 .1 0 0 0 0zM17.7 17.2s0 .1 0 0c0 .1 0 0 0 0zM16.8 26.9c0-.1-.1-.1-.1-.2h-.1s-.1 0-.1.1v.1c.1.1.3.1.3 0zM17.2 27.5s-.1 0 0 0c-.1-.1-.1-.1-.2-.1 0 .1.1.1.2.1-.1 0-.1 0 0 0zM16.8 29.4c-.1 0-.1 0-.1.1l.1-.1zM16.7 26.1s0-.1 0 0c0-.1-.1 0 0 0-.1 0 0 0 0 0zM16.8 25.7c0-.1 0-.1 0 0h-.1.1c-.1 0 0 0 0 0zM17.1 29.9H17h-.1v.1c.1.1.2 0 .2-.1zM16.8 24.8h-.2c.1.1.2 0 .2 0 0 .1 0 .1 0 0 .1.1 0 0 0 0zM17 28.8s.1 0 .1-.1-.1-.1-.1-.1h-.1v.1c0 .1.1.1.1.1zM16.7 28.2c.1 0 .1 0 0 0 .1-.1.1-.1 0 0 .1-.1 0 0 0 0zM17.7 31.3s.1 0 0 0c.1-.1.1-.1 0 0 0-.1-.1-.1-.2-.1.1.1.2.1.2.1zM17.8 33.4c0-.1 0-.1 0 0 0-.1 0-.1 0 0zM17.8 30zM17.7 28.7zM17.6 25.6c-.2 0-.2-.1-.3 0l-.1.1.1.1h.2c0-.1.1-.1.1-.2zM17.7 18.2c.1 0 .1-.1.1-.2-.1.1-.1.1-.1.2zM17.6 18h0c.1 0 0 0 0 0zM17.8 18.1zM17.9 28c0-.1-.2-.2-.3-.1.1 0 .2.1.3.1zM17.6 27.4c-.1-.1-.1-.1 0 0h-.1.1c-.1 0-.1 0 0 0zM17.7 29.1c-.1 0-.1 0 0 0-.1 0 0 .1 0 0zM17.6 30.4s.1 0 0 0c.1 0 0 0 0 0zM17.5 26.1s-.1 0 0 0zM17.4 28h-.1v.1h.1s.1-.1.1 0l-.1-.1c.1 0 .1 0 0 0zM17.4 30.7c.1 0 .1-.1.1-.1 0-.1-.1-.1-.1-.1h-.1v.1c0 .1 0 .1.1.1zM17.3 26.9s0 .1 0 0c0 .1 0 .1 0 0 0 .1.1.1 0 0l.1.1h.1c-.1 0-.1-.1-.2-.1.1 0 0 0 0 0zM17.6 24.5v-.1h-.1s0 .1.1.1c-.1 0-.1 0 0 0zM17.2 24.2H17c.1.1.2 0 .2 0zM17.1 18.8zM17.2 19.1s-.1 0 0 0zM17 23.1c-.1 0-.1-.1 0 0h-.3v.1s0 .1.1.1h.1c0-.1.1-.1.1-.2zM17 22.4c0 .1.1.1.1.2.1-.1 0-.2-.1-.2.1 0 0 0 0 0zM16.7 24.5zM17.1 25H17c0 .1.1.1.1 0zM16.9 23.6c-.1 0-.1-.1-.2-.1.1.1.1.1.2.1 0 .1 0 0 0 0zM17.2 26.3s0-.1 0 0c0 0-.1 0 0 0-.1 0-.1 0 0 0zM17.2 21.2c0 .1 0 .1 0 0 0 .1 0 .1 0 0zM16.7 15.2c-.1 0-.1 0 0 0-.1 0-.1 0 0 0zM16.5 23.8h-.2v.2c.1-.1.2-.1.2-.2zM16.7 16.6s0-.1 0 0c0-.1-.1 0 0 0-.1 0 0 0 0 0zM17.1 22.9s0 .1 0 0c0 .1 0 .1 0 0 .1.1.1.1 0 0l.1.1-.1-.1zM16.5 17.4c.1.1.1.1.2.1v-.1h-.2c0-.1 0-.1 0 0zM17.2 23.7s-.1 0-.1.1v.1h.2c-.1 0-.1-.1-.1-.2 0 .1 0 0 0 0zM16.8 20.6s.1 0 0 0c.1 0 .1 0 0 0 0-.1 0 0 0 0zM16.7 17.9c-.1 0-.1 0 0 0-.1 0-.1 0 0 0-.1 0-.1 0 0 0zM17 26.3s0-.1 0 0c0-.1-.1-.1 0 0zM16.5 24.2s0 .1 0 0c.1.1.1.1 0 0 .1 0 .1 0 0 0zM16.4 20c-.1.1 0 .1 0 .1h.1l.1-.1c0 .1-.1 0-.2 0 .1 0 .1 0 0 0zM16.5 18.7s.1 0 0 0c.1 0 .1 0 0 0zM16.5 21.7zM16.6 21.3c-.1 0-.1-.1-.2-.1 0 .1.1.1.2.1-.1 0-.1 0 0 0zM16.5 22.9zM16.3 19.2s.1.1 0 0h0zM16.5 28.5s.1 0 0 0c.1 0 .1 0 0 0 .1 0 .1 0 0 0 .1-.1 0 0 0 0zM16.8 19.8s.1 0 0 0c.1 0 .1 0 0 0zM17 19.3s-.1 0 0 0h-.1c0 .1 0 .1.1 0 0 .1 0 .1 0 0zM16.6 29.2s0 .1 0 0v.1s.1 0 0-.1c.1.1 0 0 0 0zM16.8 21.1c.1 0 .1 0 0 0h.1c.1 0 0-.1-.1 0 .1-.1.1-.1 0 0 0-.1 0-.1 0 0 0-.1 0 0 0 0zM16.6 28s-.1.1 0 0v.2s.1-.1 0-.2c.1 0 0 0 0 0zM16.8 22s.1 0 .1-.1v-.1H16.6h-.1v.1c.2.1.3.1.3.1zM16.9 34zM15.8 35.7s0-.1 0 0c0-.1 0-.1 0 0 0-.1-.2 0-.2 0h.2zM15.7 36.4s0 .1 0 0c.1.1.1.1.2 0v-.1h-.1l-.1.1zM15.3 35.9h.2c-.1-.1-.2-.1-.2 0zM15.4 34.7c0 .1-.1.1-.1.1h.1c.1 0 .1-.1 0-.1.1 0 .1 0 0 0 .1 0 .1 0 0 0zM15.7 35.1s-.1 0 0 0c-.1.1-.1.1 0 0 0 .1.1.1.1.1s.1 0 .1-.1h-.2zM16.4 33.9c-.1 0-.1.1 0 0-.1.1-.1.1 0 0-.1.1 0 .1 0 0zM16.2 35s0 .1 0 0c0 .1 0 .1.1.1l-.1-.1zM16.1 35.8c-.1 0-.1 0 0 0-.1 0-.1.1 0 .1h.1l.1-.1-.1-.1-.1.1zM15 36.8s.1 0 0 0c.1 0 .1 0 0 0 .1 0 .1 0 0 0 .1 0 .1 0 0 0zM14.6 37c0 .1 0 .1 0 0h.1-.1zM14.7 35.7h.1v-.1c.1 0 0 0-.1.1.1 0 .1 0 0 0zM16.3 36.4c0 .1 0 .1 0 0h.2-.2c.1 0 0 0 0 0zM15.3 21s.1 0 .1.1c0-.1 0-.1-.1-.1zM14.6 36.2l.1.1c0-.2 0-.1-.1-.1zM15 36.3c0 .1-.1.1 0 0-.1.1-.1.1 0 0v.1h.1l-.1-.1zM15.3 34.5l-.1-.1h-.1.1c-.1.2 0 .2.1.1-.1.1 0 .1 0 0 0 .1 0 .1 0 0zM15.1 35.6s0 .1 0 0c.1.1.1.1 0 0 .1 0 .1 0 0 0zM14.8 36.8c.1 0 0 0 0 0zM19.1 16.8c-.1.1-.1.1 0 .1h.1s.1 0 .1-.1h-.2zM16.4 35.7c.1 0 .1 0 0 0 .1.1.1.1.2.1 0-.2-.1-.1-.2-.1 0-.1 0 0 0 0zM17.1 35.2c-.1.1 0 .1 0 .1h.1c.1 0 .1 0 .1-.1 0 .1-.1 0-.2 0 .1 0 0 0 0 0zM17.1 35.7s.1 0 0 0c.1 0 .1 0 0 0 .1 0 .1 0 0 0 .1 0 .1 0 0 0zM17.5 31.7s-.1 0 0 0c-.1 0-.2 0-.2.1h-.1s0 .1.1.1.1-.1.2-.2zM17.6 33.9c0 .1 0 0 0 0zM17.5 35.1c.1 0 .1.1 0 0 .1.1.1 0 .1 0h-.1c.1 0 .1 0 0 0zM17.4 34.8c.1 0 .2 0 .2-.1v-.1h-.1s-.1.1-.1.2zM17.1 30.3s-.1 0 0 0c-.1.1 0 .1 0 0 0 .1 0 .1 0 0zM16.5 34.5c0 .1 0 .1 0 0 .1.1.1 0 .2 0h-.2zM17.5 33.4c0 .1 0 .1 0 0v.2s.1 0 .1-.1v-.1c0 .1-.1 0-.1 0zM16.6 35.3s-.1 0 0 0c-.1 0-.1.1 0 0-.1.1 0 .1 0 0zM12.1 37.9h.2c-.1-.1-.2-.1-.2 0 0-.1 0 0 0 0zM21.4 28h0zM16.8 31s-.1 0-.1-.1l.1.1c0 .1.1.1.2.1-.1 0-.1 0-.2-.1zM16.8 35.1l.1.1c0-.1 0-.1-.1-.1zM16.7 35.9s.1 0 0 0c.1.1.1.1.2 0-.1 0-.1-.1-.2 0 0-.1 0 0 0 0zM13 36.3s-.1 0 0 0v0zM12.9 37.4s-.1.1 0 0l-.1.1h.2c.1 0 .1-.1.1-.2-.1.1-.2.1-.2.1zM12.8 36.4s0-.1 0 0c0-.1 0 0 0 0zM13.3 36.9s-.1 0-.1.1v.1h.1c.1 0 .1 0 .2-.1-.1 0-.1-.1-.2-.1zM13.2 37.3c0 .1 0 .1 0 0zM12.8 33.3s.1 0 0 0c.1 0 .1 0 .1-.1l-.1.1c.1-.1 0-.1 0 0zM13.1 32.7c-.1 0-.1 0 0 0-.1 0-.2.1-.2.1s.2 0 .2-.1c0 .1 0 .1 0 0 0 .1 0 .1 0 0zM12.8 35.2c0 .1 0 .1 0 0 0 .1 0 .1 0 0 .1.1.1 0 .2 0-.1-.1-.1 0-.2 0zM12.8 34c.1 0 .1.1 0 0l.1.1c0-.1 0-.1-.1-.1zM12.4 37.3zM12.2 37.4c-.1-.1-.1 0 0 0-.1 0-.2.1-.1.1 0 0 0 .1.1.1.2 0 .2 0 .3-.2-.2 0-.3.1-.3 0zM12.4 37.3h0zM12.7 37.4c0-.1 0-.1 0 0 0-.1 0 0 0 0zM12.6 34.5s0 .1 0 0c.1.1.1 0 .2 0h-.2zM13 29.2h-.3s0 .1.1.1c.1.1.2 0 .2-.1zM12.5 36.9h-.1v.1h.2s0-.1.1-.1h-.2c.1 0 .1 0 0 0zM13.8 36.3c-.1-.1-.2-.1-.3-.1l.2.2c0 .1 0 0 .1-.1zM14 36.2s0 .1 0 0l.1.1-.1-.1c.1 0 0 0 0 0zM14 37.4s0-.1 0 0c0-.1 0-.1 0 0zM14.1 32.8c.1 0 .1-.1 0 0 .1-.1 0-.1 0 0 0-.1 0-.1 0 0zM14.1 36.9c-.1 0-.1 0 0 0-.1 0-.1 0-.1.1l.1-.1c-.1.1-.1.1 0 0zM14.2 36.5s.1 0 0 0c.1 0 .1-.1 0 0 .1-.1.1-.1 0 0 .1-.1 0-.1 0 0zM14.2 35.2zM14.4 36.3zM13.2 35.1c.1 0 .2.1.2 0s-.1-.1-.2 0c0-.1 0-.1 0 0-.1-.1-.1 0-.1 0h.1zM14.1 35.8c0-.1-.1-.1 0 0-.1-.1-.2-.1-.3-.1h-.1v.1c.2.1.2.1.4 0-.1 0 0 0 0 0zM13.8 34.6c0-.1-.2-.2-.2-.2-.1.1-.2.1-.3.1h-.1s-.1.1 0 .1l.1.1c.1 0 .1 0 .2-.1s.1-.1.3 0zM13.5 35.2c0 .1.1.1 0 0h.2s0-.1-.1-.1l-.1.1zM13.3 35.8h.1c0-.1-.1-.1-.1 0zM13.6 37.4c-.1.1-.1.1 0 0v0c0 .1 0 0 0 0zM13.6 36.8c.1 0 .1 0 0 0 .1 0 .1 0 0 0 .1 0 .1-.1 0 0 .1-.1.1-.1 0 0zM13.8 37.4c0-.1 0-.1 0 0 0-.1 0 0 0 0zM14.5 34.5c-.1 0-.1-.1-.2-.1.1.1.2.2.2.1 0 .1 0 .2 0 0 .1.1.1.1 0 0zM16.8 34.7c-.1 0-.1 0-.1.1 0 0 0 .1.1.1h.2c-.1-.2-.1-.2-.2-.2zM21.5 20.7c0 .1 0 .1 0 0 0 .1 0 .1 0 0zM21.3 19.4h0zM21.7 22.6c-.1 0-.1 0 0 0-.1 0-.1 0-.1.1l.1.1c-.1-.1-.1-.1 0-.2 0 .1 0 .1 0 0zM21.6 17.2zM20.8 26.8c0 .1 0 .1 0 0 0 .1 0 0 0 0zM21.6 25.2c.1-.1.1-.1.1-.2h-.1c0 .1-.1.1 0 .2-.1-.1-.1-.1-.1 0h.1c-.1 0-.1 0 0 0zM21.5 23.8zM21.4 21.1s-.1 0 0 0c-.1 0-.1 0 0 0-.1 0-.1 0 0 0-.1 0 0 0 0 0 0 .1.1 0 .1 0h-.1zM21.5 24.3zM21 29.9zM21 29.4h-.1v.1l.1.1v-.2zM21 27zM21.8 21.7c-.1 0-.1 0 0 0-.1 0-.1 0 0 0-.1 0-.1 0 0 0-.1 0 0 0 0 0zM17.6 32.3s-.1 0 0 0c-.1.1 0 .1 0 .1h.1s.1 0 .1-.1v-.1h-.1c0 .1-.1.1-.1.1zM21.9 21.4s-.1 0 0 0c-.1 0-.2 0-.2-.1h-.1v.1h.3c-.1 0-.1 0 0 0zM21 21.2c-.1 0-.2 0-.3-.1h-.1-.1.1l.1.1c.1.1.1.1.2.1s.1-.1.1-.1c.1 0 0 0 0 0zM20.9 22.5s0 .1 0 0v0h0zM21.5 19.9zM21.1 27.1c.1 0 .1 0 0 0h0c.1 0 0 0 0 0zM21.2 25.8s-.1 0 0 0c-.1 0-.1 0 0 0 0 .1 0 .1 0 0 .1.1.1 0 .2 0h-.2zM21.1 18.9s.1-.1 0 0c0-.1-.2-.2-.2-.1v.1s0 .1.1.1c0-.1 0-.1.1-.1zM21.2 25s0-.1 0 0c0-.1 0-.1 0 0 0-.1 0-.1 0 0 0-.1 0 0 0 0zM21.3 24.5s-.1 0 0 0c-.1-.1-.1 0-.1 0 0 .1 0 .1.1 0 0 .1 0 .1 0 0zM21.4 27.7zM21.3 24.4zM21.4 23.1c-.1-.1-.1 0-.2.1v.1h.1c.1 0 .1-.1.1-.2 0 .1 0 0 0 0zM21.4 22.1s0-.1.1-.1h-.1-.1-.1v.1c.1-.1.1-.1.2 0zM21.3 20.6c-.1 0 0 .1-.1.1.1 0 .1 0 .1-.1zM21.5 18.2s.1 0 0 0c.1-.1 0-.1 0-.1v.1zM21.3 14.9zM21.2 17.6s-.1 0 0 0c-.1 0 0 0 0 0zM21.1 19.2H21h.1c-.1 0 0 0 0 0 .1 0 0 0 0 0zM21.1 20.5s-.1 0 0 0c-.1 0-.1 0 0 0-.1-.1-.1-.1-.2-.1.1.1.1.1.2.1zM21.1 20zM20.8 26.4h-.2v.1l.1.1c.1 0 .1 0 .1-.1.1-.1.1-.1 0-.1.1 0 .1 0 0 0zM20.6 27.5s0 .1 0 0c0 .2.1.2.1.1l.1-.1v-.1h-.1c.1.1 0 .1-.1.1zM18.7 34.2c-.1 0-.1 0 0 0-.1 0-.1 0 0 0 .1.1.1.1.2 0-.1-.1-.2-.1-.2 0zM18.8 33s.1 0 0 0h.1c.1-.1 0-.1-.1 0 .1-.1.1-.1 0 0zM18.8 33.5s.1 0 0 0c.1 0 .1 0 0 0 .1 0 0 0 0 0zM19.1 33.5zM19.6 32.2s0 .1 0 0c0 .1 0 0 0 0zM19.6 31.9c0-.1 0-.1 0 0-.1-.1-.1 0-.1 0h.1zM19.3 33c0 .2.2.2.2.1V33c0 .1-.1 0-.2 0zM19.2 33.5c-.1 0-.1 0 0 0h.1-.1zM17.9 35.2zM17.9 35.2v.1-.1zM17.8 34.5s0 .1 0 0c0 .1 0 .1 0 0 .1 0 0 0 0 0zM18.7 34.6h-.2c-.1.1-.1.1-.2.1h-.1v.1l.1.1c.1 0 .2 0 .3-.1 0-.1 0-.1.1-.2h.1-.1zM17.9 35.2c.1.1.1.1 0 0 0 .1.1.1.1.1l-.1-.1c.1 0 .1 0 0 0zM18 33s.1 0 0 0c.1 0 .1 0 0 0 .1 0 .1 0 0 0zM17.9 34.1s0 .1 0 0c.1.1.2 0 .2 0h-.2c.1 0 0 0 0 0zM19 33.6c0 .1 0 .1 0 0 .1 0 .2.1.2.1v-.2c-.1 0-.1 0-.2.1zM20.5 31.7zM19.7 30.7s-.1-.1 0 0c-.1 0-.1 0 0 0-.1.1-.2.1-.2 0v-.1.1l.1.1.1-.1zM20.2 31.1zM20.4 30.6s-.1 0-.1.1c0 0 0 .1.1.1v-.2c0 .1 0 0 0 0zM20.6 30.1s0 .1 0 0c.1.1.1 0 .1 0h-.1zM20.6 28.8c0 .1.1.1.1.1.1 0 .1 0 .1-.1 0 0 0-.1-.1-.1l-.1.1zM20.7 30c.1 0 .1 0 0 0 .1 0 .1 0 0 0 .1 0 0 0 0 0zM20.4 29.4h-.2c.1 0 .1.1.2.1v-.1c.1 0 0 0 0 0zM19.9 32.5l-.1-.1h-.1v.1h.2zM19.7 32.8c0 .1 0 .1 0 0 0 .1 0 .1 0 0 0 .1.1.1 0 0 .1.1.2.1.2.1-.1-.1-.1-.1-.2-.1zM20.1 31.9s.1 0 0 0l.1.1s.1 0 .1-.1c0 0 0-.1-.1 0 0-.1 0-.1-.1 0zM19.8 31.6s.1.1.2.1h.1c-.2-.1-.3-.1-.3-.1zM20 32.2c.1.1.1.1 0 0h0c.1 0 .1 0 0 0zM20 30c-.1 0-.1 0-.1.1s0 0 .1.1V30zM19.9 31.2c-.1 0-.1 0-.2.1h.2c.1.1.1 0 0-.1.1.1.1 0 0 0zM17.3 34.2h.1c0-.1-.1-.1-.1 0 0-.1 0-.1 0 0zM15.5 18.2c0-.1 0 0 0 0zM15.5 14.6zM15.4 14.2s.1 0 0 0c.1.1.1 0 .1 0 .1-.1 0-.1-.1 0 .1-.1.1-.1 0 0zM15.5 19.3s-.1 0 0 0c-.1-.1-.1 0-.1 0h.1zM15.4 12.8h0zM15.2 19.8c.1 0 .1.1 0 0 .1.1.2.1.2.1s0-.1-.1-.1h-.1c.1 0 .1 0 0 0zM15.2 18zM15.2 19.3s-.1 0 0 0c-.1.1 0 .1 0 .1s.1 0 .1.1v-.1l-.1-.1zM15.5 21.2c0 .1 0 .1 0 0 .2.1.3 0 .3 0v-.1h-.1H15.4c.1 0 .1.1.1.1zM15.8 17.9s0-.1 0 0l-.1-.1v.1h.1zM15.7 19.1zM15.9 19.2s-.1 0-.1-.1c0 0 0 .1.1.1zM15.6 19.2s.1 0 0 0c.1 0 .1 0 .1-.1l-.1.1c.1 0 0 0 0 0zM15.7 17.4s.1 0 .1.1l-.1-.1c0-.1-.1-.1 0 0-.1 0-.1 0 0 0zM15.7 16.2l.1-.1h-.1v.1c0-.1 0 0 0 0zM15.2 12.5c-.1 0-.1 0 0 0h-.1c-.1.1 0 .1.1 0-.1.1-.1.1 0 0zM15.4 15.9s.1 0 0 0c.1 0 .1 0 .1-.1l-.1.1c0-.1 0 0 0 0zM15.7 14.9s.1 0 0 0c.1 0 .1-.1 0 0zM13.1 20.6c.1 0 .1 0 .1.1 0-.1 0-.1-.1-.1zM13.7 18.5s0 .1 0 0c0 .1 0 .1 0 0zM13.7 19.4s.1 0 0 0c.1.1.2 0 .2 0v-.1h-.1l-.1.1c0-.1 0-.1 0 0zM13.8 16.8zM13 18.5s.1 0 0 0c.1 0 .1 0 0 0 .1 0 .1 0 0 0zM12.8 26.8c0 .1.1.1 0 0l.1.1c0-.1 0-.1-.1-.1zM13 19.5s.1 0 0 0c.1-.1 0-.1 0 0 0-.1 0 0 0 0zM12.9 21.9c.1.1.1 0 .1 0s0-.1-.1-.1v.1zM14 18.6s0 .1 0 0c0 .1 0 .1 0 0zM14.4 12.5zM14.4 16.6zM14.3 25.7c0 .1 0 .1 0 0 .1.1.2.1.2.1s.1 0 .1-.1v-.1c-.1 0-.2 0-.3.1zM13.9 14.5s0 .1 0 0c.1.1.1 0 .1 0h-.1zM14.2 17.8v.1h.1c.1-.1.1-.1-.1-.1.1 0 .1 0 0 0zM14.9 21.3c.1 0 .1 0 .1-.1s-.1 0-.1-.1c-.1.1-.1.1 0 .2-.1-.1-.1 0 0 0zM12.1 30.9c-.1 0-.2 0-.3.1l-.1.1s0 .1.1.1c0 0 .1 0 .1.1 0 0 .1 0 .1-.1 0-.2 0-.3.1-.3zM18.1 16.6l.1.1c0-.1 0-.1-.1-.1.1 0 0 0 0 0zM12.8 22.9s0 .1 0 0c0 .1 0 .1 0 0 0 .1 0 .1 0 0 0 .1 0 .1 0 0zM18.2 21.9s-.1.1 0 0c-.1.1 0 .1 0 0 0 .1 0 .1 0 0 0 .1 0 .1 0 0h.2-.2zM18.3 22.3zM17.5 19.8c.1 0 .1 0 0 0 .1 0 .1 0 0 0zM18.4 20.8s0-.1 0 0c0-.1 0-.1 0 0-.1-.1-.1-.1 0 0-.1-.1 0 0 0 0zM17.6 15.3c.1 0 .1 0 0 0 .1 0 .1 0 0 0 .1 0 .1 0 0 0 .1 0 .1 0 0 0zM17.8 11.3c-.1 0-.1.1-.2.1h.2c.1 0 .1 0 0-.1.1 0 .1 0 0 0zM18 17.5h.1c0-.1 0-.1-.1 0 .1-.1 0-.1 0 0zM18.2 23.2s-.1 0 0 0 .1.1.2.1h.1c-.2-.1-.3-.1-.3-.1zM19 14.8c0-.1 0 0 0 0zM18.7 16.1c0 .1 0 .1 0 0 .1.1.1.1 0 0h.2s-.1.1-.2 0zM18.9 10.7s0 .1 0 0c0 .1.1.1.1.1 0-.1 0-.1-.1-.1zM18.4 21.1c.1.1.2.1.2.1h-.1l-.1-.1zM18.3 19.8c.1 0 .1 0 0 0 .1.1.1 0 .1 0h-.1c.1 0 .1 0 0 0zM18.7 17.9c0 .1.1.1.2.1v-.1c-.1 0-.2-.1-.2 0zM18.8 16.6c.1.1.1 0 .2 0-.1 0-.1-.1-.2 0 0-.1 0 0 0 0zM16 16.6s-.1 0 0 0c0 .1 0 .1.1.1s.1 0 .2-.1H16zM16.1 19.8c0 .1.1.1.1.1.1 0 0-.1-.1-.1.1 0 .1 0 0 0zM15.9 18.6h-.2v.1c.1 0 .1.1.2.1-.1 0 0-.1 0-.2 0 .1 0 0 0 0zM16.2 19.4c0 .1.1.1.1 0-.1 0-.1-.1-.1 0 0-.1 0-.1 0 0zM16.2 22.3l.1.1h.1v-.1h-.2zM15.8 9.3s.1 0 0 0c.1.1.1.1 0 0 .1 0 .1 0 0 0zM15.7 13.4s0 .1 0 0c.1.1.2.1.2 0h-.2zM16.7 19.5h.1s0-.1-.1 0c0-.1 0 0 0 0zM15.9 8h.1s0-.1-.1 0c0-.1 0 0 0 0zM17.4 20.5zM17.4 20.5v.2c.1.1.3.1.3 0v-.1h-.2s-.1 0-.1-.1zM17.3 20.1c0-.1 0-.1 0 0V20v.1c0-.1 0-.1 0 0zM16.8 18.1c.1 0 .1 0 0 0 .1 0 .1-.1.1-.1 0 .1 0 .1-.1.1.1 0 0 0 0 0zM17.2 20.4c0 .1 0 .1 0 0 .1.1.2.1.2 0-.1.1-.1 0-.2 0zM16.9 16.7zM17.3 17.4c-.1 0-.1 0 0 0-.1 0-.1 0-.1.1 0 0 0 .1.1.1h.1c.1 0 .1 0 .1-.1-.1-.1-.2-.1-.2-.1zM17.3 18.7c0 .1 0 .1 0 0 0 .1 0 0 0 0zM14 5.8c.1.1.1.1 0 0 .1.1.1.1 0 0 .1.1.1 0 0 0 .1 0 .1 0 0 0zM11 31c0 .1.1 0 .1 0H11zM11.2 31c-.1.1 0 .1 0 .1.1 0 .1 0 0-.1.1 0 .1 0 0 0zM11.1 31.5c0-.1 0-.1 0 0 0-.1 0-.1 0 0zM11.6 21.9h.2l-.1-.1c-.1 0-.1 0-.1.1zM12.8 19.1s0 .1 0 0h.1-.1zM11.1 32.3c0-.1-.1-.1 0 0-.1-.1-.1 0 0 0-.1 0-.1 0 0 0zM11.3 32.3c0-.1 0-.1 0 0l-.1-.1s0 .1.1.1zM11.7 27.3c0 .1.1.2.2.2l.1-.1h-.1s-.1-.1-.2-.1c.1 0 0 0 0 0zM11.5 31.7s.1-.1.1-.2h-.1s-.1 0-.1.1v.1h.1zM12 23.8zM11.9 22.5c-.1 0-.1 0 0 0-.1 0-.1 0 0 0 0 .1.1.1.1.1.1 0 .1 0 .1-.1H12c0-.1-.1 0-.1 0zM12 25c0 .1 0 .1 0 0 0 .1 0 .1 0 0zM12.1 28.6c0-.1 0-.1-.1-.1h-.1-.1s-.1 0-.1.1v.1l.1.1c.2-.1.3-.1.3-.2zM11.9 26.2c0 .1 0 .1 0 0 .1.1.1 0 .1 0h-.1zM11.8 29c0 .1 0 .1 0 0 0 .1 0 .1 0 0zM12.1 27.3s-.1 0 0 0c-.1.1 0 .1 0 0 0 .1 0 .1 0 0zM11.8 26.7s.1 0 0 0h.1s0-.1-.1 0c.1-.1 0-.1 0 0 0-.1 0 0 0 0zM11.8 21.2c0 .1.1.1.1.1 0-.1 0-.1-.1-.1zM11.8 37.2s-.1 0 0 0c-.1.1 0 .1 0 0 0 .1 0 .1 0 0 .1.1.1.1 0 0 .1.1.1 0 0 0 .1 0 0 0 0 0zM11.6 34.4s0 .1 0 0c.1.1.1.1 0 0 .1 0 0 0 0 0zM11.9 36.8c-.1 0-.1 0 0 0l-.1.1h-.1s0 .1.1.1c0 0 .2 0 .2-.1l-.1-.1zM11.3 35c.1 0 .1 0 0 0 .1 0 .1 0 0 0h-.1.1zM11.8 33.4c-.1.1-.1.1 0 .1h.1v-.1s0-.1-.1 0c.1-.1.1-.1 0 0zM11.7 32c0 .1 0 .1 0 0 0 .1 0 .1 0 0 0 .1.1.2.1.2s.1 0 .1-.1 0-.1-.1-.1c0 .1 0 .1-.1 0zM11.2 34.7c.1 0 .1 0 0 0 0-.1-.1-.1-.1-.1l.1.1zM11.9 32.6zM11.3 27.6s0-.1 0 0c0-.1 0-.1 0 0 0-.1 0-.1 0 0 0-.1 0-.1 0 0zM11.3 26.3c0-.1 0-.1 0 0h-.1c0 .1 0 0 .1 0 0 .1 0 0 0 0zM11.4 28.5s-.1 0-.1.1l.1-.1c0 .1 0 0 0 0zM11.3 29.8c-.1 0-.2 0-.2.1v.1h.1c0-.1 0-.1.1-.2zM11.1 29zM11.3 29c0 .1 0 .1 0 0 0 .1 0 .1 0 0 0 .1 0 0 0 0zM11.1 26.6c0 .1.1.1 0 0 .1.1.1.1 0 0 .1 0 .1 0 0 0 .1 0 0 0 0 0zM11.2 27.9h.1c0-.1 0-.1-.1 0 0-.1 0-.1 0 0zM11.2 32.6c-.1-.1-.1-.1 0 0-.1-.1-.1 0 0 0-.1 0-.1 0 0 0-.1 0-.1 0 0 0zM11.7 35.8s0 .1 0 0c.1.1.2 0 .2 0 0-.1 0-.1-.1-.1 0-.1-.1 0-.1.1zM12.2 26.8c-.1 0-.1 0 0 0-.1 0-.1 0 0 0zM11.9 34.9c-.1 0-.1 0 0 0-.1 0 0 .1 0 0 0 .1 0 0 0 0zM12 29.9c-.1 0-.1 0-.2-.1 0 .1.1.2.2.1 0 .1 0 .1 0 0zM11.6 30.9c0-.1 0-.1 0 0h-.1c0-.1 0 0 .1 0zM11.7 30.4c-.1 0-.2 0-.2.1v.1h.1c-.1-.1 0-.1.1-.2 0 .1 0 .1 0 0zM11.7 33.3c0-.1 0-.1 0 0l-.1-.1.1.1zM11.5 32.9h.1v-.1l-.1.1c0-.1 0-.1 0 0zM11.8 30.2c0 .1 0 .1 0 0 .1.1.1.1 0 0l.1.1-.1-.1c.1.1.1 0 0 0zM12.2 25.7c-.1 0 0 0 0 0zM12.8 18.7s-.1 0 0 0c-.1.1 0 .1 0 .1h.1c-.1 0 0 0-.1-.1.1 0 .1 0 0 0zM12.4 16.7s0 .1 0 0c.1.1.2 0 .2-.1-.1.1-.2.1-.2.1zM12.5 19.8s-.1 0 0 0c-.1 0-.1 0 0 0l.2.2.1.1h.1s0-.1-.1-.1c-.1-.1-.2-.1-.3-.2zM11.5 27.3c.1 0 .1-.1 0 0 .1-.1.1-.1 0 0 0-.1-.1 0-.1 0h.1zM12.2 19.3c.1.1.1 0 .1 0 0-.1 0 0-.1 0zM12.2 19.8s.1 0 0 0c.1 0 .1 0 0 0 .1 0 .1 0 0 0 .1 0 0 0 0 0zM12.2 20.6c.1 0 .1.1.2.1-.1-.1-.1-.1-.2-.1 0-.1 0-.1 0 0zM11.6 24.4s0-.1 0 0c-.1-.1-.1 0-.1 0h.1zM11.7 24.8c-.1-.1-.1-.1 0 0h-.1.1c-.1 0-.1 0 0 0zM11.6 26.8l-.1.1c.1 0 .1 0 .1-.1 0 .1.1 0 0 0zM11.5 23.5zM11.6 29.1c-.1 0-.1.1 0 0-.1.1 0 .1 0 .2 0 0 .1-.1 0-.2.1 0 0 0 0 0zM11.6 23c-.1 0-.1 0 0 0-.1.1 0 .2 0 .2.1 0 .2-.1.2-.1-.1-.1-.2-.1-.2-.1zM11.7 26c-.1-.1-.1 0-.1 0h.1c0 .1 0 0 0 0zM11.5 25.6s.1 0 0 0h.2v-.1h-.1c0 .1 0 .1-.1.1 0-.1 0-.1 0 0zM11.6 26.9zM11.8 27.9zM11.4 28.1s0 .1 0 0c.1.1.1.1 0 0 .2 0 .3 0 .3-.1-.1-.1-.2 0-.3.1zM11.4 26.9c.1 0 .1 0 0 0h0c.1 0 .1 0 0 0zM11.8 27.9v.1-.1zM11.5 20.6v-.1s-.1 0 0 .1c-.1 0 0 0 0 0zM11.4 19.2s0 .1 0 0c0 .1.2.2.2.1v-.1h-.1c0 .1 0 0-.1 0zM11.5 18.5c0-.1 0-.1 0 0 0-.1 0 0 0 0z"/></svg>