<?xml version="1.0" encoding="UTF-8"?>
<svg width="519px" height="92px" viewBox="0 0 519 92" version="1.1" xmlns="http://www.w3.org/2000/svg" xmlns:xlink="http://www.w3.org/1999/xlink">
    <title>Group 11</title>
    <defs>
        <polygon id="path-1" points="7.66110975e-05 0.24968 95.4988 0.24968 95.4988 42 7.66110975e-05 42"></polygon>
        <polygon id="path-3" points="0 0.0558455853 20.16356 0.0558455853 20.16356 21.8420248 0 21.8420248"></polygon>
        <polygon id="path-5" points="0 41.2424 141.9976 41.2424 141.9976 -5.68434189e-15 0 -5.68434189e-15"></polygon>
    </defs>
    <g id="Page-1" stroke="none" stroke-width="1" fill="none" fill-rule="evenodd">
        <g id="GALLERY_CARE_DESK" transform="translate(-824.000000, -714.000000)">
            <g id="Group-11" transform="translate(824.000000, 714.000000)">
                <path d="M260.16461,54.2544728 C274.593997,37.08735 279.127077,19.3374057 276.116994,10.6117946 C274.184204,5.00918769 270.208782,1.56866064 264.304794,0.392572766 C253.316407,-1.80919743 242.987069,5.77583822 239.058119,10.0853751 C238.268104,10.952296 235.733297,13.8684926 236.183226,15.1260502 C236.328977,15.5271316 236.660614,15.8028752 237.074633,15.8676331 C237.870984,16.0013269 238.403294,15.2701888 238.608191,15.0028012 C246.259082,5.00709872 258.274066,0.104295454 265.969317,3.85607844 C269.661686,5.65050026 272.118336,8.81528379 273.077338,13.0015717 C275.027027,21.5057524 268.715358,39.91581 257.646702,51.4719701 C251.066766,43.8179986 241.548567,29.7488124 236.709198,22.0426167 C236.022688,20.9542654 235.355189,19.8909817 234.706701,18.8694773 C232.898538,16.0180387 227.942991,8.89048657 220.991284,4.25089302 C214.28672,-0.221583246 207.774379,-0.835739258 202.170344,2.47109396 C198.156899,4.83998144 189.85752,13.1269097 199.453876,38.8567042 C203.26876,49.0884598 208.722819,59.5813362 215.661852,70.0303443 C218.074144,73.800928 229.877894,92 232.976695,92 C233.097098,92 233.198491,91.9749324 233.291434,91.9185303 L233.485769,91.7681248 L233.523791,91.5947406 C233.639969,91.0390756 232.843618,89.8232974 229.609627,85.2797963 C228.849185,84.2102457 228.035934,83.0696702 227.231133,81.914472 C220.080866,71.6430261 210.129637,55.2634434 204.941732,44.3590408 C207.256856,46.8261096 210.554217,49.1072605 214.001554,49.9115125 C217.007412,50.6113161 219.772464,50.1559215 222.22489,48.5557735 C229.888455,43.5526999 230.439776,31.7479528 223.559888,19.8408465 C222.746637,18.4349724 221.943949,17.4656921 220.91524,16.3522732 C219.916103,15.2743668 219.326761,15.5166868 219.121864,15.6691813 C218.623352,16.0431062 218.750092,16.920472 219.466175,18.0735812 C219.466175,18.0735812 220.363919,19.5671919 220.573041,19.9223162 C226.417883,29.9514421 226.434781,40.0766604 220.615287,44.5470477 C218.192435,46.4083164 215.509764,47.049629 212.860891,46.4208502 C208.955176,45.4870824 205.349414,41.8752602 202.706878,36.2580305 C200.222767,30.9729465 198.224494,22.2306236 198.156899,16.3773408 C198.401931,11.140303 200.387529,7.38434206 204.058775,5.21599533 C207.208272,3.35472659 210.623924,2.89724303 214.212788,3.85607844 C220.429402,5.51471747 226.910057,11.4620037 231.544529,19.7572878 C234.379288,24.8376532 244.112946,39.5606858 251.233641,48.7166239 C252.729177,50.6384726 260.654672,59.5374679 263.20849,60.8806731 C264.121021,61.3590463 264.621645,60.9830324 264.841328,60.7156448 C265.479255,59.9322825 265.075798,59.4998665 261.208105,55.3699807 L260.16461,54.2544728 Z" id="Fill-49" fill="#2C4349"></path>
                <g id="Group-12" transform="translate(0.000000, 25.000000)">
                    <g id="Group-3" transform="translate(0.000000, 0.150400)">
                        <mask id="mask-2" fill="white">
                            <use xlink:href="#path-1"></use>
                        </mask>
                        <g id="Clip-2"></g>
                        <path d="M48.0636,38.34008 L88.6644,38.34008 C89.586,38.34008 90.508,38.32928 91.4296,38.3470244 C91.706,38.35208 91.7904,38.21648 91.8044,37.99448 C91.8192,37.75088 91.8092,37.50568 91.8092,37.26128 C91.8068,30.30888 91.8044,23.35688 91.802,16.40488 C91.8012,13.28248 91.8032,10.16008 91.7984,7.03808 C91.7968,6.20968 91.7712,5.38128 91.7632,4.55288 C91.7572,3.97928 91.762,3.97888 91.184,3.96168 C91.1164,3.95968 91.0488,3.96128 90.9816,3.96128 L87.5088,3.96128 C77.056,3.96128 66.6032,3.95888 56.15,3.96328 C53.7248,3.96448 51.2992,3.99768 48.874,4.00128 C47.3476,4.00328 45.8212,3.97128 44.2948,3.96568 C42.1816,3.95848 40.0688,3.96168 37.9556,3.96168 C26.8276,3.96128 15.6996,3.96128 4.5716,3.96128 C3.682,3.96128 3.67197285,3.96128 3.67197285,4.85808 C3.6808,15.90968 3.6936,26.96128 3.7032,38.01288 C3.7032,38.24528 3.8224,38.33488 4.0304,38.33688 C4.4664,38.34128 4.9024,38.34008 5.3384,38.34008 L48.0636,38.34008 Z M47.6772,41.98048 C38.1684,41.98048 28.66,41.97848 19.1516,41.98128 C15.51,41.98208 11.8684,41.99888 8.2272,42.0000878 C5.6088,42.0000878 2.9904,41.98528 0.372,41.98328 C0.0756,41.98328 -0.0204,41.91808 0.0036,41.57528 C0.0556,40.83728 0.0264,40.09328 0.0264,39.35208 C0.0252,26.95048 0.024,14.54888 0.022,2.14728 C0.0216,1.62168 0.016,1.09608 0.0044,0.57048 C-0.0016,0.31488 0.1256,0.24848 0.3592,0.25048 C1.1684,0.25848 1.978,0.25288 2.7872,0.25288 C15.6564,0.25168 28.526,0.25048 41.3952,0.24968 C43.5756,0.24968 45.756,0.25368 47.9364,0.25368 C61.6108,0.25408 75.2852,0.25368 88.9596,0.25368 C90.9824,0.25368 93.0056,0.25208 95.0284,0.25368 C95.4976,0.25408 95.5064,0.28728 95.4844,0.75208 C95.4612,1.23328 95.4764,1.71688 95.4764,2.19968 C95.4764,15.08448 95.4764,27.96968 95.4764,40.85448 C95.4764,41.12248 95.4492,41.39528 95.492,41.65688 C95.5332,41.90928 95.388,41.94568 95.2204,41.97528 C95.1112,41.99488 94.9964,41.98008 94.8836,41.98008 C79.148,41.98048 63.4128,41.98048 47.6772,41.98048 L47.6772,41.98048 Z" id="Fill-1" fill="#2C4349" mask="url(#mask-2)"></path>
                    </g>
                    <path d="M27.76008,20.11216 C25.53368,24.95056 23.40928,29.83616 21.17128,34.66936 C21.12608,34.66576 21.08048,34.66216 21.03528,34.65856 C18.88408,29.82856 16.73288,24.99896 14.54688,20.09096 C14.45488,20.23696 14.35248,20.33096 14.33448,20.43896 C14.12008,21.72536 13.92728,23.01496 13.71048,24.30056 C13.49768,25.56376 13.26448,26.82336 13.03888,28.08456 C12.81728,29.32336 12.59328,30.56176 12.37168,31.80056 C12.27568,32.33816 12.17968,32.87576 12.09208,33.41456 C12.04888,33.68136 11.91728,33.78256 11.63728,33.77776 C10.70488,33.76216 9.77168,33.77336 8.83848,33.77096 C8.45968,33.77016 8.39608,33.67016 8.47128,33.29616 C8.69808,32.17096 8.90728,31.04256 9.13688,29.91816 C9.32448,29.00136 9.54328,28.09136 9.72608,27.17376 C9.92368,26.17936 10.08928,25.17856 10.28048,24.18256 C10.56208,22.71456 10.85248,21.24816 11.14288,19.78176 C11.33928,18.78816 11.54848,17.79736 11.74008,16.80336 C11.98448,15.53496 12.21048,14.26296 12.45568,12.99456 C12.65008,11.98776 12.86168,10.98496 13.06248,9.97936 C13.11928,9.69616 13.16408,9.41056 13.22888,9.04256 C13.34408,9.13536 13.47048,9.18696 13.51008,9.27656 C13.86528,10.08016 14.20128,10.89256 14.55088,11.69896 C14.97008,12.66496 15.39248,13.62976 15.82248,14.59136 C16.06288,15.12856 16.32928,15.65376 16.56888,16.19096 C16.84448,16.80776 17.09728,17.43496 17.37168,18.05256 C17.59768,18.56016 17.84368,19.05856 18.07528,19.56376 C18.35648,20.17856 18.63488,20.79496 18.90928,21.41296 C19.32368,22.34656 19.72688,23.28536 20.14768,24.21576 C20.49088,24.97336 20.85328,25.72216 21.20848,26.47456 C21.23168,26.52376 21.26608,26.56776 21.33368,26.67456 C24.02768,20.77216 26.70128,14.91496 29.41488,8.96936 C29.48528,9.14936 29.54848,9.25576 29.56848,9.36976 C29.79688,10.65416 30.01168,11.94096 30.24368,13.22456 C30.43408,14.27656 30.65408,15.32296 30.83808,16.37576 C31.01608,17.39536 31.15088,18.42296 31.33088,19.44216 C31.50728,20.43936 31.73128,21.42856 31.90848,22.42576 C32.08968,23.44496 32.23328,24.47096 32.40448,25.49216 C32.56528,26.44896 32.73808,27.40376 32.91008,28.35856 C33.11808,29.50976 33.33248,30.65976 33.54128,31.81056 C33.63408,32.32136 33.72048,32.83376 33.81048,33.34536 C33.85528,33.59696 33.78088,33.71376 33.49488,33.70976 C32.50608,33.69576 31.51688,33.69616 30.52768,33.71016 C30.27088,33.71376 30.20808,33.59536 30.17328,33.37896 C30.07328,32.75416 29.95088,32.13296 29.84888,31.50856 C29.72688,30.76096 29.62528,30.01016 29.49928,29.26336 C29.28408,27.98816 29.05448,26.71496 28.83528,25.44016 C28.61208,24.14336 28.39368,22.84536 28.17328,21.54816 C28.09248,21.07176 28.01048,20.59576 27.92928,20.11936 C27.87288,20.11696 27.81648,20.11456 27.76008,20.11216" id="Fill-4" fill="#2C4349"></path>
                    <path d="M63.03488,13.89068 C63.03128,13.91268 63.02728,13.93508 63.02368,13.95708 C62.79888,13.95708 62.57408,13.95308 62.34928,13.95788 C62.01928,13.96508 61.94648,14.05948 61.98648,14.37948 C62.00448,14.52348 61.99608,14.67068 61.99648,14.81628 C62.00048,15.92708 62.01128,17.03788 62.00408,18.14828 C61.99968,18.83108 61.96968,19.51348 61.94568,20.19588 C61.93608,20.47228 62.10168,20.54188 62.33008,20.53908 C62.61968,20.53548 62.91128,20.49908 63.19888,20.52108 C64.08928,20.58948 64.89888,20.35628 65.62448,19.86068 C66.26048,19.42628 66.65368,18.77348 66.77528,18.04188 C66.89208,17.33828 66.88608,16.61028 66.63968,15.89588 C66.34768,15.05028 65.82328,14.44988 64.97608,14.21348 C64.34808,14.03828 63.68328,13.99348 63.03488,13.89068 M63.73128,30.42628 C63.73328,30.43988 63.73528,30.45308 63.73768,30.46668 C64.41128,30.39988 65.08928,30.35948 65.75848,30.25988 C66.68488,30.12228 67.51368,29.74988 68.13488,29.02628 C68.75288,28.30668 68.83168,27.42948 68.74448,26.53268 C68.69488,26.02388 68.56728,25.53028 68.27048,25.09308 C67.52608,23.99668 66.40528,23.62348 65.17128,23.53428 C64.21168,23.46548 63.24528,23.48148 62.28248,23.47948 C62.04608,23.47908 61.93368,23.65708 61.94728,23.89428 C61.95288,23.99388 61.98608,24.09228 61.98608,24.19148 C61.98408,25.61548 61.97728,27.03988 61.97368,28.46428 C61.97208,28.99908 62.00848,29.53668 61.96208,30.06708 C61.93528,30.36948 62.05568,30.42308 62.28688,30.42508 C62.76808,30.42908 63.24968,30.42628 63.73128,30.42628 M67.99848,21.27628 C68.47568,21.49468 68.89808,21.65708 69.29088,21.87348 C70.43328,22.50188 71.21648,23.44308 71.74168,24.63868 C72.30088,25.91148 72.29168,27.23748 72.15968,28.56108 C72.10328,29.12828 71.81328,29.67908 71.59288,30.22228 C71.27088,31.01548 70.70168,31.61788 70.02648,32.12868 C69.24568,32.72028 68.37368,33.10668 67.43048,33.37228 C65.41688,33.93908 63.35968,33.68988 61.31848,33.74308 C60.51128,33.76388 59.70328,33.75068 58.89608,33.76668 C58.60248,33.77268 58.49288,33.68788 58.4932789,33.36588 C58.50368,25.93148 58.50248,18.49708 58.50328,11.06228 C58.50328,10.59308 58.50168,10.60988 58.9932789,10.61628 C60.19248,10.63148 61.39248,10.64948 62.59128,10.62828 C63.79928,10.60668 64.99128,10.72268 66.11768,11.14748 C67.81808,11.78788 69.12408,12.86428 69.79088,14.63508 C70.21528,15.76268 70.26528,16.90708 70.08488,18.05988 C69.95048,18.92028 69.54608,19.70028 69.00288,20.38708 C68.82728,20.60868 68.56848,20.76428 68.35048,20.95308 C68.23408,21.05348 68.12408,21.16068 67.99848,21.27628" id="Fill-6" fill="#2C4349"></path>
                    <path d="M47.92632,19.07684 C46.17672,21.37444 44.56472,23.69604 42.90352,26.06724 C43.09512,26.08884 43.17152,26.10524 43.24792,26.10524 C44.77272,26.10244 46.29712,26.09244 47.82192,26.09924 C48.11632,26.10084 48.15912,25.93564 48.15232,25.71844 C48.12672,24.89044 48.08232,24.06324 48.06632,23.23524 C48.04432,22.08204 48.04672,20.92844 48.02632,19.77524 C48.02192,19.54204 47.96112,19.30964 47.92632,19.07684 M51.48912,9.00164 L51.48912,9.56524 C51.48912,13.22684 51.48912,16.88804 51.48952,20.54964 C51.48952,22.25604 51.49112,23.96204 51.49192,25.66844 C51.49232,26.04084 51.54832,26.09004 51.91952,26.09164 C52.52552,26.09404 53.13152,26.11284 53.73712,26.10924 C53.96432,26.10764 54.0306224,26.20684 54.02952,26.41404 C54.02632,27.30084 54.03432,28.18764 54.02832,29.07444 C54.02672,29.30804 53.96952,29.44724 53.64792,29.42324 C53.02432,29.37644 52.39432,29.41084 51.76712,29.41164 C51.51712,29.41204 51.48992,29.57484 51.49032,29.77404 C51.49272,30.95324 51.49032,32.13244 51.48952,33.31164 L51.48952,33.68884 C51.28832,33.71284 51.10472,33.75204 50.92032,33.75324 C50.08952,33.7600996 49.25832,33.74884 48.42752,33.7600996 C48.21792,33.76284 48.17992,33.66684 48.17992,33.49684 C48.17872,32.76804 48.17312,32.03884 48.17232,31.31004 C48.17192,30.77244 48.17872,30.23484 48.17792,29.69724 C48.17712,29.45044 48.00112,29.41484 47.80872,29.41404 C46.93392,29.41004 46.05912,29.40604 45.18432,29.40524 C44.24232,29.40404 43.30032,29.40284 42.35832,29.40884 C41.16992,29.41644 39.98192,29.43604 38.79312,29.44164 C38.19272,29.44444 37.59152,29.43204 36.99072,29.41444 C36.90312,29.41204 36.79232,29.36364 36.74032,29.29804 C36.70872,29.25844 36.74712,29.12924 36.79152,29.06764 C37.27112,28.40244 37.75992,27.74404 38.24272,27.08124 C38.85952,26.23404 39.47472,25.38604 40.08672,24.53564 C40.86672,23.45204 41.63912,22.36284 42.42192,21.28124 C43.18592,20.22444 43.95592,19.17164 44.72912,18.12124 C45.25592,17.40564 45.80032,16.70284 46.32272,15.98404 C46.94192,15.13124 47.54072,14.26324 48.15792,13.40884 C48.94072,12.32524 49.73272,11.24804 50.52152,10.16844 C50.81512,9.76684 51.11112,9.36684 51.40592,8.96604 C51.43392,8.97764 51.46152,8.98964 51.48912,9.00164" id="Fill-8" fill="#2C4349"></path>
                    <path d="M80.2886,20.528 C80.2886,23.6736 80.2934,26.8196 80.2814,29.9652 C80.2802,30.2976 80.3626,30.4164 80.7082,30.414 C82.6634,30.4004 84.619,30.4068 86.5742,30.4068 C87.033,30.4068 87.0322,30.4076 87.0334,30.8676 C87.035,31.6876 87.0258,32.508 87.0454,33.3276 C87.0526,33.6288 86.9678,33.736 86.6538,33.7356 C83.9898,33.7304 81.3262,33.7384 78.6626,33.7456 C78.1458,33.7472 77.629,33.76 77.1126,33.7704 C76.7414,33.778 76.657,33.6928 76.6585778,33.3232 C76.6742,28.8976 76.6942,24.472 76.7018,20.0468 C76.707,16.9912 76.697,13.9356 76.6866,10.88 C76.6858,10.652 76.8122,10.608 76.9802,10.6076 C77.9882,10.6052 78.9962,10.612 80.0038,10.6096 C80.227,10.6092 80.293,10.7152 80.291,10.9224 C80.2846,11.63 80.2886,12.338 80.2886,13.0456 L80.2886,20.528 Z" id="Fill-10" fill="#2C4349"></path>
                </g>
                <g id="Group-33" transform="translate(377.000000, 25.000000)">
                    <path d="M83.96168,17.20788 C85.54328,17.20788 87.10968,17.31148 88.65568,17.18148 C90.53168,17.02348 91.87768,15.94508 92.74728,14.29148 C93.40808,13.03428 93.56808,11.67868 93.47768,10.28148 C93.30208,7.55948 91.53448,5.35268 88.98048,4.79988 C88.16368,4.62308 87.29648,4.66068 86.45168,4.63508 C85.62528,4.61028 84.79768,4.62988 83.96168,4.62988 L83.96168,17.20788 Z M78.49368,21.59908 L78.49368,0.29028 C78.65328,0.27948 78.79768,0.26108 78.94168,0.26108 C81.95568,0.25948 84.97008,0.22588 87.98328,0.26988 C90.67768,0.30908 93.18768,1.00388 95.31728,2.72908 C98.07288,4.96268 99.17848,7.95108 99.04568,11.40508 C98.89848,15.23548 97.20528,18.20708 93.81128,20.11748 C92.00568,21.13348 90.03448,21.59348 87.97648,21.61708 C84.94648,21.65268 81.91608,21.62668 78.88568,21.62548 C78.77048,21.62548 78.65608,21.61028 78.49368,21.59908 L78.49368,21.59908 Z" id="Fill-1" fill="#2C4349"></path>
                    <path d="M32.0648,17.30712 C33.6864,17.30112 34.8836,16.91352 35.874,16.10712 C37.8728,14.47992 38.5944,12.33792 38.2076,9.84512 C37.8436,7.50152 36.5648,5.78192 34.2856,4.98552 C32.0436,4.20272 30.0096,4.72552 28.2832,6.32632 C26.094,8.35632 25.7152,11.94072 27.3996,14.50952 C28.5748,16.30232 30.2504,17.24072 32.0648,17.30712 M31.948,0.07032 C35.9468,0.14032 39.078,1.28512 41.4644,4.06592 C45.8972,9.23152 44.4732,18.46352 36.5868,21.14672 C32.0684,22.68392 27.7936,22.03592 24.14,18.79232 C22.004,16.89632 20.9692,14.41592 20.7852,11.57672 C20.4296,6.10272 24.1504,1.38712 29.6728,0.35152 C30.5512,0.18672 31.4508,0.12992 31.948,0.07032" id="Fill-3" fill="#2C4349"></path>
                    <path d="M132.85308,10.295 C133.81508,10.295 134.65108,10.0178 135.20988,9.5126 C136.07788,8.7282 136.37788,7.3902 135.94868,6.2178 C135.53668,5.0918 134.53148,4.3954 133.20268,4.3514 C131.87828,4.3078 130.69588,4.6162 130.07428,5.9274 C129.01148,8.1678 130.37828,10.2954 132.85308,10.295 M125.12628,20.065 C125.83188,18.783 126.51148,17.5486 127.21108,16.277 C128.19548,16.9302 129.24148,17.405 130.39548,17.5206 C131.21628,17.6034 132.06868,17.6594 132.87588,17.5306 C135.05868,17.1826 136.38588,15.6606 136.64148,13.3698 C136.68468,12.9802 136.70588,12.5882 136.73788,12.1862 C136.66228,12.1978 136.61708,12.191 136.60228,12.209 C135.50628,13.5378 134.04748,14.1278 132.37268,14.2562 C130.76348,14.3794 129.20908,14.1702 127.80108,13.3302 C125.63548,12.0378 124.76668,10.0158 124.71268,7.5974 C124.61748,3.3066 127.42068,0.3146 131.71668,0.0346 C133.61188,-0.089 135.44628,0.0966 137.14748,0.9858 C139.58468,2.2594 140.94948,4.363 141.54108,6.971 C142.30748,10.3478 142.18468,13.683 140.58908,16.8262 C139.06388,19.8302 136.53908,21.4642 133.18988,21.7814 C130.51068,22.0354 127.96108,21.5198 125.55508,20.3126 C125.42388,20.2466 125.29988,20.1658 125.12628,20.065" id="Fill-5" fill="#2C4349"></path>
                    <g id="Group-9" transform="translate(0.000000, 0.042400)">
                        <mask id="mask-4" fill="white">
                            <use xlink:href="#path-3"></use>
                        </mask>
                        <g id="Clip-8"></g>
                        <path d="M16.96676,14.61256 C17.97196,15.67256 19.02036,16.77896 20.16356,17.98496 C19.31676,18.62736 18.55036,19.28976 17.70796,19.83416 C13.55756,22.51656 8.39996,22.51536 4.55316,19.80616 C1.62436,17.74376 0.13476,14.85736 0.00756,11.30456 C-0.19684,5.59056 3.75956,0.96616 9.44596,0.19136 C13.39836,-0.34744 16.84836,0.72096 19.80516,3.38736 C19.86676,3.44296 19.92556,3.50176 19.98156,3.56256 C20.00316,3.58616 20.01316,3.61976 20.04516,3.68056 C19.01436,4.89856 17.97516,6.12656 16.98156,7.30056 C16.21676,6.70496 15.52676,6.04816 14.72916,5.57056 C12.59836,4.29496 10.39076,4.18936 8.28036,5.58336 C6.18436,6.96816 5.38276,9.03336 5.62676,11.48296 C5.92716,14.49256 7.83916,16.54016 10.71196,16.99456 C12.18916,17.22816 13.56036,16.83336 14.82436,16.10176 C15.55276,15.68016 16.21276,15.14256 16.96676,14.61256" id="Fill-7" fill="#2C4349" mask="url(#mask-4)"></path>
                    </g>
                    <path d="M66.641,0.28484 C66.5706,0.49204 66.5214,0.66164 66.4574,0.82524 C63.8038,7.56764 61.145,14.30804 58.5038,21.05524 C58.3334,21.49004 58.1258,21.65004 57.6474,21.63964 C56.0998,21.60524 54.551,21.61884 53.0026,21.63324 C52.7042,21.63604 52.5686,21.53804 52.4606,21.25924 C49.7898,14.38084 47.1086,7.50684 44.4306,0.63124 C44.3902,0.52724 44.3658,0.41684 44.3198,0.26004 L48.7446,0.26004 C50.1354,0.26004 50.1342,0.26044 50.5938,1.58164 C52.205,6.21684 53.8174,10.85164 55.4306,15.48604 C55.463,15.57964 55.5046,15.67004 55.5794,15.85204 C55.6674,15.65284 55.7378,15.52004 55.787,15.37964 C57.4898,10.49564 59.1958,5.61284 60.881,0.72244 C61.0078,0.35404 61.171,0.24604 61.5474,0.251062593 C63.079,0.27244 64.6106,0.25924 66.1422,0.26084 C66.2874,0.26084 66.4326,0.27444 66.641,0.28484" id="Fill-10" fill="#2C4349"></path>
                    <path d="M124.61208,41.09792 C123.53888,41.09792 122.52368,41.11632 121.51008,41.08112 C121.32848,41.07472 121.10848,40.88192 120.98408,40.71712 C118.92208,37.98392 116.87328,35.24112 114.82088,32.50112 C114.71368,32.35752 114.60128,32.21792 114.40128,31.96072 L114.40128,41.06352 L110.84768,41.06352 L110.84768,26.16312 C111.92528,26.16312 112.98608,26.15152 114.04568,26.17792 C114.18088,26.18112 114.33808,26.36432 114.43928,26.49912 C116.46808,29.19512 118.48928,31.89632 120.51248,34.59632 C120.66048,34.79392 120.81048,34.98992 121.02928,35.27872 L121.02928,26.20192 L124.61208,26.20192 L124.61208,41.09792 Z" id="Fill-12" fill="#2C4349"></path>
                    <path d="M131.44488,29.21452 L131.44488,38.01372 C132.50048,38.01372 133.51608,38.05732 134.52608,38.00092 C135.43288,37.95012 136.22328,37.56332 136.86288,36.89852 C137.92768,35.79132 138.17288,34.43372 138.03888,32.97732 C137.84648,30.88572 136.32168,29.36572 134.24288,29.22492 C133.33248,29.16332 132.41448,29.21452 131.44488,29.21452 M127.59208,41.05692 L127.59208,26.19572 C127.73648,26.18332 127.86368,26.16332 127.99088,26.16332 C130.13808,26.16132 132.28568,26.15212 134.43288,26.16452 C137.55928,26.18212 140.31448,27.90572 141.38168,30.57772 C143.10648,34.89572 141.15168,40.44812 134.95728,40.99012 C132.59408,41.19732 130.20168,41.07092 127.82248,41.09492 C127.75968,41.09532 127.69608,41.07452 127.59208,41.05692" id="Fill-14" fill="#2C4349"></path>
                    <path d="M4.82264,33.8866 C5.75904,33.8866 6.63704,33.8918 7.51504,33.8838 C7.79664,33.881 8.08104,33.8646 8.35864,33.8198 C9.52264,33.633 10.22424,32.8042 10.24184,31.6138 C10.26224,30.2658 9.69144,29.395 8.46384,29.2678 C7.27064,29.1438 6.05464,29.2406 4.82264,29.2406 L4.82264,33.8866 Z M0.99664,26.2618 C3.76904,26.2618 6.50264,26.145 9.22024,26.301 C11.17904,26.4134 12.80024,27.3618 13.53584,29.335 C14.31464,31.4254 13.93744,34.7354 11.33744,36.077 C11.29664,36.0982 11.27064,36.1478 11.21824,36.2058 C12.23744,37.8066 13.25824,39.4094 14.33184,41.0958 C12.86664,41.0958 11.50864,41.105 10.15104,41.0802 C10.02824,41.0782 9.87224,40.877 9.79504,40.7338 C9.22664,39.6834 8.63744,38.6414 8.13184,37.561 C7.87304,37.0074 7.54744,36.8162 6.95024,36.8654 C6.26024,36.9222 5.56184,36.8786 4.80384,36.8786 L4.80384,41.0686 L0.99664,41.0686 L0.99664,26.2618 Z" id="Fill-16" fill="#2C4349"></path>
                    <polygon id="Fill-18" fill="#2C4349" points="115.3652 4.63092 111.4608 4.63092 111.4608 0.27692 120.7668 0.27692 120.7668 21.59012 115.3652 21.59012"></polygon>
                    <polygon id="Fill-20" fill="#2C4349" points="49.56128 26.1778 61.22328 26.1778 61.22328 29.1534 53.39368 29.1534 53.39368 32.075 60.45208 32.075 60.45208 35.065 53.40288 35.065 53.40288 38.0658 61.46728 38.0658 61.46728 41.0602 49.56128 41.0602"></polygon>
                    <polygon id="Fill-22" fill="#2C4349" points="28.10388 26.19344 28.10388 29.14224 20.26988 29.14224 20.26988 32.09264 27.32348 32.09264 27.32348 35.08384 20.25988 35.08384 20.25988 38.06104 28.33868 38.06104 28.33868 41.07384 16.45308 41.07384 16.45308 26.19344"></polygon>
                    <path d="M94.37964,26.18328 L98.19364,26.18328 L98.19364,26.70808 C98.19364,29.33328 98.18844,31.95848 98.19884,34.58328 C98.20084,34.97888 98.23164,35.38448 98.32284,35.76808 C98.69844,37.34168 100.04884,38.21288 101.76764,38.02088 C103.23244,37.85728 104.27004,36.65688 104.28244,35.03288 C104.30324,32.29168 104.28804,29.55008 104.28844,26.80888 L104.28844,26.19208 L108.08654,26.19208 L108.08654,26.76008 C108.08654,29.48448 108.08684,32.20928 108.08604,34.93408 C108.08524,38.46968 105.73804,40.97288 102.19044,41.20888 C100.76644,41.30368 99.35924,41.22128 98.02644,40.64168 C95.69404,39.62648 94.49764,37.78288 94.41244,35.30768 C94.31484,32.47008 94.38364,29.62648 94.37964,26.78568 C94.37924,26.60368 94.37964,26.42168 94.37964,26.18328" id="Fill-24" fill="#2C4349"></path>
                    <mask id="mask-6" fill="white">
                        <use xlink:href="#path-5"></use>
                    </mask>
                    <g id="Clip-27"></g>
                    <polygon id="Fill-26" fill="#2C4349" mask="url(#mask-6)" points="68.7916 21.5988 74.168 21.5988 74.168 0.2764 68.7916 0.2764"></polygon>
                    <polygon id="Fill-28" fill="#2C4349" mask="url(#mask-6)" points="92.84136 26.19772 92.84136 29.13252 85.61096 29.13252 85.61096 32.58212 92.25536 32.58212 92.25536 35.56972 85.58056 35.56972 85.58056 41.06332 81.77296 41.06332 81.77296 26.19772"></polygon>
                    <polygon id="Fill-29" fill="#2C4349" mask="url(#mask-6)" points="63.92808 26.17936 74.97608 26.17936 74.97608 29.13896 67.75408 29.13896 67.75408 32.59016 74.41568 32.59016 74.41568 35.57496 67.72448 35.57496 67.72448 41.06776 63.92808 41.06776"></polygon>
                    <polygon id="Fill-30" fill="#2C4349" mask="url(#mask-6)" points="34.61324 37.8784 40.92924 37.8784 40.92924 41.0756 30.84484 41.0756 30.84484 26.1972 34.61324 26.1972"></polygon>
                    <polygon id="Fill-31" fill="#2C4349" mask="url(#mask-6)" points="42.7648 41.0704 46.528 41.0704 46.528 26.178 42.7648 26.178"></polygon>
                    <polygon id="Fill-32" fill="#2C4349" mask="url(#mask-6)" points="101.4812 13.9188 109.5128 13.9188 109.5128 10.638 101.4812 10.638"></polygon>
                </g>
                <g id="Group-10" transform="translate(136.000000, 36.000000)" stroke="#F5DDCB" stroke-width="4">
                    <line x1="0" y1="0" x2="19.6391984" y2="19.6391984" id="Path-3"></line>
                    <line x1="3.46474172e-12" y1="0" x2="19.6391984" y2="19.6391984" id="Path-3" transform="translate(9.819599, 9.819599) scale(-1, 1) translate(-9.819599, -9.819599) "></line>
                </g>
                <g id="Group-10-Copy" transform="translate(316.000000, 36.000000)" stroke="#F5DDCB" stroke-width="4">
                    <line x1="0" y1="0" x2="19.6391984" y2="19.6391984" id="Path-3"></line>
                    <line x1="3.46474172e-12" y1="0" x2="19.6391984" y2="19.6391984" id="Path-3" transform="translate(9.819599, 9.819599) scale(-1, 1) translate(-9.819599, -9.819599) "></line>
                </g>
            </g>
        </g>
    </g>
</svg>