<svg xmlns="http://www.w3.org/2000/svg" width="21.292" height="33.178" viewBox="0 0 21.292 33.178">
  <g id="Group_11566" data-name="Group 11566" transform="translate(-899.369 -218.883)">
    <text id="ManiMe_is_a_communit" data-name="ManiMe is a communit" transform="translate(906 243)" fill="#213439" font-size="14" font-family="SegoeUI, Segoe UI"><tspan x="0" y="0">$</tspan></text>
    <path id="Path" d="M18.538,14.725c-.992-2.077-2.134-4.241-3.394-6.435C14.405,7,13.615,5.791,12.775,4.5l-.08-.125c-.329-.5-.664-1.019-1-1.552L9.9,0,7.512,3.739c-.338.529-.658,1.027-.971,1.538a61.868,61.868,0,0,0-5.4,10.278A14.585,14.585,0,0,0,0,20.419c-.109,5.846,4.2,10.795,9.6,11.033.137.006.272.009.408.009h.1c5.2-.052,9.484-4.387,9.954-10.083a12.581,12.581,0,0,0-1.524-6.653" transform="translate(899.969 220)" fill="none" stroke="#213439" stroke-width="1.2"/>
  </g>
</svg>
