<svg id="Component_12_1" data-name="Component 12 – 1" xmlns="http://www.w3.org/2000/svg" width="152" height="152" viewBox="0 0 152 152">
  <g id="Ellipse_27" data-name="Ellipse 27" fill="#FBF9F7" stroke="silver" stroke-width="1">
    <circle cx="76" cy="76" r="76" stroke="none"/>
    <circle cx="76" cy="76" r="75.5" fill="none"/>
  </g>
  <g id="deliver-icon" transform="translate(17 16)">
    <path id="Stroke_4" d="M65.7,69.9h.6l.5-.2.5-.2.5-.3.4-.4.2-.5.2-.5.2-.5v-.5l.1-.5v-.5l.1-.5-.1-.5v-.5l.2-.5v-.6l-.1-.6V62l-.1-.6-.4-.5-.4-.4-.4-.3-.5-.3-.5-.3h-.6l-.5-.1-.5.1-.7.4-.4.3-.4.3-.3.5-.1.5-.2.5-.2.5v1.2l-.1.5v.6l-.1.5.1.6v1l.1.5V68l.2.5.2.5.4.3.4.3.5.2.5.2Z" fill="none" stroke="#2c4349" stroke-miterlimit="7.681" stroke-width="0.484"/>
    <path id="Stroke_5" d="M56.2,70h.5l.5-.2.5-.1.5-.3.4-.4.3-.4.3-.4.3-.4.3-.5.1-.5v-.5l.1-.5v-1l-.1-.5.1-.5-.1-.5.1-.5V61.3l-.2-.5-.2-.5-.2-.7-.4-.4-.4-.4-.5-.3-.5-.2-.8-.3h-1l-.5.2-.4.2-.5.2-.3.4-.5.4-.2.5-.2.5V61l-.1.5-.1.6.1.6-.1.6v1.8l-.1.4-.1.6v1.1l-.1.5.3.5.2.5.4.4.3.4.5.2.5.3.5.1Z" fill="none" stroke="#2c4349" stroke-miterlimit="7.681" stroke-width="0.484"/>
    <path id="Stroke_6" d="M75.2,69.9h.5l.5-.1.5-.2.5-.2.4-.4.4-.4.4-.4.2-.5.2-.5.1-.5.1-.5v-.6l.1-.6.1-.6-.1-.5-.1-.6.1-.6-.3-.7V61l.1-.5-.2-.5-.2-.5-.2-.5-.2-.3-.3-.4-.3-.4-.5-.2-.5-.3-.5-.1h-.5l-.5-.1-.5.1-.5.1-.5.4-.5.4-.4.3-.2.5-.2.5L72,60l-.2.5-.1.5v.5l-.1.5.1.5-.1.5-.1.5-.1.5.1.5-.1.5-.1.5-.1.5.1.5.1.5.2.5.1.5.3.4.4.3.4.3.5.2.5.1.5.2Z" fill="none" stroke="#2c4349" stroke-miterlimit="7.681" stroke-width="0.484"/>
    <path id="Stroke_7" d="M46.2,69.9h.6l.5-.1.5-.2.5-.3.3-.4.4-.4.3-.5.2-.5.1-.5.1-.6V64.6l-.1-.6v-.6l.1-.6v-.5l-.1-.5-.1-.5v-.5l-.5-.5-.2-.4-.5-.3-.4-.4-.5-.3-.5-.1-.5-.1h-.6l-.6.1-.4.3-.4.4L44,60l-.4.4-.2.5-.2.5V62l-.1.5V63l-.1.5v1l-.1.5v.7l.1.5v.5l-.1.6.2.5.2.5.2.5.4.4.5.3.5.4.6.1Z" fill="none" stroke="#2c4349" stroke-miterlimit="7.681" stroke-width="0.484"/>
    <path id="Stroke_8" d="M35.7,69.6h1.2l.4-.4.5-.3.3-.5.3-.5.1-.5.2-.5-.1-.5v-.5l.1-.5-.1-.7-.1-.5.1-.5v-.6l-.1-.5-.5-.5-.3-.6-.4-.4-.4-.4-.6-.1h-.6l-.5-.1-.5.2-.4.3-.5.3-.2.4-.2.5-.3.5v2.2l-.1.6v1.2l-.1.6v.5l.2.5.2.5.3.4.4.4.5.2.5.1Z" fill="none" stroke="#2c4349" stroke-miterlimit="7.681" stroke-width="0.484"/>
    <path id="Stroke_9" d="M65.7,54.9l-.5-.1-.5-.2-.5-.1-.3-.4-.4-.3-.5-.4-.1-.4-.1-.5V51l.1-.5V50l.1-.5V49l.1-.5V48l.1-.5.1-.5.1-.5.3-.4.3-.4.3-.4.5-.2.5-.2.5-.1.5-.2.5.1.5.3.4.3.4.3.3.4.2.5.2.5.1.5v1.1l.1.6-.1.6-.1.6.1.6-.2.6v.6l.1.6-.1.5-.1.5-.2.5-.5.3h-.3l-.5.2-.5.1-.4.1Z" fill="none" stroke="#2c4349" stroke-miterlimit="7.681" stroke-width="0.484"/>
    <path id="Stroke_10" d="M56.4,54.6l-.5-.1-.5-.1-.5-.2-.5-.2-.4-.4-.2-.5-.2-.4-.2-.5v-.5l-.1-.5v-1l.1-.5V48.2l.1-.5v-1l.1-.5.2-.5.1-.5.2-.5.3-.5.5-.3.3-.4.5-.1.5-.3.5-.1h.5l.5.1.5.2.4.3.4.3.3.4.4.4.2.5.1.5.2.5-.1.5v.6l.1.6-.1.6-.3.5.2.6v.6l-.2.2V51l.1.6-.2.5-.1.5-.1.4-.3.5-.3.4-.4.3-.5.2-.5.2H56.4Z" fill="none" stroke="#2c4349" stroke-miterlimit="7.681" stroke-width="0.484"/>
    <path id="Stroke_11" d="M36.2,54.7h-.6l-.5-.1-.5-.3L34,54l-.3-.4-.3-.5-.4-.3-.1-.6-.1-.5-.2-.5.1-.6.1-.5-.1-.6.1-.6V47.7l.2-.5-.1-.6v-.5l.1-.5.1-.5.1-.5.3-.4.3-.5.4-.4.3-.4.5-.2.5-.2.5-.2.5-.1.5.1.5.1.5.1.5.1.4.3.1.1.2.5.2.5.2.5.2.5.1.5V46l-.1.5V48l.1.5v1l-.1.5-.1.5.1.5-.2.5V52l-.2.9-.2.5-.2.4-.4.4-.5.2-.5.2-.5.1h-.9Z" fill="none" stroke="#2c4349" stroke-miterlimit="7.681" stroke-width="0.484"/>
    <path id="Stroke_12" d="M46.1,54.8l-.5-.2-.5-.1-.4-.3-.5-.2-.4-.4-.4-.4-.2-.5-.1-.5-.1-.5V49.9l.1-.6v-.6l.2-.5V47.1l.1-.5V46l.2-.5.4-.4.3-.4.4-.4L45,44l.5-.2.5-.2h.6l.6.1.5.3.5.3.5.3.2.5.3.5.2.5v1.2l-.1.4v1.5l.1.5-.1.6v1l-.1.5v.6l-.2.5v.4l-.3.5-.4.4-.6.1-.5.2h-.6Z" fill="none" stroke="#2c4349" stroke-miterlimit="7.681" stroke-width="0.484"/>
    <path id="Stroke_13" d="M75.2,54.7h-.6l-.5-.3-.6-.2-.3-.5-.3-.5-.1-.5-.2-.5.2-.5-.1-.7.2-.5v-1L73,49l-.2-.7.2-.5.1-.5.3-.5.3-.5.5-.3.5-.3.5-.1h.5l.5.1.5.1.3.2.2.5.3.4.2.5.1.5.1.5V49l-.1.6.1.6-.1.6.1.6V52l-.1.6-.1.5-.1.2-.2.5-.4.4-.4.3-.5.1h-.5Z" fill="none" stroke="#2c4349" stroke-miterlimit="7.681" stroke-width="0.484"/>
    <path id="Stroke_14" d="M46.3,85.5h.5l.5-.1.5-.2.4-.4.4-.3.3-.5.4-.4.1-.5.1-.5.1-.5v-1l.2-.5V79l.1-.5-.1-.5.1-.5-.1-.5-.8-.7-.2-.5-.4-.4-.5-.2-.5-.2-.4-.2-.5-.1-.5.1h-.6l-.5.2-.4.4-.4.4-.4.4-.2.5-.1.6-.1.5v1l-.2.5.1.5-.2.6.1.5v.5l.1.6-.1.5.1.5v.5l.2.5.3.4.4.4.4.3.5.2.5.1Z" fill="none" stroke="#2c4349" stroke-miterlimit="7.681" stroke-width="0.484"/>
    <path id="Stroke_15" d="M56.5,85.2l.5-.1h.5l.5-.2.5-.2.3-.4.4-.3.3-.4.3-.4.2-.5v-.5l.1-.5v-1l.1-.5v-.5l-.2-.6.1-.5-.1-.5.1-.5v-.5l.1-.8-.2-.5-.2-.5-.2-.5-.4-.4-.4-.4-.5-.4-.5-.1-.5-.3h-.5l-.5-.1-.5.2-.5.2-.5.2-.4.4-.4.6-.2.5-.2.5-.2.5-.1.6-.1.6.1.6-.2.5v2.4l-.1.6-.1.6.1.5.1.5v.5l.3.5.3.5.4.4.5.2.5.1.5.2Z" fill="none" stroke="#2c4349" stroke-miterlimit="7.681" stroke-width="0.484"/>
    <path id="Stroke_16" d="M35.6,85.4l.6.1.5-.2.5-.2.5-.1.4-.4.4-.4.4-.4.2-.5.1-.5.1-.5.1-.5v-.6l.1-.6V80l-.1-.6v-.6l.2-.5-.1-.6v-.5l.1-.5-.1-.5-.1-.5-.2-.5-.2-.5-.2-.5-.3-.4-.3-.4-.9-.4h-.5l-.5-.3h-.5l-.5.1h-.5l-.5.2-.4.3-.4.3-.4.3-.3.5-.2.5-.1.5-.1.6-.1.5V80l-.2.5V82l.2.5.2.5.2.5.3.4.3.4.4.3.5.2.5.2.5.1Z" fill="none" stroke="#2c4349" stroke-miterlimit="7.681" stroke-width="0.484"/>
    <path id="Stroke_17" d="M65.9,85.8l.5-.2.5-.1.6-.1.5-.3.4-.4.4-.4.1-.5.2-.5.2-.5.1-.6v-.6l.1-.6-.1-.6.1-.6V78.1l-.1-.2-.4-.6-.1-.5-.2-.5-.3-.6-.3-.5-.5-.2-.4-.1-.5-.3-.6.1H64.9l-.5.3-.4.4-.4.4-.4.4-.1.6-.2.5-.1.6v.5l-.1.5v.5l.1.5-.1.5v1l-.1.5v.5l.1.6.2.5.2.5.3.5.3.4.5.3.6.1.5.2Z" fill="none" stroke="#2c4349" stroke-miterlimit="7.681" stroke-width="0.484"/>
    <path id="Stroke_18" d="M75,85.5l.6-.1.6-.1.5-.3.4-.5.4-.4.2-.5.1-.6v-.5l.1-.5.1-.5v-1l-.1-.5.2-.5L78,79l-.4-1-.3-.5-.2-.5-.3-.5-.5-.2-.5-.2-.7-.1-.5.1-.5.1-.5.3-.3.5-.4.3-.1.5-.2.5v.5l-.1.6-.1.6v.6l-.2.5.1.6-.1.6.1.6-.1.5.2.5.2.5.2.5.4.3.5.3.5.2Z" fill="none" stroke="#2c4349" stroke-miterlimit="7.681" stroke-width="0.484"/>
    <path id="Stroke_31" d="M90.5,43l-.3.4-.4.3-.4.4-.3.4-.1.4-.4.2-.3.5-.3.5-.4.4V47l-.4.4-.3.4-.3.5-.3.5-.1.5-.3.4-.2.5-.3.5-.1.6-.2.6.1.5v1l.3.5.1.5.3.5.2.5.4.4.4.4.5.2.4.4.5.3.5.2h.8v.1H90" fill="none" stroke="#f7bfa0" stroke-miterlimit="7.681" stroke-width="0.484"/>
    <path id="Stroke_32" d="M90.6,57.8l-.7.8h0l-.2.5-.3.4-.3.3-.2.4-.4.4-.2.4-.3.4-.2.6-.3.4-.3.4-.4.5-.2.5-.4.4-.2.5-.3.5-.1.6-.2.5-.2.5v1l.2.5.1.5.2.5.3.4.3.6.3.4.4.4.4.4.5.2.5.3.5.1h.7l.3.1" fill="none" stroke="#f7bfa0" stroke-miterlimit="7.681" stroke-width="0.484"/>
    <path id="Stroke_32_3_" d="M90.3,73l-.4.4-.2.5-.3.4-.3.3-.3.3-.4.4-.3.4-.3.4-.2.5-.2.5-.3.5-.1.5-.2.5-.4.4-.2.5-.3.5-.1.6-.2.5-.2.5v1l.2.5.1.5.2.5.3.4.3.4.3.4.4.4.4.4.5.2.5.3.5.1h.7l.4.1" fill="none" stroke="#f7bfa0" stroke-miterlimit="7.681" stroke-width="0.484"/>
    <path id="Path_190" data-name="Path 190" d="M90.6,40.3l-.1-.5-.3-.5-.2-.5-.2-.5-.4-.4-.3-.4-.5-.4-.4-.3-.5-.2-.5-.2h-.6l-.5-.1h-.5l-.6.1h-.2l-.4-.1h-.2l-.3.1-.5-.1-.6.1h-.7l-.3-.1-.6-.1-.5.1h-.6l-.5.1h0l-.1-.1-.4.1-.6-.1h-.8l-.3-.1-.6.1-.4.1h-.7l-.5-.1h-.5l-.6-.1-.5.1h-.5l-.5.1H71.5l-.6-.1h-.5l-.5.1h-.6l-.5-.1H67.2l-.4.1H65.7l-.3-.1h-.9l-.6.1h-.5l-.5-.1-.6.1-.5-.1H60.2l-.5.1h-.4l-.3-.1-.2.1-.2-.1-.4.1-.3-.1-.4.1-.4-.1h-.3l-.5.1h-.6l-.5-.1H54.1l-.5.1h-.5l-.6.1-.5-.1-.5-.1h-.6l-.5.1-.5-.1-.6.1-.5-.1-.6.1h-.5l-.5-.1-.6.1-.5-.1-.5.1-.6-.1-.5.1h-.6l-.5-.1h-.5l-.6.2-.5-.1h-.5l-.6-.1-.5.1-.5-.1-.6.1H38l-.5-.1H37l-.6.1-.5-.1-.5.1h-.6l-.5-.1-.6.1h-1l-.6.1-.5-.2-.5.1h-.6l-.5.1h-.5l-.6.2-.5.3-.4.2-.3.4-.5.3-.3.4-.4.4-.2.5-.2.5-.1.6v.5l.1.6v.5l-.1.5v1.7l.1.5-.1.5.1.6-.2.5.1.6-.1.5.1.5.1.6-.1.5v.5l-.1.6v.5l.1.5-.1.6v.5l.1.5v.6h0l-.1.5v.6l.1.5-.1.5.1.6-.2.6v1l.2.5-.1.5-.1.7.1.4.1.5-.2.7.2.4-.1.6v.6l-.1.5.1.6-.1.5-.1.5.3.4V65h0l-.2.6.1.5-.1.5.1.6-.2.5.2.5.1.6-.1.5-.1.5v.6l-.1.5v.5l.2.6v.5l-.1.6v1.6h0v.5l-.1.5.2.4v.2l-.1.5.1.1-.1.4v.6l-.1.5.2.5-.1.6V80l-.1.5.1.6v.5l.1.5-.1.6.1.5-.2.5.1.6-.1.5v2.7l.1.5.3.5.3.4.2.5.3.4.4.4.4.4.4.3.5.2.5.3h1.7l.5-.1h.3l.4.1h.4l.5.1.6-.2h.7l.4.1.5.1h1.1l.5-.2h.1v.1l.5-.1.5.2.4-.1h.4l.3.1h.5l.6-.1.5-.1h.1l.5.1h.5l.5.1h1.1l.5-.1.5-.1h.6l.5.1.6.1.5-.1h3.7l.4-.1.3.1h2l.6.1.5-.2.5.1h2.5l.4.1.2-.2.1.1.5-.1.2.1.5-.1.4.1h2.9l.5-.1.6.1.5-.1h.5l.6.1h2.1l.6.1.5-.2h.5l.6.1.5-.1.5.2.6-.1h.5l.6-.1h.5l.5.1h.6l.5-.1.5.1.6-.1.5.1.5-.1.6.1h.5l.7.1.4-.2.6.1H82l.5-.1h1.6l.6.2.6-.2h.5l.4-.1h.6l.5-.1.5-.3.5-.2.4-.5.4-.3.3-.4.5-.4.1-.5.3-.5-.1-.6.1-.5v-.6l-.1-.5.2-.5-.1-.6V83.6l-.1-.5.1-.5V82l.1-.5-.2-.6.2-.5-.1-.5v-.6l.1-.5-.1-.5.1-.6-.1-.5v-.5l.1-.6v-.5l-.1-.5v-.6h0l.1-.5V72.4l-.1-.6.2-.5v-.5l-.1-.6-.1-.5.1-.5.1-.6-.1-.5v-.5l.1-.6-.1-.5V66l.1-.6v-.5l-.1-.5.1-.6v-.5l-.1-.5v-.1h0l.1-.5-.1-.5.1-.5-.1-.6.1-.5v-.5l-.1-.6.1-.5V57.4l.1-.5-.1-.5-.1-.6v-.5l.1-.5v-.6l.1-.5-.2-.5v-.1h0l.1-.5.1-.5-.1-.4v-.8l.1-.4V50l-.1-.6-.1-.5.2-.5V47.3l-.1-.6-.1-.5.1-.5V44.6l.1-.5-.1-.6v-1l.1-.5V40.3Z" fill="none" stroke="#f7bfa0" stroke-miterlimit="7.681" stroke-width="0.484"/>
    <g id="Group_11555" data-name="Group 11555">
      <g id="Group_11550" data-name="Group 11550">
        <g id="Group_11549" data-name="Group 11549">
          <path id="Path_191" data-name="Path 191" d="M99.1,28.2c.2,1.7,1,4.6,3.9,5.2-2,.6-3.1,2.4-3.5,5.4-.2-1.7-1-4.6-3.9-5.2,2.1-.5,3.2-2.4,3.5-5.4m0-1.6c-.1,0-.2,0-.2.1a.367.367,0,0,0-.1.3v.1c-.1,1-.1,6.1-4.4,6.2a.451.451,0,0,0-.3.3.319.319,0,0,0,.3.3c4.4-.1,4.7,5,4.8,6V40a.354.354,0,0,0,.4.4.349.349,0,0,0,.2-.1.367.367,0,0,0,.1-.3v-.1c.1-1,.1-6.1,4.4-6.2a.451.451,0,0,0,.3-.3.319.319,0,0,0-.3-.3c-4.4.1-4.7-5-4.8-6V27a.367.367,0,0,0-.1-.3c-.1,0-.2-.1-.3-.1Z" fill="#2c4349"/>
        </g>
      </g>
      <g id="Group_11552" data-name="Group 11552">
        <g id="Group_11551" data-name="Group 11551">
          <path id="Path_192" data-name="Path 192" d="M91.1,27.2a2.966,2.966,0,0,0,.7,1.5,1.612,1.612,0,0,0,.7.4,1.794,1.794,0,0,0-.7.5,2.965,2.965,0,0,0-.7,1.5,3.741,3.741,0,0,0-.7-1.6,1.612,1.612,0,0,0-.7-.4,1.794,1.794,0,0,0,.7-.5c.4-.2.6-.9.7-1.4m0-1.2h0a.319.319,0,0,0-.3.3,4.224,4.224,0,0,1-.6,2.1,1.656,1.656,0,0,1-1.2.5.3.3,0,1,0,0,.6,1.594,1.594,0,0,1,1.2.4,4.339,4.339,0,0,1,.8,2V32a.265.265,0,0,0,.3.3h.2c.1,0,.2-.2.2-.3a4.224,4.224,0,0,1,.6-2.1,1.656,1.656,0,0,1,1.2-.5.3.3,0,1,0,0-.6,1.594,1.594,0,0,1-1.2-.4,3.976,3.976,0,0,1-.8-2v-.1a.31.31,0,0,0-.1-.2.367.367,0,0,0-.3-.1Z" fill="#2c4349"/>
        </g>
      </g>
      <g id="Group_11554" data-name="Group 11554">
        <g id="Group_11553" data-name="Group 11553">
          <path id="Path_193" data-name="Path 193" d="M94.9,37.6a2.22,2.22,0,0,0,.5,1.1c.1.1.3.2.4.3-.2.1-.3.2-.5.3a2.22,2.22,0,0,0-.5,1.1,2.22,2.22,0,0,0-.5-1.1c-.1-.1-.3-.2-.4-.3.2-.1.3-.2.5-.3a1.606,1.606,0,0,0,.5-1.1m0-1.1h0a.319.319,0,0,0-.3.3,2.881,2.881,0,0,1-.5,1.6,1.222,1.222,0,0,1-.9.3.3.3,0,1,0,0,.6,1.222,1.222,0,0,1,.9.3,2.518,2.518,0,0,1,.5,1.6v.1a.319.319,0,0,0,.3.3.31.31,0,0,0,.2-.1c.1,0,.2-.2.2-.3a2.881,2.881,0,0,1,.5-1.6,1.222,1.222,0,0,1,.9-.3.3.3,0,1,0,0-.6,1.222,1.222,0,0,1-.9-.3,2.26,2.26,0,0,1-.5-1.5v-.1a.31.31,0,0,0-.1-.2.367.367,0,0,0-.3-.1Z" fill="#2c4349"/>
        </g>
      </g>
    </g>
    <g id="Group_11557" data-name="Group 11557">
      <g id="Group_11556" data-name="Group 11556">
        <path id="Path_194" data-name="Path 194" d="M16.5,60.2c.4,1.7,1.6,4.4,4.5,4.6a3.524,3.524,0,0,0-2,1.4,6.5,6.5,0,0,0-1.2,4.1c-.4-1.7-1.6-4.4-4.5-4.6a3.524,3.524,0,0,0,2-1.4,5.944,5.944,0,0,0,1.2-4.1m-.1-1.8c-.1,0-.2.1-.3.1a.367.367,0,0,0-.1.3v.1c.1,1,.6,6.1-3.7,6.6-.2,0-.3.2-.3.4s.2.3.4.3h.5c3.9-.1,4.6,4.6,4.8,5.5v.1c0,.1,0,.1.1.2a.367.367,0,0,0,.3.1c.1,0,.1-.1.2-.1a.367.367,0,0,0,.1-.3v-.1c-.1-1-.6-6.1,3.7-6.6.2,0,.3-.2.3-.4s-.2-.3-.4-.3h-.5c-3.9.1-4.6-4.6-4.8-5.5v-.1c0-.1,0-.1-.1-.2,0-.1-.1-.1-.2-.1Z" fill="#2c4349"/>
      </g>
    </g>
    <g id="Group_11559" data-name="Group 11559">
      <g id="Group_11558" data-name="Group 11558">
        <path id="Path_195" data-name="Path 195" d="M20.5,52.7a3.224,3.224,0,0,0,.8,1.4,2.044,2.044,0,0,0,.9.5,1.794,1.794,0,0,0-.7.5h0a2.794,2.794,0,0,0-.5,1.7,4.352,4.352,0,0,0-.8-1.5,2.044,2.044,0,0,0-.9-.5,1.794,1.794,0,0,0,.7-.5h0a2.353,2.353,0,0,0,.5-1.6m0-1.2c-.1,0-.2,0-.2.1a.4.4,0,0,0-.2.4,4.5,4.5,0,0,1-.3,2.1,1.975,1.975,0,0,1-1.1.6c-.2,0-.3.2-.3.4s.2.3.4.3h.4a1.135,1.135,0,0,1,.8.3c.6.5.8,1.6,1,1.9v.1c0,.2.2.3.4.3a.1.1,0,0,0,.1-.1.4.4,0,0,0,.2-.4,4.5,4.5,0,0,1,.3-2.1,1.975,1.975,0,0,1,1.1-.6c.2,0,.3-.2.3-.4s-.3-.4-.5-.4h-.4a1.135,1.135,0,0,1-.8-.3,5.012,5.012,0,0,1-1-1.9v-.1c0-.1,0-.1-.1-.2.1.1,0,0-.1,0Z" fill="#2c4349"/>
      </g>
    </g>
    <g id="Group_11561" data-name="Group 11561">
      <g id="Group_11560" data-name="Group 11560">
        <path id="Path_196" data-name="Path 196" d="M94.3,91.3a2.746,2.746,0,0,0,.5,1.9,1.853,1.853,0,0,0,.8.7,1.135,1.135,0,0,0-.8.3,2.536,2.536,0,0,0-1.1,1.7,2.875,2.875,0,0,0-.5-1.9,1.853,1.853,0,0,0-.8-.7,1.135,1.135,0,0,0,.8-.3,3.568,3.568,0,0,0,1.1-1.7m-.1-.9a.319.319,0,0,0-.3.3,3.507,3.507,0,0,1-1,1.9,1.884,1.884,0,0,1-.8.2h-.4c-.2,0-.4.1-.4.3s.1.4.3.4a1.442,1.442,0,0,1,1.1.7,2.97,2.97,0,0,1,.4,2.1v.1c0,.2.1.4.3.4h.2a.319.319,0,0,0,.3-.3,3.507,3.507,0,0,1,1-1.9,1.884,1.884,0,0,1,.8-.2h.4c.2,0,.4-.1.4-.3s-.1-.4-.3-.4a1.442,1.442,0,0,1-1.1-.7,3.521,3.521,0,0,1-.4-2.1v-.1c0-.1-.1-.2-.1-.3a.6.6,0,0,0-.4-.1Z" fill="#2c4349"/>
      </g>
    </g>
  </g>
</svg>
