<svg xmlns="http://www.w3.org/2000/svg" width="290" height="454" viewBox="0 0 290 454">
  <path id="Path" d="M267.516,212.489c-14.317-29.969-30.792-61.2-48.972-92.858-10.674-18.586-22.067-36.067-34.191-54.677l-1.16-1.8c-4.745-7.277-9.583-14.711-14.468-22.4L142.793,0,108.4,53.948c-4.884,7.629-9.5,14.82-14.015,22.194-30.746,50.134-57.836,95.895-77.92,148.313C8.6,244.985.493,269.39.029,294.657c-1.578,84.354,60.551,155.771,138.506,159.209,1.972.085,3.922.134,5.882.134.476,0,.951,0,1.439-.012,75.1-.753,136.858-63.3,143.646-145.494,3.1-37.476-8.736-68.295-21.986-96" fill="#f7bfa0"/>
</svg>
