<svg xmlns="http://www.w3.org/2000/svg" width="21" height="30" viewBox="0 0 21 30">
    <g fill="none" fill-rule="evenodd">
        <g>
            <g>
                <path fill="#F7BFA0" d="M14.96 7.855c-.75-1.222-1.546-2.372-2.392-3.59l-.081-.118c-.332-.48-.669-.967-1.014-1.474L9.5 0 6.373 5.064c-2.09 3.33-3.927 6.372-5.282 9.853-.527 1.36-1.072 2.979-1.09 4.648-.055 5.575 4.272 10.255 9.654 10.429.132.004.268.009.404.004h.096c5.181-.1 9.4-4.274 9.818-9.712.19-2.477-.65-4.502-1.578-6.327-1.009-1.97-2.163-4.028-3.436-6.104z" transform="translate(-138 -369) translate(138.5 369)"/>
                <path fill="#FFF" fill-rule="nonzero" d="M10.336 24.176v-.952c.401-.028.775-.112 1.12-.252.345-.14.646-.327.903-.56.257-.233.457-.511.602-.833.145-.322.217-.679.217-1.071 0-.457-.084-.847-.252-1.169-.168-.322-.387-.597-.658-.826-.27-.229-.574-.42-.91-.574-.336-.154-.677-.292-1.022-.413v-3.738c.336-.01.672.063 1.008.217.336.154.602.394.798.721l.784-.672c-.13-.15-.278-.296-.441-.441-.163-.145-.348-.273-.553-.385-.205-.112-.439-.2-.7-.266-.261-.065-.56-.098-.896-.098v-.952h-.672v.98c-.345.028-.679.11-1.001.245-.322.135-.609.32-.861.553-.252.233-.455.513-.609.84-.154.327-.231.69-.231 1.092 0 .43.082.798.245 1.106.163.308.373.57.63.784.257.215.546.394.868.539.322.145.642.264.959.357v3.906c-.15 0-.315-.026-.497-.077-.182-.051-.366-.128-.553-.231-.187-.103-.373-.229-.56-.378-.187-.15-.355-.322-.504-.518l-.84.602c.28.401.679.749 1.197 1.043.518.294 1.104.46 1.757.497v.924h.672zm-.672-6.846c-.233-.084-.453-.177-.658-.28-.205-.103-.385-.222-.539-.357-.154-.135-.275-.292-.364-.469-.089-.177-.133-.387-.133-.63s.042-.469.126-.679c.084-.21.2-.394.35-.553.15-.159.327-.287.532-.385.205-.098.434-.156.686-.175v3.528zm.672 4.97v-3.696c.532.168.973.408 1.323.721s.52.707.511 1.183c0 .345-.063.632-.189.861-.126.229-.28.413-.462.553-.182.14-.38.238-.595.294-.215.056-.41.084-.588.084z" transform="translate(-138 -369) translate(138.5 369)"/>
            </g>
        </g>
    </g>
</svg>
