<?xml version="1.0" encoding="UTF-8"?>
<svg width="80px" height="161px" viewBox="0 0 80 161" version="1.1" xmlns="http://www.w3.org/2000/svg" xmlns:xlink="http://www.w3.org/1999/xlink">
    <!-- Generator: Sketch 55.2 (78181) - https://sketchapp.com -->
    <title>GOOD_FIT</title>
    <desc>Created with Sketch.</desc>
    <g id="Page-1" stroke="none" stroke-width="1" fill="none" fill-rule="evenodd">
        <g id="PROFILE-DETAIL-Copy-4" transform="translate(-668.000000, -539.000000)">
            <g id="GOOD_FIT" transform="translate(669.000000, 540.000000)">
                <path d="M0.0288513554,160 C0.356183359,144.545822 0.674054901,129.087771 0.876508799,113.62972 C1.0524734,100.195177 0.963545055,86.7586973 1.04490503,73.3202815 C1.10166781,63.7875263 1.23411428,54.2508983 3.62382712,44.9388894 C5.93974835,35.9270181 10.1118123,28.8302178 16.4068041,23.9370079" id="Stroke-1" stroke="#FFFFFF" stroke-width="0.5" stroke-linejoin="round"></path>
                <path d="M61.7611348,26.4566929 C62.935079,27.652379 64.0307602,28.9963224 65.0405431,30.5077774 C70.1810823,38.1882793 72.8687464,46.7564 73.571204,55.9059977 C74.1667659,63.7174282 74.3194741,71.5635163 74.657341,79.394201 C75.5163245,99.2741665 76.3638549,119.156057 77.2266562,139.034097 C77.5301637,146.023373 77.8336712,153.012649 78.1390876,160" id="Stroke-3" stroke="#FFFFFF" stroke-width="0.5" stroke-linejoin="round"></path>
                <path d="M16.4178645,37.0064139 C16.4178645,33.8610489 16.4983248,30.7137531 16.5385549,27.5683881 C16.5845322,24.0967084 16.6190152,20.6230979 16.8067558,17.1591416 C16.9466034,14.5428313 17.3010117,11.9400369 17.6017798,9.33724261 C17.7243859,8.28878762 17.9561881,7.25384862 18.1458444,6.21504792 C18.4868427,4.36528755 19.5175003,3.18746518 21.1324528,2.4923569 C22.8872528,1.73739208 24.7052715,1.27591741 26.5539418,0.94574098 C32.2896091,-0.0814745902 38.0712537,-0.0930597282 43.8548139,0.0903716235 C45.7590401,0.15022817 47.6632664,0.333659522 49.557914,0.549915431 C52.0349406,0.833751312 54.5081358,1.18323631 56.8702192,2.11583992 C57.09819,2.20659017 57.3223293,2.31471812 57.5426371,2.42477693 C58.284021,2.78970878 58.7591197,3.34000283 58.8414956,4.27839901 C58.9947533,6.02389314 59.2188926,7.7635947 59.3951389,9.50908882 C59.6365197,11.8743878 59.874069,14.2435486 60.0847983,16.6127093 C60.2150673,18.0878835 60.3070218,19.5649886 60.4008922,21.0420937 C60.5407397,23.2741636 60.6767559,25.5043027 60.7936149,27.7344418 C60.8970638,29.6730215 60.9756083,31.6116013 61.0637315,33.550181 C61.2667978,38.0181826 61.5081786,42.4861842 61.663352,46.9561166 C61.7648852,49.8678479 61.7648852,52.7815101 61.759138,55.6951723 C61.7572223,57.3209534 61.6882563,58.9486653 61.5771446,60.5725154 C61.3970668,63.2699217 61.1499389,65.9576737 60.6135371,68.6126012 C60.2514659,70.4237444 59.8031873,72.1943397 59.1652524,73.9089401 C58.2112236,76.4731173 56.6058498,78.4464525 54.5234616,80.0355473 C51.3721013,82.4413943 47.9755288,84.2525375 44.1824022,85.0905292 C38.0904109,86.4401977 32.3604908,85.4535302 27.0558606,81.8756534 C25.2761563,80.6765916 23.5922379,79.3520241 22.1439532,77.6992111 C19.9351274,75.1755819 18.7186449,72.1171055 18.0692156,68.7709314 C17.4944995,65.7993435 17.1860685,62.7872076 17.0481366,59.7538323 C16.9121204,56.7494199 16.7492842,53.7411457 16.6726554,50.7328716 C16.5538807,46.1586729 16.5002405,41.5825434 16.4178645,37.0064139 C16.4561789,37.0064139 16.3795501,37.0064139 16.4178645,37.0064139 Z" id="Stroke-7" stroke="#FFFFFF" stroke-width="0.5" stroke-linejoin="round"></path>
                <path d="M18.9362197,39.9805178 C18.9362197,37.1085853 19.01074,34.234733 19.0489555,31.3647202 C19.0890818,28.1933081 19.1597805,20.0881616 19.3317503,16.9244284 C19.4597723,14.5362706 19.7846042,12.161551 20.0616667,9.78491166 C20.1724917,8.82504116 20.3864986,7.88244833 20.5622899,6.93409627 C20.8737464,5.24472419 21.8176697,4.17158897 23.2966101,3.5361547 C24.9054834,2.84504794 26.5716799,2.4265444 28.2684489,2.12322533 C33.5249932,1.18639172 38.8235745,1.17487327 44.1278882,1.34189074 C45.8724266,1.39564349 47.6169649,1.56458069 49.3519494,1.76231402 C51.6238618,2.02147905 53.8919527,2.3420758 56.0568618,3.19252106 C56.2651363,3.27506993 56.4695893,3.37489646 56.6721316,3.47280325 C57.350457,3.80683818 57.7861139,4.30981032 57.8625449,5.16601481 C58.0020316,6.75939984 58.2083953,8.34702565 58.3708113,9.94233042 C58.5905505,12.1039588 58.7586988,14.563147 58.9306686,17.9418912 C58.9975458,19.2914691 59.2688759,24.0428281 59.3548608,25.3904862 C59.4847936,27.4292512 59.5039014,29.4776148 59.6147264,31.5163798 C59.7083544,33.2844612 59.7790531,35.0563822 59.8612164,36.8244636 C60.0484725,40.9039133 60.2701225,44.9814431 60.4115199,49.0647323 C60.5032371,51.7216538 60.5051479,54.3824148 60.4994156,57.0431758 C60.4975048,58.5252159 60.4344492,60.0149349 60.3331781,61.4950552 C60.1669406,63.9580829 59.9395582,66.4134317 59.4503996,68.8361448 C59.1160139,70.4909616 58.7051971,72.1054637 58.1224104,73.6719724 C57.2472751,76.0140564 55.7721562,77.8128537 53.8652019,79.2641779 C50.9780196,81.4603616 47.8653658,83.1151784 44.385843,83.881155 C38.8044668,85.1136287 33.5498333,84.2113505 28.6888195,80.945871 C27.057017,79.8516187 25.5131101,78.6421818 24.1870317,77.1332654 C22.1596985,74.8257367 21.0457162,72.0344333 20.4514649,68.9801254 C19.9240908,66.2675314 19.641296,63.5165425 19.5151848,60.748276 C19.3890736,58.0049661 19.2419438,55.2578167 19.1693344,52.5106673 C19.0604201,48.3352307 19.01074,44.1578743 18.9362197,39.9805178 C18.9725244,39.9785981 18.9018257,39.9805178 18.9362197,39.9805178" id="Fill-9" fill="#FEFEFE"></path>
                <path d="M18.9362197,39.9805178 C18.9362197,37.1085853 19.01074,34.234733 19.0489555,31.3647202 C19.0890818,28.1933081 19.1597805,20.0881616 19.3317503,16.9244284 C19.4597723,14.5362706 19.7846042,12.161551 20.0616667,9.78491166 C20.1724917,8.82504116 20.3864986,7.88244833 20.5622899,6.93409627 C20.8737464,5.24472419 21.8176697,4.17158897 23.2966101,3.5361547 C24.9054834,2.84504794 26.5716799,2.4265444 28.2684489,2.12322533 C33.5249932,1.18639172 38.8235745,1.17487327 44.1278882,1.34189074 C45.8724266,1.39564349 47.6169649,1.56458069 49.3519494,1.76231402 C51.6238618,2.02147905 53.8919527,2.3420758 56.0568618,3.19252106 C56.2651363,3.27506993 56.4695893,3.37489646 56.6721316,3.47280325 C57.350457,3.80683818 57.7861139,4.30981032 57.8625449,5.16601481 C58.0020316,6.75939984 58.2083953,8.34702565 58.3708113,9.94233042 C58.5905505,12.1039588 58.7586988,14.563147 58.9306686,17.9418912 C58.9975458,19.2914691 59.2688759,24.0428281 59.3548608,25.3904862 C59.4847936,27.4292512 59.5039014,29.4776148 59.6147264,31.5163798 C59.7083544,33.2844612 59.7790531,35.0563822 59.8612164,36.8244636 C60.0484725,40.9039133 60.2701225,44.9814431 60.4115199,49.0647323 C60.5032371,51.7216538 60.5051479,54.3824148 60.4994156,57.0431758 C60.4975048,58.5252159 60.4344492,60.0149349 60.3331781,61.4950552 C60.1669406,63.9580829 59.9395582,66.4134317 59.4503996,68.8361448 C59.1160139,70.4909616 58.7051971,72.1054637 58.1224104,73.6719724 C57.2472751,76.0140564 55.7721562,77.8128537 53.8652019,79.2641779 C50.9780196,81.4603616 47.8653658,83.1151784 44.385843,83.881155 C38.8044668,85.1136287 33.5498333,84.2113505 28.6888195,80.945871 C27.057017,79.8516187 25.5131101,78.6421818 24.1870317,77.1332654 C22.1596985,74.8257367 21.0457162,72.0344333 20.4514649,68.9801254 C19.9240908,66.2675314 19.641296,63.5165425 19.5151848,60.748276 C19.3890736,58.0049661 19.2419438,55.2578167 19.1693344,52.5106673 C19.0604201,48.3352307 19.01074,44.1578743 18.9362197,39.9805178 C18.9725244,39.9785981 18.9018257,39.9805178 18.9362197,39.9805178 Z" id="Stroke-11" stroke="#2D4349" stroke-width="0.5" stroke-linejoin="round"></path>
            </g>
        </g>
    </g>
</svg>