<?xml version="1.0" encoding="UTF-8"?>
<svg width="81px" height="160px" viewBox="0 0 81 160" version="1.1" xmlns="http://www.w3.org/2000/svg" xmlns:xlink="http://www.w3.org/1999/xlink">
    <!-- Generator: Sketch 55.2 (78181) - https://sketchapp.com -->
    <title>POOR_FIT</title>
    <desc>Created with Sketch.</desc>
    <g id="Page-1" stroke="none" stroke-width="1" fill="none" fill-rule="evenodd">
        <g id="PROFILE-DETAIL-Copy-4" transform="translate(-571.000000, -540.000000)">
            <g id="POOR_FIT" transform="translate(571.822029, 540.359616)">
                <path d="M-2.84217094e-14,159.185444 C0.303387352,144.97814 0.590911314,130.772823 0.781272005,116.56353 C0.965683925,102.767829 0.872486503,88.9681519 0.95775223,75.1724513 C1.01922287,65.381441 1.15406169,55.5884422 3.66246039,46.0280893 C6.08757628,36.7719656 10.4599234,29.4823953 17.0590941,24.4616193" id="Stroke-13" stroke="#F6BEA0" stroke-width="0.5" stroke-linejoin="round"></path>
                <path d="M62.6865689,26.2677068 C63.9060671,27.5025194 65.0442654,28.8904409 66.0932321,30.449367 C71.4312632,38.3831873 74.2252029,47.2316836 74.952936,56.6786963 C75.5735912,64.7477296 75.7322251,72.8505661 76.0832026,80.9374952 C76.9755183,101.466007 77.8539536,121.998495 78.7522181,142.528995 C78.9941348,148.080681 79.2360516,153.634355 79.4799512,159.186041" id="Stroke-15" stroke="#F6BEA0" stroke-width="0.5" stroke-linejoin="round"></path>
                <path d="M16.8798377,38.1107729 C16.8798377,34.8696383 16.9611376,31.6285037 17.002779,28.3913459 C17.0523521,24.8141673 17.0860618,21.2369886 17.2803884,17.6697521 C17.4271247,14.9754347 17.7939657,12.2950363 18.1052847,9.61463783 C18.2321918,8.53492243 18.4721256,7.47111444 18.6684351,6.40134118 C19.0213955,4.49642893 20.0882086,3.28348898 21.7598134,2.56765557 C23.5761717,1.78819252 25.4559835,1.3149471 27.3714879,0.9729378 C33.3063791,-0.0829164833 39.2928263,-0.0948470401 45.2792734,0.0920650175 C47.2483168,0.153706228 49.2213261,0.344595138 51.1804549,0.567298866 C53.7463584,0.85959751 56.3063131,1.21751422 58.7492753,2.17991247 C58.9872261,2.2733685 59.2172453,2.38472036 59.4472645,2.49806065 C60.214656,2.87188477 60.7064211,3.43858622 60.7916869,4.40694975 C60.9503208,6.20448699 61.18034,7.99407052 61.3647519,9.79160776 C61.6126174,12.2294182 61.8584999,14.6692171 62.0786045,17.109016 C62.2134433,18.6261851 62.3086236,20.1493195 62.4057869,21.6684771 C62.5485574,23.9670977 62.6913279,26.2637299 62.8122863,28.5623506 C62.9193642,30.556742 62.9986811,32.5551103 63.0918786,34.5514901 C63.3020685,39.1527082 63.5519169,43.7539263 63.7125337,48.3571328 C63.8156458,51.353691 63.8176287,54.3562145 63.8116799,57.3547612 C63.809697,59.0310044 63.7383117,60.7072476 63.6233022,62.3775256 C63.4369073,65.1573454 63.1811101,67.9232461 62.6258915,70.6593205 C62.2491359,72.5244642 61.7871147,74.347851 61.126801,76.1135734 C60.1393049,78.7542033 58.4756318,80.7843864 56.3221765,82.4208611 C53.0602667,84.8984401 49.5445427,86.7655723 45.6183534,87.6285492 C39.3126555,89.0184591 33.3817302,88.0003849 27.891014,84.3158313 C26.0488777,83.0810186 24.3058876,81.7189467 22.8067972,80.0148655 C20.518503,77.4159925 19.2593464,74.2663255 18.5891181,70.820383 C17.994241,67.7601952 17.6749902,64.6582504 17.5322197,61.5364213 C17.3914321,58.4404418 17.2228836,55.3444623 17.1435666,52.244506 C17.0206253,47.5339244 16.9631205,42.8213545 16.8798377,38.1107729 C16.9194962,38.1087845 16.8401793,38.1107729 16.8798377,38.1107729" id="Fill-17" fill="#FEFEFE"></path>
                <path d="M16.8798377,38.1107729 C16.8798377,34.8696383 16.9611376,31.6285037 17.002779,28.3913459 C17.0523521,24.8141673 17.0860618,21.2369886 17.2803884,17.6697521 C17.4271247,14.9754347 17.7939657,12.2950363 18.1052847,9.61463783 C18.2321918,8.53492243 18.4721256,7.47111444 18.6684351,6.40134118 C19.0213955,4.49642893 20.0882086,3.28348898 21.7598134,2.56765557 C23.5761717,1.78819252 25.4559835,1.3149471 27.3714879,0.9729378 C33.3063791,-0.0829164833 39.2928263,-0.0948470401 45.2792734,0.0920650175 C47.2483168,0.153706228 49.2213261,0.344595138 51.1804549,0.567298866 C53.7463584,0.85959751 56.3063131,1.21751422 58.7492753,2.17991247 C58.9872261,2.2733685 59.2172453,2.38472036 59.4472645,2.49806065 C60.214656,2.87188477 60.7064211,3.43858622 60.7916869,4.40694975 C60.9503208,6.20448699 61.18034,7.99407052 61.3647519,9.79160776 C61.6126174,12.2294182 61.8584999,14.6692171 62.0786045,17.109016 C62.2134433,18.6261851 62.3086236,20.1493195 62.4057869,21.6684771 C62.5485574,23.9670977 62.6913279,26.2637299 62.8122863,28.5623506 C62.9193642,30.556742 62.9986811,32.5551103 63.0918786,34.5514901 C63.3020685,39.1527082 63.5519169,43.7539263 63.7125337,48.3571328 C63.8156458,51.353691 63.8176287,54.3562145 63.8116799,57.3547612 C63.809697,59.0310044 63.7383117,60.7072476 63.6233022,62.3775256 C63.4369073,65.1573454 63.1811101,67.9232461 62.6258915,70.6593205 C62.2491359,72.5244642 61.7871147,74.347851 61.126801,76.1135734 C60.1393049,78.7542033 58.4756318,80.7843864 56.3221765,82.4208611 C53.0602667,84.8984401 49.5445427,86.7655723 45.6183534,87.6285492 C39.3126555,89.0184591 33.3817302,88.0003849 27.891014,84.3158313 C26.0488777,83.0810186 24.3058876,81.7189467 22.8067972,80.0148655 C20.518503,77.4159925 19.2593464,74.2663255 18.5891181,70.820383 C17.994241,67.7601952 17.6749902,64.6582504 17.5322197,61.5364213 C17.3914321,58.4404418 17.2228836,55.3444623 17.1435666,52.244506 C17.0206253,47.5339244 16.9631205,42.8213545 16.8798377,38.1107729 C16.9194962,38.1087845 16.8401793,38.1107729 16.8798377,38.1107729 Z" id="Stroke-19" stroke="#F6BEA0" stroke-width="0.5" stroke-linejoin="round"></path>
                <path d="M21.7540629,40.1051643 C21.7540629,37.1304788 21.8194994,34.1557933 21.8532091,31.1811078 C21.8889017,27.8962278 21.9543382,19.5030811 22.1070234,16.2241663 C22.2220329,13.7525526 22.5115398,11.2908811 22.7594053,8.8292095 C22.8605344,7.83698485 23.0489122,6.85867919 23.2055632,5.87639667 C23.4851555,4.12857009 24.3318639,3.01703988 25.6564571,2.35887082 C27.092094,1.64303741 28.5832527,1.20757209 30.1021724,0.893400754 C34.8036849,-0.0769512048 39.5468388,-0.0868933356 44.2880098,0.084111313 C45.8485709,0.141775671 47.409132,0.314768746 48.9657272,0.521565065 C50.9962412,0.790002595 53.0247724,1.12008133 54.962089,2.00095412 C55.1484838,2.08645644 55.3309128,2.1898546 55.5113589,2.29126433 C56.1201165,2.63725048 56.5087696,3.16020656 56.5781719,4.04505619 C56.7030961,5.69743832 56.8875081,7.34186674 57.0322615,8.99226044 C57.228571,11.2312283 57.3792732,13.7784022 57.5319583,17.2800206 C57.593429,18.6758958 57.8373286,23.5972505 57.9126797,24.9951141 C58.0276893,27.1048342 58.0475185,29.2264849 58.1446818,31.3381935 C58.2299475,33.1715224 58.2934011,35.0048513 58.3647863,36.8361918 C58.5333349,41.0615973 58.7296443,45.2870029 58.8585344,49.5143969 C58.9398343,52.2663787 58.9418172,55.0243257 58.9358684,57.7782959 C58.9338855,59.3153493 58.8783636,60.8563796 58.7891321,62.3894562 C58.6404128,64.9406069 58.5749763,69.3569014 58.0554502,73.3158578 C57.827414,75.0378349 58.2557255,84.8069725 41.0439463,84.8069725 C23.6755161,84.8069725 23.8579451,75.9525109 23.4335994,72.7730175 C22.9160563,68.8896212 22.3846327,64.4852573 22.271606,61.6159584 C22.1585794,58.7744974 22.0257235,55.931048 21.9622699,53.0856102 C21.8670896,48.7607834 21.8194994,44.4319796 21.7540629,40.1051643 C21.7857897,40.1051643 21.7223361,40.1051643 21.7540629,40.1051643" id="Fill-21" fill="#FEFEFE"></path>
                <path d="M21.7540629,40.1051643 C21.7540629,37.1304788 21.8194994,34.1557933 21.8532091,31.1811078 C21.8889017,27.8962278 21.9543382,19.5030811 22.1070234,16.2241663 C22.2220329,13.7525526 22.5115398,11.2908811 22.7594053,8.8292095 C22.8605344,7.83698485 23.0489122,6.85867919 23.2055632,5.87639667 C23.4851555,4.12857009 24.3318639,3.01703988 25.6564571,2.35887082 C27.092094,1.64303741 28.5832527,1.20757209 30.1021724,0.893400754 C34.8036849,-0.0769512048 39.5468388,-0.0868933356 44.2880098,0.084111313 C45.8485709,0.141775671 47.409132,0.314768746 48.9657272,0.521565065 C50.9962412,0.790002595 53.0247724,1.12008133 54.962089,2.00095412 C55.1484838,2.08645644 55.3309128,2.1898546 55.5113589,2.29126433 C56.1201165,2.63725048 56.5087696,3.16020656 56.5781719,4.04505619 C56.7030961,5.69743832 56.8875081,7.34186674 57.0322615,8.99226044 C57.228571,11.2312283 57.3792732,13.7784022 57.5319583,17.2800206 C57.593429,18.6758958 57.8373286,23.5972505 57.9126797,24.9951141 C58.0276893,27.1048342 58.0475185,29.2264849 58.1446818,31.3381935 C58.2299475,33.1715224 58.2934011,35.0048513 58.3647863,36.8361918 C58.5333349,41.0615973 58.7296443,45.2870029 58.8585344,49.5143969 C58.9398343,52.2663787 58.9418172,55.0243257 58.9358684,57.7782959 C58.9338855,59.3153493 58.8783636,60.8563796 58.7891321,62.3894562 C58.6404128,64.9406069 58.5749763,69.3569014 58.0554502,73.3158578 C57.827414,75.0378349 58.2557255,84.8069725 41.0439463,84.8069725 C23.6755161,84.8069725 23.8579451,75.9525109 23.4335994,72.7730175 C22.9160563,68.8896212 22.3846327,64.4852573 22.271606,61.6159584 C22.1585794,58.7744974 22.0257235,55.931048 21.9622699,53.0856102 C21.8670896,48.7607834 21.8194994,44.4319796 21.7540629,40.1051643 C21.7857897,40.1051643 21.7223361,40.1051643 21.7540629,40.1051643 Z" id="Stroke-23" stroke="#2D4349" stroke-width="0.5" stroke-linejoin="round"></path>
            </g>
        </g>
    </g>
</svg>