<svg width="35" height="38" xmlns="http://www.w3.org/2000/svg"><g fill="#F7BFA0" fill-rule="evenodd"><path d="M19.28 12.759c-1.181-.264-2.262-.424-3.212-.475-4.038-.217-4.775 1.546-4.89 1.937-1.488 3.636 1.124 4.914 2.855 5.761.194.096.386.188.565.281 1.237.645 1.986 1.035 2.439 4.434.16 1.206-.295 2.751-.734 4.245-.812 2.754-1.731 5.875 1.058 7.664.664.426 1.315.658 1.937.691.957.052 1.828-.369 2.518-1.215 1.502-1.838 2.022-5.574 1.209-8.687-.387-1.489-.117-3.443.145-5.333.533-3.833 1.137-8.176-3.89-9.303M11.51 11.973l.005-.002c1.001-.432 1.08-1.735.646-2.741-.503-1.165-1.406-1.718-2.076-1.846a1.596 1.596 0 00-.496-.001c-.288.053-.965.29-1.055 1.346-.046.558.08 1.17.382 1.873.41.948 1.158 1.386 1.72 1.482.073.012.15.017.223.017.253 0 .497-.063.651-.128M14.478 10.802l.204-.013c.693-.119 1.13-.988.976-1.941-.149-.93-.734-1.289-1.243-1.317-.087-.005-.172 0-.266.015-.63.102-1.19.67-1.025 1.708.138.86.703 1.511 1.354 1.548M20.609 11.906c.148.052.291.083.432.09l.067.002c.535 0 .953-.341 1.184-.968.16-.429.164-.82.014-1.134-.135-.285-.391-.502-.73-.624a1.508 1.508 0 00-.441-.097c-.546-.025-1.012.313-1.25.968-.159.427-.165.819-.017 1.133.133.28.387.498.74.63M17.534 11.15l.095.01a.872.872 0 00.054.001c.656 0 1.248-.655 1.389-1.551l.001-.001c.097-.617-.073-1.007-.232-1.226a1.182 1.182 0 00-.78-.474l-.156-.02c-.69-.012-1.235.483-1.368 1.324-.07.458-.01.91.17 1.27.184.375.477.612.827.668"/><path d="M10.737 32.999a.282.282 0 01-.111-.022A17.075 17.075 0 010 17.127C0 7.684 7.683 0 17.128 0c9.444 0 17.126 7.683 17.126 17.128 0 5.441-2.5 10.439-6.858 13.709a.287.287 0 01-.405-.057.288.288 0 01.057-.405c4.212-3.162 6.628-7.99 6.628-13.247 0-9.126-7.424-16.55-16.548-16.55C8.002.578.578 8.002.578 17.128a16.5 16.5 0 0010.27 15.314.29.29 0 01.156.379.287.287 0 01-.267.178"/><path d="M24.313 11.42l-.205-.09-.142-.009c-.428-.013-.916.29-1.175.786-.292.561-.14 1.004.457 1.318.195.1.367.154.519.162l.058.002c.23 0 .532-.102.762-.54l.002-.005c.157-.306.218-.64.17-.952-.055-.313-.22-.555-.446-.671"/></g></svg>