<svg xmlns="http://www.w3.org/2000/svg" width="120.172" height="120.371" viewBox="0 0 110.172 125.371">
  <g id="Group_30" data-name="Group 30" transform="translate(0 0)">
    <path id="Stroke_1" data-name="Stroke 1" d="M3.011,83.289l-.079-.641-.112-.635-.075-.642L2.6,80.744l-.091-.638-.154-.626-.126-.633-.1-.636-.055-.644L1.8,76.961l-.109-.635.07-.666-.248-.613.028-.657-.257-.612-.073-.642-.1-.637-.1-.639.083-.662-.068-.64-.243-.621.042-.654-.031-.645L.6,68.008l.05-.652-.114-.637L.5,66.074l-.078-.641L.274,64.8l.136-.656L.268,63.5l.068-.65-.173-.636.071-.649.012-.645-.031-.643L0,59.639v-.646l.078-.646L.034,57.7l-.01-.644.2-.64-.175-.652L.09,55.12l.026-.644.2-.633-.09-.652.123-.634.147-.645-.087-.667.22-.637-.041-.663-.027-.666.258-.633L.9,47.994l-.03-.664L1.1,46.7l-.076-.672.2-.633-.013-.667.247-.621.166-.635.067-.655.193-.628.133-.639L2.1,40.9l.2-.63-.046-.68.2-.624.205-.625.109-.644-.024-.662.1-.642.142-.638.072-.648-.008-.653.114-.648L3.1,33.153l0-.656-.071-.655L3.2,31.2l.04-.641-.005-.643-.169-.649.066-.641.036-.644.012-.645.182-.635-.04-.65.055-.643-.024-.649.028-.647.219-.632-.086-.658.163-.636.094-.643-.077-.66.1-.643.158-.636.1-.642.037-.648.13-.638,0-.653-.052-.66.08-.643.255-.619.03-.648.166-.628.107-.635-.116-.665.154-.626.1-.641.128-.633.082-.635-.008-.65.215-.615L5.472,8.1l.133-.647.1-.652-.05-.679.27-.623.046-.662L6.161,4.2l.1-.656.244-.617.082-.662L6.9,1.675l.231-.617.161-.65L7.789,0" transform="translate(0.45 40.91)" fill="none" stroke="#f7bfa0" stroke-miterlimit="10" stroke-width="0.9"/>
    <path id="Stroke_3" data-name="Stroke 3" d="M.525,15.962,1,16.367l.113.661.1.646.177.651-.067.667.118.667-.033.653-.161.646.087.653-.138.644.064.656-.075.648-.109.649.13.661-.139.647.018.656-.079.65-.137.643.034.653.068.655-.054.651-.168.645-.031.65v.654l.038.657-.124.651-.09.653L.611,34l-.037.658-.02.659-.018.66.006.661-.1.654-.129.653.023.659-.024.656,0,.655.055.655-.092.65-.014.653-.1.65.175.657-.047.649-.083.645-.1.657.139.66-.134.654,0,.658v.658l.08.661.077.658-.122.659.03.663-.086.662-.037.664.031.667.076.666-.141.662.13.664L0,55.045l.187.658.029.66,0,.659L.2,57.676l-.009.654L.125,59l.225.637.474.289.214-.606.277-.617-.066-.674.179-.651.02-.666.019-.632-.1-.634.022-.632-.029-.634.1-.63.039-.633-.057-.633.1-.629-.1-.635.068-.634.116-.635-.081-.64.162-.632-.167-.643.026-.636.154-.631-.039-.637-.051-.637.183-.635-.174-.638.21-.633-.037-.634v-.633l.028-.654-.029-.653.022-.654-.117-.652-.066-.653.076-.658L1.57,37.55l.02-.653-.021-.654.138-.658-.085-.653-.141-.652.039-.658.006-.657.081-.653-.039-.652-.092-.653.046-.656L1.387,29.7l.077-.657.059-.654.074-.655,0-.656-.049-.659-.1-.662.169-.655.026-.659-.059-.663.076-.659-.009-.662.144-.655-.171-.672.264-.641.027-.662.016-.662L1.921,18.5l.121-.653.007-.663.018-.662-.039-.667.21-.647.064-.662-.06-.67.064-.66.113-.653L2.362,11.9l.191-.648,0-.664,0-.661.112-.653.031-.659.144-.652-.058-.664.133-.651.034-.657-.111-.661L2.855,4.7l.1-.624.04-.626.149-.611.122-.614L3.366,1.6l.2-.595L3.89.473,4.309,0" transform="translate(13.003 24.688)" fill="none" stroke="#f7bfa0" stroke-miterlimit="10" stroke-width="0.9"/>
    <path id="Stroke_4" data-name="Stroke 4" d="M0,6.981l.593.289.44.453.132.626L1.5,8.9l.146.616.1.629-.055.641.123.623.018.635-.058.637.043.658L1.749,14l.134.657-.128.66.11.661-.018.658-.094.656-.091.653.192.658-.19.647.118.653-.151.647,0,.651-.061.651.2.653-.013.652.006.653.034.655-.151.659-.033.654.215.651-.137.669.139.657.008.642-.027.643.034.64.109.635-.091.644.2.632-.186.644.2.633v1.279l-.1.641.113.636-.1.641.065.635.088.634.014.637-.105.637.065.638.084.638-.14.64-.07.64.044.641L2,42.445l.083.64-.076.641.026.645.087.645-.032.65-.023.66-.058.662-.016.663.032.665-.012.662L2,49.639,1.99,50.3l.171.659v.662L2,52.289l.019.661.211.656-.039.661-.053.662.135.658-.151.667.144.656-.057.662-.025.664.176.653-.059.659-.055.653.252.64.5.466.472-.457.185-.642.049-.634-.033-.634-.117-.634.009-.634-.021-.634.133-.636-.162-.631.021-.634L3.483,54.5l.175-.635-.211-.626.044-.632-.1-.631.113-.642L3.452,50.7l-.086-.636.067-.642-.01-.638,0-.636-.061-.631-.14-.628-.007-.633-.005-.632.083-.653-.1-.643-.132-.636-.052-.645L3,42.4l-.054-.642-.184-.625L2.659,40.5,2.6,39.858l.073-.652-.128-.634.042-.649-.011-.644-.233-.632L2.353,36l.016-.647.083-.648-.2-.639.086-.649-.011-.644-.12-.643-.023-.646.18-.652-.138-.647.067-.649-.06-.647-.037-.645.015-.649.121-.65L2.265,26.3l.053-.653-.009-.653.006-.657-.124-.656-.062-.656.183-.654-.069-.656.04-.655L2.254,20.4l-.115-.657.2-.655-.122-.661,0-.661.016-.658.081-.657-.1-.658.073-.654-.031-.654.086-.653.081-.653-.147-.66.11-.652.072-.653-.131-.658L2.333,9.9,2.4,9.249,2.5,8.6l-.012-.654.036-.652-.043-.658.238-.64-.067-.652-.094-.648-.006-.65L2.683,3.4l.2-.624.089-.635.114-.633L3.337.926,3.51.28,4.11,0" transform="translate(23.019 16.713)" fill="none" stroke="#f7bfa0" stroke-miterlimit="10" stroke-width="0.9"/>
    <path id="Stroke_5" data-name="Stroke 5" d="M0,0,.459.3.734.836l.3.539.112.606.293.561.13.608.043.62.178.6-.074.634-.016.626.124.635.1.635.081.637.066.64-.143.654.239.629.047.639.048.64-.156.657.049.644.133.638.092.643.1.641-.141.659.182.634.067.642.047.643.074.642.079.642.017.646,0,.646L3,19.74l.083.643-.013.657v.654l.256.621.073.643.051.647.047.647.068.646.078.645,0,.653.217.632.059.647.008.648-.029.653.16.635-.006.652.068.646.153.636.059.646-.171.662.256.637-.049.653.071.649-.049.655-.045.657.2.648-.034.657.056.655-.013.647-.039.647-.03.646.107.644L4.5,41.1l0,.645.1.644-.176.646.155.643.088.643-.025.644.033.644-.051.649-.058.648.1.645-.013.646-.029.645-.057.644.069.642.072.641-.048.642.113.637.014.645.021.643-.07.642-.059.638.086.64-.072.636-.009.635.137.646-.077.654.171.64.007.653.121.636-.007.654.2.627.445.366.557-.141.158-.577L6.328,60.1l-.055-.648.085-.647L6.3,58.16l.092-.65-.042-.647-.116-.646V55.57l.068-.653-.172-.643.131-.66-.141-.647.053-.659.031-.656-.234-.637.159-.662-.143-.642-.109-.641-.04-.649-.024-.65.016-.653-.043-.648-.138-.639-.112-.643.009-.652-.1-.642.069-.657L5.38,42.6l.016-.655L5.333,41.3l-.177-.637L5.2,40l-.145-.642L5,38.712l-.006-.654-.017-.647-.018-.647-.07-.644-.132-.642-.014-.652-.161-.643.007-.654L4.5,32.88l.105-.656L4.6,31.572l-.048-.65-.153-.646-.037-.654.023-.653-.069-.653-.032-.658L4.151,27l.112-.67-.016-.653-.09-.651-.081-.654-.022-.657.011-.655.056-.657-.071-.65L4,21.107l-.027-.653L3.908,19.8l-.024-.653L3.867,18.5l.177-.655-.192-.647-.022-.653.1-.654-.008-.65v-.652l-.082-.652.007-.646.159-.648-.019-.646-.148-.642-.021-.644-.044-.644.237-.637L3.928,8.78l.017-.65.167-.621L4.3,6.887l.443-.494" transform="translate(33.509 15.824)" fill="none" stroke="#f7bfa0" stroke-miterlimit="10" stroke-width="0.9"/>
    <path id="Stroke_6" data-name="Stroke 6" d="M0,0,.148.643.221,1.3l.021.661.005.661L.4,3.245l0,.642.026.64.046.64.174.624.144.619-.112.657.09.631.285.6.028.641.084.634.117.624.172.618.11.628.122.628-.022.654.209.615.134.629-.092.669.2.619.187.622-.057.662.117.633.114.633.179.623.16.625.035.644L3,20.325l-.034.652.223.615-.019.652.156.624.11.631.074.634,0,.638.122.629-.046.642.1.633-.019.643.053.636.184.627.051.638-.109.651.141.632.082.636.031.64-.077.646.094.635.129.633.041.637.107.632L4.4,35.6l-.068.65.1.634.041.638.025.635.163.627,0,.635.181.616-.14.662.089.632.069.636.223.616.1.633.148.627.056.641.079.637-.049.657.134.63.255.6.041.639-.022.651.285.6-.046.656.23.611-.045.656.142.628.213.617.02.652.012.653.083.643.215.62-.015.66.284.61.122.636.094.641.086.642.167.626-.049.664.22.613.094.634L8.024,61l.041.645.129.627.283.6.074.635.084.632.171.626.2.623-.076.674.186.628.207.626-.058.669.228.62,0,.655.07.647.208.627.085.647.118.64.113.644.074.649-.079.671.144.644.1.651.172.642-.108.675.182.641-.017.663.216.635L10.692,79l.1.646.09.646.167.64-.037.659.117.645,0,.652.036.644" transform="translate(47.034 27.976)" fill="none" stroke="#f7bfa0" stroke-miterlimit="10" stroke-width="0.9"/>
    <path id="Stroke_7" data-name="Stroke 7" d="M0,46.735l.218-.6.146-.622.308-.563.246-.583.2-.6.307-.559.275-.572.263-.576.231-.593.306-.558.315-.556L3.3,39.92l.221-.627.434-.465.464-.441.229-.6.339-.528.182-.6.37-.536.07-.646.238-.6.271-.593,0-.655L6.207,33l.139-.628-.041-.639.036-.639-.127-.63-.125-.626L6.014,29.2l-.042-.635L5.9,27.935l-.14-.626.019-.643L5.7,26.03l-.079-.637-.008-.64.007-.644.082-.644-.1-.635.049-.635-.006-.635.009-.636.047-.638-.122-.633-.094-.632-.035-.634.168-.643-.173-.628.059-.638L5.5,15.843l-.133-.631.04-.634.044-.633.02-.63-.026-.637.065-.632.129-.62.093-.63.135-.622.1-.623.291-.587.066-.628,0-.64.22-.6,0-.637-.017-.633.12-.62V4.572l.1-.625.038-.623L6.818,2.7,6.735,2.01,6.8,1.322,6.847.631,7.134,0" transform="translate(58.831 78.482)" fill="none" stroke="#f7bfa0" stroke-miterlimit="10" stroke-width="0.9"/>
    <path id="Stroke_9" data-name="Stroke 9" d="M13.645.565l-.49-.384L12.527.139,11.916,0l-.6.179-.59.142L10.13.493,9.59.8l-.61.254-.57.337-.565.35-.458.49-.6.316-.449.495-.529.405L5.431,4,4.9,4.413,4.44,4.9l-.376.553-.425.514-.349.569L2.941,7.1l-.221.635-.465.51-.065.681-.282.58-.172.616-.185.616-.379.533L.9,11.852l-.14.627L.622,13.1l-.156.609-.121.616-.268.6L0,15.564l.18.64.049.631" transform="translate(54.17 67.832)" fill="none" stroke="#f7bfa0" stroke-miterlimit="10" stroke-width="0.9"/>
    <path id="Stroke_10" data-name="Stroke 10" d="M1.159,5.045l-.072.667-.359.549-.2.613L.373,7.5.1,8.095,0,8.736l.039.65.042.628.131.6.3.5.526.146.425-.454.416-.466.336-.53.111-.64L2.7,8.642l.244-.591.225-.6.212-.606.137-.629.228-.6.108-.636.258-.6.184-.617.168-.617-.056-.664.144-.617.185-.62L4.706.624,4.528,0,3.934.152,3.58.641l-.47.417-.323.533-.154.633-.341.543-.35.543-.092.66-.432.5Z" transform="translate(64.668 67.311)" fill="none" stroke="#f7bfa0" stroke-miterlimit="10" stroke-width="0.9"/>
    <path id="Stroke_11" data-name="Stroke 11" d="M6.823,8.633l-.247.595-.522.391-.377.538-.642.137-.6.145-.623.156-.625-.12-.611-.166-.564-.3L1.44,9.7l-.375-.532L.679,8.661.379,8.1.126,7.5l.017-.7.05-.7.049-.7L.16,4.7l.024-.7L0,3.3l.041-.734.073-.736.172-.742L.765.545,1.237,0" transform="translate(38.138 19.649)" fill="none" stroke="#f7bfa0" stroke-miterlimit="10" stroke-width="0.9"/>
    <path id="Stroke_12" data-name="Stroke 12" d="M2.986,10.176l.626.085.555-.29.6-.177.472-.409.342-.516.34-.5.117-.59.1-.617.02-.618-.185-.619L6.13,5.3l-.187-.617.025-.622-.039-.623L5.9,2.812l-.167-.6-.278-.561-.369-.5L4.71.641,4.142.371,3.582.062,2.937,0,2.312.242,1.618.275l-.41.561-.517.41L.306,1.8l0,.689-.063.641-.23.688.025.7.069.7L0,5.926l.117.7.038.7L.059,8,.382,8.6l.363.543.427.48.548.337.622.149Z" transform="translate(17.212 21.415)" fill="none" stroke="#2c4349" stroke-miterlimit="10" stroke-width="0.9"/>
    <path id="Stroke_13" data-name="Stroke 13" d="M2.694,8.581l.618-.109.58-.219.586-.238.409-.479L5.372,7.1l.085-.643.1-.68-.065-.69,0-.688.128-.68-.014-.688L5.731,2.4,5.45,1.815,5.2,1.258,4.922.71,4.5.221,3.866.091,3.249,0,2.571,0,1.949.272,1.4.653l-.429.5-.482.487L.421,2.32.3,2.964l-.185.574-.037.585.148.59L.16,5.3,0,5.872l.069.617.24.565.372.479.4.422.43.425.567.243Z" transform="translate(7.902 38.542)" fill="none" stroke="#2c4349" stroke-miterlimit="10" stroke-width="0.9"/>
    <path id="Stroke_14" data-name="Stroke 14" d="M3.316,11.2l-.616.058-.613-.118-.559-.289-.387-.5L.778,9.874l-.351-.5L.139,8.83.115,8.212l.037-.66L0,6.892l.008-.665.145-.659L.074,4.9l.107-.661-.09-.682.243-.653-.02-.7.313-.612.363-.58L1.522.585,2.106.248,2.741,0l.683.037.625.047L4.638.3l.62.218.4.516.328.546.363.543.039.655L6.4,3.41l.176.68-.093.688-.023.688.131.688-.1.688-.034.688.144.682-.183.616-.02.646-.3.566-.377.527-.567.31-.608.166-.607.124Z" transform="translate(26.939 12.813)" fill="none" stroke="#2c4349" stroke-miterlimit="10" stroke-width="0.9"/>
    <path id="Stroke_15" data-name="Stroke 15" d="M63.009,28.211l-.661-.071-.673.09-.662-.044-.654-.114-.649-.157-.665.014-.669.043-.632-.281-.653-.071-.659-.035-.66-.03-.634-.2-.675.016-.657-.086L53.2,26.97l-.667-.034-.624-.209-.644-.134-.584-.322-.627-.189-.644-.144-.619-.218-.626-.207-.532-.4-.608-.251-.523-.4-.511-.4-.579-.3-.515-.392-.532-.367-.609-.254-.5-.4-.486-.425-.618-.234-.462-.464-.546-.343-.561-.317-.469-.455-.624-.236-.546-.35-.442-.5-.6-.276-.51-.409-.511-.409-.574-.319-.472-.465-.561-.338-.561-.338-.58-.31-.494-.43-.574-.313-.487-.434-.46-.472-.619-.231-.462-.469-.559-.323-.54-.348-.589-.272-.535-.34-.6-.232-.549-.365-.623-.185-.565-.338-.673-.048-.6-.248-.625-.171-.561-.352-.636-.143-.641-.134L22.156,10l-.649-.109L20.9,9.689l-.571-.337-.613-.213-.646-.113-.628-.174-.592-.292-.626-.19L16.6,8.159l-.6-.269L15.367,7.7l-.635-.167L14.1,7.342l-.631-.173-.621-.194-.638-.129-.595-.286-.588-.278-.608-.214-.656-.04-.577-.283L8.57,5.6l-.622-.146-.589-.244L6.8,4.9l-.613-.168-.577-.26L5.041,4.19l-.6-.206-.562-.291-.624-.165-.562-.3L2.153,2.9l-.437-.481-.5-.377-.479-.4L.39,1.129.136.581,0,0" transform="translate(46.46 26.801)" fill="none" stroke="#f7bfa0" stroke-linecap="round" stroke-linejoin="round" stroke-miterlimit="10" stroke-width="0.9"/>
    <path id="Stroke_17" data-name="Stroke 17" d="M0,.8.572.407,1.191.149,1.846.027,2.51,0l.662.024L3.834.005l.659.061.649.149.666.048L6.458.4l.648.149.655.132.64.2.619.166.631.131.632.131.618.182.609.209.57.324.614.191.623.172.6.228.626.167.551.37.607.222.648.112.618.193.58.3.582.291.65.1.595.251.594.258.607.22.618.186.65.072.6.234.63.132.625.159.637.09.634.091.619.228.647-.023.64.1.67-.05.668-.08.678.075.647-.221L30.2,5.97l.637-.2.644-.157.635-.187.639-.209.6-.335.455-.5" transform="translate(49.288 19.504)" fill="none" stroke="#f7bfa0" stroke-linecap="round" stroke-linejoin="round" stroke-miterlimit="10" stroke-width="0.9"/>
    <path id="Stroke_18" data-name="Stroke 18" d="M62.094,24.8l-.431-.488-.544-.387-.383-.531-.454-.469-.41-.509-.413-.508-.355-.559-.524-.415-.366-.549-.538-.406-.316-.594-.408-.516-.48-.456-.343-.569-.472-.461-.393-.526-.36-.552-.473-.458-.4-.515-.34-.561-.428-.488-.426-.491-.435-.487-.415-.5-.392-.517-.385-.52-.283-.59-.374-.527-.343-.548-.358-.539L49.5,9.016l-.352-.545-.45-.488-.192-.645-.42-.506-.317-.572L47.4,5.72l-.493-.446L46.6,4.7l-.459-.464-.305-.593-.461-.462-.514-.4-.522-.383-.428-.51-.548-.359-.608-.245-.619-.2L41.558.763l-.645-.1-.642-.1-.653.022L38.978.551,38.343.42,37.7.381l-.644.1L36.421.292,35.779.267l-.642.107L34.5.336l-.64.089-.64-.131-.639.045L31.933.32,31.29.368l-.641.08-.643-.08-.638.051L28.73.353l-.632.2L27.455.42,26.818.41l-.635.185L25.549.4,24.92.392,24.278.381l-.652.1L22.982.428h-.647L21.7.35,21.05.345l-.642-.15-.655.1L19.111.137,18.465.049l-.651.062-.65.072L16.514,0l-.642.164L15.211.091l-.6.274-.531.329-.564.27-.491.393-.466.424L12,2.1l-.5.394-.447.451-.409.485-.489.409-.4.5-.413.486-.554.35-.289.61-.458.437-.424.469-.581.348-.469.456-.44.486-.463.456-.382.543-.543.389L4.346,9.9l-.394.535-.5.432-.464.465-.532.4-.4.521-.454.47-.43.492L.765,13.7l-.105.644-.283.581-.1.639L0,16.151" transform="translate(47.443 0.45)" fill="none" stroke="#f7bfa0" stroke-linecap="round" stroke-linejoin="round" stroke-miterlimit="10" stroke-width="0.9"/>
    <path id="Stroke_20" data-name="Stroke 20" d="M0,3.565.652,3.55,1.3,3.474,1.86,3.12l.622-.168L3,2.574l.464-.435.44-.456.357-.525L4.653.636,4.8,0" transform="translate(48.072 31.924)" fill="none" stroke="#f7bfa0" stroke-linecap="round" stroke-linejoin="round" stroke-miterlimit="10" stroke-width="0.9"/>
    <path id="Stroke_21" data-name="Stroke 21" d="M.142,0,.175.67,0,1.333l.2.674-.083.672.014.671.013.669L.3,4.655l.18.627.19.65.466.489.517.433.653.174.656-.068.627-.165.653-.185.589-.334.495-.457.446-.492.434-.513.212-.64.33-.6.012-.685.284-.655" transform="translate(53.962 32.03)" fill="none" stroke="#f7bfa0" stroke-linecap="round" stroke-linejoin="round" stroke-miterlimit="10" stroke-width="0.9"/>
    <path id="Stroke_22" data-name="Stroke 22" d="M0,3.583l.661-.158.623-.263.588-.347.542-.419L3,2.04l.4-.558L3.854,1l.611.143.635.013.632-.009.633.108.63-.086.623-.12L8.231.893,8.841.72,9.435.506l.636-.132L10.6,0" transform="translate(60.635 17.638)" fill="none" stroke="#f7bfa0" stroke-linecap="round" stroke-linejoin="round" stroke-miterlimit="10" stroke-width="0.9"/>
    <path id="Stroke_23" data-name="Stroke 23" d="M0,8.209l.479-.494.577-.4.47-.517.37-.559.612-.178.593-.31.57-.336.557-.36.52-.418.622-.257.5-.437.589-.326.454-.5.516-.4.595-.307.524-.405.328-.6.609-.317.421-.5L10.147,0,10.7.233l.582.217.493.42.634.076L13,1.13l.616.091.59.237.618.134.631.055.634-.19.628.073.63.14.624-.151.628.074.6-.149.627.128.624.173.568.31.542.353.592.263.572.311.379.565.62.278.291.608.513.426" transform="translate(54.723 11.51)" fill="none" stroke="#f7bfa0" stroke-linecap="round" stroke-linejoin="round" stroke-miterlimit="10" stroke-width="0.9"/>
    <path id="Stroke_24" data-name="Stroke 24" d="M0,0,.454.515l.191.656L.8,1.829l.053.677.075.667L1,3.843l0,.678-.135.67" transform="translate(63.9 6.267)" fill="none" stroke="#f7bfa0" stroke-linecap="round" stroke-linejoin="round" stroke-miterlimit="10" stroke-width="0.9"/>
    <path id="Stroke_25" data-name="Stroke 25" d="M0,0,.328.581l.465.45.291.572.364.546.163.632.013.653.035.635.158.638" transform="translate(54.789 12.98)" fill="none" stroke="#f7bfa0" stroke-linecap="round" stroke-linejoin="round" stroke-miterlimit="10" stroke-width="0.9"/>
    <path id="Stroke_26" data-name="Stroke 26" d="M3.356,0,3.189.658l-.133.677-.317.6-.4.557-.363.581-.578.4-.389.563-.5.463L0,4.959" transform="translate(73.938 7.988)" fill="none" stroke="#f7bfa0" stroke-linecap="round" stroke-linejoin="round" stroke-miterlimit="10" stroke-width="0.9"/>
    <path id="Stroke_27" data-name="Stroke 27" d="M2.57,0,2.119.475,1.711.986l-.392.519L.883,2l-.252.612L.4,3.215.066,3.8,0,4.457.166,5.1" transform="translate(80.419 20.147)" fill="none" stroke="#f7bfa0" stroke-linecap="round" stroke-linejoin="round" stroke-miterlimit="10" stroke-width="0.9"/>
    <path id="Stroke_29" data-name="Stroke 29" d="M9.751,6.647l-.232-.632L9.23,5.408l-.22-.636-.251-.624L8.6,3.533,8.288,2.98l-.225-.6L7.614,1.92l-.341-.535L6.819.944,6.3.59,5.781.2,5.132.139,4.516,0,3.889.067l-.61.128L2.671.34,2.118.617,1.608.959l-.438.427-.4.47-.225.572-.184.58L.091,3.59,0,4.22l.115.626.172.606.149.607.141.635.2.616.26.6.256.6.087.66.427.542.094.659.31.579.093.658.184.622.379.516.331.52.279.573.5.392.583.229.546.26.587.21.625.113.6-.228.629-.042.574-.26.628-.22" transform="translate(38.974 13.33)" fill="none" stroke="#2c4349" stroke-linecap="round" stroke-linejoin="round" stroke-miterlimit="10" stroke-width="0.9"/>
    <path id="Stroke_28" data-name="Stroke 28" d="M11.475,7.015l-.013-.634.22-.6-.114-.617-.194-.588-.281-.546-.256-.553-.284-.553-.459-.416-.509-.341-.6-.234-.606-.215-.578-.293-.6-.242L6.6.965l-.576-.3L5.39.512,4.845.284,4.275.1,3.662.137,3.057,0,2.444.283,1.872.607,1.3.933l-.392.533-.352.543-.242.6L0,3.237l.077.691.209.647.3.6.3.616.4.564.482.5.686.211.523.372.554.326.581.274.628.177.576.283.56.321.587.271.572.28.627.018.608.151.6-.191.587-.148.528-.3.5-.346.451-.431.238-.576Z" transform="translate(44.415 19.946)" fill="none" stroke="#f7bfa0" stroke-linecap="round" stroke-linejoin="round" stroke-miterlimit="10" stroke-width="0.9"/>
  </g>
</svg>
