<svg xmlns="http://www.w3.org/2000/svg" width="13" height="13" viewBox="0 0 13 13">
    <g fill="none" fill-rule="evenodd">
        <g fill="#FFF" fill-rule="nonzero">
            <g>
                <path d="M8.028 2.173L.875 9.333c-.036.037-.062.082-.074.131L.008 12.65c-.023.096.005.198.075.268.052.053.125.082.198.082.023 0 .046-.003.068-.008l3.183-.794c.05-.013.094-.039.13-.075l7.154-7.16-2.788-2.79zM12.588 1.196L11.792.4c-.533-.532-1.46-.532-1.992 0l-.975.977 2.787 2.79.976-.976c.266-.266.412-.62.412-.997 0-.376-.146-.73-.412-.997z" transform="translate(-334 -384) translate(334 384)"/>
            </g>
        </g>
    </g>
</svg>
