<svg xmlns="http://www.w3.org/2000/svg" width="27" height="46" viewBox="0 0 27 46">
    <g fill="none" fill-rule="evenodd" stroke="#F7BFA0" stroke-linecap="round" stroke-linejoin="round" stroke-width="2.42">
        <path d="M5.102 2h16.59c1.079 0 1.47.112 1.864.323.395.211.704.52.915.915.211.394.323.786.323 1.864V40.97c0 1.079-.112 1.47-.323 1.864-.21.395-.52.704-.915.915-.394.211-.785.323-1.864.323H5.102c-1.078 0-1.47-.112-1.864-.323a2.199 2.199 0 0 1-.915-.915C2.113 42.44 2 42.048 2 40.97V5.102c0-1.078.112-1.47.323-1.864.211-.394.52-.704.915-.915.394-.21.786-.323 1.864-.323zm4.414.962V4.41h7.763V2.962H9.516zM25.147 9.091v4.199"/>
    </g>
</svg>
