<svg id="Component_11_1" data-name="Component 11 – 1" xmlns="http://www.w3.org/2000/svg" width="174.569" height="144.724" viewBox="0 0 174.569 144.724">
  <g id="Group_11633" data-name="Group 11633" transform="translate(68.671 1.837)">
    <g id="Group_11630" data-name="Group 11630" transform="translate(7.018 0.091)">
      <path id="Path_230" data-name="Path 230" d="M82.9,2.1c.365.091.639.274,1,.365a7.254,7.254,0,0,0,2.009.548C84.909,2.648,83.813,2.374,82.9,2.1Z" transform="translate(-82.9 -2.1)" fill="#f7bfa0"/>
    </g>
    <g id="Group_11631" data-name="Group 11631" transform="translate(12.77 2.191)">
      <path id="Path_231" data-name="Path 231" d="M165.62,39.095c-1-.73-16.434-11.321-26.477-19.265-.548-.639-6.391-7.578-11.869-7.487-.274,0-25.473-1.187-31.956-4.93-.183-.091-2.83-1.552-5.935-3.013a.858.858,0,0,1-.091.822l-.091.091c2.283,1,4.382,2.191,5.661,2.83,6.665,3.835,31.316,5.022,32.412,5.022,5.3-.091,11.139,7.122,11.139,7.213l.091.091c10.408,8.217,26.478,19.265,26.66,19.356a.089.089,0,0,1,.091.091,23.136,23.136,0,0,1,7.213,4.291A26.144,26.144,0,0,1,181.415,61.1l.913-.091A27.01,27.01,0,0,0,165.62,39.095Z" transform="translate(-89.2 -4.4)" fill="#f7bfa0"/>
    </g>
    <g id="Group_11632" data-name="Group 11632">
      <path id="Path_232" data-name="Path 232" d="M76.205,8.939a6.074,6.074,0,0,1,1.37-5.569.089.089,0,0,1,.091-.091.713.713,0,0,1,.365-.365,1.037,1.037,0,0,1-.274-.73c0-.091,0-.183.091-.183a1.633,1.633,0,0,0-.913.822c-.274.365-2.465,3.1-1.461,6.391s4.656,5.843,10.956,7.669l.274-.913C80.5,14.326,77.027,11.861,76.205,8.939Z" transform="translate(-75.213 -2)" fill="#f7bfa0"/>
    </g>
  </g>
  <g id="Group_11634" data-name="Group 11634" transform="translate(76.146 14.984)">
    <path id="Path_233" data-name="Path 233" d="M83.674,17.678a.791.791,0,0,1,.365.639,41.979,41.979,0,0,1,5.935-.091l31.864-.822c.091,0,5.843.822,7.4,3.1l.091.091c5.843,5.022,25.2,21.365,27.391,21.365h0c.183,0,.274-.091.365-.274l-.73-.548c.091-.091.183-.183.274-.183-1.643-.183-17.256-12.965-26.66-21.091-1.826-2.556-7.761-3.378-8.035-3.469l-31.864.822A51.681,51.681,0,0,0,83.4,17.4Z" transform="translate(-83.4 -16.4)" fill="#f7bfa0"/>
  </g>
  <g id="Group_11635" data-name="Group 11635" transform="translate(59.255 87.934)">
    <path id="Path_234" data-name="Path 234" d="M71.291,96.665a.949.949,0,0,1-.73-.365c-2.556,1.187-5.2,3.287-5.661,7.03a.335.335,0,0,0,.091.274l.274.274a.921.921,0,0,1,.639-1c.639-3.561,3.561-5.387,6.117-6.3A2.01,2.01,0,0,1,71.291,96.665Z" transform="translate(-64.9 -96.3)" fill="#f7bfa0"/>
  </g>
  <g id="Group_11636" data-name="Group 11636" transform="translate(94.589 27.127)">
    <path id="Path_235" data-name="Path 235" d="M147.06,65.125c0-.091-.183-.183-.274-.274-2.648-1.1-7.943-10.774-9.678-14.517l-.274-.274c-6.026-1.826-13.787-13.513-13.878-13.6s-.183-.183-.274-.183c-5.569-1.552-15.7-5.3-19.082-6.574a5.9,5.9,0,0,1,1.461.822.675.675,0,0,1,.365.822c4.382,1.643,12.143,4.474,16.891,5.752.913,1.37,8.126,11.778,14.152,13.787.822,1.552,6.209,12.417,9.678,14.517-.913,1.643-4.474,7.943-7.03,13.7a20.249,20.249,0,0,1-5.2,5.022c-3.287,2.283-8.948,4.93-17.347,4.656-1.278,0-6.026-.091-11.687-.183a.748.748,0,0,1-.365.913c4.2.091,8.4.091,12.052.183,16.617.457,23.282-10.043,23.373-10.226,2.922-6.665,7.213-14.06,7.213-14.06C147.06,65.4,147.06,65.308,147.06,65.125Z" transform="translate(-103.6 -29.7)" fill="#f7bfa0"/>
  </g>
  <g id="Group_11637" data-name="Group 11637" transform="translate(65.73 18.18)">
    <path id="Path_236" data-name="Path 236" d="M76.017,28.208c.183,0,.365-.091.548-.091.457-.091.822-.183,1.278-.274a7.148,7.148,0,0,1-4.109-2.556,5.3,5.3,0,0,1-.548-4.474,1,1,0,0,1-.548-.913h0l-.274.274a6.647,6.647,0,0,0,.548,5.661A7.871,7.871,0,0,0,76.017,28.208Z" transform="translate(-71.992 -19.9)" fill="#f7bfa0"/>
  </g>
  <g id="Group_11638" data-name="Group 11638" transform="translate(72.037 101.264)">
    <path id="Path_237" data-name="Path 237" d="M164.906,143.677a.335.335,0,0,0-.274-.091h-.183c-9.13,0-29.49-17.165-29.764-17.347-5.022-4.474-23.008-9.039-23.738-9.313h-.091C99.9,116.561,85.748,112,82.278,110.9a.684.684,0,0,1-.457.091H78.9a18.236,18.236,0,0,0,2.374.456c.183.091,16.891,5.935,29.49,6.3,1.1.274,18.626,4.839,23.282,9.039.822.73,20.908,17.53,30.312,17.53h0c1.461,1,13.513,9.13,16.434,10.043l.274-.913C178.236,152.807,165,143.769,164.906,143.677Z" transform="translate(-78.9 -110.9)" fill="#f7bfa0"/>
  </g>
  <g id="Group_11640" data-name="Group 11640" transform="translate(59.164 91.975)">
    <g id="Group_11639" data-name="Group 11639">
      <path id="Path_238" data-name="Path 238" d="M80.778,110.745c-.274,0-.456-.091-.639-.091-8.948.183-13.421-1-13.878-1.187a.877.877,0,0,1-.822-.548c-1-1.278-.548-4.93-.457-5.3a2.221,2.221,0,0,1,1-1.826c3.1-2.374,13.147-.091,13.7.091,3.561.639,3.013,5.569,2.922,6.117a2.663,2.663,0,0,1-.822,2.556A2.141,2.141,0,0,1,80.778,110.745Zm-.548-1h.183a.937.937,0,0,0,.73,0c.274-.183.457-.822.365-1.735v-.091s.639-4.565-2.191-5.113h0c-2.83-.639-10.591-2.009-12.874-.183a1.561,1.561,0,0,0-.639,1.187c-.183,1.461-.274,3.926.274,4.656.091.091.183.183.274.183h.091c.091,0,4.565,1.278,13.787,1.1Z" transform="translate(-64.8 -100.726)" fill="#2c4349"/>
    </g>
  </g>
  <g id="Group_11642" data-name="Group 11642" transform="translate(65.884 15.332)">
    <g id="Group_11641" data-name="Group 11641">
      <path id="Path_239" data-name="Path 239" d="M77.036,22.185c-3.835,0-4.565-1.917-4.656-2.009a1.866,1.866,0,0,1-.091-1.552c.457-.913,1.643-1.1,1.826-1.187a26.125,26.125,0,0,1,6.848-.639c2.283.457,3.378,1,3.469,1.917.091,1.37-2.556,2.556-3.378,2.83A14.486,14.486,0,0,1,77.036,22.185Zm3.287-4.474a26.774,26.774,0,0,0-5.935.639h0a1.555,1.555,0,0,0-1.187.73.89.89,0,0,0,.091.822c0,.091,1.1,2.465,7.761.913,1.278-.548,2.739-1.461,2.739-1.917,0-.091-.091-.639-2.648-1.1A2.026,2.026,0,0,0,80.322,17.711Z" transform="translate(-72.161 -16.781)" fill="#2c4349"/>
    </g>
  </g>
  <g id="Group_11644" data-name="Group 11644" transform="translate(0 25.484)">
    <g id="Group_11643" data-name="Group 11643">
      <path id="Path_240" data-name="Path 240" d="M91.21,90.9H7.122A7.131,7.131,0,0,1,0,83.777V35.022A7.131,7.131,0,0,1,7.122,27.9H91.21a7.131,7.131,0,0,1,7.122,7.122V83.777A7.131,7.131,0,0,1,91.21,90.9ZM7.122,28.813A6.215,6.215,0,0,0,.913,35.022V83.777a6.215,6.215,0,0,0,6.209,6.209H91.21a6.215,6.215,0,0,0,6.209-6.209V35.022a6.215,6.215,0,0,0-6.209-6.209Z" transform="translate(0 -27.9)" fill="#2c4349"/>
    </g>
  </g>
  <g id="Group_11666" data-name="Group 11666" transform="translate(11.961 32.788)">
    <g id="Group_11647" data-name="Group 11647" transform="translate(67.015)">
      <g id="Group_11645" data-name="Group 11645" transform="translate(0.091)">
        <path id="Path_241" data-name="Path 241" d="M86.7,40.217a4.053,4.053,0,0,0,4.017,4.017,3.91,3.91,0,0,0,2.009-.548L93,43.5l.274.183a3.91,3.91,0,0,0,2.009.548,4.017,4.017,0,1,0,0-8.035,3.91,3.91,0,0,0-2.009.548L93,36.93l-.274-.183a3.91,3.91,0,0,0-2.009-.548A3.994,3.994,0,0,0,86.7,40.217Zm8.582-3.561a3.469,3.469,0,1,1-3.469,3.469A3.468,3.468,0,0,1,95.282,36.657Zm-2.648.457-.456.548a4.036,4.036,0,0,0,0,5.113l.456.548L92,43.6a4.626,4.626,0,0,1-1.187.183,3.469,3.469,0,1,1,0-6.939A6.284,6.284,0,0,1,92,37.022Z" transform="translate(-86.609 -35.926)" fill="#2c4349"/>
        <path id="Path_242" data-name="Path 242" d="M95.274,44.208a3.681,3.681,0,0,1-2.009-.548l-.274-.183-.274.091a3.91,3.91,0,0,1-2.009.548,4.109,4.109,0,0,1,0-8.217,3.681,3.681,0,0,1,2.009.548l.274.183.274-.091a3.91,3.91,0,0,1,2.009-.548,4.109,4.109,0,0,1,0,8.217Zm-2.283-.73h0l.274.183a3.91,3.91,0,0,0,2.009.548,4.017,4.017,0,0,0,0-8.035,3.91,3.91,0,0,0-2.009.548l-.274.183-.274-.183a3.91,3.91,0,0,0-2.009-.548,4.017,4.017,0,1,0,0,8.035,3.91,3.91,0,0,0,2.009-.548Zm2.283.274a3.561,3.561,0,1,1,3.561-3.561A3.565,3.565,0,0,1,95.274,43.752Zm0-7.03a3.469,3.469,0,1,0,3.469,3.469A3.468,3.468,0,0,0,95.274,36.722ZM90.8,43.752a3.561,3.561,0,0,1,0-7.122,6.283,6.283,0,0,1,1.187.183l.73.274h0l-.456.548a4.363,4.363,0,0,0-.913,2.556,3.827,3.827,0,0,0,.913,2.556l.456.548h0l-.639.274A7.162,7.162,0,0,1,90.8,43.752Zm0-7.03a3.469,3.469,0,0,0,0,6.939,4.626,4.626,0,0,0,1.187-.183l.639-.183-.456-.548a4.363,4.363,0,0,1-.913-2.556,3.827,3.827,0,0,1,.913-2.556l.456-.548L91.9,36.9A2.316,2.316,0,0,0,90.8,36.722Z" transform="translate(-86.6 -35.9)" fill="#2c4349"/>
      </g>
      <g id="Group_11646" data-name="Group 11646" transform="translate(0 0)">
        <path id="Path_243" data-name="Path 243" d="M95.265,44.3a4.241,4.241,0,0,1-2.1-.548l-.183-.091-.183.091a4.241,4.241,0,0,1-2.1.548,4.189,4.189,0,0,1-4.2-4.2,4.132,4.132,0,0,1,4.2-4.2,4.241,4.241,0,0,1,2.1.548l.183.091.183-.091a4.241,4.241,0,0,1,2.1-.548,4.2,4.2,0,1,1,0,8.4Zm-2.283-.913.274.183a3.928,3.928,0,1,0,2.009-7.3,3.593,3.593,0,0,0-1.917.548L93.074,37l-.274-.183a3.681,3.681,0,0,0-2.009-.548,3.926,3.926,0,0,0,0,7.852,3.593,3.593,0,0,0,1.917-.548Zm2.283.457a3.652,3.652,0,1,1,3.652-3.652A3.663,3.663,0,0,1,95.265,43.843Zm0-7.03a3.378,3.378,0,1,0,3.378,3.378A3.261,3.261,0,0,0,95.265,36.813Zm-4.474,7.03a3.652,3.652,0,1,1,0-7.3,5.344,5.344,0,0,1,1.187.183L92.8,37l-.548.639a4.1,4.1,0,0,0-.913,2.465,3.6,3.6,0,0,0,.913,2.465l.548.639-.822.274A1.835,1.835,0,0,1,90.791,43.843Zm0-7.03a3.378,3.378,0,0,0,0,6.756,4.626,4.626,0,0,0,1.187-.183l.456-.183-.365-.457a3.9,3.9,0,0,1-.913-2.648,4.363,4.363,0,0,1,.913-2.556l.365-.457-.548-.183A4.445,4.445,0,0,0,90.791,36.813Z" transform="translate(-86.5 -35.9)" fill="#2c4349"/>
        <path id="Path_244" data-name="Path 244" d="M95.265,44.4a4.241,4.241,0,0,1-2.1-.548l-.183-.091-.183.091a4.2,4.2,0,1,1,0-7.3l.183.091.183-.091a4.22,4.22,0,0,1,6.3,3.652A4.189,4.189,0,0,1,95.265,44.4Zm-2.283-.73.183.091a4.241,4.241,0,0,0,2.1.548,4.109,4.109,0,0,0,0-8.217,3.91,3.91,0,0,0-2.009.548l-.183.091-.183-.091a4.241,4.241,0,0,0-2.1-.548,4.109,4.109,0,1,0,0,8.217,3.91,3.91,0,0,0,2.009-.548Zm2.283.457a3.91,3.91,0,0,1-2.009-.548l-.274-.183-.274.183a3.835,3.835,0,0,1-1.917.548,3.926,3.926,0,1,1,2.009-7.3l.274.183.274-.183a3.835,3.835,0,0,1,1.917-.548,3.926,3.926,0,1,1,0,7.852Zm-2.283-.73h0l.274.183a3.681,3.681,0,0,0,2.009.548,3.926,3.926,0,1,0,0-7.852,3.835,3.835,0,0,0-1.917.548L93.074,37l-.274-.183a3.681,3.681,0,0,0-2.009-.548,3.926,3.926,0,0,0,0,7.852,3.835,3.835,0,0,0,1.917-.548Zm2.283.457A3.652,3.652,0,1,1,98.917,40.2,3.663,3.663,0,0,1,95.265,43.852Zm0-7.3a3.561,3.561,0,0,0,0,7.122,3.626,3.626,0,0,0,3.561-3.561A3.507,3.507,0,0,0,95.265,36.548Zm-4.474,7.3a3.652,3.652,0,1,1,0-7.3,5.344,5.344,0,0,1,1.187.183L92.8,37h0l-.548.639a4.1,4.1,0,0,0-.913,2.465,3.6,3.6,0,0,0,.913,2.465l.548.73h0l-.822.274A2.527,2.527,0,0,1,90.791,43.852Zm0-7.3a3.561,3.561,0,0,0,0,7.122,4.626,4.626,0,0,0,1.187-.183l.73-.274-.548-.639a4.1,4.1,0,0,1-.913-2.465,3.6,3.6,0,0,1,.913-2.465L92.709,37l-.822-.274A4.583,4.583,0,0,0,90.791,36.548Zm4.474,7.03A3.45,3.45,0,0,1,91.8,40.2a3.424,3.424,0,0,1,6.848,0A3.261,3.261,0,0,1,95.265,43.578Zm0-6.756A3.378,3.378,0,1,0,98.643,40.2,3.37,3.37,0,0,0,95.265,36.822Zm-4.474,6.756a3.378,3.378,0,0,1,0-6.756A6.283,6.283,0,0,1,91.978,37l.548.183h0l-.365.457a3.827,3.827,0,0,0-.913,2.556,4.874,4.874,0,0,0,.913,2.648l.365.457h0l-.457.183A6.942,6.942,0,0,1,90.791,43.578Zm0-6.756a3.378,3.378,0,1,0,1.1,6.574l.457-.183-.274-.365a3.9,3.9,0,0,1-.913-2.648,4.874,4.874,0,0,1,.913-2.648l.274-.365L91.887,37A4.583,4.583,0,0,0,90.791,36.822Z" transform="translate(-86.5 -35.909)" fill="#2c4349"/>
      </g>
    </g>
    <g id="Group_11650" data-name="Group 11650" transform="translate(0 12.782)">
      <g id="Group_11648" data-name="Group 11648" transform="translate(0.091 0.091)">
        <path id="Path_245" data-name="Path 245" d="M24.156,50.557a.921.921,0,0,0-.73-.457H14.2a.871.871,0,0,0-.73.457,1.542,1.542,0,0,0-.274.913v8.308a1.542,1.542,0,0,0,.274.913.921.921,0,0,0,.73.457h9.221c.365,0,.639-.365.73-.457a1.542,1.542,0,0,0,.274-.913v-8.4A1.275,1.275,0,0,0,24.156,50.557Zm-5.022.091H21.6v3.926H19.135Zm-5.2.822a3.228,3.228,0,0,1,.091-.548l.091-.274H16.3v3.2H13.93ZM16.4,54.848v5.661H14.2l-.183-.274a1.108,1.108,0,0,1-.091-.457V54.391H16.4Zm7.487,4.93a.772.772,0,0,1-.183.548l-.183.274H16.852V58.135h6.939v1.643Zm0-2.191H16.943V50.648h1.735v3.926a.526.526,0,0,0,.548.548H21.6a.589.589,0,0,0,.548-.548V50.648h1.461l.091.274a.772.772,0,0,1,.183.548Z" transform="translate(-13.2 -50.009)" fill="#2c4349"/>
        <path id="Path_246" data-name="Path 246" d="M17.309,61.139H14.2c-.365,0-.639-.365-.73-.457a1.542,1.542,0,0,1-.274-.913V51.461a1.542,1.542,0,0,1,.274-.913.921.921,0,0,1,.73-.457h9.221a.871.871,0,0,1,.73.457h0a1.542,1.542,0,0,1,.274.913v8.4a1.542,1.542,0,0,1-.274.913.921.921,0,0,1-.73.457H20.048A25.676,25.676,0,0,0,17.309,61.139Zm3.1-11.048H14.3a.719.719,0,0,0-.639.457,1.542,1.542,0,0,0-.274.913v8.308a1.542,1.542,0,0,0,.274.913c.091.091.274.457.639.457h9.221a.738.738,0,0,0,.639-.457,1.542,1.542,0,0,0,.274-.913v-8.4a2.7,2.7,0,0,0-.183-.913h0c-.091-.091-.274-.457-.639-.457C22.513,50.091,21.508,50.091,20.413,50.091Zm-3.561,10.5h0V58.035h7.03v1.643a.772.772,0,0,1-.183.548l-.183.274H16.852Zm.091,0h6.665l.091-.274c0-.091.183-.274.183-.548V58.126H16.943Zm-.548,0H14.2l-.183-.274a.772.772,0,0,1-.183-.548V54.291H16.4v6.3Zm-2.191,0H16.4V54.474H13.93v5.387a.772.772,0,0,0,.183.548Zm9.678-3.013h-7.03V50.457h1.735v4.109a.589.589,0,0,0,.548.548h2.374a.589.589,0,0,0,.548-.548V50.639h1.461l.183.274a.772.772,0,0,1,.183.548v6.117Zm-6.939,0h6.939V51.461a.772.772,0,0,0-.183-.548l-.091-.274H22.148v3.926a.526.526,0,0,1-.548.548H19.226a.589.589,0,0,1-.548-.548V50.639H17.035v6.482ZM21.6,54.656H19.043V50.639H21.6Zm-2.465-.091H21.6V50.639H19.135Zm-2.739-.73H13.839V51.37a.772.772,0,0,1,.183-.548l.183-.274h2.283v3.287Zm-2.465,0H16.4v-3.2H14.2l-.183.274a3.228,3.228,0,0,0-.091.548Z" transform="translate(-13.2 -50)" fill="#2c4349"/>
      </g>
      <g id="Group_11649" data-name="Group 11649">
        <path id="Path_247" data-name="Path 247" d="M17.3,61.23H14.2a.965.965,0,0,1-.822-.548,1.542,1.542,0,0,1-.274-.913V51.461a1.84,1.84,0,0,1,.274-1A.912.912,0,0,1,14.2,50h9.13a1.143,1.143,0,0,1,.822.457h0a1.84,1.84,0,0,1,.274,1v8.4a1.542,1.542,0,0,1-.274.913c-.091.091-.365.548-.822.548H19.948A23.122,23.122,0,0,0,17.3,61.23Zm3.1-11.048H14.287a.536.536,0,0,0-.548.365,1.227,1.227,0,0,0-.183.822v8.308a1.823,1.823,0,0,0,.183.822c.091.091.274.365.548.365h9.221a.536.536,0,0,0,.548-.365,1.357,1.357,0,0,0,.183-.822v-8.4a1.823,1.823,0,0,0-.183-.822h0c-.091-.091-.274-.365-.548-.365C22.413,50.183,21.408,50.183,20.4,50.183Zm-3.561,10.5h-.091V57.943h7.213v1.735a1.064,1.064,0,0,1-.183.639l-.183.274H16.843Zm.183-.183h6.482l.091-.183a3.954,3.954,0,0,0,.091-.457V58.217H16.935V60.5Zm-.548.183H14.1l-.183-.274a.873.873,0,0,1-.183-.639V54.2h2.739v6.482ZM14.2,60.5H16.2V54.565H13.922v5.3a.772.772,0,0,0,.183.548Zm9.769-2.83H16.752v-7.3h1.917v4.2a.489.489,0,0,0,.457.456H21.5a.489.489,0,0,0,.457-.456V50.548H23.6l.183.365a.772.772,0,0,1,.183.548Zm-6.939-.183h6.756V51.461A3.954,3.954,0,0,0,23.691,51l-.091-.183H22.321v3.743a.686.686,0,0,1-.639.639H19.309a.624.624,0,0,1-.639-.639V50.73H17.209v6.391Zm4.656-2.739H18.943v-4.2h2.739Zm-2.465-.274H21.5V50.73H19.217Zm-2.739-.548H13.739V51.37a.772.772,0,0,1,.183-.548l.183-.365h2.374Zm-2.465-.183H16.3V50.73H14.2l-.091.183a3.954,3.954,0,0,0-.091.457Z" transform="translate(-13.1 -49.909)" fill="#2c4349"/>
        <path id="Path_248" data-name="Path 248" d="M17.3,61.221H14.2a.965.965,0,0,1-.822-.548,1.64,1.64,0,0,1-.274-1V51.361a1.84,1.84,0,0,1,.274-1A.912.912,0,0,1,14.2,49.9h9.13a1.143,1.143,0,0,1,.822.457,1.84,1.84,0,0,1,.274,1v8.4a1.841,1.841,0,0,1-.274,1c-.091.091-.365.548-.822.548H19.948A23.122,23.122,0,0,0,17.3,61.221Zm3.1-11.23H14.287a.921.921,0,0,0-.73.457,1.64,1.64,0,0,0-.274,1v8.308a1.542,1.542,0,0,0,.274.913.871.871,0,0,0,.73.457H23.6a.777.777,0,0,0,.73-.457,1.542,1.542,0,0,0,.274-.913v-8.4a1.84,1.84,0,0,0-.274-1,.871.871,0,0,0-.73-.457C22.413,49.991,21.408,49.991,20.4,49.991ZM17.3,61.039H14.287a.851.851,0,0,1-.639-.365,1.357,1.357,0,0,1-.183-.822V51.543a1.823,1.823,0,0,1,.183-.822.851.851,0,0,1,.639-.365h9.221a.851.851,0,0,1,.639.365,1.357,1.357,0,0,1,.183.822v8.4a1.823,1.823,0,0,1-.183.822.851.851,0,0,1-.639.365H19.674A20.635,20.635,0,0,0,17.3,61.039Zm3.1-10.865H14.287a.654.654,0,0,0-.548.365,1.227,1.227,0,0,0-.183.822v8.308a2.18,2.18,0,0,0,.183.822c.091.091.274.365.548.365h9.221a.654.654,0,0,0,.548-.365,1.227,1.227,0,0,0,.183-.822v-8.4a1.823,1.823,0,0,0-.183-.822c-.091-.091-.274-.365-.548-.365C22.5,50.174,21.5,50.174,20.4,50.174Zm2.83,10.591H16.661V58.026h7.3v1.826a.873.873,0,0,1-.183.639l-.183.365Zm-6.482-.091H23.6l.183-.274a1.8,1.8,0,0,0,.183-.639V58.026H16.843v2.648Zm-.274.091H14.1l-.183-.365a.873.873,0,0,1-.183-.639V54.191h2.739v6.574ZM14.1,60.674h2.374V54.282H13.83v5.478a1.064,1.064,0,0,0,.183.639Zm2.83-.183V58.208h6.756v1.552a.772.772,0,0,1-.183.548l-.091.183H16.935Zm.091-2.283V60.4h6.482l.091-.183a3.954,3.954,0,0,0,.091-.456V58.208Zm-.73,2.283H14.287l-.091-.183c0-.091-.183-.274-.183-.548v-5.3H16.3v6.026Zm-2.009,0H16.3V54.556H14.1v5.3a1.108,1.108,0,0,0,.091.457Zm9.678-2.739H16.752v-7.3h2.009v4.109a.489.489,0,0,0,.457.457h2.374a.489.489,0,0,0,.457-.457V50.448h1.643l.183.365a.873.873,0,0,1,.183.639v6.3Zm-7.213-.091h7.213V51.452a.772.772,0,0,0-.183-.548l-.183-.365H22.048v4.017a.489.489,0,0,1-.457.457H19.217a.489.489,0,0,1-.457-.457V50.539H16.843v6.574Zm7.03-.183H17.026V50.722h1.461v3.835a.686.686,0,0,0,.639.639H21.5a.686.686,0,0,0,.639-.639V50.722h1.278l.091.183a.684.684,0,0,1,.091.457v6.117Zm-6.756,0h6.665V51.452A3.954,3.954,0,0,0,23.6,51l-.091-.183H22.321v3.743a.72.72,0,0,1-.73.73H19.217a.72.72,0,0,1-.73-.73V50.722H17.026v6.756Zm4.748-2.739H19.035V50.448h2.739Zm-2.739-.091h2.648v-4.2H19.035Zm2.465-.183H19.217V50.63H21.5Zm-2.191,0H21.5V50.722H19.309Zm-2.83-.457H13.739V51.452a.772.772,0,0,1,.183-.548l.183-.365h2.374Zm-2.648-.091h2.648V50.539H14.1l-.183.274c0,.091-.183.274-.183.548v2.556Zm2.465-.183H14.013V51.452A1.858,1.858,0,0,1,14.1,51l.091-.183h2.1v2.922Zm-2.283,0H16.2V50.813H14.287L14.2,51a3.954,3.954,0,0,0-.091.457v2.283Z" transform="translate(-13.1 -49.9)" fill="#2c4349"/>
      </g>
    </g>
    <g id="Group_11653" data-name="Group 11653" transform="translate(1.808 34.695)">
      <g id="Group_11651" data-name="Group 11651" transform="translate(0.109 0.091)">
        <path id="Path_249" data-name="Path 249" d="M15.2,74.462c0,.091.091.183.183.274a.335.335,0,0,0,.274.091H34.647c.091,0,.183-.091.274-.091a.335.335,0,0,0,.091-.274c0-.091-.091-.183-.091-.274-.091-.091-.183-.183-.274-.091H15.565A.393.393,0,0,0,15.2,74.462Z" transform="translate(-15.2 -74.005)" fill="#2c4349"/>
        <path id="Path_250" data-name="Path 250" d="M15.657,74.822a.335.335,0,0,1-.274-.091c-.091-.091-.183-.183-.183-.274h0c0-.183.183-.457.365-.457H34.647c.091,0,.183.091.274.091a.335.335,0,0,1,.091.274c0,.091-.091.183-.091.274a.335.335,0,0,1-.274.091h0l-18.991.091Zm-.091-.73c-.183,0-.274.274-.274.365h0c0,.091.091.183.183.274a.335.335,0,0,0,.274.091H34.739a.389.389,0,0,0,.274-.639c-.091-.091-.183-.183-.274-.091H15.565Z" transform="translate(-15.2 -74)" fill="#2c4349"/>
      </g>
      <g id="Group_11652" data-name="Group 11652">
        <path id="Path_251" data-name="Path 251" d="M15.648,74.9a.549.549,0,0,1-.365-.091.474.474,0,0,1-.183-.365h0c0-.274.183-.548.365-.548H34.547a.646.646,0,0,1,.548.548.692.692,0,0,1-.183.365c-.091.091-.183.091-.274.183h0L15.648,74.9Zm-.091-.73c-.091,0-.183.183-.183.274h0c0,.091.091.091.091.183a.283.283,0,0,0,.183.091H34.639c.091,0,.183,0,.183-.091.091-.091.091-.091.091-.183s0-.091-.091-.183-.091-.091-.183-.091H15.557Z" transform="translate(-15.082 -73.9)" fill="#2c4349"/>
        <path id="Path_252" data-name="Path 252" d="M15.646,74.9c-.091,0-.274-.091-.365-.091a.474.474,0,0,1-.183-.365.511.511,0,0,1,.457-.548H34.637a.474.474,0,0,1,.365.183.457.457,0,0,1,0,.73.549.549,0,0,1-.365.091H15.646Zm18.991-1H15.463c-.183.091-.457.274-.365.548,0,.091.091.183.183.274a.335.335,0,0,0,.274.091H34.546c.091,0,.183-.091.274-.183a.457.457,0,0,0,0-.73C34.911,73.991,34.819,73.9,34.637,73.9Zm-18.991.822c-.091,0-.091,0-.183-.091s-.091-.091-.091-.183a.692.692,0,0,1,.183-.365H34.637a.323.323,0,0,1,.274.274c0,.091,0,.183-.091.183-.091.091-.091.091-.183.091h0Zm-.091-.548c-.091,0-.183.183-.183.274s.091.091.091.183a.283.283,0,0,0,.183.091H34.637c.091,0,.183,0,.183-.091.091-.091.091-.091.091-.183s0-.091-.091-.183l-.091-.091H15.555Z" transform="translate(-15.08 -73.9)" fill="#2c4349"/>
      </g>
    </g>
    <g id="Group_11656" data-name="Group 11656" transform="translate(28.833 34.695)">
      <g id="Group_11654" data-name="Group 11654" transform="translate(0.109 0.091)">
        <path id="Path_253" data-name="Path 253" d="M44.8,74.462c0,.183.274.365.457.365H76.39c.091,0,.183-.091.274-.091a.335.335,0,0,0,.091-.274c0-.091-.091-.183-.091-.274-.091-.091-.183-.183-.274-.091H45.165A.393.393,0,0,0,44.8,74.462Z" transform="translate(-44.8 -74.005)" fill="#2c4349"/>
        <path id="Path_254" data-name="Path 254" d="M45.257,74.822a.335.335,0,0,1-.274-.091c-.091-.091-.183-.183-.183-.274h0c0-.183.183-.457.365-.457H76.39c.091,0,.183.091.274.091a.335.335,0,0,1,.091.274c0,.091-.091.183-.091.274a.335.335,0,0,1-.274.091h0l-31.134.091Zm-.457-.365c0,.091.091.183.183.274a.335.335,0,0,0,.274.091H76.39a.366.366,0,1,0,0-.73H45.165a.393.393,0,0,0-.365.365Z" transform="translate(-44.8 -74)" fill="#2c4349"/>
      </g>
      <g id="Group_11655" data-name="Group 11655" transform="translate(0)">
        <path id="Path_255" data-name="Path 255" d="M45.257,74.9a.335.335,0,0,1-.274-.091.474.474,0,0,1-.183-.365h0a.579.579,0,0,1,.457-.548H76.482a.692.692,0,0,1,.365.183.457.457,0,0,1,0,.73c-.091.091-.183.091-.365.183h0L45.257,74.9Zm-.365-.457c0,.091.091.091.091.183.091.091.091.091.183.091H76.3c.091,0,.183,0,.183-.091.091-.091.091-.091.091-.183s0-.091-.091-.183-.091-.091-.183-.091H45.165A.412.412,0,0,0,44.891,74.448Z" transform="translate(-44.691 -73.9)" fill="#2c4349"/>
        <path id="Path_256" data-name="Path 256" d="M45.246,74.9c-.091,0-.183-.091-.274-.091a.474.474,0,0,1-.183-.365.511.511,0,0,1,.457-.548H76.563a.518.518,0,0,1,.365.913,1.606,1.606,0,0,1-.548.091H45.246Zm31.134-1H45.063a.45.45,0,0,0-.365.548c0,.091.091.274.183.274a.549.549,0,0,0,.365.091H76.38c.091,0,.183-.091.274-.183a.474.474,0,0,0,.183-.365.692.692,0,0,0-.183-.365C76.654,73.991,76.563,73.9,76.38,73.9Zm-31.134.822c-.091,0-.091,0-.183-.091s-.091-.091-.091-.183h0a.489.489,0,0,1,.274-.365H76.471a.323.323,0,0,1,.274.274c0,.091,0,.091-.091.183s-.091.091-.183.091h0l-31.225.091Zm-.274-.274c0,.091.091.091.091.183.091,0,.091.091.183.091H76.38c.091,0,.091,0,.183-.091s.091-.091.091-.183,0-.091-.091-.183l-.091-.091H45.155c-.091,0-.183.183-.183.274Z" transform="translate(-44.68 -73.9)" fill="#2c4349"/>
      </g>
    </g>
    <g id="Group_11659" data-name="Group 11659" transform="translate(12.011 39.077)">
      <g id="Group_11657" data-name="Group 11657" transform="translate(0.132 0)">
        <path id="Path_257" data-name="Path 257" d="M28.135,78.983c-.091-.091-.183-.183-.274-.183-.183,0-.274.183-.365.274l-1.1,4.474v.365c.091.091.183.183.274.183A.335.335,0,0,0,26.948,84c.091-.091.183-.183.183-.274l1.1-4.474C28.317,79.257,28.226,79.074,28.135,78.983Z" transform="translate(-26.4 -78.709)" fill="#2c4349"/>
        <path id="Path_258" data-name="Path 258" d="M26.765,84.087h0c-.183,0-.274-.091-.274-.183a.278.278,0,0,1,0-.365l1.1-4.474c0-.183.183-.274.365-.365.091,0,.183.091.274.183h0a.549.549,0,0,1,.091.365l-1.1,4.474c0,.091-.091.183-.183.274A.335.335,0,0,1,26.765,84.087Zm1.1-5.2c-.183,0-.274.183-.365.274l-1.1,4.382V83.9c.091.091.091.183.183.183A.335.335,0,0,0,26.857,84c.091-.091.183-.183.183-.274l1.1-4.474a.335.335,0,0,0-.091-.274C28.043,78.883,27.952,78.883,27.861,78.883Z" transform="translate(-26.4 -78.7)" fill="#2c4349"/>
      </g>
      <g id="Group_11658" data-name="Group 11658">
        <path id="Path_259" data-name="Path 259" d="M26.759,84.178h0c-.183,0-.274-.091-.365-.274a.415.415,0,0,1,0-.457l1.1-4.382c0-.183.274-.365.457-.365a.474.474,0,0,1,.365.183h0a.4.4,0,0,1,.091.457l-1.1,4.474c0,.091-.091.183-.183.274A.69.69,0,0,1,26.759,84.178Zm1.1-5.2c-.091,0-.183.091-.274.183l-1.1,4.382v.274l.183.183c.091,0,.091,0,.183-.091s.091-.091.091-.183l1.1-4.474c0-.091,0-.183-.091-.183C28.037,78.974,27.946,78.974,27.854,78.974Z" transform="translate(-26.262 -78.7)" fill="#2c4349"/>
        <path id="Path_260" data-name="Path 260" d="M26.753,84.269h-.091A.292.292,0,0,1,26.387,84a.415.415,0,0,1,0-.456l1.1-4.382c0-.183.274-.365.457-.365a.474.474,0,0,1,.365.183c.091.183.183.274.091.457L27.3,83.9a.489.489,0,0,1-.274.365C26.935,84.178,26.844,84.269,26.753,84.269Zm1.1-5.569a.607.607,0,0,0-.457.365l-1.1,4.474c-.091.183,0,.274,0,.456l.274.274a.549.549,0,0,0,.365-.091c.091-.091.183-.183.183-.274l1.1-4.474a.549.549,0,0,0-.091-.365C28.122,78.791,27.94,78.7,27.848,78.7Zm-1.1,5.3h0a.2.2,0,0,1-.183-.183.171.171,0,0,1,0-.274l1.1-4.474c0-.091.183-.183.274-.274h0a.319.319,0,0,1,.183.091.335.335,0,0,1,.091.274l-1.1,4.474c0,.091-.091.091-.183.183C26.844,84,26.753,84,26.753,84Zm1.1-5.022a.2.2,0,0,0-.183.183l-1.1,4.382v.274c0,.091.091.091.183.091s.091,0,.183-.091.091-.091.091-.183l1.1-4.474a.283.283,0,0,0-.091-.183Z" transform="translate(-26.256 -78.7)" fill="#2c4349"/>
      </g>
    </g>
    <g id="Group_11662" data-name="Group 11662" transform="translate(2.556 41.268)">
      <g id="Group_11660" data-name="Group 11660" transform="translate(0.091 0.183)">
        <path id="Path_261" data-name="Path 261" d="M16,81.665c0,.183.274.365.457.365h5.569a.323.323,0,0,0,.365-.365c0-.091-.091-.183-.091-.274s-.183-.091-.274-.091H16.365A.393.393,0,0,0,16,81.665Z" transform="translate(-16 -81.3)" fill="#2c4349"/>
        <path id="Path_262" data-name="Path 262" d="M16.457,82.122c-.183,0-.457-.183-.457-.365h0c0-.183.183-.457.365-.457h5.661a.323.323,0,0,1,.365.365c0,.091-.091.183-.091.274a.335.335,0,0,1-.274.091l-5.569.091ZM16,81.665c0,.183.274.365.365.365h5.569a.389.389,0,0,0,.274-.639.283.283,0,0,0-.183-.091H16.365c-.183,0-.365.274-.365.365Z" transform="translate(-16 -81.3)" fill="#2c4349"/>
      </g>
      <g id="Group_11661" data-name="Group 11661">
        <path id="Path_263" data-name="Path 263" d="M16.448,82.2a.674.674,0,0,1-.548-.457h0a.511.511,0,0,1,.457-.548h5.661a.365.365,0,0,1,.365.183.474.474,0,0,1,.183.365.692.692,0,0,1-.183.365c-.091.091-.183.091-.365.183L16.448,82.2Zm-.365-.548a.412.412,0,0,0,.274.274h5.569c.091,0,.183,0,.183-.091.091-.091.091-.091.091-.183s0-.091-.091-.183-.091-.091-.183-.091H16.265S16.083,81.565,16.083,81.657Z" transform="translate(-15.9 -81.109)" fill="#2c4349"/>
        <path id="Path_264" data-name="Path 264" d="M16.448,82.2c-.183,0-.548-.183-.548-.457a.511.511,0,0,1,.457-.548h5.661c.091,0,.183.091.365.183a.457.457,0,0,1,0,.73c-.091.091-.274.091-.365.183h0L16.448,82.2Zm-.091-1a.511.511,0,0,0-.457.548.489.489,0,0,0,.457.456h5.569c.091,0,.183-.091.274-.183a.474.474,0,0,0,.183-.365.692.692,0,0,0-.183-.365c-.091-.091-.183-.183-.274-.183h0Zm.091.73a.489.489,0,0,1-.365-.274h0a.489.489,0,0,1,.274-.365h5.661c.091,0,.091,0,.183.091a.228.228,0,0,1,0,.365c0,.183-.091.183-.183.183Zm-.274-.274c0,.091.183.183.274.274h5.569c.091,0,.091,0,.183-.091s.091-.091.091-.183,0-.091-.091-.183-.091-.091-.183-.091H16.357C16.265,81.374,16.174,81.557,16.174,81.648Z" transform="translate(-15.9 -81.1)" fill="#2c4349"/>
      </g>
    </g>
    <g id="Group_11665" data-name="Group 11665" transform="translate(17.439 41.36)">
      <g id="Group_11663" data-name="Group 11663" transform="translate(0.091 0.091)">
        <path id="Path_265" data-name="Path 265" d="M32.3,81.665c0,.183.274.365.457.365h5.569a.323.323,0,0,0,.365-.365c0-.091-.091-.183-.091-.274s-.183-.091-.274-.091H32.665A.393.393,0,0,0,32.3,81.665Z" transform="translate(-32.3 -81.3)" fill="#2c4349"/>
        <path id="Path_266" data-name="Path 266" d="M32.757,82.122c-.183,0-.457-.183-.457-.365h0c0-.183.183-.457.365-.457h5.661c.091,0,.183.091.274.091a.335.335,0,0,1,.091.274c0,.091-.091.183-.091.274a.335.335,0,0,1-.274.091h0l-5.569.091Zm-.365-.457a.393.393,0,0,0,.365.365h5.569c.091,0,.183,0,.183-.091a.366.366,0,0,0-.274-.639H32.574c-.091,0-.274.274-.183.365Z" transform="translate(-32.3 -81.3)" fill="#2c4349"/>
      </g>
      <g id="Group_11664" data-name="Group 11664">
        <path id="Path_267" data-name="Path 267" d="M32.748,82.2a.579.579,0,0,1-.548-.457h0a.511.511,0,0,1,.457-.548h5.661a.692.692,0,0,1,.365.183.474.474,0,0,1,.183.365.692.692,0,0,1-.183.365c-.091.091-.183.091-.274.183h-.091L32.748,82.2Zm-.274-.548a.412.412,0,0,0,.274.274h5.569c.091,0,.183,0,.183-.091.091-.091.091-.091.091-.183s0-.091-.091-.183a.283.283,0,0,0-.183-.091H32.657c-.091,0-.274.183-.183.274Z" transform="translate(-32.2 -81.2)" fill="#2c4349"/>
        <path id="Path_268" data-name="Path 268" d="M32.748,82.2a.592.592,0,0,1-.548-.457.511.511,0,0,1,.457-.548h5.661a.518.518,0,0,1,.365.913c-.091.091-.183.091-.274.183h-.091L32.748,82.2Zm-.091-1a.511.511,0,0,0-.457.548.586.586,0,0,0,.457.457h5.661c.091,0,.183-.091.274-.091a.474.474,0,0,0,.183-.365.692.692,0,0,0-.183-.365c-.091-.091-.183-.183-.274-.183H32.657Zm.091.73h0c-.183,0-.274-.183-.365-.274h0a.489.489,0,0,1,.274-.365h5.661a.323.323,0,0,1,.274.274c0,.091,0,.183-.091.183,0,.183-.091.183-.183.183H32.748Zm-.274-.274c0,.091.183.183.274.183h5.569c.091,0,.091,0,.183-.091s.091-.091.091-.183,0-.091-.091-.183-.091-.091-.183-.091H32.657a.692.692,0,0,0-.183.365Z" transform="translate(-32.2 -81.2)" fill="#2c4349"/>
      </g>
    </g>
  </g>
  <g id="Group_11668" data-name="Group 11668" transform="translate(70.165)">
    <g id="Group_11667" data-name="Group 11667">
      <path id="Path_269" data-name="Path 269" d="M87.669,5.477H87.4c-5.843-.822-9.4-2.1-10.317-3.652A1.338,1.338,0,0,1,76.9.729C77.717-.64,80.456.273,81,.455h0A49.575,49.575,0,0,1,89.5,4.108a.474.474,0,0,1,.183.365c0,.183,0,.274-.091.365A2.842,2.842,0,0,1,87.669,5.477ZM77.717,1.095c0,.091,0,.183.183.365.456.548,2.191,2.1,9.587,3.1a3.145,3.145,0,0,0,.822-.091,51.014,51.014,0,0,0-7.578-3.1C79.543.912,78.083.729,77.717,1.095Z" transform="translate(-76.85 0.012)" fill="#2c4349"/>
    </g>
  </g>
</svg>
