<svg xmlns="http://www.w3.org/2000/svg" width="214.225" height="149.834" viewBox="0 0 214.225 149.834">
  <g id="Group_11472" data-name="Group 11472" transform="translate(-194.162 -353.733)">
    <g id="Group_11468" data-name="Group 11468" transform="translate(194.665 503.064) rotate(-90)">
      <path id="Path_94" data-name="Path 94" d="M122.063,207.575s-2.115-18.935-2.679-26.663a47.29,47.29,0,0,1,.543-9.3c.738-3.808,4.1-10.92,4.941-14.7,1.849-8.292,3.155-25.294,3.888-33.757.223-2.568.109-7.763.6-10.293,1.351-6.941,9.062-26.791,9.062-26.791s6.135-16.273,7.567-21.88a46.742,46.742,0,0,0,1.56-9.239c-.018-.947-.178-2.972-.772-3.71a9.98,9.98,0,0,0-6-2.682,7.379,7.379,0,0,0-3.785,2.11c-2.3,2.712-3.551,10.048-4.779,13.382-1.055,2.862-3.2,8.572-4.331,11.408-1.4,3.518-5.815,13.987-5.815,13.987l-6.758,11.6-1.7-.766L112.9,95.24s3.135-22.3,4.07-29.748c.841-6.693,2.419-20.093,3.066-26.808.4-4.1,2.529-12.49,1.292-16.417a10.753,10.753,0,0,0-3.888-4.725,9.947,9.947,0,0,0-5.478-.32,8.627,8.627,0,0,0-3.314,2.555c-.818,1.188-1.351,4.116-1.657,5.525-1.144,5.294-2.057,16.119-2.919,21.465-.893,5.542-3.262,16.525-4.121,22.072-.651,4.2-2.081,16.889-2.081,16.889L96.773,87.97l-1.4-3.527S96.406,69.59,96.527,64.63c.147-6.082-.391-18.253-.245-24.336.152-6.235,1.092-18.678,1.455-24.9.155-2.657,1.329-8.061.621-10.625a7.873,7.873,0,0,0-2.122-3.123A12.852,12.852,0,0,0,91.043.007a7.77,7.77,0,0,0-3.573.68c-1.332.888-2.955,3.85-3.523,5.347-1.754,4.63-2.305,14.678-2.8,19.6-.526,5.24-.921,15.772-1.229,21.03-.145,2.49-.436,7.47-.582,9.96-.271,4.649-.539,13.97-1.086,18.595-.227,1.913-1.36,7.583-1.36,7.583l-2.077,1.1L72.02,82.634S70.61,79.1,70.31,77.869c-1.234-5.048-2.185-15.436-2.789-20.6-.907-7.748-2.256-23.295-3.07-31.053-.241-2.294-.644-6.892-1.017-9.166a32.283,32.283,0,0,0-.789-3.6c-.321-.979-.918-3.058-1.668-3.763a6.2,6.2,0,0,0-2.5-.924,15.624,15.624,0,0,0-3.673.12A9.787,9.787,0,0,0,51.248,9.9a9.568,9.568,0,0,0-2.053,3.768c-.656,2.291-.522,7.134-.556,9.518-.065,4.479.381,13.434.535,17.912.2,5.789.552,17.372.91,23.153.328,5.282,1.787,21.094,1.787,21.094L50.813,99.831l-1.5,14.349-2.807,6.279-1.574.352S38.3,110.2,35.981,106.738C33.7,103.326,29.527,96.128,26.55,93.3c-2.935-2.782-10.009-6.959-13.714-8.575-1.869-.816-5.891-2.606-7.873-2.127C3.344,82.995.39,85.462.037,87.09c-.315,1.454,1.476,4.261,2.346,5.468,1.363,1.889,5.5,4.379,6.969,6.182,3.442,4.217,8.586,13.921,10.893,18.851,2.124,4.543,4.867,14.252,6.9,18.838,2.484,5.616,8.2,16.516,11.388,21.767,3.06,5.041,9.48,14.961,13.067,19.644,1.152,1.5,4.122,4.013,5,5.691,2.865,5.489,5.924,24.044,5.924,24.044l24.951,3.689Z" transform="translate(1.282 1.961)" fill="none" stroke="silver" stroke-linecap="round" stroke-linejoin="bevel" stroke-width="1"/>
      <g id="Group_11461" data-name="Group 11461" transform="translate(0 0)">
        <path id="Path_114" data-name="Path 114" d="M11.077,12.038c.147,2.541-2.132,4.74-5.022,4.906l-.106.006c-2.89.166-5.351-1.76-5.5-4.3L.007,4.919C-.14,2.378,2.084.182,4.974.016L5.08.01c2.89-.167,5.406,1.756,5.552,4.3Z" transform="translate(51.631 6.596)" fill="#fff9f7" stroke="silver" stroke-width="1"/>
        <path id="Path_115" data-name="Path 115" d="M10.614,12.832c-.238,2.535-2.823,4.365-5.705,4.093l-.106-.01C1.922,16.644-.221,14.369.018,11.834l.726-7.71C.983,1.59,3.512-.245,6.394.027L6.5.037c2.881.271,5.078,2.551,4.84,5.086Z" transform="translate(86.862)" fill="#fff9f7" stroke="silver" stroke-width="1"/>
        <path id="Path_116" data-name="Path 116" d="M10.531,13.242c-.47,2.5-3.213,4.087-6.057,3.553l-.1-.02c-2.844-.534-4.77-3-4.3-5.5L1.5,3.665c.47-2.5,3.158-4.1,6-3.562l.106.019c2.844.535,4.823,3.007,4.353,5.509Z" transform="translate(110.184 17.067)" fill="#fff9f7" stroke="silver" stroke-width="1"/>
        <path id="Path_117" data-name="Path 117" d="M9.754,12.266c-.435,2.317-2.974,3.785-5.609,3.29l-.1-.019A4.588,4.588,0,0,1,.066,10.445L1.39,3.4A4.592,4.592,0,0,1,6.949.1l.1.019c2.634.494,4.468,2.784,4.032,5.1Z" transform="translate(137.499 48.575)" fill="#fff9f7" stroke="silver" stroke-width="1"/>
        <path id="Path_118" data-name="Path 118" d="M14.49,6.7a4.925,4.925,0,0,1,.712,6.9l-.062.073a4.884,4.884,0,0,1-6.894.359L1.829,8.566A4.885,4.885,0,0,1,1.084,1.7l.062-.074a4.927,4.927,0,0,1,6.927-.4Z" transform="translate(0 83.827)" fill="#fff9f7" stroke="silver" stroke-width="1"/>
      </g>
    </g>
    <text id="fit_REVIEW" data-name="fit REVIEW" transform="translate(333 434)" fill="silver" font-size="28" font-family="SegoeUI, Segoe UI" letter-spacing="0.167em"><tspan x="-6.59" y="0">R</tspan></text>
  </g>
</svg>
