<svg xmlns="http://www.w3.org/2000/svg" width="121.145" height="121" viewBox="0 0 121.145 157.524">
  <g id="Group_2" data-name="Group 2" transform="translate(0.321 0.325)">
    <path id="Stroke_1" data-name="Stroke 1" d="M4.609,116.673l.08-.452-.107-.453.008-.453.113-.452-.12-.453.03-.454.013-.454-.053-.454.131-.455-.115-.454.013-.455.045-.455-.088-.455.128-.455-.093-.452.036-.452.076-.452-.133-.453.01-.453-.032-.454.088-.453-.06-.454.031-.454.015-.454v-.455l.039-.455-.033-.452-.072-.454.09-.454-.023-.454-.03-.455.034-.454.065-.456-.032-.456-.071-.457.084-.456-.028-.457L4.6,99.415v-.457l.007-.458.075-.457-.1-.459.07-.458.019-.459-.086-.458-.017-.459.062-.459-.073-.459.06-.459.047-.459.02-.459L4.6,93l.049-.458-.083-.458.092-.457-.045-.457-.005-.457L4.6,90.254l.041-.456.042-.455-.106-.455.047-.455-.045-.455.1-.456-.1-.455.059-.455.045-.455L4.657,85.7l-.045-.452L4.577,84.8l.1-.45-.013-.453-.087-.456.056-.455-.03-.457.008-.457.037-.456.083-.455.049-.457-.037-.459-.005-.458-.015-.458.018-.457.075-.454L4.8,77.957l-.05-.455-.021-.455.058-.457-.112-.455-.028-.457v-.457l.054-.459L4.7,74.3l.021-.457-.07-.454.032-.459-.149-.45.013-.459.05-.462-.05-.457-.182-.445L4.331,70.2l.079-.469L4.3,69.283l.029-.467-.171-.442.048-.471-.142-.445L4.052,67l-.136-.445L3.8,66.1l-.094-.45L3.64,65.2l-.062-.457-.085-.452,0-.472-.14-.441-.117-.438L3.1,62.5,3,62.06l-.054-.454-.209-.417.014-.469L2.544,60.3l-.083-.447-.11-.441-.042-.455-.076-.449-.054-.453-.118-.44L2,57.167l-.183-.427L1.7,56.3l-.052-.453-.08-.448-.118-.441L1.411,54.5l-.118-.441.019-.466-.151-.436L1.17,52.7l-.132-.44L1.021,51.8.869,51.36l.044-.467-.122-.442L.7,50,.653,49.55.615,49.1l-.053-.452L.455,48.2l-.071-.451.066-.465-.089-.449.026-.459-.166-.444-.034-.455.072-.462-.047-.454-.055-.453L.2,43.648.114,43.2l-.043-.455-.028-.455.026-.456.023-.456-.086-.455,0-.456L0,40.006l.045-.455L.135,39.1l.011-.455-.016-.456.014-.455.037-.453.006-.455.021-.459.167-.445-.01-.462L.423,35l-.008-.465.029-.461.118-.449.055-.456.059-.454.011-.462.21-.431.021-.461.122-.444.067-.453.115-.445.006-.466.154-.435.106-.445.042-.462.124-.442,0-.465.229-.421.059-.454.082-.45-.086-.47.1-.447.018-.454,0-.455.149-.45.018-.457-.071-.46.086-.459-.055-.449.054-.449-.049-.45L2.18,20.53l-.027-.452.1-.447-.049-.454.146-.444-.1-.459.161-.442-.046-.457.077-.449.021-.452.081-.449-.013-.457.067-.45.1-.447.052-.451-.042-.461.07-.45.075-.449L2.834,12.4l.154-.438.045-.452-.06-.464.177-.433.06-.449L3.168,9.7l.052-.448.152-.433.07-.444-.054-.466.145-.435.057-.445L3.708,6.6l.056-.444L3.73,5.7l.1-.454L3.965,4.8l.029-.464.1-.454.1-.45.155-.438.072-.458.052-.465.2-.422.215-.413L4.913.751l.21-.412L5.42,0" transform="translate(9.825 25.205)" fill="none" stroke="#f7bfa0" stroke-miterlimit="10" stroke-width="0.63"/>
    <path id="Stroke_2" data-name="Stroke 2" d="M.341,11.058l.3.326.175.432L.8,12.286l.161.452-.108.469.067.465-.06.454-.033.455.018.455.059.459-.1.451L.774,16.4l.066.462-.108.452.006.459-.118.452.13.466-.109.449.025.457,0,.456-.043.455-.134.45.055.46-.115.452.028.461.076.464-.161.452-.036.459.109.467-.1.457-.065.459.035.464-.041.46-.046.459-.034.459.1.464,0,.459-.114.452L.12,28.76l.031.459.058.459-.045.455-.033.454-.081.452.028.461,0,.461L.04,32.42l.11.461-.088.461L.049,33.8l.122.462-.123.461.077.465,0,.464L0,36.118l.077.467,0,.466v.465l0,.464-.045.462.023.461v.461L0,39.827l.116.456-.109.464.049.461.207.427.283.216.2-.407.084-.453.035-.462-.021-.464L.869,39.6l.05-.442.021-.44.066-.441.011-.442.016-.443-.077-.447.108-.437-.094-.446.073-.44.1-.442-.071-.449.1-.443-.04-.447L1.092,33.4l.054-.444.021-.445-.047-.446-.014-.445.158-.444-.049-.445-.037-.445.029-.443.059-.442-.02-.458.016-.458-.144-.454.052-.459-.085-.456.069-.461.05-.458-.018-.457-.029-.457-.116-.455-.023-.459.021-.459.071-.461-.076-.458.026-.457-.011-.457.013-.458,0-.458L.98,20.7l-.043-.46.055-.458L1,19.321l-.05-.461L1.1,18.4l-.06-.462L1,17.476l.106-.459-.027-.464.011-.462.057-.461L1.1,15.163l.075-.459.022-.46.021-.464.129-.455.013-.464.045-.46.05-.461L1.4,11.474l-.007-.465.131-.455-.044-.471.066-.461.02-.463L1.7,8.707l.023-.462.021-.462.055-.46.064-.459L1.845,6.4V5.936l.086-.457-.062-.467.117-.454L1.971,4.1l-.047-.462.13-.433-.023-.442.019-.44L2.192,1.9l.045-.437.14-.415L2.422.6,2.756.287,3.05,0" transform="translate(18.631 13.978)" fill="none" stroke="#f7bfa0" stroke-miterlimit="10" stroke-width="0.63"/>
    <path id="Stroke_3" data-name="Stroke 3" d="M0,5.031l.372.122.351.275.1.44.169.407L1.11,6.7l.089.437-.063.45.031.438.108.44L1.2,8.911l.141.461-.152.461.139.461-.151.461.052.462.045.461-.006.461-.084.457-.039.457-.011.456.037.457-.043.454.014.455-.005.455.047.456-.068.457.031.458-.006.459.049.459v.456l.015.46L1.216,19l-.045.467.076.446.1.445.009.449-.015.449v.9l.068.444-.071.449-.007.447.006.447.019.447.03.447,0,.447.04.445-.01.445v.445l.087.445-.071.447.093.447L1.4,28.4l-.044.449L1.4,29.3l.015.45-.06.447.011.449.1.452-.057.45L1.419,32l-.087.461.007.464.075.464-.09.466.137.463.02.463-.037.464-.033.464-.058.465.008.463.114.46.011.462-.022.462.043.462.021.462-.019.464-.038.464.1.458-.006.466.1.458-.049.461.077.459.121.4.278.3.248-.273.156-.427.043-.44.042-.442.019-.444L2.5,40.4,2.5,39.96l-.031-.443.023-.445.01-.444.035-.445-.094-.438-.05-.441.065-.444-.076-.442-.029-.445.072-.45.031-.449-.036-.446-.009-.447-.059-.443-.06-.441.075-.447-.05-.441L2.3,31.969l-.086-.451.036-.457-.074-.449-.016-.454-.17-.433.024-.457-.1-.44.033-.456-.129-.438-.052-.447.068-.457L1.8,26.58l-.164-.441.012-.453.074-.455-.1-.447.02-.453-.1-.449.122-.456-.089-.449-.043-.45.083-.454-.036-.453-.1-.453.079-.455.028-.454-.089-.45.115-.455L1.557,18.9l-.082-.452-.023-.458.093-.457-.077-.46.1-.459-.033-.459-.009-.459-.042-.459,0-.459-.017-.459.086-.459.066-.459v-.462l-.015-.462-.057-.462.035-.46.055-.459L1.6,10.633l0-.458.086-.457L1.6,9.258,1.591,8.8l.1-.457L1.68,7.883l-.043-.459.043-.456.025-.459L1.7,6.05,1.774,5.6l-.032-.459.077-.455.037-.454L1.8,3.771l.049-.452-.066-.454.079-.449-.006-.458.091-.447.233-.406L2.312.68,2.475.256,2.841,0" transform="translate(25.635 8.273)" fill="none" stroke="#f7bfa0" stroke-miterlimit="10" stroke-width="0.63"/>
    <path id="Stroke_4" data-name="Stroke 4" d="M0,0,.3.316.5.684l.161.393.18.39.064.427L1,2.315l.173.409-.041.442.116.424.006.437-.017.452.1.442.023.449.077.445.009.45-.04.455.078.444.008.45-.018.454.172.44.04.451-.108.462.133.444.043.45.041.45-.036.455.125.444-.011.454.028.452.025.452.1.442,0,.452.079.449.079.448-.028.461.1.445.144.438.075.448v.457l.084.448-.072.466.11.445.058.452-.005.458.137.44.077.448-.091.463.122.445-.052.461.038.45.106.447.054.453-.083.461.1.449.028.455.011.457.045.457-.053.46.008.459.1.457-.106.454L3.2,27.5l-.074.453.053.451-.092.454.121.45-.1.453.018.451.067.45.059.45-.008.45-.1.452.072.453.022.453.058.452-.1.454.037.45.028.45,0,.45-.021.45.042.448-.033.449-.015.452.047.449.047.447.033.445-.014.45-.009.444.052.443,0,.455-.008.455.062.451-.044.462.116.442.134.433-.014.479.357.2.341-.08.093-.394.06-.4-.043-.456-.012-.454-.056-.45-.005-.453.085-.457.025-.455-.106-.45-.064-.452.106-.46-.006-.457-.069-.455,0-.459L4.2,36.255l.011-.456.045-.459.014-.456-.126-.445.042-.461-.064-.451-.112-.446.063-.462-.095-.448-.1-.448-.031-.452.022-.457-.033-.453-.077-.449-.023-.455L3.685,29l-.07-.451-.005-.457.01-.459-.186-.442.016-.459-.063-.449-.049-.45-.03-.453-.038-.454.088-.463-.081-.452-.117-.45.073-.463-.109-.448,0-.457L3.1,21.74l.013-.459.031-.461L3.1,20.365l-.123-.454,0-.461.062-.464L3,18.523l-.013-.457L2.9,17.612l-.047-.459,0-.46-.045-.457L2.8,15.778l.06-.459-.066-.454.021-.458-.069-.455.075-.459-.089-.455-.011-.456.1-.456-.032-.457-.1-.457.106-.455L2.72,10.3l.122-.455,0-.454L2.78,8.937l-.03-.452-.081-.449.007-.452.044-.452-.028-.45.093-.444L2.87,5.8l.11-.425.1-.427.307-.279" transform="translate(32.952 7.595)" fill="none" stroke="#f7bfa0" stroke-miterlimit="10" stroke-width="0.63"/>
    <path id="Stroke_5" data-name="Stroke 5" d="M0,0,.328.326.635.672l.229.405.143.444.09.457.129.441.141.44.154.442-.006.473.026.465.113.453,0,.467.169.457-.039.45.058.444-.016.452.123.437,0,.45.122.432-.028.453.088.437.106.435.075.44.076.44,0,.45.078.439.144.43v.454l.171.426-.017.459.093.44.025.453.084.442.12.437.132.435L3.2,15.81l.064.446.2.423-.006.457.108.437.024.45.079.441.067.443.063.446.037.446.064.443.014.447.026.444.06.442.1.439.078.442-.032.451.028.447.1.442-.052.453-.03.452.063.445.077.444.093.443-.058.454.009.449.085.442.069.444-.02.45.032.445-.028.454L4.7,29.6l-.046.452.051.442.035.447.132.432-.1.455.136.447.065.455.055.457" transform="translate(40.886 12.4)" fill="none" stroke="#f7bfa0" stroke-miterlimit="10" stroke-width="0.63"/>
    <path id="Stroke_6" data-name="Stroke 6" d="M.211,28.8.2,28.345l.118-.454-.068-.457.06-.457L.246,26.52.2,26.064.18,25.608l.111-.454L.237,24.7l.088-.454-.082-.455.034-.455.057-.454-.076-.457-.016-.456v-.912L.363,20.6l-.034-.456.037-.457-.105-.457.084-.454,0-.454-.078-.454L.3,17.41l.069-.455V16.5l-.037-.457-.079-.457L.3,15.129l0-.457-.042-.455.128-.456L.379,13.3l-.091-.458.063-.457-.084-.459L.38,11.47.4,11.011l-.117-.46-.015-.459.05-.459.111-.46L.4,8.713.278,8.252l.141-.459-.088-.46.023-.46.064-.459.011-.46L.4,5.495.339,5.036l.05-.459,0-.462L.315,3.654.4,3.194l.038-.459L.4,2.277.369,1.821l-.014-.46L.45.905.291.452.329,0" transform="translate(42.815 108.52)" fill="none" stroke="#f7bfa0" stroke-miterlimit="10" stroke-width="0.63"/>
    <path id="Stroke_7" data-name="Stroke 7" d="M2.649,7.82,2.217,7.8l-.459-.033-.323-.338-.41-.188L.668,6.96.5,6.526.256,6.16.135,5.734l0-.488L.077,4.76.006,4.271.12,3.777.06,3.289,0,2.8l.087-.51.066-.5L.317,1.33.481.937.828.694,1.1.372,1.491.21l.4-.122L2.316,0l.429.137.406.147L3.527.5,3.81.835l.281.332.238.369.208.393.02.449.172.454L4.7,3.317l.028.476.127.471.068.474-.03.481-.039.476-.041.421-.067.436-.226.376-.275.338-.3.336L3.5,7.695l-.419.1Z" transform="translate(36.215 9.87)" fill="none" stroke="#2c4349" stroke-miterlimit="10" stroke-width="0.63"/>
    <path id="Stroke_8" data-name="Stroke 8" d="M2.112,7.222l.406-.142.393-.125.377-.176L3.63,6.54l.336-.265.227-.368.087-.423-.044-.432,0-.432-.059-.434.142-.44-.048-.434-.1-.433,0-.437L4.183,2l-.035-.458-.3-.358L3.621.808,3.342.455,2.914.308,2.527.082,2.074,0,1.636.2,1.154.232.808.561.471.888.3,1.326.14,1.762.1,2.226l.053.49L.045,3.2,0,3.694l.06.493-.021.491.035.488L.05,5.64.3,6.047l.162.44.366.291.367.28.444.147Z" transform="translate(21.531 11.56)" fill="none" stroke="#2c4349" stroke-miterlimit="10" stroke-width="0.63"/>
    <path id="Stroke_9" data-name="Stroke 9" d="M1.872,6.025,2.3,5.974l.456-.023.394-.222.3-.335.294-.344.135-.444-.1-.484.154-.471-.067-.486.064-.477L3.878,2.2l.069-.435-.058-.44L3.64.958,3.4.609,3.135.239,2.7.13,2.261,0,1.8.149,1.334.237.983.557.648.87l-.27.38-.12.45-.085.454-.115.4-.018.41L0,3.376l.053.413-.015.405.093.411L.2,5.02l.181.389L.7,5.7l.366.2.379.2Z" transform="translate(15.047 23.504)" fill="none" stroke="#2c4349" stroke-miterlimit="10" stroke-width="0.63"/>
    <path id="Stroke_10" data-name="Stroke 10" d="M2.324,7.844l-.438.071-.391-.2-.363-.214L.786,7.261.529,6.924.244,6.592.106,6.178,0,5.754l.051-.467L.1,4.825.081,4.361.02,3.894.1,3.432l.068-.466L.113,2.493l.114-.462L.221,1.542l.309-.381L.684.7,1.029.357,1.51.25,1.922,0,2.4.032,2.839.05l.44.1.345.289.314.308.227.375.188.4.126.426.017.444-.006.48.1.478-.1.484.074.481-.054.482.149.478v.479l-.107.442-.18.4L4.235,7l-.263.354-.328.314L3.205,7.8l-.433.11Z" transform="translate(28.357 5.577)" fill="none" stroke="#2c4349" stroke-miterlimit="10" stroke-width="0.63"/>
    <path id="Stroke_32" data-name="Stroke 32" d="M8.02,3.313l-.292-.336-.326-.3L7.05,2.4l-.324-.307-.367-.263-.28-.362-.315-.323L5.408.866,5.05.578,4.638.372l-.423-.2L3.746.159,3.289,0,2.819.071l-.462.1-.375.3L1.521.617,1.242,1,.9,1.335.771,1.79l-.317.352-.066.469L.21,3.029l-.195.426.049.465L0,4.376l.131.442.123.435L.3,5.722l.231.4L.8,6.5l.19.425.253.355.263.349.293.332.2.39.261.348.241.418" transform="translate(37.69 56.307)" fill="none" stroke="#f7bfa0" stroke-miterlimit="10" stroke-width="0.63"/>
    <path id="Stroke_36" data-name="Stroke 36" d="M0,25.517l.454-.171.37-.289.341-.329L1.58,24.5l.323-.349.428-.217.35-.317.328-.343.321-.347.334-.328.412-.3-.1-.476-.227-.428.079-.483L3.7,20.462l-.074-.456-.11-.455v-.466l.017-.465.018-.464-.049-.461-.073-.465.043-.465L3.51,16.3l.053-.463.138-.45-.093-.478.095-.459L3.878,14l.02-.469.168-.442.115-.472L4,12.181l-.131-.439-.261-.389-.2-.414L3.272,10.5l-.045-.47-.161-.428-.181-.419-.16-.427-.141-.435L2.423,7.9,2.3,7.456l-.241-.4-.024-.475-.249-.4-.164-.43L1.6,5.274,1.384,4.86,1.315,4.4,1.14,3.971l-.13-.44L.8,3.112.716,2.66.565,2.226.478,1.773.354,1.331.279.878.145.44.024,0" transform="translate(82.16 60.341)" fill="none" stroke="#f7bfa0" stroke-miterlimit="10" stroke-width="0.63"/>
    <path id="Stroke_39" data-name="Stroke 39" d="M0,1.237.284.905l.328-.3L.971.35l.41-.173L1.8.03l.452.064L2.7,0l.421.164L3.581.143l.37.282" transform="translate(82.204 49.317)" fill="none" stroke="#f7bfa0" stroke-miterlimit="10" stroke-width="0.63"/>
    <path id="Stroke_25" data-name="Stroke 25" d="M.116,25.091.1,24.64l-.083-.452.1-.451L.1,23.287l-.076-.45.115-.45.006-.45-.1-.45.053-.45-.065-.45L.1,20.135l.03-.452-.109-.452.078-.451.037-.45-.113-.451.047-.451.028-.452-.007-.453.033-.451L.1,15.62l-.04-.452L0,14.719l.135-.449L.1,13.82l.031-.451-.073-.454.053-.451-.025-.452.033-.452L0,11.108l.02-.453L.043,10.2l0-.454.037-.454.006-.453L.035,8.388l.071-.455V7.477l0-.457L0,6.564l.149-.458,0-.464L.2,5.18l.144-.442.122-.448.192-.423.214-.41.3-.359.175-.44.322-.336.35-.3L2.343,1.7,2.7,1.421l.368-.275.349-.32L3.854.651,4.28.469l.427-.2.47-.038.452-.1L6.09.077l.464.081L7,.083l.45.043.45-.1.45.035L8.8,0l.45.128L9.7.147l.45-.062L10.6.092l.452-.07h.452l.453.03.454.059.452-.028.452-.047.451.081.452-.057.451.04.452.057.452-.123.452-.02.453.014.454,0,.454.061L17.84.042l.452.08.452-.047L19.2.057l.453-.028.454-.006.453.038.453-.038.454.084.45.017L22.365,0l.451.123L23.27.063l.455-.016.453.042.452,0,.454-.066L25.539.1l.454-.029.454.025L26.9.129l.455-.06.455.045.454.013.456-.009.457.019.458.023L30.1.026l.459.117.459.043.474-.015.444.146.406.241.441.135.453.13.362.3.432.193.355.3L34.66,2l.381.278.193.438.311.345.263.383.178.428.258.4.11.455.108.453.032.464.018.461.039.459.053.452.014.452-.049.453-.014.452.1.453-.093.453.086.453-.095.453-.03.454.086.454.02.454L36.57,12l.043.454-.1.455.08.455-.038.454.016.455.035.454-.018.454-.049.454,0,.454.086.454-.1.453.008.454.018.454.005.454.1.453-.033.453-.037.453.006.454-.015.453.064.454-.083.454.008.453-.023.454.022.454-.064.454.024.454.105.454-.05.455.057.455-.1.455.066.455-.041.455-.017.454-.015.455.1.454-.076.454-.05.454.093.454-.027.454.028.454-.064.454.042.454.006.454-.045.455.013.454.059.455-.007.455-.042.455-.037.455.1.455-.021.455.047.454,0,.455-.138.451.013.452.045.453-.071.452.016.454.108.454-.011.454-.045.456-.036.455.1.455-.1.455-.037.454.147.454-.152.453,0,.453.061.453-.006.453.063.453v.453l-.006.454-.054.453.094.454-.152.455,0,.455.016.457.011.456,0,.455-.01.455-.017.454.035.455.113.455-.044.454-.06.455.092.455-.089.456-.03.457.028.456.033.456.037.455-.075.455-.014.455.1.457-.115.457.09.456-.043.456.086.457-.076.453-.059.454.094.455L36.6,58.8l-.039.458.008.456.093.456-.023.456-.071.459.034.458L36.507,62l.154.459-.036.459-.062.458.013.457-.023.459.059.461-.043.462-.055.461.127.469-.108.457-.071.46-.1.455-.26.4-.095.459-.239.4-.247.389-.2.427-.386.282-.278.369-.276.384-.445.185-.353.3-.374.274-.447.139-.408.216-.445.12-.437.152-.462.031-.457.051-.459.122-.45-.106-.45.059-.449,0-.45.043-.45-.077-.45.059-.45.009-.45-.013-.45-.069-.452.04h-.452L24.69,72.1l-.453.063-.452-.076-.452.027-.452.12-.452-.03-.451-.033-.451-.023-.452-.035-.452.062-.453-.069-.454.057-.453.043-.452-.077-.452-.041-.452.079-.453-.074L17,72.145l-.454.09-.454-.059-.453-.062-.453.075-.45-.02-.45-.021-.452.076-.453-.041-.455-.032-.453.076-.453-.021-.453.018-.455-.111-.454.032L10.2,72.2l-.456.035-.455-.007-.454-.045-.454-.078-.457.062-.457.064-.459-.071-.458.06-.463-.077-.453-.1-.452-.082-.466-.038-.438-.156L3.848,71.6l-.424-.193-.4-.232-.319-.35-.425-.21-.3-.358-.266-.381-.288-.356-.363-.31-.2-.421-.249-.4-.145-.444-.19-.427.021-.483L.123,66.6l.007-.466-.113-.46.127-.463-.033-.464-.058-.466L.09,63.82l0-.466-.074-.467.065-.466L0,61.956l.01-.465.106-.467-.026-.468.044-.469-.045-.469" transform="translate(45.621 40.701)" fill="none" stroke="#2c4349" stroke-miterlimit="10" stroke-width="0.63"/>
    <path id="Stroke_26" data-name="Stroke 26" d="M.236,3.394.394,2.91l0-.483L.278,1.945.256,1.46.266.974.286.487.327,0" transform="translate(45.376 75.668)" fill="none" stroke="#f7bfa0" stroke-miterlimit="10" stroke-width="0.63"/>
    <path id="Stroke_27" data-name="Stroke 27" d="M.323,3.329.246,2.855l.1-.474.038-.473L.3,1.432.357.956.336.478.256,0" transform="translate(45.371 88.8)" fill="none" stroke="#f7bfa0" stroke-miterlimit="10" stroke-width="0.63"/>
    <path id="Stroke_29" data-name="Stroke 29" d="M0,0,0,.469.182.89.3,1.336l.243.39.323.328.265.372.321.323.341.3.325.319.441.174.352.285.309.352.425.183.376.26.417.195" transform="translate(77.189 112.853)" fill="none" stroke="#f7bfa0" stroke-miterlimit="10" stroke-width="0.63"/>
    <path id="Stroke_33" data-name="Stroke 33" d="M3.359,6.907l.006-.477L3.3,6l.13-.423,0-.434.069-.427.016-.446.181-.4.219-.379.239-.361.234-.411.338-.328.236-.41.36-.316.243-.407L5.895.907,6.1.474,6.437.13,5.953.161l-.464-.1L5.02.142,4.553.025,4.082,0,3.611,0,3.137.026,2.671.1,2.224.215,1.846.484,1.436.69l-.3.348L.776,1.32.5,1.687l-.214.405-.1.447-.18.427.067.461L0,3.895l.243.4.189.42L.8,5l.327.3.295.347.42.193.29.372.389.231.392.232Z" transform="translate(39.897 66.104)" fill="none" stroke="#f7bfa0" stroke-miterlimit="10" stroke-width="0.63"/>
    <path id="Stroke_34" data-name="Stroke 34" d="M6.7,1.081l-.3.281-.365.266-.377.262L5.423,2.3l-.244.379-.266.362-.277.375L4.5,3.852l-.088.462-.123.45-.2.427-.117.451L4,6.129l-.156.437-.418-.09-.4-.152L2.6,6.26,2.182,6.12l-.329-.292-.324-.284-.35-.259L.953,4.913.734,4.544.445,4.213.329,3.775.056,3.388.02,2.927,0,2.469l.163-.431.072-.449L.48,1.208.765.864,1.047.515,1.425.273l.391-.2.456-.02L2.735,0,3.2.051,3.675.014l.46.1.444.164L5.032.4l.433.174.444.142.444.146Z" transform="translate(40.764 79.355)" fill="none" stroke="#f7bfa0" stroke-miterlimit="10" stroke-width="0.63"/>
    <path id="Stroke_35" data-name="Stroke 35" d="M3.943,5.415,3.9,4.93l.19-.4-.011-.442.144-.408.156-.4.147-.411.2-.388L5,2.134l.318-.315L5.7,1.576l.372-.247.43-.193L6.086.931l-.4-.166L5.313.549,4.9.43,4.481.312,4.07.164,3.636.132H3.2l-.51.014L2.189,0,1.68.023,1.3.211.919.381.645.7l-.277.309L.218,1.4l-.146.47-.036.492L0,2.865l.111.489.338.311.2.411.407.2.345.263.4.174.39.2.4.187.428.109.428.131Z" transform="translate(40.643 92.471)" fill="none" stroke="#f7bfa0" stroke-miterlimit="10" stroke-width="0.63"/>
    <path id="Stroke_37" data-name="Stroke 37" d="M0,0,.2.354l.309.29L.735.992.943,1.4l.273.362.253.376.232.391.226.4.238.389.238.388.291.357.194.416.176.425.278.366.287.364.229.4.1.467.244.389.3.365.2.415.086.467.206.41.257.388.076.466.234.4.161.428.131.44.251.4.12.443.018.472L6.4,12.4l.2.422-.013.471.115.44.153.437-.006.461.04.452.024.453L6.892,16l.139.446.034.452.046.452.037.452.025.454.014.454-.1.461.122.443-.01.452.088.446-.023.454-.03.455.123.445-.02.455v.454l.081.449.066.45.09.449-.071.457.136.442-.03.456.082.448-.083.461.052.452.1.448.064.45-.016.458,0,.455.04.452.181.44L8.041,30l0,.457.12.445-.1.467.05.454.124.447.086.451-.013.462.081.452.013.459.1.45-.054.467.092.45.043.452.154.438.075.45.025.457-.035.466.088.447.2.427-.023.464.156.432.082.445.106.442-.049.473.152.434.135.437.108.44.124.437.056.455.129.437.12.438-.006.462.117.436.106.438.105.44.067.447.045.45.01.454.066.448.009.453.028.45.027.449.106.448-.1.457.007.453.03.454-.03.455,0,.452.064.449-.029.453.157.438-.039.456.062.445.031.452.181.423,0,.459.178.42.146.425.034.459.168.419.179.414.147.423.181.411.152.423.216.394.2.4.076.462.294.355.127.44.226.387.314.337.2.4.232.382.169.421.281.353.178.418.254.37.332.318.248.371.228.386.2.4.226.389.242.375.3.336.217.4.273.359.249.375.272.36.2.408.323.333.177.426.213.405.258.375.317.333.249.381.245.385.246.386.383.284.245.386.267.37.273.362.309.335.2.421.33.321.233.4.272.368.275.366.295.352.343.316.281.363.268.374.307.344.278.367.29.356.306.345.214.418.3.347.284.362.324.329.256.385.3.348.3.349.341.313.278.363.254.383.307.34.232.4.323.327.268.372.372.287.256.384.329.319.224.4" transform="translate(90.046 57.882)" fill="none" stroke="#f7bfa0" stroke-miterlimit="10" stroke-width="0.63"/>
    <path id="Stroke_40" data-name="Stroke 40" d="M0,0,.026.462.174.9l.262.383.126.453.365.294.241.4.394.243.394.228.4.207.391.263L3.2,3.5" transform="translate(86.833 83.533)" fill="none" stroke="#f7bfa0" stroke-miterlimit="10" stroke-width="0.63"/>
    <path id="Stroke_41" data-name="Stroke 41" d="M0,1.439l.39-.26L.8,1.006,1.21.833,1.629.653,1.99.374,2.257,0" transform="translate(39.431 100.313)" fill="none" stroke="#f7bfa0" stroke-miterlimit="10" stroke-width="0.63"/>
    <path id="Stroke_42" data-name="Stroke 42" d="M.8,4.918l.19.4.042.44.137.416.1.428.144.415.224.384.169.405.221.379.227.379.271.35.334.3.448.113.423-.079.2-.427L3.9,8.359l-.066-.447-.11-.435L3.586,7.05l-.03-.463-.188-.418L3.2,5.744l-.165-.425-.155-.428-.135-.435-.17-.422-.045-.468-.243-.394-.17-.424-.193-.413-.12-.444-.248-.384-.241-.382L1.142.7.851.381.6,0,.152.105,0,.529.1.968.01,1.411l.074.433.137.433.135.433.137.43.055.452.147.43-.008.465Z" transform="translate(86.232 48.878)" fill="none" stroke="#f7bfa0" stroke-miterlimit="10" stroke-width="0.63"/>
    <path id="Stroke_43" data-name="Stroke 43" d="M.261,4,.139,3.54.081,3.073.055,2.609,0,2.135l.062-.481.227-.429L.607.866.938.528,1.265.247,1.658.07,2.08.025,2.486,0l.4.1.4.157.306.309" transform="translate(37.414 55.842)" fill="none" stroke="#f7bfa0" stroke-miterlimit="10" stroke-width="0.63"/>
    <path id="Stroke_44" data-name="Stroke 44" d="M13.121,34.965l-.455-.033-.451,0-.452-.032-.453,0-.455-.012-.456.072-.455-.129-.454.043-.454.014-.457-.007-.456-.022-.456.015-.457.053-.457-.079L6.3,34.823l-.455.057-.458.012-.459-.018-.46-.045L4,34.976l-.434-.154-.435-.043-.445-.054-.4-.186-.339-.293-.43-.154-.328-.3-.3-.329-.209-.4-.143-.419L.357,32.25l-.129-.414L.137,31.41l-.062-.436L.07,30.518l.015-.457L.152,29.6l-.031-.456-.117-.455.052-.455.023-.455L0,27.328l.06-.454L.02,26.42v-.454l.107-.454L.1,25.058.042,24.6v-.454l.021-.455L0,23.237l.009-.457.081-.457.049-.457-.126-.457,0-.457L.017,20.5l.042-.456-.045-.455.11-.456-.088-.456.093-.457-.047-.457L.057,17.3l-.029-.457L.02,16.386l.11-.457-.013-.457L.1,15.015l-.041-.458L.127,14.1l-.048-.458L0,13.183l.113-.457.016-.454-.106-.455.014-.456L.154,10.9l-.081-.459L.041,9.987.033,9.529l0-.458L.1,8.611l0-.459.012-.459L.073,7.234.12,6.774.054,6.315l.032-.459L.144,5.4.057,4.934.044,4.471l.042-.463L.112,3.57.12,3.121l.213-.4.115-.428.176-.412.261-.364.35-.282L1.55.929,1.892.644,2.274.414,2.729.36l.4-.189L3.556.03,4,.026l.45.118.45-.033.45-.107.45.073L6.255,0l.45.033.45.078L7.605.04l.45-.013.45.129L8.957.04l.451.109L9.859.132l.451-.1.451,0,.452.06.452-.037.452.077.452,0L13.02,0l.451.1.451-.064L14.373.1l.45.03L15.274.1l.451-.074.451.079.45-.024.451-.07.451.069.45.032.452-.022.452.016.452-.063L19.786.1l.452-.069.452.054.452-.025.451.062.452-.046.448.011.449-.069L23.39,0l.45.146L24.29.14l.45-.057.452-.018L25.645.1,26.1.009l.452.067L27,.083l.45.071L27.9.1l.45-.067.45.042.45.019.45.053.45-.071.45.084L31.05.02l.45.036.451-.012L32.4,0l.452.058.453-.047.453.1.452-.04.452.054.452-.008L35.568.05,36.019,0l.452.008.452.12.452-.014.453-.035L38.281.1l.453,0,.453-.08.452.111.453-.116.452.055.454,0L41.451,0,41.9.069l.454.055.453.014.45,0,.45-.11.451.049.454.042L45.07.064,45.524.1l.452,0L46.43.018,46.885.1l.454.045.455,0,.455-.058L48.7.018l.455.14.454-.132.457.1.457-.082.458.062.459-.1.448.018.428.139.418.142.377.227.446.1.332.3.374.249.311.324.158.43.321.329.1.438.186.409.035.447,0,.444.016.456-.047.457.064.457.02.456-.039.455-.057.455-.007.454,0,.455.013.454.084.454.006.455-.006.454.013.454.009.455-.009.455,0,.455-.027.456-.1.457.081.457-.033.457-.05.457.068.457.065.455-.123.456.035.455.043.456.019.456.026.457-.1.457.1.458-.132.457.065.457.055.457.016.457-.028.457-.028.458.023.458-.122.458.1.457.049.457-.03.454.026.455-.1.455.084.458-.139.459.114.458-.061.457.067.457-.077.46-.011.459.015.459.033.461.05.459-.02.459-.026.459-.026.461-.006.462.069.463-.03.463-.062.437-.007.447-.1.437-.2.4-.241.373-.25.365-.284.341-.349.273-.337.29-.419.155-.4.186-.411.169-.446.02-.438.082-.453.023-.452-.027-.453-.055-.455.049-.454-.066-.454.035-.455.049-.454,0-.454-.094-.454-.036-.455.014-.457.01-.457.041h-.458" transform="translate(0)" fill="none" stroke="#f7bfa0" stroke-miterlimit="10" stroke-width="0.63"/>
    <path id="Stroke_46" data-name="Stroke 46" d="M0,.34.45.285.9.348,1.348.3H1.8l.449-.05.448.008.45.026.45-.016.449.082.449.037L4.939.37,5.384.347,5.831.284,6.278.271l.449.073.45-.016.449.059L8.075.238l.449.017.452.057.45.075.45,0,.452-.143.451.015.45-.018.45-.007.452.125.453,0,.454-.067.454.041" transform="translate(57.2 106.155)" fill="none" stroke="#2c4349" stroke-miterlimit="10" stroke-width="0.63"/>
    <path id="Stroke_47" data-name="Stroke 47" d="M18.672,65.291h0l-.45-.026-.448-.079-.452.053-.452.015-.452-.022-.453-.006-.452.013-.452.043-.451-.128-.451.071-.451-.013-.452,0-.453-.033-.452,0-.451-.033-.45.081L11,65.189l-.45.067-.45,0-.45-.125-.451.006-.451.019L8.3,65.145l-.452.142-.451,0-.449-.076-.45-.057-.449-.017-.45.148-.447-.059-.449.016-.448-.073L3.8,65.18l-.449.062-.474-.011-.469-.088-.43-.2-.369-.3-.378-.265-.308-.346L.66,63.663l-.265-.381L.23,62.848.081,62.4l.029-.472-.054-.446-.037-.447.043-.446.069-.445L.108,59.7l-.025-.444.044-.444-.065-.445,0-.444.078-.443-.112-.444,0-.443.085-.441.017-.442-.112-.444.049-.441.068-.441-.044-.439-.014-.439.015-.442-.069-.442,0-2.226,0,.036V44.62l.015.061v-.268l-.014.128,0-2.614.021.132,0,2.354.028-.258.068-.448L.086,43.26l-.014-.445.014-.444-.049-.312.01-5.222.007.063,0-.821.01-.1.069-.461-.023-.462-.025-.458.044-.459-.065-.459,0-.461.077-.458-.08-.33L.052,35.394h0L.037,32.343l.02.084,0-.785-.022.119L.03,30.533l.031.128,0,.98.049-.26.017-.457-.064-.263v-.653l-.031.3L.018,27.728l.048.317,0,1.963.068-.457-.044-.456-.014-.454.014-.454-.021-.141.009-4.506-.02-.455.067-.454-.041-.454.029-.452L.1,21.276l-.007-.452.03-.45.03-.452-.027-.45-.067-.45.039-.452.03-.449-.069-.448.005-.449.025-.451.027-.449.019-.447-.05-.446-.033-.446-.015-.448.012-.449.077-.449-.067-.45.061-.449L0,12.291l.14-.448-.084-.448.1-.449L.125,10.5l.031-.449L.106,9.6,0,9.15.125,8.7.1,8.257l.029-.448.027-.447L.143,6.914.087,6.467.022,6.018l.132-.449-.1-.448.1-.448L.127,4.226.108,3.779.066,3.332l0-.473L.283,2.43l.1-.455L.55,1.53l.323-.347L1.226.876,1.553.528,2.011.389l.44-.136L2.9.157,3.355.134,3.793.125,4.231.113l.436.006L5.1.113,5.537.028,5.971.014l.435,0,.435.007.435.058.413.036.036.419.217.424.212.422L8.5,1.7l.388.275.442.2.483-.012.464.072.464-.122.463.122.463-.016.46-.063.46.05.461-.129.462.066.461.021.459.066.461-.006.46-.1.458.062.459-.081.46.1.459-.131.457.14.456-.068.455-.058.459,0,.459.045.458.084.406-.128.391-.115.381-.161.284-.3.292-.288.241-.344L21.94.455,22.017,0l.455.012.437.055.436.067.436-.069.433,0,.433.055L25.081,0l.435.112.433-.08.434,0,.466.054.467.067.448.151.352.328.361.28.361.29.34.331.234.412.116.46.14.451-.069.473.046.462-.057.461.042.46.012.459-.036.456.138.458-.084.457L29.731,7l-.052.457-.02.457-.042.457.067.456.055.455-.07.456-.007.457-.067.456.087.454-.032.453.018.454.058.455.006.455-.146.456.021.456.07.456-.011.455.046.455-.063.455.025.455-.054.455.069.457-.059.455.064.455-.016.455.022.454-.031.454-.069.455.069.455.023.455-.078.455.074.456.025.455-.031.455-.056.455.064.454-.1.453.144.453,0,.453-.077.453.038.452-.061.453,0,.453.094.453.018.453-.109.454.116.454-.129.455.013.455.071.455-.078.454-.033.454.078.453-.073.453L29.7,32l.033.451-.12.451-.021.454.068.454.071.454-.125.454.017.455.033.455.019.454-.074.455V37l.046.455.059.454-.094.454.067.454,0,.454-.041.453.013.454.087.454-.058.453-.032.454.066.454-.047.454.032.454-.012.454,0,.455-.061.454,0,.455.007.454.031.454.082.454-.114.454-.014.453.105.454-.017.453-.113.452.079.454.047.453-.071.453.041.453.021.453.013.453-.111.453.009.454.029.453.024.453.047.454-.093.453.088.454-.11.455.045.454-.042.455-.005.454,0,.455.126.454-.049.454-.08.454-.01.453.064.454-.022.452v.454l.055.452.032.453-.107.452v.452l.04.452-.093.457-.021.469-.184.428-.268.381-.186.443-.316.359-.419.23-.418.212-.437.169-.452.137-.473.052-.457.01-.458.014-.456-.078-.455-.059-.453.005-.454-.007-.454.124-.455-.092-.452-.017-.454.071-.454.03-.453-.131-.451.148-.452-.045-.454-.018-.452.013-.45.057ZM.034,44.681l0,1.211-.01.049,0,.448,0,.016L.022,50.4l.04-.416.069-.452-.023-.45-.025-.45.044-.447-.065-.448,0-.448.077-.45L.03,46.407v-.514l.077-.4.017-.446Z" transform="translate(49.075 44.192)" fill="none" stroke="#2c4349" stroke-miterlimit="10" stroke-width="0.63"/>
    <path id="Stroke_28" data-name="Stroke 28" d="M6.326,8.6l.442.17.452.137.473.044.467.065.472.022.469.076.473.04.477-.014.467-.109L10.993,9l.465-.1.454-.1.4-.24.43-.168.394-.241.381-.26.394-.246.379-.278.257-.4.208-.417.325-.343.139-.445.114-.445.118-.444.04-.459-.046-.458.044-.457-.207-.4-.261-.357-.261-.352L14.5,2.02l-.426-.173-.366-.241-.372-.234L12.935,1.2l-.408-.167L12.134.814,11.681.781,11.273.59l-.445-.04L10.4.411l-.446,0L9.522.377,9.064.3,8.606.234,8.145.2,7.687.146,7.233,0,6.767.042,6.3.034,5.844.128,5.381.113,4.918.121,4.474.263l-.449.1L3.589.5,3.118.565,2.734.832l-.382.253L1.941,1.3l-.381.274-.309.353-.192.434-.224.4-.312.366L.4,3.585l-.147.433-.113.445.025.467L.1,5.377l-.011.452L0,6.292l.077.455.179.427.081.458.3.363.236.384.153.443.344.311.314.327.256.378.278.36.3.347.4.24.256.391.332.313.4.235.315.326.274.374.348.3.379.257.322.324.326.318.337.32.359.3.243.413.349.306.307.347.381.272.3.347.381.272.318.333.331.323.276.373.247.4.384.268.287.358.362.288.249.391.37.281.2.431.336.312.344.3.3.343.263.377.315.333.328.322.289.357.231.406.3.346.341.308.237.4.347.307.309.341.285.364.233.4.312.341.379.285.295.367.179.449.408.259.214.421.344.31.329.321.3.345.241.4.319.329.416.233.318.335.287.366.338.313.328.324.362.285.319.334.335.316.442.183.358.284.341.306.361.286.371.27.414.207.332.325.343.312.385.248.454.138.378.258.357.293.391.234.436.157.372.267.4.212.435.152.374.27.405.22.384.245.375.259.4.219.406.2.425.172.37.264.4.209.37.265.378.251.408.2.342.31.365.273.446.139.306.358.37.26.392.228.4.219.362.275.44.159.363.276.354.291.341.309.418.2.346.3.411.21.353.294.366.275.407.216.408.216.316.345.427.19.317.343.37.27.343.3.4.224.335.314.425.2.365.274.3.362.408.219.338.309.3.357.394.243.3.355.362.277.413.226.319.328.282.364.345.3.263.375.226.389.18.418.237.383.278.358.209.4.209.4.246.375.233.385.118.449.318.337.234.384.226.39.215.4.209.4.121.445.232.384.245.379.266.366.212.4.22.4.147.437.229.389.328.336.1.46.3.355.206.4.165.426.244.382.224.394.177.418.219.4.319.34.212.4.1.457.22.394.234.387.188.411.331.333.089.464.222.394.2.4.292.346" transform="translate(33.805 91.348)" fill="none" stroke="#f7bfa0" stroke-miterlimit="10" stroke-width="0.63"/>
    <path id="Stroke_30" data-name="Stroke 30" d="M5.824,9.536l.416.171.41.183.421.164.421.171.415.2.45.074.433.153.464-.008.443.119.455.033.453.088.459-.091.457.084.437-.149.427-.139.461-.048.372-.275.425-.159L14,9.83l.415-.2.333-.309.266-.374.346-.29.32-.321.282-.355.182-.421.2-.4.239-.377.27-.37.049-.467.015-.456L17,5.02l-.148-.446-.159-.436-.2-.416L16.3,3.3,16.042,2.9l-.4-.27L15.422,2.2l-.4-.246-.354-.3-.407-.229-.41-.227L13.4,1.056,12.943.967l-.461-.05L12.054.7,11.6.663,11.143.59l-.471.025L10.235.44,9.788.32,9.328.272,8.857.3,8.4.209,7.942.2,7.494.066,7.035.025,6.577,0,6.118.082,5.661.027,5.209.113,4.761.182,4.316.261,3.845.277,3.464.545,3.04.726,2.626.942,2.3,1.274,1.974,1.6l-.308.343-.307.346-.26.382-.2.416-.28.374-.127.45L.3,4.334.273,4.8.1,5.231,0,5.684l.066.461L.01,6.609l.159.425.18.405.21.39.186.406.239.376.29.341.278.349.287.341.3.333.251.376.251.381.321.317.309.326.355.277.319.313.3.338.4.226.231.4.362.261" transform="translate(33.199 78.207)" fill="none" stroke="#f7bfa0" stroke-miterlimit="10" stroke-width="0.63"/>
    <path id="Stroke_31" data-name="Stroke 31" d="M4.042,10.2l.4.2.4.194.427.141.418.185.454.036.442.1.455-.106.449.126L7.943,11l.445-.064.427-.156.433-.108.431-.125.454-.074.433-.164.416-.205.36-.295.31-.346.389-.254.261-.382.273-.364.262-.372.331-.337.234-.4.18-.428.075-.463.111-.445.149-.436.006-.463.108-.45.04-.462-.121-.452.013-.471-.227-.412-.158-.433-.3-.351-.39-.263-.367-.282-.329-.348-.438-.169-.4-.263L10.878.726,10.435.552l-.473.01L9.5.513,9.042.484,8.6.358,8.142.344,7.707.2,7.261.089,6.8.151,6.348,0,5.887.055,5.431.081,4.98.151,4.531.219,4.062.2,3.629.36,3.193.5,2.8.737,2.4.956l-.41.219-.277.377-.3.34-.269.367-.2.406L.7,3.046l-.265.376L.33,3.864l-.135.431-.135.433L.028,5.18l.039.452-.026.445L0,6.531l.076.445.076.444.1.44.168.42.186.409.2.4.15.427.255.371.173.421.274.357.308.33.179.457.307.366.212.43.257.4.35.336" transform="translate(35.564 65.213)" fill="none" stroke="#f7bfa0" stroke-miterlimit="10" stroke-width="0.63"/>
  </g>
</svg>
