<?xml version="1.0" encoding="UTF-8"?>
<svg width="41px" height="36px" viewBox="0 0 41 36" version="1.1" xmlns="http://www.w3.org/2000/svg" xmlns:xlink="http://www.w3.org/1999/xlink">
    <!-- Generator: Sketch 55.2 (78181) - https://sketchapp.com -->
    <title>padlock</title>
    <desc>Created with Sketch.</desc>
    <g id="Page-1" stroke="none" stroke-width="1" fill="none" fill-rule="evenodd">
        <g id="CHECKOUT-SHIPPING-INFO-WITH-ADDRESS" transform="translate(-262.000000, -679.000000)" fill="#2C4349" fill-rule="nonzero">
            <g id="Group" transform="translate(262.000000, 679.000000)">
                <g id="padlock">
                    <path d="M35.6313223,0.0273214286 L5.36819727,0.0273214286 C2.40850977,0.0278035714 0,2.44422321 0,5.41470536 L0,22.8996964 C0,25.8701786 2.40850977,28.2870804 5.36867773,28.2870804 L21.4099277,28.2870804 L21.4099277,33.0032411 C21.4099277,34.641 22.7379434,35.9727589 24.3700957,35.9727589 L33.2928809,35.9727589 C34.9249531,35.9727589 36.2520879,34.6405982 36.2520879,33.0032411 L36.2520879,28.2480268 C38.9203711,27.9380089 41,25.6592411 41,22.8996964 L41,5.41470536 C41,2.44422321 38.5914902,0.0273214286 35.6313223,0.0273214286 Z M34.6851992,33.0031607 C34.6851992,33.7739464 34.0610703,34.40025 33.2929609,34.40025 L24.3696152,34.40025 C23.6015059,34.40025 22.9763359,33.7739464 22.9763359,33.0031607 L22.9763359,24.6165268 L34.6851992,24.6165268 L34.6851992,33.0031607 L34.6851992,33.0031607 Z M25.6398145,23.0441786 L25.6398145,20.0614821 C25.6398145,18.4041964 27.0714512,17.0558839 28.8310078,17.0558839 C30.590084,17.0558839 32.0212402,18.4041964 32.0212402,20.0614821 L32.0212402,23.0441786 L25.6398145,23.0441786 Z M39.4335918,22.9001786 C39.4335918,24.7903393 38.0529648,26.3524821 36.2525684,26.6522143 L36.2525684,23.8306339 C36.2525684,23.3961429 35.9023066,23.0446607 35.4693242,23.0446607 L33.5886094,23.0446607 L33.5886094,20.0619643 C33.5886094,17.5377054 31.4549277,15.4839375 28.8314082,15.4839375 C26.2078887,15.4839375 24.0732461,17.537625 24.0732461,20.0619643 L24.0732461,23.0446607 L22.1936523,23.0446607 C21.7606699,23.0446607 21.4104082,23.3961429 21.4104082,23.8306339 L21.4104082,26.7152143 L5.36867773,26.7152143 C3.27247266,26.7152143 1.56696875,25.0036875 1.56696875,22.9002589 L1.56696875,12.2977768 L39.4335918,12.2977768 L39.4335918,22.9001786 Z M39.4335918,10.7254286 L1.56688867,10.7254286 L1.56688867,8.04198214 L39.4335918,8.04198214 L39.4335918,10.7254286 L39.4335918,10.7254286 Z M39.4335918,6.47011607 L1.56688867,6.47011607 L1.56688867,5.4151875 C1.56688867,3.31119643 3.27199219,1.60023214 5.36859766,1.60023214 L35.6318027,1.60023214 C37.7280078,1.60023214 39.4335918,3.31175893 39.4335918,5.4151875 L39.4335918,6.47011607 Z" id="Shape"></path>
                    <path d="M5.48342969,23.6861518 L17.9778594,23.6861518 C18.4108418,23.6861518 18.7611035,23.3346696 18.7611035,22.9001786 C18.7611035,22.4656875 18.4108418,22.1142054 17.9778594,22.1142054 L5.48342969,22.1142054 C5.05044727,22.1142054 4.70018555,22.4656875 4.70018555,22.9001786 C4.70018555,23.3346696 5.05004688,23.6861518 5.48342969,23.6861518 Z" id="Path"></path>
                    <path d="M28.0477637,30.5950982 L28.0477637,32.3485714 C28.0477637,32.7830625 28.3980254,33.1345446 28.8310078,33.1345446 C29.2639902,33.1345446 29.614252,32.7830625 29.614252,32.3485714 L29.614252,30.5950982 C30.6217148,30.2621786 31.3553107,29.3199911 31.3553107,28.1991696 C31.355791,26.8015982 30.2233262,25.6655893 28.8310078,25.6655893 C27.43925,25.6655893 26.3071855,26.802 26.3071855,28.1991696 C26.3071855,29.3199911 27.0407813,30.2621786 28.0477637,30.5950982 Z M28.8310078,27.2380179 C29.3588027,27.2380179 29.7888223,27.6695357 29.7888223,28.1991696 C29.7888223,28.7288036 29.3588027,29.1604018 28.8310078,29.1604018 C28.3032129,29.1604018 27.8741543,28.7288839 27.8741543,28.1991696 C27.8741543,27.6695357 28.3032129,27.2380179 28.8310078,27.2380179 Z" id="Shape"></path>
                </g>
            </g>
        </g>
    </g>
</svg>