<svg xmlns="http://www.w3.org/2000/svg" width="80.646" height="80.576" viewBox="0 0 80.646 80.576">
  <g id="Group_57" data-name="Group 57" transform="translate(0 0)">
    <g id="Group_56" data-name="Group 56">
      <path id="Fill_1" data-name="Fill 1" d="M0,.3.657.941l.326.471.112.3.141.244.127.312.137.251.06.271.1.6.14.324.044.248.014.354.062.275.023.312.115.332.022.262,0,.314.059.319-.036.31.005.318.042.611V7.7l.025.269-.054.655.072,1.231L2.17,10.8l.01.312.079.319-.043.612.006.305,0,.328.025.342.059.286-.007.263-.047.349.012.355.065.289,0,.307.028.293,0,.287-.072.315.02.963.076.312-.062.3.05.322.012.326.033.288,0,.3-.007.351.047.292.024.272-.087.327.075.332.028.309.429-.039L2.9,20.079l-.057-.257.08-.3-.032-.362-.047-.267.01-.319L2.8,17.616l-.041-.271.067-.324-.088-.333L2.724,15.8l.07-.314,0-.355-.028-.294,0-.312-.07-.313-.009-.277.047-.337.01-.338-.065-.306-.021-.3,0-.318-.007-.3L2.7,11.4l-.086-.324L2.6,10.8l.02-.631L2.549,8.627,2.6,7.975l-.024-.29V7.353l-.048-.888.043-.35L2.51,5.794l0-.311-.025-.312-.115-.33-.025-.31-.061-.265-.012-.345-.053-.308L2.083,3.3l-.04-.289-.129-.618-.162-.312-.129-.315-.139-.238-.108-.293L1,.679.311,0Z" transform="translate(45.646 60.119)" fill="#f7bfa0"/>
      <path id="Fill_2" data-name="Fill 2" d="M3.17.085,2.742.616l-.226.22-.159.332-.173.29-.118.265L1.908,2l-.122.372-.042.265-.158.227-.111.4-.039.276-.1.31-.2.956-.022.274L.978,5.38,1,5.728l-.143.882-.112.278-.06.378-.015.3L.625,7.9l.031.3L.632,8.48l-.084.332L.5,9.155l.037.311-.047.9L.4,11.012l.065.329L.376,12.565l.008.3,0,.619,0,.283L.3,14.416l.012.29-.016.327.01.3-.024.579L.2,16.251l.026.322-.041.3-.022.339.061.311-.031.3,0,.29-.059.312-.024.337.053.3-.126.92.037.3-.014.328.012.288-.054.325.007.284L0,21.829l.43.04.029-.331-.01-.266.059-.33-.014-.315.013-.343L.475,20,.6,19.07l-.056-.323.017-.259.064-.331-.006-.308.037-.344L.6,17.187l.063-.6-.025-.3L.7,15.972l.031-.642-.011-.293.016-.328-.014-.268.086-.649v-.306l0-.624-.008-.289L.895,11.3l-.059-.3.05-.281.079-.945,0-.336L.937,9.159.97,8.894l.085-.34.03-.352-.028-.3L1.1,7.6l.014-.293.041-.284.111-.276.168-.994-.016-.293.109-.245.147-.96.184-.622L1.9,3.34l.065-.266.163-.235.078-.37.09-.277.156-.272.117-.263.174-.293.108-.251L3.063.9,3.4.474,3.652.421,3.561,0Z" transform="translate(32.101 58.707)" fill="#f7bfa0"/>
      <path id="Fill_3" data-name="Fill 3" d="M5.054,18.238h0L4.7,18.163l-.286-.035-.319.022-.335-.124L3.5,17.988l-.317-.078-.365-.143L2.585,17.6,1.973,17.3l-.191-.211-.235-.149-.257-.235-.608-.8-.128-.281-.079-.307L.3,15.02l-.081-.3-.035-.314-.115-.332-.014-.309.027-.3L0,13.169l.016-.346.077-.642.019-.608-.052-.3.028-.34,0-.3L.117,10.3l0-.3.033-.336L.141,9.374l.03-.342L.165,8.739.1,8.424l.08-.931L.119,7.159.2,6.833l-.018-.6.009-.323-.008-.3.089-.644,0-.284.063-.344.094-.317.051-.282L.58,3.413l.31-.546L.952,2.54l.222-.287.179-.308.245-.2.187-.2.208-.259L2.5.85,2.772.71,3,.55,3.3.4,3.621.223,4.244.111,4.546.1,4.853,0,5.2,0,5.54.064l.274.005.311.062L6.45.119l.331.1.311.135.34.1.254.185.768.485.524.465.69,1.028.3.557.116.318.23.916.14.336.087,1.532.061.313-.024.338-.054.33.01.247.072.333.006.313.03.294.007.355-.069.315L10.6,10l.087.336-.068.328.038.273.036.633-.026.656.034.274.01.37-.108.3.024.284-.052.379-.109.292-.08.28-.131.308-.107.343-.174.233-.119.258-.132.339-.19.246-.233.241-.227.2-.22.3-.237.155-.255.257-1.118.593-.337.108-.279.031-.319.126-.308.036-.349-.018-.266.009-.336.073Zm-.623-.54h0l.344.04.278.059.3-.063.307-.009.331.02.237-.031.321-.126.287-.033.251-.084.517-.3.529-.261.225-.236.224-.146.188-.266.235-.2.2-.21.153-.2.1-.266.158-.335.163-.219.071-.26.132-.311.076-.27.105-.283.031-.259-.027-.335.112-.312-.007-.272-.033-.294.025-.649-.027-.29-.007-.324-.047-.323.064-.3-.076-.313-.023-.966.068-.316,0-.287-.031-.293-.007-.308-.071-.33L10.1,7.225l.055-.35.018-.262-.054-.283L10.026,4.8,9.912,4.55l-.237-.929-.1-.275L9.14,2.584l-.5-.729-.446-.391-.98-.64L6.951.755,6.635.618,6.4.552,6.089.564,5.763.5l-.269,0L5.154.43H4.919L4.595.526,4.286.539l-.54.1L3.506.779,3.214.921l-.221.158-.275.141L2.288,1.6l-.175.224-.221.237-.231.192-.126.236-.178.235-.078.338-.305.526-.082.257-.05.276-.095.318-.053.282,0,.27-.09.646.011.274-.01.327.021.639-.07.3.057.3-.039.654-.039.293L.591,8.7l.01.351-.03.339.01.293-.033.344,0,.3-.033.335,0,.292-.023.308.047.289-.018.672-.089.9.087.31-.034.349L.5,14.02l.113.316.031.308.066.231.175.3.075.3.1.216.181.219.367.5.2.184.273.177.18.2.56.256.229.168.26.1.275.067.286.044.29.1Z" transform="translate(35.444 54.059)" fill="#2c4349"/>
      <path id="Fill_4" data-name="Fill 4" d="M.053,0,.014.338l.038.3L0,.947l.1.916-.031.341.061.305.013.277-.038.337,0,.311.067.319-.035.305.078.92-.051.647.059.309-.037.316.067.312L.225,6.85l-.031.665.076.308L.3,8.106l-.052.319.05.3-.011.327.011.281-.034.35.028.339.053.259-.084.3.027.364.043.268-.016.653.027.293.006.333.034.271L.3,13.093l.086.336.036.89-.056.321.113.966.106.31.046.276.005.345.045.309.131.322.414,1.494.214.3.3.564.183.283.2.239.3.237.262.158.222-.37-.241-.142-.225-.177-.168-.2-.158-.246L1.8,18.73l-.168-.218-.416-1.491-.112-.266L1.07,16.5l-.006-.347-.058-.345-.1-.277-.085-.588L.8,14.661l.055-.314L.821,13.4l-.073-.308.069-.3-.041-.323L.77,12.141l-.027-.289L.757,11.2l-.063-.568L.785,10.3.715,9.966.69,9.693l.034-.341-.01-.3L.723,8.7.681,8.428l.05-.307L.694,7.752.625,7.468.631,7.2l.061-.654L.625,6.232l.037-.311L.6,5.609l.047-.633L.621,4.648.576,4.365.568,4.083l.042-.35L.538,3.41l0-.261.037-.343L.557,2.462.5,2.183.53,1.865.5,1.541l-.046-.29L.433.968.488.65.448.335.481.049Z" transform="translate(32.073 0)" fill="#f7bfa0"/>
      <path id="Fill_5" data-name="Fill 5" d="M3.155.962l.056.3-.052.283-.075.949,0,.341.04.288L3.1,3.381l-.07.344-.011.354.045.292-.016.307.008.294-.016.287-.084.284L2.9,6.551l.056.288-.082.294.028.324-.01.324.013.289-.049.647.031.563L2.78,9.6l.05.336.007.271-.055.337-.043.642.023.277-.073.3.009.366.044.283-.03.265-.131.648.03.315-.075.3.017.318-.138.614-.027.326,0,.286-.043.277-.109.335.005.33-.052.252-.114.324L2,17.343l-.019.284-.11.3-.109.608-.071.276-.144.252-.092.33-.142.249-.081.349L.458,21.225l-.2.118L0,21.412l.112.416L.4,21.751.77,21.54l.723-1.106.141-.28.075-.334.138-.244.092-.329.144-.252.2-.951.112-.294.031-.348.056-.277L2.6,16.8l.07-.329,0-.307.094-.3.054-.34.028-.589.147-.636-.018-.318.078-.313-.031-.32.063-.283.1-.665-.05-.311-.005-.282L3.2,11.5l-.028-.305.034-.325.007-.28.055-.347L3.258,9.9l-.037-.26.1-.293-.006-.361L3.289,8.72l.05-.646L3.327,7.78l.009-.333-.022-.271L3.4,6.857l-.065-.337.04-.879.084-.284.027-.378-.009-.295L3.5,4.35l-.049-.294.009-.276.069-.333.033-.335L3.514,2.8V2.509l.071-.9.065-.346L3.588.932,3.672.05,3.244,0Z" transform="translate(44.881 0.001)" fill="#f7bfa0"/>
      <path id="Fill_6" data-name="Fill 6" d="M5.855,18.258h0l-.344-.012-.342-.068-.281-.023-.311.02-.631-.128-.381-.139L3.31,17.72l-.516-.268-.27-.181-.309-.133-.2-.281L1.8,16.686,1.362,16.2l-.187-.288-.15-.3-.161-.233L.684,15l-.02-.274-.129-.233L.41,14.121l-.034-.31-.059-.28L.283,13.2.2,12.9l.031-.326L.194,12.29l-.082-.312.014-.342.075-.6-.067-.308.035-.314L.106,10.1l.046-.648L.077,8.874.068,8.531.1,8.222.037,7.9V7.586l.04-.338L.069,6.969.014,6.658l.041-.342L0,5.379l.081-.311L.1,4.721l.088-.264L.2,4.113.3,3.82l.414-.856.126-.34.364-.481.167-.253.217-.257.274-.221.194-.2L2.327,1,2.894.694,3.128.527,3.447.381l.318-.1L4.107.14,4.421.128l.26-.067L5.045,0,5.36.072l.3-.037.628.056.625.122.6.171L8.1.627l.357.116.484.386.236.214.283.179.164.306.184.217L10,2.32l.311.618.149.595.117.308.05.3.021.33.048.281.01.339-.081.615.085.314-.047.335.025.327-.089.347-.013.275.027.284-.015.345.018.294-.043.335.021.3-.005.336.045.311-.109.938.059.306-.02.339-.055.315.009.292-.027.3.064.312-.019.341-.048.327.012.311-.111.333L10.2,14.5l-.216.653-.628,1.057-.374.51-.241.239-.257.206-.517.355-.24.229-.932.293-.621.124-.319.088ZM4.9,17.726h0l.337.027.33.067.239.005.273-.075.617-.123.812-.256.2-.185.757-.549.2-.2L9,15.972l.6-1.016.185-.569.184-.874.094-.284-.007-.273.049-.346.014-.264-.067-.32.032-.344-.01-.309.059-.334.013-.26-.06-.323.11-.944-.04-.291,0-.35-.023-.321.048-.338-.02-.274.016-.338-.027-.288.019-.346.077-.317-.024-.3.041-.293-.085-.314.092-.667L10.265,4.8l-.048-.274-.021-.33-.044-.258-.1-.269-.154-.6-.268-.526-.159-.233-.21-.253-.122-.229-.218-.141-.691-.574-.26-.073L7.373.789,7.115.73l-.308-.1L6.226.517,5.66.469l-.321.04L5.032.439,4.479.553,4.167.569,3.918.68,3.6.783,3.34.9l-.217.157-.567.308-.215.166-.19.2-.265.211-.171.206-.334.494L1.2,2.866l-.087.259L.7,3.986l-.076.233L.6,4.565l-.087.262L.5,5.153l-.073.28,0,.284.049.615-.034.316L.5,6.928l.01.341-.041.344,0,.262L.54,8.2.5,8.552l.01.283.047.283.028.328-.04.633.063.313L.569,10.7l.068.312-.082.654-.01.263.07.276.049.355-.029.3.068.265.036.34.059.277.035.306.093.27.163.329.02.278.122.238L1.4,15.4l.153.3.156.241.39.435.257.208.149.21.234.1.286.189.516.269.26.187.264.092.553.11Z" transform="translate(34.484 8.278)" fill="#2c4349"/>
      <path id="Fill_7" data-name="Fill 7" d="M16.123,13.025l-.334-.174-.187-.28-.46-.363-.447-.476-.51-.42-.151-.239-.5-.4-.171-.224-.232-.159-.476-.45-.238-.165-.251-.244-.217-.258-.209-.2-.228-.186-.231-.27-.684-.6-.2-.237-.238-.156-.48-.467-.212-.258L9.286,6.6l-.305-.209L8.8,6.162l-.268-.227-.165-.24-.212-.188-.236-.176-.246-.214-.2-.246L7.24,4.706,6.993,4.47,6.785,4.2,6.6,4.011l-.3-.206-.2-.247L5.9,3.37l-.234-.157-.257-.2L4.97,2.572l-.3-.172-.2-.2L4.17,2.049l-.464-.4-.217-.152L3.215,1.4,2.87,1.234l-.219-.173L2.39.975,2.082.821l-.268-.1L1.537.6,1.278.545.945.551.651.44.415.466l-.272.1L0,.155.343.041.707,0l.314.118.3,0,.379.081L1.98.327l.274.1.3.152L2.888.7l.229.181L3.377,1l.333.121.256.179.471.406.318.164.2.2.3.176.437.441.477.344.254.232.2.243.275.184.217.224.2.269.2.19.274.2.2.243.726.61.162.235.256.213L9.3,6.1l.277.182.221.225.212.259.426.417.284.194.2.244.208.2L11.355,8l.241.22.221.262.213.17.238.231.218.259.209.206.232.159.481.455.28.2.174.229.517.424.152.24.454.363.447.475.508.411.145.217.237.123Z" transform="translate(58.266 50.229)" fill="#f7bfa0"/>
      <path id="Fill_8" data-name="Fill 8" d="M13.22,17.955l-.245-.193-.236-.237-.2-.286-.19-.2-.2-.255-.255-.227-.15-.244-.206-.2-.276-.2-.395-.5-.164-.234-.277-.22-.159-.233-.267-.219-.371-.5-.664-.639-.174-.252-.261-.2-.2-.232-.193-.278-.191-.2L7.674,12l-.182-.252L6.8,11.1l-.145-.242-.239-.224L6.27,10.41l-.262-.2-.2-.235-.193-.272-.392-.444-.267-.215-.175-.256-.621-.673-.192-.29-.191-.2-.207-.264-.179-.288-.176-.236-.2-.193-.4-.538-.24-.256-.125-.262-.415-.536-.09-.273-.349-.478-.3-.6L.748,3.132.689,2.869.481,2.614.416,2.243.093,1.412.019,1.063,0,.716.076.272.248,0,.612.23.465.463.429.734l.017.277L.5,1.288l.224.543.1.305.053.292.2.248L1.16,3l.314.5.286.584.381.533.089.268.4.5.121.254.2.2.388.525.2.2.209.276.176.284.18.229.2.212.2.3.618.67.171.248.221.171.441.5.192.271.172.2.289.225.158.235.249.237.147.246.2.2.225.188.233.226L8,11.723l.222.173.236.247.2.283.173.194.288.226.177.26.191.207.22.182.236.229.383.507.271.223.158.231.274.217.365.5.174.209.237.168.284.277.148.24.215.184.422.489.2.28.192.19.225.175Z" transform="translate(49.804 56.614)" fill="#f7bfa0"/>
      <path id="Fill_9" data-name="Fill 9" d="M10.8,16.139h0l-.344-.012-.344-.079-.275-.026-.309-.093-.361-.036-.284-.121L8.592,15.6l-.324-.14-.231-.212-.717-.535-.467-.428-.418-.517-.888-.85-.841-.932-.31-.219-.383-.489-.637-.666-.27-.2-.2-.239L2.71,9.888l-.193-.2L2.257,9.5l-.211-.229-.218-.2-.251-.3-.136-.287L1.1,8.019.948,7.764.71,7.506.634,7.177.494,6.94l-.241-.6-.082-.33L.126,5.682.051,5.41,0,5.029l.091-.308L.058,4.458l.032-.4.173-.577.13-.311.117-.347.2-.243L.985,2,1.2,1.777l.255-.219.244-.173.242-.274L2.184.976l.27-.237L3.6.219,3.944.131l.28-.014.328-.1L4.86,0l.348.048L5.5.066,5.825.055l.33.11.58.113.38.135.234.168.317.134.22.17.316.122.251.18.712.614.3.19.2.239.661.615.219.261.212.166.24.229.219.256.21.2.233.158.485.455.283.2.175.231.517.431.149.245.45.378.431.5.491.469.116.241.257.211.123.356.431.772.124.323.158.632.045.325,0,.339.031.283-.1,1.34-.113.259-.071.37-.155.239-.085.27-.149.311-.226.321-.2.184-.15.3-.3.2-.465.391-.2.2-.554.419-.281.127-.224.154-.306.146-.315.173-.624.113-.3.014-.308.091ZM4.838.428,4.6.442l-.328.1L3.99.561,3.736.628,3.2.895l-.544.226-.244.22-.235.128-.212.25L1.715,1.9l-.221.189-.166.183-.113.256-.15.284-.19.242L.8,3.31l-.13.306-.161.548-.021.281.044.311-.091.308.034.262L.548,5.6l.046.333.067.277.219.544.166.293L1.1,7.3l.2.224.326.5.178.245.143.294.184.212.214.2.208.225.24.172.247.255.2.292.172.2.237.173.247.237.645.724.174.237L5,11.668l1.751,1.806.415.517.207.174.228.222.713.53.218.2.252.1.3.174.225.093.329.029.292.092.262.023.329.077.228,0,.322-.089.306-.012.538-.1.239-.141.3-.139.227-.155.285-.132.478-.364.184-.2.5-.424.215-.148.167-.3.215-.194.162-.236L15,12.83l.105-.319.145-.224.052-.32.109-.251.083-1.2-.033-.265V9.917l-.04-.278-.144-.575-.1-.271L14.738,8l-.094-.269L14.386,7.5l-.12-.248-.429-.393-.424-.491-.5-.431-.148-.242-.5-.406L12.1,5.062,11.866,4.9l-.479-.449-.239-.162L10.9,4.051,10.679,3.8l-.211-.2-.229-.184-.232-.273-.662-.616L9.154,2.3l-.238-.143-.5-.412-.236-.22-.2-.144-.328-.13-.221-.171L7.119.948,6.89.782,6.626.694,6.044.58,5.761.488,5.487.5,5.163.476Z" transform="translate(48.862 48.252)" fill="#2c4349"/>
      <path id="Fill_10" data-name="Fill 10" d="M15.649,13.006l-.346-.1-.335-.032-.261-.109-.343-.047-.288-.12-.838-.455-.333-.125-.247-.193-.782-.48-.257-.233-.234-.146-.262-.208-.239-.241-.222-.192-.24-.149-.5-.445-.285-.2L9.466,9.3l-.5-.435-.146-.243L8.369,8.25l-.44-.482-.506-.422-.146-.223-.284-.155-.209-.311-.2-.191-.721-.583-.675-.669L4.98,4.962l-.212-.179L4.54,4.528l-.445-.4L3.81,3.913,3.638,3.69l-.293-.208-.166-.228-.23-.16-.255-.212-.235-.23L2.278,2.4l-.305-.2-.156-.223-.3-.212-.15-.238-.248-.2L.938,1.124.647.927.465.7.244.522,0,.355.244,0,.5.178.786.414.96.628l.284.19.189.219.279.232.145.229.289.2.154.22.3.2.184.258.425.379.295.219.164.226.287.2.177.226.231.168.483.435.223.25.216.184.433.478.669.636.237.168.252.206.239.237.176.255.288.157.186.285.459.374.44.483.5.43.145.242L9.8,9.02l.167.224.231.157.481.433.242.15.262.224.232.236.224.178.245.156.26.235.233.153.532.313.236.184.265.091,1.092.56.345.047.257.108.276.021.308.082.249-.024.271-.1.142.407L16,12.972Z" transform="translate(6.028 17.343)" fill="#f7bfa0"/>
      <path id="Fill_11" data-name="Fill 11" d="M13.24,17.95l-.378-.207.13-.236.015-.242-.044-.283-.023-.33-.168-.543-.15-.324-.031-.274L12.29,15l-.106-.3-.208-.27-.114-.267-.2-.3-.079-.261-.227-.266-.1-.25-.248-.257-.125-.292-.155-.225-.187-.228-.248-.266-.123-.25-.247-.24-.138-.249-.2-.2L9.162,10.4,8.97,10.12l-.2-.208-.2-.293-.583-.684-.206-.217-.459-.4-.218-.249-.155-.261L6.68,7.637l-.164-.292-.431-.4-.411-.5L5.2,6l-.134-.248L4.6,5.315l-.154-.234-.22-.174-.443-.479-.225-.18L3.32,3.991l-.2-.271L2.927,3.5l-.216-.2L2.5,3.019l-.641-.648-.179-.249L1.454,1.95l-.446-.5L.816,1.177l-.17-.2L.359.747.2.507,0,.312.3,0,.552.252.7.48l.258.2.2.236.192.273.394.445.268.212.181.255.193.209.218.2.225.236.2.276.2.184.222.246.2.271.194.218.22.173.448.484.266.219.157.24.486.456.135.25.425.391.411.5.477.447L7,7.329l.269.166.185.322.18.2.675.63.61.717.191.282.193.205.2.283.393.46.252.256.137.246.255.253.126.255.2.2.212.259.186.276.126.285.255.269.1.256.224.239.1.324.185.266.112.261.217.29.1.3.333.587.032.285.122.246.193.637.028.352.05.311-.048.427Z" transform="translate(17.356 6.006)" fill="#f7bfa0"/>
      <path id="Fill_12" data-name="Fill 12" d="M10.751,16.194h0l-.318-.105-.643-.062-1.237-.438-.2-.17-.319-.077-.269-.261-.476-.308-.266-.152-.269-.21-.47-.435-.221-.234-.2-.266-.2-.176-.226-.253-.446-.4L4.7,12.439l-.173-.22-.3-.205-.167-.229-.232-.161-.256-.213-.237-.232-.182-.25-.305-.205L2.695,10.5l-.271-.177-.172-.288-.243-.209L1.835,9.6,1.551,9.38l-.176-.26L.935,8.657.844,8.332.689,8.108l-.275-.6L.332,7.172l-.1-.257L.134,6.6,0,5.931.061,5.62,0,5.309l.072-.347L.08,4.688l.074-.341L.2,3.994l.13-.284.157-.268L.608,3.11l.168-.23.136-.308.211-.284.23-.21.2-.234.7-.625.8-.506L3.335.48,4.218.207,5.162,0l.344.021.341.086.281.045.346.02.585.19.36.185.232.217.481.315.251.2.294.148.183.283.217.172.694.685.211.248.217.171.286.284.127.248.219.158.252.235.216.284.2.205.214.255.264.222.16.246.212.194.283.2.4.495.168.234.28.216.162.231.27.214.369.5.407.426.2.285.129.289.213.262.131.278.1.334.1.265.154.327.04.307.15.569.046.373-.064.317.012.318-.086.3,0,.317-.1.327-.429.858-.149.338-.4.452-.191.237-.239.235-.292.2-.207.184-.283.187-.582.268L12.7,15.8l-.326.127-.321.082-.31.119-.356-.011-.265.047-.371.031ZM5.207.434l-1.7.444-.2.18-.8.51-.228.182-.2.2-.231.206-.194.222-.23.212-.154.214-.139.31-.163.222-.106.3L.71,3.91l-.1.23-.027.276-.073.329L.5,5.014l-.058.3.06.307-.058.314.11.566.084.277.107.271.079.33.238.516.189.29.072.257.39.413.175.254.27.206.178.228.269.24.139.234.285.206.15.222.3.2.185.26.2.192.229.189.3.219.166.225.288.2.176.224.232.164.486.432L5.959,13l.212.189.217.278.415.413.457.387.513.3.263.184.211.2.3.074.25.209,1.108.379.636.06.26.086.266-.022.29-.047.31.005.255-.1.322-.083.265-.1.225-.144.586-.27.226-.15.207-.184.283-.188.189-.19.375-.459.194-.205.1-.252.423-.839.067-.229,0-.312.085-.294-.01-.3.059-.3-.031-.274-.15-.569-.04-.3-.124-.244-.12-.305-.088-.319-.105-.217L14.64,8.6l-.123-.284-.153-.22-.4-.421-.37-.492-.273-.22-.16-.228-.278-.213-.374-.5-.178-.206-.241-.166-.292-.273-.157-.24-.221-.18-.445-.487-.209-.278-.206-.189-.281-.2L10.12,3.5l-.2-.19-.233-.19-.441-.491-.22-.193L8.79,2.2l-.272-.229-.14-.216L8.15,1.637l-.511-.374L7.388,1.1,7.15.883,6.9.76,6.367.59,6.086.579,5.758.527,5.438.445,5.207.434Z" transform="translate(15.821 16.175)" fill="#2c4349"/>
      <path id="Fill_13" data-name="Fill 13" d="M19.789.051,19.476.033l-.295.019-.32,0-.309.012-.317.077L17.928.109l-.273.022L17.312.1l-.344.019-.279.058L16.381.152,16.074.2,15.44.138l-.3.059-.338,0-.287.031L14.192.189l-.3.066-.3-.065-.656.047L12.35.3,12.013.274,11.369.3,11.1.335,10.785.252,10.446.31l-.288.025L9.831.3,9.517.363l-.3-.027-.3.034L8.6.291,8.285.358,7.972.295l-.31.075L7.356.315H7.024L6.691.348,6.415.4,6.093.363,5.78.446,5.467.426l-.321.08L4.548.6,4.2.629,3.932.694,3.6.723,3.28.782,2.656.941l-.326.113-.8.384-.368.1-.234.244-.252.1-.307.295L0,2.672l.348.254L.7,2.456l.186-.193.252-.1.255-.24.278-.075.3-.125L2.5,1.449l.579-.174.576-.125L4,1.118l.271-.065.33-.025.633-.1L5.505.86,5.823.88,6.122.8l.309.037L6.753.774,7.044.745l.272,0L7.674.81,7.98.736,8.288.8l.3-.065.3.073L9.222.769,9.543.8,9.85.733l.3.035L10.5.737l.265-.045.309.081.332-.046L12,.7l.355.025,1.207-.1L13.893.7l.321-.072.3.035.31-.035h.354l.283-.052.62.062L16.4.585l.318.027.306-.066L17.3.53l.347.031.274-.022.349.034.321-.082L18.868.48l.325,0,.283-.019.335.021.308-.05.286.02.03-.43L20.1,0Z" transform="translate(60.164 32.031)" fill="#f7bfa0"/>
      <path id="Fill_14" data-name="Fill 14" d="M0,.122.1.471l.7.712.6.3.268.166.319.1.281.143.32.072.318.137.907.258.334.014.3.107.276.046.33.109.344.056h.287l.274.078.34.015.622.168.306-.013.336.05.292.008.322.079.308-.031.261.087.7.029.584-.016.333.05.641.021.268-.019.31.1.341-.037.288-.008.321.058.313-.048.3.043.293-.016.317.095.316-.05.31.078.313-.062.3.068.327.018.33-.009.276-.03.313.071.317-.046.3.059.324-.031.6.008.339.041.277,0,.327.051L20,3.607l.585-.037.267.016.356.1.31-.066.248.076.126-.412-.355-.109-.317.068-.295-.08-.331-.024-.324.009-.286.028-.915-.04-.639-.076-.283,0-.333-.041-.649-.009-.282.027-.315-.061-.31.044-.305-.069-.329.037L15.327,3l-.272-.012L14.7,2.9l-.31.061-.3-.076-.305.049L13.49,2.85l-.325.019-.317-.047-.305.047-.295-.053-.349.01-.265.028-.3-.1L11,2.778l-.593-.019-.349-.05-.6.013-.6-.017L8.539,2.6l-.327.033L7.94,2.563l-.334-.012L7.257,2.5l-.287.009L6.4,2.352l-.344-.016-.306-.087-.311,0-.274-.044L4.835,2.1l-.27-.044-.3-.109L3.9,1.927l-.846-.24-.329-.14-.282-.06-.293-.145-.275-.078L1.621,1.1,1.074.843.486.249.413,0Z" transform="translate(58.757 44.844)" fill="#f7bfa0"/>
      <path id="Fill_15" data-name="Fill 15" d="M13.441,10.676h-.307l-.343-.05h-.283l-.311.047-.345-.048-.936.051-.31-.07-.311.022-.3-.053-.306.055-.341-.019-.336-.049-.6-.023-.311.051-.345-.051-.285-.006-.3.018-.328,0L6.5,10.5l-.273.017L5.895,10.5l-.624-.068-.282.018-.343-.038-.32-.067-.358-.037-.263-.123-.661-.194-.226-.182-.581-.269L1.219,8.709l-.127-.235-.268-.2L.688,7.924.252,7.145.137,6.814.066,6.487l-.048-.32L0,5.837.031,5.5.025,5.214l.2-1.319.128-.251L.446,3.28l.168-.23.1-.264.168-.3.248-.308.218-.167.176-.283.292-.164.221-.251L2.362,1.2l.273-.189L2.9.91l.31-.2.3-.07L4.09.388,4.424.4,4.682.321l.644-.1.342,0,.59-.077L6.922.114l.29.071.3-.067.323.036L8.119.122h.337l.3-.061.636.058L9.7.067l.311.025.281-.058.347-.017.344.035.275-.018.311.034L11.893,0H12.2l.625.018.34.049.307-.012.329.1.337.044.563.224.348.108.515.346.253.122.607.417.153.243.211.174.45.466.2.272.346.618.068.308.211.552.093.358-.031.353.09.889v.367l-.121.292.013.264-.054.392-.111.289-.079.277-.133.307-.117.345-.194.242-.283.571-.214.224-.262.212L16.4,9.59l-.267.257-.26.112-.3.207-.867.263-.285.108-.343.061-.316-.005-.328.084Zm-.961-.479h.347l.341.05.244,0,.3-.084.341.009.261-.049.54-.2.566-.159.261-.19.243-.1.224-.229.259-.165.221-.179.166-.177.263-.536.19-.242.076-.256.134-.306.075-.267.106-.282.037-.281-.019-.321.125-.3-.018-.554-.07-.616.025-.317-.068-.266-.211-.554-.071-.31-.292-.5-.173-.239L16.5,2.147l-.267-.233-.147-.232-.481-.314-.255-.122L14.842.9,14.574.829,14,.6,13.722.572l-.3-.084L13.143.5,12.8.446l-.281,0L12.191.43h-.275L11.593.5,11.245.464l-.273.018L10.624.446l-.281.014-.308.066L9.717.5,9.4.552,8.779.493,8.5.547l-.354,0L7.832.589l-.3-.033L7.208.627,6.88.547,5.993.6,5.7.648H5.353L4.784.739l-.3.1L4.174.824l-.531.227-.294.072-.27.181-.263.1L2.533,1.6l-.247.086-.227.239-.227.127-.189.279L1.415,2.5l-.176.222L1.1,2.97l-.124.31L.822,3.5l-.071.317-.123.243L.453,5.247l.008.268-.032.332.016.278L.552,6.7l.092.271.435.772.1.26.268.224.129.238.906.724.582.269.215.173.588.158.247.116.271.018.33.068L5,10.024l.273-.019.333.023.328.047.292.012.293-.014.352.047h.284l.3-.017.329.007.306.045.284-.044.676.023.335.049.272.014.331-.059.327.056.323-.022.319.073.288-.006.3-.031.33-.011.319.041.284-.04Z" transform="translate(54.099 34.455)" fill="#2c4349"/>
      <path id="Fill_16" data-name="Fill 16" d="M19.926.263,19.79.49l-.239.158-.443.362-.265.053-.308.17-.542.212-.34.072-.28.107-.857.241-.33-.021-.3.112H15.6l-.321.064-.349.028-.277.07-.615-.037-.31.056-.315-.025-.3.063-.28.009-.345-.04-.274.016-.349-.041-.324.077-.279.006L10.937,2.2l-.284.015-.338-.025-.309.046L9.694,2.2l-.309.045-.312-.03-.338.01-.282.042L7.805,2.22l-.3.038-.327.018-.27.033L6.6,2.227l-1.875.15-.315-.048-.929.078-.308-.063-.358.014L2.531,2.4l-.336.007-.284.039L1.276,2.4l-.31.076-.619-.05L0,2.52l.115.415.268-.074.626.046.306-.075.606.047.307-.044.337-.007.286-.042.285-.009.317.065.939-.079L4.7,2.81l.644-.034,1.221-.111.315.082.664-.059.271-.038.642.058.312-.049.284-.009.339.034.311-.045.312.026.312-.047.315.022.3-.014.321.007.312-.007.318-.071.308.034.273-.016.34.04.349-.011.281-.056.311.025.309-.056.642.035.3-.079.34-.025.284-.059h.293l.33-.107.31.019.648-.17.565-.2.337-.071.617-.241.237-.14.334-.067L19.8.994l.3-.2.168-.287L20.47.271,20.135,0Z" transform="translate(0 45.615)" fill="#f7bfa0"/>
      <path id="Fill_17" data-name="Fill 17" d="M.308.03H0V.461H.327L.591.437l.3.105L1.225.521l.594.021.349.049.608-.02.319,0L3.374.57,3.7.664l.325-.05.3.054L4.631.654l.353.023L5.269.643l.613.1L6.2.718l.314.048L6.82.72l.277,0,.343.055.273,0,.345.059.326-.06.6.034h.281l.333.046L9.9.826l.308.046.309-.025.307.05.336.013.282-.022.635.1.291-.013.321.013.279,0,.3.115h.346l.619.021.909.092.28.093.944.108.265.117.37.077.283.027.326.079.286.039.564.22.343.039.242.1.28.146.353.06.273.139.266.093.227.171.31.137.414.354.287.521.376-.212-.3-.545L21.25,2.7,21,2.5l-.318-.142-.232-.174-.328-.124-.279-.145-.352-.06-.262-.136-.29-.122-.352-.041-.555-.218L17.7,1.29l-.333-.08-.293-.029-.281-.055-.271-.12L15.544.889,15.262.794,14.591.719,13.628.668h-.274L13.048.551,12.7.558,12.372.545,12.1.56,11.471.453,11.157.48,10.873.47,10.539.413l-.313.025L9.917.393,9.6.42,9.294.379,8.352.34,8.055.4,7.75.346l-.273,0L7.138.295l-.343,0L6.514.33l-.3-.046L5.9.312l-.626-.1-.3.04L4.639.224,4.35.235,4.028.176l-.3.047L3.431.137,3.094.145l-.318,0L2.191.163,1.859.114,1.221.091.952.107.645,0Z" transform="translate(0.054 32.05)" fill="#f7bfa0"/>
      <path id="Fill_18" data-name="Fill 18" d="M6.323,10.719h0l-.612-.073-.316.057-.344-.046-.291-.072-.323.021L4.1,10.5l-.344-.077-.249-.139-.326-.094-.574-.333-.2-.18-.316-.115-.238-.289-.2-.193L1.419,8.9l-.275-.265-.17-.259L.746,8.121l-.287-.6-.078-.3-.315-.9L.021,5.987l.039-.313L0,5.07l.013-.388L.1,4.408l.024-.342.091-.261.021-.341.1-.292.431-.85.149-.338.6-.679.291-.252L2.078.9,2.306.738l.3-.156.61-.2L3.477.263l.336-.09.324-.05.31-.092.329.03L5.414,0,5.73.085,6.32.049,6.979.1,7.614.061l.3.075L8.228.058l.366.088.275.008L9.81.1l.952.043.33.047.278-.008.34.036.291,0,.31,0,.327-.035.306.064L13.27.22l.31.1.28.009.334.053L14.559.5,14.8.636l.327.045.266.194.319.092.241.241.289.164.2.194.313.2.188.246.463.445.1.324.16.22.154.308.122.3.07.342.089.266.074.321.069.684-.086.3.035.312-.1.34-.028.27-.1.332-.065.347-.146.275-.173.256-.14.324-.183.219-.157.3-.233.268-.247.19-.247.227-.242.139L15.9,9.56l-.266.158-.578.273-.335.1-.3.14-.307.052-.311.112-.311.023-.284.048-.314.081-.65-.023-.273.04-.671.04-.305-.087-1.86.157-.315-.046-.946.08-.319-.066-.287.006-.287.038h-.34l-.312.036ZM5.7,10.211h0l.631.074.286-.031h.337l.281-.039.358-.01.31.065.932-.079.317.046,1.877-.161.314.089.877-.074.629.019.27-.07.323-.054.3-.022.263-.1.315-.057.255-.123.335-.1.75-.383.246-.246.246-.141.205-.193.245-.19.168-.2.158-.3.176-.212.123-.3.174-.257.118-.224.043-.273.1-.323.027-.269.083-.292-.035-.312.088-.308-.059-.57-.064-.279-.09-.272-.066-.329L17.3,3.219l-.193-.277-.079-.253-.408-.394-.182-.234L16.165,1.9l-.2-.192-.3-.169-.184-.185-.316-.1-.211-.153L14.62,1.03,14.368.887,14.095.8,13.817.76,13.473.742,13.218.658l-.3.028-.3-.064-.281.03L12,.654l-.317,0L11.351.614l-.284.007L10.424.556,9.8.534H9.494L8.87.586,8.534.571,8.23.5,7.909.58,7.574.5l-.6.036L6.316.478,5.684.518,5.374.436,4.78.494,4.488.467,4.229.543,3.9.595,3.622.667,3.379.784l-.611.2-.24.124-.219.161-.271.152-.214.188-.57.644-.1.251-.427.839L.653,3.57l-.022.347L.54,4.179l-.022.33L.435,4.78l0,.279.064.612-.039.313.033.256.106.267.275.886.252.514.19.206.177.266.209.2.229.175.239.227.181.216.315.131.217.193.492.282.324.094.244.136.272.054.28.09.309-.02.332.084.252.032.311-.056Z" transform="translate(8.325 35.412)" fill="#2c4349"/>
      <path id="Fill_19" data-name="Fill 19" d="M.085,16.3.031,15.99,0,15.633.056,15.3l.022-.353.108-.295.071-.336L.4,14.036l.116-.271.122-.339L1,12.917l.115-.253.366-.62.221-.18L2.19,11.1l.628-.787.231-.183.637-.746.25-.157.2-.2L4.309,8.8l.238-.238L4.755,8.3,5.2,7.926l.19-.288.461-.385.185-.294.235-.21.21-.261.226-.169L6.9,6.059l.442-.427.239-.182.158-.288.305-.21.195-.2.362-.48.24-.219.2-.28.237-.207.2-.214.272-.219.392-.437.156-.24.24-.255.264-.189.168-.221.254-.239.188-.217L11.87.9l.182-.2.17-.3.29-.182L12.7,0l.321.287-.252.27L12.544.7l-.155.267-.43.458-.234.218-.189.217-.244.227-.211.266-.26.181-.184.2-.15.233-.441.491-.273.219-.189.208-.233.205-.2.276-.233.21-.351.467-.246.246-.249.174-.191.308-.253.19-.416.4L7,6.645l-.23.172-.178.226-.235.214-.2.309L5.7,7.94l-.194.291-.465.387-.177.226-.238.238-.174.224-.27.268-.244.154-.609.723-.23.181-.563.713L2,12.174l-.218.177-.414.779-.361.521-.089.268-.13.3-.139.265L.6,14.764l-.106.3-.011.281-.05.309.024.284.051.29Z" transform="translate(50.283 6.024)" fill="#f7bfa0"/>
      <path id="Fill_20" data-name="Fill 20" d="M1.022,13.444l-.754-.09L0,13.209l.205-.379.226.122.53.05.285-.12.32.009.242-.11.314-.11.237-.14.349-.157.261-.05.2-.172,1.406-.783.264-.206.274-.11.241-.161.193-.2.523-.4.3-.168.217-.171.258-.165.235-.242.261-.178.4-.421.272-.217.269-.151L8.506,8.3l.265-.165.44-.366L9.445,7.5l.24-.155.189-.21.245-.2.213-.291.462-.337L11,6.035l.483-.359.188-.215.247-.224.183-.215.283-.258.25-.143.666-.681.248-.158L14.9,2.416l.254-.128.182-.2.431-.45.521-.383.187-.218.249-.229.255-.18L17.2.377l.232-.164L17.624,0l.323.285L17.707.55l-.231.165-.227.25-.255.178-.209.192-.229.258-.5.358-.179.206-.5.5-.254.128-.613.662-.715.689-.247.157-.679.69-.254.145-.208.194-.186.218-.248.225-.222.249-.467.346-.206.275-.474.349-.2.277-.245.191-.224.243-.236.153-.21.246-.471.389-.252.159-.181.27-.332.183-.218.175L7.619,9.7l-.27.188-.244.249-.265.168-.229.179L6.3,10.66l-.471.36-.205.206-.331.22-.265.106-.218.176-.31.17-.245.161-.841.446-.254.222-.348.067-.259.121-.258.148-.332.119-.315.144-.327-.009Z" transform="translate(56.673 17.343)" fill="#f7bfa0"/>
      <path id="Fill_21" data-name="Fill 21" d="M5.082,15.939h0l-.349-.027-.309.025-.334-.08-.342-.033-.567-.217-.355-.117-.5-.372-.245-.141-.57-.472-.129-.254-.194-.191-.41-.5L.6,13.281l-.307-.634-.05-.311-.175-.562L0,11.408l.058-.35-.017-.569.089-.7.229-.553.068-.354.149-.273.168-.245.11-.339.184-.251.169-.3.2-.2.171-.285L2,6.536l.241-.187L2.4,6.06l.315-.2.192-.185L3.268,5.2l.238-.22.2-.282.234-.208.2-.215.271-.221L4.8,3.613l.159-.241L5.2,3.116l.266-.188.173-.22.26-.237.2-.213.693-.64.187-.283L7.3,1.189,7.8.808,8.075.666,8.366.481,8.686.447,8.955.279,9.3.247,9.571.165l.615-.141L10.536,0l.373.009.278.067.322-.007.3.1L12.175.2l.609.26.23.163.338.133.468.4.283.184.892.95.107.242.252.211.121.355.423.775.114.329.072.327.046.32.013.331-.04.341-.016.332-.326,1.257-.157.232-.133.347-.19.208-.123.25-.189.282-.26.284-.22.155-.213.3-.234.15-.229.291-.249.142L13.35,10l-.224.174-.216.284-.258.187-.437.5-.254.135-.178.212-.467.457-.27.211-.4.444-.486.491-.239.137-.208.272-.239.168-.193.214-.254.225-.22.261-.259.171-.264.146-.263.226-.255.121-.257.207-.273.143-.338.1-.305.125-.272.049-.306.149-.3.062-.636.064Zm-.346-.456h0l.343.028.575-.06L5.9,15.4l.314-.15.28-.05.26-.111.321-.1.212-.115.27-.214.249-.12.247-.215.272-.149.215-.143.175-.218.261-.233.227-.247.228-.161.232-.292.252-.143.83-.891.282-.222.434-.426.255-.28.25-.133.168-.216.226-.247.261-.194.21-.279.232-.18.248-.27.24-.137.215-.28L14,8.838l.2-.292.235-.165.19-.212.156-.232.157-.3.179-.2.108-.308.152-.226.282-1.132.011-.283.04-.325L15.7,4.891l-.1-.571-.092-.27-.427-.78L14.986,3l-.237-.2-.131-.3-.811-.847-.239-.149-.465-.4L12.791.994,12.558.829,12.037.612,11.7.59,11.441.5l-.3.007L10.832.434l-.286,0-.3.017L9.357.675,9.1.7,8.83.866,8.511.9l-.222.14-.27.14L7.5,1.573l-.235.105-.147.215-.482.465L6.4,2.567l-.2.212L5.953,3l-.213.262-.263.18-.184.2-.152.234L4.7,4.368l-.271.22L4.242,4.8,4.011,5l-.2.277-.232.212-.351.47-.251.24-.256.164-.187.3-.249.191-.379.41-.178.3-.2.2L1.4,8l-.176.244-.105.333-.177.256-.119.22-.059.327-.223.537-.072.6.016.581-.049.31.049.27.176.562.052.312.259.519.157.249.373.45.248.257.123.244.448.355.242.138.486.359.563.184.266.11.275.021.3.069Z" transform="translate(48.267 15.783)" fill="#2c4349"/>
      <path id="Fill_22" data-name="Fill 22" d="M.377,16.281,0,16.073l.2-.34.428-.388L.788,15.1l.9-.915.218-.2.2-.271.227-.213.23-.187.2-.292.252-.193.182-.206.232-.2.2-.305.224-.176.212-.281.255-.189.406-.425.167-.232.458-.521.222-.159.168-.283.29-.17.161-.217.24-.247L6.6,8.986,6.871,8.7l.229-.14.162-.268L7.7,7.838l.238-.215.193-.215.248-.222L8.6,6.925l.244-.159.206-.2L9.2,6.33l.43-.49.262-.225.175-.213.215-.215.173-.286.211-.231.285-.5.2-.275.21-.209.122-.331.2-.24.287-.486.112-.327.154-.238.074-.27.112-.277.014-.341.095-.3.033-.231L12.5.386,12.455.052,12.882,0l.037.3.088.318-.054.355-.092.3-.02.368-.12.29-.1.337-.156.242-.108.318-.32.534-.2.235-.1.318-.266.26L11.31,4.4l-.3.526-.22.246-.183.3-.222.221-.188.225-.266.229-.39.445-.161.241-.282.28-.233.153-.171.216-.258.234-.192.213-.46.434-.187.2-.177.3-.3.182-.192.208L6.757,9.5l-.241.248-.232.286-.231.136-.2.292-.236.169-.8.942-.219.225-.252.191-.206.276-.219.171-.189.295-.24.205-.191.213-.25.2-.2.287-.442.385-.2.273-.884.86-.206.22-.177.271-.438.4Z" transform="translate(17.358 58.28)" fill="#f7bfa0"/>
      <path id="Fill_23" data-name="Fill 23" d="M.235,13.446,0,13.085l.225-.146.2-.273.247-.187L.9,12.24l.238-.153.182-.218.5-.422.25-.164.176-.276.318-.188.207-.182.393-.455.253-.2.22-.265.249-.191.21-.2.285-.2L4.8,8.718l.171-.228.255-.237L5.5,8.084l.182-.209.268-.219.2-.2.483-.406.2-.191.191-.29.3-.159.2-.191.184-.222.254-.229.251-.269.239-.118L8.667,5.1l.246-.148.634-.642.51-.423.277-.159.245-.249.241-.139.234-.263.268-.162.227-.179.285-.149.253-.246.536-.3.241-.213,1.362-.757.265-.206L14.777.74l.281-.1L15.37.426l.309-.07.6-.228.309-.046L16.921,0l.358.005.343.081.265.123L17.7.6,17.461.486,17.209.431h-.26L16.673.5l-.31.048-.555.215-.3.069-.279.2-.3.1-.243.109-.228.181L13.093,2.2l-.215.193-.562.319-.254.246-.283.144-.213.171-.257.158-.24.268-.247.142-.247.25-.277.155-.453.378-.2.218-.491.468-.23.138-.187.268-.3.147-.174.2-.252.227-.178.217-.286.264-.231.122-.174.254-.46.424-.249.2-.2.2-.257.208-.228.25L5.48,8.6l-.194.183L5.121,9l-.47.458-.286.2-.2.193-.245.189L3.7,10.3l-.246.193-.381.443-.262.228-.26.157-.211.293-.265.171-.458.386-.222.256-.242.155-.19.208-.248.192-.221.289Z" transform="translate(6.059 49.823)" fill="#f7bfa0"/>
      <path id="Fill_24" data-name="Fill 24" d="M5.3,15.917h0L5,15.854l-.314.04-.4-.089-.25-.14-.27-.06-.6-.239-.57-.337-.3-.233-.18-.224-.262-.207-.177-.22-.282-.232-.163-.264L.8,13.182l-.09-.323-.153-.221-.149-.306-.12-.3-.07-.34-.088-.265-.072-.322L0,10.417l.1-.3L.091,9.8l.131-.33L.281,9.2l.135-.32.106-.336L.7,8.289l.2-.234.167-.3.2-.2.171-.283.209-.227.277-.215.191-.205.25-.19.187-.274.679-.648.249-.2L3.7,5.045l.233-.18L4.154,4.6l.256-.191.209-.2.225-.266.5-.376.177-.211.49-.51.254-.131.6-.669.742-.686.28-.141L8.35.868l.341-.2L9,.594,9.5.347,10.17.126l.6-.035L11.081,0l.347.025.3.059.323-.035.338.1.352.072.252.14.328.1.563.365.189.194.306.143.211.309.185.212.211.192.251.283.15.271.21.268.249.609.059.305.257.92.02.339-.066.31.012.309-.116.622-.312.908-.058.338-.235.266-.132.248-.12.27-.2.289-.2.325-.217.158-.179.31-.229.177-.583.69-.449.456-.249.19-.2.278-.216.173-.186.294-.238.207-.191.215-.25.2-.2.289-.464.4-.187.258L9.587,14.1l-.2.266-.241.2-.254.163-.22.255-.339.138-.559.307-.3.087-.3.129-.3.067-.322.045-.272.074-.351.067-.312-.035-.316.053Zm-.292-.5h0l.3.062.3-.051.308.035.271-.05.283-.076.595-.106.262-.117.3-.09.511-.286.271-.111.22-.242.26-.166.2-.165.172-.233,1.148-1.079.17-.237.257-.245.23-.187.2-.293.251-.2.181-.207.23-.2.2-.3.222-.178.211-.284.252-.189.411-.42.178-.227.444-.5.21-.162.143-.286.263-.192.127-.23.188-.273.106-.249.18-.326.171-.194.046-.254.311-.9.1-.554-.012-.31.065-.306-.014-.254-.087-.273-.22-.9-.22-.527-.176-.217-.158-.279-.193-.211-.214-.2-.218-.248L14.088,1.5l-.3-.154-.2-.206-.471-.3L12.8.745,12.56.611,12.291.564,12.01.486l-.305.033L11.37.452,11.128.436,10.812.52l-.579.033L9.664.745,9.136,1l-.31.076-.233.146-.479.359-.286.148-.651.612L6.5,3.077l-.253.132-.606.665-.52.4L4.934,4.5l-.247.239-.255.193-.22.26-.233.18-.219.261-.248.2-.2.206-.447.415-.217.3-.253.189-.19.2-.275.213-.164.183-.178.292-.193.2-.154.285-.2.237L.9,8.76.82,9.025l-.131.309-.056.26-.107.277.011.307-.1.3.045.564.062.275.09.27.066.328.229.509.187.287.07.257.383.427.161.257.256.2.177.22.263.207L2.6,14.5l.227.169.508.3.258.092.293.129.32.077.247.139.238.045.317-.04Z" transform="translate(16.209 48.851)" fill="#2c4349"/>
      <path id="Fill_25" data-name="Fill 25" d="M11.726,9.779l-.319-.009L11.091,9.7l-.318.022-.3-.081-.318.024-.337-.1L9.487,9.5l-.257-.11-.352-.045L8.318,9.1,8,9.019,6.633,8.278l-.312-.124L6.07,7.972,5.848,7.78l-.34-.158-.215-.229-.467-.348-.237-.252-.219-.166-.44-.5-.477-.442-.146-.237L3.047,5.22l-.141-.231L2.643,4.78l-.218-.3L2.32,4.221l-.18-.2-.188-.283-.183-.22-.536-.845L1.139,2.4.792,1.925.608,1.589l-.09-.3L.156.464,0,.24.358,0,.533.261l.388.875.093.307.139.25.38.535.1.274.484.757.182.218.183.277.224.271.108.269.153.2.285.234.144.236.259.23.15.243.432.392.424.482.218.165.237.251.464.345.21.219.314.139.234.2.213.152.268.1,1.355.734.279.064.577.253.341.041.267.115.282.054.28.081.314-.024.3.081.308-.021.338.077.269,0,.3,0,.273-.051.637-.09.292.016.3-.122.328.029.252-.088.143.406-.34.12L13.6,9.537l-.29.118-.34-.019-.9.136Z" transform="translate(17.33 18.066)" fill="#2c4349"/>
      <path id="Fill_26" data-name="Fill 26" d="M.041,10.646,0,10.218l.307-.029.3.008.32-.109.318-.026.26-.053.266-.125.337-.1.562-.23.271-.137.23-.145.206-.212.5-.374.178-.3.214-.195.152-.243.136-.265.158-.261L4.8,7.144l.212-.581.047-.6.073-.31-.043-.306.034-.3-.087-.265-.047-.352.019-.322-.183-.576L4.4,2.745l-.171-.251L4.09,2.224l-.21-.186-.493-.373L3.16,1.432l-.508-.316L2.4.991,2.117.931,1.5.722,1.217.591.892.557.608.468.315.437.017.431.027,0,.343.007.717.05,1,.14l.367.046.291.138.574.193.343.078L3.143.9l.311.212.222.231.777.642.15.285.333.519.286.581.22.673-.026.37.037.27L5.56,5l-.039.339.047.332-.087.353-.055.654-.33.941-.165.271-.137.268-.214.329-.21.191L4.171,9l-.509.38-.238.24-.27.169-.3.153-.6.246-.324.093-.306.141-.311.062-.313.027L.68,10.63l-.359-.012Z" transform="translate(15.001 35.435)" fill="#2c4349"/>
      <path id="Fill_27" data-name="Fill 27" d="M.03,5.406,0,5.066l.064-.333.028-.287.181-.633.122-.287.058-.284L.564,2.92l.157-.339.173-.233.168-.329L1.291,1.8l.4-.448L1.9,1.075,2.152.888,2.427.711,2.76.538l.3-.081L3.935.093l.354,0,.59-.067L5.5,0,6.23.059,6.519.2l.257.06L7.1.27,7.4.437l.355.122.242.2.549.348.649.727.154.269.166.237.188.328.075.261.2.3.148.6.134.293.065.3.071.642.016.308-.43.022-.039-.6-.1-.558-.123-.262-.153-.6-.2-.288-.078-.272-.461-.741-.2-.2-.393-.453-.494-.305L7.512.919,7.206.824,6.979.695,6.712.679,6.375.6,6.089.468,5.82.461,5.5.429l-1.183.1h-.3L3.754.618,3.2.864,2.9.947l-.251.136L2.187,1.4l-.168.228-.63.675-.136.284-.172.232-.117.262-.1.276L.8,3.674l-.121.284-.164.568L.49,4.8l-.056.292.025.279Z" transform="translate(34.612 14.974)" fill="#2c4349"/>
      <path id="Fill_28" data-name="Fill 28" d="M.25,12.861,0,12.51l.221-.158.187-.287.469-.375.186-.272.227-.211.242-.181.2-.264.233-.2.182-.214.707-.621.171-.23.441-.476.252-.195L3.94,8.55,4.2,8.373l.407-.409L4.794,7.7l.676-.641.268-.187.2-.209.424-.521.263-.178.626-.637L7.437,5.1l.246-.234.239-.271.253-.147.181-.18.206-.313.224-.168L9,3.507,9.24,3.34l.389-.452.5-.429.182-.217.272-.226.434-.466.222-.158.2-.3.452-.381.17-.243L12.541,0l.293.316-.451.433-.191.27-.462.393-.207.307-.24.171-.407.44-.266.219-.176.212-.5.432-.424.486-.229.161-.208.273-.217.162-.176.28-.264.252-.244.141L8,5.159l-.246.234-.181.221-.67.677-.267.185-.368.464L6,7.21l-.261.178-.633.6-.164.243-.471.473-.261.179L4,9.149l-.25.19-.394.428-.212.274-.242.2-.453.411-.181.213-.235.209-.215.282-.251.187-.19.178-.212.3-.45.356-.208.307Z" transform="translate(18.072 50.389)" fill="#2c4349"/>
      <g id="Group_55" data-name="Group 55" transform="translate(37.915 11.64)">
        <path id="Fill_29" data-name="Fill 29" d="M2.223,5.031h0a.216.216,0,0,1-.2-.153l-.173-.611-.149-.239L1.515,3.8,1.37,3.54l-.223-.147a.18.18,0,0,1-.035-.029l-.4-.4L.453,2.887l-.336-.17a.215.215,0,0,1,.032-.4l.288-.095.216-.172.262-.164.432-.421.346-.436.331-.9A.213.213,0,0,1,2.227,0h.007a.214.214,0,0,1,.2.155l.093.32.142.248a.236.236,0,0,1,.02.047l.082.276.148.246.161.2.234.168.246.225.23.17.489.285a.215.215,0,0,1-.036.389L4,2.813l-.228.167-.22.194-.277.167-.194.206-.33.485-.326.851A.214.214,0,0,1,2.223,5.031Zm0-4.212-.135.389a.223.223,0,0,1-.034.063l-.393.492L1.2,2.21a.2.2,0,0,1-.041.032L.9,2.407l-.153.122.136.04a.218.218,0,0,1,.085.05l.434.427.248.163a.222.222,0,0,1,.072.078l.15.279.174.213.181.288a.244.244,0,0,1,.025.059l.12-.291.187-.3.193-.264.23-.248a.223.223,0,0,1,.049-.039L3.3,2.826l.2-.181L3.7,2.5l-.15-.089-.266-.2-.244-.223L2.8,1.824a.257.257,0,0,1-.042-.041l-.2-.246-.178-.292a.219.219,0,0,1-.022-.05L2.279.916Z" transform="translate(0.67 42.41)" fill="#2c4349"/>
        <path id="Fill_31" data-name="Fill 31" d="M2.2,5.043h0A.215.215,0,0,1,2,4.9l-.115-.335-.07-.277-.17-.21-.31-.533L1.12,3.377.9,3.16.389,2.842.123,2.72a.215.215,0,0,1,.025-.4l.273-.09.461-.358.436-.38.137-.236a.214.214,0,0,1,.029-.04l.2-.211L1.818.754l.1-.267.072-.32A.215.215,0,0,1,2.188,0h.019a.214.214,0,0,1,.2.137L2.646.76l.239.541.165.2.227.187.24.169.228.23.247.138.229.1a.215.215,0,0,1-.009.4l-.231.089-.246.158-.865.788-.131.25-.1.269-.163.27-.057.314a.215.215,0,0,1-.2.176ZM2.23.878,2.208.936l-.162.3a.212.212,0,0,1-.032.043l-.2.213-.144.249a.211.211,0,0,1-.05.059l-.9.742.422.259a.232.232,0,0,1,.04.031l.22.219.229.174a.227.227,0,0,1,.057.065L2,3.83l.182.22a.224.224,0,0,1,.042.084l.03-.042.094-.257.158-.3a.244.244,0,0,1,.039-.052l.466-.437.464-.409.165-.109-.129-.071a.233.233,0,0,1-.05-.04l-.219-.228-.223-.151-.257-.212a.26.26,0,0,1-.031-.031l-.2-.246A.209.209,0,0,1,2.5,1.491Z" transform="translate(0.69 42.411)" fill="#2c4349"/>
        <path id="Fill_33" data-name="Fill 33" d="M2.155,5.026h0a.214.214,0,0,1-.21-.179l-.052-.294-.165-.213A.224.224,0,0,1,1.7,4.283l-.212-.551L1.3,3.525l-.216-.2-.741-.51L.121,2.708a.215.215,0,0,1,.012-.391l.234-.1L.6,2.05l.264-.131L1.02,1.7a.19.19,0,0,1,.031-.035l.416-.392.094-.253L1.872.473,1.946.167A.215.215,0,0,1,2.146,0h.016a.214.214,0,0,1,.2.147l.11.329.4.789.145.231.459.364.476.338.3.115a.215.215,0,0,1-.012.406l-.34.108-.244.131-.2.149-.175.227-.234.239L2.87,3.8l-.344.48-.1.265-.057.309A.215.215,0,0,1,2.155,5.026Zm.01-4.2L1.95,1.2l-.1.269A.211.211,0,0,1,1.8,1.55l-.441.417-.171.244a.218.218,0,0,1-.081.07l-.285.139-.144.1.672.465.257.236.224.25a.225.225,0,0,1,.039.065l.218.561.031.04.018-.047a.177.177,0,0,1,.031-.054l.563-.752.23-.235.177-.23A.169.169,0,0,1,3.18,2.78l.253-.186.192-.1-.906-.681a.233.233,0,0,1-.049-.054l-.328-.539L2.164.825Z" transform="translate(0.739 46.546)" fill="#2c4349"/>
        <path id="Fill_35" data-name="Fill 35" d="M2.169,4.972a.216.216,0,0,1-.2-.126L1.495,3.731l-.19-.209-.219-.187L.9,3.108l-.247-.1A.2.2,0,0,1,.61,2.99L.352,2.821.113,2.692A.215.215,0,0,1,.1,2.321l.246-.157L.878,1.89l.172-.209.225-.215.347-.5.269-.5.068-.3A.216.216,0,0,1,2.149,0h.02a.215.215,0,0,1,.2.131L2.72.994,2.9,1.2a.2.2,0,0,1,.027.04l.13.257.19.213.194.161.262.118.567.319a.215.215,0,0,1,.113.2.22.22,0,0,1-.136.188l-.579.247-.207.132L3.3,3.309a.214.214,0,0,1-.056.055l-.211.14-.1.238A.242.242,0,0,1,2.9,3.8l-.367.462-.088.265-.065.284a.215.215,0,0,1-.189.166ZM2.193.814h0l-.21.384-.363.525a.252.252,0,0,1-.031.038l-.226.213L1.183,2.2a.2.2,0,0,1-.068.055L.641,2.5l.186.122.278.11a.217.217,0,0,1,.087.063l.2.245.212.179.23.252a.23.23,0,0,1,.037.056l.254.588.007-.024a.24.24,0,0,1,.035-.065l.375-.471.111-.27a.21.21,0,0,1,.08-.1l.234-.156L3.132,2.8a.226.226,0,0,1,.06-.057l.265-.168.21-.1-.167-.1-.267-.119a.2.2,0,0,1-.05-.032l-.24-.2-.23-.255a.2.2,0,0,1-.031-.046l-.132-.261L2.364,1.24a.232.232,0,0,1-.038-.067L2.193.815Z" transform="translate(0.725 46.558)" fill="#2c4349"/>
        <path id="Fill_37" data-name="Fill 37" d="M2.247,5.017H2.242a.216.216,0,0,1-.207-.157l-.091-.316L1.8,4.3a.189.189,0,0,1-.022-.05l-.073-.262-.171-.208L1.349,3.5l-.188-.229L.984,3.1.725,3a.226.226,0,0,1-.064-.04l-.2-.178-.3-.074A.212.212,0,0,1,0,2.513.215.215,0,0,1,.135,2.3l.609-.224L.958,1.9l.206-.208.7-.949L2.033.162A.217.217,0,0,1,2.248,0a.212.212,0,0,1,.2.174l.056.282.16.222a.19.19,0,0,1,.024.041l.229.527.205.175.4.462L3.772,2l.283.179.289.119a.215.215,0,0,1,0,.4l-.32.137L3.529,3.1l-.379.446L2.792,4,2.7,4.261a.2.2,0,0,1-.023.044l-.152.234-.073.311A.216.216,0,0,1,2.247,5.017ZM2.278.872,2.268.9a.288.288,0,0,1-.029.058L1.49,1.967l-.243.248-.261.216a.232.232,0,0,1-.068.038L.8,2.507l.118.107.261.105a.223.223,0,0,1,.07.045l.226.22.214.263.187.27.188.23a.188.188,0,0,1,.041.078l.078.28.05.087.065-.1.1-.27a.244.244,0,0,1,.039-.066l.788-.964a.186.186,0,0,1,.058-.048l.461-.252-.184-.114L3.3,2.251A.225.225,0,0,1,3.231,2.2l-.407-.47L2.6,1.542a.212.212,0,0,1-.057-.076Z" transform="translate(0.652 51.021)" fill="#2c4349"/>
        <path id="Fill_39" data-name="Fill 39" d="M2.225,4.962H2.212a.217.217,0,0,1-.2-.171l-.051-.245L1.8,4.322a.208.208,0,0,1-.034-.075L1.706,4l-.19-.174a.222.222,0,0,1-.04-.048l-.308-.5L.948,3.11.7,2.959l-.257-.1L.12,2.7A.218.218,0,0,1,0,2.5a.216.216,0,0,1,.138-.191l.58-.226L.933,1.9l.192-.211.234-.184.108-.245a.371.371,0,0,1,.024-.041L1.831.757,1.88.491A.2.2,0,0,1,1.894.446L2.027.132A.205.205,0,0,1,2.218,0l.026,0a.215.215,0,0,1,.192.164l.072.3.147.239.129.287.35.5.373.408.521.26.257.172a.213.213,0,0,1,.092.21.217.217,0,0,1-.148.175L3.962,2.8l-.242.134-.193.154-.168.237a.218.218,0,0,1-.04.042l-.212.172-.136.236a.211.211,0,0,1-.032.042l-.189.2-.094.252-.142.3-.086.255A.215.215,0,0,1,2.225,4.962Zm.023-4.1,0,.018a.216.216,0,0,1-.036.086l-.357.489-.12.271a.213.213,0,0,1-.066.084l-.251.193-.184.206-.263.222a.233.233,0,0,1-.059.035l-.143.056.125.05.3.18.27.2a.208.208,0,0,1,.052.057l.317.514.215.2a.21.21,0,0,1,.065.107l.067.271.048.067.036-.076.1-.276a.216.216,0,0,1,.048-.076l.2-.209.143-.247a.23.23,0,0,1,.05-.059l.22-.178.167-.238a.208.208,0,0,1,.044-.045l.249-.194.192-.105-.4-.2a.22.22,0,0,1-.06-.044l-.424-.468-.369-.521A.2.2,0,0,1,2.4,1.189Z" transform="translate(0.668 51.01)" fill="#2c4349"/>
        <path id="Fill_41" data-name="Fill 41" d="M2.239,4.946h-.01a.218.218,0,0,1-.2-.166l-.081-.344-.384-.783-.18-.233-.2-.22-.2-.154L.717,2.939a.23.23,0,0,1-.049-.027L.444,2.745l-.3-.112A.217.217,0,0,1,0,2.424a.213.213,0,0,1,.154-.2l.307-.093L1.2,1.615l.176-.174.115-.256a.222.222,0,0,1,.046-.066L1.716.942,1.769.689A.216.216,0,0,1,1.792.63l.15-.273.1-.228A.208.208,0,0,1,2.238,0h.016a.215.215,0,0,1,.193.158l.071.259.124.244.653.986.226.168.25.139.241.187.3.081a.215.215,0,0,1,.03.406l-.581.235-.182.2-.473.385-.13.239L2.8,3.939l-.253.553-.1.308A.215.215,0,0,1,2.239,4.946ZM2.211.76h0l-.027.05-.06.284a.216.216,0,0,1-.06.11l-.2.2-.115.256a.226.226,0,0,1-.046.067l-.227.219-.269.207-.443.3.14.1.271.108a.249.249,0,0,1,.054.032l.247.2.238.257.2.265a.172.172,0,0,1,.023.036l.321.647.149-.342a.188.188,0,0,1,.023-.041l.182-.252L2.75,3.2a.216.216,0,0,1,.056-.066l.482-.391.2-.212a.21.21,0,0,1,.082-.054l.121-.046-.154-.122-.246-.133-.276-.2a.2.2,0,0,1-.047-.049L2.211.76Z" transform="translate(0.655 55.679)" fill="#2c4349"/>
        <path id="Fill_43" data-name="Fill 43" d="M2.235,4.87h0a.215.215,0,0,1-.209-.162l-.058-.224L1.8,4.257A.233.233,0,0,1,1.772,4.2L1.68,3.945,1.5,3.735a.208.208,0,0,1-.028-.045l-.119-.244-.205-.173L.917,3.045.689,2.859.473,2.727l-.31-.078A.214.214,0,0,1,0,2.441a.217.217,0,0,1,.162-.21l.285-.073.19-.185a.2.2,0,0,1,.047-.034l.509-.29.175-.215.163-.246L2.029.14A.216.216,0,0,1,2.221,0h.017a.217.217,0,0,1,.2.152l.08.265L2.65.654l.1.286.193.185a.238.238,0,0,1,.031.037l.319.473.234.132.495.374.258.094a.216.216,0,0,1-.01.409L4,2.728l-.471.32-.183.216a.186.186,0,0,1-.036.034l-.227.168-.167.227-.335.519-.1.256-.046.23A.214.214,0,0,1,2.235,4.87ZM2.223.764h0L1.9,1.4l-.191.29L1.5,1.951A.205.205,0,0,1,1.445,2l-.527.3L.8,2.421l.142.089.266.214.237.23.229.191a.228.228,0,0,1,.056.071l.127.262.183.219a.2.2,0,0,1,.038.067l.094.266.022.03.019-.047.552-.826A.212.212,0,0,1,2.8,3.141l.233-.174.186-.22a.258.258,0,0,1,.047-.041l.411-.277-.394-.3-.252-.14a.206.206,0,0,1-.072-.065l-.34-.5-.214-.206a.215.215,0,0,1-.055-.088L2.223.764Z" transform="translate(0.663 55.669)" fill="#2c4349"/>
        <path id="Fill_45" data-name="Fill 45" d="M2.428,6.134H2.416a.219.219,0,0,1-.086-.018l-.3-.13-.284-.075a.236.236,0,0,1-.083-.044l-.233-.2-.263-.143A.217.217,0,0,1,1.12,5.49L.892,5.264.678,4.991.5,4.708.3,4.493a.224.224,0,0,1-.052-.109L.2,4.1.05,3.851a.2.2,0,0,1-.031-.1L0,3.429l.043-.362L.038,2.782l.085-.675a.325.325,0,0,1,.015-.05l.127-.3.2-.3L.706,1.2.884.959,1.112.707A.238.238,0,0,1,1.175.658l.263-.13.221-.2A.225.225,0,0,1,1.736.283l.308-.1.332-.05.283-.11A.221.221,0,0,1,2.731.007L3.056,0A.2.2,0,0,1,3.1,0L3.42.067h.285a.2.2,0,0,1,.069.013l.608.209a.21.21,0,0,1,.048.023L4.7.485l.27.2L5.219.95l.228.188a.248.248,0,0,1,.03.031l.2.255.181.3a.28.28,0,0,1,.023.053l.084.314.118.269a.2.2,0,0,1,.017.088l0,.327.008.31V3.1l-.023.638a.214.214,0,0,1-.018.079l-.237.584a.242.242,0,0,1-.022.043l-.175.266-.148.266a.216.216,0,0,1-.032.043l-.419.47a.206.206,0,0,1-.073.057l-.294.14L4.4,5.843l-.319.137a.2.2,0,0,1-.047.014L3.411,6.1l-.341.016-.328,0Zm.615-5.7L2.778.437l-.27.1a.286.286,0,0,1-.048.013L2.141.6,1.916.677,1.706.869A.238.238,0,0,1,1.656.9L1.4,1.027l-.188.208-.181.238L.8,1.724l-.159.241-.1.235-.077.6.005.292-.044.351.017.23.143.24a.206.206,0,0,1,.028.076l.043.261.178.2.192.3.184.236.186.184.257.14a.26.26,0,0,1,.037.024l.212.181.267.073.28.12.278-.016.33,0,.3-.013.573-.1.273-.114.249-.148.267-.128.39-.436.142-.256.17-.259.22-.545.023-.594-.007-.31,0-.29-.11-.256-.087-.315-.149-.256-.169-.211-.231-.194-.236-.256L4.222.688,3.665.5l-.289,0Z" transform="translate(18.749 44.293)" fill="#2c4349"/>
        <path id="Fill_47" data-name="Fill 47" d="M1.9,3.188H1.894l-.629-.031a.213.213,0,0,1-.07-.018L.63,2.88a.248.248,0,0,1-.064-.047L.143,2.362a.218.218,0,0,1-.05-.107L0,1.633a.2.2,0,0,1,0-.052l.032-.306A.223.223,0,0,1,.054,1.2L.187.93.358.655A.227.227,0,0,1,.39.616L.6.406,1.153.034A.2.2,0,0,1,1.263,0h.011l.318.007L1.9,0a.206.206,0,0,1,.114.031L2.287.2l.262.122a.2.2,0,0,1,.068.051L2.825.6a.224.224,0,0,1,.03.042L3,.913a.234.234,0,0,1,.017.041l.085.29.049.329a.194.194,0,0,1,0,.04l-.014.305a.2.2,0,0,1-.014.069l-.112.284-.184.293A.187.187,0,0,1,2.8,2.6l-.215.215a.208.208,0,0,1-.035.028l-.255.166L2,3.164A.215.215,0,0,1,1.9,3.188ZM1.33.433l-.452.3L.71.9l-.147.233-.105.22L.433,1.6l.077.525.345.383.48.221.515.025.229-.118L2.3,2.5l.183-.183.152-.237.079-.211.012-.251-.04-.279L2.61,1.1,2.488.869,2.326.688,2.084.575,1.846.433l-.256,0-.26,0h0Z" transform="translate(17.25 42.719)" fill="#2c4349"/>
        <path id="Fill_49" data-name="Fill 49" d="M1.6,3.125l-.024,0-.3-.033a.2.2,0,0,1-.045-.01l-.288-.1L.635,2.848a.224.224,0,0,1-.084-.067l-.367-.51A.2.2,0,0,1,.154,2.2L.005,1.6a.238.238,0,0,1,0-.08L.108.9A.213.213,0,0,1,.16.792L.589.333A.181.181,0,0,1,.629.3L.887.135A.241.241,0,0,1,.956.106l.3-.068L1.575,0,1.6,0l.028,0,.3.037.633.2a.221.221,0,0,1,.1.073L3.047.8a.207.207,0,0,1,.047.109l.043.315.064.284a.218.218,0,0,1,0,.087L3.144,1.9l-.116.321A.262.262,0,0,1,3,2.27l-.176.247L2.6,2.758l-.276.205a.189.189,0,0,1-.063.032l-.293.09-.344.04H1.6ZM1.6.432,1.326.463,1.088.518.882.649l-.363.388-.085.508.126.514.3.418.235.106.247.081.257.029.279-.029L2.1,2.595l.219-.16.178-.193.141-.2.1-.26.041-.225L2.714,1.3l-.038-.273-.319-.4L1.835.459,1.6.432Z" transform="translate(0.319 0.421)" fill="#2c4349"/>
        <path id="Fill_51" data-name="Fill 51" d="M.215,8.113A.215.215,0,0,1,.131,7.7l.282-.12.22-.151.293-.152.294-.109L1.7,6.85l.86-.415,1.594-.891.225-.17a.2.2,0,0,1,.052-.029l.289-.11.23-.14.3-.137L5.472,4.8l.3-.155.213-.168a.2.2,0,0,1,.063-.034l.277-.091.519-.293.308-.128L7.928,3.5l.2-.189A.214.214,0,0,1,8.2,3.265l.262-.1L8.686,3a.21.21,0,0,1,.066-.033l.264-.079.221-.159.838-.4.213-.192a.222.222,0,0,1,.088-.048l.252-.068.189-.184a.209.209,0,0,1,.069-.045l.287-.117.289-.092.739-.5.3-.161.578-.237.492-.333a.209.209,0,0,1,.052-.026l.256-.09.2-.186a.215.215,0,1,1,.29.318L14.135.59a.22.22,0,0,1-.074.044l-.27.095-.5.335a.187.187,0,0,1-.041.021l-.567.231-.257.137-.758.508a.207.207,0,0,1-.051.024l-.533.19-.2.193a.214.214,0,0,1-.094.053l-.256.069-.2.178a.228.228,0,0,1-.051.034L9.455,3.1l-.217.161a.215.215,0,0,1-.064.031l-.263.079-.219.161a.208.208,0,0,1-.051.028l-.251.1-.205.186-.3.185-.55.3-.308.128-.509.29a.228.228,0,0,1-.041.018l-.262.086L6,5.009l-.308.159-.225.161-.317.146-.241.145-.293.115L4.392,5.9l-1.629.913-.849.407-.487.322a.221.221,0,0,1-.039.019l-.29.106L.851,7.8l-.234.158L.3,8.1a.218.218,0,0,1-.084.017" transform="translate(17.697 23.781)" fill="#2c4349"/>
        <path id="Fill_53" data-name="Fill 53" d="M.215,11.466A.214.214,0,0,1,0,11.209L.133,10.6a.188.188,0,0,1,.022-.058l.153-.279L.389,10l.042-.279a.213.213,0,0,1,.018-.058L.83,8.826l.081-.282.232-.594.176-.305.1-.26.16-.3.2-.28.238-.53,1.76-2.613a.224.224,0,0,1,.039-.049L4.044,3.4l.171-.221.242-.241.159-.228.246-.249.161-.23a.222.222,0,0,1,.052-.052l.263-.183.427-.419L6.776.812,6.981.6A.213.213,0,0,1,7.058.556l.275-.1L7.581.3A.208.208,0,0,1,7.662.266L7.95.219,8.213.1A.18.18,0,0,1,8.266.089L8.574.042,8.909.027l.327.014L9.517,0l.027,0a.215.215,0,0,1,.1.022l.25.124.281.025a.218.218,0,0,1,.1.037l.262.18a.225.225,0,0,1,.035.031l.215.229L11,.824l.231.247.207.257a.235.235,0,0,1,.03.048l.128.287.084.345.028.343.055.278.04.324a.224.224,0,0,1,0,.077l-.066.271.023.284a.241.241,0,0,1-.009.084l-.1.3-.136.283-.05.284a.22.22,0,0,1-.021.062l-.145.278-.193.259-.113.266a.255.255,0,0,1-.031.051l-.2.242-.166.245-.473.472L9.879,6.6l-.191.223L9.2,7.261l-.276.164-.2.2a.209.209,0,0,1-.058.041L8.376,7.8,7.9,8.135l-.2.2a.227.227,0,0,1-.04.032l-.8.476-.328.122-.226.14-.495.353a.218.218,0,0,1-.06.029l-.3.089L4.4,10.123l-.313.128-.251.139a.2.2,0,0,1-.076.023l-.291.037-.237.092-.239.167a.2.2,0,0,1-.08.034L2.64,10.8l-.246.132a.206.206,0,0,1-.072.024L2.037,11l-.549.213-.644.122-.265.088-.336.047ZM8.908.458,8.616.471l-.257.04L8.1.625A.238.238,0,0,1,8.045.64L7.773.683,7.544.828a.157.157,0,0,1-.039.02l-.252.1-.2.193-1.022.77-.421.416-.262.184-.163.23-.246.249-.161.23-.247.248-.175.225-.23.218-.145.247L3.229,5.18,2.921,5.7l-.533.787-.243.541-.206.29-.132.25-.1.267-.175.3L1.119,9.271.852,9.82.806,10.1l-.1.328-.156.288L.485,11l.251-.086.635-.118.533-.212a.239.239,0,0,1,.049-.013l.27-.038.239-.13a.179.179,0,0,1,.06-.022l.259-.053.223-.156a.209.209,0,0,1,.047-.024l.286-.111a.2.2,0,0,1,.05-.013l.276-.035L3.9,9.863l.309-.127.243-.142L5.3,9.177l.3-.093.752-.507.331-.125.736-.441.205-.2.537-.379.278-.135.2-.193a.213.213,0,0,1,.043-.033l.27-.157.427-.382.187-.221A.169.169,0,0,1,9.6,6.277l.248-.192.424-.421.151-.228.188-.233.113-.263a.2.2,0,0,1,.027-.046l.191-.25.109-.216.05-.282a.238.238,0,0,1,.018-.058l.139-.282.071-.229L11.3,3.3a.194.194,0,0,1,0-.068l.065-.267-.117-.895L11.191,1.8l-.1-.22-.382-.441L10.49.961l-.219-.23L10.076.6,9.811.572A.23.23,0,0,1,9.734.551L9.507.437,9.254.47Z" transform="translate(11.55 6.912)" fill="#2c4349"/>
      </g>
    </g>
  </g>
</svg>
