<svg xmlns="http://www.w3.org/2000/svg" width="42" height="40" viewBox="0 0 42 40">
    <g fill="none" fill-rule="evenodd" stroke="#2C4349">
        <path stroke-width="1.3" d="M20.972 14.924L20.923 15.016 20.895 15.118 20.831 15.202 20.793 15.298 20.743 15.391 20.707 15.487 20.67 15.584 20.62 15.676 20.583 15.773 20.556 15.873 20.533 15.974 20.504 16.073 20.457 16.166 20.443 16.269 20.418 16.369 20.372 16.464 20.345 16.564 20.336 16.668 20.305 16.767 20.288 16.868 20.277 16.972 20.249 17.072 20.237 17.174 20.221 17.277 20.221 17.381 20.215 17.485 20.215 17.589 20.202 17.692 20.211 17.796 20.22 17.899 20.214 18.003 20.248 18.104 20.248 18.206 20.261 18.307 20.267 18.409 20.287 18.509 20.297 18.61 20.326 18.709 20.336 18.81 20.376 18.906 20.371 19.011 20.426 19.103 20.434 19.206 20.477 19.297 20.486 19.4 20.536 19.493 20.554 19.594 20.608 19.682 20.632 19.782 20.678 19.874 20.73 19.962 20.75 20.065 20.815 20.146 20.841 20.247 20.89 20.337 20.956 20.416 20.989 20.514 21.06 20.59 21.117 20.673 21.151 20.774 21.211 20.855 21.268 20.94 21.328 21.023 21.403 21.093 21.475 21.165 21.527 21.254 21.599 21.326 21.671 21.398 21.728 21.484 21.807 21.549 21.874 21.625 21.952 21.691 22.021 21.766 22.099 21.832 22.174 21.9 22.26 21.956 22.338 22.021 22.423 22.077 22.51 22.13 22.586 22.198 22.665 22.264 22.757 22.307 22.842 22.363 22.934 22.403 23.026 22.449 23.118 22.494 23.197 22.564 23.295 22.593 23.384 22.644 23.476 22.686 23.568 22.728 23.671 22.743 23.764 22.789 23.856 22.83 23.958 22.844 24.053 22.883 24.155 22.892 24.251 22.932 24.348 22.963 24.45 22.966 24.551 22.981 24.65 23.005 24.753 23.008 24.85 23.041 24.954 23.028 25.054 23.05 25.154 23.063 25.256 23.066 25.359 23.066 25.41 23.05 25.514 23.054 25.62 23.06 25.721 23.056 25.823 23.042 25.924 23.037 26.027 23.037 26.124 23.003 26.226 22.999 26.326 22.982 26.423 22.952 26.523 22.927 26.621 22.901 26.72 22.881 26.815 22.844 26.915 22.828 27.011 22.795 27.103 22.755 27.204 22.735 27.297 22.694 27.381 22.634 27.481 22.609 27.571 22.564 27.66 22.514 27.755 22.476 27.834 22.411 27.926 22.37 28.018 22.325 28.103 22.268 28.188 22.214 28.266 22.148 28.355 22.095 28.429 22.024 28.518 21.973 28.599 21.912 28.671 21.84 28.741 21.767 28.815 21.697 28.893 21.632 28.969 21.565 29.051 21.503 29.117 21.425 29.176 21.342 29.239 21.263 29.304 21.184 29.383 21.118 29.433 21.028 29.491 20.945 29.549 20.863 29.608 20.781 29.675 20.704 29.731 20.619 29.782 20.531 29.846 20.451 29.88 20.353 29.922 20.261 29.973 20.173 30.024 20.085 30.064 19.993 30.104 19.901 30.148 19.808 30.174 19.71 30.218 19.618 30.254 19.523 30.282 19.425 30.31 19.328 30.351 19.236 30.389 19.141 30.411 19.042 30.427 18.941 30.442 18.841 30.482 18.745 30.475 18.642 30.499 18.544 30.527 18.445 30.534 18.343 30.534 18.139 30.551 18.039 30.542 17.937 30.566 17.837 30.569 17.735 30.554 17.633 30.546 17.531 30.563 17.426 30.538 17.324 30.524 17.222 30.514 17.118 30.51 17.014 30.481 16.914 30.474 16.811 30.44 16.712 30.428 16.609 30.393 16.512 30.385 16.407 30.351 16.307 30.327 16.207 30.293 16.109 30.26 16.012 30.221 15.917 30.201 15.814 30.155 15.722 30.133 15.631 30.1 15.534 30.06 15.44 30.006 15.35 29.985 15.247 29.939 15.155 29.899 15.063 29.853 14.971 29.823 14.874 29.79 14.778 29.738 14.69 29.685 14.603 29.644 14.511 29.605 14.419 29.574 14.322 29.533 14.23 29.476 14.145 29.43 14.053 29.385 13.96 29.342 13.868 29.313 13.77 29.26 13.683 29.214 13.591 29.163 13.504 29.117 13.411 29.085 13.314 29.032 13.227 28.973 13.145 28.923 13.057 28.869 12.971 28.84 12.872 28.771 12.794 28.746 12.693 28.683 12.612 28.637 12.521 28.594 12.428 28.536 12.344 28.469 12.266 28.419 12.178 28.366 12.092 28.312 12.005 28.27 11.917 28.217 11.83 28.171 11.738 28.125 11.648 28.059 11.569 28.005 11.483 27.941 11.403 27.915 11.3 27.843 11.225 27.797 11.133 27.741 11.047 27.696 10.955 27.621 10.882 27.567 10.793 27.533 10.694 27.458 10.621 27.418 10.526 27.352 10.448 27.299 10.361 27.243 10.275 27.191 10.188 27.149 10.096 27.088 10.017 27.041 9.927 26.961 9.86 26.911 9.772 26.869 9.68 26.817 9.592 26.744 9.52 26.7 9.429 26.625 9.358 26.569 9.274 26.533 9.176 26.477 9.092 26.406 9.018 26.346 8.937 26.31 8.841 26.251 8.758 26.178 8.687 26.125 8.601 26.074 8.514 26.021 8.429 25.977 8.337 25.922 8.253 25.854 8.178 25.797 8.095 25.737 8.015 25.691 7.927 25.64 7.841 25.572 7.765 25.521 7.68 25.468 7.597 25.41 7.682 25.354 7.773 25.283 7.851 25.225 7.94 25.183 8.036 25.116 8.114 25.065 8.207 24.995 8.286 24.935 8.371 24.893 8.469 24.822 8.547 24.769 8.639 24.703 8.719 24.657 8.811 24.61 8.904 24.55 8.988 24.489 9.071 24.431 9.157 24.365 9.236 24.302 9.318 24.261 9.413 24.19 9.489 24.144 9.581 24.074 9.655 24.012 9.741 23.994 9.819 23.924 9.896 23.855 9.971 23.803 10.058 23.765 10.155 23.69 10.226 23.648 10.318 23.587 10.398 23.521 10.476 23.463 10.553 23.408 10.637 23.362 10.729 23.295 10.81 23.251 10.902 23.185 10.979 23.132 11.065 23.081 11.152 23.041 11.247 22.99 11.334 22.921 11.411 22.875 11.5 22.823 11.588 22.756 11.665 22.7 11.754 22.654 11.848 22.613 11.945 22.561 12.035 22.493 12.115 22.44 12.204 22.403 12.302 22.328 12.378 22.302 12.483 22.231 12.56 22.187 12.655 22.145 12.75 22.078 12.831 22.043 12.929 21.982 13.014 21.936 13.106 21.895 13.201 21.819 13.277 21.794 13.38 21.73 13.464 21.682 13.555 21.643 13.652 21.586 13.738 21.526 13.823 21.501 13.926 21.427 14.004 21.386 14.099 21.331 14.186 21.3 14.287 21.246 14.374 21.21 14.472 21.164 14.564 21.098 14.646 21.075 14.749 21.033 14.841zM13.468 13.876L17.318 8.09 17.329 23.743" transform="translate(1 1)"/>
        <g>
            <path fill="#2C4349" stroke-width=".5" d="M15.48 26.253h-.997v3.667h-.593v-3.667H13v-.54h.89v-1.15c0-.557.129-.954.386-1.191.258-.236.6-.355 1.025-.355.084 0 .169.006.256.019.087.011.172.026.256.044l-.108.54c-.071-.018-.147-.033-.225-.045-.077-.012-.156-.018-.233-.018-.162 0-.294.027-.395.08-.103.055-.18.13-.235.23-.053.098-.09.214-.108.346-.017.131-.026.273-.026.422v1.079h.997v.539zM17.143 27.026c0-.186-.005-.375-.013-.566-.01-.192-.017-.44-.023-.746h.584v.782h.018c.042-.114.102-.224.18-.328.078-.105.172-.2.283-.284.111-.083.24-.15.386-.202.148-.05.314-.076.5-.076.167 0 .314.018.44.054l-.117.584c-.078-.03-.191-.045-.341-.045-.228 0-.423.044-.585.13-.16.088-.296.198-.404.333-.108.134-.188.28-.239.436-.05.156-.076.305-.076.449v2.373h-.593v-2.894zM24.073 27.493c0-.401-.12-.726-.36-.975-.24-.248-.575-.373-1.006-.373-.192 0-.378.038-.557.112-.18.075-.338.175-.473.302-.134.125-.242.27-.323.43-.08.163-.121.33-.121.504h2.84zm-2.858.486c.018.21.069.407.152.593.085.185.195.346.333.48.138.135.297.242.476.32.18.078.374.117.584.117.318 0 .592-.074.823-.22.23-.147.406-.317.526-.509l.458.378c-.251.318-.529.545-.832.683-.302.138-.627.207-.975.207-.311 0-.6-.056-.867-.167-.266-.11-.496-.264-.687-.462-.193-.198-.344-.432-.455-.701-.11-.27-.166-.564-.166-.881 0-.318.055-.611.163-.881.107-.27.257-.504.449-.701.191-.198.416-.352.674-.463.258-.11.536-.166.836-.166.317 0 .602.057.853.17.252.115.463.266.634.455.171.188.301.41.391.665.09.254.135.525.135.813v.27h-3.505zM29.969 27.493c0-.401-.12-.726-.36-.975-.24-.248-.575-.373-1.006-.373-.193 0-.378.038-.557.112-.18.075-.338.175-.473.302-.134.125-.242.27-.323.43-.081.163-.122.33-.122.504h2.84zm-2.858.486c.017.21.068.407.152.593.084.185.194.346.333.48.138.135.297.242.476.32.18.078.374.117.584.117.318 0 .592-.074.823-.22.23-.147.406-.317.526-.509l.458.378c-.251.318-.529.545-.832.683-.302.138-.627.207-.975.207-.311 0-.6-.056-.867-.167-.266-.11-.496-.264-.687-.462-.193-.198-.344-.432-.455-.701-.11-.27-.166-.564-.166-.881 0-.318.055-.611.163-.881.107-.27.257-.504.449-.701.191-.198.416-.352.674-.463.258-.11.536-.166.836-.166.317 0 .602.057.853.17.252.115.463.266.634.455.171.188.301.41.391.665.09.254.135.525.135.813v.27h-3.505z" transform="translate(1 1) translate(0 .383)"/>
            <path fill="#2C4349" stroke-width=".78" d="M4.897 22.752c-.03-.02-.063-.033-.1-.04-.046-.008-.091-.024-.138-.034-.219-1.132-.346-2.28-.385-3.433.047-.088.043-.19-.01-.272.046-.002.093-.014.135-.04 1.64-1.033 3.333-2.02 5.038-2.947-.09.664-.226 1.327-.433 1.975-.73 2.286-2.251 4.05-4.107 4.791M1.394 20.11C.732 18.902.446 17.39.568 15.742c.944 1.248 2.003 2.41 3.164 3.457.034 1.109.15 2.214.347 3.305-1.09-.409-2.064-1.26-2.685-2.394M2.728 9.9c.077 1.632.5 3.251 1.242 4.707.019.038.05.064.082.089-.216 1.238-.324 2.494-.328 3.753-1.129-1.062-2.162-2.226-3.067-3.483.085-.582.214-1.157.393-1.717.356-1.117.92-2.238 1.678-3.349m1.453-1.85c.396-.445.817-.871 1.246-1.29-.27 1.396-.489 3.117-.46 4.433h0c-.308.871-.562 1.76-.755 2.663-.614-1.377-.946-2.884-.96-4.392 0-.072-.033-.135-.08-.183.31-.412.644-.823 1.009-1.23m4.64-1.424c-1.368 1.093-2.351 2.27-3.298 3.647.068-1.385.325-2.995.592-4.171.735-.678 1.492-1.33 2.244-1.969.175.876.327 1.7.463 2.493m.707 5.708c-1.696 1.568-3.447 3.114-5.214 4.607.142-1.94.542-3.859 1.201-5.686C6.53 9.709 7.52 8.42 8.925 7.247c.216 1.326.379 2.56.496 3.75.043.432.079.882.108 1.34m-5.25 5.347c1.788-1.502 3.561-3.063 5.283-4.645.026.748.022 1.516-.047 2.287-1.776.956-3.54 1.983-5.251 3.054.001-.232.006-.464.015-.696m5.68-6.74C9.743 8.74 9.374 6.4 8.799 3.578c-.02-.094-.086-.17-.177-.202-.09-.031-.19-.012-.263.05-1.566 1.326-3.186 2.698-4.582 4.265C2.204 9.456 1.113 11.27.535 13.086c-.27.846-.44 1.724-.506 2.61-.13 1.756.177 3.372.89 4.674.742 1.35 1.942 2.343 3.276 2.744l.61.246c2.138-.729 3.897-2.678 4.714-5.234.774-2.419.656-4.988.44-7.183" transform="translate(1 1) translate(0 .383)"/>
            <path stroke-linecap="round" stroke-linejoin="round" stroke-width="1.3" d="M14.385 2.103c2.326-1.088 4.92-1.696 7.658-1.696 9.992 0 18.092 8.1 18.092 18.092 0 9.993-8.1 18.093-18.092 18.093-8.405 0-15.47-5.73-17.504-13.498" transform="translate(1 1) translate(0 .383)"/>
        </g>
    </g>
</svg>
