<svg id="Group_19" data-name="Group 19" xmlns="http://www.w3.org/2000/svg" xmlns:xlink="http://www.w3.org/1999/xlink" width="30.789" height="45" viewBox="0 0 30.789 45">
  <defs>
    <clipPath id="clip-path">
      <path id="Mask" d="M28.4,21.062c-1.52-2.97-3.269-6.066-5.2-9.2-1.133-1.842-2.343-3.575-3.63-5.42L19.45,6.26c-.5-.721-1.017-1.458-1.536-2.22L15.16,0,11.509,5.347c-.519.756-1.009,1.469-1.488,2.2a86.6,86.6,0,0,0-8.273,14.7A19.721,19.721,0,0,0,0,29.206,15.5,15.5,0,0,0,14.708,44.987c.209.008.416.013.625.013h.153A15.57,15.57,0,0,0,30.737,30.578c.329-3.715-.928-6.769-2.334-9.516" transform="translate(0)" fill="#fdf4ef"/>
    </clipPath>
  </defs>
  <path id="Mask-2" data-name="Mask" d="M28.4,21.062c-1.52-2.97-3.269-6.066-5.2-9.2-1.133-1.842-2.343-3.575-3.63-5.42L19.45,6.26c-.5-.721-1.017-1.458-1.536-2.22L15.16,0,11.509,5.347c-.519.756-1.009,1.469-1.488,2.2a86.6,86.6,0,0,0-8.273,14.7A19.721,19.721,0,0,0,0,29.206,15.5,15.5,0,0,0,14.708,44.987c.209.008.416.013.625.013h.153A15.57,15.57,0,0,0,30.737,30.578c.329-3.715-.928-6.769-2.334-9.516" transform="translate(0)" fill="#fdf4ef"/>
  <g id="Group_19-2" data-name="Group 19" clip-path="url(#clip-path)">
    <g id="Group_19-3" data-name="Group 19" transform="translate(-37.059 46.243) rotate(-59)">
      <path id="Line_7" data-name="Line 7" d="M.45.447h79.9" transform="translate(1.429 0.124)" fill="none" stroke="#707070" stroke-linecap="square" stroke-miterlimit="10" stroke-width="0.5" opacity="0.777"/>
      <path id="Line_7_Copy" data-name="Line 7 Copy" d="M.45.447h79.9" transform="translate(1.429 3.256)" fill="none" stroke="#707070" stroke-linecap="square" stroke-miterlimit="10" stroke-width="0.5" opacity="0.777"/>
      <path id="Line_7_Copy_2" data-name="Line 7 Copy 2" d="M.45.447h79.9" transform="translate(1.429 6.835)" fill="none" stroke="#707070" stroke-linecap="square" stroke-miterlimit="10" stroke-width="0.5" opacity="0.777"/>
      <path id="Line_7_Copy_3" data-name="Line 7 Copy 3" d="M.45.447h79.9" transform="translate(1.429 10.414)" fill="none" stroke="#707070" stroke-linecap="square" stroke-miterlimit="10" stroke-width="0.5" opacity="0.777"/>
      <path id="Line_7_Copy_4" data-name="Line 7 Copy 4" d="M.45.447h79.9" transform="translate(1.429 13.992)" fill="none" stroke="#707070" stroke-linecap="square" stroke-miterlimit="10" stroke-width="0.5" opacity="0.777"/>
      <path id="Line_7_Copy_5" data-name="Line 7 Copy 5" d="M.45.447h79.9" transform="translate(1.429 17.571)" fill="none" stroke="#707070" stroke-linecap="square" stroke-miterlimit="10" stroke-width="0.5" opacity="0.777"/>
      <path id="Line_7_Copy_7" data-name="Line 7 Copy 7" d="M.45.447h79.9" transform="translate(1.429 24.729)" fill="none" stroke="#707070" stroke-linecap="square" stroke-miterlimit="10" stroke-width="0.5" opacity="0.777"/>
      <path id="Line_7_Copy_15" data-name="Line 7 Copy 15" d="M.45.447h79.9" transform="translate(0.657 21.502)" fill="none" stroke="#707070" stroke-linecap="square" stroke-miterlimit="10" stroke-width="0.5" opacity="0.777"/>
      <path id="Line_7_Copy_8" data-name="Line 7 Copy 8" d="M.45.447h79.9" transform="translate(1.429 28.308)" fill="none" stroke="#707070" stroke-linecap="square" stroke-miterlimit="10" stroke-width="0.5" opacity="0.777"/>
      <path id="Line_7_Copy_9" data-name="Line 7 Copy 9" d="M.45.447h79.9" transform="translate(1.429 31.887)" fill="none" stroke="#707070" stroke-linecap="square" stroke-miterlimit="10" stroke-width="0.5" opacity="0.777"/>
      <path id="Line_7_Copy_10" data-name="Line 7 Copy 10" d="M.45.447h79.9" transform="translate(1.429 35.466)" fill="none" stroke="#707070" stroke-linecap="square" stroke-miterlimit="10" stroke-width="0.5" opacity="0.777"/>
      <path id="Line_7_Copy_11" data-name="Line 7 Copy 11" d="M.45.447h79.9" transform="translate(1.429 39.045)" fill="none" stroke="#707070" stroke-linecap="square" stroke-miterlimit="10" stroke-width="0.5" opacity="0.777"/>
      <path id="Line_7_Copy_12" data-name="Line 7 Copy 12" d="M.45.447h79.9" transform="translate(1.429 42.624)" fill="none" stroke="#707070" stroke-linecap="square" stroke-miterlimit="10" stroke-width="0.5" opacity="0.777"/>
      <path id="Line_7_Copy_13" data-name="Line 7 Copy 13" d="M.45.447h79.9" transform="translate(1.429 46.203)" fill="none" stroke="#707070" stroke-linecap="square" stroke-miterlimit="10" stroke-width="0.5" opacity="0.777"/>
      <path id="Line_7_Copy_14" data-name="Line 7 Copy 14" d="M.45.447h79.9" transform="translate(1.429 49.782)" fill="none" stroke="#707070" stroke-linecap="square" stroke-miterlimit="10" stroke-width="0.5" opacity="0.777"/>
    </g>
  </g>
</svg>
