<svg xmlns="http://www.w3.org/2000/svg" width="350.12" height="548.119" viewBox="0 0 350.12 548.119">
  <path id="Path" d="M322.974,256.541c-17.285-36.182-37.175-73.888-59.125-112.108-12.887-22.439-26.642-43.544-41.28-66.012l-1.4-2.171C215.44,67.464,209.6,58.489,203.7,49.2L172.4,0,130.878,65.132c-5.9,9.21-11.472,17.893-16.921,26.8C76.838,152.455,44.131,207.7,19.884,270.987,10.387,295.773.6,325.237.035,355.742c-1.9,101.842,73.1,188.064,167.219,192.215,2.381.1,4.734.161,7.1.161.574,0,1.149,0,1.737-.015,90.669-.909,165.23-76.425,173.425-175.657,3.74-45.245-10.548-82.453-26.544-115.907" fill="#fff"/>
</svg>
