<svg xmlns="http://www.w3.org/2000/svg" width="217.683" height="287.322" viewBox="0 0 217.683 287.322">
  <path id="Path" d="M151.355,120.286c-8.1-16.965-17.421-34.644-27.708-52.565C117.608,57.2,111.162,47.3,104.3,36.769l-.656-1.018c-2.685-4.119-5.422-8.328-8.186-12.68L80.789,0,61.333,30.539c-2.764,4.319-5.376,8.389-7.93,12.564-17.4,28.38-32.723,54.284-44.085,83.957C4.868,138.681.279,152.5.017,166.8c-.893,47.751,34.259,88.179,78.364,90.125,1.116.048,2.219.076,3.328.076.269,0,.538,0,.814-.007,42.49-.426,77.431-35.834,81.272-82.361,1.753-21.214-4.943-38.66-12.439-54.346" transform="translate(0 36.909) rotate(-13)" fill="rgba(255,255,255,0.5)"/>
</svg>
