<svg xmlns="http://www.w3.org/2000/svg" xmlns:xlink="http://www.w3.org/1999/xlink" width="64" height="64" viewBox="0 0 64 64">
    <defs>
        <circle id="jzj056re2a" cx="32" cy="32" r="32"/>
    </defs>
    <g fill="none" fill-rule="evenodd">
        <g>
            <g transform="translate(-194 -244) translate(194 244)">
                <mask id="dxyxipr1zb" fill="#fff">
                    <use xlink:href="#jzj056re2a"/>
                </mask>
                <use fill="#EAD0C3" opacity=".227" xlink:href="#jzj056re2a"/>
                <path fill="#FFF" fill-rule="nonzero" stroke="#F7BFA0" stroke-width="1.5" d="M46.367 47.5c0-6.75-1.752-21-14.101-21-12.35 0-14.101 12.942-14.101 21" mask="url(#dxyxipr1zb)"/>
                <path fill="#F7BFA0" d="M11.5 48H52.487V64H11.5z" mask="url(#dxyxipr1zb)"/>
                <rect width="13.5" height="13.5" x="25.344" y="8.75" fill="#FFF" fill-rule="nonzero" stroke="#F7BFA0" stroke-width="1.5" mask="url(#dxyxipr1zb)" rx="6.75"/>
                <path stroke="#2C4349" stroke-width="1.5" d="M31.815 48.5L31.815 67.37" mask="url(#dxyxipr1zb)"/>
                <path stroke="#2C4349" stroke-linecap="square" stroke-width="1.5" d="M11.671 48.5L52.5 48.5 52.5 62.259 37.432 70.564 11.671 70.564z" mask="url(#dxyxipr1zb)"/>
                <g stroke="#2C4349" stroke-width="1.5" mask="url(#dxyxipr1zb)">
                    <g>
                        <path fill="#FBF4F1" d="M19.76 5.174c-.35 1.292-.667 2.683-.942 4.136-.161.852-.27 1.693-.387 2.588l-.012.086c-.045.35-.092.708-.144 1.074L18 15l2.51-.603c.356-.085.692-.164 1.03-.252 2.295-.596 4.36-1.167 6.382-2.135.792-.379 1.695-.865 2.383-1.595 2.295-2.438 2.255-6.32-.09-8.653-.059-.059-.119-.116-.18-.172l-.045-.04c-2.367-2.13-5.961-2.057-8.362.168-1.094 1.015-1.545 2.261-1.868 3.456M15.24 5.174c.35 1.292.667 2.683.942 4.136.161.852.27 1.693.387 2.588l.012.086c.045.35.092.708.144 1.074L17 15l-2.51-.603c-.356-.085-.692-.164-1.03-.252-2.295-.596-4.36-1.167-6.382-2.135-.792-.379-1.695-.865-2.383-1.595-2.295-2.438-2.255-6.32.09-8.653.059-.059.119-.116.18-.172l.045-.04c2.367-2.13 5.961-2.057 8.361.168 1.095 1.015 1.546 2.261 1.87 3.456" transform="translate(14 33)"/>
                        <path d="M34 12L17 15M0 12L17 15" transform="translate(14 33)"/>
                    </g>
                </g>
            </g>
        </g>
    </g>
</svg>
