<svg xmlns="http://www.w3.org/2000/svg" xmlns:xlink="http://www.w3.org/1999/xlink" width="64" height="64" viewBox="0 0 64 64">
    <defs>
        <circle id="nssddobtha" cx="32" cy="32" r="32"/>
    </defs>
    <g fill="none" fill-rule="evenodd">
        <g>
            <g transform="translate(-283 -244) translate(283 244)">
                <mask id="t4d7pwg2jb" fill="#fff">
                    <use xlink:href="#nssddobtha"/>
                </mask>
                <use fill="#EAD0C3" opacity=".227" xlink:href="#nssddobtha"/>
                <path fill="#F7BFA0" stroke="#2C4349" stroke-linecap="square" stroke-width="1.5" d="M17.67 16.11H46.5c3.314 0 6 2.687 6 6V58.26h0l-15.068 8.305H11.671V22.11c0-3.314 2.686-6 6-6z" mask="url(#t4d7pwg2jb)"/>
                <path fill="#FFF" d="M35.913 47.221c-1.023 1.173-2.475 1.807-4 1.745-2.736-.113-4.917-2.474-4.86-5.263.015-.835.322-1.693.62-2.421.126-.307.27-.63.449-1.006 1.022 1.748 3.733 5.05 7.79 6.945m1.306-3.079c-.07.789-.303 1.536-.694 2.221-4.46-2.026-7.447-6.135-7.826-7.224.667-1.23 1.445-2.435 2.185-3.564.183-.28.373-.557.604-.894l.562-.824.224.33c.227.332.45.654.685.99.494.71.96 1.38 1.4 2.096.754 1.23 1.44 2.445 2.036 3.613.492.963.933 2.024.824 3.256m.115-3.717c-.606-1.188-1.304-2.427-2.075-3.682-.452-.737-.934-1.43-1.448-2.168l-.05-.071c-.2-.288-.405-.583-.612-.888L32.049 32l-1.456 2.139c-.207.302-.403.588-.594.88-1.303 1.988-2.45 3.802-3.301 5.88-.334.814-.677 1.782-.697 2.783-.067 3.345 2.565 6.176 5.868 6.313.084.003.166.005.25.005h.06c3.182-.03 5.798-2.51 6.086-5.769.13-1.486-.37-2.708-.932-3.806" mask="url(#t4d7pwg2jb)"/>
                <text fill="#2C4349" font-family="Avenir-Heavy, Avenir" font-size="11" font-weight="600" letter-spacing="1.913" mask="url(#t4d7pwg2jb)">
                    <tspan x="41.287" y="30">$</tspan>
                </text>
            </g>
        </g>
    </g>
</svg>
