<svg xmlns="http://www.w3.org/2000/svg" xmlns:xlink="http://www.w3.org/1999/xlink" width="64" height="64" viewBox="0 0 64 64">
    <defs>
        <circle id="22h0ek62ua" cx="32" cy="32" r="32"/>
    </defs>
    <g fill="none" fill-rule="evenodd">
        <g>
            <g transform="translate(-115 -244) translate(115 244)">
                <mask id="o8177z9ajb" fill="#fff">
                    <use xlink:href="#22h0ek62ua"/>
                </mask>
                <use fill="#EAD0C3" opacity=".227" xlink:href="#22h0ek62ua"/>
                <path fill="#FDDDCE" stroke="#FFBD9B" stroke-width="1.5" d="M32.266 4.58c-7.672 0-11.085 5.641-11.085 11.53v9.44c0 2.21 1.791 4 4 4 .617 0 1.225-.143 1.778-.417l5.307-2.633h0l5.19 2.6c1.975.989 4.378.19 5.368-1.786.278-.556.423-1.17.423-1.791V16.11c0-4.883-3.31-11.53-10.981-11.53z" mask="url(#o8177z9ajb)"/>
                <path fill="#FFF" fill-rule="nonzero" stroke="#F7BFA0" stroke-width="1.5" d="M46.367 47.5c0-6.75-1.752-21-14.101-21-12.35 0-14.101 12.942-14.101 21" mask="url(#o8177z9ajb)"/>
                <path fill="#F7BFA0" d="M11.5 48H52.487V64H11.5z" mask="url(#o8177z9ajb)"/>
                <rect width="13.5" height="13.5" x="25.344" y="9.75" fill="#FFF" fill-rule="nonzero" stroke="#F7BFA0" stroke-width="1.5" mask="url(#o8177z9ajb)" rx="6.75"/>
                <path stroke="#2C4349" stroke-width="1.5" d="M31.815 48.5L31.815 67.37" mask="url(#o8177z9ajb)"/>
                <path stroke="#2C4349" stroke-linecap="square" stroke-width="1.5" d="M11.671 48.5L52.5 48.5 52.5 62.259 37.432 70.564 11.671 70.564z" mask="url(#o8177z9ajb)"/>
                <g stroke="#2C4349" stroke-width="1.5" mask="url(#o8177z9ajb)">
                    <g>
                        <path fill="#FBF4F1" d="M19.76 5.174c-.35 1.292-.667 2.683-.942 4.136-.161.852-.27 1.693-.387 2.588l-.012.086c-.045.35-.092.708-.144 1.074L18 15l2.51-.603c.356-.085.692-.164 1.03-.252 2.295-.596 4.36-1.167 6.382-2.135.792-.379 1.695-.865 2.383-1.595 2.295-2.438 2.255-6.32-.09-8.653-.059-.059-.119-.116-.18-.172l-.045-.04c-2.367-2.13-5.961-2.057-8.362.168-1.094 1.015-1.545 2.261-1.868 3.456M15.24 5.174c.35 1.292.667 2.683.942 4.136.161.852.27 1.693.387 2.588l.012.086c.045.35.092.708.144 1.074L17 15l-2.51-.603c-.356-.085-.692-.164-1.03-.252-2.295-.596-4.36-1.167-6.382-2.135-.792-.379-1.695-.865-2.383-1.595-2.295-2.438-2.255-6.32.09-8.653.059-.059.119-.116.18-.172l.045-.04c2.367-2.13 5.961-2.057 8.361.168 1.095 1.015 1.546 2.261 1.87 3.456" transform="translate(14 33)"/>
                        <path d="M34 12L17 15M0 12L17 15" transform="translate(14 33)"/>
                    </g>
                </g>
                <path fill="#FDDDCE" d="M24.594 14.373c3.706 1.022 7.172-1.122 8.922-2.762 1.204-1.128.92-2.142.92-2.142s1.317 5.774 5.064 4.339c3.747-1.435-1.604-7.143-7.234-7.143s-11.378 6.686-7.672 7.708z" mask="url(#o8177z9ajb)"/>
                <path stroke="#F7BFA0" stroke-linecap="round" stroke-linejoin="round" stroke-width="1.5" d="M24.594 14.373c3.706 1.022 7.172-1.122 8.922-2.762 1.204-1.128.92-2.142.92-2.142s1.317 5.774 5.064 4.339" mask="url(#o8177z9ajb)"/>
            </g>
        </g>
    </g>
</svg>
