<svg xmlns="http://www.w3.org/2000/svg" xmlns:xlink="http://www.w3.org/1999/xlink" width="57" height="57" viewBox="0 0 57 57">
    <defs>
        <path id="stgrttwzla" d="M24.083 0l.393.003c12.942.21 23.368 10.766 23.368 23.758l-.003.393c-.21 12.94-10.766 23.366-23.758 23.366l-.393-.003C10.75 47.307.324 36.752.324 23.76.324 10.638 10.96 0 24.084 0z"/>
        <path id="45kz1gu8sc" d="M14.844 0v10.522C11.9 20.506 6.76 37.914 6.508 38.898l-.008.031-.011.042c-.111.347-.664.843-1.354 1.289H.324V26.303c.334-.988.568-1.675.582-1.715v-.001l.02-.022.025-.03c.262-.305 1.54-1.916 1.473-4.181l-.005-.129-.011-.18c-.107-1.616-.506-3.25-.12-4.855l.044-.172.305-1.119c.482-1.795.942-3.61 1.412-5.418l.356-1.354.864-3.263L6.133.6 6.16.508c.054-.18.125-.35.21-.508"/>
        <path id="gpbf147xye" d="M14.844 0v10.522C11.9 20.506 6.76 37.914 6.508 38.898l-.008.031-.011.042c-.111.347-.664.843-1.354 1.289H.324V26.303c.334-.988.568-1.675.582-1.715v-.001l.02-.022.025-.03c.262-.305 1.54-1.916 1.473-4.181l-.005-.129-.011-.18c-.107-1.616-.506-3.25-.12-4.855l.044-.172.305-1.119c.482-1.795.942-3.61 1.412-5.418l.356-1.354.864-3.263L6.133.6 6.16.508c.054-.18.125-.35.21-.508"/>
        <path id="1iuk3mv3og" d="M17.484 0v39.229c-.944.631-1.935 1.197-2.968 1.691H.324V0"/>
        <path id="l0ccwn3pai" d="M24.122 0l.354.003c12.942.21 23.368 10.766 23.368 23.758l-.003.393c-.21 12.94-10.766 23.366-23.758 23.366l-.393-.003C10.75 47.307.324 36.752.324 23.76.324 10.638 10.96 0 24.084 0h-.04"/>
        <path id="0p11rksyfk" d="M24.122 0l.354.003c12.942.21 23.368 10.766 23.368 23.758l-.003.393c-.21 12.94-10.766 23.366-23.758 23.366l-.393-.003C10.75 47.307.324 36.752.324 23.76.324 10.638 10.96 0 24.084 0h-.04"/>
        <path id="5lf2m48y8m" d="M.324 23.76c0 13.122 10.637 23.76 23.76 23.76 13.122 0 23.76-10.638 23.76-23.76C47.844 10.638 37.206 0 24.084 0 10.96 0 .323 10.638.323 23.76"/>
        <path id="so95rwhtno" d="M.324 23.76c0 13.122 10.637 23.76 23.76 23.76 13.122 0 23.76-10.638 23.76-23.76C47.844 10.638 37.206 0 24.084 0 10.96 0 .323 10.638.323 23.76"/>
        <path id="awv218bu2q" d="M.324 23.76c0 13.122 10.637 23.76 23.76 23.76 13.122 0 23.76-10.638 23.76-23.76C47.844 10.638 37.206 0 24.084 0 10.96 0 .323 10.638.323 23.76z"/>
        <path id="8w0jo9s7ks" d="M.324 23.76c0 13.122 10.637 23.76 23.76 23.76 13.122 0 23.76-10.638 23.76-23.76C47.844 10.638 37.206 0 24.084 0 10.96 0 .323 10.638.323 23.76"/>
        <path id="wcamhu1oju" d="M.324 23.76c0 13.122 10.637 23.76 23.76 23.76 13.122 0 23.76-10.638 23.76-23.76C47.844 10.638 37.206 0 24.084 0 10.96 0 .323 10.638.323 23.76"/>
        <path id="9ysvm5uvlw" d="M.324 23.76c0 13.122 10.637 23.76 23.76 23.76 13.122 0 23.76-10.638 23.76-23.76C47.844 10.638 37.206 0 24.084 0 10.96 0 .323 10.638.323 23.76"/>
    </defs>
    <g fill="none" fill-rule="evenodd">
        <g>
            <g>
                <g>
                    <path fill="#F7BFA0" d="M27.72 0C12.435 0 0 12.435 0 27.72c0 15.285 12.435 27.72 27.72 27.72 15.285 0 27.72-12.435 27.72-27.72C55.44 12.435 43.005 0 27.72 0m0 1.98c14.216 0 25.74 11.524 25.74 25.74S41.936 53.46 27.72 53.46 1.98 41.936 1.98 27.72 13.504 1.98 27.72 1.98" transform="translate(-227 -23) translate(227 23.248) translate(.51)"/>
                    <path fill="#F1F2EC" d="M27.793 51.388c13.123 0 23.76-10.638 23.76-23.76 0-13.123-10.637-23.76-23.76-23.76-13.122 0-23.76 10.637-23.76 23.76 0 13.122 10.638 23.76 23.76 23.76" transform="translate(-227 -23) translate(227 23.248) translate(.51)"/>
                    <g>
                        <g transform="translate(-227 -23) translate(227 23.248) translate(.51) translate(3.71 3.868)">
                            <mask id="5356q6l2jb" fill="#fff">
                                <use xlink:href="#stgrttwzla"/>
                            </mask>
                            <path fill="#F6F6F7" d="M-3.636 52.47L53.784 52.47 53.784 -4.95 -3.636 -4.95z" mask="url(#5356q6l2jb)"/>
                            <path fill="#EEBEA7" d="M4.777 17.427c-1.041.545-.33 1.656.432 2.104.718.422 1.585.571 2.368.777.415.11.905.24 1.513.317 5.68.715 9.97.385 15.032.376 1.341-.002 2.444-1.465 2.944-2.137.336-.45.422-.515-1.103-.887-1.876-.46-7.976-1.76-14.708-1.574-1.648.045-3.317.153-4.928.526-.401.093-1.054.238-1.55.498M29.576 21.805c.018-.075.031-.15.04-.224.09-.747.065-1.504-.03-2.25-.011-.096-.06-.185-.14-.24-.61-.433-1.507-.73-1.97-.87.353.22.15 1.595.122 1.934-.02.25-.05.498-.089.745-.042.264-.094.527-.157.787-.032.13-.066.26-.103.388-.018.065-.037.129-.057.193l-.03.096c-.005.016-.03.063-.019.077.063.078.134.153.19.237.164.252.325.507.492.758.049.073.31.534.4.55.014.002.028-.005.041-.013.16-.091.273-.243.377-.394.36-.52.787-1.138.933-1.774" mask="url(#5356q6l2jb)"/>
                        </g>
                        <g>
                            <g transform="translate(-227 -23) translate(227 23.248) translate(.51) translate(3.71 3.868) translate(23.1 4.62)">
                                <mask id="8j5xlfqgbd" fill="#fff">
                                    <use xlink:href="#45kz1gu8sc"/>
                                </mask>
                                <path fill="#F6F6F7" d="M2.001 39.38c.407-.245.781-.583 1.12-1.013.169-.213.379-.478.472-.771.059-.186.106-.38.153-.572.03-.126.061-.251.095-.374l8.763-31.504c.06-.222.1-.45.119-.68l.002-.036c.017-.188.016-.405-.004-.627l-.006-.068c-.018-.176-.05-.358-.1-.558-.066-.261-.147-.491-.248-.704-.008-.02-.021-.04-.034-.062-.105-.207-.22-.395-.348-.566-.118-.16-.231-.292-.345-.403l-.044-.043c-.152-.143-.31-.269-.47-.373l-.047-.03c-.07-.045-.148-.094-.23-.14.105-.006.209-.008.309-.008.159 0 .297.007.4.021.057.008.116.018.175.03.054.012.11.026.165.042.054.016.109.034.162.054.064.023.114.044.164.066.055.024.106.05.158.077.056.03.108.06.16.092l.033.022c.044.03.088.058.13.09.059.041.115.086.17.134.024.02.046.043.069.064l.097.093c.095.095.167.18.237.267.005.015.018.035.032.054.111.151.211.314.295.483.008.017.019.034.03.05.092.194.163.394.221.626.003.012.015.046.02.058.024.1.044.212.059.326l.026.273c.003.073.005.152.004.23-.001.072-.004.143-.01.214l-.003.045c-.004.039-.01.097-.018.155-.009.068-.02.13-.033.194-.013.064-.027.126-.042.188l-8.77 32.39c-.014.05-.028.099-.044.146-.02.062-.04.123-.064.182-.024.06-.049.12-.076.179-.029.062-.059.123-.091.182l-.112.189c-.044.068-.093.136-.142.2-.064.083-.132.162-.203.235-.008.007-.06.05-.078.067l-.08.07c-.181.16-.367.286-.553.377l-.067.027c-.23.105-.445.169-.657.197-.096.013-.216.033-.35.055-.175.03-.372.062-.57.088" mask="url(#8j5xlfqgbd)"/>
                            </g>
                            <g transform="translate(-227 -23) translate(227 23.248) translate(.51) translate(3.71 3.868) translate(23.1 4.62)">
                                <mask id="va3e5qxadf" fill="#fff">
                                    <use xlink:href="#gpbf147xye"/>
                                </mask>
                                <path fill="#29434B" d="M11.158.605c-.634 0-1.525.11-1.942.284.07-.03.212-.04.374-.04.284 0 .629.033.757.059.217.044.443.193.631.312l.016.01c.155.1.3.218.435.345l.04.04c.118.115.223.243.321.375.122.163.228.337.32.521.01.023.027.043.038.066.099.21.173.431.231.659.043.171.076.345.094.523l.006.065c.018.2.02.402.004.606l-.002.01c-.017.214-.054.429-.111.64l-.202.725-.554 1.99-.83 2.985-1.03 3.706-1.156 4.154-1.204 4.329-1.177 4.232-1.074 3.862-.895 3.219-.64 2.303c-.087.309-.15.634-.247.937-.08.25-.267.488-.43.695-.531.673-1.206 1.179-2.059 1.338.141.08.348.108.581.108.515 0 1.16-.14 1.5-.185.253-.033.496-.112.727-.217.025-.011.05-.018.073-.03.218-.107.42-.248.607-.413.03-.026.059-.05.088-.077.026-.025.056-.046.083-.073.077-.08.15-.165.221-.255.054-.07.106-.143.155-.22.016-.024.03-.05.045-.076l.016-.026.06-.1c.034-.063.067-.13.098-.196.029-.063.056-.127.082-.193.024-.064.047-.129.068-.195.017-.051.032-.104.047-.157l8.76-32.351.01-.042c.018-.067.033-.134.046-.201.014-.07.026-.138.035-.207.01-.063.016-.127.02-.19l.002-.011.001-.014c.007-.077.01-.153.01-.23.002-.083 0-.167-.003-.25-.003-.039-.009-.075-.01-.112l-.007-.065-.01-.112c-.017-.122-.04-.242-.068-.361-.003-.018-.013-.033-.017-.05-.058-.228-.132-.45-.232-.66-.01-.022-.026-.042-.037-.065-.091-.184-.198-.358-.32-.521-.013-.018-.022-.041-.035-.058-.074-.094-.152-.185-.234-.27l-.05-.046-.043-.04c-.035-.035-.07-.07-.108-.103-.06-.052-.121-.1-.184-.146-.047-.035-.094-.066-.142-.097l-.016-.01c-.006-.004-.013-.01-.02-.013-.056-.036-.114-.07-.174-.1-.057-.031-.114-.06-.174-.086-.054-.024-.11-.047-.165-.068l-.013-.004c-.059-.022-.12-.042-.179-.06-.06-.017-.123-.032-.184-.045-.064-.014-.128-.024-.191-.034-.118-.016-.267-.023-.433-.023m.508.529l.015.003c.05.01.099.023.15.038.048.014.097.03.149.049l.016.006c.043.015.086.034.131.054.048.02.094.044.145.071.047.025.093.051.141.082l.03.019.119.08c.053.04.104.081.156.124l.054.051.044.044c.01.008.018.016.034.032l.029.026.005.005c.063.065.124.134.184.21.014.024.029.047.045.07.104.14.197.29.275.447.01.022.023.043.038.067.077.165.141.348.197.569.005.02.012.04.02.061.021.095.038.191.052.293l.003.035.006.067.005.041c0 .025.003.05.006.074l.003.025c.003.073.005.146.004.219 0 .063-.004.125-.009.189 0 .006 0 .013-.002.02l-.001.018c-.004.051-.01.104-.018.165-.008.057-.018.114-.03.178-.011.057-.024.113-.039.17l-.005.017-.004.018-8.761 32.355c-.012.045-.025.088-.039.131-.018.057-.038.114-.058.166-.023.057-.046.113-.072.168-.026.057-.054.114-.08.162l-.024.04-.027.045-.015.025-.026.044-.015.025c-.04.062-.083.124-.128.183-.062.078-.124.15-.179.207l-.014.011-.062.054-.034.03-.04.036c-.168.147-.332.26-.496.34-.023.008-.045.016-.065.025-.208.095-.4.153-.59.178h-.004c.148-.145.29-.305.428-.48.18-.228.405-.512.511-.846.063-.196.11-.395.158-.587.03-.123.06-.247.093-.368l.32-1.151.321-1.152.16-.575.735-2.644.585-2.1.49-1.762.184-.662.993-3.57.601-2.164.603-2.165 1.155-4.154.599-2.152.432-1.553.323-1.164.507-1.82.236-.85.317-1.142.022-.078.181-.649c.063-.233.105-.475.126-.718l.002-.02c.018-.221.017-.453-.004-.692l-.006-.068c-.02-.189-.054-.383-.107-.593-.07-.276-.155-.52-.26-.741-.014-.032-.03-.061-.051-.094-.105-.208-.226-.404-.358-.582-.127-.17-.248-.311-.371-.432l-.026-.026-.02-.019-.098-.09" mask="url(#va3e5qxadf)"/>
                            </g>
                        </g>
                        <g transform="translate(-227 -23) translate(227 23.248) translate(.51) translate(3.71 3.868) translate(19.8 4.29)">
                            <mask id="6nbwflah1h" fill="#fff">
                                <use xlink:href="#1iuk3mv3og"/>
                            </mask>
                            <path fill="#29434B" d="M13.332 1.117c-1.255 0-2.405.866-2.792 2.24L1.458 35.71c-.482 1.716.411 3.57 1.993 4.137.313.112.63.165.94.165 1.258 0 2.413-.873 2.8-2.25l9.083-32.35c.482-1.716-.415-3.561-1.997-4.128-.314-.113-.633-.166-.945-.166m0 .495c.262 0 .524.046.778.137 1.342.48 2.099 2.063 1.688 3.528L6.713 37.628c-.316 1.13-1.25 1.888-2.322 1.888-.26 0-.52-.046-.773-.136-1.341-.48-2.096-2.067-1.684-3.538l9.083-32.35c.315-1.125 1.246-1.88 2.315-1.88" mask="url(#6nbwflah1h)"/>
                        </g>
                        <g>
                            <g transform="translate(-227 -23) translate(227 23.248) translate(.51) translate(3.71 3.868)">
                                <mask id="gr2l358e5j" fill="#fff">
                                    <use xlink:href="#l0ccwn3pai"/>
                                </mask>
                                <path stroke="#29434B" stroke-linecap="round" stroke-width=".5" d="M29.472 44.056L29.947 45.05 30.939 44.402" mask="url(#gr2l358e5j)"/>
                            </g>
                            <g transform="translate(-227 -23) translate(227 23.248) translate(.51) translate(3.71 3.868)">
                                <mask id="uqztux0xkl" fill="#fff">
                                    <use xlink:href="#0p11rksyfk"/>
                                </mask>
                                <path stroke="#29434B" stroke-linecap="round" stroke-width=".5" d="M26.502 9.736L26.977 10.73 27.969 10.082" mask="url(#uqztux0xkl)"/>
                            </g>
                        </g>
                    </g>
                    <g>
                        <g transform="translate(-227 -23) translate(227 23.248) translate(.51) translate(3.71 3.868)">
                            <mask id="kqc5mn4s6n" fill="#fff">
                                <use xlink:href="#5lf2m48y8m"/>
                            </mask>
                            <path stroke="#34454C" stroke-linecap="round" stroke-linejoin="round" stroke-width=".5" d="M3.426 17.625c-.458.388-.952 2.686 4.943 3.66 5.894.975 15.093.376 15.093.376 2.199-.321 3.104-2.126 3.604-2.797.336-.45.422-.515-1.103-.888-1.876-.458-7.976-1.76-14.708-1.574-5.763.16-7.829 1.223-7.829 1.223-.912-.912-5.967-.561-8.705-.456-1.787.069-3.513-.033-5.231-.103" mask="url(#kqc5mn4s6n)"/>
                        </g>
                        <g transform="translate(-227 -23) translate(227 23.248) translate(.51) translate(3.71 3.868)">
                            <mask id="efosw4x8mp" fill="#fff">
                                <use xlink:href="#so95rwhtno"/>
                            </mask>
                            <path stroke="#29434B" stroke-linecap="round" stroke-linejoin="round" stroke-width=".5" d="M23.792 21.661c.879 5.619-2.368 8.401-11.98 11.012-7.72 2.096-17.905 2.632-22.223 2.511" mask="url(#efosw4x8mp)"/>
                        </g>
                        <g transform="translate(-227 -23) translate(227 23.248) translate(.51) translate(3.71 3.868)">
                            <mask id="1owq29phrr" fill="#fff">
                                <use xlink:href="#awv218bu2q"/>
                            </mask>
                            <path stroke="#29434B" stroke-linecap="round" stroke-linejoin="round" stroke-width=".5" d="M4.777 17.427c-1.041.545-.33 1.656.432 2.104.718.422 1.585.571 2.368.777.415.11.905.24 1.513.317 5.68.715 9.97.385 15.032.376 1.341-.002 2.444-1.465 2.944-2.137.336-.45.422-.515-1.103-.887-1.876-.46-7.976-1.76-14.708-1.574-1.648.045-3.317.153-4.928.526-.401.093-1.054.238-1.55.498z" mask="url(#1owq29phrr)"/>
                        </g>
                        <g transform="translate(-227 -23) translate(227 23.248) translate(.51) translate(3.71 3.868)">
                            <mask id="tzm12v1pjt" fill="#fff">
                                <use xlink:href="#8w0jo9s7ks"/>
                            </mask>
                            <path fill="#29434B" d="M27.476 18.22c.353.22.15 1.596.122 1.935-.02.25-.05.498-.089.745-.042.264-.094.527-.157.787-.032.13-.066.26-.103.388-.018.065-.037.129-.057.193l-.03.096c-.006.016-.03.063-.02.077.065.078.135.153.19.237.165.252.326.507.493.758.049.073.31.534.4.55h.006c.012 0 .024-.006.036-.013.158-.091.272-.244.376-.394.36-.52.786-1.139.933-1.774.018-.075.031-.15.04-.224.09-.747.065-1.504-.03-2.25-.011-.096-.06-.185-.14-.241-.61-.432-1.507-.73-1.97-.87m.7.767c.375.15.688.308.927.468.091.752.098 1.429.022 2.067-.007.055-.018.113-.031.171-.12.52-.482 1.058-.813 1.539l-.044-.07c-.101-.152-.2-.305-.298-.458-.064-.1-.127-.199-.194-.3l-.054-.076.034-.116c.039-.136.075-.271.108-.408.066-.272.121-.55.165-.827.04-.258.073-.521.094-.782.003-.041.01-.099.017-.169.038-.365.07-.72.067-1.039" mask="url(#tzm12v1pjt)"/>
                        </g>
                        <g transform="translate(-227 -23) translate(227 23.248) translate(.51) translate(3.71 3.868)">
                            <mask id="3vlah82x2v" fill="#fff">
                                <use xlink:href="#wcamhu1oju"/>
                            </mask>
                            <path stroke="#29434B" stroke-linecap="round" stroke-linejoin="round" stroke-width=".5" d="M28.764 4.527L27.104 10.448" mask="url(#3vlah82x2v)"/>
                        </g>
                        <g transform="translate(-227 -23) translate(227 23.248) translate(.51) translate(3.71 3.868)">
                            <mask id="kvl66amzvx" fill="#fff">
                                <use xlink:href="#9ysvm5uvlw"/>
                            </mask>
                            <path stroke="#29434B" stroke-linecap="round" stroke-linejoin="round" stroke-width=".5" d="M30.07 44.77L31.73 38.848" mask="url(#kvl66amzvx)"/>
                        </g>
                    </g>
                </g>
            </g>
        </g>
    </g>
</svg>
