<svg xmlns="http://www.w3.org/2000/svg" xmlns:xlink="http://www.w3.org/1999/xlink" width="57" height="57" viewBox="0 0 57 57">
    <defs>
        <path id="42zvucugna" d="M24.01.1l.393.003c12.942.21 23.368 10.764 23.368 23.756v-.039.079l-.003.353c-.208 12.81-10.554 23.156-23.365 23.363l-.393.004-.393-.004C10.677 47.405.25 36.85.25 23.86.25 10.736 10.888.1 24.01.1z"/>
        <path id="vvxrp5o7nc" d="M.25 23.86c0 13.121 10.638 23.759 23.76 23.759 13.123 0 23.76-10.638 23.76-23.76C47.77 10.736 37.134.1 24.01.1 10.888.1.25 10.736.25 23.86"/>
        <path id="pdyjjh8wfe" d="M.25 23.86c0 13.121 10.638 23.759 23.76 23.759 13.123 0 23.76-10.638 23.76-23.76C47.77 10.736 37.134.1 24.01.1 10.888.1.25 10.736.25 23.86"/>
        <path id="vr3wih6ayg" d="M.25 23.86c0 13.121 10.638 23.759 23.76 23.759 13.123 0 23.76-10.638 23.76-23.76C47.77 10.736 37.134.1 24.01.1 10.888.1.25 10.736.25 23.86"/>
        <path id="ixbatikuli" d="M.25 23.86c0 13.121 10.638 23.759 23.76 23.759 13.123 0 23.76-10.638 23.76-23.76C47.77 10.736 37.134.1 24.01.1 10.888.1.25 10.736.25 23.86"/>
        <path id="rc6ye55bik" d="M.25 23.86c0 13.121 10.638 23.759 23.76 23.759 13.123 0 23.76-10.638 23.76-23.76C47.77 10.736 37.134.1 24.01.1 10.888.1.25 10.736.25 23.86z"/>
        <path id="8pyombpr1m" d="M.25 23.86c0 13.121 10.638 23.759 23.76 23.759 13.123 0 23.76-10.638 23.76-23.76C47.77 10.736 37.134.1 24.01.1 10.888.1.25 10.736.25 23.86"/>
        <path id="yzjbmxwr1o" d="M.25 23.86c0 13.121 10.638 23.759 23.76 23.759 13.123 0 23.76-10.638 23.76-23.76C47.77 10.736 37.134.1 24.01.1 10.888.1.25 10.736.25 23.86"/>
        <path id="0wkkjb2nsq" d="M.25 23.86c0 13.121 10.638 23.759 23.76 23.759 13.123 0 23.76-10.638 23.76-23.76C47.77 10.736 37.134.1 24.01.1 10.888.1.25 10.736.25 23.86"/>
        <path id="tss10whbas" d="M.25 23.86c0 13.121 10.638 23.759 23.76 23.759 13.123 0 23.76-10.638 23.76-23.76C47.77 10.736 37.134.1 24.01.1 10.888.1.25 10.736.25 23.86"/>
    </defs>
    <g fill="none" fill-rule="evenodd">
        <g>
            <g>
                <g>
                    <path fill="#2C4449" d="M27.72 0C12.435 0 0 12.435 0 27.72c0 15.285 12.435 27.72 27.72 27.72 15.285 0 27.72-12.435 27.72-27.72C55.44 12.435 43.005 0 27.72 0m0 1.98c14.216 0 25.74 11.524 25.74 25.74S41.936 53.46 27.72 53.46 1.98 41.936 1.98 27.72 13.504 1.98 27.72 1.98" opacity=".071" transform="translate(-159 -23) translate(159 23.248) translate(.2)"/>
                    <g>
                        <g>
                            <g transform="translate(-159 -23) translate(159 23.248) translate(.2) translate(3.71 3.868)">
                                <mask id="dhthudy4wb" fill="#fff">
                                    <use xlink:href="#42zvucugna"/>
                                </mask>
                                <path fill="#F6F6F7" d="M-4.37 52.569L53.05 52.569 53.05 -4.851 -4.37 -4.851z" mask="url(#dhthudy4wb)"/>
                            </g>
                            <g transform="translate(-159 -23) translate(159 23.248) translate(.2) translate(3.71 3.868)">
                                <mask id="oxehkgltqd" fill="#fff">
                                    <use xlink:href="#vvxrp5o7nc"/>
                                </mask>
                                <path fill="#EEBEA7" d="M12.28 23.965c2.851-.069 5.705.127 8.522.564.916.142 1.873.254 2.762.517.834.248 1.683.408 2.434.872.024.014-.6.847-.673.913-.415.385-.977.566-1.525.66-.078.014-1.061.1-1.137.115 0 0-8.515.362-13.473-.41-.968-.15-1.943-.321-2.884-.599-.424-.125-.98-.245-1.254-.626-.477-.664.226-1.015.76-1.226 0 0 .768-.642 6.469-.78" mask="url(#oxehkgltqd)" opacity=".4"/>
                            </g>
                            <g transform="translate(-159 -23) translate(159 23.248) translate(.2) translate(3.71 3.868)">
                                <mask id="o5e3cm8dmf" fill="#fff">
                                    <use xlink:href="#pdyjjh8wfe"/>
                                </mask>
                                <path fill="#EEBEA7" d="M26.337 29.731c-.016.006-.032.01-.048.01-.02.002-.042 0-.058-.01-.03-.019-.04-.054-.052-.085-.01-.026-.023-.051-.038-.074-.006-.01-.013-.02-.024-.027-.021-.014-.05-.006-.074.003-.08.032-.143.08-.21.134-.066.055-.15.094-.227.135-.2.105-.93.33-1.053.036-.072-.17-.048-.416-.063-.598-.018-.222-.052-.443-.088-.664-.039-.235-.073-.471-.134-.702-.068-.26-.174-.435-.332-.648.53-.185 1.009-.519 1.367-.952.054-.065.438-.464.514-.502.223-.11.443.187.548.34.143.209.243.443.333.679.131.343.244.693.357 1.043.069.214.129.425.15.648.013.12-.29.589-.36.697-.067.104-.12.18-.212.271-.078.079-.18.225-.296.266" mask="url(#o5e3cm8dmf)" opacity=".4"/>
                            </g>
                        </g>
                        <g transform="translate(-159 -23) translate(159 23.248) translate(.2) translate(3.71 3.868)">
                            <mask id="z52nc16b0h" fill="#fff">
                                <use xlink:href="#vr3wih6ayg"/>
                            </mask>
                            <path stroke="#34454C" stroke-linecap="round" stroke-linejoin="round" stroke-width=".5" d="M4.388 25.026c-1.355.84-.852 2.14 4.418 3.012 4.104.679 9.187.504 11.675.394 1.391-.062 3.719-.608 4.706-1.59.157-.155.263-.32.396-.49l.378-.48c.005-.007-.669-.301-.734-.322-.229-.072-.455-.153-.69-.21-1.677-.41-7.131-1.573-13.15-1.407-5.152.142-7 1.093-7 1.093-.815-.816-5.335-.502-7.783-.408-1.597.062-3.14-.03-4.676-.092" mask="url(#z52nc16b0h)"/>
                        </g>
                        <g transform="translate(-159 -23) translate(159 23.248) translate(.2) translate(3.71 3.868)">
                            <mask id="m6q4wba1kj" fill="#fff">
                                <use xlink:href="#ixbatikuli"/>
                            </mask>
                            <path stroke="#34454C" stroke-linecap="round" stroke-linejoin="round" stroke-width=".5" d="M22.596 28.375c1.085 5.384-1.232 8.36-9.826 10.695-6.903 1.875-16.893 2.353-20.755 2.245" mask="url(#m6q4wba1kj)"/>
                        </g>
                        <g transform="translate(-159 -23) translate(159 23.248) translate(.2) translate(3.71 3.868)">
                            <mask id="j5pu5ca8ol" fill="#fff">
                                <use xlink:href="#rc6ye55bik"/>
                            </mask>
                            <path stroke="#34454C" stroke-linecap="round" stroke-linejoin="round" stroke-width=".5" d="M12.28 23.965c2.851-.069 5.705.127 8.522.564.916.142 1.873.254 2.762.517.834.248 1.683.408 2.434.872.024.014-.6.847-.673.913-.415.385-.977.566-1.525.66-.078.014-1.061.1-1.137.115 0 0-8.515.362-13.473-.41-.968-.15-1.943-.321-2.884-.599-.424-.125-.98-.245-1.254-.626-.477-.664.226-1.015.76-1.226 0 0 .768-.642 6.469-.78z" mask="url(#j5pu5ca8ol)"/>
                        </g>
                        <g transform="translate(-159 -23) translate(159 23.248) translate(.2) translate(3.71 3.868)">
                            <mask id="endo9cespn" fill="#fff">
                                <use xlink:href="#8pyombpr1m"/>
                            </mask>
                            <path fill="#34454C" d="M25.917 25.763c-.033 0-.067.008-.1.024-.076.038-.46.437-.514.502-.358.433-.836.767-1.367.952.158.213.264.388.333.648.06.23.094.468.133.702.036.22.07.442.088.664.015.182-.01.427.063.598.045.107.171.145.323.145.263 0 .603-.115.73-.18.077-.042.16-.08.228-.136.066-.054.129-.102.21-.134.014-.005.03-.01.046-.01.01 0 .019.001.027.007.01.006.018.016.024.027.015.023.028.048.038.074.012.031.023.066.051.084.015.01.031.013.048.013l.01-.001c.017-.001.033-.005.048-.01.117-.042.22-.188.297-.267.091-.09.145-.167.213-.271.07-.109.372-.577.36-.697-.023-.223-.082-.434-.15-.648-.114-.35-.227-.7-.358-1.043-.09-.236-.19-.47-.333-.679-.089-.13-.261-.364-.448-.364m.005.594l.035.05c.117.171.203.378.279.575.126.332.239.681.348 1.02.055.168.096.315.118.46-.03.064-.104.202-.272.462-.05.077-.08.12-.12.164-.07-.03-.144-.045-.22-.045-.077 0-.152.014-.23.045-.145.058-.251.14-.339.21-.016.014-.068.04-.105.06l-.04.02c-.054.03-.228.09-.383.115l-.001-.074c-.002-.072-.003-.141-.009-.204-.02-.25-.058-.494-.093-.703l-.017-.103c-.033-.21-.068-.426-.126-.646-.028-.109-.062-.207-.102-.298.396-.218.749-.509 1.038-.858.035-.04.141-.152.239-.25" mask="url(#endo9cespn)"/>
                        </g>
                        <g transform="translate(-159 -23) translate(159 23.248) translate(.2) translate(3.71 3.868)">
                            <mask id="d9poukeevp" fill="#fff">
                                <use xlink:href="#yzjbmxwr1o"/>
                            </mask>
                            <path fill="#34454C" d="M25.505 26.882c.356.833.699 1.663.97 2.535.027.086-.021.178-.107.204-.082.026-.17-.017-.2-.097l-.002-.004c-.314-.824-.708-1.632-1.108-2.425l-.002-.004c-.061-.122-.012-.271.11-.333.122-.061.27-.013.332.11l.007.014" mask="url(#d9poukeevp)"/>
                        </g>
                        <g transform="translate(-159 -23) translate(159 23.248) translate(.2) translate(3.71 3.868)">
                            <mask id="a2pazx7rkr" fill="#fff">
                                <use xlink:href="#0wkkjb2nsq"/>
                            </mask>
                            <path stroke="#34454C" stroke-linecap="round" stroke-linejoin="round" stroke-width=".5" d="M39.849 15.868c1.916 1.108 1.638 3.163-3.678 2.641-4.191-.411-10.108-2.19-12.423-2.925-1.069-.339-2.11-1.15-2.703-2.098-.242-.386-.538-1.006-.42-1.473.01-.043.027-.088.063-.112.033-.023.076-.021.117-.022 4.821-.14 9.373.647 13.87 1.986 2.647.788 4.317 1.555 5.297 2.097.676.374 1.091.576 1.86.632 1.697.125 4.764 1.166 6.616 1.74 1.527.472 3.041.784 4.54 1.121" mask="url(#a2pazx7rkr)"/>
                        </g>
                        <g transform="translate(-159 -23) translate(159 23.248) translate(.2) translate(3.71 3.868)">
                            <mask id="jyyexst29t" fill="#fff">
                                <use xlink:href="#tss10whbas"/>
                            </mask>
                            <path stroke="#34454C" stroke-linecap="round" stroke-linejoin="round" stroke-width=".5" d="M22.764 15.265c-.76 1.838-1.188 3.87-.578 5.815.307.981.848 1.87 1.497 2.66.784.956 1.667 1.468 2.678 2.15 1.176.791 2.495 1.855 3.72 2.568 6.183 3.598 13.365 6.711 18.807 7.21" mask="url(#jyyexst29t)"/>
                        </g>
                    </g>
                </g>
            </g>
        </g>
    </g>
</svg>
