<svg xmlns="http://www.w3.org/2000/svg" xmlns:xlink="http://www.w3.org/1999/xlink" width="57" height="57" viewBox="0 0 57 57">
    <defs>
        <path id="ts27d3ivja" d="M.016 23.852c0 13.123 10.638 23.76 23.76 23.76 13.123 0 23.76-10.637 23.76-23.76 0-13.122-10.637-23.76-23.76-23.76C10.654.092.016 10.73.016 23.852z"/>
    </defs>
    <g fill="none" fill-rule="evenodd">
        <g>
            <g>
                <g>
                    <g transform="translate(-22 -23) translate(22 23.248) translate(.016) translate(3.944 3.868)">
                        <mask id="ndrpx4q2qb" fill="#fff">
                            <use xlink:href="#ts27d3ivja"/>
                        </mask>
                        <path fill="#F6F6F7" d="M-8.967 61.033L57.033 61.033 57.033 -7.937 -8.967 -7.937z" mask="url(#ndrpx4q2qb)"/>
                        <path fill="#EEBEA7" d="M23.616 28.505c.063.048.124.098.181.152.372.35.773.648 1.203.931.923.608 1.91 1.118 2.94 1.52.859.336 1.728.612 2.578.974.848.361 1.715.678 2.605.923.731.202 1.393.532 2.113.73-.9.49-1.894.78-2.878 1.067-.46.134-.921.269-1.382.402-2.096.608-4.194 1.205-6.309 1.741-1.008.257-2.023.52-3.045.682-.15.024-2.052.523-2.053.62.025-1.706-.741-3.688-1.138-5.35-.464-1.946-1.086-3.851-1.548-5.798-.517-2.182-1.02-4.366-1.513-6.553-.045-.2-.11-.396-.195-.583-.772-1.721-1.414-3.186-.68-3.205.775-.02 12.511-3.26 15.244-4.34 1.136-.448 2.3-.654 3.292-1.433.09-.07.195-.148.306-.122.541.13 1.038 3.829 1.163 4.358.143.603.393 1.812.609 2.39.24.644.428 1.302.573 1.974.123.564.356 1.224.35 1.795l-3.99-.91c-.503-.114-.916-.378-1.42-.474-.612-.116-1.236-.173-1.859-.172-1.114.002-2.249.214-3.213.772-.115.066-.229.138-.356.174-.11.032-.225.035-.339.038-.845.02-1.75.001-2.457.467-.496.327-.823.85-1.13 1.36-.683 1.126.022 2.875.903 3.7.212.198.416.424.541.689.116.245.051.496.148.728.147.349.47.534.756.753" mask="url(#ndrpx4q2qb)" opacity=".4"/>
                        <path stroke="#34454C" stroke-linejoin="round" stroke-width=".5" d="M-22.094 2703.782L349.156 2703.782 349.156 -242.458 -22.094 -242.458z" mask="url(#ndrpx4q2qb)"/>
                        <path stroke="#34454C" stroke-linecap="round" stroke-linejoin="round" stroke-width=".5" d="M-12.045 92.867c7.652-9.049 7.654-13.713 13.219-19.278 5.565-5.566 11.234-13.253 14.401-17.507 1.302-1.749 3.422-4.648 3.471-5.887M14.39 47.584C12.99 49.029 1.29 62.376-1.96 65.626c-3.25 3.25-10.744 11.511-11.85 12.317-1.106.806-1.943.542.754-2.305 2.698-2.846 7.086-7.635 9.524-10.072 2.437-2.438 9.212-8.36 14.539-14.54 1.446-1.677 2.095-2.434 3.132-3.647 3.275-3.83 4.943-5.487 7.583-9.777M17.934 30.99c-.801.317-1.888 1.026-3.329 2.443-3.542 3.484-6.02 6.484-10.095 10.154-4.076 3.67-7.578 7.582-11.974 12.093-4.396 4.512-9.442 9.037-9.967 9.562-.526.526-1.968.578-.84-.84 1.128-1.416 5.177-4.944 8.39-7.927 3.215-2.982 3.795-2.347 14.555-13.164 10.759-10.817 11.25-11.829 12.688-13.267M15.611 21.727c-.32-.375-2.325-.167-5.266 2.369S2.439 31.017.104 32.83c-2.335 1.815-5.32 3.353-10.413 8.33s-9.486 9.216-12.75 12.312c-1.619 1.536-2.925 2.553-3.347 2.685-.421.132-1.357.026-.114-1.332 1.242-1.358 2.6-2.311 4.902-4.324 2.303-2.013 11.385-9.707 19.228-16.913 7.843-7.206 8.249-8.017 10.272-9.867 2.023-1.85 4.22-4.45 4.033-5.19M7.625 14.354c-.319-.318-4.452 1.285-8.696 5.008-4.243 3.723-13.14 9.378-17.053 12.712-3.913 3.335-8.045 7.003-11.073 9.453-3.028 2.449-8.47 6.6-11.956 8.812" mask="url(#ndrpx4q2qb)"/>
                        <path fill="#34454C" d="M10.009 13.449c-.891 0-1.808.337-2.471.785-1.195.808-3.029 2.436-3.497 2.882-.468.445-1.79 2.407.076 4.295.65.656 1.599.923 2.482.923.819 0 1.58-.23 1.991-.59.779-.683 2.624-2.418 2.918-2.712.294-.294 1.1-1.1 1.243-1.653.143-.553.413-1.938-.795-3.168-.537-.546-1.234-.762-1.947-.762m0 .495c.657 0 1.194.207 1.594.614.718.731.943 1.639.669 2.697-.05.193-.284.597-1.114 1.427-.292.292-2.135 2.025-2.894 2.69-.324.283-.977.467-1.665.467-.866 0-1.642-.283-2.13-.776-.557-.564-.835-1.179-.825-1.826.013-.878.551-1.585.738-1.763.527-.5 2.322-2.079 3.433-2.83.649-.438 1.469-.7 2.194-.7" mask="url(#ndrpx4q2qb)"/>
                        <path stroke="#34454C" stroke-linecap="round" stroke-linejoin="round" stroke-width=".5" d="M18.324 32.461c-.414.423-.753.784-.91.958-.392.436-1.5 2.264.072 3.638.527.46 1.288.579 2.006.49M15.66 21.775c-1.05 1-2.486 2.376-2.889 2.778-.714.714-1.797 2.345-.115 4.028 1.294 1.294 3.598.206 4.447-.549M15.294 48.077c-.262.33-.477.604-.58.738-.429.564-1.031 1.8.288 2.805 1.014.772 2.251.13 2.77-.475.237-.275.585-.751.898-1.186M106.494 58.807c-3.486-1.808-10.072-3.874-19.499-4.649-9.426-.775-15.495-1.033-20.273-4.003-4.778-2.97-14.592-10.201-16.787-11.363-2.195-1.163-11.943-4.26-17.505-6.036-5.562-1.778-9.805-3.834-9.977-6.185M25.32 20.772c.287-.46 1.892-1.548 7.913 0 6.02 1.548 12.385 5.103 17.546 5.16 5.16.058 6.537-1.835 6.537-1.835" mask="url(#ndrpx4q2qb)"/>
                        <path stroke="#34454C" stroke-linejoin="round" stroke-width=".5" d="M110.721 34.361s-16.4 1.067-21.348-2.329c-4.95-3.396-14.556-15.331-17.564-19.504-3.008-4.173-4.852-9.8-10.674-10.189-5.822-.388-11.256.097-13.973 0-2.717-.097-8.151-.694-9.8-.153-1.65.541-4.659 3.84-6.696 5.975-2.038 2.135-5.143 5.24-5.628 5.725" mask="url(#ndrpx4q2qb)"/>
                        <path stroke="#34454C" stroke-linecap="round" stroke-linejoin="round" stroke-width=".5" d="M29.82 35.685c.11 1.384 1.073 3.43 3.3 2.708s3.057-2.496 3.154-4.407M36.027 21.608s2.99-1.028 3.653-2.473c0 0 3.07.92 6.44-.894" mask="url(#ndrpx4q2qb)"/>
                        <path stroke="#34454C" stroke-linejoin="round" stroke-width=".5" d="M35.073 16.583s.603-.14 1.959-1.179c2.993-2.29 3.009-3.07 3.009-3.07s1.986 1.385 5.055 1.506c3.07.12 3.55-.12 3.55-.12" mask="url(#ndrpx4q2qb)"/>
                        <path stroke="#34454C" stroke-linecap="round" stroke-linejoin="round" stroke-width=".5" d="M40.4 10.04c.133.832-.197 1.822-.359 2.295" mask="url(#ndrpx4q2qb)"/>
                        <path fill="#34454C" d="M23.818 20.46c-.101 0-.195.008-.279.026-.605.132-2.08.548-2.717 2.349-.639 1.8.728 3.574 2.069 4.358 1.34.783 3.776 1.792 4.427 2.036.2.075.576.158 1.029.158 1.025 0 2.444-.427 3.12-2.353.653-1.86-.622-4.111-1.748-4.587-1.025-.433-3.571-1.402-3.994-1.547-.364-.126-1.275-.44-1.907-.44m0 .495c.55 0 1.419.3 1.746.413.42.145 2.963 1.113 3.963 1.535.94.397 2.018 2.416 1.473 3.967-.587 1.672-1.766 2.022-2.653 2.022-.38 0-.699-.068-.855-.127-.568-.212-3-1.21-4.351-2-1.021-.596-2.427-2.146-1.853-3.765.387-1.092 1.18-1.775 2.356-2.03.032-.007.087-.015.174-.015" mask="url(#ndrpx4q2qb)"/>
                        <path stroke="#34454C" stroke-linejoin="round" stroke-width=".5" d="M36.033 21.606c-.52-2.126-1.03-4.255-1.533-6.386-.125-.528-.622-4.227-1.163-4.357-.11-.026-.217.051-.306.121-.993.78-2.156.986-3.292 1.435-2.733 1.08-14.469 4.319-15.244 4.339-.734.019-.092 1.484.68 3.205.084.187.15.383.195.583.493 2.187.996 4.371 1.513 6.553.462 1.947 1.084 3.852 1.548 5.798.397 1.662 1.163 3.644 1.138 5.35 1.305-.22 2.458-.755 3.707-1.093l4.21-1.138 7.033-1.903.705-.19s.181-.049.47-.123" mask="url(#ndrpx4q2qb)"/>
                        <path stroke="#34454C" stroke-linejoin="round" stroke-width=".5" d="M27.485 36.016l7.034-1.903.705-.19s.181-.049.47-.123M36.033 21.606c-.52-2.126-1.03-4.255-1.533-6.386-.125-.528-.622-4.227-1.163-4.357-.11-.026-.217.051-.306.121-.993.78-2.156.986-3.292 1.435-2.733 1.08-14.469 4.319-15.244 4.339-.734.019-.092 1.484.68 3.205.084.187.15.383.195.583.493 2.187.996 4.371 1.513 6.553.462 1.947 1.084 3.852 1.548 5.798.397 1.662 1.163 3.644 1.138 5.35 1.305-.22 2.458-.755 3.707-1.093" mask="url(#ndrpx4q2qb)"/>
                    </g>
                    <path fill="#2C4349" d="M27.72 0C12.435 0 0 12.435 0 27.72c0 15.285 12.435 27.72 27.72 27.72 15.285 0 27.72-12.435 27.72-27.72C55.44 12.435 43.005 0 27.72 0m0 1.98c14.216 0 25.74 11.524 25.74 25.74S41.936 53.46 27.72 53.46 1.98 41.936 1.98 27.72 13.504 1.98 27.72 1.98" opacity=".07" transform="translate(-22 -23) translate(22 23.248) translate(.016)"/>
                </g>
            </g>
        </g>
    </g>
</svg>
