<svg xmlns="http://www.w3.org/2000/svg" xmlns:xlink="http://www.w3.org/1999/xlink" width="57" height="57" viewBox="0 0 57 57">
    <defs>
        <path id="rzrpahhhma" d="M24.01 0l.393.004C37.344.214 47.77 10.769 47.77 23.76l-.003.393c-.21 12.94-10.766 23.367-23.757 23.367l-.392-.003C10.676 47.307.25 36.75.25 23.76.251 10.638 10.888 0 24.011 0z"/>
        <path id="pc7oum082c" d="M.25 23.76c0 13.122 10.638 23.76 23.76 23.76 13.123 0 23.76-10.638 23.76-23.76C47.77 10.638 37.133 0 24.01 0 10.889 0 .25 10.638.25 23.76"/>
        <path id="5p8ogah39e" d="M.25 23.76c0 13.122 10.638 23.76 23.76 23.76 13.123 0 23.76-10.638 23.76-23.76C47.77 10.638 37.133 0 24.01 0 10.889 0 .25 10.638.25 23.76"/>
        <path id="f9m82vzxzg" d="M.25 23.76c0 13.122 10.638 23.76 23.76 23.76 13.123 0 23.76-10.638 23.76-23.76C47.77 10.638 37.133 0 24.01 0 10.889 0 .25 10.638.25 23.76"/>
        <path id="1e28kvswoi" d="M.25 23.76c0 13.122 10.638 23.76 23.76 23.76 13.123 0 23.76-10.638 23.76-23.76C47.77 10.638 37.133 0 24.01 0 10.889 0 .25 10.638.25 23.76"/>
        <path id="hsq5u50j5k" d="M.25 23.76c0 13.122 10.638 23.76 23.76 23.76 13.123 0 23.76-10.638 23.76-23.76C47.77 10.638 37.133 0 24.01 0 10.889 0 .25 10.638.25 23.76z"/>
        <path id="vrnajalufm" d="M.25 23.76c0 13.122 10.638 23.76 23.76 23.76 13.123 0 23.76-10.638 23.76-23.76C47.77 10.638 37.133 0 24.01 0 10.889 0 .25 10.638.25 23.76"/>
        <path id="rohddfgq7o" d="M.25 23.76c0 13.122 10.638 23.76 23.76 23.76 13.123 0 23.76-10.638 23.76-23.76C47.77 10.638 37.133 0 24.01 0 10.889 0 .25 10.638.25 23.76z"/>
        <path id="loyox4xfxq" d="M.25 23.76c0 13.122 10.638 23.76 23.76 23.76 13.123 0 23.76-10.638 23.76-23.76C47.77 10.638 37.133 0 24.01 0 10.889 0 .25 10.638.25 23.76"/>
        <path id="s2cs6esghs" d="M.25 23.76c0 13.122 10.638 23.76 23.76 23.76 13.123 0 23.76-10.638 23.76-23.76C47.77 10.638 37.133 0 24.01 0 10.889 0 .25 10.638.25 23.76"/>
    </defs>
    <g fill="none" fill-rule="evenodd">
        <g>
            <g>
                <path fill="#2C4449" d="M27.72 0C12.435 0 0 12.435 0 27.72c0 15.285 12.435 27.72 27.72 27.72 15.285 0 27.72-12.435 27.72-27.72C55.44 12.435 43.005 0 27.72 0m0 1.98c14.216 0 25.74 11.524 25.74 25.74S41.936 53.46 27.72 53.46 1.98 41.936 1.98 27.72 13.504 1.98 27.72 1.98" opacity=".071" transform="translate(-296 -23) translate(296.81 23.248)"/>
                <g transform="translate(-296 -23) translate(296.81 23.248) translate(3.71 3.868)">
                    <mask id="9w2bsandob" fill="#fff">
                        <use xlink:href="#rzrpahhhma"/>
                    </mask>
                    <path fill="#F6F6F7" d="M-4.7 47.85L52.72 47.85 52.72 -9.57 -4.7 -9.57z" mask="url(#9w2bsandob)"/>
                    <path fill="#EEBEA7" d="M27.523 32.42c.133.217.256.44.38.664.04.073.03.166-.028.226-.172.18-.36.34-.551.5-.216.18-.425.349-.668.497-.503.306-1.081.692-1.695.544-.555-.133-.97-.593-1.363-.976-1.788-1.746-3.552-3.518-5.274-5.33-1.857-1.952-3.723-3.94-5.322-6.114-.384-.522-.666-.975-.894-1.367-.533-.914-1.146-1.889-1.343-2.941-.046-.24-.057-.492.016-.726.239-.762 1.01-1.005 1.621-.814.565.177 1.162.556 1.531.787 1.483.925 2.812 2.092 4.078 3.29 3.168 2.997 5.41 5.905 7.173 8.365.468.653.922 1.317 1.374 1.981.248.366.504.725.754 1.09.074.106.144.214.21.324" mask="url(#9w2bsandob)" opacity=".4"/>
                </g>
                <g>
                    <g transform="translate(-296 -23) translate(296.81 23.248) translate(3.71 3.868)">
                        <mask id="nd3y512pbd" fill="#fff">
                            <use xlink:href="#pc7oum082c"/>
                        </mask>
                        <path stroke="#34454C" stroke-linecap="round" stroke-linejoin="round" stroke-width=".5" d="M12.87 16.98c-.466-.467-1.626-1.258-1.626-1.258-.474-1.309-4.275-5.115-6.4-7.083-1.387-1.284-2.368-2.417-3.6-3.753" mask="url(#nd3y512pbd)"/>
                    </g>
                    <g transform="translate(-296 -23) translate(296.81 23.248) translate(3.71 3.868)">
                        <mask id="7k7wno90pf" fill="#fff">
                            <use xlink:href="#5p8ogah39e"/>
                        </mask>
                        <path stroke="#34454C" stroke-linecap="round" stroke-linejoin="round" stroke-width=".5" d="M11.244 15.722c-.633-.053-2.886 1.461.792 6.597 3.678 5.135 11.25 11.811 11.25 11.811.74.486 2.045 1.18 3.365-.14" mask="url(#7k7wno90pf)"/>
                    </g>
                    <g transform="translate(-296 -23) translate(296.81 23.248) translate(3.71 3.868)">
                        <mask id="egtp5k43kh" fill="#fff">
                            <use xlink:href="#f9m82vzxzg"/>
                        </mask>
                        <path stroke="#34454C" stroke-linecap="round" stroke-linejoin="round" stroke-width=".5" d="M23.36 34.275c-3.123 3.855-9.273 5.104-17.84.198-7.338-4.204-15.102-12.158-18.24-15.477" mask="url(#egtp5k43kh)"/>
                    </g>
                    <g transform="translate(-296 -23) translate(296.81 23.248) translate(3.71 3.868)">
                        <mask id="6o79ykyj5j" fill="#fff">
                            <use xlink:href="#1e28kvswoi"/>
                        </mask>
                        <path fill="#34454C" d="M11.991 16.521c-.508 0-1.023.278-1.21.876-.073.234-.061.485-.017.726.198 1.052.81 2.027 1.344 2.94.229.393.51.846.894 1.368 1.599 2.175 3.465 4.162 5.322 6.115 1.722 1.81 3.486 3.583 5.274 5.328.393.384.808.844 1.364.977.093.023.185.033.276.033.51 0 .991-.317 1.418-.577.243-.149.453-.317.668-.498.19-.16.38-.32.552-.499.058-.06.067-.153.027-.226-.124-.225-.247-.447-.38-.664-.068-.11-.137-.218-.21-.325-.25-.364-.507-.724-.755-1.089-.452-.664-.906-1.328-1.374-1.981-1.762-2.46-4.005-5.368-7.173-8.365-1.266-1.198-2.595-2.365-4.078-3.29-.37-.23-.967-.61-1.531-.787-.132-.041-.27-.062-.41-.062m0 .495c.09 0 .178.013.262.04.484.151 1.021.486 1.376.708l.041.026c1.517.946 2.873 2.163 4 3.23 3.218 3.045 5.49 6.032 7.11 8.293.48.669.939 1.34 1.367 1.971.145.212.29.422.438.632l.319.46c.068.1.133.2.196.302.088.144.173.293.258.446-.11.1-.226.2-.353.305-.186.157-.386.32-.608.455l-.087.053c-.362.222-.737.452-1.073.452-.056 0-.108-.006-.16-.019-.364-.087-.69-.41-1.007-.724l-.127-.126c-1.926-1.88-3.647-3.618-5.261-5.315-1.982-2.084-3.747-3.979-5.282-6.067-.405-.55-.688-1.02-.865-1.323l-.143-.244c-.48-.818-.978-1.664-1.142-2.54-.037-.2-.037-.36.003-.486.153-.49.603-.529.737-.529" mask="url(#6o79ykyj5j)"/>
                    </g>
                    <g transform="translate(-296 -23) translate(296.81 23.248) translate(3.71 3.868)">
                        <mask id="p6u2bnnmll" fill="#fff">
                            <use xlink:href="#hsq5u50j5k"/>
                        </mask>
                        <path fill="#EDF0F2" d="M27.483 35.387c-.242 0-.497-.012-.728-.098-.043-.016-.133-.078-.182-.125-.273-.264-.54-.534-.806-.804l-.433-.438-.585-.584c.17-.01.338-.013.506-.013.221 0 .442.006.662.012.405.011.811.022 1.216.022.79 0 1.43-.044 2.01-.139 1.009-.164 1.713-.985 2.04-2.377l.073.04c.15.08.305.164.489.215.25.07.504.113.75.154l.228.04c.058.02.252.05.431.062-.55 1.42-1.144 2.375-1.816 2.92-.876.71-2.107 1.093-3.56 1.11l-.295.003z" mask="url(#p6u2bnnmll)"/>
                    </g>
                    <g transform="translate(-296 -23) translate(296.81 23.248) translate(3.71 3.868)">
                        <mask id="sluy3fai0n" fill="#fff">
                            <use xlink:href="#vrnajalufm"/>
                        </mask>
                        <path fill="#34454C" d="M31.132 30.56c-.078 0-.152.054-.17.137-.222 1.013-.73 2.095-1.858 2.279-.653.106-1.311.136-1.971.136-.792 0-1.585-.042-2.373-.044-.233 0-.35.28-.186.445l.585.585c.414.414.82.836 1.242 1.244.064.062.184.148.268.18.261.096.537.112.813.112.1 0 .2-.002.298-.003 1.312-.014 2.67-.32 3.714-1.166.894-.724 1.509-2.015 1.93-3.122.042-.112-.043-.228-.164-.231-.192-.005-.426-.043-.483-.062l-.01-.002c-.32-.057-.643-.101-.956-.188-.218-.06-.407-.185-.602-.282-.025-.012-.051-.018-.077-.018m.211.647c.102.05.212.096.335.13.263.073.524.117.776.16.069.01.137.022.206.034.04.011.09.022.144.031-.499 1.214-1.032 2.04-1.622 2.519-1.051.852-2.433 1.044-3.407 1.055l-.097.001-.196.002c-.219 0-.447-.01-.633-.079-.023-.01-.078-.049-.104-.074-.27-.261-.54-.535-.802-.8l-.434-.439-.178-.177c.195.004.389.01.58.015.4.01.812.022 1.222.022.804 0 1.456-.046 2.05-.143.737-.12 1.684-.616 2.16-2.257" mask="url(#sluy3fai0n)"/>
                    </g>
                    <g transform="translate(-296 -23) translate(296.81 23.248) translate(3.71 3.868)">
                        <mask id="k4az1ci8xp" fill="#fff">
                            <use xlink:href="#rohddfgq7o"/>
                        </mask>
                        <path fill="#34454C" d="M34.287 17.725c-2.278 8.133-3.423 12.595-3.43 12.722-.016.262.241.469.4.515.873.264 1.515.396 1.923.396.193 0 .333-.03.422-.088.22-.147 1.39-4.638 3.507-12.81l-2.822-.735zm.346.602l1.873.487c-1.547 5.973-2.879 11.1-3.246 12.046-.022.001-.048.003-.08.003-.247 0-.756-.066-1.773-.373-.013-.005-.033-.02-.046-.035.14-.62 1.228-4.82 3.272-12.128z" mask="url(#k4az1ci8xp)"/>
                    </g>
                    <g transform="translate(-296 -23) translate(296.81 23.248) translate(3.71 3.868)">
                        <mask id="ssueyegrxr" fill="#fff">
                            <use xlink:href="#loyox4xfxq"/>
                        </mask>
                        <path stroke="#34454C" stroke-linecap="round" stroke-linejoin="round" stroke-width=".5" d="M25.94 34.26c1.455 0 3.053.259 4.347-.547" mask="url(#ssueyegrxr)"/>
                    </g>
                    <g transform="translate(-296 -23) translate(296.81 23.248) translate(3.71 3.868)">
                        <mask id="5i6uxodxvt" fill="#fff">
                            <use xlink:href="#s2cs6esghs"/>
                        </mask>
                        <path fill="#34454C" d="M37.788-2.526c-.245 0-.47.163-.536.41L32.16 16.896c-.08.296.096.6.392.68l6.578 1.762c.049.013.097.02.144.02.245 0 .47-.164.536-.412l5.094-19.01c.079-.296-.096-.6-.393-.68l-6.578-1.762c-.049-.013-.097-.02-.144-.02m0 0l.016.498 6.578 1.763c.016.004.028.013.036.028.009.014.01.029.006.045l-5.093 19.01c-.008.028-.032.042-.066.042h-.007l-6.579-1.763c-.016-.004-.028-.013-.036-.028-.008-.014-.01-.029-.006-.045l5.093-19.01c.009-.03.036-.044.058-.044v-.495" mask="url(#5i6uxodxvt)"/>
                    </g>
                </g>
            </g>
        </g>
    </g>
</svg>
