<svg xmlns="http://www.w3.org/2000/svg" width="58" height="77" viewBox="0 0 58 77">
    <g fill="none" fill-rule="evenodd" stroke="#E4E4E4" stroke-linecap="round" stroke-linejoin="round" stroke-width="2">
        <path d="M10.058 54.62c-1.68-3.02-3.26-6.02-4.72-8.94-2.562-5.12-4.84-10.82-4.24-17.76C2.418 12.72 14.338 1.14 28.838 1h.278c.382 0 .762.02 1.142.02 15.04.64 27.04 13.86 26.74 29.46-.08 4.68-1.66 9.2-3.18 13-1.542 3.86-3.302 7.54-5.24 11.14"/>
        <path d="M19.962 41.37c.76-1.18 1.54-2.34 2.36-3.58l6.64-9.98 5.02 7.54c.938 1.44 1.858 2.8 2.778 4.16l.222.32c.358.52.698 1.04 1.06 1.54M28.962 27.81v48.11"/>
    </g>
</svg>
