<svg xmlns="http://www.w3.org/2000/svg" xmlns:xlink="http://www.w3.org/1999/xlink" width="33" height="33"><defs><ellipse id="a" cx="16.44" cy="16.32" rx="16.44" ry="16.32"/></defs><g fill="none" fill-rule="evenodd"><mask id="b" fill="#fff"><use xlink:href="#a"/></mask><use fill="#FFF" xlink:href="#a"/><g mask="url(#b)"><path stroke="#F6BEA0" stroke-linejoin="round" stroke-width=".7" d="M23.7 11.88c.376.382.726.812 1.049 1.294 1.642 2.455 2.501 5.194 2.725 8.117.191 2.497.24 5.005.348 7.508.147 3.4.293 12.101.439 15.502M10.08 11.88a8.959 8.959 0 00-1.048 1.294C7.39 15.63 6.53 18.368 6.306 21.291c-.19 2.497-.24 5.005-.347 7.508-.147 3.4-.293 12.101-.439 15.501"/><path fill="#F7BFA0" d="M9.544 14.562c0-.82.026-1.64.039-2.46.015-.904.026-1.81.086-2.712.046-.681.16-1.36.257-2.038.04-.273.115-.542.176-.813.11-.481.443-.788.964-.97a9.438 9.438 0 011.75-.403c1.85-.267 3.718-.27 5.585-.223.614.016 1.229.064 1.84.12.8.074 1.598.165 2.36.408.075.024.146.052.218.08.24.096.393.239.42.484.049.455.12.907.178 1.362.077.617.154 1.234.223 1.851.042.384.071.77.102 1.154.044.581.089 1.162.126 1.744.034.505.058 1.01.088 1.515.065 1.164.143 2.328.193 3.493.032.758.033 1.518.031 2.276 0 .424-.023.848-.059 1.271-.058.703-.138 1.403-.31 2.095a7.764 7.764 0 01-.468 1.38c-.308.668-.827 1.182-1.499 1.596-1.017.627-2.113 1.099-3.338 1.317-1.966.352-3.816.094-5.528-.838-.574-.312-1.118-.657-1.585-1.088-.714-.657-1.107-1.454-1.316-2.326a13.341 13.341 0 01-.33-2.349c-.043-.783-.096-1.566-.12-2.35-.039-1.192-.057-2.385-.083-3.576.013 0-.012 0 0 0"/><path stroke="#F6BEA0" stroke-linejoin="round" stroke-width=".5" d="M9.544 14.562c0-.82.026-1.64.039-2.46.015-.904.026-1.81.086-2.712.046-.681.16-1.36.257-2.038.04-.273.115-.542.176-.813.11-.481.443-.788.964-.97a9.438 9.438 0 011.75-.403c1.85-.267 3.718-.27 5.585-.223.614.016 1.229.064 1.84.12.8.074 1.598.165 2.36.408.075.024.146.052.218.08.24.096.393.239.42.484.049.455.12.907.178 1.362.077.617.154 1.234.223 1.851.042.384.071.77.102 1.154.044.581.089 1.162.126 1.744.034.505.058 1.01.088 1.515.065 1.164.143 2.328.193 3.493.032.758.033 1.518.031 2.276 0 .424-.023.848-.059 1.271-.058.703-.138 1.403-.31 2.095a7.764 7.764 0 01-.468 1.38c-.308.668-.827 1.182-1.499 1.596-1.017.627-2.113 1.099-3.338 1.317-1.966.352-3.816.094-5.528-.838-.574-.312-1.118-.657-1.585-1.088-.714-.657-1.107-1.454-1.316-2.326a13.341 13.341 0 01-.33-2.349c-.043-.783-.096-1.566-.12-2.35-.039-1.192-.057-2.385-.083-3.576.013 0-.012 0 0 0z"/></g><g stroke="#FFF" stroke-width=".7" stroke-linejoin="round" mask="url(#b)"><path d="M16.499 24.409V7.813M18 22.999L16.499 24.5l-1.5-1.501M18 9l-1.501-1.501L14.999 9"/></g></g></svg>