<svg width="251" height="159" xmlns="http://www.w3.org/2000/svg">
 <style>.st0,.st1{fill:none;stroke:#f7bfa0;stroke-width:1.4;stroke-linejoin:round}.st1{stroke:#2c4349}</style>

 <g>
  <title>Layer 1</title>
  <path height="161" width="253" y="-1" x="-1" d="m-1,-1l802,0l0,602l-802,0l0,-602z" id="canvas_background" fill="none"/>
  <g id="svg_3">
   <g id="Page-1">
    <g id="CLEAN-LEFT-HAND" transform="matrix(1,0,0,-1,1,158.02) ">
     <path id="Stroke-26" class="st0" d="m49.61538,155c12.1,1.4 24.2,1.9 35.9,1c26.2,-2.2 26.2,-5.9 43.7,-5.9c17.5,0 30.9,-3.2 42.5,-4.9c11.7,-1.7 16.8,-4.2 17.3,-4.9"/>
     <path id="Stroke-28" class="st0" d="m189.41538,128.6c0,-0.6 -1.6,-1.9 -7.9,-1.8c-4.5,0.1 -34.6,2.4 -44.8,2.4c-10.2,0 -24.6,-1.7 -27.7,-1.7c-6.2,0 -7,-4.6 0.8,-5.3c8.7,-0.7 24.2,-1.6 31.8,-1.6c7.7,0 20,1.3 38.1,0s25.6,-2.1 32,-2.3c6.4,-0.3 9.8,-1.2 11.1,-3.1"/>
     <path id="Stroke-30" class="st0" d="m225.01538,103.1c0.2,-1 -0.8,-3.7 -11.8,-3.8c-11,-0.1 -19.6,0.7 -31.8,0.1s-16.2,-0.7 -30.2,-0.5s-26,-1.9 -28.8,-2.1c-5.5,-0.5 -6,-4.6 -0.8,-4.7c4,-0.1 19.9,-0.6 29.6,-0.2c9.7,0.4 13.1,0.7 35.9,1.2c33.9,0.7 38.4,0.1 42.9,0.1s9,-1 10.1,-3"/>
     <path id="Stroke-32" class="st0" d="m241.91538,76.5c0.1,-1.1 -3.4,-3.2 -12,-3.8c-8.6,-0.6 -23.3,-1.5 -29.8,-2.4c-6.5,-0.8 -16.5,-1.5 -32.3,-1.7c-15.8,-0.2 -33.3,-3.1 -43.2,-3.8c-3.4,-0.2 -5.1,-1.5 -5.1,-3s1.8,-1.7 5.9,-2c4.8,-0.4 13.6,-0.7 20.4,-0.3c6.8,0.5 16.7,2.6 40.4,3.6c23.6,1 25.6,0.4 31.6,0.6c6.1,0.3 9.5,-0.4 10.3,-1.8"/>
     <path id="Stroke-34" class="st0" d="m227.51538,47.8c0,-1 -4.3,-4.5 -16.9,-5.3c-12.5,-0.8 -27.8,-5.9 -39.2,-6.8c-11.4,-0.9 -23.6,-1.6 -32.3,-2.5c-8.6,-0.9 -36.3,-4.4 -45.2,-6.4"/>
     <path id="Stroke-36" class="st0" d="m49.61538,14.6c6.7,-3.4 9.4,-4.1 16.6,-6.3c9.8,-3.1 10.1,-2 25.4,0c15.9,2.1 23.2,3.8 32.5,1.9s12.7,-1.8 15.8,-1.8c3.1,0 5.7,-0.7 5.7,-0.7"/>
     <path id="Stroke-38" class="st0" d="m168.01538,5.1s2.4,4.2 -0.5,9.7c-2.9,5.5 -12,11.3 -18.2,13.2s-9.6,4.8 -16.8,4.2"/>
     <path id="Stroke-40" class="st1" d="m162.71538,10.6c-4.6,2.7 -9.9,3.7 -14.4,2.5c-0.7,-0.2 -1.2,-0.8 -1.9,-2.3c-0.8,-1.9 -0.9,-3.3 -0.9,-3.3s2.8,-1.5 5.5,-2.7c5.9,-2.6 10.4,-4.8 15.6,-4.8c0.9,0 2.9,0.2 1.9,4.2c-0.6,2.2 -3,4.8 -5.8,6.4z"/>
     <path id="Stroke-42" class="st1" d="m211.41538,53.9c0,4 4,7.4 6.5,7.6c2.3,0.2 7.9,0.3 8.8,0.3s3.5,0 4.6,-0.6c1.1,-0.6 3.7,-2.4 3.7,-6.2c0,-3.8 -3.8,-6.3 -7,-6.9c-3.1,-0.6 -8.6,-0.9 -10,-1c-1.4,-0.1 -6.6,0.9 -6.6,6.8z"/>
     <path id="Stroke-44" class="st1" d="m208.41538,109.3c0.1,-3.5 2.9,-6.4 5.2,-6.5c2.1,0 8.3,0.1 9.2,0.1c3.1,-0.1 7.4,2.3 7.2,6.5c-0.2,4.2 -3.5,5.8 -6.5,5.9c-2.9,0.1 -7.6,0.2 -8.9,0.2c-1.4,-0.1 -6.4,-0.9 -6.2,-6.2z"/>
     <path id="Stroke-46" class="st1" d="m175.71538,135.2c0,-3.2 2.4,-5.7 4.5,-5.8c1.9,-0.1 6.5,-0.4 7.2,-0.5c2.8,-0.2 6.4,1.2 6.4,5.1c0,3.8 -2.9,6.2 -6.3,6.4c-2.6,0.2 -5,0.3 -6.2,0.3c-1,0 -5.7,-0.6 -5.6,-5.5z"/>
     <path id="Stroke-48" class="st1" d="m224.31538,83.3c0,4.5 4,6.7 6.5,6.8c2.3,0.2 7.5,-0.2 8.4,-0.1c6.3,0.2 8.9,-3.1 9,-6.9c0,-3.8 -3.3,-6.3 -7.2,-6.4c-3.2,-0.1 -8.7,-0.2 -10.1,-0.2c-2.3,0 -6.6,0.9 -6.6,6.8z"/>
    </g>
   </g>
   <g id="Page-1_1_">
    <g id="FIT-REVIEW-SOME-Copy" transform="rotate(45 89.86532592773442,81.5500030517578) ">
     <g id="svg_1">
      <path fill="#f7bfa0" d="m81.11538,98.2l0,-33.3l1,0l0,32.3l16.5,0l0,0.9l-17.5,0l0,0.1z" id="svg_2"/>
     </g>
    </g>
   </g>
  </g>
  <line stroke="null" stroke-linecap="null" stroke-linejoin="null" id="svg_9" y2="111.98198" x2="-3.53847" y1="143.90506" x1="41.07692" stroke-opacity="null" stroke-width="2" fill="none"/>
  <line transform="rotate(-21.623638153076172 24.730766296386733,131.78967285156247) " stroke="#f7bfa0" stroke-linecap="null" stroke-linejoin="null" id="svg_10" y2="111.59736" x2="4.92307" y1="151.98198" x1="44.53846" stroke-width="1.5" fill="none"/>
 </g>
</svg>