<?xml version="1.0" encoding="UTF-8"?>
<svg width="286px" height="142px" viewBox="0 0 286 142" version="1.1" xmlns="http://www.w3.org/2000/svg" xmlns:xlink="http://www.w3.org/1999/xlink">
    <title>Group 5 Copy</title>
    <g id="Page-1" stroke="none" stroke-width="1" fill="none" fill-rule="evenodd">
        <g id="RPL2-Copy-3" transform="translate(85.000000, -336.000000)">
            <g id="MANIME-4-v4-(1)-+-Mask-Mask" transform="translate(20.000000, 43.000000)">
                <g id="Group-5-Copy" transform="translate(38.000000, 364.000000) scale(-1, -1) rotate(-270.000000) translate(-38.000000, -364.000000) translate(-32.000000, 222.000000)">
                    <path d="M35.0892686,251.547595 C35.1035246,251.552347 35.1225326,251.554723 35.1391646,251.559475 C34.9871006,251.414539 34.8540446,251.312371 34.7091086,251.186443 C34.5475406,251.043883 34.3931006,250.898947 34.2410366,250.777771 C33.8418686,250.454635 33.4617086,250.186147 33.1409486,250.019827 C30.2113406,248.558587 22.8908846,249.815491 22.8908846,249.815491 C22.8908846,249.815491 18.7067486,250.440379 15.3589646,252.113083 C10.3408526,254.622139 10.7590286,266.753995 11.1772046,270.519955 C11.5953806,274.283539 12.2226446,279.094939 25.1908526,276.374419 C26.1911486,276.165331 27.1201646,275.965747 28.0135406,275.773291 C28.2083726,275.730523 28.4032046,275.687755 28.5956606,275.647363 C29.3868686,275.471539 30.1400606,275.300467 30.8504846,275.134147 C30.9479006,275.110387 31.0548206,275.086627 31.1522366,275.062867 C32.7893006,274.673203 34.2030206,274.290667 35.4290366,273.891499 C35.4623006,273.881995 35.5026926,273.872491 35.5359566,273.860611 C35.5312046,273.862987 35.5240766,273.862987 35.5169486,273.865363 C40.3901246,272.261563 42.1697486,270.341755 42.3408206,266.179003 C42.5546606,261.023083 38.2731086,254.572243 35.0892686,251.547595 Z" id="Stroke-1" stroke="#2C4349" stroke-width="1.54" stroke-linejoin="round"></path>
                    <path d="M73.2979622,255.942245 L73.3050902,255.942245 C73.1340182,255.695141 72.1836182,254.725733 71.9911622,254.476253 C71.9911622,254.476253 70.2638102,253.473581 64.3024262,255.355373 C61.4868662,256.246373 56.9653382,259.209245 55.2403622,261.407045 C55.2403622,261.407045 55.6751702,265.707605 60.8524742,270.100829 C61.3609382,270.533261 61.9026662,270.858773 62.4586502,271.134389 C62.5370582,271.172405 62.6130902,271.217549 62.6938742,271.253189 C63.2379782,271.500293 63.7963382,271.671365 64.3665782,271.787789 C64.4449862,271.804421 64.5233942,271.816301 64.6018022,271.830557 C69.2540102,272.631269 74.3766662,269.459309 75.6003062,266.650877 C76.3178582,264.997181 76.6172342,260.803541 73.2718262,255.944621 C73.2813302,255.942245 73.2908342,255.942245 73.2979622,255.942245 Z" id="Stroke-3" stroke="#2C4349" stroke-width="1.54" stroke-linejoin="round"></path>
                    <path d="M95.5183142,242.966909 C95.3353622,242.591501 95.1357782,242.211341 94.9053062,241.821677 C94.9053062,241.821677 92.8952102,240.056309 87.5064422,241.085117 C84.9569942,241.569821 82.3433942,242.553485 80.6089142,244.292717 C80.6089142,244.292717 78.9172022,249.222917 82.9801622,253.585253 C83.4339782,254.074709 83.9400662,254.442989 84.4675382,254.758997 C84.5744582,254.823149 84.6742502,254.894429 84.7811702,254.949077 C85.2730022,255.205685 85.7838422,255.398141 86.3089382,255.533573 C86.4752582,255.578717 86.6415782,255.609605 86.8102742,255.642869 C86.9338262,255.666629 87.0550022,255.704645 87.1809302,255.723653 C87.1666742,255.709397 87.1547942,255.690389 87.1429142,255.678509 C90.8661062,256.222613 94.9552022,254.212517 96.1883462,252.095501 C96.9581702,250.769693 97.6329542,247.333997 95.4921782,242.964533 C95.5016822,242.966909 95.5111862,242.966909 95.5183142,242.966909 Z" id="Stroke-5" stroke="#2C4349" stroke-width="1.54" stroke-linejoin="round"></path>
                    <path d="M109.67571,224.773402 C107.38287,224.488282 104.890446,224.609458 102.949254,225.609754 C102.949254,225.609754 100.169334,229.332946 102.421782,234.144346 C102.71403,234.769234 103.09419,235.299082 103.531374,235.755274 C103.619286,235.847938 103.733334,235.907338 103.825998,235.992874 C104.194278,236.332642 104.576814,236.646274 105.00687,236.891002 C105.023502,236.89813 105.033006,236.912386 105.049638,236.919514 C105.047262,236.914762 105.047262,236.91001 105.047262,236.905258 C108.086166,238.601722 112.351086,237.998218 114.038046,236.484706 C115.142886,235.49629 116.86311,232.378978 115.75827,227.415514 C115.75827,227.415514 114.532254,225.37453 109.67571,224.773402 Z" id="Stroke-7" stroke="#2C4349" stroke-width="1.54" stroke-linejoin="round"></path>
                    <path d="M131.70123,201.452011 L131.70123,201.452011 C131.70123,201.449635 131.70123,201.449635 131.70123,201.447259 C131.66559,200.865139 131.599062,200.254507 131.45175,199.586851 C131.45175,199.586851 130.468086,197.942659 126.56907,197.462707 C124.72767,197.234611 122.727078,197.332027 121.168422,198.135115 C121.168422,198.135115 118.932606,201.126499 120.745494,204.985123 C120.947454,205.422307 121.213566,205.783459 121.503438,206.116099 C121.593726,206.218267 121.691142,206.308555 121.786182,206.401219 C121.88835,206.498635 121.976262,206.615059 122.083182,206.702971 C122.083182,206.683963 122.09031,206.664955 122.09031,206.645947 C124.51383,208.644163 128.56491,208.221235 130.071294,206.869291 C130.81023,206.206387 131.869926,204.345979 131.70123,201.452011 Z" id="Stroke-9" stroke="#2C4349" stroke-width="1.54" stroke-linejoin="round"></path>
                    <path d="M39.5152814,214.54092 C39.5152814,213.414696 39.4867694,213.184224 39.6150734,212.214816 C39.9096974,211.188384 40.4799374,211.188384 40.8505934,211.188384 L40.8648494,211.188384 C41.3234174,211.195512 41.5990334,211.292928 41.8128734,211.518648 C42.0362174,211.746744 42.3379694,212.314608 42.3427214,213.62616 C42.3450974,216.244512 42.8440574,226.256976 44.1841214,237.46932 C41.6441774,229.79484 39.5010254,221.065416 39.5152814,214.54092 Z M71.9904494,233.641584 C70.7834414,227.92968 69.4813934,220.739904 69.4885214,216.493992 C69.4505054,215.011368 69.7284974,213.88752 69.8734334,213.611904 C69.9304574,213.607152 69.9851054,213.6024 70.0350014,213.6024 C70.0540094,213.6024 70.0706414,213.6024 70.0872734,213.607152 C70.8333374,213.678432 71.0566814,213.647544 71.6554334,214.745256 C72.2019134,215.876232 72.6486014,218.254608 72.6390974,222.36984 C72.6390974,225.22104 72.4395134,228.913344 71.9904494,233.641584 Z M96.1353614,220.89672 C96.0783374,220.69476 96.0236894,220.495176 95.9666654,220.29084 C94.3343534,214.42212 92.7638174,207.80496 92.7733214,203.478264 C92.7614414,201.919608 92.9942894,200.686464 93.3411854,199.97604 C93.5716574,200.006928 94.2274334,200.139984 95.0851694,202.344912 C95.2348574,203.264424 96.2660414,209.686752 96.2660414,216.73872 C96.2660414,218.1168 96.2280254,219.516264 96.1353614,220.89672 Z M115.604305,189.647568 C115.395217,188.483328 115.226521,187.338096 115.121977,186.211872 C114.710929,181.951704 114.364033,177.648768 114.364033,174.186936 C114.328393,171.385632 113.827057,167.69808 115.102969,168.082992 C116.371753,168.629472 116.654497,173.419488 116.654497,177.895872 C116.654497,180.95616 116.371753,184.819536 115.604305,189.647568 Z M44.1841214,237.46932 C49.1879774,250.128648 48.5630894,261.314856 48.5630894,261.314856 C48.0807614,270.17496 45.6120974,277.725888 33.0929534,281.491848 C29.8212014,282.473136 21.8663534,283.82508 19.4570894,283.82508 C13.9257614,283.794192 10.6207454,282.29256 7.65074544,278.429184 C4.69975344,274.565808 5.04664944,269.828064 2.73717744,263.398608 C0.689065443,257.698584 0.00240144289,252.6282 8.45063592e-06,248.004504 C-0.00472655711,240.204096 1.98160944,233.660592 2.79895344,227.59704 C3.10545744,225.337464 3.22900944,222.992352 3.22900944,220.388256 C3.22188144,211.791888 1.88894544,200.36808 0.929041443,179.687376 C0.757969443,175.976064 0.681937443,172.447704 0.677185443,169.078536 C0.677185443,148.029552 3.68044944,132.979968 5.31276144,117.759312 C6.02556144,111.127896 6.38196144,104.489352 6.38196144,96.997824 C6.38196144,84.516696 5.39592144,69.678576 3.43572144,48.487032 C2.58986544,39.365568 2.24772144,30.099168 2.24772144,21.103632 C2.24772144,13.821192 2.47106544,6.714576 2.83459344,-4.26325641e-13 M48.5630894,261.314856 C48.5868494,267.064776 52.5951614,271.320192 53.9732414,272.838456 C57.5206094,276.632928 62.3700254,278.429184 67.0151054,278.429184 C70.8024494,278.426808 74.4923774,277.238808 77.2818014,274.881816 C80.0712254,272.534328 81.9007454,268.967952 81.8912414,264.534336 C81.8912414,264.284856 81.8864894,264.023496 81.8722334,263.769264 C81.8532254,263.374848 81.8152094,263.018448 81.7890734,262.64304 C83.1932894,262.925784 85.2699134,263.241792 87.5865134,263.241792 L87.7076894,263.241792 C92.2387214,263.241792 97.9910174,261.896976 100.587985,256.182696 C101.937553,253.200816 102.427009,250.297344 102.427009,247.617216 C102.427009,246.963816 102.334345,243.877392 101.336425,240.764832 C102.619465,241.788888 104.292169,243.499608 108.131785,244.000944 L109.521745,244.000944 C110.897449,244.000944 112.940809,243.632664 114.432937,242.689392 C120.441841,238.735728 124.355113,230.467248 122.539849,220.354992 C122.178697,218.347272 120.886153,212.466672 120.886153,212.362128 C124.027225,213.3648 131.031673,217.335096 134.484001,209.092752 C137.546665,201.800808 139.262137,195.73488 139.257405,188.36928 C139.257405,185.831712 139.057801,183.139704 138.646753,180.200592 C137.339953,170.805888 136.696057,164.899152 136.698433,160.957368 C136.698433,160.168536 136.726945,159.458112 136.774465,158.818968 C136.881385,157.38624 137.102353,153.75096 137.102353,148.870656 C137.097601,139.525848 136.313521,125.657136 132.317089,114.078888 C130.287985,108.21492 128.439457,102.301056 126.878425,96.705576" id="Stroke-11" stroke="#F6BEA0" stroke-width="1.54"></path>
                    <path d="M71.9916374,233.641584 C71.9916374,248.142312 81.7118534,255.377232 81.7902614,262.64304" id="Stroke-13" stroke="#F6BEA0" stroke-width="1.54"></path>
                    <path d="M96.134411,220.896245 C95.573675,230.635469 101.777411,237.808613 102.335771,245.699309" id="Stroke-15" stroke="#F6BEA0" stroke-width="1.54"></path>
                    <path d="M115.605256,189.648518 C113.374192,205.00223 122.222416,208.409414 122.538424,220.355942" id="Stroke-17" stroke="#F6BEA0" stroke-width="1.54"></path>
                    <polygon id="L" fill="#F7BFA0" fill-rule="nonzero" transform="translate(66.362000, 156.789000) rotate(135.000000) translate(-66.362000, -156.789000) " points="75.151 173.427 75.151 172.487 58.607 172.487 58.607 140.151 57.573 140.151 57.573 173.427"></polygon>
                </g>
            </g>
        </g>
    </g>
</svg>