<svg xmlns="http://www.w3.org/2000/svg" width="101" height="170" viewBox="0 0 101 170">
    <g fill="none" fill-rule="evenodd">
        <path stroke="#F6BEA0" stroke-linejoin="round" stroke-width="1.5" d="M.753 168.088c.074-35.274.147-58.84.216-70.7.076-12.624.242-25.252 3.324-37.58C7.273 47.874 12.644 38.475 20.753 32M79.753 33c1.563 1.592 3.022 3.382 4.366 5.392 6.843 10.23 10.424 21.64 11.357 33.822.795 10.404.999 20.853 1.449 31.28.612 14.168 1.219 50.424 1.828 64.594" transform="translate(.247 1)"/>
        <path fill="#FEFEFE" d="M20.767 49.245c0-4.188.106-8.376.16-12.559.065-4.622.108-9.245.36-13.854.192-3.482.668-6.945 1.073-10.409.165-1.395.476-2.77.732-4.152.458-2.461 1.844-4.028 4.016-4.953 2.36-1.008 4.803-1.62 7.292-2.061C42.112-.107 49.89-.123 57.67.119c2.558.08 5.122.326 7.667.614 3.334.377 6.66.84 9.835 2.084.31.12.608.264.907.41.997.484 1.636 1.216 1.747 2.467.206 2.323.505 4.635.745 6.958.322 3.15.641 6.303.927 9.455.175 1.96.3 3.929.425 5.892.186 2.97.371 5.938.529 8.908.139 2.577.242 5.16.363 7.739.273 5.946.598 11.891.806 17.84.134 3.871.137 7.751.13 11.626-.003 2.166-.096 4.332-.246 6.49-.242 3.592-.574 7.166-1.296 10.701-.49 2.41-1.09 4.766-1.948 7.048-1.283 3.412-3.444 6.036-6.243 8.15-4.238 3.202-8.806 5.614-13.908 6.73-8.194 1.795-15.9.48-23.035-4.281-2.393-1.596-4.658-3.356-6.606-5.558-2.974-3.358-4.61-7.428-5.48-11.88-.774-3.955-1.188-7.963-1.374-11.997-.183-4-.402-8.001-.505-12.007-.16-6.087-.234-12.176-.343-18.263.052-.002-.051 0 0 0" transform="translate(.247 1)"/>
        <path stroke="#F6BEA0" stroke-linejoin="round" stroke-width="1.5" d="M20.767 49.245c0-4.188.106-8.376.16-12.559.065-4.622.108-9.245.36-13.854.192-3.482.668-6.945 1.073-10.409.165-1.395.476-2.77.732-4.152.458-2.461 1.844-4.028 4.016-4.953 2.36-1.008 4.803-1.62 7.292-2.061C42.112-.107 49.89-.123 57.67.119c2.558.08 5.122.326 7.667.614 3.334.377 6.66.84 9.835 2.084.31.12.608.264.907.41.997.484 1.636 1.216 1.747 2.467.206 2.323.505 4.635.745 6.958.322 3.15.641 6.303.927 9.455.175 1.96.3 3.929.425 5.892.186 2.97.371 5.938.529 8.908.139 2.577.242 5.16.363 7.739.273 5.946.598 11.891.806 17.84.134 3.871.137 7.751.13 11.626-.003 2.166-.096 4.332-.246 6.49-.242 3.592-.574 7.166-1.296 10.701-.49 2.41-1.09 4.766-1.948 7.048-1.283 3.412-3.444 6.036-6.243 8.15-4.238 3.202-8.806 5.614-13.908 6.73-8.194 1.795-15.9.48-23.035-4.281-2.393-1.596-4.658-3.356-6.606-5.558-2.974-3.358-4.61-7.428-5.48-11.88-.774-3.955-1.188-7.963-1.374-11.997-.183-4-.402-8.001-.505-12.007-.16-6.087-.234-12.176-.343-18.263.052-.002-.051 0 0 0z" transform="translate(.247 1)"/>
        <path fill="#F7BFA0" d="M27.764 51.546c0-3.823.085-7.647.128-11.47.046-4.222.13-15.01.328-19.224.148-3.176.522-6.34.842-9.504.13-1.275.373-2.533.576-3.795.36-2.247 1.453-3.675 3.163-4.521 1.852-.92 3.777-1.48 5.737-1.884 6.068-1.247 12.19-1.26 18.308-1.04 2.014.074 4.028.297 6.037.562 2.62.345 5.238.77 7.739 1.902.24.11.476.243.708.373.786.445 1.288 1.117 1.377 2.254.161 2.124.4 4.237.586 6.358.254 2.878.448 6.152.645 10.653.08 1.794.394 8.119.491 9.916.149 2.711.174 5.438.3 8.152.11 2.356.192 4.713.284 7.067.217 5.43.47 10.861.637 16.294.105 3.537.108 7.082.1 10.622-.003 1.975-.074 3.956-.19 5.926-.191 3.28-.276 8.955-.946 14.044-.295 2.213.258 14.769-21.955 14.769-22.415 0-22.18-11.38-22.727-15.467-.668-4.991-1.354-10.652-1.5-14.34-.146-3.652-.317-7.306-.399-10.964-.123-5.558-.184-11.122-.269-16.683.041 0-.04 0 0 0" transform="translate(.247 1)"/>
        <path stroke="#2D4349" stroke-linejoin="round" stroke-width="1.5" d="M27.764 51.546c0-3.823.085-7.647.128-11.47.046-4.222.13-15.01.328-19.224.148-3.176.522-6.34.842-9.504.13-1.275.373-2.533.576-3.795.36-2.247 1.453-3.675 3.163-4.521 1.852-.92 3.777-1.48 5.737-1.884 6.068-1.247 12.19-1.26 18.308-1.04 2.014.074 4.028.297 6.037.562 2.62.345 5.238.77 7.739 1.902.24.11.476.243.708.373.786.445 1.288 1.117 1.377 2.254.161 2.124.4 4.237.586 6.358.254 2.878.448 6.152.645 10.653.08 1.794.394 8.119.491 9.916.149 2.711.174 5.438.3 8.152.11 2.356.192 4.713.284 7.067.217 5.43.47 10.861.637 16.294.105 3.537.108 7.082.1 10.622-.003 1.975-.074 3.956-.19 5.926-.191 3.28-.276 8.955-.946 14.044-.295 2.213.258 14.769-21.955 14.769-22.415 0-22.18-11.38-22.727-15.467-.668-4.991-1.354-10.652-1.5-14.34-.146-3.652-.317-7.306-.399-10.964-.123-5.558-.184-11.122-.269-16.683.041 0-.04 0 0 0z" transform="translate(.247 1)"/>
        <g stroke="#FFF">
            <path d="M6.253.011L6.253 84.465M0 6.253L6.253 0 12.505 6.253" transform="translate(.247 1) translate(45.753 12)"/>
            <path d="M0 84.718L6.253 78.465 12.505 84.718" transform="translate(.247 1) translate(45.753 12) matrix(1 0 0 -1 0 163.183)"/>
        </g>
    </g>
</svg>
