<svg xmlns="http://www.w3.org/2000/svg" width="117" height="199" viewBox="0 0 117 199">
    <g fill="none" fill-rule="evenodd">
        <path stroke="#F6BEA0" stroke-linejoin="round" stroke-width="1.758" d="M.882 196.978c.087-41.337.172-68.954.254-82.85.089-14.796.283-29.594 3.894-44.04C8.522 56.102 14.818 45.087 24.32 37.5M93.46 38.672c1.832 1.866 3.542 3.963 5.117 6.319 8.019 11.988 12.216 25.36 13.309 39.634.932 12.193 1.17 24.438 1.698 36.658.717 16.602 1.428 59.09 2.142 75.695" transform="translate(0 1)"/>
        <path fill="#FEFEFE" d="M24.337 57.71c0-4.909.124-9.817.187-14.719.076-5.416.127-10.833.423-16.235.223-4.08.782-8.139 1.256-12.197.193-1.635.558-3.246.857-4.866.538-2.885 2.162-4.721 4.708-5.805 2.766-1.18 5.628-1.897 8.545-2.415C49.35-.126 58.466-.144 67.58.139c2.999.093 6.003.382 8.986.72 3.907.442 7.805.984 11.525 2.442.363.141.713.31 1.063.481 1.169.566 1.917 1.425 2.047 2.89.242 2.723.592 5.433.873 8.155.377 3.691.752 7.386 1.087 11.08.205 2.297.35 4.604.498 6.904.218 3.481.435 6.959.62 10.44.162 3.02.283 6.045.425 9.068.32 6.968.7 13.935.945 20.906.157 4.537.16 9.084.15 13.625-.002 2.538-.11 5.076-.286 7.605-.284 4.21-.673 8.398-1.519 12.541-.573 2.824-1.277 5.585-2.282 8.26-1.504 3.998-4.037 7.072-7.317 9.55-4.966 3.752-10.32 6.579-16.298 7.886-9.602 2.104-18.633.563-26.994-5.016-2.805-1.87-5.46-3.933-7.742-6.513-3.484-3.936-5.402-8.705-6.422-13.923-.906-4.634-1.392-9.331-1.61-14.058-.214-4.688-.47-9.377-.592-14.07-.187-7.134-.274-14.27-.401-21.403.06-.003-.06 0 0 0" transform="translate(0 1)"/>
        <path stroke="#F6BEA0" stroke-linejoin="round" stroke-width="1.758" d="M24.337 57.71c0-4.909.124-9.817.187-14.719.076-5.416.127-10.833.423-16.235.223-4.08.782-8.139 1.256-12.197.193-1.635.558-3.246.857-4.866.538-2.885 2.162-4.721 4.708-5.805 2.766-1.18 5.628-1.897 8.545-2.415C49.35-.126 58.466-.144 67.58.139c2.999.093 6.003.382 8.986.72 3.907.442 7.805.984 11.525 2.442.363.141.713.31 1.063.481 1.169.566 1.917 1.425 2.047 2.89.242 2.723.592 5.433.873 8.155.377 3.691.752 7.386 1.087 11.08.205 2.297.35 4.604.498 6.904.218 3.481.435 6.959.62 10.44.162 3.02.283 6.045.425 9.068.32 6.968.7 13.935.945 20.906.157 4.537.16 9.084.15 13.625-.002 2.538-.11 5.076-.286 7.605-.284 4.21-.673 8.398-1.519 12.541-.573 2.824-1.277 5.585-2.282 8.26-1.504 3.998-4.037 7.072-7.317 9.55-4.966 3.752-10.32 6.579-16.298 7.886-9.602 2.104-18.633.563-26.994-5.016-2.805-1.87-5.46-3.933-7.742-6.513-3.484-3.936-5.402-8.705-6.422-13.923-.906-4.634-1.392-9.331-1.61-14.058-.214-4.688-.47-9.377-.592-14.07-.187-7.134-.274-14.27-.401-21.403.06-.003-.06 0 0 0z" transform="translate(0 1)"/>
        <path fill="#F7BFA0" d="M32.536 60.406c0-4.48.1-8.961.15-13.442.054-4.947.153-17.589.384-22.528.174-3.722.612-7.43.987-11.138.153-1.494.438-2.968.675-4.447.422-2.633 1.703-4.307 3.706-5.298 2.172-1.078 4.427-1.734 6.724-2.207C52.272-.116 59.446-.131 66.616.126c2.36.088 4.72.348 7.075.66 3.07.404 6.139.901 9.069 2.228.281.129.557.284.83.437.921.521 1.509 1.309 1.614 2.642.189 2.488.468 4.965.686 7.45.297 3.373.525 7.21.756 12.484.093 2.102.462 9.515.576 11.62.174 3.178.204 6.373.35 9.554.13 2.761.226 5.523.334 8.28.255 6.365.552 12.73.746 19.096.123 4.145.126 8.3.117 12.447-.003 2.315-.087 4.637-.221 6.946-.225 3.842-.324 10.494-1.11 16.457-.345 2.593.303 17.307-25.728 17.307-26.268 0-25.992-13.336-26.633-18.125-.783-5.849-1.587-12.483-1.758-16.804-.17-4.28-.372-8.563-.468-12.849-.144-6.514-.216-13.034-.315-19.55.048 0-.048 0 0 0" transform="translate(0 1)"/>
        <path stroke="#2D4349" stroke-linejoin="round" stroke-width="1.758" d="M32.536 60.406c0-4.48.1-8.961.15-13.442.054-4.947.153-17.589.384-22.528.174-3.722.612-7.43.987-11.138.153-1.494.438-2.968.675-4.447.422-2.633 1.703-4.307 3.706-5.298 2.172-1.078 4.427-1.734 6.724-2.207C52.272-.116 59.446-.131 66.616.126c2.36.088 4.72.348 7.075.66 3.07.404 6.139.901 9.069 2.228.281.129.557.284.83.437.921.521 1.509 1.309 1.614 2.642.189 2.488.468 4.965.686 7.45.297 3.373.525 7.21.756 12.484.093 2.102.462 9.515.576 11.62.174 3.178.204 6.373.35 9.554.13 2.761.226 5.523.334 8.28.255 6.365.552 12.73.746 19.096.123 4.145.126 8.3.117 12.447-.003 2.315-.087 4.637-.221 6.946-.225 3.842-.324 10.494-1.11 16.457-.345 2.593.303 17.307-25.728 17.307-26.268 0-25.992-13.336-26.633-18.125-.783-5.849-1.587-12.483-1.758-16.804-.17-4.28-.372-8.563-.468-12.849-.144-6.514-.216-13.034-.315-19.55.048 0-.048 0 0 0z" transform="translate(0 1)"/>
    </g>
</svg>
