<svg xmlns="http://www.w3.org/2000/svg" xmlns:xlink="http://www.w3.org/1999/xlink" width="197" height="168"><defs><path id="a" d="M0 .581h196.273v165.825H0z"/><path id="c" d="M0 166.998h196.273V1.173H0z"/></defs><g fill="none" fill-rule="evenodd"><g transform="translate(0 .592)"><mask id="b" fill="#fff"><use xlink:href="#a"/></mask><path fill="#37444A" d="M1.172 165.235h193.929v-2.386c-.016 0-.028-.002-.03-.002l-3.284-.48-3.162-1.145-2.845-1.725-2.468-2.23-2.02-2.666-1.512-3.023-.93-3.312-.284-3.525.056-1.118.335-2.114.542-2.01 1.005-2.762.91-2.151.989-2.105 2.175-4.095 2.395-4.033 4.214-6.546 3.914-5.867v-2.55l-3.314-.485-3.162-1.141-2.845-1.728-2.468-2.23-2.02-2.668-1.512-3.023-.93-3.312-.284-3.523.056-1.118.335-2.116.542-2.011 1.005-2.759.91-2.154.989-2.102 2.175-4.095 2.395-4.033 4.214-6.549 3.914-5.866v-2.459l-3.314-.485-3.162-1.141-2.845-1.725-2.468-2.231-2.02-2.668-1.512-3.023-.93-3.312-.284-3.522.056-1.12.138-1.07c0-.011.003-.023.003-.032l.445-2.035.95-2.868 1.256-3.033.989-2.105 2.175-4.094 2.395-4.032 4.214-6.548 3.914-5.867V1.752H1.172v163.484zm194.515 1.172H.587a.587.587 0 01-.587-.586V1.165C0 .842.263.58.586.58h195.101c.323 0 .586.263.586.586v4.238c0 .213-.12.408-.302.508l-8 12.225-2.374 3.994-2.142 4.036-.97 2.065-1.561 3.862-.584 1.866-.42 1.929-.13 1.01-.055.999.263 3.335.872 3.096 1.41 2.829 1.892 2.491 2.304 2.084 2.655 1.61 2.942 1.062 3.166.452.115.59.075-.583.124.588.068-.586c.324 0 .652.263.652.586v3.321c0 .216-.12.41-.302.511l-8 12.225-2.374 3.994-2.142 4.036-.97 2.062-1.561 3.865-.584 1.866-.424 1.948-.18 1.987.262 3.335.872 3.099 1.41 2.829 1.892 2.489 2.304 2.086 2.655 1.607 2.942 1.062 3.166.455.115.59.075-.583.124.588.068-.586c.324 0 .652.26.652.586v3.413c0 .215-.12.41-.302.51l-8 12.22-2.374 3.997-2.142 4.034-.97 2.067-1.561 3.86-.584 1.868-.424 1.945-.18 1.992.262 3.336.872 3.096 1.41 2.826 1.892 2.494 2.304 2.081 2.655 1.61 2.942 1.064 3.166.45.115.593.075-.586.124.589.068-.586c.324 0 .652.265.652.586v3.539a.587.587 0 01-.586.586z" mask="url(#b)"/></g><mask id="d" fill="#fff"><use xlink:href="#c"/></mask><path fill="#37444A" d="M195.101 166.412h1.172V1.756h-1.172zm-8.649-18.145h2.66v-2.66h.91v2.66h2.66v.912h-2.66v2.657h-.91v-2.657h-2.66zm1.3-110.44h1.47c.22 0 .433-.017.647-.052.215-.035.405-.1.571-.192.17-.094.303-.23.404-.403.1-.176.152-.403.152-.682 0-.281-.052-.509-.152-.685a1.035 1.035 0 00-.404-.4 1.66 1.66 0 00-.571-.193 3.978 3.978 0 00-.647-.053h-1.47v2.66zm-1.12-3.64h2.906c.527 0 .963.073 1.306.216.344.142.614.325.81.548.2.223.338.471.415.748.078.274.118.541.118.799a2.128 2.128 0 01-.544 1.427 2.238 2.238 0 01-1.488.752l2.346 3.772h-1.4L189 38.806h-1.247v3.643h-1.12v-8.262zm.477 55.202h1.123v7.212h3.792v1.05h-4.915z" mask="url(#d)"/><path fill="#F3DBC9" d="M54.781 33.719l.059-.349.084-.347.087-.349.089-.347.098-.349.092-.347.138-.337.192-.324.19-.326.232-.304.23-.307.269-.282.272-.274.286-.26.302-.244.31-.229.314-.214.316-.208.331-.178.339-.158.343-.14.346-.122.35-.108.349-.091.356-.078.352-.065.354-.059.351-.049.352-.042.354-.035.351-.031.354-.028.352-.026.349-.023.354-.017.354.007.351.024.352.023.351.028.354.031.352.033.351.04.354.046.352.054.356.061.352.073.351.084.35.101.346.12.345.131.34.155.335.168.326.19.311.216.312.227.3.242.293.248.277.272.272.279.253.29.225.31.211.316.187.326.155.337.152.336.138.339.05.352.051.352.047.349.04.351.037.352.031.351.021.352-.009.352-.012.354-.017.351-.014.352-.018.354-.026.351-.026.352-.023.351-.031.354-.033.352-.035.351-.037.352-.04.351-.038.352-.049.352-.047.351-.049.352-.049.351-.054.352-.063.349-.061.349-.064.352-.063.349-.08.349-.079.347-.082.349-.085.347-.1.342-.104.345-.105.342-.124.338-.139.332-.138.333-.161.321-.181.314-.18.314-.225.286-.228.286-.251.263-.267.248-.286.23-.302.206-.309.185-.331.164-.328.139-.34.124-.349.098-.349.087-.347.073-.354.061-.349.056-.352.044-.351.038-.354.023-.352.012-.354.005h-1.408l-.352-.003-.354-.009-.354-.019-.349-.03-.352-.042-.356-.052-.347-.061-.358-.065-.345-.083-.344-.096-.342-.107-.338-.139-.33-.145-.315-.185-.309-.19-.288-.23-.281-.232-.247-.267-.25-.269-.211-.296-.204-.302-.185-.307-.16-.326-.154-.326-.141-.33-.12-.34-.117-.34-.112-.34-.092-.347-.089-.344-.089-.347-.082-.347-.07-.351-.07-.35-.073-.347-.059-.351-.056-.352-.058-.349-.054-.351-.052-.352-.044-.352-.045-.351-.045-.352-.044-.351-.038-.352-.032-.351-.033-.352-.033-.354-.028-.351-.026-.352-.023-.352-.021-.351-.017-.354-.016-.352-.012-.351-.009-.352-.007-.354v-.351z" mask="url(#d)"/><path fill="#37444A" d="M55.367 33.769l-.002.307.953 9.016.952 2.927.705 1.142.957.879 1.148.576 2.625.495 2.414.028 2.696-.298 1.553-.567 1.025-.771.644-.767 1.135-2.789 1.155-9.323-.27-2.363-.963-1.699-1.286-1.22-1.5-.88-2.3-.581-2.742-.223-4.069.525-1.582.654-1.654 1.327-.678.83-.454.862-.462 1.913zm9.4 16.542l-3.984-.29-1.83-.61-1.327-.919-1.026-1.259-.696-1.392-1.278-5.71-.433-6.055.002-.359c0-.033.002-.066.01-.096l.517-2.14.589-1.134 1.085-1.282 1.624-1.233 1.486-.661 2.95-.558 1.791-.124 4.03.431 1.483.462 1.085.553 1.608 1.291 1.036 1.285.689 1.448.32 2.644-.866 8.226-1.071 3.547-.556 1.014-1.078 1.221-.998.694-1.095.474-2.597.487-1.47.045z" mask="url(#d)"/><path fill="#F3DBC9" d="M15.647 88.171l-.014-.304-.012-.303-.01-.304-.007-.305-.002-.305v-.304l.005-.305.03-.302.061-.303.059-.302.065-.302.059-.305.073-.302.061-.303.075-.302.133-.298.131-.293.143-.295.164-.288.172-.289.18-.281.199-.276.214-.268.22-.265.227-.255.242-.244.243-.236.253-.228.263-.206.279-.188.283-.164.293-.145.3-.124.303-.101.304-.087.305-.07.303-.059.304-.049.303-.04.304-.035.305-.035.305-.014.304.033.305.033.305.039.304.047.303.052.302.066.305.079.304.094.3.11.296.138.288.155.284.178.269.199.263.216.241.232.241.244.235.251.222.26.214.269.206.27.188.281.196.279.146.293.159.291.145.295.111.298.11.297.103.3.094.3.053.305.038.305.035.302.038.305.039.304.017.303.023.304.007.303-.007.304-.007.305-.009.305-.014.304-.014.305-.019.305-.021.302-.019.305-.021.305-.028.304-.03.305-.026.302-.031.305-.037.305-.035.304-.036.305-.037.302-.042.305-.045.302-.044.305-.045.302-.051.305-.054.305-.054.302-.056.303-.066.302-.063.302-.066.303-.075.3-.08.3-.082.3-.082.297-.103.295-.098.298-.106.293-.122.288-.117.291-.133.284-.143.281-.148.276-.169.272-.169.268-.187.255-.197.253-.216.239-.222.232-.242.218-.253.202-.26.19-.279.168-.288.146-.288.126-.305.103-.302.08-.303.059-.304.032-.303.005h-.911l-.305-.002-.305-.017-.302-.049-.307-.07-.3-.092-.293-.117-.293-.136-.279-.157-.272-.183-.253-.196-.251-.209-.227-.227-.221-.235-.206-.248-.19-.253-.178-.265-.171-.267-.152-.277-.15-.276-.134-.286-.129-.286-.119-.289-.103-.293-.113-.293-.096-.297-.087-.298-.089-.298-.077-.3-.077-.302-.071-.3-.068-.302-.061-.303-.056-.302-.061-.302-.054-.305-.049-.302-.047-.305-.049-.302-.042-.305-.042-.305-.04-.302-.04-.305-.035-.304-.033-.305-.033-.302-.033-.305-.025-.305-.029-.305-.023-.302-.023-.305-.019-.304-.019-.305z" mask="url(#d)"/><path fill="#37444A" d="M16.233 88.142l1.275 8.35 1.099 2.414.942 1.128 1.181.764 1.046.281 1.432.01 1.059-.158 1.008-.478 1.06-.965 1.054-1.753 1.399-5.83.384-5.095-.316-2.547-.738-1.683-1.627-1.931-.975-.657-1.352-.428-1.458-.195-2.489.464-1.017.55-1.324 1.323-.999 1.584-.663 2.562-.026.799.045 1.49zm6.67 14.118l-1.613-.072-1.021-.314-.957-.532-1.054-.954-1.135-1.709-1.282-4.01-.78-6.466v-.005l-.045-1.852.288-1.929.514-1.626.918-1.53 1.484-1.592.926-.63 1.333-.514 2.26-.323 2.301.365 1.318.549.911.658 1.453 1.622.893 1.53.523 1.665.206 2.215-1.068 8.958-1.109 3.049-.935 1.422-1.306 1.193-.97.507-1.031.279-1.022.046z" mask="url(#d)"/><path fill="#F3DBC9" d="M39.254 134.77l-.012.443-.009.443-.015.445-.014.443-.016.445-.019.443-.021.445-.023.443-.021.446-.029.443-.023.443-.033.443-.03.445-.031.443-.033.445-.039.443-.04.443-.035.443-.047.445-.047.443-.052.443-.054.443-.063.441-.063.443-.07.441-.087.438-.087.438-.11.436-.12.434-.15.424-.164.417-.22.396-.248.377-.298.347-.361.277-.391.22-.415.171-.431.127-.436.089-.441.068-.441.059-.445.037-.443.035-.445.024-.441.018-.445.01-.443.009-.446.002H23.806l-.443-.007-.445-.007-.443-.016-.446-.019-.44-.03-.446-.035-.44-.05-.443-.061-.441-.075-.433-.11-.425-.145-.405-.195-.38-.246-.328-.314-.272-.363-.234-.387-.195-.408-.152-.421-.143-.427-.108-.436-.098-.436-.089-.438-.073-.441-.073-.443-.058-.44-.059-.443-.054-.443-.051-.443-.04-.443-.047-.446-.042-.442-.035-.443-.035-.443-.036-.443-.03-.446-.028-.443-.031-.445-.025-.443-.024-.445-.023-.443-.021-.443-.019-.446-.019-.442-.016-.443-.014-.446-.014-.443-.01-.445-.007-.443-.005-.443-.002-.445.002-.443.066-.441.08-.438.077-.441.084-.438.09-.441.091-.438.094-.441.197-.412.203-.415.214-.408.26-.394.253-.389.302-.363.312-.356.326-.338.347-.321.358-.304.368-.289.38-.272.391-.246.406-.22.417-.197.422-.171.429-.152.433-.134.436-.11.443-.094.439-.084.443-.07.44-.064.446-.054.44-.042.445-.04.443-.035.443-.035.443-.03.446-.017.443.031.445.032.441.033.443.038.445.044.441.047.442.056.443.066.441.08.441.086.438.104.436.117.431.145.427.162.419.185.41.209.401.232.389.255.371.284.361.3.351.314.338.325.316.352.309.356.284.375.255.389.237.401.227.406.165.426.154.427.167.426.11.434.047.443.054.443.042.443.047.443.028.443.033.443.014.443z" mask="url(#d)"/><path fill="#37444A" d="M27.532 124.674l-4.703.553-1.622.539-1.128.616-1.359 1.116-.893 1.003-1.045 1.894-.535 2.918.889 12.672.564 2.058.378.694.506.553.63.335 1.142.281 10.551.216 3.898-.253.788-.2.689-.34.501-.494.401-.675.57-1.978.904-10.985.017-.881-.26-3.028-.563-1.566-.921-1.425-1.24-1.266-1.423-1-1.582-.652-3.393-.57-1.76-.135zm3.378 26.62l-10.732-.23-.935-.194-.938-.38-.447-.286-.413-.382-.605-.872-.543-1.373-.82-5.424-.397-8.484.078-.977.52-2.67.668-1.385 1.204-1.615 1.482-1.326 1.256-.793 1.807-.698 3.654-.581 1.805-.12 4.56.525 1.824.553 1.317.666 1.203.895 1.382 1.418 1.07 1.664.655 1.854.282 3.227-.007.474-.847 11.168-.578 2.273-.425.905-.616.818-.443.36-.95.47-1.434.32-3.637.2z" mask="url(#d)"/><path fill="#F3DBC9" d="M39.254 33.786l-.012.443-.009.445-.015.443-.014.443-.016.445-.019.443-.021.445-.023.443-.021.446-.029.443-.023.443-.033.443-.03.445-.031.443-.033.445-.039.443-.04.443-.035.445-.047.443-.047.443-.052.443-.054.443-.063.441-.063.443-.07.441-.087.438-.087.438-.11.436-.12.434-.15.424-.164.417-.22.396-.248.378-.298.346-.361.277-.391.22-.415.171-.431.127-.436.089-.441.07-.441.057-.445.037-.443.035-.445.024-.441.018-.445.01-.443.009-.446.002H23.806l-.443-.007-.445-.007-.443-.016-.446-.019-.44-.03-.446-.035-.44-.05-.443-.061-.441-.075-.433-.107-.425-.148-.405-.192-.38-.249-.328-.314-.272-.363-.234-.387-.195-.405-.152-.424-.143-.427-.108-.436-.098-.436-.089-.438-.073-.441-.073-.443-.058-.44-.059-.443-.054-.443-.051-.443-.04-.443-.047-.446-.042-.442-.035-.443-.035-.443-.036-.443-.03-.446-.028-.443-.031-.445-.025-.443-.024-.445-.023-.443-.021-.443-.019-.445-.019-.443-.016-.443-.014-.446-.014-.443-.01-.445-.007-.443-.005-.443-.002-.445.002-.443.066-.441.08-.438.077-.441.084-.438.09-.441.091-.438.094-.441.197-.412.203-.415.214-.408.26-.394.253-.389.302-.363.312-.356.326-.338.347-.321.358-.304.368-.286.38-.275.391-.246.406-.22.417-.197.422-.171.429-.152.433-.134.436-.11.443-.094.439-.084.443-.07.44-.064.446-.054.44-.042.445-.04.443-.035.443-.035.443-.03.446-.017.443.031.445.032.441.036.443.035.445.044.441.047.442.056.443.068.441.078.441.086.438.104.436.117.431.145.427.162.419.185.41.209.401.232.389.255.371.284.361.3.351.314.338.325.316.352.309.356.284.375.255.389.237.401.227.406.165.426.154.427.167.426.11.434.047.443.054.443.042.443.047.443.028.443.033.443.014.443z" mask="url(#d)"/><path fill="#37444A" d="M27.535 23.69l-4.28.46-1.65.469-1.526.778-1.359 1.118-.895 1.003-1.043 1.892-.535 2.92.889 12.673.564 2.055.378.694.506.553.63.337 1.144.282 10.55.213 3.897-.253.788-.2.689-.337.501-.497.401-.672.57-1.98.904-10.984.017-.883-.26-3.026-.563-1.566-.921-1.425-1.24-1.268-1.423-.998-1.582-.654-3.396-.57-1.755-.133zm3.375 26.62l-10.73-.228-.937-.196-.938-.378-.447-.286-.413-.384-.602-.867-.546-1.378-.82-5.424-.397-8.482.078-.977.52-2.672.668-1.383 1.202-1.615 1.484-1.326 1.256-.792 1.807-.701 3.654-.581 1.805-.118 4.56.523 1.824.553 1.317.668 1.203.893 1.382 1.418 1.071 1.666.654 1.852.282 3.227-.007.474v.002l-.847 11.166-.578 2.276-.425.902-.616.82-.443.359-.95.469-1.434.32-3.637.2z" mask="url(#d)"/><path fill="#F3DBC9" d="M54.303 101.513l-.373.068-.375.054-.375.035-.377.007H51.675l-.375-.005-.375-.021-.377-.049-.375-.061-.37-.077-.373-.092-.363-.11-.366-.126-.356-.148-.347-.166-.333-.207-.312-.229-.297-.251-.263-.288-.248-.3-.223-.319-.204-.328-.18-.34-.178-.345-.148-.354-.143-.356-.134-.358-.117-.366-.117-.363-.108-.366-.096-.37-.094-.371-.093-.37-.085-.37-.075-.373-.077-.373-.08-.37-.072-.375-.068-.373-.064-.375-.068-.372-.065-.375-.059-.375-.058-.373-.054-.375-.059-.375-.054-.375-.051-.375-.047-.372-.05-.378-.044-.375-.047-.375-.04-.375-.042-.375-.037-.375-.036-.375-.037-.375-.031-.375-.028-.377-.028-.375-.023-.375-.019-.378-.019-.375-.016-.375-.012-.375-.007-.375-.005-.377-.002-.375.005-.375.072-.37.099-.373.096-.372.108-.371.108-.372.15-.361.206-.345.211-.342.253-.326.267-.309.288-.298.31-.274.318-.26.331-.239.342-.225.347-.204.359-.178.365-.155.373-.131.372-.115.375-.094.38-.077.38-.066.375-.056.377-.047.378-.038.375-.032.377-.031.375-.026.38-.023.375-.009.377.023.375.026.375.026.377.032.378.036.377.042.377.054.378.061.377.072.377.087.375.105.373.125.368.145.361.169.354.19.342.22.33.237.326.25.314.27.298.286.279.305.26.318.23.335.211.345.164.359.171.358.11.366.052.377.051.375.047.375.035.378.035.375.038.377v.375l-.012.375-.014.375-.016.375-.019.377-.021.375-.028.375-.031.375-.03.375-.031.378-.035.375-.037.375-.043.375-.042.375-.042.375-.045.375-.046.377-.052.373-.049.375-.054.375-.052.375-.058.375-.057.375-.06.372-.064.375-.061.375-.065.373-.073.373-.07.375-.071.372-.075.373-.084.372-.084.371-.087.37-.087.37-.103.368-.105.368-.103.368-.125.364-.126.358-.132.361-.154.352-.164.349-.176.344-.202.331-.208.326-.239.304-.26.291-.277.272-.312.237-.325.213-.343.185-.354.152-.353.136-.373.115-.368.099z" mask="url(#d)"/><path fill="#37444A" d="M52.243 75.92l-3.617.396-1.38.459-1.264.783-1.08 1.047-.612.93-.56 2.033 1.554 13.244 1.017 3.179.942 1.48.77.671.91.45 1.719.434 2.16.063 1.384-.15 1.704-.55.86-.566.841-1.04.769-1.62 1.533-6.933.691-7.797-.342-2.45-.699-1.235-1.047-1.068-1.25-.825-1.359-.497-3.644-.439zm.185 26.34l-2.349-.14-1.57-.433-.769-.34-1.061-.764-.835-1.02-.919-1.84-1.249-4.91-1.11-10.98.004-.385.506-2.013.633-1.195.888-1.034 1.395-1.076 1.167-.588 2.006-.52 3.101-.272 3.912.473 1.594.584 1.464.966.966.93.766 1.09.507 1.216.28 2.799-1.363 11.362-1.06 3.753-.96 1.816-.86.97-1.112.734-1.572.553-.396.09a.057.057 0 00-.024.004l-1.98.17z" mask="url(#d)"/><path fill="#F3DBC9" d="M73.904 135.975l-.012.351-.016.354-.016.352-.017.351-.026.352-.025.351-.026.354-.028.352-.033.351-.038.352-.035.351-.04.352-.037.354-.049.351-.047.35-.049.351-.05.352-.054.351-.063.352-.063.349-.061.349-.063.352-.08.347-.08.349-.082.347-.084.347-.101.344-.103.342-.106.345-.126.335-.136.333-.138.333-.162.321-.181.314-.18.316-.225.286-.227.286-.251.26-.267.251-.286.228-.303.206-.309.185-.33.164-.329.138-.339.127-.35.096-.349.089-.347.073-.354.061-.349.053-.351.047-.352.035-.354.024-.354.014-.351.002-.352.003h-1.059l-.349-.003-.354-.009-.354-.021-.349-.031-.354-.039-.354-.052-.347-.061-.359-.066-.344-.082-.347-.098-.34-.108-.338-.138-.33-.145-.314-.186-.309-.189-.289-.228-.281-.232-.248-.269-.249-.268-.211-.297-.204-.3-.185-.31-.159-.325-.157-.324-.139-.333-.119-.337-.117-.34-.115-.34-.089-.347-.089-.347-.089-.344-.082-.349-.071-.349-.072-.35-.071-.349-.058-.349-.059-.352-.056-.351-.056-.352-.05-.349-.046-.352-.043-.351-.046-.354-.043-.352-.037-.349-.033-.354-.033-.351-.033-.352-.028-.354-.025-.349-.024-.354-.021-.352-.019-.351-.014-.354-.012-.352-.009-.351-.007-.352v-.354l.002-.349.059-.349.082-.349.087-.347.091-.349.099-.347.091-.349.138-.336.192-.325.19-.324.232-.307.23-.304.27-.284.271-.274.286-.258.303-.244.309-.23.314-.215.314-.206.333-.179.34-.159.342-.138.345-.124.351-.106.349-.094.357-.075.351-.068.352-.056.354-.049.351-.045.354-.035.352-.03.351-.028.354-.024.349-.026.354-.016.354.009.349.021.354.026.352.026.354.03.351.036.352.037.354.047.351.054.354.063.354.073.352.084.349.101.347.117.344.134.34.152.335.171.324.19.314.216.312.227.3.239.293.251.276.269.272.282.253.29.223.31.213.314.188.326.154.337.153.335.138.34.049.352.052.351.047.352.039.351.036.352.032.351.021.352z" mask="url(#d)"/><path fill="#37444A" d="M64.266 128.642l-4.069.525-1.582.657-1.652 1.321-.68.835-.455.858-.47 1.964 1.04 9.604 1.029 2.916 1 1.3 1.06.73 1.87.567 3.762.204 2.695-.3 1.554-.563 1.027-.773.773-1.013.797-1.86 1.219-7.224.143-2.782-.27-2.363-.963-1.701-1.287-1.217-1.5-.878-2.299-.582-2.742-.225zm.501 22.653l-3.984-.293-1.83-.61-1.327-.916-1.027-1.261-.693-1.39-1.28-5.712-.434-6.056.07-.799.627-2.206.914-1.387 1.558-1.406 1.4-.818 1.87-.581 3.618-.39 4.027.434 1.484.462 1.085.553 1.608 1.291 1.038 1.287.687 1.446.32 2.646-.009.401v.005l-1.188 9.243-.921 2.48-.874 1.299-.9.834-1.046.621-1.854.572-2.939.25z" mask="url(#d)"/><path fill="#F3DBC9" d="M87.161 101.241l-.378.096-.372.086-.375.073-.385.061-.379.052-.378.037-.379.026-.38.005h-1.137l-.379-.007-.382-.031-.378-.042-.379-.052-.378-.065-.377-.075-.375-.087-.373-.096-.37-.12-.361-.136-.356-.157-.347-.192-.324-.213-.314-.237-.283-.269-.277-.279-.244-.31-.234-.311-.206-.331-.192-.34-.186-.34-.152-.358-.152-.354-.143-.361-.12-.366-.119-.368-.117-.365-.104-.373-.096-.37-.096-.375-.096-.37-.082-.375-.082-.378-.08-.375-.079-.375-.071-.375-.07-.377-.068-.377-.066-.375-.068-.38-.056-.377-.058-.378-.059-.377-.054-.378-.056-.377-.047-.377-.049-.38-.047-.377-.045-.38-.042-.377-.04-.378-.037-.379-.033-.378-.035-.379-.031-.378-.023-.379-.023-.378-.022-.379-.016-.378-.014-.379.07-.375.082-.375.089-.375.101-.375.094-.375.091-.375.164-.359.207-.349.204-.347.248-.328.244-.326.286-.3.293-.291.307-.276.318-.258.331-.239.34-.227.34-.211.358-.183.363-.162.368-.143.375-.122.378-.11.377-.087.38-.075.379-.065.378-.057.38-.049.379-.04.38-.035.382-.03.377-.028.38-.026.38-.021.379.002.38.024.38.025.377.029.38.032.382.038.379.04.38.049.38.058.377.068.38.078.377.091.375.11.373.129.37.148.359.166.358.188.345.211.333.232.325.248.317.263.302.276.293.291.277.309.26.317.225.34.225.339.162.361.166.361.157.364.089.372.042.38.038.38.042.377.033.38.03.379.028.38-.007.377-.025.38-.029.38-.028.377-.032.377-.036.38-.039.377-.04.38-.042.377-.045.38-.045.377-.051.378-.052.377-.054.38-.051.377-.059.378-.061.377-.061.377-.065.378-.064.377-.067.377-.075.375-.073.378-.075.375-.08.375-.087.375-.089.372-.086.375-.096.373-.108.37-.106.371-.103.37-.129.365-.133.364-.132.361-.157.356-.168.349-.169.349-.204.331-.213.328-.235.314-.253.295-.272.284-.295.258-.316.234-.329.213-.346.176-.357.157-.363.134z" mask="url(#d)"/><path fill="#37444A" d="M83.8 76.968l-4.026.415-1.734.586-1.266.801-1.12 1.053-.823 1.242-.473 1.699-.143.715 1.828 12.18.942 2.386.818 1.21 1.067.874 1.284.532 2.51.424 1.472.005 2.16-.244 1.719-.54.879-.557.724-.75.91-1.547 1.256-4.291 1.162-8.953-.286-2.503-.85-1.578-1.337-1.329-1.258-.808-1.72-.593-3.694-.43zm-.046 25.294l-2.75-.204-1.966-.544-.778-.382-.708-.5-.909-.958-.872-1.404-1.251-3.794-1.468-11.082.542-2.407.637-1.211 1.165-1.367 1.38-1.069 1.151-.604 2.004-.577 3.91-.36 4.305.548 1.59.593 1.466.942 1.27 1.216.762 1.062.535 1.179.347 2.836-1.184 9.225-1.174 4.155-.97 1.83-.825.98-1.041.793-1.188.525-.408.122a.078.078 0 01-.021.004l-2.752.448-.8.005z" mask="url(#d)"/><path fill="#F3DBC9" d="M108.074 133.943l-.031.378-.03.377-.038.375-.037.38-.042.375-.045.377-.044.377-.05.378-.049.375-.056.377-.056.377-.059.375-.056.378-.061.375-.068.377-.068.375-.068.375-.07.375-.075.375-.078.373-.082.375-.077.375-.087.372-.093.373-.094.37-.096.373-.101.37-.115.366-.115.368-.117.368-.131.361-.143.358-.141.359-.159.351-.178.345-.181.345-.204.328-.22.323-.23.312-.26.293-.262.288-.298.258-.302.248-.324.218-.34.2-.344.175-.359.15-.363.132-.368.114-.373.096-.377.085-.375.07-.38.054-.37.038-.389.023-.377.007h-1.135l-.377-.002-.382-.014-.389-.031-.366-.047-.382-.063-.373-.075-.37-.091-.377-.104-.363-.124-.359-.14-.356-.157-.345-.195-.328-.204-.314-.237-.3-.25-.279-.277-.262-.286-.244-.307-.235-.309-.199-.335-.197-.333-.18-.342-.162-.354-.157-.352-.145-.358-.129-.364-.127-.363-.124-.363-.105-.371-.101-.37-.106-.37-.1-.371-.089-.37-.087-.375-.085-.373-.086-.372-.075-.375-.075-.375-.073-.375-.073-.375-.065-.375-.066-.378-.063-.375-.063-.377-.061-.375-.054-.377-.054-.378-.052-.375-.051-.377-.047-.377-.045-.375-.042-.378-.04-.377-.04-.377-.032-.378-.033-.377-.028-.377-.021-.378-.021-.375-.019-.377.07-.375.084-.373.097-.375.1-.372.099-.373.096-.375.192-.349.206-.345.221-.337.25-.324.265-.311.291-.293.307-.277.312-.262.323-.249.342-.225.338-.215.354-.195.358-.173.366-.15.37-.134.378-.115.372-.101.38-.082.377-.07.38-.063.377-.054.38-.047.377-.038.382-.035.378-.028.377-.026.38-.025.377-.024.38-.012.377.022.377.023.382.026.378.03.379.031.378.035.377.042.38.049.377.059.38.065.38.078.377.089.375.108.373.124.365.143.366.162.356.18.347.204.337.223.331.239.321.255.307.267.3.284.281.302.265.312.234.333.228.335.164.359.171.361.166.358.068.375.043.377.044.38.038.377.025.378.031.38.026.377z" mask="url(#d)"/><path fill="#37444A" d="M97.962 126.409l-4.383.492-1.72.63-1.545 1.067-1.024 1.11-.567.957-.486 2.07 1.939 11.734.98 2.386 1.05 1.449.815.694 1.247.614 2.09.468 2.21.043 2.143-.263 1.366-.462 1.163-.754.75-.771 1.078-1.861 1.774-6.896.673-5.59-.267-2.498-.865-1.519-1.36-1.293-1.272-.783-1.728-.582-4.061-.442zm.23 24.885l-2.747-.164-1.965-.567-1.125-.602-.993-.846-.797-.97-1.116-2.206-1.788-7.563-.588-5.721.567-2.417.696-1.207.877-1.017 1.73-1.313 1.562-.707 2.77-.563 2.703-.192 4.695.562 1.582.572 1.474.907 1.298 1.186.78 1.05.552 1.163.323 2.847-.026.455v.007l-1.73 10.242-1.321 3.336-.994 1.375-.935.858-1.106.663-1.986.626-2.393.206z" mask="url(#d)"/><path fill="#F3DBC9" d="M108.074 32.959l-.031.378-.03.377-.038.375-.037.38-.042.375-.045.377-.044.378-.05.377-.049.375-.056.377-.056.378-.059.375-.056.377-.061.375-.068.377-.068.375-.068.375-.07.375-.075.375-.078.375-.082.373-.077.375-.087.373-.093.372-.094.371-.096.372-.101.37-.115.366-.115.368-.117.368-.131.361-.143.359-.141.358-.159.352-.178.344-.181.345-.204.328-.22.323-.23.314-.26.291-.262.288-.298.258-.302.249-.324.218-.34.199-.344.176-.359.15-.363.131-.368.115-.373.096-.377.084-.375.07-.38.054-.37.038-.389.023-.377.007h-1.135l-.377-.002-.382-.014-.389-.031-.366-.046-.382-.064-.373-.075-.37-.091-.377-.103-.363-.124-.359-.141-.356-.157-.345-.195-.328-.204-.314-.236-.3-.251-.279-.277-.262-.286-.244-.307-.235-.309-.199-.335-.197-.333-.18-.342-.162-.354-.157-.352-.145-.358-.129-.363-.127-.364-.124-.363-.105-.37-.101-.371-.106-.37-.1-.368-.089-.373-.087-.375-.085-.372-.086-.373-.075-.375-.075-.375-.073-.375-.073-.375-.065-.375-.066-.377-.063-.375-.063-.378-.061-.375-.054-.377-.054-.375-.052-.377-.051-.378-.047-.377-.045-.375-.042-.377-.04-.378-.04-.377-.032-.377-.033-.375-.028-.38-.021-.377-.021-.375-.019-.378.07-.375.084-.372.097-.375.1-.373.099-.373.096-.375.192-.349.206-.344.221-.338.25-.323.265-.312.291-.293.307-.277.312-.262.323-.249.342-.225.338-.215.354-.195.358-.171.366-.152.37-.131.378-.118.372-.1.38-.082.377-.071.38-.063.377-.054.38-.047.377-.037.382-.035.378-.029.377-.025.38-.026.377-.024.38-.011.377.021.377.023.382.026.378.03.379.031.378.035.377.042.38.05.377.058.38.066.38.077.377.089.375.11.373.122.365.143.366.162.356.18.347.204.337.223.331.239.321.255.307.268.3.283.281.303.265.311.234.333.228.335.164.361.171.359.166.358.068.375.043.378.044.379.038.378.025.379.031.378.026.377z" mask="url(#d)"/><path fill="#37444A" d="M97.962 25.426l-4.383.492-1.72.628-1.545 1.066-1.024 1.111-.567.959-.486 2.067 1.939 11.738.98 2.386 1.047 1.446.818.693 1.247.617 2.09.466 2.21.042 2.143-.262 1.366-.46 1.163-.754.75-.774 1.078-1.858 1.774-6.898.673-5.587-.267-2.499-.865-1.519-1.36-1.296-1.272-.78-1.725-.579-4.064-.445zm.23 24.883l-2.747-.161-1.965-.57-1.125-.602-.993-.844-.797-.97-1.116-2.203-1.788-7.566-.588-5.724.567-2.414.694-1.207.879-1.02 1.73-1.312 1.562-.707 2.77-.56 2.703-.195 4.692.565 1.585.57 1.474.906 1.298 1.189.78 1.047.552 1.163.323 2.85-.026.452v.007l-1.73 10.242-1.321 3.335-.994 1.376-.935.86-1.109.664-1.983.623-2.393.206z" mask="url(#d)"/><path fill="#F3DBC9" d="M119.893 101.304l-.342.105-.345.087-.346.073-.35.053-.349.038-.349.016h-1.048l-.349-.002-.349-.014-.349-.04-.35-.056-.344-.075-.347-.092-.34-.105-.342-.12-.333-.133-.33-.148-.321-.157-.315-.183-.309-.187-.293-.216-.286-.22-.265-.246-.262-.249-.23-.279-.232-.276-.204-.298-.192-.302-.18-.309-.157-.324-.155-.321-.138-.33-.111-.336-.117-.337-.105-.34-.085-.345-.082-.344-.086-.345-.066-.346-.059-.347-.058-.35-.059-.346-.047-.35-.04-.349-.042-.349-.04-.349-.037-.35-.028-.349-.026-.349-.028-.349-.028-.349-.019-.35-.014-.349-.016-.349-.017-.352-.012-.349-.007-.349-.007-.347-.004-.349v-.701l.004-.349.007-.349.012-.347.014-.349.017-.35.018-.349.024-.349.028-.349.033-.35.035-.346.08-.347.091-.345.098-.347.094-.347.101-.344.115-.342.194-.324.193-.326.229-.309.232-.305.265-.283.281-.27.289-.258.3-.241.314-.223.314-.211.333-.185.337-.161.342-.139.349-.117.35-.103.351-.082.352-.068.351-.061.352-.049.349-.042.349-.033.352-.031.349-.025.349-.026.35-.014.351.016.349.026.35.026.351.03.349.035.352.043.349.049.349.061.354.07.352.084.349.104.345.121.344.143.335.164.331.188.316.211.307.227.305.244.288.255.274.275.265.288.244.298.213.314.207.321.149.335.165.335.14.338.07.346.068.35.066.349.066.347.042.349.04.347.033.349.021.349.021.349.016.35.014.349.012.349.002.347.005.349.002.349-.002.35-.002.349-.007.349-.01.352-.012.347-.011.349-.019.349-.021.352-.019.349-.023.349-.024.349-.03.349-.033.35-.035.349-.038.349-.037.349-.054.35-.047.346-.051.35-.054.349-.071.347-.07.344-.073.347-.084.345-.096.342-.101.34-.103.34-.136.33-.131.33-.146.329-.173.314-.171.314-.197.3-.211.29-.223.289-.246.26-.25.265-.277.232-.279.232-.302.199-.305.197-.321.171-.316.162-.333.145-.335.131z" mask="url(#d)"/><path fill="#37444A" d="M117.121 78.057l-3.344.42-1.259.478-1.141.787-.97 1.013-.582.907-.663 4.235-.023 1.373.644 7.568.832 2.553.687 1.155 1.148 1.14 1.451.815 1.906.539 2.006.05 1.598-.25 1.852-.782 1.26-1.008.812-1.06.794-1.81.893-5.769.103-3.11-.466-5.11-.785-1.434-1.254-1.228-1.184-.72-1.6-.475-2.715-.277zm.343 24.204l-2.185-.12-1.835-.562-1.362-.717-1.204-1.003-1.142-1.594-.836-2.11-.905-7.113-.028-2.12.194-3.552.607-2.193.935-1.432 1.236-1.156 1.413-.853 1.512-.485 3.26-.363 3.668.457 1.495.576 1.366.938 1.158 1.2.809 1.425.152.363.513 4.39.012 1.064-.682 7.798-.755 2.475-.742 1.357-.99 1.183-1.272.952-1.765.79-.023.007-1.84.38-.764.018z" mask="url(#d)"/><path fill="#F3DBC9" d="M138.307 132.771l-.01.373-.009.37-.012.375-.016.371-.016.372-.024.373-.023.373-.028.372-.024.373-.03.37-.036.373-.035.373-.037.37-.038.375-.037.37-.049.373-.043.37-.049.373-.047.372-.049.371-.056.37-.059.373-.061.37-.058.37-.061.371-.073.37-.073.368-.072.37-.075.371-.089.365-.094.366-.094.365-.094.368-.114.359-.122.361-.12.359-.136.353-.157.345-.161.347-.176.337-.202.326-.204.326-.236.302-.249.296-.269.274-.286.26-.303.232-.323.22-.335.183-.347.169-.354.14-.359.12-.365.108-.366.091-.373.075-.368.059-.375.037-.375.017-.37.002H128.573l-.372-.016-.375-.04-.368-.059-.373-.075-.363-.089-.368-.105-.359-.122-.351-.143-.354-.16-.329-.194-.325-.209-.303-.239-.288-.255-.265-.279-.258-.288-.222-.314-.223-.312-.187-.333-.179-.337-.175-.34-.139-.354-.14-.352-.136-.354-.11-.363-.106-.363-.105-.364-.101-.363-.084-.37-.082-.366-.08-.37-.082-.366-.068-.372-.063-.368-.068-.371-.064-.37-.058-.37-.056-.373-.052-.37-.054-.373-.052-.37-.046-.373-.043-.373-.044-.37-.038-.372-.044-.373-.038-.37-.03-.373-.033-.373-.033-.372-.026-.373-.028-.37-.023-.373-.021-.373-.017-.372-.016-.373-.014-.373-.009-.372-.007-.373-.005-.37.002-.373.003-.373.007-.372.063-.371.089-.368.094-.368.1-.367.092-.371.096-.368.18-.351.193-.347.213-.34.232-.328.253-.314.274-.305.296-.284.302-.271.316-.254.324-.239.335-.222.342-.195.361-.171.359-.148.368-.126.368-.108.372-.089.375-.075.373-.063.373-.056.372-.045.373-.035.375-.033.37-.03.373-.029.372-.016.373.016.373.026.372.031.373.032.373.038.372.045.373.053.375.064.373.072.372.089.371.106.363.131.366.145.354.174.346.194.338.216.321.244.319.253.297.272.293.288.282.298.255.314.232.328.218.34.185.347.157.356.162.358.127.364.049.372.049.371.047.372.044.373.04.37.033.373.021.373z" mask="url(#d)"/><path fill="#37444A" d="M129.286 125.186l-3.567.455-1.338.513-1.205.84-1.033 1.08-.755 1.268-.478 2.046.002.283-.005.736 1.116 10.65 1.062 3.532.914 1.503 1 .947 1.217.618 1.704.415 1.772.052 1.741-.18 1.65-.582.86-.572.945-1.029.945-1.882 1.424-6.853.467-6.63-.281-2.522-.757-1.526-.98-1.127-1.184-.91-1.307-.586-3.202-.497-.727-.042zm.41 26.11l-2.33-.122-1.56-.42-1.144-.546-1.003-.766-1.062-1.292-1.024-2.2-1.533-8.267-.304-5.271.084-1.594.478-1.889.91-1.558 1.209-1.27 1.425-.985 1.577-.607 3.476-.476.39-.016 3.494.386 1.58.504 1.134.63 1.329 1.135.834 1.017.776 1.5.147.413.317 2.768-.003.403v.007l-1.211 10.88-.89 2.99-.95 1.784-1.142 1.254-1.078.717-1.54.584-1.586.283-.8.024z" mask="url(#d)"/><path fill="#F3DBC9" d="M138.307 31.788l-.01.372-.009.371-.012.375-.016.37-.016.373-.024.372-.023.373-.028.372-.024.373-.03.37-.036.373-.035.373-.037.37-.038.375-.037.37-.049.373-.043.37-.049.373-.047.373-.049.37-.056.37-.059.373-.061.37-.058.371-.061.37-.073.37-.073.368-.072.37-.075.371-.089.365-.094.366-.094.366-.094.368-.114.358-.122.361-.12.359-.136.354-.157.347-.161.344-.176.338-.202.325-.204.326-.236.302-.249.296-.269.274-.286.26-.303.235-.323.218-.335.182-.347.169-.354.141-.359.119-.365.108-.366.091-.373.075-.368.059-.375.038-.375.016-.37.002H128.573l-.372-.016-.375-.04-.368-.059-.373-.075-.363-.089-.368-.105-.359-.122-.351-.143-.354-.159-.329-.195-.325-.208-.303-.239-.288-.256-.265-.279-.258-.288-.222-.312-.223-.314-.187-.333-.179-.337-.175-.34-.139-.354-.14-.352-.136-.353-.11-.364-.106-.363-.105-.363-.101-.364-.084-.37-.082-.366-.08-.37-.082-.365-.068-.373-.063-.368-.068-.37-.064-.371-.058-.37-.056-.373-.052-.37-.054-.373-.052-.37-.046-.373-.043-.372-.044-.371-.038-.372-.044-.373-.038-.37-.03-.373-.033-.373-.033-.372-.026-.373-.028-.37-.023-.373-.021-.372-.017-.373-.016-.373-.014-.372-.009-.373-.007-.373-.005-.37.002-.373.003-.372.007-.373.063-.37.089-.368.094-.368.1-.368.092-.371.096-.368.18-.351.193-.347.213-.34.232-.328.253-.314.274-.305.296-.283.302-.272.316-.253.324-.239.335-.223.342-.195.361-.171.359-.147.368-.127.368-.108.372-.089.375-.075.373-.063.373-.056.372-.045.373-.035.375-.033.37-.03.373-.028.372-.017.373.017.373.025.372.031.373.033.373.037.372.045.373.054.375.063.373.073.372.089.371.105.363.131.366.148.354.171.346.195.338.215.321.244.319.253.297.272.293.288.282.298.255.314.232.328.218.34.185.347.157.356.162.359.127.363.049.373.049.37.047.373.044.372.04.371.033.372.021.373z" mask="url(#d)"/><path fill="#37444A" d="M129.286 24.204l-3.567.452-1.338.513-1.205.842-1.033 1.078-.755 1.27-.478 2.046.002.281-.005.739 1.116 10.647 1.062 3.532.914 1.503 1 .947 1.215.618 1.706.418 1.772.049 1.741-.178 1.65-.582.86-.571.945-1.032.945-1.882 1.424-6.853.467-6.63-.281-2.522-.757-1.524-.98-1.13-1.184-.909-1.307-.586-3.202-.494-.727-.042zm.033 26.107l-1.952-.122-1.561-.417-1.144-.549-1.003-.764-1.062-1.294-1.024-2.2-1.533-8.264-.304-5.274.084-1.594.478-1.889.91-1.558 1.209-1.27 1.425-.985 1.577-.605 3.476-.475.39-.02 3.494.39 1.58.504 1.134.633 1.329 1.132.834 1.017.776 1.5.147.412.317 2.766-.003.405v.007l-1.211 10.878-.89 2.993-.95 1.783-1.144 1.254-1.076.717-1.542.584-1.584.284-1.177.02z" mask="url(#d)"/><path fill="#F3DBC9" d="M151.074 101.671l-.429-.005-.429-.004-.429-.007-.429-.01-.429-.012-.431-.011-.426-.017-.432-.018-.426-.024-.432-.028-.428-.047-.422-.075-.415-.124-.394-.185-.349-.26-.291-.331-.225-.373-.192-.393-.15-.41-.122-.415-.103-.422-.094-.422-.068-.427-.068-.426-.061-.429-.049-.427-.047-.429-.049-.428-.037-.429-.035-.429-.038-.429-.03-.429-.029-.429-.028-.429-.028-.429-.021-.429-.023-.429-.021-.429-.022-.431-.018-.429-.014-.426-.014-.429-.015-.431-.014-.429-.009-.429-.007-.429-.009-.429-.003-.429-.004-.429v-.429l.002-.429.005-.429.009-.428.066-.425.077-.424.08-.426.082-.425.086-.424.08-.426.092-.425.189-.403.204-.401.209-.396.244-.382.25-.379.293-.354.298-.345.319-.333.333-.311.349-.298.356-.281.366-.27.382-.237.393-.213.401-.19.41-.166.418-.145.421-.129.422-.103.427-.089.426-.08.427-.068.429-.056.427-.05.428-.042.429-.037.427-.035.431-.031.429-.023.429.014.429.03.426.033.429.038.432.042.426.044.429.054.424.063.429.078.427.084.422.103.424.115.417.143.412.159.401.186.396.208.387.232.377.253.354.282.347.295.338.309.323.326.31.342.288.352.272.368.243.382.225.391.207.396.157.413.15.415.157.412.089.424.049.427.049.429.045.426.044.429.028.427.033.429.012.429v.858l-.002.428-.005.427-.009.431-.01.429-.012.429-.014.429-.014.429-.016.429-.019.429-.016.429-.021.428-.024.429-.026.429-.021.429-.025.429-.033.429-.031.431-.033.429-.035.429-.04.427-.044.429-.042.428-.054.429-.059.427-.058.426-.078.427-.082.424-.093.422-.125.42-.133.41-.181.401-.222.375-.265.349-.326.29-.384.207-.413.136-.424.086-.424.054-.432.033-.428.024-.429.021-.429.016-.429.014-.429.012-.431.007-.427.009-.431.005-.429.007h-.429l-.429.005H151.932l-.427-.003z" mask="url(#d)"/><path fill="#37444A" d="M151.932 101.09h3.86l5.932-.204.727-.197.293-.164.403-.478.33-.661.525-2.37.603-11.07-.338-3.297-.832-1.859-1.038-1.34-1.294-1.146-1.439-.802-1.976-.57-3.754-.381-4.14.499-1.572.513-1.09.595-1.608 1.397-1.012 1.37-.567 1.14-.523 4.013.755 11.906.44 1.564.368.663.488.424.626.213 5.833.242zm3.863 1.172l-9.502-.19-.944-.22-.476-.219-.45-.318-.38-.415-.504-.895-.513-1.8-.776-12.127.087-1.802.506-2.586.924-1.774.89-1.146 1.442-1.303 1.22-.773 1.76-.673 4.4-.619.443-.02 3.984.4 1.78.471 1.293.588 1.207.825 1.388 1.336.864 1.181.455.837.492 1.299.375 3.152.017.905-.67 11.23-.537 2.206-.453.889-.307.405-.4.373-.5.286-.993.276-6.122.22z" mask="url(#d)"/><path fill="#F3DBC9" d="M165.665 136.84l-.005.297-.007.296-.007.297-.009.298-.014.298-.017.297-.016.298-.021.298-.021.297-.021.298-.026.298-.028.295-.031.298-.03.297-.031.298-.04.298-.037.297-.04.298-.037.298-.045.297-.051.296-.052.297-.049.296-.054.297-.066.296-.068.295-.063.295-.068.295-.084.291-.087.293-.089.291-.101.288-.11.286-.113.283-.124.279-.145.275-.141.274-.159.26-.176.258-.183.253-.199.237-.206.234-.228.216-.234.211-.248.189-.263.183-.262.167-.277.15-.274.14-.286.127-.284.112-.293.096-.307.075-.286.057-.309.028h-.893l-.305-.01-.29-.046-.305-.068-.291-.087-.29-.103-.288-.122-.284-.134-.279-.147-.265-.157-.269-.176-.246-.185-.244-.204-.23-.214-.215-.225-.204-.234-.19-.248-.183-.251-.159-.265-.155-.267-.143-.272-.127-.279-.126-.281-.11-.284-.099-.288-.098-.288-.094-.293-.075-.293-.073-.293-.077-.293-.066-.296-.056-.297-.061-.295-.056-.296-.052-.297-.044-.298-.047-.298-.042-.295-.047-.298-.033-.297-.035-.298-.035-.298-.035-.295-.031-.298-.028-.297-.026-.298-.023-.298-.024-.297-.023-.298-.016-.298-.015-.297-.014-.298-.014-.298-.009-.295-.007-.298-.005-.297-.002-.298.002-.298.003-.297.009-.298.009-.297.017-.298.016-.298.024-.295.023-.298.068-.295.082-.295.08-.296.077-.295.084-.295.087-.298.117-.291.162-.283.164-.284.188-.274.197-.274.22-.258.23-.253.241-.246.251-.232.262-.218.265-.209.274-.19.286-.168.291-.146.297-.124.3-.108.303-.084.3-.07.3-.061.297-.047.3-.04.298-.033.298-.03.3-.026.297-.012.298.026.298.028.3.03.297.038.3.044.3.052.3.066.303.079.302.094.298.117.295.136.286.162.281.178.272.199.256.218.257.228.242.239.239.248.22.258.211.265.192.274.181.279.152.283.134.291.133.291.122.29.059.298.061.295.063.298.047.298.054.295.03.298.024.297.018.298.012.298.01.295.007.298.002.297z" mask="url(#d)"/><path fill="#37444A" d="M158.76 129.148l-2.487.385-1.036.485-1.383 1.235-.858 1.272-.54 2.122-.08 2.036.977 8.461.825 2.152 1.015 1.357 1.12.832 1.568.595 1.362.042 1.265-.325 1.47-.877 1.094-1.273.907-2.076 1.074-7.57.026-1.46-.375-3.446-1.008-1.727-1.374-1.28-1.291-.6-2.271-.34zm.185 22.146l-1.62-.136-1.58-.649-1.124-.787-1.118-1.278-1.102-2.383-1.043-6.059-.154-3.319.107-2.433.633-2.233.778-1.24 1.582-1.533.95-.567 1.654-.5 1.88-.198 2.564.382.991.382 1.233.843 1.247 1.318.865 1.535.347 1.305.215 3.094v.01l-.965 8.437-1.046 2.697-1.003 1.362-1.364 1.071-1.542.69-1.034.187-.351.002z" mask="url(#d)"/><path fill="#F3DBC9" d="M165.665 35.856l-.005.298-.007.297-.007.295-.009.298-.014.298-.017.297-.016.298-.021.298-.021.297-.021.298-.026.298-.028.297-.031.298-.03.295-.031.298-.04.298-.037.297-.04.298-.037.298-.045.297-.051.298-.052.295-.049.296-.054.297-.066.296-.068.295-.063.295-.068.295-.084.291-.087.293-.089.291-.101.288-.11.286-.113.284-.124.278-.145.275-.141.274-.159.26-.176.258-.183.253-.199.237-.206.234-.228.216-.234.211-.248.189-.263.183-.262.167-.277.15-.274.14-.286.127-.284.112-.293.096-.307.075-.286.057-.309.028h-.893l-.305-.01-.29-.046-.305-.068-.291-.087-.29-.103-.288-.122-.284-.134-.279-.147-.265-.155-.269-.178-.246-.185-.244-.202-.23-.216-.215-.225-.204-.234-.19-.248-.183-.251-.159-.265-.155-.267-.143-.272-.127-.279-.126-.281-.11-.284-.099-.288-.098-.288-.094-.293-.075-.293-.073-.293-.077-.293-.066-.296-.056-.297-.061-.295-.056-.296-.052-.297-.044-.298-.047-.295-.042-.298-.047-.298-.033-.297-.035-.298-.035-.298-.035-.295-.031-.298-.028-.297-.026-.298-.023-.298-.024-.297-.023-.298-.016-.298-.015-.297-.014-.298-.014-.298-.009-.295-.007-.298-.005-.297-.002-.298.002-.298.003-.297.009-.298.009-.297.017-.298.016-.298.024-.295.023-.298.068-.295.082-.295.08-.296.077-.295.084-.295.087-.296.117-.293.162-.281.164-.286.188-.274.197-.272.22-.26.23-.253.241-.246.251-.232.262-.218.265-.209.274-.19.286-.168.291-.146.297-.124.3-.105.303-.087.3-.07.3-.061.297-.047.3-.04.298-.033.298-.03.3-.026.297-.012.298.026.298.028.3.03.297.038.3.044.3.052.3.066.303.079.302.094.298.117.295.136.286.162.281.178.272.202.256.215.257.228.242.239.239.248.22.258.211.265.192.274.181.279.152.283.134.291.133.291.122.29.059.298.061.295.063.298.047.298.054.295.03.298.024.297.018.298.012.298.01.295.007.298.002.297z" mask="url(#d)"/><path fill="#37444A" d="M158.76 28.163l-2.487.385-1.036.487-1.383 1.233-.858 1.273-.54 2.12-.08 2.037.977 8.464.825 2.149 1.015 1.36 1.12.831 1.568.596 1.362.04 1.265-.326 1.47-.877 1.094-1.27.907-2.077 1.074-7.57.026-1.46-.375-3.448-1.008-1.725-1.374-1.282-1.291-.598-2.271-.342zm.185 22.146l-1.282-.06-1.306-.418-1.471-.876-.98-.957-.91-1.42-.998-3.03-.794-7.85.107-2.432.633-2.232.778-1.242 1.582-1.533.95-.567 1.654-.5 1.88-.198 2.564.384.991.382 1.233.841 1.247 1.318.865 1.535.347 1.308.215 3.093v.01l-.965 8.435-1.046 2.7-1.003 1.36-1.364 1.073-1.542.686-1.034.188-.351.002z" mask="url(#d)"/></g></svg>