<svg xmlns="http://www.w3.org/2000/svg" xmlns:xlink="http://www.w3.org/1999/xlink" width="54" height="53" viewBox="0 0 54 53">
    <defs>
        <path id="am0l7i0gma" d="M0 0H53.906V52.734H0z"/>
    </defs>
    <g fill="none" fill-rule="evenodd">
        <mask id="3mql3mejxb" fill="#fff">
            <use xlink:href="#am0l7i0gma"/>
        </mask>
        <g stroke-linejoin="round" stroke-width="1.172" mask="url(#3mql3mejxb)">
            <g>
                <path stroke="#F7BFA0" d="M128.675 5.47c-5.583.464-15.996.86-23.944.328-7.945-.532-19.621-3.094-47.333-4.266C29.685.36 27.442 1.106 20.312.786 13.179.465 9.206 1.21 8.186 2.918M9.002 19.56c0 1.174 5.095 5.227 19.766 6.185 14.67.96 32.561 6.933 45.907 7.998 13.348 1.067 27.714 1.922 37.8 2.987 10.087 1.068 42.506 5.196 53.002 7.544" transform="rotate(88 13.337 26.415)"/>
                <path stroke="#2C4349" d="M27.848 12.413c.026-4.634-4.67-8.663-7.623-8.856-2.692-.176-9.286-.38-10.368-.38-1.083 0-4.049 0-5.334.756C3.24 4.688.194 6.745.153 11.236c-.04 4.49 4.493 7.384 8.18 8.097 3.688.715 10.062 1.093 11.747 1.134 1.684.042 7.728-1.139 7.768-8.054z" transform="rotate(88 13.337 26.415)"/>
            </g>
        </g>
    </g>
</svg>
