<svg xmlns="http://www.w3.org/2000/svg" xmlns:xlink="http://www.w3.org/1999/xlink" width="54" height="53" viewBox="0 0 54 53">
    <defs>
        <path id="n5zaw6ukea" d="M0 0H53.906V52.734H0z"/>
    </defs>
    <g fill="none" fill-rule="evenodd">
        <mask id="tphuz25jkb" fill="#fff">
            <use xlink:href="#n5zaw6ukea"/>
        </mask>
        <g stroke-width="1.172" mask="url(#tphuz25jkb)">
            <g>
                <path stroke="#2C4349" stroke-linejoin="round" d="M6.038 9.622h0v.003c.025.404.07.824.173 1.285 0 0 .679 1.135 3.371 1.467 1.272.157 2.651.09 3.73-.465 0 0 1.543-2.064.291-4.73-.14-.3-.323-.55-.523-.78-.062-.071-.13-.133-.195-.197-.07-.068-.132-.148-.205-.209 0 .015-.005.026-.005.04C11 4.656 8.204 4.948 7.164 5.883c-.51.456-1.242 1.74-1.126 3.739z" transform="matrix(-1 0 0 1 33.984 24.61)"/>
                <path stroke="#F6BEA0" d="M16.428 28.681c-.523-5.507.724-10.908.973-14.934.25-4.026-.599-9.549-3.895-11.658-2.168-.693-7.005-3.434-9.389 2.257C2.002 9.381.817 13.57.82 18.656c0 1.752.798 7.996 1.08 10.025" transform="matrix(-1 0 0 1 33.984 24.61)"/>
            </g>
        </g>
    </g>
</svg>
