<svg xmlns="http://www.w3.org/2000/svg" xmlns:xlink="http://www.w3.org/1999/xlink" width="54" height="53" viewBox="0 0 54 53">
    <defs>
        <path id="90m079y9ba" d="M0 0H53.906V52.734H0z"/>
    </defs>
    <g fill="none" fill-rule="evenodd">
        <mask id="29ir1aqvwb" fill="#fff">
            <use xlink:href="#90m079y9ba"/>
        </mask>
        <g stroke-linejoin="round" stroke-width="1.172" mask="url(#29ir1aqvwb)">
            <g>
                <path stroke="#F7BFA0" d="M175.321 2.461C159.214.255 142.972-.717 127.39.588 96.634 3.161 96.634 7.452 76.138 7.452c-20.499 0-36.19 3.719-49.854 5.722-13.666 2-19.679 4.863-20.224 5.719M5.53 32.638c0 .72 1.866 2.192 9.228 2.072 5.238-.087 40.514-2.852 52.483-2.852 11.972 0 28.85 2.032 32.413 2.032" transform="rotate(92 16.333 34.966)"/>
                <path stroke="#2C4349" d="M21.645 24.853c-.04 3.774-2.868 6.72-5.273 6.83-2.193.106-7.585.491-8.464.542-3.296.19-7.534-1.415-7.532-5.997.002-4.438 3.378-7.208 7.34-7.484 3.046-.214 5.843-.3 7.215-.31 1.372-.01 6.774.789 6.714 6.419z" transform="rotate(92 16.333 34.966)"/>
            </g>
        </g>
    </g>
</svg>
