<svg xmlns="http://www.w3.org/2000/svg" xmlns:xlink="http://www.w3.org/1999/xlink" width="54" height="53" viewBox="0 0 54 53">
    <defs>
        <path id="sq1e6j8vna" d="M0 0H53.906V52.734H0z"/>
    </defs>
    <g fill="none" fill-rule="evenodd">
        <mask id="w5xr6mal5b" fill="#fff">
            <use xlink:href="#sq1e6j8vna"/>
        </mask>
        <g stroke-linejoin="round" stroke-width="1.172" mask="url(#w5xr6mal5b)">
            <g>
                <path stroke="#F7BFA0" d="M140.904.208c-10.184.802-28.306 1.823-37.283 1.823-8.979 0-23.451-1.573-44.645 0-21.19 1.573-29.956 2.424-37.494 2.745-7.54.318-11.513 1.388-13.043 3.627M6.097 22.69c-.203 1.174.917 4.374 13.858 4.48 12.938.108 23.024-.853 37.29-.106 14.265.746 19.008.853 35.413.64 16.404-.215 30.493 2.21 33.691 2.499" transform="rotate(88 12.813 27.94)"/>
                <path stroke="#2C4349" d="M25.548 15.46c-.147 4.153-3.442 7.533-6.095 7.587-2.416.049-9.773-.125-10.744-.096-3.635.109-8.656-2.72-8.394-7.613.265-4.88 4.09-6.746 7.628-6.92 3.36-.165 8.88-.258 10.39-.23 1.51.032 7.436 1.074 7.215 7.273z" transform="rotate(88 12.813 27.94)"/>
            </g>
        </g>
    </g>
</svg>
