<svg xmlns="http://www.w3.org/2000/svg" xmlns:xlink="http://www.w3.org/1999/xlink" width="54" height="53" viewBox="0 0 54 53">
    <defs>
        <path id="lry09nixza" d="M0 0H53.906V52.734H0z"/>
    </defs>
    <g fill="none" fill-rule="evenodd">
        <mask id="35pto7y30b" fill="#fff">
            <use xlink:href="#lry09nixza"/>
        </mask>
        <g stroke-linejoin="round" stroke-width="1.172" mask="url(#35pto7y30b)">
            <g>
                <path stroke="#F7BFA0" d="M148.345 1.773c-4.715.116-23.285.66-34.695.234-11.41-.428-15.357-.796-42.08-1.364C31.845-.2 26.58.514 21.283.514c-5.3 0-10.598 1.172-11.82 3.518M7.322 19.92c-.1 1.28 3.975 3.735 14.061 4.481 10.088.746 27.306 1.811 34.947 2.772 7.642.96 19.311 1.758 37.855 1.971 18.543.212 38.986 3.594 50.673 4.43" transform="rotate(88 13.4 26.665)"/>
                <path stroke="#2C4349" d="M27.966 11.877c0-5.32-4.67-7.804-7.623-7.998-2.692-.176-8.75.183-9.83.154C3.13 3.828.04 7.653 0 12.145c-.04 4.491 3.817 7.38 8.45 7.51 3.75.105 10.2.265 11.886.265 2.628.002 7.63-1.127 7.63-8.043z" transform="rotate(88 13.4 26.665)"/>
            </g>
        </g>
    </g>
</svg>
