<svg xmlns="http://www.w3.org/2000/svg" xmlns:xlink="http://www.w3.org/1999/xlink" width="46" height="45" viewBox="0 0 46 45">
    <defs>
        <path id="j0t80d70ea" d="M0 0H46V45H0z"/>
    </defs>
    <g fill="none" fill-rule="evenodd">
        <mask id="ngtdgk2qgb" fill="#fff">
            <use xlink:href="#j0t80d70ea"/>
        </mask>
        <use fill="#FFF" xlink:href="#j0t80d70ea"/>
        <g stroke-linejoin="round" mask="url(#ngtdgk2qgb)">
            <g>
                <path stroke="#F6BEA0" d="M26 34c-.019-2.257-.037-4.998-.054-8.222-.02-3.432-.06-6.866-.831-10.217C24.37 12.316 23.027 9.76 21 8M5 8c-.386.43-1.33 1.27-1.662 1.812C1.648 12.576.763 15.658.533 18.95.336 21.76.286 24.583.175 27.4.024 31.228 0 34 0 34" transform="translate(10 11)"/>
                <path stroke="#2C4349" d="M20.955 9.723c-.017-1.213-.448-5.404-1.532-6.874C18.02.947 16.279.409 15.585.293c-2.15-.358-2.8-.358-4.872-.161-.712.068-3.771.704-5.066 3.26-1.294 2.556-1.24 5.61-1.284 6.389-.04.675-.068 1.353-.102 2.03-.076 1.559-.166 3.118-.224 4.678-.038 1.016-.038 2.033-.036 3.05 0 .567.026 1.135.068 1.702.067.942.16 1.879.361 2.806.137.632.304 1.25.543 1.849.358.895.96 1.583 1.74 2.137 1.182.84 2.455 1.473 3.878 1.765 2.284.471 4.432.126 6.42-1.123.668-.418 1.3-.88 1.842-1.457.829-.88 1.285-1.948 1.528-3.116.215-1.037.331-2.089.383-3.147.05-1.049.112-2.098.14-3.149.045-1.596.066-3.193.096-4.79 0-1.098-.03-2.196-.045-3.293z" transform="translate(10 11)"/>
            </g>
        </g>
    </g>
</svg>
