<svg xmlns="http://www.w3.org/2000/svg" xmlns:xlink="http://www.w3.org/1999/xlink" width="54" height="53" viewBox="0 0 54 53">
    <defs>
        <path id="ns58j40dba" d="M0 0H53.906V52.734H0z"/>
    </defs>
    <g fill="none" fill-rule="evenodd">
        <mask id="qkfsfy0nbb" fill="#fff">
            <use xlink:href="#ns58j40dba"/>
        </mask>
        <g stroke-width="1.172" mask="url(#qkfsfy0nbb)">
            <g>
                <path stroke="#2C4349" stroke-linejoin="round" d="M5.368 12.981c-.002-.002-.003-.002-.005-.002.05.2.435 1.057.499 1.265 0 0 .878 1.064 5.19 1.275 2.037.099 5.674-.735 7.318-1.744 0 0 .751-1.247-1.546-5.335-.226-.402-.498-.743-.792-1.053-.041-.045-.08-.092-.125-.133-.292-.29-.612-.537-.953-.748-.047-.03-.093-.056-.143-.084-2.818-1.636-6.897-.812-8.364.714-.86.897-2.062 1.901-1.063 5.85-.005-.003-.011-.003-.016-.005z" transform="matrix(-1 0 0 1 38.672 21.094)"/>
                <path stroke="#F6BEA0" d="M1.536 31.927c.408-11.104-1.75-18.96-.058-23.683M21.178 31.927s.29-5.755.735-9.33c.22-1.774 1.29-7.734-.36-13.168-1.04-3.432-3.712-6.745-6.72-7.86C12.378.662 9.706.547 7.334 1.403c-2.371.848-4.41 2.72-5.469 5.593-.06.16-.118.331-.17.5-.084.26-.143.497-.218.748" transform="matrix(-1 0 0 1 38.672 21.094)"/>
            </g>
        </g>
    </g>
</svg>
