<svg xmlns="http://www.w3.org/2000/svg" width="187" height="253" viewBox="0 0 187 253">
    <g fill="none" fill-rule="evenodd" stroke-width="1.2">
        <path stroke="#2C4349" stroke-linejoin="round" d="M113.869 236.04l.025.005c-.077-.073-.144-.125-.217-.188-.082-.072-.16-.145-.237-.207-.201-.163-.393-.298-.555-.382-1.48-.738-5.177-.104-5.177-.104s-2.113.316-3.804 1.16c-2.534 1.268-2.323 7.395-2.112 9.297.211 1.901.528 4.331 7.078 2.957.505-.106.974-.206 1.425-.304l.294-.063c.4-.089.78-.175 1.139-.26l.152-.035c.827-.197 1.541-.39 2.16-.592.017-.005.038-.01.054-.016-.002.002-.006.002-.01.003 2.462-.81 3.36-1.78 3.447-3.882.108-2.604-2.054-5.862-3.662-7.39zM133.166 238.259h.004c-.087-.125-.567-.615-.664-.74 0 0-.872-.507-3.883.443-1.422.45-3.706 1.947-4.577 3.057 0 0 .22 2.172 2.835 4.39.256.219.53.383.81.523.04.019.079.042.12.06.274.124.556.21.844.27l.12.021c2.349.405 4.936-1.197 5.554-2.616.362-.835.514-2.953-1.176-5.407l.013-.001zM144.389 231.706c-.093-.19-.194-.382-.31-.579 0 0-1.015-.891-3.737-.372-1.287.245-2.607.742-3.483 1.62 0 0-.855 2.49 1.197 4.693.23.248.485.434.751.593.054.033.105.069.159.096.248.13.506.227.771.295.084.023.168.039.254.056.062.012.123.03.187.04-.007-.007-.013-.016-.02-.022 1.881.274 3.946-.74 4.569-1.81.389-.67.73-2.405-.352-4.612.005.002.01.002.014.002zM151.539 222.517c-1.158-.144-2.417-.083-3.397.422 0 0-1.404 1.88-.267 4.31.148.316.34.584.56.814.045.047.103.077.15.12.185.172.379.33.596.454.008.004.013.01.021.014v-.007c1.534.857 3.688.552 4.54-.212.558-.5 1.427-2.074.869-4.58 0 0-.62-1.031-3.072-1.335zM162.663 210.738h0v-.002c-.018-.294-.052-.602-.126-.94 0 0-.497-.83-2.466-1.072-.93-.116-1.94-.066-2.728.34 0 0-1.129 1.51-.213 3.459.102.22.236.403.382.571.046.052.095.097.143.144.052.05.096.108.15.152 0-.01.004-.019.004-.028 1.224 1.009 3.27.795 4.03.112.374-.334.909-1.274.824-2.736z" transform="translate(1)"/>
        <path stroke="#F6BEA0" d="M116.104 217.349c0-.569-.014-.685.05-1.175.15-.518.437-.518.625-.518h.007c.231.003.37.053.479.167.112.115.265.402.267 1.064.001 1.322.253 6.38.93 12.042-1.283-3.876-2.365-8.285-2.358-11.58zm16.402 9.647c-.61-2.885-1.267-6.516-1.264-8.66-.019-.75.121-1.317.195-1.456.028-.003.056-.005.081-.005.01 0 .018 0 .027.002.376.036.49.02.792.575.276.571.501 1.773.496 3.851 0 1.44-.1 3.305-.327 5.693zm12.194-6.437l-.085-.306c-.824-2.964-1.618-6.306-1.613-8.491-.006-.787.112-1.41.287-1.769.116.016.448.083.88 1.196.076.465.597 3.708.597 7.27 0 .696-.019 1.403-.066 2.1zm9.833-15.782c-.106-.588-.19-1.167-.244-1.736-.207-2.151-.382-4.324-.382-6.073-.018-1.415-.272-3.277.373-3.083.64.276.783 2.696.783 4.956 0 1.546-.142 3.497-.53 5.936zm-36.07 24.152c2.526 6.394 2.21 12.043 2.21 12.043-.243 4.475-1.49 8.289-7.812 10.19-1.653.496-5.67 1.179-6.887 1.179-2.794-.016-4.463-.774-5.963-2.725-1.49-1.951-1.315-4.344-2.482-7.591-1.034-2.88-1.38-5.44-1.382-7.775-.002-3.94 1-7.245 1.414-10.307.154-1.141.217-2.326.217-3.64-.004-4.342-.677-10.112-1.162-20.557-.086-1.874-.125-3.656-.127-5.358 0-10.63 1.517-18.231 2.341-25.919.36-3.349.54-6.702.54-10.485 0-6.304-.498-13.798-1.488-24.5-.427-4.607-.6-9.287-.6-13.83 0-3.679.113-7.268.297-10.659m23.095 131.977c.012 2.904 2.036 5.053 2.732 5.82 1.792 1.917 4.241 2.824 6.587 2.824 1.913-.001 3.776-.601 5.185-1.792 1.409-1.185 2.333-2.987 2.328-5.226 0-.126-.002-.258-.01-.386-.009-.2-.028-.38-.041-.569.709.143 1.758.302 2.928.302h.06c2.29 0 5.194-.679 6.506-3.565.682-1.506.929-2.972.929-4.326 0-.33-.047-1.889-.551-3.46.648.517 1.493 1.38 3.432 1.634h.702c.695 0 1.727-.186 2.48-.663 3.035-1.996 5.012-6.172 4.095-11.28-.183-1.014-.835-3.984-.835-4.036 1.586.506 5.124 2.511 6.867-1.652 1.547-3.682 2.413-6.746 2.411-10.466 0-1.282-.1-2.641-.308-4.126-.66-4.744-.986-7.728-.984-9.718 0-.399.014-.758.038-1.08.054-.724.166-2.56.166-5.025-.003-4.72-.399-11.724-2.417-17.571-1.025-2.962-1.959-5.949-2.747-8.775M132.506 226.996c0 7.323 4.91 10.977 4.95 14.647M144.7 220.559c-.283 4.919 2.85 8.541 3.132 12.527M154.533 204.777c-1.126 7.755 3.342 9.475 3.502 15.509" transform="translate(1)"/>
        <path stroke="#2C4349" stroke-linejoin="round" d="M72.81 236.04l-.025.005c.076-.073.144-.125.217-.188.081-.072.16-.145.236-.207.202-.163.394-.298.556-.382 1.48-.738 5.177-.104 5.177-.104s2.113.316 3.804 1.16c2.534 1.268 2.323 7.395 2.112 9.297-.212 1.901-.528 4.331-7.078 2.957-.505-.106-.974-.206-1.426-.304l-.294-.063c-.4-.089-.78-.175-1.138-.26l-.153-.035c-.827-.197-1.54-.39-2.16-.592l-.054-.016c.003.002.006.002.01.003-2.461-.81-3.36-1.78-3.447-3.882-.108-2.604 2.055-5.862 3.663-7.39zM53.513 238.259h-.004c.086-.125.566-.615.664-.74 0 0 .872-.507 3.883.443 1.422.45 3.705 1.947 4.577 3.057 0 0-.22 2.172-2.835 4.39-.257.219-.53.383-.811.523-.04.019-.078.042-.119.06-.275.124-.557.21-.845.27l-.118.021c-2.35.405-4.937-1.197-5.555-2.616-.363-.835-.514-2.953 1.176-5.407l-.013-.001zM42.29 231.706c.093-.19.193-.382.31-.579 0 0 1.015-.891 3.737-.372 1.287.245 2.607.742 3.483 1.62 0 0 .855 2.49-1.197 4.693-.23.248-.485.434-.752.593-.054.033-.104.069-.158.096-.248.13-.506.227-.772.295-.084.023-.168.039-.253.056-.062.012-.123.03-.187.04.007-.007.013-.016.02-.022-1.881.274-3.946-.74-4.57-1.81-.388-.67-.729-2.405.352-4.612-.004.002-.01.002-.013.002zM35.14 222.517c1.158-.144 2.417-.083 3.397.422 0 0 1.404 1.88.267 4.31-.148.316-.34.584-.56.814-.045.047-.103.077-.15.12-.186.172-.379.33-.596.454-.008.004-.013.01-.022.014.002-.002.002-.004.002-.007-1.535.857-3.69.552-4.541-.212-.558-.5-1.427-2.074-.869-4.58 0 0 .62-1.031 3.072-1.335zM24.016 210.738h0v-.002c.018-.294.052-.602.126-.94 0 0 .497-.83 2.466-1.072.93-.116 1.94-.066 2.728.34 0 0 1.129 1.51.213 3.459-.102.22-.236.403-.383.571-.045.052-.094.097-.142.144-.052.05-.096.108-.15.152 0-.01-.004-.019-.004-.028-1.224 1.009-3.27.795-4.03.112-.374-.334-.91-1.274-.824-2.736z" transform="translate(1)"/>
        <path stroke="#F6BEA0" d="M68.217 228.93c.677-5.664.927-10.721.929-12.042.002-.664.156-.95.268-1.066.108-.114.248-.163.478-.167h.008c.188 0 .476 0 .623.52.066.488.052.606.052 1.175.007 3.295-1.075 7.704-2.358 11.58zm-14.371-7.626c-.005-2.079.22-3.281.496-3.851.302-.555.416-.54.792-.575.009-.002.017-.002.027-.002.025 0 .053.002.081.004.074.138.214.707.195 1.456.003 2.144-.654 5.774-1.265 8.66-.226-2.389-.326-4.252-.326-5.692zm-11.933-2.846c0-3.56.52-6.804.596-7.268.433-1.114.763-1.182.881-1.196.175.358.293.98.287 1.767.005 2.187-.789 5.529-1.613 8.493l-.085.304c-.047-.697-.066-1.404-.066-2.1zm-10.297-19.616c0-2.26.142-4.681.783-4.956.643-.194.391 1.668.372 3.082 0 1.748-.174 3.922-.381 6.074-.053.568-.138 1.147-.245 1.735-.387-2.438-.53-4.39-.53-5.935zm57.58-87.898c.153 3.096.2 5.388.2 8.71 0 4.543-.172 9.223-.6 13.83-.99 10.703-1.487 18.197-1.487 24.5 0 3.783.18 7.136.54 10.485.824 7.687 2.341 15.288 2.341 25.92-.002 1.701-.04 3.482-.127 5.358-.485 10.445-1.158 16.213-1.162 20.556 0 1.314.063 2.5.216 3.64.414 3.062 1.417 6.367 1.415 10.307-.001 2.336-.348 4.896-1.384 7.775-1.165 3.246-.99 5.639-2.48 7.59-1.5 1.951-3.17 2.71-5.963 2.727-1.217 0-5.234-.684-6.887-1.18-6.324-1.902-7.57-5.714-7.813-10.19 0 0-.315-5.65 2.212-12.042m-41.12-73.49c-.945 3.86-1.892 6.836-3.392 11.17-2.018 5.848-2.414 12.852-2.417 17.573 0 2.465.11 4.3.166 5.023.024.324.037.683.037 1.081.001 1.99-.324 4.973-.983 9.718-.207 1.485-.308 2.845-.308 4.127-.002 3.72.864 6.782 2.41 10.466 1.744 4.162 5.282 2.156 6.868 1.651 0 .053-.652 3.022-.835 4.037-.917 5.107 1.06 9.282 4.095 11.279.753.477 1.785.663 2.48.663h.7c1.941-.253 2.786-1.118 3.434-1.634-.505 1.57-.55 3.13-.55 3.46 0 1.353.245 2.82.928 4.327 1.312 2.885 4.216 3.565 6.505 3.565h.06c1.171 0 2.22-.16 2.928-.302-.012.19-.031.368-.04.567-.008.13-.01.26-.01.388-.005 2.239.919 4.04 2.328 5.226 1.409 1.189 3.272 1.789 5.185 1.79 2.346 0 4.795-.907 6.586-2.822.696-.767 2.721-2.916 2.733-5.821M54.172 226.996c0 7.323-4.909 10.977-4.948 14.647M41.979 220.559c.283 4.919-2.85 8.541-3.132 12.527M32.145 204.777c1.127 7.755-3.342 9.475-3.501 15.509" transform="translate(1)"/>
        <path stroke="#F6BEA0" stroke-linejoin="round" d="M0 .704C.808 6.39 4.324 17.297 2.769 33.732 1.212 50.168.38 68.423 4.084 84.636c3.703 16.215 5.991 15.89 7.544 26.825 1.554 10.937 5.4 23.778 7.504 30.916 2.103 7.139 4.085 10.131 4.584 10.357M30.804 152.016c.384-.054 1.027-1.162.406-5.08-.443-2.789-5.265-26.151-6.172-32.538-.907-6.386-2.75-17.239-2.722-19.158.03-1.921 1.031-2.639 1.952 2.788.919 5.426 2.593 14.387 3.273 19.176.68 4.789 1.613 17.384 4.057 28.572 2.445 11.186 3.563 15.797 4.306 19.795.742 3.998 1.612 6.037 2.922 6.683M46.51 172.438c.64.02 2.261-.82 1.339-7.732-.924-6.912-2.201-12.22-2.884-19.887-.682-7.666-1.66-14.958-3.017-23.694-1.356-8.735-2.18-18.213-2.327-19.245-.146-1.033 1.01-2.694 1.65-.234.639 2.46 1.64 13.187 2.278 19.307.636 6.12-.565 6.235 2.502 27.427 3.068 21.191 3.973 23.891 4.375 26.718.402 2.826 1.428 5.565 2.772 6.039M61.834 181.075c.69-.042 1.69-2.403 1.324-7.84-.368-5.438-1.103-14.706-1.17-18.855-.068-4.15-.06-14.298-1.35-24.208-1.292-9.91-2.345-18.413-3.068-24.685-.358-3.11-.398-5.435-.19-6.018.206-.583 1.114-1.545 1.59.993.477 2.54 1.184 10.37 1.502 14.65.317 4.28.512 15.454 1.986 30.329 1.475 14.874 2.042 16.013 2.412 19.843.37 3.828 1.07 5.892 2.057 6.307M75.509 169.928c.625-.089 2.4-3.114 1.8-11.015-.6-7.9.554-22.647.112-29.85-.442-7.201-1.076-14.93-1.272-20.393-.195-5.462.203-26.757.66-32.534.454-5.777.09-21.419-.225-26.087" transform="translate(1)"/>
        <path stroke="#F6BEA0" stroke-linejoin="round" d="M55.753.704c.235 4.346.837 5.356 5.335 11.214 4.498 5.86 8.018 9.138 13.603 19.952 5.584 10.816 6.844 7.863 9.665 13.74 2.82 5.878.959 6.215 2.256 15.887 1.297 9.671.768 11.863 2.79 17.49 2.02 5.626 2.25 7.783 2.525 9.715.275 1.932.957 3.514.957 3.514M89.362 104.586c-3.452-1.918-7.486-5.325-8.879-8.272-1.747-3.694-3.829-5.57-4.1-10.103" transform="translate(1)"/>
        <path stroke="#2C4349" stroke-linejoin="round" d="M92.756 98.046c-.921-1.773-1.564-3.587-1.273-4.937.376-1.738 1.642-1.18 3.185 1.358M70.269 160.415c-2.475.336-4.265 3.147-4.144 4.737.11 1.449.5 4.984.583 5.561.082.577.307 2.16.807 2.786.5.63 1.827 2.098 4.225 1.78 2.397-.32 3.597-2.956 3.698-4.978.102-2.02-.18-5.451-.285-6.352-.106-.902-1.192-4.037-4.884-3.534zM41.293 162.592c2.225-.235 4.277 1.266 4.508 2.677.208 1.287.673 5.225.763 5.741.332 1.93-.796 4.823-3.424 5.053-2.622.23-3.908-1.67-4.27-3.546-.341-1.778-.81-4.717-.908-5.525-.098-.807.009-4.048 3.331-4.4zM25.712 143.967c2.015-.264 3.8 1.023 4.043 2.297.222 1.162.835 4.01.929 4.475.35 1.745-.184 4.127-2.627 4.471-2.368.335-4.1-1.256-4.548-3.348-.344-1.61-.602-3.095-.712-3.825-.109-.732-.092-3.675 2.915-4.07zM55.98 170.672c-2.837.402-3.808 3.082-3.688 4.673.11 1.45.761 4.652.827 5.232.45 3.955 2.725 5.313 5.123 4.994 2.398-.319 3.647-2.595 3.365-5.077-.228-2.008-.631-5.462-.759-6.361-.199-1.403-1.18-3.985-4.868-3.461z" transform="translate(1)"/>
        <path stroke="#F6BEA0" stroke-linejoin="round" d="M182.753 4.217c-.67 5.705-1.874 15.34.08 31.734 1.954 16.392 3.229 34.621-.08 50.92-3.31 16.3-5.605 16.03-6.893 27-1.286 10.971-4.821 23.901-6.75 31.09-1.93 7.187-3.837 10.226-4.33 10.463M157.675 154.879c-.385-.045-1.055-1.135-.528-5.07.375-2.797 4.628-26.27 5.38-32.676.752-6.407 2.33-17.3 2.255-19.22-.074-1.918-1.093-2.61-1.881 2.836-.789 5.447-2.244 14.445-2.808 19.25-.564 4.805-1.192 17.416-3.364 28.66-2.172 11.244-3.179 15.88-3.823 19.895-.646 4.014-1.465 6.074-2.759 6.751M142.47 175.676c-.641.035-2.282-.766-1.526-7.697.755-6.931 1.902-12.27 2.4-19.951.496-7.68 1.296-14.994 2.44-23.76 1.145-8.767 1.738-18.26 1.86-19.296.121-1.036-1.074-2.67-1.655-.194-.58 2.474-1.32 13.222-1.808 19.357-.489 6.134.715 6.22-1.837 27.48-2.553 21.259-3.393 23.98-3.725 26.816-.334 2.835-1.294 5.597-2.626 6.105M127.359 184.683c-.691-.025-1.747-2.362-1.513-7.807.235-5.445.745-14.727.712-18.877-.033-4.15-.289-14.296.762-24.234 1.05-9.938 1.896-18.464 2.468-24.753.282-3.117.266-5.442.045-6.019-.222-.58-1.153-1.518-1.568 1.03-.414 2.55-.93 10.395-1.144 14.683-.213 4.286-.138 15.462-1.25 30.367-1.114 14.905-1.654 16.058-1.93 19.896-.278 3.838-.926 5.917-1.903 6.355M113.418 173.87c-.627-.074-2.475-3.055-2.067-10.968.408-7.912-1.104-22.627-.836-29.838.268-7.21.713-14.952.777-20.418.063-5.465-.852-26.746-1.449-32.508-.595-5.765-.61-21.41-.408-26.086" transform="translate(1)"/>
        <path stroke="#F6BEA0" stroke-linejoin="round" d="M129.064 4.217c-.131 4.351-.708 5.375-5.063 11.341-4.354 5.965-7.794 9.329-13.114 20.275-5.32 10.947-6.652 8.026-9.33 13.97-2.677 5.944-.807 6.237-1.87 15.937-1.062 9.7-.48 11.88-2.364 17.552-1.883 5.675-2.06 7.836-2.289 9.775-.228 1.938-.872 3.537-.872 3.537M90.033 109.728s1.85 1.746 5.517.356c3.665-1.388 9.453-5.95 11.11-9.685 1.657-3.736 3.693-5.662 3.853-10.2" transform="translate(1)"/>
        <path stroke="#2C4349" stroke-linejoin="round" d="M93.219 104.643c1.422-2.38 2.826-5.273 2.365-7.181-.461-1.91-1.94-.992-3.62 2.304-1.682 3.296-3.304 6.744-3.849 9.446-.546 2.702 1.066 1.944 2.461-.222 1.397-2.164 2.643-4.347 2.643-4.347zM118.426 164.233c2.48.276 4.339 3.043 4.257 4.635-.074 1.451-.38 4.993-.448 5.573-.068.58-.255 2.167-.738 2.807-.485.638-1.776 2.14-4.181 1.88-2.405-.261-3.669-2.868-3.819-4.885-.15-2.02.048-5.455.131-6.359.084-.903 1.095-4.065 4.798-3.651zM147.445 165.707c-2.23-.181-4.245 1.369-4.44 2.785-.178 1.29-.548 5.24-.624 5.756-.286 1.94.912 4.804 3.544 4.97 2.628.165 3.868-1.764 4.182-3.647.3-1.788.697-4.737.775-5.545.078-.812-.108-4.048-3.437-4.32zM162.57 146.71c-2.02-.217-3.774 1.113-3.986 2.393-.193 1.167-.737 4.029-.82 4.496-.308 1.753.283 4.122 2.735 4.407 2.374.277 4.07-1.356 4.465-3.458.305-1.617.528-3.11.618-3.843.091-.732.004-3.674-3.012-3.996zM132.959 174.14c2.846.333 3.882 2.989 3.8 4.581-.076 1.452-.648 4.672-.7 5.251-.354 3.965-2.595 5.379-5 5.118-2.404-.261-3.708-2.506-3.487-4.994.18-2.014.5-5.477.605-6.38.164-1.404 1.082-4.01 4.782-3.576z" transform="translate(1)"/>
    </g>
</svg>
