<svg xmlns="http://www.w3.org/2000/svg" xmlns:xlink="http://www.w3.org/1999/xlink" width="54" height="53" viewBox="0 0 54 53">
    <defs>
        <path id="psh25a5c7a" d="M0 0H53.906V52.734H0z"/>
    </defs>
    <g fill="none" fill-rule="evenodd">
        <mask id="6n56ky54ib" fill="#fff">
            <use xlink:href="#psh25a5c7a"/>
        </mask>
        <g stroke-width="1.172" mask="url(#6n56ky54ib)">
            <g>
                <path stroke="#2C4349" stroke-linejoin="round" d="M5.368 14.622c-.002-.002-.003-.002-.005-.002.05.2.435 1.057.499 1.265 0 0 .878 1.063 5.19 1.275 2.037.098 5.674-.735 7.318-1.744 0 0 .751-2.888-1.546-6.976-.226-.402-.498-.743-.792-1.053-.041-.045-.08-.092-.125-.133-.292-.29-.612-.537-.953-.748-.047-.03-.093-.056-.143-.084-2.818-1.636-6.897-.812-8.364.715-.86.896-2.062 3.54-1.063 7.49-.005-.003-.011-.003-.016-.005z" transform="matrix(-1 0 0 1 38.672 19.922)"/>
                <path stroke="#F6BEA0" d="M1.536 33.568c.408-11.104-1.75-20.602-.058-25.323M21.178 33.568s.368-5.747.735-9.33c1.32-12.881.55-14.605.021-15.92-1.384-3.305-4.093-5.633-7.102-6.75C12.38.663 9.707.548 7.335 1.404c-2.371.848-4.41 2.72-5.469 5.593-.06.16-.118.332-.17.5-.084.26-.143.498-.218.749" transform="matrix(-1 0 0 1 38.672 19.922)"/>
            </g>
        </g>
    </g>
</svg>
