<svg xmlns="http://www.w3.org/2000/svg" xmlns:xlink="http://www.w3.org/1999/xlink" width="54" height="53" viewBox="0 0 54 53">
    <defs>
        <path id="qfxdvb8xha" d="M0 0H53.906V52.734H0z"/>
    </defs>
    <g fill="none" fill-rule="evenodd">
        <mask id="5w52dazykb" fill="#fff">
            <use xlink:href="#qfxdvb8xha"/>
        </mask>
        <g stroke-width="1.172" mask="url(#5w52dazykb)">
            <g>
                <path stroke="#2C4349" stroke-linejoin="round" d="M9.563 21.153l-.031-.014c.085.115.164.2.246.306.092.114.182.23.27.333.235.267.46.495.66.643 1.82 1.343 6.95 1.357 6.95 1.357s2.919.068 5.394-.675c3.712-1.112 4.863-9.415 5.024-12.026.16-2.61.304-5.955-8.84-5.642-.705.025-1.36.05-1.991.076-.138.005-.276.011-.41.018-.56.023-1.092.05-1.595.08l-.214.012c-1.16.072-2.168.165-3.048.29-.024.005-.054.007-.077.01h.015c-3.508.512-4.945 1.608-5.554 4.42-.756 3.481 1.393 8.377 3.201 10.812z" transform="matrix(-1 0 0 1 44.531 11.719)"/>
                <path stroke="#F6BEA0" d="M1.71 29.652c-1.907-9.202-.155-16.737-.155-16.737C2.93 6.943 5.505 2.1 14.467 1.018c2.343-.279 7.913-.256 9.552.028 3.758.676 5.829 2.089 7.392 5.068 1.55 2.98.753 6.16 1.564 10.805.718 4.123.535 7.642.04 10.797-.708 4.515-2.984 9.285-4.32 13.552M1.71 29.652c.82 5.524 1.633 7.601.85 12.037" transform="matrix(-1 0 0 1 44.531 11.719)"/>
            </g>
        </g>
    </g>
</svg>
