<svg width="251" height="159" xmlns="http://www.w3.org/2000/svg">
 <style>.st0,.st1{fill:none;stroke:#f7bfa0;stroke-width:1.4;stroke-linejoin:round}.st1{stroke:#2c4349}</style>

 <g>
  <title>Layer 1</title>
  <path height="161" width="253" y="-1" x="-1" d="m-1,-1l802,0l0,602l-802,0l0,-602z" id="canvas_background" fill="none"/>
  <g id="svg_3">
   <g id="Page-1">
    <g id="CLEAN-RIGHT-HAND">
     <path id="Stroke-1" class="st0" d="m204.314,3.1c-13.7,-1.9 -27.6,-2.7 -40.9,-1.6c-26.2,2.2 -26.2,5.9 -43.7,5.9c-17.5,0 -30.9,3.2 -42.5,4.9c-11.7,1.7 -16.8,4.2 -17.3,4.9"/>
     <path id="Stroke-4" class="st0" d="m59.414,28.9c0,0.6 1.6,1.9 7.9,1.8c4.5,-0.1 34.6,-2.4 44.8,-2.4c10.2,0 24.6,1.7 27.7,1.7c6.2,0 7,4.6 -0.8,5.3c-8.7,0.7 -24.2,1.6 -31.8,1.6c-7.7,0 -20,-1.3 -38.1,0s-25.6,2.1 -32,2.3c-6.4,0.3 -9.8,1.2 -11.1,3.1"/>
     <path id="Stroke-6" class="st0" d="m23.914,54.4c-0.2,1 0.8,3.7 11.8,3.8c11,0.1 19.6,-0.7 31.8,-0.1s16.2,0.7 30.2,0.5c14,-0.2 26,1.9 28.7,2.1c5.5,0.5 6,4.6 0.8,4.7c-4,0.1 -19.9,0.6 -29.6,0.2c-9.7,-0.4 -13.1,-0.7 -35.9,-1.2c-33.9,-0.7 -38.4,-0.1 -42.9,-0.1s-9,1 -10.1,3"/>
     <path id="Stroke-8" class="st0" d="m6.914,81c-0.1,1.1 3.4,3.2 12,3.8c8.6,0.6 23.3,1.5 29.8,2.4c6.5,0.8 16.5,1.5 32.3,1.7c15.8,0.2 33.3,3.1 43.2,3.8c3.4,0.2 5.1,1.5 5.1,3s-1.8,1.7 -5.9,2c-4.8,0.4 -13.6,0.7 -20.4,0.3c-6.8,-0.5 -16.7,-2.6 -40.4,-3.6c-23.6,-1 -25.6,-0.4 -31.6,-0.6c-6.1,-0.3 -9.5,0.4 -10.3,1.8"/>
     <path id="Stroke-10" class="st0" d="m21.414,109.7c0,1 4.3,4.5 16.9,5.3c12.5,0.8 27.8,5.9 39.2,6.8c11.4,0.9 23.6,1.6 32.3,2.5c8.6,0.9 36.3,4.4 45.2,6.4"/>
     <path id="Stroke-12" class="st0" d="m204.214,140.2c-10.8,5.9 -12.9,6.2 -21.6,9c-9.8,3.1 -10.1,2 -25.4,0c-15.9,-2.1 -23.2,-3.8 -32.5,-1.9s-12.7,1.8 -15.8,1.8c-3.1,0 -5.7,0.7 -5.7,0.7"/>
     <path id="Stroke-14" class="st0" d="m80.914,152.3s-2.4,-4.2 0.5,-9.7c2.9,-5.5 12,-11.3 18.2,-13.2c6.2,-1.9 9.6,-4.8 16.8,-4.2"/>
     <path id="Stroke-16" class="st1" d="m86.114,146.8c4.6,-2.7 9.9,-3.7 14.4,-2.5c0.7,0.2 1.2,0.8 1.9,2.3c0.8,1.9 0.9,3.3 0.9,3.3s-2.8,1.5 -5.5,2.7c-5.9,2.5 -10.4,4.8 -15.6,4.8c-0.9,0 -2.9,-0.2 -1.9,-4.2c0.6,-2.1 3.1,-4.7 5.8,-6.4z"/>
     <path id="Stroke-18" class="st1" d="m37.514,103.6c0,-4 -4,-7.4 -6.5,-7.6c-2.3,-0.2 -7.9,-0.3 -8.8,-0.3c-0.9,0 -3.5,0 -4.6,0.6c-1.1,0.6 -3.7,2.4 -3.7,6.2c0,3.8 3.8,6.3 7,6.9c3.1,0.6 8.6,0.9 10,1c1.4,0.1 6.5,-0.9 6.6,-6.8z"/>
     <path id="Stroke-20" class="st1" d="m40.514,48.2c-0.1,3.5 -2.9,6.4 -5.2,6.5c-2.1,0 -8.3,-0.1 -9.2,-0.1c-3.1,0.1 -7.4,-2.3 -7.2,-6.5c0.2,-4.2 3.5,-5.8 6.5,-5.9c2.9,-0.1 7.6,-0.2 8.9,-0.2c1.3,0 6.4,0.9 6.2,6.2z"/>
     <path id="Stroke-22" class="st1" d="m73.214,22.2c0,3.2 -2.4,5.7 -4.5,5.8c-1.9,0.1 -6.5,0.4 -7.2,0.5c-2.8,0.2 -6.4,-1.2 -6.4,-5.1c0,-3.8 2.9,-6.2 6.3,-6.4c2.6,-0.2 5,-0.3 6.2,-0.3c1,0 5.6,0.7 5.6,5.5z"/>
     <path id="Stroke-24" class="st1" d="m24.614,74.1c0,-4.5 -4,-6.7 -6.5,-6.8c-2.3,-0.2 -7.5,0.2 -8.4,0.1c-6.3,-0.2 -8.9,3.1 -9,6.9c0,3.8 3.3,6.3 7.2,6.4c3.2,0.1 8.7,0.2 10.1,0.2c2.3,0.1 6.6,-0.9 6.6,-6.8z"/>
    </g>
   </g>
   <g id="Page-1_1_" transform="rotate(-45 164.60000610351562,77.44999694824217) ">
    <g id="FIT-REVIEW-SOME-Copy">
     <g id="svg_1">
      <path fill="#f7bfa0" d="m173.5,94.1l-10.1,-16.8l-7.8,0l0,16.8l-1,0l0,-33.3l9.2,0c1.2,0 2.5,0.1 3.7,0.3c1.3,0.2 2.4,0.6 3.4,1.2s1.8,1.4 2.4,2.5c0.6,1.1 0.9,2.4 0.9,4.1c0,1.6 -0.3,2.9 -0.9,3.9c-0.6,1 -1.4,1.9 -2.3,2.5c-0.9,0.6 -2,1.1 -3.1,1.4c-1.1,0.3 -2.3,0.4 -3.4,0.4l10.1,16.8l-1.1,0l0,0.2zm-0.3,-25.1c0,-1.4 -0.3,-2.6 -0.8,-3.6c-0.6,-1 -1.3,-1.7 -2.2,-2.3c-0.9,-0.5 -2,-0.9 -3.2,-1.2c-1.2,-0.2 -2.4,-0.3 -3.7,-0.3l-7.7,0l0,14.7l8.1,0c3.1,0 5.4,-0.6 7,-1.9c1.7,-1.2 2.5,-3 2.5,-5.4z" id="svg_2"/>
     </g>
    </g>
   </g>
  </g>
  <line stroke="#f7bfa0" stroke-linecap="null" stroke-linejoin="null" id="svg_4" y2="117.55738" x2="253.55159" y1="140.62973" x1="203.56148" fill-opacity="null" stroke-opacity="null" stroke-width="1.5" fill="none"/>
 </g>
</svg>