<?xml version="1.0" encoding="UTF-8"?>
<svg width="173px" height="75px" viewBox="0 0 173 75" version="1.1" xmlns="http://www.w3.org/2000/svg" xmlns:xlink="http://www.w3.org/1999/xlink">
    <!-- Generator: Sketch 55.2 (78181) - https://sketchapp.com -->
    <title>ALL HANDS</title>
    <desc>Created with Sketch.</desc>
    <g id="Page-1" stroke="none" stroke-width="1" fill="none" fill-rule="evenodd" stroke-linejoin="round">
        <g id="ALL-HANDS" transform="translate(0.000000, 1.000000)" stroke-width="1.4">
            <path d="M147.503817,54.3449862 C151.753512,53.5022717 153.7526,52.7326499 159.404605,52.7326499 C168.150666,52.7326499 174.84537,51.1360244 180.675444,50.2760086 C186.505518,49.4169494 189.071852,48.1876721 189.304637,47.8203238" id="Stroke-26" stroke="#F7BFA0" transform="translate(168.404227, 51.082655) rotate(-90.000000) translate(-168.404227, -51.082655) "></path>
            <path d="M168.972559,46.0559182 C168.972559,45.7469247 168.176339,45.1145883 165.035168,45.1662466 C162.800433,45.2035554 147.749227,46.3907408 142.642211,46.3907408 C137.534245,46.3907408 130.333116,45.5182887 128.812888,45.5182887 C125.719224,45.5182887 125.29261,43.1831401 129.212898,42.8722334 C133.557899,42.5278444 141.290159,42.0897051 145.120183,42.0897051 C148.951157,42.0897051 155.126133,42.7650901 164.168639,42.0897051 C173.210194,41.41432 176.949955,41.0488851 180.166187,40.9111295 C183.383369,40.7743305 185.078423,40.3151452 185.730221,39.353726" id="Stroke-28" stroke="#F7BFA0" transform="translate(156.056436, 42.872233) rotate(-90.000000) translate(-156.056436, -42.872233) "></path>
            <path d="M166.094795,38.4708951 C166.182208,37.9667479 165.703336,36.5930185 160.183008,36.5471 C154.661731,36.5011815 150.358535,36.9134916 144.271923,36.5930185 C138.18626,36.2725454 136.161507,36.2266269 129.162758,36.318464 C122.164008,36.410301 116.151507,35.369481 114.787102,35.2451183 C112.03549,34.9925664 111.765649,32.9252759 114.402295,32.8602246 C116.413746,32.8104796 124.336984,32.5770604 129.205514,32.7597779 C134.074994,32.943452 135.758647,33.1012969 147.159406,33.3452391 C164.109947,33.7078042 166.356084,33.400724 168.616473,33.400724 C170.876862,33.400724 173.137251,32.8975334 173.658879,31.8901957" id="Stroke-30" stroke="#F7BFA0" transform="translate(143.112768, 35.180545) rotate(-90.000000) translate(-143.112768, -35.180545) "></path>
            <path d="M159.286081,38.645468 C159.329787,38.0963589 157.591027,37.0421459 153.286881,36.7216729 C148.983686,36.4011998 141.636235,35.9439278 138.376296,35.5316176 C135.116357,35.1193075 130.13666,34.7768318 122.224824,34.6849947 C114.312988,34.5941143 105.59068,33.1419408 100.604333,32.7832022 C98.8940764,32.6597962 98.0750536,32.0437226 98.0750536,31.2717173 C98.0750536,30.5360641 98.9719881,30.4279643 101.009093,30.2576831 C103.391101,30.0587028 107.833967,29.8884215 111.225025,30.1170576 C114.616084,30.3456936 119.59673,31.445825 131.420303,31.9490156 C143.244826,32.4522062 144.201619,32.1317331 147.244925,32.2694887 C150.287282,32.4072443 151.982336,32.0867712 152.417501,31.353988" id="Stroke-32" stroke="#F7BFA0" transform="translate(128.680968, 34.326555) rotate(-90.000000) translate(-128.680968, -34.326555) "></path>
            <path d="M144.267239,46.2411137 C144.267239,45.7369665 142.093313,43.9968455 135.833774,43.585492 C129.574236,43.1731819 121.940791,40.6084406 116.246588,40.1511686 C110.551434,39.6929399 104.422065,39.3255917 100.11887,38.8683197 C97.0558392,38.5422228 89.1674249,37.5504508 83.258897,36.6422071" id="Stroke-34" stroke="#F7BFA0" transform="translate(113.763068, 41.441660) rotate(-90.000000) translate(-113.763068, -41.441660) "></path>
            <path d="M89.0956885,62.3963385 C92.860729,62.892154 95.5139596,63.0639584 98.5933209,62.4232839 C103.229066,61.4589948 104.945973,61.5192629 106.490905,61.5192629 C108.036787,61.5192629 109.352734,61.1576544 109.352734,61.1576544" id="Stroke-36" stroke="#F7BFA0" transform="translate(99.224211, 61.998434) rotate(-90.000000) translate(-99.224211, -61.998434) "></path>
            <path d="M112.562152,42.4847302 C112.562152,42.4847302 113.759332,44.5797631 112.328417,47.3540077 C110.898453,50.126339 106.309265,53.051732 103.219402,54.0160212 C100.129539,54.9803103 98.4259331,56.4143078 94.8419958,56.1187072" id="Stroke-38" stroke="#F7BFA0" transform="translate(103.936596, 49.321413) rotate(-90.000000) translate(-103.936596, -49.321413) "></path>
            <path d="M100.719432,48.0145238 C98.4229374,49.3643372 95.7938933,49.8713544 93.5116511,49.2524108 C93.1515471,49.1548339 92.8959588,48.8410573 92.5700599,48.0757485 C92.1719503,47.1401584 92.1253933,46.4293778 92.1253933,46.4293778 C92.1253933,46.4293778 93.5145015,45.6554593 94.8608534,45.0757378 C97.8300485,43.7957588 100.051482,42.6774512 102.685276,42.6669051 C103.124242,42.665015 104.157997,42.7769414 103.630668,44.7619612 C103.334224,45.8793121 102.115191,47.1956433 100.719432,48.0145238 Z" id="Stroke-40" stroke="#2C4349" fill="#2C4349" transform="translate(97.951227, 46.090350) rotate(-90.000000) translate(-97.951227, -46.090350) "></path>
            <path d="M115.976621,12.8171548 C115.965268,14.8069578 117.969118,16.5365558 119.229007,16.6197831 C120.376779,16.6953574 123.191101,16.7824112 123.65287,16.7824112 C124.114639,16.7824112 125.380229,16.7824112 125.928461,16.4581116 C126.475743,16.133812 127.775538,15.2508369 127.792753,13.3222586 C127.809743,11.394637 125.876203,10.1519668 124.302768,9.84584322 C122.729332,9.53876304 120.010024,9.37613492 119.290766,9.35891547 C118.572458,9.34073938 115.993772,9.84775649 115.976621,12.8171548 Z" id="Stroke-42" stroke="#2C4349" fill="#2C4349" transform="translate(121.884687, 13.070432) rotate(-90.000000) translate(-121.884687, -13.070432) "></path>
            <path d="M144.055866,15.1822202 C144.118576,13.3990506 145.523837,11.9478337 146.656406,11.9248745 C147.687311,11.9038285 150.826582,11.9784461 151.240844,11.9660098 C152.791476,11.9191347 154.934047,13.1340624 154.82098,15.2348352 C154.708864,17.3298682 153.077469,18.1315292 151.567693,18.2061468 C150.133928,18.2769379 147.778525,18.3171166 147.134328,18.3046803 C146.490131,18.2912874 143.961802,17.8435817 144.055866,15.1822202 Z" id="Stroke-44" stroke="#2C4349" fill="#2C4349" transform="translate(149.439293, 15.114016) rotate(-90.000000) translate(-149.439293, -15.114016) "></path>
            <path d="M130.488624,6.56195838 C130.488624,8.84640528 132.481072,9.91305448 133.740961,9.99628182 C134.889684,10.0718561 137.474071,9.91783766 137.93489,9.93027393 C141.085563,10.0182844 142.40341,8.37574034 142.420513,6.44716206 C142.437615,4.51858377 140.791969,3.27782681 138.815672,3.22234192 C137.215632,3.17738003 134.46212,3.10850082 133.743812,3.10850082 C132.622644,3.10754559 130.488624,3.59256007 130.488624,6.56195838 Z" id="Stroke-48" stroke="#2C4349" fill="#2C4349" transform="translate(136.454634, 6.562873) rotate(-90.000000) translate(-136.454634, -6.562873) "></path>
            <path d="M157.837525,32.5027766 C157.854628,30.8822351 159.061308,29.6175623 160.087462,29.5697305 C161.023353,29.5247686 163.323647,29.3592705 163.698954,29.3372679 C165.105165,29.2559538 166.913286,29.9447318 166.912336,31.9125322 C166.911385,33.8181512 165.470019,35.0072498 163.780666,35.1258727 C162.480871,35.2177097 161.287492,35.2550185 160.702204,35.2588938 C160.116917,35.2636282 157.811871,34.9201959 157.837525,32.5027766 Z" id="Stroke-46" stroke="#2C4349" fill="#2C4349" transform="translate(162.374824, 32.294898) rotate(-90.000000) translate(-162.374824, -32.294898) "></path>
            <path d="M-16.3046374,54.3449862 C-12.0549427,53.5022717 -10.055854,52.7326499 -4.40384977,52.7326499 C4.34221148,52.7326499 11.0369152,51.1360244 16.8669893,50.2760086 C22.6970633,49.4169494 25.2633981,48.1876721 25.496183,47.8203238" id="Stroke-26" stroke="#F7BFA0" transform="translate(4.595773, 51.082655) scale(-1, 1) rotate(-90.000000) translate(-4.595773, -51.082655) "></path>
            <path d="M29.8596861,46.0559182 C29.8596861,45.7469247 29.0634667,45.1145883 25.9222957,45.1662466 C23.6875607,45.2035554 8.63635415,46.3907408 3.52933848,46.3907408 C-1.57862734,46.3907408 -8.77975697,45.5182887 -10.2999849,45.5182887 C-13.3936487,45.5182887 -13.8202627,43.1831401 -9.89997491,42.8722334 C-5.55497349,42.5278444 2.17728577,42.0897051 6.00730999,42.0897051 C9.83828435,42.0897051 16.0132601,42.7650901 25.0557658,42.0897051 C34.0973214,41.41432 37.8370821,41.0488851 41.0533143,40.9111295 C44.2704966,40.7743305 45.9655507,40.3151452 46.6173484,39.353726" id="Stroke-28" stroke="#F7BFA0" transform="translate(16.943564, 42.872233) scale(-1, 1) rotate(-90.000000) translate(-16.943564, -42.872233) "></path>
            <path d="M52.8692588,38.4708951 C52.9566719,37.9667479 52.4778002,36.5930185 46.9574725,36.5471 C41.4361947,36.5011815 37.1329996,36.9134916 31.046387,36.5930185 C24.9607247,36.2725454 22.9359711,36.2266269 15.9372218,36.318464 C8.93847252,36.410301 2.92597109,35.369481 1.56156653,35.2451183 C-1.190046,34.9925664 -1.45988646,32.9252759 1.17675884,32.8602246 C3.18821041,32.8104796 11.1114483,32.5770604 15.9799782,32.7597779 C20.8494583,32.943452 22.5331107,33.1012969 33.93387,33.3452391 C50.8844113,33.7078042 53.130548,33.400724 55.3909369,33.400724 C57.6513258,33.400724 59.9117147,32.8975334 60.4333429,31.8901957" id="Stroke-30" stroke="#F7BFA0" transform="translate(29.887232, 35.180545) scale(-1, 1) rotate(-90.000000) translate(-29.887232, -35.180545) "></path>
            <path d="M74.9241441,38.645468 C74.9678506,38.0963589 73.2290899,37.0421459 68.9249446,36.7216729 C64.6217495,36.4011998 57.2742979,35.9439278 54.0143592,35.5316176 C50.7544204,35.1193075 45.7747238,34.7768318 37.8628877,34.6849947 C29.9510515,34.5941143 21.2287438,33.1419408 16.2423962,32.7832022 C14.5321398,32.6597962 13.713117,32.0437226 13.713117,31.2717173 C13.713117,30.5360641 14.6100515,30.4279643 16.6471569,30.2576831 C19.029164,30.0587028 23.4720301,29.8884215 26.8630885,30.1170576 C30.2541469,30.3456936 35.2347936,31.445825 47.0583663,31.9490156 C58.8828891,32.4522062 59.8396825,32.1317331 62.8829888,32.2694887 C65.9253449,32.4072443 67.6203991,32.0867712 68.0555643,31.353988" id="Stroke-32" stroke="#F7BFA0" transform="translate(44.319032, 34.326555) scale(-1, 1) rotate(-90.000000) translate(-44.319032, -34.326555) "></path>
            <path d="M89.741103,46.2411137 C89.741103,45.7369665 87.567177,43.9968455 81.3076386,43.585492 C75.0481001,43.1731819 67.4146557,40.6084406 61.720452,40.1511686 C56.0252981,39.6929399 49.8959292,39.3255917 45.592734,38.8683197 C42.5297035,38.5422228 34.6412892,37.5504508 28.7327613,36.6422071" id="Stroke-34" stroke="#F7BFA0" transform="translate(59.236932, 41.441660) scale(-1, 1) rotate(-90.000000) translate(-59.236932, -41.441660) "></path>
            <path d="M63.647266,62.3963385 C67.4123065,62.892154 70.0655371,63.0639584 73.1448984,62.4232839 C77.7806434,61.4589948 79.4975508,61.5192629 81.0424824,61.5192629 C82.5883642,61.5192629 83.9043115,61.1576544 83.9043115,61.1576544" id="Stroke-36" stroke="#F7BFA0" transform="translate(73.775789, 61.998434) scale(-1, 1) rotate(-90.000000) translate(-73.775789, -61.998434) "></path>
            <path d="M77.6889611,42.4847302 C77.6889611,42.4847302 78.8861406,44.5797631 77.455226,47.3540077 C76.0252616,50.126339 71.4360736,53.051732 68.3462104,54.0160212 C65.2563471,54.9803103 63.5527417,56.4143078 59.9688044,56.1187072" id="Stroke-38" stroke="#F7BFA0" transform="translate(69.063404, 49.321413) scale(-1, 1) rotate(-90.000000) translate(-69.063404, -49.321413) "></path>
            <path d="M77.8169777,48.0145238 C75.5204834,49.3643372 72.8914393,49.8713544 70.6091971,49.2524108 C70.2490931,49.1548339 69.9935048,48.8410573 69.6676059,48.0757485 C69.2694963,47.1401584 69.2229393,46.4293778 69.2229393,46.4293778 C69.2229393,46.4293778 70.6120475,45.6554593 71.9583994,45.0757378 C74.9275945,43.7957588 77.1490276,42.6774512 79.7828225,42.6669051 C80.2217883,42.665015 81.2555433,42.7769414 80.7282142,44.7619612 C80.4317698,45.8793121 79.212737,47.1956433 77.8169777,48.0145238 Z" id="Stroke-40" stroke="#2C4349" fill="#2C4349" transform="translate(75.048773, 46.090350) scale(-1, 1) rotate(-90.000000) translate(-75.048773, -46.090350) "></path>
            <path d="M45.2072466,12.8171548 C45.1958933,14.8069578 47.1997437,16.5365558 48.4596326,16.6197831 C49.6074047,16.6953574 52.4217267,16.7824112 52.8834959,16.7824112 C53.3452651,16.7824112 54.6108549,16.7824112 55.159087,16.4581116 C55.7063691,16.133812 57.006164,15.2508369 57.0233792,13.3222586 C57.0403691,11.394637 55.1068292,10.1519668 53.5333933,9.84584322 C51.9599574,9.53876304 49.2406497,9.37613492 48.5213919,9.35891547 C47.8030842,9.34073938 45.2243976,9.84775649 45.2072466,12.8171548 Z" id="Stroke-42" stroke="#2C4349" fill="#2C4349" transform="translate(51.115313, 13.070432) scale(-1, 1) rotate(-90.000000) translate(-51.115313, -13.070432) "></path>
            <path d="M18.1772801,15.1822202 C18.2399895,13.3990506 19.6452502,11.9478337 20.77782,11.9248745 C21.8087245,11.9038285 24.9479952,11.9784461 25.3622573,11.9660098 C26.9128898,11.9191347 29.055461,13.1340624 28.9423941,15.2348352 C28.8302773,17.3298682 27.1988827,18.1315292 25.6891063,18.2061468 C24.2553414,18.2769379 21.8999382,18.3171166 21.2557416,18.3046803 C20.6115451,18.2912874 18.083216,17.8435817 18.1772801,15.1822202 Z" id="Stroke-44" stroke="#2C4349" fill="#2C4349" transform="translate(23.560707, 15.114016) scale(-1, 1) rotate(-90.000000) translate(-23.560707, -15.114016) "></path>
            <path d="M30.5793552,6.56195838 C30.5793552,8.84640528 32.5718039,9.91305448 33.8316928,9.99628182 C34.980415,10.0718561 37.5648025,9.91783766 38.0256216,9.93027393 C41.176294,10.0182844 42.4941415,8.37574034 42.5112441,6.44716206 C42.5283467,4.51858377 40.8826999,3.27782681 38.9064036,3.22234192 C37.3063638,3.17738003 34.5528509,3.10850082 33.8345432,3.10850082 C32.7133752,3.10754559 30.5793552,3.59256007 30.5793552,6.56195838 Z" id="Stroke-48" stroke="#2C4349" fill="#2C4349" transform="translate(36.545366, 6.562873) scale(-1, 1) rotate(-90.000000) translate(-36.545366, -6.562873) "></path>
            <path d="M6.08787656,32.5027766 C6.10497912,30.8822351 7.31166003,29.6175623 8.33781388,29.5697305 C9.27370419,29.5247686 11.5739991,29.3592705 11.9493053,29.3372679 C13.3555162,29.2559538 15.1636372,29.9447318 15.1626875,31.9125322 C15.161737,33.8181512 13.7203709,35.0072498 12.0310176,35.1258727 C10.7312227,35.2177097 9.53784379,35.2550185 8.95255605,35.2588938 C8.3672683,35.2636282 6.06222271,34.9201959 6.08787656,32.5027766 Z" id="Stroke-46" stroke="#2C4349" fill="#2C4349" transform="translate(10.625176, 32.294898) scale(-1, 1) rotate(-90.000000) translate(-10.625176, -32.294898) "></path>
        </g>
    </g>
</svg>