<svg xmlns="http://www.w3.org/2000/svg" width="17" height="19" viewBox="0 0 17 19">
    <path fill="#2C4349" fill-rule="evenodd" stroke="#2C4349" stroke-linejoin="round" stroke-width="1.54" d="M2.967 2.482c-.375.183-.756.382-1.145.613 0 0-1.766 2.01-.737 7.399.485 2.549 1.468 5.163 3.208 6.897 0 0 4.93 1.692 9.292-2.371.49-.454.858-.96 1.174-1.488.064-.106.135-.206.19-.313.257-.492.45-1.003.585-1.528.045-.166.076-.333.109-.501.024-.124.062-.245.08-.37-.014.013-.033.025-.044.037.544-3.723-1.466-7.812-3.583-9.045-1.326-.77-4.762-1.445-9.131.696.002-.01.002-.02.002-.026z"/>
</svg>
