<svg xmlns="http://www.w3.org/2000/svg" width="20" height="23" viewBox="0 0 20 23">
    <path fill="#2C4349" fill-rule="evenodd" stroke="#2C4349" stroke-linejoin="round" stroke-width="1.54" d="M2.942 3.702v-.007c-.247.171-1.216 1.121-1.466 1.314 0 0-1.002 1.727.88 7.689.89 2.815 3.853 7.337 6.051 9.062 0 0 4.3-.435 8.694-5.612.432-.509.758-1.05 1.033-1.607.038-.078.084-.154.12-.235.246-.544.417-1.102.534-1.673.016-.078.028-.156.043-.235.8-4.652-2.372-9.775-5.18-10.998C11.997.682 7.804.383 2.945 3.728c-.003-.01-.003-.019-.003-.026z"/>
</svg>
