<?xml version="1.0" encoding="UTF-8"?>
<svg width="80px" height="75px" viewBox="0 0 80 75" version="1.1" xmlns="http://www.w3.org/2000/svg" xmlns:xlink="http://www.w3.org/1999/xlink">
    <!-- Generator: Sketch 55.2 (78181) - https://sketchapp.com -->
    <title>RIGHT MIDDLE NAIL</title>
    <desc>Created with Sketch.</desc>
    <g id="Page-1" stroke="none" stroke-width="1" fill="none" fill-rule="evenodd" stroke-linejoin="round">
        <g id="RIGHT-MIDDLE-NAIL" transform="translate(39.500000, 38.000000) scale(-1, 1) translate(-39.500000, -38.000000) translate(0.000000, 1.000000)" stroke-width="1.4">
            <path d="M53.503817,54.3449862 C57.7535116,53.5022717 59.7526004,52.7326499 65.4046046,52.7326499 C74.1506659,52.7326499 80.8453696,51.1360244 86.6754436,50.2760086 C92.5055177,49.4169494 95.0718525,48.1876721 95.3046374,47.8203238" id="Stroke-26" stroke="#F7BFA0" transform="translate(74.404227, 51.082655) rotate(-90.000000) translate(-74.404227, -51.082655) "></path>
            <path d="M74.9725588,46.0559182 C74.9725588,45.7469247 74.1763394,45.1145883 71.0351685,45.1662466 C68.8004334,45.2035554 53.7492269,46.3907408 48.6422112,46.3907408 C43.5342454,46.3907408 36.3331158,45.5182887 34.8128879,45.5182887 C31.719224,45.5182887 31.2926101,43.1831401 35.2128978,42.8722334 C39.5578993,42.5278444 47.2901585,42.0897051 51.1201827,42.0897051 C54.9511571,42.0897051 61.1261329,42.7650901 70.1686386,42.0897051 C79.2101941,41.41432 82.9499548,41.0488851 86.166187,40.9111295 C89.3833693,40.7743305 91.0784235,40.3151452 91.7302212,39.353726" id="Stroke-28" stroke="#F7BFA0" transform="translate(62.056436, 42.872233) rotate(-90.000000) translate(-62.056436, -42.872233) "></path>
            <path d="M72.0947947,38.4708951 C72.1822078,37.9667479 71.703336,36.5930185 66.1830083,36.5471 C60.6617306,36.5011815 56.3585354,36.9134916 50.2719229,36.5930185 C44.1862605,36.2725454 42.1615069,36.2266269 35.1627576,36.318464 C28.1640083,36.410301 22.1515069,35.369481 20.7871024,35.2451183 C18.0354898,34.9925664 17.7656494,32.9252759 20.4022947,32.8602246 C22.4137462,32.8104796 30.3369841,32.5770604 35.205514,32.7597779 C40.0749941,32.943452 41.7586465,33.1012969 53.1594058,33.3452391 C70.1099471,33.7078042 72.3560838,33.400724 74.6164727,33.400724 C76.8768616,33.400724 79.1372505,32.8975334 79.6588787,31.8901957" id="Stroke-30" stroke="#F7BFA0" transform="translate(49.112768, 35.180545) rotate(-90.000000) translate(-49.112768, -35.180545) "></path>
            <path d="M65.2860807,38.645468 C65.3297872,38.0963589 63.5910265,37.0421459 59.2868812,36.7216729 C54.9836861,36.4011998 47.6362345,35.9439278 44.3762958,35.5316176 C41.116357,35.1193075 36.1366604,34.7768318 28.2248243,34.6849947 C20.3129881,34.5941143 11.5906804,33.1419408 6.6043328,32.7832022 C4.89407639,32.6597962 4.0750536,32.0437226 4.0750536,31.2717173 C4.0750536,30.5360641 4.97198807,30.4279643 7.00909348,30.2576831 C9.3911006,30.0587028 13.8339667,29.8884215 17.2250251,30.1170576 C20.6160835,30.3456936 25.5967302,31.445825 37.4203029,31.9490156 C49.2448257,32.4522062 50.2016191,32.1317331 53.2449254,32.2694887 C56.2872815,32.4072443 57.9823356,32.0867712 58.4175009,31.353988" id="Stroke-32" stroke="#F7BFA0" transform="translate(34.680968, 34.326555) rotate(-90.000000) translate(-34.680968, -34.326555) "></path>
            <path d="M50.2672387,46.2411137 C50.2672387,45.7369665 48.0933128,43.9968455 41.8337743,43.585492 C35.5742359,43.1731819 27.9407914,40.6084406 22.2465877,40.1511686 C16.5514339,39.6929399 10.4220649,39.3255917 6.11886978,38.8683197 C3.05583923,38.5422228 -4.83257505,37.5504508 -10.741103,36.6422071" id="Stroke-34" stroke="#F7BFA0" transform="translate(19.763068, 41.441660) rotate(-90.000000) translate(-19.763068, -41.441660) "></path>
            <path d="M-4.90431148,62.3963385 C-1.13927104,62.892154 1.51395964,63.0639584 4.59332087,62.4232839 C9.22906589,61.4589948 10.9459733,61.5192629 12.4909049,61.5192629 C14.0367867,61.5192629 15.352734,61.1576544 15.352734,61.1576544" id="Stroke-36" stroke="#F7BFA0" transform="translate(5.224211, 61.998434) rotate(-90.000000) translate(-5.224211, -61.998434) "></path>
            <path d="M18.5621525,42.4847302 C18.5621525,42.4847302 19.759332,44.5797631 18.3284174,47.3540077 C16.898453,50.126339 12.309265,53.051732 9.21940175,54.0160212 C6.12953851,54.9803103 4.42593309,56.4143078 0.841995771,56.1187072" id="Stroke-38" stroke="#F7BFA0" transform="translate(9.936596, 49.321413) rotate(-90.000000) translate(-9.936596, -49.321413) "></path>
            <path d="M6.71943174,48.0145238 C4.42293744,49.3643372 1.79389328,49.8713544 -0.488348886,49.2524108 C-0.848452875,49.1548339 -1.10404119,48.8410573 -1.42994005,48.0757485 C-1.82804974,47.1401584 -1.87460672,46.4293778 -1.87460672,46.4293778 C-1.87460672,46.4293778 -0.485498459,45.6554593 0.860853393,45.0757378 C3.83004855,43.7957588 6.0514816,42.6774512 8.68527647,42.6669051 C9.12424228,42.665015 10.1579973,42.7769414 9.63066821,44.7619612 C9.33422376,45.8793121 8.115191,47.1956433 6.71943174,48.0145238 Z" id="Stroke-40" stroke="#2C4349" transform="translate(3.951227, 46.090350) rotate(-90.000000) translate(-3.951227, -46.090350) "></path>
            <path d="M21.9766208,12.8171548 C21.9652675,14.8069578 23.969118,16.5365558 25.2290069,16.6197831 C26.3767789,16.6953574 29.1911009,16.7824112 29.6528701,16.7824112 C30.1146393,16.7824112 31.3802291,16.7824112 31.9284613,16.4581116 C32.4757433,16.133812 33.7755382,15.2508369 33.7927534,13.3222586 C33.8097433,11.394637 31.8762034,10.1519668 30.3027675,9.84584322 C28.7293316,9.53876304 26.0100239,9.37613492 25.2907661,9.35891547 C24.5724584,9.34073938 21.9937718,9.84775649 21.9766208,12.8171548 Z" id="Stroke-42" stroke="#2C4349" transform="translate(27.884687, 13.070432) rotate(-90.000000) translate(-27.884687, -13.070432) "></path>
            <path d="M50.0558664,15.1822202 C50.1185758,13.3990506 51.5238365,11.9478337 52.6564063,11.9248745 C53.6873109,11.9038285 56.8265815,11.9784461 57.2408436,11.9660098 C58.7914761,11.9191347 60.9340473,13.1340624 60.8209804,15.2348352 C60.7088636,17.3298682 59.077469,18.1315292 57.5676926,18.2061468 C56.1339277,18.2769379 53.7785245,18.3171166 53.134328,18.3046803 C52.4901314,18.2912874 49.9618023,17.8435817 50.0558664,15.1822202 Z" id="Stroke-44" stroke="#2C4349" transform="translate(55.439293, 15.114016) rotate(-90.000000) translate(-55.439293, -15.114016) "></path>
            <path d="M36.4886238,6.56195838 C36.4886238,8.84640528 38.4810725,9.91305448 39.7409614,9.99628182 C40.8896836,10.0718561 43.4740711,9.91783766 43.9348902,9.93027393 C47.0855625,10.0182844 48.4034101,8.37574034 48.4205127,6.44716206 C48.4376152,4.51858377 46.7919685,3.27782681 44.8156722,3.22234192 C43.2156323,3.17738003 40.4621195,3.10850082 39.7438118,3.10850082 C38.6226437,3.10754559 36.4886238,3.59256007 36.4886238,6.56195838 Z" id="Stroke-48" stroke="#2C4349" fill="#2C4349" transform="translate(42.454634, 6.562873) rotate(-90.000000) translate(-42.454634, -6.562873) "></path>
            <path d="M63.837525,32.5027766 C63.8546275,30.8822351 65.0613085,29.6175623 66.0874623,29.5697305 C67.0233526,29.5247686 69.3236475,29.3592705 69.6989538,29.3372679 C71.1051646,29.2559538 72.9132857,29.9447318 72.9123359,31.9125322 C72.9113854,33.8181512 71.4700193,35.0072498 69.780666,35.1258727 C68.4808711,35.2177097 67.2874922,35.2550185 66.7022045,35.2588938 C66.1169167,35.2636282 63.8118711,34.9201959 63.837525,32.5027766 Z" id="Stroke-46" stroke="#2C4349" transform="translate(68.374824, 32.294898) rotate(-90.000000) translate(-68.374824, -32.294898) "></path>
        </g>
    </g>
</svg>