<svg xmlns="http://www.w3.org/2000/svg" width="30" height="34" viewBox="0 0 30 34">
    <path fill="#2C4349" fill-rule="evenodd" stroke="#2C4349" stroke-linejoin="round" stroke-width="1.54" d="M26.452 8.91l-.011-.05c.144.153.247.286.373.43.142.162.287.317.408.469.323.4.592.78.758 1.1 1.461 2.93.205 10.25.205 10.25s-.625 4.184-2.298 7.532c-2.51 5.018-14.641 4.6-18.407 4.182-3.764-.418-8.575-1.046-5.854-14.014.209-1 .408-1.93.6-2.823l.127-.582c.175-.79.347-1.544.513-2.254.024-.098.047-.205.071-.302.39-1.637.772-3.051 1.172-4.277.009-.033.019-.074.03-.107l-.004.02C5.738 3.61 7.658 1.83 11.82 1.658c5.156-.214 11.607 4.068 14.631 7.252z"/>
</svg>
