<svg xmlns="http://www.w3.org/2000/svg" width="13" height="14" viewBox="0 0 13 14">
    <path fill="#2C4349" fill-rule="evenodd" stroke="#2C4349" stroke-linejoin="round" stroke-width="1.54" d="M7.548 1.299h.005c.582.035 1.192.102 1.86.25 0 0 1.644.983 2.124 4.882.228 1.841.131 3.842-.672 5.4 0 0-2.991 2.236-6.85.424-.437-.202-.798-.469-1.131-.758-.102-.09-.193-.188-.285-.283-.098-.102-.214-.19-.302-.297.019 0 .038-.007.057-.007C.356 8.486.78 4.435 2.131 2.929c.663-.74 2.523-1.799 5.417-1.63z"/>
</svg>
