<?xml version="1.0" encoding="utf-8"?>
<!-- Generator: Adobe Illustrator 23.0.1, SVG Export Plug-In . SVG Version: 6.00 Build 0)  -->
<svg version="1.1" id="Capa_1" xmlns="http://www.w3.org/2000/svg" xmlns:xlink="http://www.w3.org/1999/xlink" x="0px" y="0px"
	 viewBox="0 0 205 159" style="enable-background:new 0 0 205 159;" xml:space="preserve">
<style type="text/css">
	.st0{fill:none;stroke:#F7BFA0;stroke-width:1.4;stroke-linejoin:round;}
	.st1{fill:none;stroke:#2C4349;stroke-width:1.4;stroke-linejoin:round;}
	.st2{enable-background:new    ;}
	.st3{fill:#F7BFA0;}
</style>
<title>CLEAN RIGHT HAND</title>
<desc>Created with Sketch.</desc>
<g id="Page-1">
	<g id="CLEAN-RIGHT-HAND" transform="translate(0.713734, 1.000000)">
		<path id="Stroke-1" class="st0" d="M203.6,2.1c-13.7-1.9-27.6-2.7-40.9-1.6c-26.2,2.2-26.2,5.9-43.7,5.9
			c-17.5,0-30.9,3.2-42.5,4.9c-11.7,1.7-16.8,4.2-17.3,4.9"/>
		<path id="Stroke-4" class="st0" d="M58.7,27.9c0,0.6,1.6,1.9,7.9,1.8c4.5-0.1,34.6-2.4,44.8-2.4c10.2,0,24.6,1.7,27.7,1.7
			c6.2,0,7,4.6-0.8,5.3c-8.7,0.7-24.2,1.6-31.8,1.6c-7.7,0-20-1.3-38.1,0c-18.1,1.3-25.6,2.1-32,2.3c-6.4,0.3-9.8,1.2-11.1,3.1"/>
		<path id="Stroke-6" class="st0" d="M23.2,53.4c-0.2,1,0.8,3.7,11.8,3.8c11,0.1,19.6-0.7,31.8-0.1c12.2,0.6,16.2,0.7,30.2,0.5
			c14-0.2,26,1.9,28.7,2.1c5.5,0.5,6,4.6,0.8,4.7c-4,0.1-19.9,0.6-29.6,0.2c-9.7-0.4-13.1-0.7-35.9-1.2c-33.9-0.7-38.4-0.1-42.9-0.1
			c-4.5,0-9,1-10.1,3"/>
		<path id="Stroke-8" class="st0" d="M6.2,80c-0.1,1.1,3.4,3.2,12,3.8c8.6,0.6,23.3,1.5,29.8,2.4c6.5,0.8,16.5,1.5,32.3,1.7
			c15.8,0.2,33.3,3.1,43.2,3.8c3.4,0.2,5.1,1.5,5.1,3c0,1.5-1.8,1.7-5.9,2c-4.8,0.4-13.6,0.7-20.4,0.3c-6.8-0.5-16.7-2.6-40.4-3.6
			c-23.6-1-25.6-0.4-31.6-0.6c-6.1-0.3-9.5,0.4-10.3,1.8"/>
		<path id="Stroke-10" class="st0" d="M20.7,108.7c0,1,4.3,4.5,16.9,5.3c12.5,0.8,27.8,5.9,39.2,6.8c11.4,0.9,23.6,1.6,32.3,2.5
			c8.6,0.9,36.3,4.4,45.2,6.4"/>
		<path id="Stroke-12" class="st0" d="M203.5,139.2c-10.8,5.9-12.9,6.2-21.6,9c-9.8,3.1-10.1,2-25.4,0c-15.9-2.1-23.2-3.8-32.5-1.9
			c-9.3,1.9-12.7,1.8-15.8,1.8c-3.1,0-5.7,0.7-5.7,0.7"/>
		<path id="Stroke-14" class="st0" d="M80.2,151.3c0,0-2.4-4.2,0.5-9.7c2.9-5.5,12-11.3,18.2-13.2c6.2-1.9,9.6-4.8,16.8-4.2"/>
		<path id="Stroke-16" class="st1" d="M85.4,145.8c4.6-2.7,9.9-3.7,14.4-2.5c0.7,0.2,1.2,0.8,1.9,2.3c0.8,1.9,0.9,3.3,0.9,3.3
			s-2.8,1.5-5.5,2.7c-5.9,2.5-10.4,4.8-15.6,4.8c-0.9,0-2.9-0.2-1.9-4.2C80.2,150.1,82.7,147.5,85.4,145.8z"/>
		<path id="Stroke-18" class="st1" d="M36.8,102.6c0-4-4-7.4-6.5-7.6c-2.3-0.2-7.9-0.3-8.8-0.3c-0.9,0-3.5,0-4.6,0.6
			c-1.1,0.6-3.7,2.4-3.7,6.2c0,3.8,3.8,6.3,7,6.9c3.1,0.6,8.6,0.9,10,1C31.6,109.5,36.7,108.5,36.8,102.6z"/>
		<path id="Stroke-20" class="st1" d="M39.8,47.2c-0.1,3.5-2.9,6.4-5.2,6.5c-2.1,0-8.3-0.1-9.2-0.1c-3.1,0.1-7.4-2.3-7.2-6.5
			c0.2-4.2,3.5-5.8,6.5-5.9c2.9-0.1,7.6-0.2,8.9-0.2C34.9,41,40,41.9,39.8,47.2z"/>
		<path id="Stroke-22" class="st1" d="M72.5,21.2c0,3.2-2.4,5.7-4.5,5.8c-1.9,0.1-6.5,0.4-7.2,0.5c-2.8,0.2-6.4-1.2-6.4-5.1
			c0-3.8,2.9-6.2,6.3-6.4c2.6-0.2,5-0.3,6.2-0.3C67.9,15.7,72.5,16.4,72.5,21.2z"/>
		<path id="Stroke-24" class="st1" d="M23.9,73.1c0-4.5-4-6.7-6.5-6.8c-2.3-0.2-7.5,0.2-8.4,0.1c-6.3-0.2-8.9,3.1-9,6.9
			c0,3.8,3.3,6.3,7.2,6.4c3.2,0.1,8.7,0.2,10.1,0.2C19.6,80,23.9,79,23.9,73.1z"/>
	</g>
</g>
<g id="Page-1_1_">
	<g id="FIT-REVIEW-SOME-Copy" transform="translate(-248.000000, -183.000000)">
		<g class="st2">
			<path class="st3" d="M421.5,277.1l-10.1-16.8h-7.8v16.8h-1v-33.3h9.2c1.2,0,2.5,0.1,3.7,0.3c1.3,0.2,2.4,0.6,3.4,1.2
				c1,0.6,1.8,1.4,2.4,2.5c0.6,1.1,0.9,2.4,0.9,4.1c0,1.6-0.3,2.9-0.9,3.9c-0.6,1-1.4,1.9-2.3,2.5c-0.9,0.6-2,1.1-3.1,1.4
				c-1.1,0.3-2.3,0.4-3.4,0.4l10.1,16.8h-1.1V277.1z M421.2,252c0-1.4-0.3-2.6-0.8-3.6c-0.6-1-1.3-1.7-2.2-2.3
				c-0.9-0.5-2-0.9-3.2-1.2c-1.2-0.2-2.4-0.3-3.7-0.3h-7.7v14.7h8.1c3.1,0,5.4-0.6,7-1.9C420.4,256.2,421.2,254.4,421.2,252z"/>
		</g>
	</g>
</g>
</svg>
