<?xml version="1.0" encoding="utf-8"?>
<!-- Generator: Adobe Illustrator 23.0.1, SVG Export Plug-In . SVG Version: 6.00 Build 0)  -->
<svg version="1.1" id="Capa_1" xmlns="http://www.w3.org/2000/svg" xmlns:xlink="http://www.w3.org/1999/xlink" x="0px" y="0px"
	 viewBox="0 0 201 159" style="enable-background:new 0 0 201 159;" xml:space="preserve">
<style type="text/css">
	.st0{fill:none;stroke:#F7BFA0;stroke-width:1.4;stroke-linejoin:round;}
	.st1{fill:none;stroke:#2C4349;stroke-width:1.4;stroke-linejoin:round;}
	.st2{enable-background:new    ;}
	.st3{fill:#F7BFA0;}
</style>
<title>CLEAN LEFT HAND</title>
<desc>Created with Sketch.</desc>
<g id="Page-1">
	
		<g id="CLEAN-LEFT-HAND" transform="translate(100.500000, 79.519838) scale(1, -1) translate(-100.500000, -79.519838) translate(1.000000, 1.019838)">
		<path id="Stroke-26" class="st0" d="M0,155c12.1,1.4,24.2,1.9,35.9,1c26.2-2.2,26.2-5.9,43.7-5.9c17.5,0,30.9-3.2,42.5-4.9
			c11.7-1.7,16.8-4.2,17.3-4.9"/>
		<path id="Stroke-28" class="st0" d="M139.8,128.6c0-0.6-1.6-1.9-7.9-1.8c-4.5,0.1-34.6,2.4-44.8,2.4c-10.2,0-24.6-1.7-27.7-1.7
			c-6.2,0-7-4.6,0.8-5.3c8.7-0.7,24.2-1.6,31.8-1.6c7.7,0,20,1.3,38.1,0c18.1-1.3,25.6-2.1,32-2.3c6.4-0.3,9.8-1.2,11.1-3.1"/>
		<path id="Stroke-30" class="st0" d="M175.4,103.1c0.2-1-0.8-3.7-11.8-3.8c-11-0.1-19.6,0.7-31.8,0.1c-12.2-0.6-16.2-0.7-30.2-0.5
			s-26-1.9-28.8-2.1c-5.5-0.5-6-4.6-0.8-4.7c4-0.1,19.9-0.6,29.6-0.2c9.7,0.4,13.1,0.7,35.9,1.2c33.9,0.7,38.4,0.1,42.9,0.1
			c4.5,0,9-1,10.1-3"/>
		<path id="Stroke-32" class="st0" d="M192.3,76.5c0.1-1.1-3.4-3.2-12-3.8c-8.6-0.6-23.3-1.5-29.8-2.4c-6.5-0.8-16.5-1.5-32.3-1.7
			c-15.8-0.2-33.3-3.1-43.2-3.8c-3.4-0.2-5.1-1.5-5.1-3c0-1.5,1.8-1.7,5.9-2c4.8-0.4,13.6-0.7,20.4-0.3c6.8,0.5,16.7,2.6,40.4,3.6
			c23.6,1,25.6,0.4,31.6,0.6c6.1,0.3,9.5-0.4,10.3-1.8"/>
		<path id="Stroke-34" class="st0" d="M177.9,47.8c0-1-4.3-4.5-16.9-5.3c-12.5-0.8-27.8-5.9-39.2-6.8c-11.4-0.9-23.6-1.6-32.3-2.5
			c-8.6-0.9-36.3-4.4-45.2-6.4"/>
		<path id="Stroke-36" class="st0" d="M0,14.6c6.7-3.4,9.4-4.1,16.6-6.3c9.8-3.1,10.1-2,25.4,0c15.9,2.1,23.2,3.8,32.5,1.9
			c9.3-1.9,12.7-1.8,15.8-1.8c3.1,0,5.7-0.7,5.7-0.7"/>
		<path id="Stroke-38" class="st0" d="M118.4,5.1c0,0,2.4,4.2-0.5,9.7c-2.9,5.5-12,11.3-18.2,13.2s-9.6,4.8-16.8,4.2"/>
		<path id="Stroke-40" class="st1" d="M113.1,10.6c-4.6,2.7-9.9,3.7-14.4,2.5c-0.7-0.2-1.2-0.8-1.9-2.3c-0.8-1.9-0.9-3.3-0.9-3.3
			s2.8-1.5,5.5-2.7C107.3,2.2,111.8,0,117,0c0.9,0,2.9,0.2,1.9,4.2C118.3,6.4,115.9,9,113.1,10.6z"/>
		<path id="Stroke-42" class="st1" d="M161.8,53.9c0,4,4,7.4,6.5,7.6c2.3,0.2,7.9,0.3,8.8,0.3s3.5,0,4.6-0.6
			c1.1-0.6,3.7-2.4,3.7-6.2c0-3.8-3.8-6.3-7-6.9c-3.1-0.6-8.6-0.9-10-1C167,47,161.8,48,161.8,53.9z"/>
		<path id="Stroke-44" class="st1" d="M158.8,109.3c0.1-3.5,2.9-6.4,5.2-6.5c2.1,0,8.3,0.1,9.2,0.1c3.1-0.1,7.4,2.3,7.2,6.5
			c-0.2,4.2-3.5,5.8-6.5,5.9c-2.9,0.1-7.6,0.2-8.9,0.2C163.6,115.4,158.6,114.6,158.8,109.3z"/>
		<path id="Stroke-46" class="st1" d="M126.1,135.2c0-3.2,2.4-5.7,4.5-5.8c1.9-0.1,6.5-0.4,7.2-0.5c2.8-0.2,6.4,1.2,6.4,5.1
			c0,3.8-2.9,6.2-6.3,6.4c-2.6,0.2-5,0.3-6.2,0.3C130.7,140.7,126,140.1,126.1,135.2z"/>
		<path id="Stroke-48" class="st1" d="M174.7,83.3c0,4.5,4,6.7,6.5,6.8c2.3,0.2,7.5-0.2,8.4-0.1c6.3,0.2,8.9-3.1,9-6.9
			c0-3.8-3.3-6.3-7.2-6.4c-3.2-0.1-8.7-0.2-10.1-0.2C179,76.5,174.7,77.4,174.7,83.3z"/>
	</g>
</g>
<g id="Page-1_1_">
	<g id="FIT-REVIEW-SOME-Copy" transform="translate(-49.000000, -363.000000)">
		<g class="st2">
			<path class="st3" d="M80.5,461.2v-33.3h1v32.3H98v0.9H80.5V461.2z"/>
		</g>
	</g>
</g>
</svg>
