<svg xmlns="http://www.w3.org/2000/svg" width="99.499" height="198.763" viewBox="0 0 99.499 198.763">
  <g id="POOR_FIT" transform="translate(-0.003 0.73)">
    <path id="Stroke_13" data-name="Stroke 13" d="M0,166S.112,83.177.217,65.388C.292,52.764.458,40.136,3.54,27.809,6.52,15.873,11.892,6.474,20,0" transform="translate(0.753 32)" fill="none" stroke="#f6bea0" stroke-linejoin="round" stroke-miterlimit="10" stroke-width="1.5"/>
    <path id="Stroke_15" data-name="Stroke 15" d="M0,0A37.136,37.136,0,0,1,4.367,5.392,69.345,69.345,0,0,1,15.723,39.214c.8,10.4,1,20.853,1.449,31.281C17.784,84.662,18.391,150.831,19,165" transform="translate(79.753 33)" fill="none" stroke="#f6bea0" stroke-linejoin="round" stroke-miterlimit="10" stroke-width="1.5"/>
    <path id="Fill_17" data-name="Fill 17" d="M.015,49.245c0-4.188.106-8.376.16-12.559.064-4.622.108-9.245.361-13.854.191-3.482.667-6.945,1.072-10.409.165-1.4.477-2.77.732-4.152A6.329,6.329,0,0,1,6.356,3.318a33.163,33.163,0,0,1,7.292-2.061C21.359-.107,29.138-.123,36.917.119c2.559.08,5.122.326,7.668.614A38.439,38.439,0,0,1,54.42,2.817c.309.121.608.265.907.411a2.826,2.826,0,0,1,1.747,2.467c.206,2.323.505,4.635.745,6.958.322,3.15.642,6.3.928,9.455.175,1.96.3,3.929.425,5.892.186,2.97.371,5.938.528,8.908.139,2.577.242,5.159.363,7.739.273,5.946.6,11.891.806,17.839.134,3.872.137,7.752.129,11.626,0,2.166-.1,4.332-.245,6.49a80.356,80.356,0,0,1-1.3,10.7,45.845,45.845,0,0,1-1.948,7.048,18.012,18.012,0,0,1-6.243,8.15,35.725,35.725,0,0,1-13.908,6.729,28.8,28.8,0,0,1-23.035-4.281,33.222,33.222,0,0,1-6.606-5.558,24.544,24.544,0,0,1-5.48-11.881,82.108,82.108,0,0,1-1.373-12c-.183-4-.4-8-.505-12.007C.2,61.421.123,55.332.015,49.245c.052,0-.052,0,0,0" transform="translate(20.753)" fill="#fefefe"/>
    <path id="Stroke_19" data-name="Stroke 19" d="M.015,49.245c0-4.188.106-8.376.16-12.559.064-4.622.108-9.245.361-13.854.191-3.482.667-6.945,1.072-10.409.165-1.4.477-2.77.732-4.152A6.329,6.329,0,0,1,6.356,3.318a33.163,33.163,0,0,1,7.292-2.061C21.359-.107,29.138-.123,36.917.119c2.559.08,5.122.326,7.668.614A38.439,38.439,0,0,1,54.42,2.817c.309.121.608.265.907.411a2.826,2.826,0,0,1,1.747,2.467c.206,2.323.505,4.635.745,6.958.322,3.15.642,6.3.928,9.455.175,1.96.3,3.929.425,5.892.186,2.97.371,5.938.528,8.908.139,2.577.242,5.159.363,7.739.273,5.946.6,11.891.806,17.839.134,3.872.137,7.752.129,11.626,0,2.166-.1,4.332-.245,6.49a80.356,80.356,0,0,1-1.3,10.7,45.845,45.845,0,0,1-1.948,7.048,18.012,18.012,0,0,1-6.243,8.15,35.725,35.725,0,0,1-13.908,6.729,28.8,28.8,0,0,1-23.035-4.281,33.222,33.222,0,0,1-6.606-5.558,24.544,24.544,0,0,1-5.48-11.881,82.108,82.108,0,0,1-1.373-12c-.183-4-.4-8-.505-12.007C.2,61.421.123,55.332.015,49.245.066,49.243-.037,49.245.015,49.245Z" transform="translate(20.753)" fill="none" stroke="#f6bea0" stroke-linejoin="round" stroke-miterlimit="10" stroke-width="1.5"/>
    <path id="Fill_21" data-name="Fill 21" d="M.012,51.546c0-3.823.084-7.647.128-11.47C.186,35.854.27,25.067.467,20.852c.148-3.177.522-6.341.842-9.5.131-1.275.374-2.533.576-3.8A5.665,5.665,0,0,1,5.048,3.032a23.294,23.294,0,0,1,5.737-1.884A76.654,76.654,0,0,1,29.093.108c2.014.074,4.028.3,6.037.562a26.837,26.837,0,0,1,7.739,1.9c.241.11.476.243.709.373A2.605,2.605,0,0,1,44.955,5.2c.161,2.124.4,4.237.586,6.359.253,2.878.448,6.151.645,10.652.079,1.794.394,8.119.491,9.916.148,2.712.174,5.438.3,8.153.11,2.356.192,4.713.284,7.066.218,5.431.471,10.862.637,16.295.1,3.537.107,7.082.1,10.621,0,1.976-.074,3.956-.189,5.927-.192,3.279-.276,8.955-.947,14.043C46.567,96.444,47.12,109,24.907,109,2.492,109,2.727,97.62,2.179,93.533,1.511,88.542.826,82.881.68,79.193c-.146-3.652-.317-7.307-.4-10.964C.158,62.671.1,57.107.012,51.546h0" transform="translate(27.753)" fill="#fefefe"/>
    <path id="Stroke_23" data-name="Stroke 23" d="M.012,51.546c0-3.823.084-7.647.128-11.47C.186,35.854.27,25.067.467,20.852c.148-3.177.522-6.341.842-9.5.131-1.275.374-2.533.576-3.8A5.665,5.665,0,0,1,5.048,3.032a23.294,23.294,0,0,1,5.737-1.884A76.654,76.654,0,0,1,29.093.108c2.014.074,4.028.3,6.037.562a26.837,26.837,0,0,1,7.739,1.9c.241.11.476.243.709.373A2.605,2.605,0,0,1,44.955,5.2c.161,2.124.4,4.237.586,6.359.253,2.878.448,6.151.645,10.652.079,1.794.394,8.119.491,9.916.148,2.712.174,5.438.3,8.153.11,2.356.192,4.713.284,7.066.218,5.431.471,10.862.637,16.295.1,3.537.107,7.082.1,10.621,0,1.976-.074,3.956-.189,5.927-.192,3.279-.276,8.955-.947,14.043C46.567,96.444,47.12,109,24.907,109,2.492,109,2.727,97.62,2.179,93.533,1.511,88.542.826,82.881.68,79.193c-.146-3.652-.317-7.307-.4-10.964C.158,62.671.1,57.107.012,51.546Z" transform="translate(27.753)" fill="none" stroke="#2d4349" stroke-linejoin="round" stroke-miterlimit="10" stroke-width="1.5"/>
  </g>
</svg>
