<svg xmlns="http://www.w3.org/2000/svg" width="54" height="49" viewBox="0 0 54 49">
  <g id="Group_1" data-name="Group 1" transform="translate(-178.5 -11)">
    <g id="Base_Copy_3" data-name="Base Copy 3" transform="translate(179 11.5)">
      <rect id="Base_Copy_3-2" data-name="Base Copy 3" width="53" height="48" fill="#f7bfa0" stroke="#f7bfa0" stroke-miterlimit="10" stroke-width="1"/>
    </g>
    <g id="CameraUpload" transform="translate(196.2 27.206)">
      <path id="Stroke_1" data-name="Stroke 1" d="M3.326,6.867A3.381,3.381,0,0,0,6.653,3.434,3.381,3.381,0,0,0,3.326,0,3.381,3.381,0,0,0,0,3.434,3.381,3.381,0,0,0,3.326,6.867Z" transform="translate(5.738 3.757)" fill="none" stroke="#fff" stroke-miterlimit="10" stroke-width="0.7"/>
      <path id="Stroke_3" data-name="Stroke 3" d="M14.084,12.978H1.452A1.476,1.476,0,0,1,0,11.479v-7.7a1.476,1.476,0,0,1,1.452-1.5H4.567l.516-1.132A1.932,1.932,0,0,1,6.835,0h4.338a1.932,1.932,0,0,1,1.752,1.147l.516,1.132h3.115a1.476,1.476,0,0,1,1.452,1.5V8.926" fill="none" stroke="#fff" stroke-miterlimit="10" stroke-width="0.7"/>
      <path id="Stroke_5" data-name="Stroke 5" d="M0,.206H2.706" transform="translate(0.89 0.286)" fill="none" stroke="#fff" stroke-miterlimit="10" stroke-width="0.7"/>
      <path id="Stroke_7" data-name="Stroke 7" d="M0,.206H2.706" transform="translate(15.303 12.771)" fill="none" stroke="#fff" stroke-miterlimit="10" stroke-width="0.7"/>
      <path id="Stroke_9" data-name="Stroke 9" d="M0,.206H2.706" transform="translate(18.009 12.771)" fill="none" stroke="#fff" stroke-miterlimit="10" stroke-width="0.7"/>
      <path id="Stroke_12" data-name="Stroke 12" d="M.2,2.793V0" transform="translate(17.809 12.978)" fill="none" stroke="#fff" stroke-miterlimit="10" stroke-width="0.7"/>
      <path id="Stroke_14" data-name="Stroke 14" d="M.2,2.793V0" transform="translate(17.809 10.184)" fill="none" stroke="#fff" stroke-miterlimit="10" stroke-width="0.7"/>
    </g>
  </g>
</svg>
