<svg xmlns="http://www.w3.org/2000/svg" xmlns:xlink="http://www.w3.org/1999/xlink" width="30" height="39" viewBox="0 0 30 39">
    <defs>
        <filter id="gb7xranvqa" width="175.2%" height="153.3%" x="-37.6%" y="-20.4%" filterUnits="objectBoundingBox">
            <feMorphology in="SourceAlpha" operator="dilate" radius=".525" result="shadowSpreadOuter1"/>
            <feOffset dy="2" in="shadowSpreadOuter1" result="shadowOffsetOuter1"/>
            <feGaussianBlur in="shadowOffsetOuter1" result="shadowBlurOuter1" stdDeviation="2"/>
            <feComposite in="shadowBlurOuter1" in2="SourceAlpha" operator="out" result="shadowBlurOuter1"/>
            <feColorMatrix in="shadowBlurOuter1" values="0 0 0 0 0 0 0 0 0 0 0 0 0 0 0 0 0 0 0.5 0"/>
        </filter>
        <path id="aukhfbwuyb" d="M18.45 13.573c-.988-1.914-2.124-3.91-3.378-5.931-.736-1.188-1.522-2.304-2.358-3.493l-.08-.115c-.327-.465-.661-.94-.998-1.43L9.848 0 7.476 3.446c-.337.487-.655.947-.966 1.418-2.12 3.202-3.99 6.125-5.374 9.473C.593 15.65.034 17.207.002 18.822c-.109 5.388 4.176 9.95 9.552 10.17.136.005.27.008.406.008h.099c5.18-.049 9.439-4.044 9.907-9.294.213-2.394-.603-4.363-1.517-6.133"/>
    </defs>
    <g fill="none" fill-rule="evenodd">
        <g>
            <g>
                <g>
                    <g>
                        <g transform="translate(-820 -411) translate(487 314) translate(17 100) translate(321)">
                            <use fill="#000" filter="url(#gb7xranvqa)" xlink:href="#aukhfbwuyb"/>
                            <use fill="#F7BFA0" stroke="#F7BFA0" stroke-width="1.05" xlink:href="#aukhfbwuyb"/>
                        </g>
                        <g fill="#2C4349" fill-rule="nonzero">
                            <path d="M3.26 8.83v-.72c.32-.033.618-.103.895-.21s.518-.252.725-.435c.207-.183.37-.403.49-.66s.18-.552.18-.885c0-.34-.065-.623-.195-.85-.13-.227-.3-.415-.51-.565-.21-.15-.45-.272-.72-.365-.27-.093-.545-.177-.825-.25l-.04-.01v-2c.233 0 .457.048.67.145.213.097.397.228.55.395l.83-.93c-.253-.227-.558-.398-.915-.515C4.038.858 3.69.8 3.35.8h-.09V.14h-.54v.67c-.28.027-.55.093-.81.2-.26.107-.49.248-.69.425-.2.177-.36.385-.48.625s-.18.51-.18.81c0 .333.057.612.17.835.113.223.268.413.465.57.197.157.422.283.675.38.253.097.52.185.8.265l.05.01v2.11c-.28-.027-.547-.1-.8-.22s-.46-.293-.62-.52l-.91.93c.307.32.662.55 1.065.69.403.14.825.207 1.265.2v.71h.54zm-.54-5.1c-.12-.053-.235-.102-.345-.145-.11-.043-.205-.098-.285-.165-.08-.067-.145-.147-.195-.24-.05-.093-.075-.217-.075-.37 0-.253.092-.458.275-.615.183-.157.392-.255.625-.295v1.83zm.54 3.31V5.09c.12.04.24.083.36.13s.23.103.33.17c.1.067.182.15.245.25s.095.223.095.37-.028.278-.085.395c-.057.117-.132.217-.225.3-.093.083-.202.153-.325.21-.123.057-.255.098-.395.125zM10.93 8.12c.36 0 .697-.057 1.01-.17.313-.113.585-.275.815-.485.23-.21.41-.467.54-.77.13-.303.195-.645.195-1.025 0-.36-.058-.683-.175-.97-.117-.287-.278-.533-.485-.74-.207-.207-.455-.365-.745-.475-.29-.11-.608-.165-.955-.165-.127 0-.262.007-.405.02-.143.013-.262.037-.355.07L10.4 2h2.85V.92H9.22l-.07 3.82c.213-.107.448-.19.705-.25.257-.06.515-.09.775-.09.22 0 .43.025.63.075.2.05.377.13.53.24.153.11.275.252.365.425.09.173.135.383.135.63 0 .173-.03.333-.09.48-.06.147-.145.275-.255.385-.11.11-.24.195-.39.255-.15.06-.315.09-.495.09-.307 0-.557-.073-.75-.22-.193-.147-.33-.347-.41-.6l-1.26.34c.167.547.448.953.845 1.22.397.267.878.4 1.445.4z" transform="translate(-820 -411) translate(487 314) translate(17 100) translate(321) translate(3 12)"/>
                            <path d="M8.23 8L8.23 0.92 7.14 0.92 5 2.7 5.7 3.53 7.03 2.3 7.03 8z" transform="translate(-820 -411) translate(487 314) translate(17 100) translate(321) translate(3 12)"/>
                        </g>
                    </g>
                </g>
            </g>
        </g>
    </g>
</svg>
