<svg xmlns="http://www.w3.org/2000/svg" xmlns:xlink="http://www.w3.org/1999/xlink" width="89" height="89" viewBox="0 0 89 89">
    <defs>
        <path id="s75lwmju6a" d="M0.002 0.594L40.18 0.594 40.18 21 0.002 21z"/>
    </defs>
    <g fill="none" fill-rule="evenodd">
        <g>
            <g transform="translate(-143 -156) translate(143 156)">
                <circle cx="44.5" cy="44.5" r="44.5" fill="#F5DED1"/>
                <g>
                    <path fill="#37444A" d="M12.714 15.187c-.987 1.182-2.398 1.828-3.89 1.781-2.673-.087-4.825-2.427-4.798-5.216.008-.838.3-1.697.584-2.428.12-.309.259-.632.43-1.01 1.013 1.738 3.694 5.014 7.674 6.873m1.247-3.09c-.06.788-.281 1.538-.658 2.225-4.375-1.984-7.332-6.065-7.711-7.152.638-1.237 1.385-2.449 2.1-3.585.175-.282.357-.558.581-.897l.54-.832.224.328c.224.331.445.651.676.985.491.706.952 1.371 1.389 2.083.747 1.223 1.43 2.43 2.021 3.593.491.961.933 2.017.838 3.252m.076-3.72c-.603-1.182-1.296-2.416-2.062-3.664-.448-.73-.925-1.42-1.435-2.154l-.046-.071c-.202-.288-.404-.58-.609-.881L8.797 0 7.395 2.154c-.2.304-.388.591-.573.884-1.255 2-2.357 3.826-3.167 5.911-.32.819-.647 1.79-.655 2.792-.032 3.344 2.564 6.152 5.791 6.256.082.003.164.003.243.003h.06c3.107-.06 5.639-2.564 5.89-5.827.114-1.486-.388-2.704-.947-3.796M34.715 15.185c-.988 1.183-2.4 1.831-3.89 1.782-2.672-.085-4.824-2.428-4.797-5.217.009-.837.3-1.697.584-2.428.12-.306.256-.632.428-1.01 1.015 1.738 3.696 5.017 7.675 6.873m1.246-3.09c-.063.788-.281 1.538-.657 2.228-4.375-1.987-7.331-6.068-7.713-7.152.641-1.237 1.388-2.45 2.1-3.585.177-.282.36-.562.581-.901l.543-.83.22.33c.224.33.445.648.68.982.488.706.951 1.371 1.388 2.085.747 1.221 1.426 2.43 2.02 3.594.492.958.93 2.015.838 3.249m.076-3.72c-.605-1.182-1.298-2.416-2.061-3.662-.45-.733-.928-1.423-1.435-2.154l-.05-.071c-.198-.287-.4-.58-.607-.884L30.796 0l-1.402 2.151c-.2.304-.387.592-.57.887-1.255 1.998-2.356 3.824-3.17 5.912-.316.816-.643 1.787-.654 2.79-.032 3.344 2.564 6.152 5.793 6.256.079.003.16.006.243.003h.057c3.109-.06 5.64-2.565 5.89-5.827.115-1.487-.39-2.702-.946-3.797" transform="translate(24 25)"/>
                    <g transform="translate(24 25) translate(0 21)">
                        <mask id="wn74oskwnb" fill="#fff">
                            <use xlink:href="#s75lwmju6a"/>
                        </mask>
                        <path fill="#37444A" d="M20.28 21C9.203 21.106.107 12.124.003.98L1.366.965c.098 10.39 8.577 18.76 18.9 18.658 10.327-.099 18.648-8.629 18.55-19.016l1.363-.014C40.286 11.74 31.36 20.892 20.281 21" mask="url(#wn74oskwnb)"/>
                    </g>
                </g>
            </g>
        </g>
    </g>
</svg>
